%TF.GenerationSoftware,KiCad,Pcbnew,8.0.6*%
%TF.CreationDate,2024-11-13T15:41:56-05:00*%
%TF.ProjectId,KiCAD-RFM69,4b694341-442d-4524-964d-36392e6b6963,rev?*%
%TF.SameCoordinates,Original*%
%TF.FileFunction,Drillmap*%
%TF.FilePolarity,Positive*%
%FSLAX45Y45*%
G04 Gerber Fmt 4.5, Leading zero omitted, Abs format (unit mm)*
G04 Created by KiCad (PCBNEW 8.0.6) date 2024-11-13 15:41:56*
%MOMM*%
%LPD*%
G01*
G04 APERTURE LIST*
%ADD10C,0.100000*%
%ADD11C,0.200000*%
%ADD12C,0.270000*%
G04 APERTURE END LIST*
D10*
X14360000Y-6300416D02*
G75*
G02*
X14699735Y-6630000I10000J-329584D01*
G01*
X10360000Y-6300000D02*
X14360000Y-6300416D01*
X14700000Y-14659584D02*
G75*
G02*
X14360560Y-14980004I-330000J9584D01*
G01*
X14360560Y-14980004D02*
X10350000Y-14990223D01*
X10000000Y-14652513D02*
X10000000Y-6660000D01*
X10350000Y-14990223D02*
G75*
G02*
X10000000Y-14652513I0J350224D01*
G01*
X14700000Y-6630000D02*
X14700000Y-14659584D01*
X10000000Y-6660000D02*
G75*
G02*
X10360000Y-6300000I350000J10000D01*
G01*
D11*
D10*
X12128500Y-6767500D02*
X12193500Y-6832500D01*
X12193500Y-6767500D02*
X12128500Y-6832500D01*
X12706500Y-6767500D02*
X12771500Y-6832500D01*
X12771500Y-6767500D02*
X12706500Y-6832500D01*
D12*
X10485000Y-14652513D02*
G75*
G02*
X10215000Y-14652513I-135000J0D01*
G01*
X10215000Y-14652513D02*
G75*
G02*
X10485000Y-14652513I135000J0D01*
G01*
X10495000Y-6660000D02*
G75*
G02*
X10225000Y-6660000I-135000J0D01*
G01*
X10225000Y-6660000D02*
G75*
G02*
X10495000Y-6660000I135000J0D01*
G01*
X14475000Y-6660000D02*
G75*
G02*
X14205000Y-6660000I-135000J0D01*
G01*
X14205000Y-6660000D02*
G75*
G02*
X14475000Y-6660000I135000J0D01*
G01*
X14475000Y-14620000D02*
G75*
G02*
X14205000Y-14620000I-135000J0D01*
G01*
X14205000Y-14620000D02*
G75*
G02*
X14475000Y-14620000I135000J0D01*
G01*
D11*
X10255634Y-15306707D02*
X10255634Y-15106707D01*
X10255634Y-15106707D02*
X10303253Y-15106707D01*
X10303253Y-15106707D02*
X10331825Y-15116231D01*
X10331825Y-15116231D02*
X10350872Y-15135279D01*
X10350872Y-15135279D02*
X10360396Y-15154326D01*
X10360396Y-15154326D02*
X10369920Y-15192421D01*
X10369920Y-15192421D02*
X10369920Y-15220993D01*
X10369920Y-15220993D02*
X10360396Y-15259088D01*
X10360396Y-15259088D02*
X10350872Y-15278136D01*
X10350872Y-15278136D02*
X10331825Y-15297183D01*
X10331825Y-15297183D02*
X10303253Y-15306707D01*
X10303253Y-15306707D02*
X10255634Y-15306707D01*
X10455634Y-15306707D02*
X10455634Y-15173374D01*
X10455634Y-15211469D02*
X10465158Y-15192421D01*
X10465158Y-15192421D02*
X10474682Y-15182898D01*
X10474682Y-15182898D02*
X10493729Y-15173374D01*
X10493729Y-15173374D02*
X10512777Y-15173374D01*
X10579444Y-15306707D02*
X10579444Y-15173374D01*
X10579444Y-15106707D02*
X10569920Y-15116231D01*
X10569920Y-15116231D02*
X10579444Y-15125755D01*
X10579444Y-15125755D02*
X10588967Y-15116231D01*
X10588967Y-15116231D02*
X10579444Y-15106707D01*
X10579444Y-15106707D02*
X10579444Y-15125755D01*
X10703253Y-15306707D02*
X10684205Y-15297183D01*
X10684205Y-15297183D02*
X10674682Y-15278136D01*
X10674682Y-15278136D02*
X10674682Y-15106707D01*
X10808015Y-15306707D02*
X10788967Y-15297183D01*
X10788967Y-15297183D02*
X10779444Y-15278136D01*
X10779444Y-15278136D02*
X10779444Y-15106707D01*
X11036586Y-15306707D02*
X11036586Y-15106707D01*
X11036586Y-15106707D02*
X11103253Y-15249564D01*
X11103253Y-15249564D02*
X11169920Y-15106707D01*
X11169920Y-15106707D02*
X11169920Y-15306707D01*
X11350872Y-15306707D02*
X11350872Y-15201945D01*
X11350872Y-15201945D02*
X11341348Y-15182898D01*
X11341348Y-15182898D02*
X11322301Y-15173374D01*
X11322301Y-15173374D02*
X11284205Y-15173374D01*
X11284205Y-15173374D02*
X11265158Y-15182898D01*
X11350872Y-15297183D02*
X11331824Y-15306707D01*
X11331824Y-15306707D02*
X11284205Y-15306707D01*
X11284205Y-15306707D02*
X11265158Y-15297183D01*
X11265158Y-15297183D02*
X11255634Y-15278136D01*
X11255634Y-15278136D02*
X11255634Y-15259088D01*
X11255634Y-15259088D02*
X11265158Y-15240041D01*
X11265158Y-15240041D02*
X11284205Y-15230517D01*
X11284205Y-15230517D02*
X11331824Y-15230517D01*
X11331824Y-15230517D02*
X11350872Y-15220993D01*
X11446110Y-15173374D02*
X11446110Y-15373374D01*
X11446110Y-15182898D02*
X11465158Y-15173374D01*
X11465158Y-15173374D02*
X11503253Y-15173374D01*
X11503253Y-15173374D02*
X11522301Y-15182898D01*
X11522301Y-15182898D02*
X11531824Y-15192421D01*
X11531824Y-15192421D02*
X11541348Y-15211469D01*
X11541348Y-15211469D02*
X11541348Y-15268612D01*
X11541348Y-15268612D02*
X11531824Y-15287660D01*
X11531824Y-15287660D02*
X11522301Y-15297183D01*
X11522301Y-15297183D02*
X11503253Y-15306707D01*
X11503253Y-15306707D02*
X11465158Y-15306707D01*
X11465158Y-15306707D02*
X11446110Y-15297183D01*
X11627063Y-15287660D02*
X11636586Y-15297183D01*
X11636586Y-15297183D02*
X11627063Y-15306707D01*
X11627063Y-15306707D02*
X11617539Y-15297183D01*
X11617539Y-15297183D02*
X11627063Y-15287660D01*
X11627063Y-15287660D02*
X11627063Y-15306707D01*
X11627063Y-15182898D02*
X11636586Y-15192421D01*
X11636586Y-15192421D02*
X11627063Y-15201945D01*
X11627063Y-15201945D02*
X11617539Y-15192421D01*
X11617539Y-15192421D02*
X11627063Y-15182898D01*
X11627063Y-15182898D02*
X11627063Y-15201945D01*
D10*
X9929857Y-15602723D02*
X9994857Y-15667723D01*
X9994857Y-15602723D02*
X9929857Y-15667723D01*
D11*
X10293729Y-15526707D02*
X10312777Y-15526707D01*
X10312777Y-15526707D02*
X10331825Y-15536231D01*
X10331825Y-15536231D02*
X10341348Y-15545755D01*
X10341348Y-15545755D02*
X10350872Y-15564802D01*
X10350872Y-15564802D02*
X10360396Y-15602898D01*
X10360396Y-15602898D02*
X10360396Y-15650517D01*
X10360396Y-15650517D02*
X10350872Y-15688612D01*
X10350872Y-15688612D02*
X10341348Y-15707660D01*
X10341348Y-15707660D02*
X10331825Y-15717183D01*
X10331825Y-15717183D02*
X10312777Y-15726707D01*
X10312777Y-15726707D02*
X10293729Y-15726707D01*
X10293729Y-15726707D02*
X10274682Y-15717183D01*
X10274682Y-15717183D02*
X10265158Y-15707660D01*
X10265158Y-15707660D02*
X10255634Y-15688612D01*
X10255634Y-15688612D02*
X10246110Y-15650517D01*
X10246110Y-15650517D02*
X10246110Y-15602898D01*
X10246110Y-15602898D02*
X10255634Y-15564802D01*
X10255634Y-15564802D02*
X10265158Y-15545755D01*
X10265158Y-15545755D02*
X10274682Y-15536231D01*
X10274682Y-15536231D02*
X10293729Y-15526707D01*
X10446110Y-15707660D02*
X10455634Y-15717183D01*
X10455634Y-15717183D02*
X10446110Y-15726707D01*
X10446110Y-15726707D02*
X10436586Y-15717183D01*
X10436586Y-15717183D02*
X10446110Y-15707660D01*
X10446110Y-15707660D02*
X10446110Y-15726707D01*
X10627063Y-15526707D02*
X10588967Y-15526707D01*
X10588967Y-15526707D02*
X10569920Y-15536231D01*
X10569920Y-15536231D02*
X10560396Y-15545755D01*
X10560396Y-15545755D02*
X10541348Y-15574326D01*
X10541348Y-15574326D02*
X10531825Y-15612421D01*
X10531825Y-15612421D02*
X10531825Y-15688612D01*
X10531825Y-15688612D02*
X10541348Y-15707660D01*
X10541348Y-15707660D02*
X10550872Y-15717183D01*
X10550872Y-15717183D02*
X10569920Y-15726707D01*
X10569920Y-15726707D02*
X10608015Y-15726707D01*
X10608015Y-15726707D02*
X10627063Y-15717183D01*
X10627063Y-15717183D02*
X10636586Y-15707660D01*
X10636586Y-15707660D02*
X10646110Y-15688612D01*
X10646110Y-15688612D02*
X10646110Y-15640993D01*
X10646110Y-15640993D02*
X10636586Y-15621945D01*
X10636586Y-15621945D02*
X10627063Y-15612421D01*
X10627063Y-15612421D02*
X10608015Y-15602898D01*
X10608015Y-15602898D02*
X10569920Y-15602898D01*
X10569920Y-15602898D02*
X10550872Y-15612421D01*
X10550872Y-15612421D02*
X10541348Y-15621945D01*
X10541348Y-15621945D02*
X10531825Y-15640993D01*
X10827063Y-15526707D02*
X10731825Y-15526707D01*
X10731825Y-15526707D02*
X10722301Y-15621945D01*
X10722301Y-15621945D02*
X10731825Y-15612421D01*
X10731825Y-15612421D02*
X10750872Y-15602898D01*
X10750872Y-15602898D02*
X10798491Y-15602898D01*
X10798491Y-15602898D02*
X10817539Y-15612421D01*
X10817539Y-15612421D02*
X10827063Y-15621945D01*
X10827063Y-15621945D02*
X10836586Y-15640993D01*
X10836586Y-15640993D02*
X10836586Y-15688612D01*
X10836586Y-15688612D02*
X10827063Y-15707660D01*
X10827063Y-15707660D02*
X10817539Y-15717183D01*
X10817539Y-15717183D02*
X10798491Y-15726707D01*
X10798491Y-15726707D02*
X10750872Y-15726707D01*
X10750872Y-15726707D02*
X10731825Y-15717183D01*
X10731825Y-15717183D02*
X10722301Y-15707660D01*
X10960396Y-15526707D02*
X10979444Y-15526707D01*
X10979444Y-15526707D02*
X10998491Y-15536231D01*
X10998491Y-15536231D02*
X11008015Y-15545755D01*
X11008015Y-15545755D02*
X11017539Y-15564802D01*
X11017539Y-15564802D02*
X11027063Y-15602898D01*
X11027063Y-15602898D02*
X11027063Y-15650517D01*
X11027063Y-15650517D02*
X11017539Y-15688612D01*
X11017539Y-15688612D02*
X11008015Y-15707660D01*
X11008015Y-15707660D02*
X10998491Y-15717183D01*
X10998491Y-15717183D02*
X10979444Y-15726707D01*
X10979444Y-15726707D02*
X10960396Y-15726707D01*
X10960396Y-15726707D02*
X10941348Y-15717183D01*
X10941348Y-15717183D02*
X10931825Y-15707660D01*
X10931825Y-15707660D02*
X10922301Y-15688612D01*
X10922301Y-15688612D02*
X10912777Y-15650517D01*
X10912777Y-15650517D02*
X10912777Y-15602898D01*
X10912777Y-15602898D02*
X10922301Y-15564802D01*
X10922301Y-15564802D02*
X10931825Y-15545755D01*
X10931825Y-15545755D02*
X10941348Y-15536231D01*
X10941348Y-15536231D02*
X10960396Y-15526707D01*
X11112777Y-15726707D02*
X11112777Y-15593374D01*
X11112777Y-15612421D02*
X11122301Y-15602898D01*
X11122301Y-15602898D02*
X11141348Y-15593374D01*
X11141348Y-15593374D02*
X11169920Y-15593374D01*
X11169920Y-15593374D02*
X11188967Y-15602898D01*
X11188967Y-15602898D02*
X11198491Y-15621945D01*
X11198491Y-15621945D02*
X11198491Y-15726707D01*
X11198491Y-15621945D02*
X11208015Y-15602898D01*
X11208015Y-15602898D02*
X11227063Y-15593374D01*
X11227063Y-15593374D02*
X11255634Y-15593374D01*
X11255634Y-15593374D02*
X11274682Y-15602898D01*
X11274682Y-15602898D02*
X11284205Y-15621945D01*
X11284205Y-15621945D02*
X11284205Y-15726707D01*
X11379444Y-15726707D02*
X11379444Y-15593374D01*
X11379444Y-15612421D02*
X11388967Y-15602898D01*
X11388967Y-15602898D02*
X11408015Y-15593374D01*
X11408015Y-15593374D02*
X11436586Y-15593374D01*
X11436586Y-15593374D02*
X11455634Y-15602898D01*
X11455634Y-15602898D02*
X11465158Y-15621945D01*
X11465158Y-15621945D02*
X11465158Y-15726707D01*
X11465158Y-15621945D02*
X11474682Y-15602898D01*
X11474682Y-15602898D02*
X11493729Y-15593374D01*
X11493729Y-15593374D02*
X11522301Y-15593374D01*
X11522301Y-15593374D02*
X11541348Y-15602898D01*
X11541348Y-15602898D02*
X11550872Y-15621945D01*
X11550872Y-15621945D02*
X11550872Y-15726707D01*
X11941348Y-15517183D02*
X11769920Y-15774326D01*
X12198491Y-15526707D02*
X12217539Y-15526707D01*
X12217539Y-15526707D02*
X12236587Y-15536231D01*
X12236587Y-15536231D02*
X12246110Y-15545755D01*
X12246110Y-15545755D02*
X12255634Y-15564802D01*
X12255634Y-15564802D02*
X12265158Y-15602898D01*
X12265158Y-15602898D02*
X12265158Y-15650517D01*
X12265158Y-15650517D02*
X12255634Y-15688612D01*
X12255634Y-15688612D02*
X12246110Y-15707660D01*
X12246110Y-15707660D02*
X12236587Y-15717183D01*
X12236587Y-15717183D02*
X12217539Y-15726707D01*
X12217539Y-15726707D02*
X12198491Y-15726707D01*
X12198491Y-15726707D02*
X12179444Y-15717183D01*
X12179444Y-15717183D02*
X12169920Y-15707660D01*
X12169920Y-15707660D02*
X12160396Y-15688612D01*
X12160396Y-15688612D02*
X12150872Y-15650517D01*
X12150872Y-15650517D02*
X12150872Y-15602898D01*
X12150872Y-15602898D02*
X12160396Y-15564802D01*
X12160396Y-15564802D02*
X12169920Y-15545755D01*
X12169920Y-15545755D02*
X12179444Y-15536231D01*
X12179444Y-15536231D02*
X12198491Y-15526707D01*
X12350872Y-15707660D02*
X12360396Y-15717183D01*
X12360396Y-15717183D02*
X12350872Y-15726707D01*
X12350872Y-15726707D02*
X12341348Y-15717183D01*
X12341348Y-15717183D02*
X12350872Y-15707660D01*
X12350872Y-15707660D02*
X12350872Y-15726707D01*
X12484206Y-15526707D02*
X12503253Y-15526707D01*
X12503253Y-15526707D02*
X12522301Y-15536231D01*
X12522301Y-15536231D02*
X12531825Y-15545755D01*
X12531825Y-15545755D02*
X12541348Y-15564802D01*
X12541348Y-15564802D02*
X12550872Y-15602898D01*
X12550872Y-15602898D02*
X12550872Y-15650517D01*
X12550872Y-15650517D02*
X12541348Y-15688612D01*
X12541348Y-15688612D02*
X12531825Y-15707660D01*
X12531825Y-15707660D02*
X12522301Y-15717183D01*
X12522301Y-15717183D02*
X12503253Y-15726707D01*
X12503253Y-15726707D02*
X12484206Y-15726707D01*
X12484206Y-15726707D02*
X12465158Y-15717183D01*
X12465158Y-15717183D02*
X12455634Y-15707660D01*
X12455634Y-15707660D02*
X12446110Y-15688612D01*
X12446110Y-15688612D02*
X12436587Y-15650517D01*
X12436587Y-15650517D02*
X12436587Y-15602898D01*
X12436587Y-15602898D02*
X12446110Y-15564802D01*
X12446110Y-15564802D02*
X12455634Y-15545755D01*
X12455634Y-15545755D02*
X12465158Y-15536231D01*
X12465158Y-15536231D02*
X12484206Y-15526707D01*
X12627063Y-15545755D02*
X12636587Y-15536231D01*
X12636587Y-15536231D02*
X12655634Y-15526707D01*
X12655634Y-15526707D02*
X12703253Y-15526707D01*
X12703253Y-15526707D02*
X12722301Y-15536231D01*
X12722301Y-15536231D02*
X12731825Y-15545755D01*
X12731825Y-15545755D02*
X12741348Y-15564802D01*
X12741348Y-15564802D02*
X12741348Y-15583850D01*
X12741348Y-15583850D02*
X12731825Y-15612421D01*
X12731825Y-15612421D02*
X12617539Y-15726707D01*
X12617539Y-15726707D02*
X12741348Y-15726707D01*
X12922301Y-15526707D02*
X12827063Y-15526707D01*
X12827063Y-15526707D02*
X12817539Y-15621945D01*
X12817539Y-15621945D02*
X12827063Y-15612421D01*
X12827063Y-15612421D02*
X12846110Y-15602898D01*
X12846110Y-15602898D02*
X12893729Y-15602898D01*
X12893729Y-15602898D02*
X12912777Y-15612421D01*
X12912777Y-15612421D02*
X12922301Y-15621945D01*
X12922301Y-15621945D02*
X12931825Y-15640993D01*
X12931825Y-15640993D02*
X12931825Y-15688612D01*
X12931825Y-15688612D02*
X12922301Y-15707660D01*
X12922301Y-15707660D02*
X12912777Y-15717183D01*
X12912777Y-15717183D02*
X12893729Y-15726707D01*
X12893729Y-15726707D02*
X12846110Y-15726707D01*
X12846110Y-15726707D02*
X12827063Y-15717183D01*
X12827063Y-15717183D02*
X12817539Y-15707660D01*
X13103253Y-15526707D02*
X13065158Y-15526707D01*
X13065158Y-15526707D02*
X13046110Y-15536231D01*
X13046110Y-15536231D02*
X13036587Y-15545755D01*
X13036587Y-15545755D02*
X13017539Y-15574326D01*
X13017539Y-15574326D02*
X13008015Y-15612421D01*
X13008015Y-15612421D02*
X13008015Y-15688612D01*
X13008015Y-15688612D02*
X13017539Y-15707660D01*
X13017539Y-15707660D02*
X13027063Y-15717183D01*
X13027063Y-15717183D02*
X13046110Y-15726707D01*
X13046110Y-15726707D02*
X13084206Y-15726707D01*
X13084206Y-15726707D02*
X13103253Y-15717183D01*
X13103253Y-15717183D02*
X13112777Y-15707660D01*
X13112777Y-15707660D02*
X13122301Y-15688612D01*
X13122301Y-15688612D02*
X13122301Y-15640993D01*
X13122301Y-15640993D02*
X13112777Y-15621945D01*
X13112777Y-15621945D02*
X13103253Y-15612421D01*
X13103253Y-15612421D02*
X13084206Y-15602898D01*
X13084206Y-15602898D02*
X13046110Y-15602898D01*
X13046110Y-15602898D02*
X13027063Y-15612421D01*
X13027063Y-15612421D02*
X13017539Y-15621945D01*
X13017539Y-15621945D02*
X13008015Y-15640993D01*
X13198491Y-15526707D02*
X13198491Y-15564802D01*
X13274682Y-15526707D02*
X13274682Y-15564802D01*
X13569920Y-15802898D02*
X13560396Y-15793374D01*
X13560396Y-15793374D02*
X13541349Y-15764802D01*
X13541349Y-15764802D02*
X13531825Y-15745755D01*
X13531825Y-15745755D02*
X13522301Y-15717183D01*
X13522301Y-15717183D02*
X13512777Y-15669564D01*
X13512777Y-15669564D02*
X13512777Y-15631469D01*
X13512777Y-15631469D02*
X13522301Y-15583850D01*
X13522301Y-15583850D02*
X13531825Y-15555279D01*
X13531825Y-15555279D02*
X13541349Y-15536231D01*
X13541349Y-15536231D02*
X13560396Y-15507660D01*
X13560396Y-15507660D02*
X13569920Y-15498136D01*
X13636587Y-15545755D02*
X13646110Y-15536231D01*
X13646110Y-15536231D02*
X13665158Y-15526707D01*
X13665158Y-15526707D02*
X13712777Y-15526707D01*
X13712777Y-15526707D02*
X13731825Y-15536231D01*
X13731825Y-15536231D02*
X13741349Y-15545755D01*
X13741349Y-15545755D02*
X13750872Y-15564802D01*
X13750872Y-15564802D02*
X13750872Y-15583850D01*
X13750872Y-15583850D02*
X13741349Y-15612421D01*
X13741349Y-15612421D02*
X13627063Y-15726707D01*
X13627063Y-15726707D02*
X13750872Y-15726707D01*
X13988968Y-15726707D02*
X13988968Y-15526707D01*
X14074682Y-15726707D02*
X14074682Y-15621945D01*
X14074682Y-15621945D02*
X14065158Y-15602898D01*
X14065158Y-15602898D02*
X14046111Y-15593374D01*
X14046111Y-15593374D02*
X14017539Y-15593374D01*
X14017539Y-15593374D02*
X13998491Y-15602898D01*
X13998491Y-15602898D02*
X13988968Y-15612421D01*
X14198491Y-15726707D02*
X14179444Y-15717183D01*
X14179444Y-15717183D02*
X14169920Y-15707660D01*
X14169920Y-15707660D02*
X14160396Y-15688612D01*
X14160396Y-15688612D02*
X14160396Y-15631469D01*
X14160396Y-15631469D02*
X14169920Y-15612421D01*
X14169920Y-15612421D02*
X14179444Y-15602898D01*
X14179444Y-15602898D02*
X14198491Y-15593374D01*
X14198491Y-15593374D02*
X14227063Y-15593374D01*
X14227063Y-15593374D02*
X14246111Y-15602898D01*
X14246111Y-15602898D02*
X14255634Y-15612421D01*
X14255634Y-15612421D02*
X14265158Y-15631469D01*
X14265158Y-15631469D02*
X14265158Y-15688612D01*
X14265158Y-15688612D02*
X14255634Y-15707660D01*
X14255634Y-15707660D02*
X14246111Y-15717183D01*
X14246111Y-15717183D02*
X14227063Y-15726707D01*
X14227063Y-15726707D02*
X14198491Y-15726707D01*
X14379444Y-15726707D02*
X14360396Y-15717183D01*
X14360396Y-15717183D02*
X14350872Y-15698136D01*
X14350872Y-15698136D02*
X14350872Y-15526707D01*
X14531825Y-15717183D02*
X14512777Y-15726707D01*
X14512777Y-15726707D02*
X14474682Y-15726707D01*
X14474682Y-15726707D02*
X14455634Y-15717183D01*
X14455634Y-15717183D02*
X14446111Y-15698136D01*
X14446111Y-15698136D02*
X14446111Y-15621945D01*
X14446111Y-15621945D02*
X14455634Y-15602898D01*
X14455634Y-15602898D02*
X14474682Y-15593374D01*
X14474682Y-15593374D02*
X14512777Y-15593374D01*
X14512777Y-15593374D02*
X14531825Y-15602898D01*
X14531825Y-15602898D02*
X14541349Y-15621945D01*
X14541349Y-15621945D02*
X14541349Y-15640993D01*
X14541349Y-15640993D02*
X14446111Y-15660041D01*
X14617539Y-15717183D02*
X14636587Y-15726707D01*
X14636587Y-15726707D02*
X14674682Y-15726707D01*
X14674682Y-15726707D02*
X14693730Y-15717183D01*
X14693730Y-15717183D02*
X14703253Y-15698136D01*
X14703253Y-15698136D02*
X14703253Y-15688612D01*
X14703253Y-15688612D02*
X14693730Y-15669564D01*
X14693730Y-15669564D02*
X14674682Y-15660041D01*
X14674682Y-15660041D02*
X14646111Y-15660041D01*
X14646111Y-15660041D02*
X14627063Y-15650517D01*
X14627063Y-15650517D02*
X14617539Y-15631469D01*
X14617539Y-15631469D02*
X14617539Y-15621945D01*
X14617539Y-15621945D02*
X14627063Y-15602898D01*
X14627063Y-15602898D02*
X14646111Y-15593374D01*
X14646111Y-15593374D02*
X14674682Y-15593374D01*
X14674682Y-15593374D02*
X14693730Y-15602898D01*
X14769920Y-15802898D02*
X14779444Y-15793374D01*
X14779444Y-15793374D02*
X14798492Y-15764802D01*
X14798492Y-15764802D02*
X14808015Y-15745755D01*
X14808015Y-15745755D02*
X14817539Y-15717183D01*
X14817539Y-15717183D02*
X14827063Y-15669564D01*
X14827063Y-15669564D02*
X14827063Y-15631469D01*
X14827063Y-15631469D02*
X14817539Y-15583850D01*
X14817539Y-15583850D02*
X14808015Y-15555279D01*
X14808015Y-15555279D02*
X14798492Y-15536231D01*
X14798492Y-15536231D02*
X14779444Y-15507660D01*
X14779444Y-15507660D02*
X14769920Y-15498136D01*
X15131825Y-15802898D02*
X15122301Y-15793374D01*
X15122301Y-15793374D02*
X15103253Y-15764802D01*
X15103253Y-15764802D02*
X15093730Y-15745755D01*
X15093730Y-15745755D02*
X15084206Y-15717183D01*
X15084206Y-15717183D02*
X15074682Y-15669564D01*
X15074682Y-15669564D02*
X15074682Y-15631469D01*
X15074682Y-15631469D02*
X15084206Y-15583850D01*
X15084206Y-15583850D02*
X15093730Y-15555279D01*
X15093730Y-15555279D02*
X15103253Y-15536231D01*
X15103253Y-15536231D02*
X15122301Y-15507660D01*
X15122301Y-15507660D02*
X15131825Y-15498136D01*
X15208015Y-15593374D02*
X15208015Y-15726707D01*
X15208015Y-15612421D02*
X15217539Y-15602898D01*
X15217539Y-15602898D02*
X15236587Y-15593374D01*
X15236587Y-15593374D02*
X15265158Y-15593374D01*
X15265158Y-15593374D02*
X15284206Y-15602898D01*
X15284206Y-15602898D02*
X15293730Y-15621945D01*
X15293730Y-15621945D02*
X15293730Y-15726707D01*
X15417539Y-15726707D02*
X15398492Y-15717183D01*
X15398492Y-15717183D02*
X15388968Y-15707660D01*
X15388968Y-15707660D02*
X15379444Y-15688612D01*
X15379444Y-15688612D02*
X15379444Y-15631469D01*
X15379444Y-15631469D02*
X15388968Y-15612421D01*
X15388968Y-15612421D02*
X15398492Y-15602898D01*
X15398492Y-15602898D02*
X15417539Y-15593374D01*
X15417539Y-15593374D02*
X15446111Y-15593374D01*
X15446111Y-15593374D02*
X15465158Y-15602898D01*
X15465158Y-15602898D02*
X15474682Y-15612421D01*
X15474682Y-15612421D02*
X15484206Y-15631469D01*
X15484206Y-15631469D02*
X15484206Y-15688612D01*
X15484206Y-15688612D02*
X15474682Y-15707660D01*
X15474682Y-15707660D02*
X15465158Y-15717183D01*
X15465158Y-15717183D02*
X15446111Y-15726707D01*
X15446111Y-15726707D02*
X15417539Y-15726707D01*
X15541349Y-15593374D02*
X15617539Y-15593374D01*
X15569920Y-15526707D02*
X15569920Y-15698136D01*
X15569920Y-15698136D02*
X15579444Y-15717183D01*
X15579444Y-15717183D02*
X15598492Y-15726707D01*
X15598492Y-15726707D02*
X15617539Y-15726707D01*
X15836587Y-15593374D02*
X15836587Y-15793374D01*
X15836587Y-15602898D02*
X15855634Y-15593374D01*
X15855634Y-15593374D02*
X15893730Y-15593374D01*
X15893730Y-15593374D02*
X15912777Y-15602898D01*
X15912777Y-15602898D02*
X15922301Y-15612421D01*
X15922301Y-15612421D02*
X15931825Y-15631469D01*
X15931825Y-15631469D02*
X15931825Y-15688612D01*
X15931825Y-15688612D02*
X15922301Y-15707660D01*
X15922301Y-15707660D02*
X15912777Y-15717183D01*
X15912777Y-15717183D02*
X15893730Y-15726707D01*
X15893730Y-15726707D02*
X15855634Y-15726707D01*
X15855634Y-15726707D02*
X15836587Y-15717183D01*
X16046111Y-15726707D02*
X16027063Y-15717183D01*
X16027063Y-15717183D02*
X16017539Y-15698136D01*
X16017539Y-15698136D02*
X16017539Y-15526707D01*
X16208015Y-15726707D02*
X16208015Y-15621945D01*
X16208015Y-15621945D02*
X16198492Y-15602898D01*
X16198492Y-15602898D02*
X16179444Y-15593374D01*
X16179444Y-15593374D02*
X16141349Y-15593374D01*
X16141349Y-15593374D02*
X16122301Y-15602898D01*
X16208015Y-15717183D02*
X16188968Y-15726707D01*
X16188968Y-15726707D02*
X16141349Y-15726707D01*
X16141349Y-15726707D02*
X16122301Y-15717183D01*
X16122301Y-15717183D02*
X16112777Y-15698136D01*
X16112777Y-15698136D02*
X16112777Y-15679088D01*
X16112777Y-15679088D02*
X16122301Y-15660041D01*
X16122301Y-15660041D02*
X16141349Y-15650517D01*
X16141349Y-15650517D02*
X16188968Y-15650517D01*
X16188968Y-15650517D02*
X16208015Y-15640993D01*
X16274682Y-15593374D02*
X16350873Y-15593374D01*
X16303254Y-15526707D02*
X16303254Y-15698136D01*
X16303254Y-15698136D02*
X16312777Y-15717183D01*
X16312777Y-15717183D02*
X16331825Y-15726707D01*
X16331825Y-15726707D02*
X16350873Y-15726707D01*
X16493730Y-15717183D02*
X16474682Y-15726707D01*
X16474682Y-15726707D02*
X16436587Y-15726707D01*
X16436587Y-15726707D02*
X16417539Y-15717183D01*
X16417539Y-15717183D02*
X16408015Y-15698136D01*
X16408015Y-15698136D02*
X16408015Y-15621945D01*
X16408015Y-15621945D02*
X16417539Y-15602898D01*
X16417539Y-15602898D02*
X16436587Y-15593374D01*
X16436587Y-15593374D02*
X16474682Y-15593374D01*
X16474682Y-15593374D02*
X16493730Y-15602898D01*
X16493730Y-15602898D02*
X16503254Y-15621945D01*
X16503254Y-15621945D02*
X16503254Y-15640993D01*
X16503254Y-15640993D02*
X16408015Y-15660041D01*
X16674682Y-15726707D02*
X16674682Y-15526707D01*
X16674682Y-15717183D02*
X16655635Y-15726707D01*
X16655635Y-15726707D02*
X16617539Y-15726707D01*
X16617539Y-15726707D02*
X16598492Y-15717183D01*
X16598492Y-15717183D02*
X16588968Y-15707660D01*
X16588968Y-15707660D02*
X16579444Y-15688612D01*
X16579444Y-15688612D02*
X16579444Y-15631469D01*
X16579444Y-15631469D02*
X16588968Y-15612421D01*
X16588968Y-15612421D02*
X16598492Y-15602898D01*
X16598492Y-15602898D02*
X16617539Y-15593374D01*
X16617539Y-15593374D02*
X16655635Y-15593374D01*
X16655635Y-15593374D02*
X16674682Y-15602898D01*
X16750873Y-15802898D02*
X16760396Y-15793374D01*
X16760396Y-15793374D02*
X16779444Y-15764802D01*
X16779444Y-15764802D02*
X16788968Y-15745755D01*
X16788968Y-15745755D02*
X16798492Y-15717183D01*
X16798492Y-15717183D02*
X16808016Y-15669564D01*
X16808016Y-15669564D02*
X16808016Y-15631469D01*
X16808016Y-15631469D02*
X16798492Y-15583850D01*
X16798492Y-15583850D02*
X16788968Y-15555279D01*
X16788968Y-15555279D02*
X16779444Y-15536231D01*
X16779444Y-15536231D02*
X16760396Y-15507660D01*
X16760396Y-15507660D02*
X16750873Y-15498136D01*
X9994857Y-15899223D02*
G75*
G02*
X9794857Y-15899223I-100000J0D01*
G01*
X9794857Y-15899223D02*
G75*
G02*
X9994857Y-15899223I100000J0D01*
G01*
X10246110Y-15809755D02*
X10255634Y-15800231D01*
X10255634Y-15800231D02*
X10274682Y-15790707D01*
X10274682Y-15790707D02*
X10322301Y-15790707D01*
X10322301Y-15790707D02*
X10341348Y-15800231D01*
X10341348Y-15800231D02*
X10350872Y-15809755D01*
X10350872Y-15809755D02*
X10360396Y-15828802D01*
X10360396Y-15828802D02*
X10360396Y-15847850D01*
X10360396Y-15847850D02*
X10350872Y-15876421D01*
X10350872Y-15876421D02*
X10236586Y-15990707D01*
X10236586Y-15990707D02*
X10360396Y-15990707D01*
X10446110Y-15971660D02*
X10455634Y-15981183D01*
X10455634Y-15981183D02*
X10446110Y-15990707D01*
X10446110Y-15990707D02*
X10436586Y-15981183D01*
X10436586Y-15981183D02*
X10446110Y-15971660D01*
X10446110Y-15971660D02*
X10446110Y-15990707D01*
X10522301Y-15790707D02*
X10655634Y-15790707D01*
X10655634Y-15790707D02*
X10569920Y-15990707D01*
X10769920Y-15790707D02*
X10788967Y-15790707D01*
X10788967Y-15790707D02*
X10808015Y-15800231D01*
X10808015Y-15800231D02*
X10817539Y-15809755D01*
X10817539Y-15809755D02*
X10827063Y-15828802D01*
X10827063Y-15828802D02*
X10836586Y-15866898D01*
X10836586Y-15866898D02*
X10836586Y-15914517D01*
X10836586Y-15914517D02*
X10827063Y-15952612D01*
X10827063Y-15952612D02*
X10817539Y-15971660D01*
X10817539Y-15971660D02*
X10808015Y-15981183D01*
X10808015Y-15981183D02*
X10788967Y-15990707D01*
X10788967Y-15990707D02*
X10769920Y-15990707D01*
X10769920Y-15990707D02*
X10750872Y-15981183D01*
X10750872Y-15981183D02*
X10741348Y-15971660D01*
X10741348Y-15971660D02*
X10731825Y-15952612D01*
X10731825Y-15952612D02*
X10722301Y-15914517D01*
X10722301Y-15914517D02*
X10722301Y-15866898D01*
X10722301Y-15866898D02*
X10731825Y-15828802D01*
X10731825Y-15828802D02*
X10741348Y-15809755D01*
X10741348Y-15809755D02*
X10750872Y-15800231D01*
X10750872Y-15800231D02*
X10769920Y-15790707D01*
X10960396Y-15790707D02*
X10979444Y-15790707D01*
X10979444Y-15790707D02*
X10998491Y-15800231D01*
X10998491Y-15800231D02*
X11008015Y-15809755D01*
X11008015Y-15809755D02*
X11017539Y-15828802D01*
X11017539Y-15828802D02*
X11027063Y-15866898D01*
X11027063Y-15866898D02*
X11027063Y-15914517D01*
X11027063Y-15914517D02*
X11017539Y-15952612D01*
X11017539Y-15952612D02*
X11008015Y-15971660D01*
X11008015Y-15971660D02*
X10998491Y-15981183D01*
X10998491Y-15981183D02*
X10979444Y-15990707D01*
X10979444Y-15990707D02*
X10960396Y-15990707D01*
X10960396Y-15990707D02*
X10941348Y-15981183D01*
X10941348Y-15981183D02*
X10931825Y-15971660D01*
X10931825Y-15971660D02*
X10922301Y-15952612D01*
X10922301Y-15952612D02*
X10912777Y-15914517D01*
X10912777Y-15914517D02*
X10912777Y-15866898D01*
X10912777Y-15866898D02*
X10922301Y-15828802D01*
X10922301Y-15828802D02*
X10931825Y-15809755D01*
X10931825Y-15809755D02*
X10941348Y-15800231D01*
X10941348Y-15800231D02*
X10960396Y-15790707D01*
X11112777Y-15990707D02*
X11112777Y-15857374D01*
X11112777Y-15876421D02*
X11122301Y-15866898D01*
X11122301Y-15866898D02*
X11141348Y-15857374D01*
X11141348Y-15857374D02*
X11169920Y-15857374D01*
X11169920Y-15857374D02*
X11188967Y-15866898D01*
X11188967Y-15866898D02*
X11198491Y-15885945D01*
X11198491Y-15885945D02*
X11198491Y-15990707D01*
X11198491Y-15885945D02*
X11208015Y-15866898D01*
X11208015Y-15866898D02*
X11227063Y-15857374D01*
X11227063Y-15857374D02*
X11255634Y-15857374D01*
X11255634Y-15857374D02*
X11274682Y-15866898D01*
X11274682Y-15866898D02*
X11284205Y-15885945D01*
X11284205Y-15885945D02*
X11284205Y-15990707D01*
X11379444Y-15990707D02*
X11379444Y-15857374D01*
X11379444Y-15876421D02*
X11388967Y-15866898D01*
X11388967Y-15866898D02*
X11408015Y-15857374D01*
X11408015Y-15857374D02*
X11436586Y-15857374D01*
X11436586Y-15857374D02*
X11455634Y-15866898D01*
X11455634Y-15866898D02*
X11465158Y-15885945D01*
X11465158Y-15885945D02*
X11465158Y-15990707D01*
X11465158Y-15885945D02*
X11474682Y-15866898D01*
X11474682Y-15866898D02*
X11493729Y-15857374D01*
X11493729Y-15857374D02*
X11522301Y-15857374D01*
X11522301Y-15857374D02*
X11541348Y-15866898D01*
X11541348Y-15866898D02*
X11550872Y-15885945D01*
X11550872Y-15885945D02*
X11550872Y-15990707D01*
X11941348Y-15781183D02*
X11769920Y-16038326D01*
X12198491Y-15790707D02*
X12217539Y-15790707D01*
X12217539Y-15790707D02*
X12236587Y-15800231D01*
X12236587Y-15800231D02*
X12246110Y-15809755D01*
X12246110Y-15809755D02*
X12255634Y-15828802D01*
X12255634Y-15828802D02*
X12265158Y-15866898D01*
X12265158Y-15866898D02*
X12265158Y-15914517D01*
X12265158Y-15914517D02*
X12255634Y-15952612D01*
X12255634Y-15952612D02*
X12246110Y-15971660D01*
X12246110Y-15971660D02*
X12236587Y-15981183D01*
X12236587Y-15981183D02*
X12217539Y-15990707D01*
X12217539Y-15990707D02*
X12198491Y-15990707D01*
X12198491Y-15990707D02*
X12179444Y-15981183D01*
X12179444Y-15981183D02*
X12169920Y-15971660D01*
X12169920Y-15971660D02*
X12160396Y-15952612D01*
X12160396Y-15952612D02*
X12150872Y-15914517D01*
X12150872Y-15914517D02*
X12150872Y-15866898D01*
X12150872Y-15866898D02*
X12160396Y-15828802D01*
X12160396Y-15828802D02*
X12169920Y-15809755D01*
X12169920Y-15809755D02*
X12179444Y-15800231D01*
X12179444Y-15800231D02*
X12198491Y-15790707D01*
X12350872Y-15971660D02*
X12360396Y-15981183D01*
X12360396Y-15981183D02*
X12350872Y-15990707D01*
X12350872Y-15990707D02*
X12341348Y-15981183D01*
X12341348Y-15981183D02*
X12350872Y-15971660D01*
X12350872Y-15971660D02*
X12350872Y-15990707D01*
X12550872Y-15990707D02*
X12436587Y-15990707D01*
X12493729Y-15990707D02*
X12493729Y-15790707D01*
X12493729Y-15790707D02*
X12474682Y-15819279D01*
X12474682Y-15819279D02*
X12455634Y-15838326D01*
X12455634Y-15838326D02*
X12436587Y-15847850D01*
X12674682Y-15790707D02*
X12693729Y-15790707D01*
X12693729Y-15790707D02*
X12712777Y-15800231D01*
X12712777Y-15800231D02*
X12722301Y-15809755D01*
X12722301Y-15809755D02*
X12731825Y-15828802D01*
X12731825Y-15828802D02*
X12741348Y-15866898D01*
X12741348Y-15866898D02*
X12741348Y-15914517D01*
X12741348Y-15914517D02*
X12731825Y-15952612D01*
X12731825Y-15952612D02*
X12722301Y-15971660D01*
X12722301Y-15971660D02*
X12712777Y-15981183D01*
X12712777Y-15981183D02*
X12693729Y-15990707D01*
X12693729Y-15990707D02*
X12674682Y-15990707D01*
X12674682Y-15990707D02*
X12655634Y-15981183D01*
X12655634Y-15981183D02*
X12646110Y-15971660D01*
X12646110Y-15971660D02*
X12636587Y-15952612D01*
X12636587Y-15952612D02*
X12627063Y-15914517D01*
X12627063Y-15914517D02*
X12627063Y-15866898D01*
X12627063Y-15866898D02*
X12636587Y-15828802D01*
X12636587Y-15828802D02*
X12646110Y-15809755D01*
X12646110Y-15809755D02*
X12655634Y-15800231D01*
X12655634Y-15800231D02*
X12674682Y-15790707D01*
X12912777Y-15790707D02*
X12874682Y-15790707D01*
X12874682Y-15790707D02*
X12855634Y-15800231D01*
X12855634Y-15800231D02*
X12846110Y-15809755D01*
X12846110Y-15809755D02*
X12827063Y-15838326D01*
X12827063Y-15838326D02*
X12817539Y-15876421D01*
X12817539Y-15876421D02*
X12817539Y-15952612D01*
X12817539Y-15952612D02*
X12827063Y-15971660D01*
X12827063Y-15971660D02*
X12836587Y-15981183D01*
X12836587Y-15981183D02*
X12855634Y-15990707D01*
X12855634Y-15990707D02*
X12893729Y-15990707D01*
X12893729Y-15990707D02*
X12912777Y-15981183D01*
X12912777Y-15981183D02*
X12922301Y-15971660D01*
X12922301Y-15971660D02*
X12931825Y-15952612D01*
X12931825Y-15952612D02*
X12931825Y-15904993D01*
X12931825Y-15904993D02*
X12922301Y-15885945D01*
X12922301Y-15885945D02*
X12912777Y-15876421D01*
X12912777Y-15876421D02*
X12893729Y-15866898D01*
X12893729Y-15866898D02*
X12855634Y-15866898D01*
X12855634Y-15866898D02*
X12836587Y-15876421D01*
X12836587Y-15876421D02*
X12827063Y-15885945D01*
X12827063Y-15885945D02*
X12817539Y-15904993D01*
X12998491Y-15790707D02*
X13122301Y-15790707D01*
X13122301Y-15790707D02*
X13055634Y-15866898D01*
X13055634Y-15866898D02*
X13084206Y-15866898D01*
X13084206Y-15866898D02*
X13103253Y-15876421D01*
X13103253Y-15876421D02*
X13112777Y-15885945D01*
X13112777Y-15885945D02*
X13122301Y-15904993D01*
X13122301Y-15904993D02*
X13122301Y-15952612D01*
X13122301Y-15952612D02*
X13112777Y-15971660D01*
X13112777Y-15971660D02*
X13103253Y-15981183D01*
X13103253Y-15981183D02*
X13084206Y-15990707D01*
X13084206Y-15990707D02*
X13027063Y-15990707D01*
X13027063Y-15990707D02*
X13008015Y-15981183D01*
X13008015Y-15981183D02*
X12998491Y-15971660D01*
X13198491Y-15790707D02*
X13198491Y-15828802D01*
X13274682Y-15790707D02*
X13274682Y-15828802D01*
X13569920Y-16066898D02*
X13560396Y-16057374D01*
X13560396Y-16057374D02*
X13541349Y-16028802D01*
X13541349Y-16028802D02*
X13531825Y-16009755D01*
X13531825Y-16009755D02*
X13522301Y-15981183D01*
X13522301Y-15981183D02*
X13512777Y-15933564D01*
X13512777Y-15933564D02*
X13512777Y-15895469D01*
X13512777Y-15895469D02*
X13522301Y-15847850D01*
X13522301Y-15847850D02*
X13531825Y-15819279D01*
X13531825Y-15819279D02*
X13541349Y-15800231D01*
X13541349Y-15800231D02*
X13560396Y-15771660D01*
X13560396Y-15771660D02*
X13569920Y-15762136D01*
X13731825Y-15857374D02*
X13731825Y-15990707D01*
X13684206Y-15781183D02*
X13636587Y-15924041D01*
X13636587Y-15924041D02*
X13760396Y-15924041D01*
X13988968Y-15990707D02*
X13988968Y-15790707D01*
X14074682Y-15990707D02*
X14074682Y-15885945D01*
X14074682Y-15885945D02*
X14065158Y-15866898D01*
X14065158Y-15866898D02*
X14046111Y-15857374D01*
X14046111Y-15857374D02*
X14017539Y-15857374D01*
X14017539Y-15857374D02*
X13998491Y-15866898D01*
X13998491Y-15866898D02*
X13988968Y-15876421D01*
X14198491Y-15990707D02*
X14179444Y-15981183D01*
X14179444Y-15981183D02*
X14169920Y-15971660D01*
X14169920Y-15971660D02*
X14160396Y-15952612D01*
X14160396Y-15952612D02*
X14160396Y-15895469D01*
X14160396Y-15895469D02*
X14169920Y-15876421D01*
X14169920Y-15876421D02*
X14179444Y-15866898D01*
X14179444Y-15866898D02*
X14198491Y-15857374D01*
X14198491Y-15857374D02*
X14227063Y-15857374D01*
X14227063Y-15857374D02*
X14246111Y-15866898D01*
X14246111Y-15866898D02*
X14255634Y-15876421D01*
X14255634Y-15876421D02*
X14265158Y-15895469D01*
X14265158Y-15895469D02*
X14265158Y-15952612D01*
X14265158Y-15952612D02*
X14255634Y-15971660D01*
X14255634Y-15971660D02*
X14246111Y-15981183D01*
X14246111Y-15981183D02*
X14227063Y-15990707D01*
X14227063Y-15990707D02*
X14198491Y-15990707D01*
X14379444Y-15990707D02*
X14360396Y-15981183D01*
X14360396Y-15981183D02*
X14350872Y-15962136D01*
X14350872Y-15962136D02*
X14350872Y-15790707D01*
X14531825Y-15981183D02*
X14512777Y-15990707D01*
X14512777Y-15990707D02*
X14474682Y-15990707D01*
X14474682Y-15990707D02*
X14455634Y-15981183D01*
X14455634Y-15981183D02*
X14446111Y-15962136D01*
X14446111Y-15962136D02*
X14446111Y-15885945D01*
X14446111Y-15885945D02*
X14455634Y-15866898D01*
X14455634Y-15866898D02*
X14474682Y-15857374D01*
X14474682Y-15857374D02*
X14512777Y-15857374D01*
X14512777Y-15857374D02*
X14531825Y-15866898D01*
X14531825Y-15866898D02*
X14541349Y-15885945D01*
X14541349Y-15885945D02*
X14541349Y-15904993D01*
X14541349Y-15904993D02*
X14446111Y-15924041D01*
X14617539Y-15981183D02*
X14636587Y-15990707D01*
X14636587Y-15990707D02*
X14674682Y-15990707D01*
X14674682Y-15990707D02*
X14693730Y-15981183D01*
X14693730Y-15981183D02*
X14703253Y-15962136D01*
X14703253Y-15962136D02*
X14703253Y-15952612D01*
X14703253Y-15952612D02*
X14693730Y-15933564D01*
X14693730Y-15933564D02*
X14674682Y-15924041D01*
X14674682Y-15924041D02*
X14646111Y-15924041D01*
X14646111Y-15924041D02*
X14627063Y-15914517D01*
X14627063Y-15914517D02*
X14617539Y-15895469D01*
X14617539Y-15895469D02*
X14617539Y-15885945D01*
X14617539Y-15885945D02*
X14627063Y-15866898D01*
X14627063Y-15866898D02*
X14646111Y-15857374D01*
X14646111Y-15857374D02*
X14674682Y-15857374D01*
X14674682Y-15857374D02*
X14693730Y-15866898D01*
X14769920Y-16066898D02*
X14779444Y-16057374D01*
X14779444Y-16057374D02*
X14798492Y-16028802D01*
X14798492Y-16028802D02*
X14808015Y-16009755D01*
X14808015Y-16009755D02*
X14817539Y-15981183D01*
X14817539Y-15981183D02*
X14827063Y-15933564D01*
X14827063Y-15933564D02*
X14827063Y-15895469D01*
X14827063Y-15895469D02*
X14817539Y-15847850D01*
X14817539Y-15847850D02*
X14808015Y-15819279D01*
X14808015Y-15819279D02*
X14798492Y-15800231D01*
X14798492Y-15800231D02*
X14779444Y-15771660D01*
X14779444Y-15771660D02*
X14769920Y-15762136D01*
X15131825Y-16066898D02*
X15122301Y-16057374D01*
X15122301Y-16057374D02*
X15103253Y-16028802D01*
X15103253Y-16028802D02*
X15093730Y-16009755D01*
X15093730Y-16009755D02*
X15084206Y-15981183D01*
X15084206Y-15981183D02*
X15074682Y-15933564D01*
X15074682Y-15933564D02*
X15074682Y-15895469D01*
X15074682Y-15895469D02*
X15084206Y-15847850D01*
X15084206Y-15847850D02*
X15093730Y-15819279D01*
X15093730Y-15819279D02*
X15103253Y-15800231D01*
X15103253Y-15800231D02*
X15122301Y-15771660D01*
X15122301Y-15771660D02*
X15131825Y-15762136D01*
X15208015Y-15857374D02*
X15208015Y-15990707D01*
X15208015Y-15876421D02*
X15217539Y-15866898D01*
X15217539Y-15866898D02*
X15236587Y-15857374D01*
X15236587Y-15857374D02*
X15265158Y-15857374D01*
X15265158Y-15857374D02*
X15284206Y-15866898D01*
X15284206Y-15866898D02*
X15293730Y-15885945D01*
X15293730Y-15885945D02*
X15293730Y-15990707D01*
X15417539Y-15990707D02*
X15398492Y-15981183D01*
X15398492Y-15981183D02*
X15388968Y-15971660D01*
X15388968Y-15971660D02*
X15379444Y-15952612D01*
X15379444Y-15952612D02*
X15379444Y-15895469D01*
X15379444Y-15895469D02*
X15388968Y-15876421D01*
X15388968Y-15876421D02*
X15398492Y-15866898D01*
X15398492Y-15866898D02*
X15417539Y-15857374D01*
X15417539Y-15857374D02*
X15446111Y-15857374D01*
X15446111Y-15857374D02*
X15465158Y-15866898D01*
X15465158Y-15866898D02*
X15474682Y-15876421D01*
X15474682Y-15876421D02*
X15484206Y-15895469D01*
X15484206Y-15895469D02*
X15484206Y-15952612D01*
X15484206Y-15952612D02*
X15474682Y-15971660D01*
X15474682Y-15971660D02*
X15465158Y-15981183D01*
X15465158Y-15981183D02*
X15446111Y-15990707D01*
X15446111Y-15990707D02*
X15417539Y-15990707D01*
X15541349Y-15857374D02*
X15617539Y-15857374D01*
X15569920Y-15790707D02*
X15569920Y-15962136D01*
X15569920Y-15962136D02*
X15579444Y-15981183D01*
X15579444Y-15981183D02*
X15598492Y-15990707D01*
X15598492Y-15990707D02*
X15617539Y-15990707D01*
X15836587Y-15857374D02*
X15836587Y-16057374D01*
X15836587Y-15866898D02*
X15855634Y-15857374D01*
X15855634Y-15857374D02*
X15893730Y-15857374D01*
X15893730Y-15857374D02*
X15912777Y-15866898D01*
X15912777Y-15866898D02*
X15922301Y-15876421D01*
X15922301Y-15876421D02*
X15931825Y-15895469D01*
X15931825Y-15895469D02*
X15931825Y-15952612D01*
X15931825Y-15952612D02*
X15922301Y-15971660D01*
X15922301Y-15971660D02*
X15912777Y-15981183D01*
X15912777Y-15981183D02*
X15893730Y-15990707D01*
X15893730Y-15990707D02*
X15855634Y-15990707D01*
X15855634Y-15990707D02*
X15836587Y-15981183D01*
X16046111Y-15990707D02*
X16027063Y-15981183D01*
X16027063Y-15981183D02*
X16017539Y-15962136D01*
X16017539Y-15962136D02*
X16017539Y-15790707D01*
X16208015Y-15990707D02*
X16208015Y-15885945D01*
X16208015Y-15885945D02*
X16198492Y-15866898D01*
X16198492Y-15866898D02*
X16179444Y-15857374D01*
X16179444Y-15857374D02*
X16141349Y-15857374D01*
X16141349Y-15857374D02*
X16122301Y-15866898D01*
X16208015Y-15981183D02*
X16188968Y-15990707D01*
X16188968Y-15990707D02*
X16141349Y-15990707D01*
X16141349Y-15990707D02*
X16122301Y-15981183D01*
X16122301Y-15981183D02*
X16112777Y-15962136D01*
X16112777Y-15962136D02*
X16112777Y-15943088D01*
X16112777Y-15943088D02*
X16122301Y-15924041D01*
X16122301Y-15924041D02*
X16141349Y-15914517D01*
X16141349Y-15914517D02*
X16188968Y-15914517D01*
X16188968Y-15914517D02*
X16208015Y-15904993D01*
X16274682Y-15857374D02*
X16350873Y-15857374D01*
X16303254Y-15790707D02*
X16303254Y-15962136D01*
X16303254Y-15962136D02*
X16312777Y-15981183D01*
X16312777Y-15981183D02*
X16331825Y-15990707D01*
X16331825Y-15990707D02*
X16350873Y-15990707D01*
X16493730Y-15981183D02*
X16474682Y-15990707D01*
X16474682Y-15990707D02*
X16436587Y-15990707D01*
X16436587Y-15990707D02*
X16417539Y-15981183D01*
X16417539Y-15981183D02*
X16408015Y-15962136D01*
X16408015Y-15962136D02*
X16408015Y-15885945D01*
X16408015Y-15885945D02*
X16417539Y-15866898D01*
X16417539Y-15866898D02*
X16436587Y-15857374D01*
X16436587Y-15857374D02*
X16474682Y-15857374D01*
X16474682Y-15857374D02*
X16493730Y-15866898D01*
X16493730Y-15866898D02*
X16503254Y-15885945D01*
X16503254Y-15885945D02*
X16503254Y-15904993D01*
X16503254Y-15904993D02*
X16408015Y-15924041D01*
X16674682Y-15990707D02*
X16674682Y-15790707D01*
X16674682Y-15981183D02*
X16655635Y-15990707D01*
X16655635Y-15990707D02*
X16617539Y-15990707D01*
X16617539Y-15990707D02*
X16598492Y-15981183D01*
X16598492Y-15981183D02*
X16588968Y-15971660D01*
X16588968Y-15971660D02*
X16579444Y-15952612D01*
X16579444Y-15952612D02*
X16579444Y-15895469D01*
X16579444Y-15895469D02*
X16588968Y-15876421D01*
X16588968Y-15876421D02*
X16598492Y-15866898D01*
X16598492Y-15866898D02*
X16617539Y-15857374D01*
X16617539Y-15857374D02*
X16655635Y-15857374D01*
X16655635Y-15857374D02*
X16674682Y-15866898D01*
X16750873Y-16066898D02*
X16760396Y-16057374D01*
X16760396Y-16057374D02*
X16779444Y-16028802D01*
X16779444Y-16028802D02*
X16788968Y-16009755D01*
X16788968Y-16009755D02*
X16798492Y-15981183D01*
X16798492Y-15981183D02*
X16808016Y-15933564D01*
X16808016Y-15933564D02*
X16808016Y-15895469D01*
X16808016Y-15895469D02*
X16798492Y-15847850D01*
X16798492Y-15847850D02*
X16788968Y-15819279D01*
X16788968Y-15819279D02*
X16779444Y-15800231D01*
X16779444Y-15800231D02*
X16760396Y-15771660D01*
X16760396Y-15771660D02*
X16750873Y-15762136D01*
M02*
