G04 #@! TF.GenerationSoftware,KiCad,Pcbnew,8.0.6*
G04 #@! TF.CreationDate,2024-11-13T15:42:30-05:00*
G04 #@! TF.ProjectId,KiCAD-RFM69,4b694341-442d-4524-964d-36392e6b6963,rev?*
G04 #@! TF.SameCoordinates,Original*
G04 #@! TF.FileFunction,Paste,Top*
G04 #@! TF.FilePolarity,Positive*
%FSLAX46Y46*%
G04 Gerber Fmt 4.6, Leading zero omitted, Abs format (unit mm)*
G04 Created by KiCad (PCBNEW 8.0.6) date 2024-11-13 15:42:30*
%MOMM*%
%LPD*%
G01*
G04 APERTURE LIST*
G04 Aperture macros list*
%AMRoundRect*
0 Rectangle with rounded corners*
0 $1 Rounding radius*
0 $2 $3 $4 $5 $6 $7 $8 $9 X,Y pos of 4 corners*
0 Add a 4 corners polygon primitive as box body*
4,1,4,$2,$3,$4,$5,$6,$7,$8,$9,$2,$3,0*
0 Add four circle primitives for the rounded corners*
1,1,$1+$1,$2,$3*
1,1,$1+$1,$4,$5*
1,1,$1+$1,$6,$7*
1,1,$1+$1,$8,$9*
0 Add four rect primitives between the rounded corners*
20,1,$1+$1,$2,$3,$4,$5,0*
20,1,$1+$1,$4,$5,$6,$7,0*
20,1,$1+$1,$6,$7,$8,$9,0*
20,1,$1+$1,$8,$9,$2,$3,0*%
G04 Aperture macros list end*
%ADD10R,1.500000X1.500000*%
%ADD11R,0.300000X1.150000*%
%ADD12R,0.600000X1.150000*%
%ADD13RoundRect,0.225000X0.225000X0.250000X-0.225000X0.250000X-0.225000X-0.250000X0.225000X-0.250000X0*%
%ADD14RoundRect,0.218750X-0.218750X-0.256250X0.218750X-0.256250X0.218750X0.256250X-0.218750X0.256250X0*%
%ADD15RoundRect,0.200000X0.275000X-0.200000X0.275000X0.200000X-0.275000X0.200000X-0.275000X-0.200000X0*%
%ADD16RoundRect,0.090000X-0.360000X0.660000X-0.360000X-0.660000X0.360000X-0.660000X0.360000X0.660000X0*%
%ADD17R,4.000000X1.500000*%
%ADD18RoundRect,0.200000X-0.275000X0.200000X-0.275000X-0.200000X0.275000X-0.200000X0.275000X0.200000X0*%
%ADD19RoundRect,0.050000X-0.050000X-0.387500X0.050000X-0.387500X0.050000X0.387500X-0.050000X0.387500X0*%
%ADD20RoundRect,0.050000X-0.387500X-0.050000X0.387500X-0.050000X0.387500X0.050000X-0.387500X0.050000X0*%
%ADD21RoundRect,0.250000X-0.292217X-0.292217X0.292217X-0.292217X0.292217X0.292217X-0.292217X0.292217X0*%
%ADD22RoundRect,0.150000X-0.587500X-0.150000X0.587500X-0.150000X0.587500X0.150000X-0.587500X0.150000X0*%
%ADD23RoundRect,0.100000X-0.400000X-0.400000X0.400000X-0.400000X0.400000X0.400000X-0.400000X0.400000X0*%
%ADD24RoundRect,0.105000X-0.420000X-0.995000X0.420000X-0.995000X0.420000X0.995000X-0.420000X0.995000X0*%
%ADD25RoundRect,0.225000X-0.250000X0.225000X-0.250000X-0.225000X0.250000X-0.225000X0.250000X0.225000X0*%
%ADD26RoundRect,0.250000X0.650000X-1.000000X0.650000X1.000000X-0.650000X1.000000X-0.650000X-1.000000X0*%
%ADD27RoundRect,0.225000X0.250000X-0.225000X0.250000X0.225000X-0.250000X0.225000X-0.250000X-0.225000X0*%
%ADD28RoundRect,0.150000X-0.650000X-0.150000X0.650000X-0.150000X0.650000X0.150000X-0.650000X0.150000X0*%
%ADD29RoundRect,0.218750X-0.256250X0.218750X-0.256250X-0.218750X0.256250X-0.218750X0.256250X0.218750X0*%
%ADD30RoundRect,0.200000X0.200000X0.275000X-0.200000X0.275000X-0.200000X-0.275000X0.200000X-0.275000X0*%
%ADD31RoundRect,0.150000X-0.512500X-0.150000X0.512500X-0.150000X0.512500X0.150000X-0.512500X0.150000X0*%
%ADD32R,1.300000X1.050000*%
%ADD33RoundRect,0.225000X-0.225000X-0.250000X0.225000X-0.250000X0.225000X0.250000X-0.225000X0.250000X0*%
%ADD34RoundRect,0.200000X-0.200000X-0.275000X0.200000X-0.275000X0.200000X0.275000X-0.200000X0.275000X0*%
%ADD35R,3.000000X1.200000*%
G04 APERTURE END LIST*
D10*
X119380000Y-64570000D03*
X129620000Y-64570000D03*
X119380000Y-68500000D03*
X129620000Y-68500000D03*
D11*
X126250000Y-69075000D03*
X125250000Y-69075000D03*
X123750000Y-69075000D03*
X122750000Y-69075000D03*
D12*
X121300000Y-69075000D03*
X122100000Y-69075000D03*
D11*
X123250000Y-69075000D03*
X124250000Y-69075000D03*
X124750000Y-69075000D03*
X125750000Y-69075000D03*
D12*
X126900000Y-69075000D03*
X127700000Y-69075000D03*
D13*
X114375000Y-116500000D03*
X112825000Y-116500000D03*
D14*
X109487500Y-66600000D03*
X111062500Y-66600000D03*
D15*
X121800000Y-74000000D03*
X121800000Y-72350000D03*
D16*
X113350000Y-113550000D03*
X110050000Y-113550000D03*
X110050000Y-108650000D03*
X113350000Y-108650000D03*
D15*
X118900000Y-122025000D03*
X118900000Y-120375000D03*
D17*
X132100000Y-81100000D03*
X132100000Y-84700000D03*
D18*
X114900000Y-80575000D03*
X114900000Y-82225000D03*
D15*
X111200000Y-76225000D03*
X111200000Y-74575000D03*
D19*
X125000000Y-101162500D03*
X125400000Y-101162500D03*
X125800000Y-101162500D03*
X126200000Y-101162500D03*
X126600000Y-101162500D03*
X127000000Y-101162500D03*
X127400000Y-101162500D03*
X127800000Y-101162500D03*
X128200000Y-101162500D03*
X128600000Y-101162500D03*
X129000000Y-101162500D03*
X129400000Y-101162500D03*
X129800000Y-101162500D03*
X130200000Y-101162500D03*
D20*
X131037500Y-102000000D03*
X131037500Y-102400000D03*
X131037500Y-102800000D03*
X131037500Y-103200000D03*
X131037500Y-103600000D03*
X131037500Y-104000000D03*
X131037500Y-104400000D03*
X131037500Y-104800000D03*
X131037500Y-105200000D03*
X131037500Y-105600000D03*
X131037500Y-106000000D03*
X131037500Y-106400000D03*
X131037500Y-106800000D03*
X131037500Y-107200000D03*
D19*
X130200000Y-108037500D03*
X129800000Y-108037500D03*
X129400000Y-108037500D03*
X129000000Y-108037500D03*
X128600000Y-108037500D03*
X128200000Y-108037500D03*
X127800000Y-108037500D03*
X127400000Y-108037500D03*
X127000000Y-108037500D03*
X126600000Y-108037500D03*
X126200000Y-108037500D03*
X125800000Y-108037500D03*
X125400000Y-108037500D03*
X125000000Y-108037500D03*
D20*
X124162500Y-107200000D03*
X124162500Y-106800000D03*
X124162500Y-106400000D03*
X124162500Y-106000000D03*
X124162500Y-105600000D03*
X124162500Y-105200000D03*
X124162500Y-104800000D03*
X124162500Y-104400000D03*
X124162500Y-104000000D03*
X124162500Y-103600000D03*
X124162500Y-103200000D03*
X124162500Y-102800000D03*
X124162500Y-102400000D03*
X124162500Y-102000000D03*
D21*
X128237500Y-105237500D03*
X128237500Y-103962500D03*
X126962500Y-105237500D03*
X126962500Y-103962500D03*
D15*
X121900000Y-122000000D03*
X121900000Y-120350000D03*
D18*
X127400000Y-112375000D03*
X127400000Y-114025000D03*
D22*
X118825000Y-84100000D03*
X118825000Y-86000000D03*
X120700000Y-85050000D03*
D23*
X137600000Y-145100000D03*
D24*
X139075000Y-146600000D03*
D23*
X137600000Y-148100000D03*
D24*
X136125000Y-146600000D03*
D25*
X129100000Y-112400000D03*
X129100000Y-113950000D03*
D26*
X130100000Y-77100000D03*
X130100000Y-73100000D03*
D27*
X133200000Y-95200000D03*
X133200000Y-93650000D03*
D18*
X140400000Y-112575000D03*
X140400000Y-114225000D03*
D28*
X108300000Y-95695000D03*
X108300000Y-96965000D03*
X108300000Y-98235000D03*
X108300000Y-99505000D03*
X115500000Y-99505000D03*
X115500000Y-98235000D03*
X115500000Y-96965000D03*
X115500000Y-95695000D03*
D29*
X110925000Y-84312500D03*
X110925000Y-85887500D03*
D18*
X140600000Y-119175000D03*
X140600000Y-120825000D03*
X127200000Y-72300000D03*
X127200000Y-73950000D03*
D27*
X129600000Y-95200000D03*
X129600000Y-93650000D03*
X129500000Y-89075000D03*
X129500000Y-87525000D03*
D25*
X130800000Y-112400000D03*
X130800000Y-113950000D03*
D13*
X121275000Y-90700000D03*
X119725000Y-90700000D03*
D30*
X112525000Y-87700000D03*
X110875000Y-87700000D03*
D15*
X124900000Y-122000000D03*
X124900000Y-120350000D03*
X112900000Y-122100000D03*
X112900000Y-120450000D03*
D27*
X124100000Y-95150000D03*
X124100000Y-93600000D03*
D15*
X115900000Y-122075000D03*
X115900000Y-120425000D03*
X127900000Y-122000000D03*
X127900000Y-120350000D03*
D18*
X126000000Y-93600000D03*
X126000000Y-95250000D03*
D15*
X130900000Y-122000000D03*
X130900000Y-120350000D03*
D13*
X118175000Y-107200000D03*
X116625000Y-107200000D03*
D27*
X122400000Y-95150000D03*
X122400000Y-93600000D03*
D18*
X122562500Y-81175000D03*
X122562500Y-82825000D03*
D13*
X120075000Y-102000000D03*
X118525000Y-102000000D03*
D31*
X131462500Y-88150000D03*
X131462500Y-89100000D03*
X131462500Y-90050000D03*
X133737500Y-90050000D03*
X133737500Y-89100000D03*
X133737500Y-88150000D03*
D32*
X117300000Y-116450000D03*
X119600000Y-116450000D03*
X119600000Y-114600000D03*
X117300000Y-114600000D03*
D30*
X116525000Y-84500000D03*
X114875000Y-84500000D03*
D33*
X119550000Y-111600000D03*
X121100000Y-111600000D03*
D18*
X127600000Y-93600000D03*
X127600000Y-95250000D03*
D34*
X113950000Y-66600000D03*
X115600000Y-66600000D03*
D25*
X135900000Y-88100000D03*
X135900000Y-89650000D03*
X134500000Y-106100000D03*
X134500000Y-107650000D03*
D18*
X124900000Y-112375000D03*
X124900000Y-114025000D03*
D22*
X118825000Y-78050000D03*
X118825000Y-79950000D03*
X120700000Y-79000000D03*
D27*
X120700000Y-95150000D03*
X120700000Y-93600000D03*
D15*
X109900000Y-122100000D03*
X109900000Y-120450000D03*
D27*
X131300000Y-95175000D03*
X131300000Y-93625000D03*
D30*
X112600000Y-90600000D03*
X110950000Y-90600000D03*
D35*
X122600000Y-127600000D03*
X122600000Y-129600000D03*
X122600000Y-131600000D03*
X122600000Y-133600000D03*
X122600000Y-135600000D03*
X122600000Y-137600000D03*
X122600000Y-139600000D03*
X122600000Y-141600000D03*
X137600000Y-141600000D03*
X137600000Y-139600000D03*
X137600000Y-137600000D03*
X137600000Y-135600000D03*
X137600000Y-133600000D03*
X137600000Y-131600000D03*
X137600000Y-129600000D03*
X137600000Y-127600000D03*
D33*
X133950000Y-99200000D03*
X135500000Y-99200000D03*
M02*
