G04 #@! TF.GenerationSoftware,KiCad,Pcbnew,8.0.6*
G04 #@! TF.CreationDate,2024-11-13T15:42:30-05:00*
G04 #@! TF.ProjectId,KiCAD-RFM69,4b694341-442d-4524-964d-36392e6b6963,rev?*
G04 #@! TF.SameCoordinates,Original*
G04 #@! TF.FileFunction,Soldermask,Bot*
G04 #@! TF.FilePolarity,Negative*
%FSLAX46Y46*%
G04 Gerber Fmt 4.6, Leading zero omitted, Abs format (unit mm)*
G04 Created by KiCad (PCBNEW 8.0.6) date 2024-11-13 15:42:30*
%MOMM*%
%LPD*%
G01*
G04 APERTURE LIST*
G04 APERTURE END LIST*
G36*
X103555046Y-145179942D02*
G01*
X103611463Y-145179942D01*
X103673643Y-145190318D01*
X103734425Y-145195636D01*
X103782160Y-145208426D01*
X103831356Y-145216636D01*
X103897346Y-145239290D01*
X103961727Y-145256541D01*
X104001163Y-145274930D01*
X104042205Y-145289020D01*
X104109643Y-145325515D01*
X104175000Y-145355992D01*
X104205765Y-145377533D01*
X104238267Y-145395123D01*
X104304427Y-145446618D01*
X104367763Y-145490966D01*
X104390086Y-145513289D01*
X104414190Y-145532050D01*
X104476107Y-145599310D01*
X104534160Y-145657363D01*
X104548813Y-145678290D01*
X104565178Y-145696067D01*
X104619776Y-145779636D01*
X104669134Y-145850126D01*
X104677372Y-145867792D01*
X104687109Y-145882696D01*
X104731298Y-145983438D01*
X104768585Y-146063399D01*
X104772057Y-146076360D01*
X104776657Y-146086845D01*
X104807460Y-146208485D01*
X104829490Y-146290701D01*
X104830128Y-146297999D01*
X104831384Y-146302957D01*
X104846103Y-146480593D01*
X104850000Y-146525126D01*
X104846103Y-146569662D01*
X104831384Y-146747294D01*
X104830128Y-146752251D01*
X104829490Y-146759551D01*
X104807455Y-146841783D01*
X104776657Y-146963406D01*
X104772058Y-146973889D01*
X104768585Y-146986853D01*
X104731291Y-147066829D01*
X104687109Y-147167555D01*
X104677373Y-147182456D01*
X104669134Y-147200126D01*
X104619767Y-147270629D01*
X104565178Y-147354184D01*
X104548816Y-147371957D01*
X104534160Y-147392889D01*
X104476096Y-147450952D01*
X104414190Y-147518201D01*
X104390090Y-147536958D01*
X104367763Y-147559286D01*
X104304414Y-147603642D01*
X104238267Y-147655128D01*
X104205771Y-147672713D01*
X104175000Y-147694260D01*
X104109629Y-147724742D01*
X104042205Y-147761231D01*
X104001171Y-147775317D01*
X103961727Y-147793711D01*
X103897333Y-147810965D01*
X103831356Y-147833615D01*
X103782168Y-147841823D01*
X103734425Y-147854616D01*
X103673639Y-147859934D01*
X103611463Y-147870310D01*
X103555046Y-147870310D01*
X103500000Y-147875126D01*
X103444954Y-147870310D01*
X103388537Y-147870310D01*
X103326359Y-147859934D01*
X103265575Y-147854616D01*
X103217832Y-147841823D01*
X103168643Y-147833615D01*
X103102662Y-147810963D01*
X103038273Y-147793711D01*
X102998831Y-147775319D01*
X102957794Y-147761231D01*
X102890362Y-147724739D01*
X102825000Y-147694260D01*
X102794232Y-147672716D01*
X102761732Y-147655128D01*
X102695575Y-147603635D01*
X102632237Y-147559286D01*
X102609912Y-147536961D01*
X102585809Y-147518201D01*
X102523891Y-147450940D01*
X102465840Y-147392889D01*
X102451186Y-147371961D01*
X102434821Y-147354184D01*
X102380217Y-147270608D01*
X102330866Y-147200126D01*
X102322628Y-147182461D01*
X102312890Y-147167555D01*
X102268692Y-147066793D01*
X102231415Y-146986853D01*
X102227942Y-146973895D01*
X102223342Y-146963406D01*
X102192525Y-146841715D01*
X102170510Y-146759551D01*
X102169871Y-146752257D01*
X102168615Y-146747294D01*
X102153877Y-146569446D01*
X102150000Y-146525126D01*
X102153877Y-146480809D01*
X102168615Y-146302957D01*
X102169871Y-146297993D01*
X102170510Y-146290701D01*
X102192521Y-146208553D01*
X102223342Y-146086845D01*
X102227943Y-146076354D01*
X102231415Y-146063399D01*
X102268684Y-145983474D01*
X102312890Y-145882696D01*
X102322630Y-145867787D01*
X102330866Y-145850126D01*
X102380208Y-145779657D01*
X102434821Y-145696067D01*
X102451189Y-145678285D01*
X102465840Y-145657363D01*
X102523879Y-145599323D01*
X102585809Y-145532050D01*
X102609917Y-145513285D01*
X102632237Y-145490966D01*
X102695562Y-145446625D01*
X102761732Y-145395123D01*
X102794238Y-145377531D01*
X102825000Y-145355992D01*
X102890349Y-145325518D01*
X102957794Y-145289020D01*
X102998839Y-145274929D01*
X103038273Y-145256541D01*
X103102648Y-145239291D01*
X103168643Y-145216636D01*
X103217840Y-145208426D01*
X103265575Y-145195636D01*
X103326355Y-145190318D01*
X103388537Y-145179942D01*
X103444954Y-145179942D01*
X103500000Y-145175126D01*
X103555046Y-145179942D01*
G37*
G36*
X143455046Y-144854816D02*
G01*
X143511463Y-144854816D01*
X143573643Y-144865192D01*
X143634425Y-144870510D01*
X143682160Y-144883300D01*
X143731356Y-144891510D01*
X143797346Y-144914164D01*
X143861727Y-144931415D01*
X143901163Y-144949804D01*
X143942205Y-144963894D01*
X144009643Y-145000389D01*
X144075000Y-145030866D01*
X144105765Y-145052407D01*
X144138267Y-145069997D01*
X144204427Y-145121492D01*
X144267763Y-145165840D01*
X144290086Y-145188163D01*
X144314190Y-145206924D01*
X144376107Y-145274184D01*
X144434160Y-145332237D01*
X144448813Y-145353164D01*
X144465178Y-145370941D01*
X144519776Y-145454510D01*
X144569134Y-145525000D01*
X144577372Y-145542666D01*
X144587109Y-145557570D01*
X144631298Y-145658312D01*
X144668585Y-145738273D01*
X144672057Y-145751234D01*
X144676657Y-145761719D01*
X144707460Y-145883359D01*
X144729490Y-145965575D01*
X144730128Y-145972873D01*
X144731384Y-145977831D01*
X144746103Y-146155467D01*
X144750000Y-146200000D01*
X144746103Y-146244536D01*
X144731384Y-146422168D01*
X144730128Y-146427125D01*
X144729490Y-146434425D01*
X144707455Y-146516657D01*
X144676657Y-146638280D01*
X144672058Y-146648763D01*
X144668585Y-146661727D01*
X144631291Y-146741703D01*
X144587109Y-146842429D01*
X144577373Y-146857330D01*
X144569134Y-146875000D01*
X144519767Y-146945503D01*
X144465178Y-147029058D01*
X144448816Y-147046831D01*
X144434160Y-147067763D01*
X144376096Y-147125826D01*
X144314190Y-147193075D01*
X144290090Y-147211832D01*
X144267763Y-147234160D01*
X144204414Y-147278516D01*
X144138267Y-147330002D01*
X144105771Y-147347587D01*
X144075000Y-147369134D01*
X144009629Y-147399616D01*
X143942205Y-147436105D01*
X143901171Y-147450191D01*
X143861727Y-147468585D01*
X143797333Y-147485839D01*
X143731356Y-147508489D01*
X143682168Y-147516697D01*
X143634425Y-147529490D01*
X143573639Y-147534808D01*
X143511463Y-147545184D01*
X143455046Y-147545184D01*
X143400000Y-147550000D01*
X143344954Y-147545184D01*
X143288537Y-147545184D01*
X143226359Y-147534808D01*
X143165575Y-147529490D01*
X143117832Y-147516697D01*
X143068643Y-147508489D01*
X143002662Y-147485837D01*
X142938273Y-147468585D01*
X142898831Y-147450193D01*
X142857794Y-147436105D01*
X142790362Y-147399613D01*
X142725000Y-147369134D01*
X142694232Y-147347590D01*
X142661732Y-147330002D01*
X142595575Y-147278509D01*
X142532237Y-147234160D01*
X142509912Y-147211835D01*
X142485809Y-147193075D01*
X142423891Y-147125814D01*
X142365840Y-147067763D01*
X142351186Y-147046835D01*
X142334821Y-147029058D01*
X142280217Y-146945482D01*
X142230866Y-146875000D01*
X142222628Y-146857335D01*
X142212890Y-146842429D01*
X142168692Y-146741667D01*
X142131415Y-146661727D01*
X142127942Y-146648769D01*
X142123342Y-146638280D01*
X142092525Y-146516589D01*
X142070510Y-146434425D01*
X142069871Y-146427131D01*
X142068615Y-146422168D01*
X142053877Y-146244320D01*
X142050000Y-146200000D01*
X142053877Y-146155683D01*
X142068615Y-145977831D01*
X142069871Y-145972867D01*
X142070510Y-145965575D01*
X142092521Y-145883427D01*
X142123342Y-145761719D01*
X142127943Y-145751228D01*
X142131415Y-145738273D01*
X142168684Y-145658348D01*
X142212890Y-145557570D01*
X142222630Y-145542661D01*
X142230866Y-145525000D01*
X142280208Y-145454531D01*
X142334821Y-145370941D01*
X142351189Y-145353159D01*
X142365840Y-145332237D01*
X142423879Y-145274197D01*
X142485809Y-145206924D01*
X142509917Y-145188159D01*
X142532237Y-145165840D01*
X142595562Y-145121499D01*
X142661732Y-145069997D01*
X142694238Y-145052405D01*
X142725000Y-145030866D01*
X142790349Y-145000392D01*
X142857794Y-144963894D01*
X142898839Y-144949803D01*
X142938273Y-144931415D01*
X143002648Y-144914165D01*
X143068643Y-144891510D01*
X143117840Y-144883300D01*
X143165575Y-144870510D01*
X143226355Y-144865192D01*
X143288537Y-144854816D01*
X143344954Y-144854816D01*
X143400000Y-144850000D01*
X143455046Y-144854816D01*
G37*
G36*
X110324997Y-145006732D02*
G01*
X110460437Y-145077817D01*
X110574930Y-145179249D01*
X110661822Y-145305133D01*
X110716063Y-145448154D01*
X110734500Y-145600000D01*
X110716063Y-145751846D01*
X110661822Y-145894867D01*
X110574930Y-146020751D01*
X110460437Y-146122183D01*
X110324997Y-146193268D01*
X110176481Y-146229874D01*
X110023519Y-146229874D01*
X109875003Y-146193268D01*
X109739563Y-146122183D01*
X109625070Y-146020751D01*
X109538178Y-145894867D01*
X109483937Y-145751846D01*
X109465500Y-145600000D01*
X109483937Y-145448154D01*
X109538178Y-145305133D01*
X109625070Y-145179249D01*
X109739563Y-145077817D01*
X109875003Y-145006732D01*
X110023519Y-144970126D01*
X110176481Y-144970126D01*
X110324997Y-145006732D01*
G37*
G36*
X117944997Y-145006732D02*
G01*
X118080437Y-145077817D01*
X118194930Y-145179249D01*
X118281822Y-145305133D01*
X118336063Y-145448154D01*
X118354500Y-145600000D01*
X118336063Y-145751846D01*
X118281822Y-145894867D01*
X118194930Y-146020751D01*
X118080437Y-146122183D01*
X117944997Y-146193268D01*
X117796481Y-146229874D01*
X117643519Y-146229874D01*
X117495003Y-146193268D01*
X117359563Y-146122183D01*
X117245070Y-146020751D01*
X117158178Y-145894867D01*
X117103937Y-145751846D01*
X117085500Y-145600000D01*
X117103937Y-145448154D01*
X117158178Y-145305133D01*
X117245070Y-145179249D01*
X117359563Y-145077817D01*
X117495003Y-145006732D01*
X117643519Y-144970126D01*
X117796481Y-144970126D01*
X117944997Y-145006732D01*
G37*
G36*
X123370000Y-145950000D02*
G01*
X121670000Y-145950000D01*
X121670000Y-144250000D01*
X123370000Y-144250000D01*
X123370000Y-145950000D01*
G37*
G36*
X125322664Y-144291602D02*
G01*
X125485000Y-144363878D01*
X125628761Y-144468327D01*
X125747664Y-144600383D01*
X125836514Y-144754274D01*
X125891425Y-144923275D01*
X125910000Y-145100000D01*
X125891425Y-145276725D01*
X125836514Y-145445726D01*
X125747664Y-145599617D01*
X125628761Y-145731673D01*
X125485000Y-145836122D01*
X125322664Y-145908398D01*
X125148849Y-145945344D01*
X124971151Y-145945344D01*
X124797336Y-145908398D01*
X124635000Y-145836122D01*
X124491239Y-145731673D01*
X124372336Y-145599617D01*
X124283486Y-145445726D01*
X124228575Y-145276725D01*
X124210000Y-145100000D01*
X124228575Y-144923275D01*
X124283486Y-144754274D01*
X124372336Y-144600383D01*
X124491239Y-144468327D01*
X124635000Y-144363878D01*
X124797336Y-144291602D01*
X124971151Y-144254656D01*
X125148849Y-144254656D01*
X125322664Y-144291602D01*
G37*
G36*
X127862664Y-144291602D02*
G01*
X128025000Y-144363878D01*
X128168761Y-144468327D01*
X128287664Y-144600383D01*
X128376514Y-144754274D01*
X128431425Y-144923275D01*
X128450000Y-145100000D01*
X128431425Y-145276725D01*
X128376514Y-145445726D01*
X128287664Y-145599617D01*
X128168761Y-145731673D01*
X128025000Y-145836122D01*
X127862664Y-145908398D01*
X127688849Y-145945344D01*
X127511151Y-145945344D01*
X127337336Y-145908398D01*
X127175000Y-145836122D01*
X127031239Y-145731673D01*
X126912336Y-145599617D01*
X126823486Y-145445726D01*
X126768575Y-145276725D01*
X126750000Y-145100000D01*
X126768575Y-144923275D01*
X126823486Y-144754274D01*
X126912336Y-144600383D01*
X127031239Y-144468327D01*
X127175000Y-144363878D01*
X127337336Y-144291602D01*
X127511151Y-144254656D01*
X127688849Y-144254656D01*
X127862664Y-144291602D01*
G37*
G36*
X130402664Y-144291602D02*
G01*
X130565000Y-144363878D01*
X130708761Y-144468327D01*
X130827664Y-144600383D01*
X130916514Y-144754274D01*
X130971425Y-144923275D01*
X130990000Y-145100000D01*
X130971425Y-145276725D01*
X130916514Y-145445726D01*
X130827664Y-145599617D01*
X130708761Y-145731673D01*
X130565000Y-145836122D01*
X130402664Y-145908398D01*
X130228849Y-145945344D01*
X130051151Y-145945344D01*
X129877336Y-145908398D01*
X129715000Y-145836122D01*
X129571239Y-145731673D01*
X129452336Y-145599617D01*
X129363486Y-145445726D01*
X129308575Y-145276725D01*
X129290000Y-145100000D01*
X129308575Y-144923275D01*
X129363486Y-144754274D01*
X129452336Y-144600383D01*
X129571239Y-144468327D01*
X129715000Y-144363878D01*
X129877336Y-144291602D01*
X130051151Y-144254656D01*
X130228849Y-144254656D01*
X130402664Y-144291602D01*
G37*
G36*
X132942664Y-144291602D02*
G01*
X133105000Y-144363878D01*
X133248761Y-144468327D01*
X133367664Y-144600383D01*
X133456514Y-144754274D01*
X133511425Y-144923275D01*
X133530000Y-145100000D01*
X133511425Y-145276725D01*
X133456514Y-145445726D01*
X133367664Y-145599617D01*
X133248761Y-145731673D01*
X133105000Y-145836122D01*
X132942664Y-145908398D01*
X132768849Y-145945344D01*
X132591151Y-145945344D01*
X132417336Y-145908398D01*
X132255000Y-145836122D01*
X132111239Y-145731673D01*
X131992336Y-145599617D01*
X131903486Y-145445726D01*
X131848575Y-145276725D01*
X131830000Y-145100000D01*
X131848575Y-144923275D01*
X131903486Y-144754274D01*
X131992336Y-144600383D01*
X132111239Y-144468327D01*
X132255000Y-144363878D01*
X132417336Y-144291602D01*
X132591151Y-144254656D01*
X132768849Y-144254656D01*
X132942664Y-144291602D01*
G37*
G36*
X110324997Y-142466732D02*
G01*
X110460437Y-142537817D01*
X110574930Y-142639249D01*
X110661822Y-142765133D01*
X110716063Y-142908154D01*
X110734500Y-143060000D01*
X110716063Y-143211846D01*
X110661822Y-143354867D01*
X110574930Y-143480751D01*
X110460437Y-143582183D01*
X110324997Y-143653268D01*
X110176481Y-143689874D01*
X110023519Y-143689874D01*
X109875003Y-143653268D01*
X109739563Y-143582183D01*
X109625070Y-143480751D01*
X109538178Y-143354867D01*
X109483937Y-143211846D01*
X109465500Y-143060000D01*
X109483937Y-142908154D01*
X109538178Y-142765133D01*
X109625070Y-142639249D01*
X109739563Y-142537817D01*
X109875003Y-142466732D01*
X110023519Y-142430126D01*
X110176481Y-142430126D01*
X110324997Y-142466732D01*
G37*
G36*
X117944997Y-142466732D02*
G01*
X118080437Y-142537817D01*
X118194930Y-142639249D01*
X118281822Y-142765133D01*
X118336063Y-142908154D01*
X118354500Y-143060000D01*
X118336063Y-143211846D01*
X118281822Y-143354867D01*
X118194930Y-143480751D01*
X118080437Y-143582183D01*
X117944997Y-143653268D01*
X117796481Y-143689874D01*
X117643519Y-143689874D01*
X117495003Y-143653268D01*
X117359563Y-143582183D01*
X117245070Y-143480751D01*
X117158178Y-143354867D01*
X117103937Y-143211846D01*
X117085500Y-143060000D01*
X117103937Y-142908154D01*
X117158178Y-142765133D01*
X117245070Y-142639249D01*
X117359563Y-142537817D01*
X117495003Y-142466732D01*
X117643519Y-142430126D01*
X117796481Y-142430126D01*
X117944997Y-142466732D01*
G37*
G36*
X102462664Y-140891602D02*
G01*
X102625000Y-140963878D01*
X102768761Y-141068327D01*
X102887664Y-141200383D01*
X102976514Y-141354274D01*
X103031425Y-141523275D01*
X103050000Y-141700000D01*
X103031425Y-141876725D01*
X102976514Y-142045726D01*
X102887664Y-142199617D01*
X102768761Y-142331673D01*
X102625000Y-142436122D01*
X102462664Y-142508398D01*
X102288849Y-142545344D01*
X102111151Y-142545344D01*
X101937336Y-142508398D01*
X101775000Y-142436122D01*
X101631239Y-142331673D01*
X101512336Y-142199617D01*
X101423486Y-142045726D01*
X101368575Y-141876725D01*
X101350000Y-141700000D01*
X101368575Y-141523275D01*
X101423486Y-141354274D01*
X101512336Y-141200383D01*
X101631239Y-141068327D01*
X101775000Y-140963878D01*
X101937336Y-140891602D01*
X102111151Y-140854656D01*
X102288849Y-140854656D01*
X102462664Y-140891602D01*
G37*
G36*
X144962664Y-140591602D02*
G01*
X145125000Y-140663878D01*
X145268761Y-140768327D01*
X145387664Y-140900383D01*
X145476514Y-141054274D01*
X145531425Y-141223275D01*
X145550000Y-141400000D01*
X145531425Y-141576725D01*
X145476514Y-141745726D01*
X145387664Y-141899617D01*
X145268761Y-142031673D01*
X145125000Y-142136122D01*
X144962664Y-142208398D01*
X144788849Y-142245344D01*
X144611151Y-142245344D01*
X144437336Y-142208398D01*
X144275000Y-142136122D01*
X144131239Y-142031673D01*
X144012336Y-141899617D01*
X143923486Y-141745726D01*
X143868575Y-141576725D01*
X143850000Y-141400000D01*
X143868575Y-141223275D01*
X143923486Y-141054274D01*
X144012336Y-140900383D01*
X144131239Y-140768327D01*
X144275000Y-140663878D01*
X144437336Y-140591602D01*
X144611151Y-140554656D01*
X144788849Y-140554656D01*
X144962664Y-140591602D01*
G37*
G36*
X110324997Y-139926732D02*
G01*
X110460437Y-139997817D01*
X110574930Y-140099249D01*
X110661822Y-140225133D01*
X110716063Y-140368154D01*
X110734500Y-140520000D01*
X110716063Y-140671846D01*
X110661822Y-140814867D01*
X110574930Y-140940751D01*
X110460437Y-141042183D01*
X110324997Y-141113268D01*
X110176481Y-141149874D01*
X110023519Y-141149874D01*
X109875003Y-141113268D01*
X109739563Y-141042183D01*
X109625070Y-140940751D01*
X109538178Y-140814867D01*
X109483937Y-140671846D01*
X109465500Y-140520000D01*
X109483937Y-140368154D01*
X109538178Y-140225133D01*
X109625070Y-140099249D01*
X109739563Y-139997817D01*
X109875003Y-139926732D01*
X110023519Y-139890126D01*
X110176481Y-139890126D01*
X110324997Y-139926732D01*
G37*
G36*
X117944997Y-139926732D02*
G01*
X118080437Y-139997817D01*
X118194930Y-140099249D01*
X118281822Y-140225133D01*
X118336063Y-140368154D01*
X118354500Y-140520000D01*
X118336063Y-140671846D01*
X118281822Y-140814867D01*
X118194930Y-140940751D01*
X118080437Y-141042183D01*
X117944997Y-141113268D01*
X117796481Y-141149874D01*
X117643519Y-141149874D01*
X117495003Y-141113268D01*
X117359563Y-141042183D01*
X117245070Y-140940751D01*
X117158178Y-140814867D01*
X117103937Y-140671846D01*
X117085500Y-140520000D01*
X117103937Y-140368154D01*
X117158178Y-140225133D01*
X117245070Y-140099249D01*
X117359563Y-139997817D01*
X117495003Y-139926732D01*
X117643519Y-139890126D01*
X117796481Y-139890126D01*
X117944997Y-139926732D01*
G37*
G36*
X102462664Y-138351602D02*
G01*
X102625000Y-138423878D01*
X102768761Y-138528327D01*
X102887664Y-138660383D01*
X102976514Y-138814274D01*
X103031425Y-138983275D01*
X103050000Y-139160000D01*
X103031425Y-139336725D01*
X102976514Y-139505726D01*
X102887664Y-139659617D01*
X102768761Y-139791673D01*
X102625000Y-139896122D01*
X102462664Y-139968398D01*
X102288849Y-140005344D01*
X102111151Y-140005344D01*
X101937336Y-139968398D01*
X101775000Y-139896122D01*
X101631239Y-139791673D01*
X101512336Y-139659617D01*
X101423486Y-139505726D01*
X101368575Y-139336725D01*
X101350000Y-139160000D01*
X101368575Y-138983275D01*
X101423486Y-138814274D01*
X101512336Y-138660383D01*
X101631239Y-138528327D01*
X101775000Y-138423878D01*
X101937336Y-138351602D01*
X102111151Y-138314656D01*
X102288849Y-138314656D01*
X102462664Y-138351602D01*
G37*
G36*
X144962664Y-138051602D02*
G01*
X145125000Y-138123878D01*
X145268761Y-138228327D01*
X145387664Y-138360383D01*
X145476514Y-138514274D01*
X145531425Y-138683275D01*
X145550000Y-138860000D01*
X145531425Y-139036725D01*
X145476514Y-139205726D01*
X145387664Y-139359617D01*
X145268761Y-139491673D01*
X145125000Y-139596122D01*
X144962664Y-139668398D01*
X144788849Y-139705344D01*
X144611151Y-139705344D01*
X144437336Y-139668398D01*
X144275000Y-139596122D01*
X144131239Y-139491673D01*
X144012336Y-139359617D01*
X143923486Y-139205726D01*
X143868575Y-139036725D01*
X143850000Y-138860000D01*
X143868575Y-138683275D01*
X143923486Y-138514274D01*
X144012336Y-138360383D01*
X144131239Y-138228327D01*
X144275000Y-138123878D01*
X144437336Y-138051602D01*
X144611151Y-138014656D01*
X144788849Y-138014656D01*
X144962664Y-138051602D01*
G37*
G36*
X110324997Y-137386732D02*
G01*
X110460437Y-137457817D01*
X110574930Y-137559249D01*
X110661822Y-137685133D01*
X110716063Y-137828154D01*
X110734500Y-137980000D01*
X110716063Y-138131846D01*
X110661822Y-138274867D01*
X110574930Y-138400751D01*
X110460437Y-138502183D01*
X110324997Y-138573268D01*
X110176481Y-138609874D01*
X110023519Y-138609874D01*
X109875003Y-138573268D01*
X109739563Y-138502183D01*
X109625070Y-138400751D01*
X109538178Y-138274867D01*
X109483937Y-138131846D01*
X109465500Y-137980000D01*
X109483937Y-137828154D01*
X109538178Y-137685133D01*
X109625070Y-137559249D01*
X109739563Y-137457817D01*
X109875003Y-137386732D01*
X110023519Y-137350126D01*
X110176481Y-137350126D01*
X110324997Y-137386732D01*
G37*
G36*
X117944997Y-137386732D02*
G01*
X118080437Y-137457817D01*
X118194930Y-137559249D01*
X118281822Y-137685133D01*
X118336063Y-137828154D01*
X118354500Y-137980000D01*
X118336063Y-138131846D01*
X118281822Y-138274867D01*
X118194930Y-138400751D01*
X118080437Y-138502183D01*
X117944997Y-138573268D01*
X117796481Y-138609874D01*
X117643519Y-138609874D01*
X117495003Y-138573268D01*
X117359563Y-138502183D01*
X117245070Y-138400751D01*
X117158178Y-138274867D01*
X117103937Y-138131846D01*
X117085500Y-137980000D01*
X117103937Y-137828154D01*
X117158178Y-137685133D01*
X117245070Y-137559249D01*
X117359563Y-137457817D01*
X117495003Y-137386732D01*
X117643519Y-137350126D01*
X117796481Y-137350126D01*
X117944997Y-137386732D01*
G37*
G36*
X102462664Y-135811602D02*
G01*
X102625000Y-135883878D01*
X102768761Y-135988327D01*
X102887664Y-136120383D01*
X102976514Y-136274274D01*
X103031425Y-136443275D01*
X103050000Y-136620000D01*
X103031425Y-136796725D01*
X102976514Y-136965726D01*
X102887664Y-137119617D01*
X102768761Y-137251673D01*
X102625000Y-137356122D01*
X102462664Y-137428398D01*
X102288849Y-137465344D01*
X102111151Y-137465344D01*
X101937336Y-137428398D01*
X101775000Y-137356122D01*
X101631239Y-137251673D01*
X101512336Y-137119617D01*
X101423486Y-136965726D01*
X101368575Y-136796725D01*
X101350000Y-136620000D01*
X101368575Y-136443275D01*
X101423486Y-136274274D01*
X101512336Y-136120383D01*
X101631239Y-135988327D01*
X101775000Y-135883878D01*
X101937336Y-135811602D01*
X102111151Y-135774656D01*
X102288849Y-135774656D01*
X102462664Y-135811602D01*
G37*
G36*
X144962664Y-135511602D02*
G01*
X145125000Y-135583878D01*
X145268761Y-135688327D01*
X145387664Y-135820383D01*
X145476514Y-135974274D01*
X145531425Y-136143275D01*
X145550000Y-136320000D01*
X145531425Y-136496725D01*
X145476514Y-136665726D01*
X145387664Y-136819617D01*
X145268761Y-136951673D01*
X145125000Y-137056122D01*
X144962664Y-137128398D01*
X144788849Y-137165344D01*
X144611151Y-137165344D01*
X144437336Y-137128398D01*
X144275000Y-137056122D01*
X144131239Y-136951673D01*
X144012336Y-136819617D01*
X143923486Y-136665726D01*
X143868575Y-136496725D01*
X143850000Y-136320000D01*
X143868575Y-136143275D01*
X143923486Y-135974274D01*
X144012336Y-135820383D01*
X144131239Y-135688327D01*
X144275000Y-135583878D01*
X144437336Y-135511602D01*
X144611151Y-135474656D01*
X144788849Y-135474656D01*
X144962664Y-135511602D01*
G37*
G36*
X110324997Y-134846732D02*
G01*
X110460437Y-134917817D01*
X110574930Y-135019249D01*
X110661822Y-135145133D01*
X110716063Y-135288154D01*
X110734500Y-135440000D01*
X110716063Y-135591846D01*
X110661822Y-135734867D01*
X110574930Y-135860751D01*
X110460437Y-135962183D01*
X110324997Y-136033268D01*
X110176481Y-136069874D01*
X110023519Y-136069874D01*
X109875003Y-136033268D01*
X109739563Y-135962183D01*
X109625070Y-135860751D01*
X109538178Y-135734867D01*
X109483937Y-135591846D01*
X109465500Y-135440000D01*
X109483937Y-135288154D01*
X109538178Y-135145133D01*
X109625070Y-135019249D01*
X109739563Y-134917817D01*
X109875003Y-134846732D01*
X110023519Y-134810126D01*
X110176481Y-134810126D01*
X110324997Y-134846732D01*
G37*
G36*
X117944997Y-134846732D02*
G01*
X118080437Y-134917817D01*
X118194930Y-135019249D01*
X118281822Y-135145133D01*
X118336063Y-135288154D01*
X118354500Y-135440000D01*
X118336063Y-135591846D01*
X118281822Y-135734867D01*
X118194930Y-135860751D01*
X118080437Y-135962183D01*
X117944997Y-136033268D01*
X117796481Y-136069874D01*
X117643519Y-136069874D01*
X117495003Y-136033268D01*
X117359563Y-135962183D01*
X117245070Y-135860751D01*
X117158178Y-135734867D01*
X117103937Y-135591846D01*
X117085500Y-135440000D01*
X117103937Y-135288154D01*
X117158178Y-135145133D01*
X117245070Y-135019249D01*
X117359563Y-134917817D01*
X117495003Y-134846732D01*
X117643519Y-134810126D01*
X117796481Y-134810126D01*
X117944997Y-134846732D01*
G37*
G36*
X102462664Y-133271602D02*
G01*
X102625000Y-133343878D01*
X102768761Y-133448327D01*
X102887664Y-133580383D01*
X102976514Y-133734274D01*
X103031425Y-133903275D01*
X103050000Y-134080000D01*
X103031425Y-134256725D01*
X102976514Y-134425726D01*
X102887664Y-134579617D01*
X102768761Y-134711673D01*
X102625000Y-134816122D01*
X102462664Y-134888398D01*
X102288849Y-134925344D01*
X102111151Y-134925344D01*
X101937336Y-134888398D01*
X101775000Y-134816122D01*
X101631239Y-134711673D01*
X101512336Y-134579617D01*
X101423486Y-134425726D01*
X101368575Y-134256725D01*
X101350000Y-134080000D01*
X101368575Y-133903275D01*
X101423486Y-133734274D01*
X101512336Y-133580383D01*
X101631239Y-133448327D01*
X101775000Y-133343878D01*
X101937336Y-133271602D01*
X102111151Y-133234656D01*
X102288849Y-133234656D01*
X102462664Y-133271602D01*
G37*
G36*
X144962664Y-132971602D02*
G01*
X145125000Y-133043878D01*
X145268761Y-133148327D01*
X145387664Y-133280383D01*
X145476514Y-133434274D01*
X145531425Y-133603275D01*
X145550000Y-133780000D01*
X145531425Y-133956725D01*
X145476514Y-134125726D01*
X145387664Y-134279617D01*
X145268761Y-134411673D01*
X145125000Y-134516122D01*
X144962664Y-134588398D01*
X144788849Y-134625344D01*
X144611151Y-134625344D01*
X144437336Y-134588398D01*
X144275000Y-134516122D01*
X144131239Y-134411673D01*
X144012336Y-134279617D01*
X143923486Y-134125726D01*
X143868575Y-133956725D01*
X143850000Y-133780000D01*
X143868575Y-133603275D01*
X143923486Y-133434274D01*
X144012336Y-133280383D01*
X144131239Y-133148327D01*
X144275000Y-133043878D01*
X144437336Y-132971602D01*
X144611151Y-132934656D01*
X144788849Y-132934656D01*
X144962664Y-132971602D01*
G37*
G36*
X110324997Y-132306732D02*
G01*
X110460437Y-132377817D01*
X110574930Y-132479249D01*
X110661822Y-132605133D01*
X110716063Y-132748154D01*
X110734500Y-132900000D01*
X110716063Y-133051846D01*
X110661822Y-133194867D01*
X110574930Y-133320751D01*
X110460437Y-133422183D01*
X110324997Y-133493268D01*
X110176481Y-133529874D01*
X110023519Y-133529874D01*
X109875003Y-133493268D01*
X109739563Y-133422183D01*
X109625070Y-133320751D01*
X109538178Y-133194867D01*
X109483937Y-133051846D01*
X109465500Y-132900000D01*
X109483937Y-132748154D01*
X109538178Y-132605133D01*
X109625070Y-132479249D01*
X109739563Y-132377817D01*
X109875003Y-132306732D01*
X110023519Y-132270126D01*
X110176481Y-132270126D01*
X110324997Y-132306732D01*
G37*
G36*
X117944997Y-132306732D02*
G01*
X118080437Y-132377817D01*
X118194930Y-132479249D01*
X118281822Y-132605133D01*
X118336063Y-132748154D01*
X118354500Y-132900000D01*
X118336063Y-133051846D01*
X118281822Y-133194867D01*
X118194930Y-133320751D01*
X118080437Y-133422183D01*
X117944997Y-133493268D01*
X117796481Y-133529874D01*
X117643519Y-133529874D01*
X117495003Y-133493268D01*
X117359563Y-133422183D01*
X117245070Y-133320751D01*
X117158178Y-133194867D01*
X117103937Y-133051846D01*
X117085500Y-132900000D01*
X117103937Y-132748154D01*
X117158178Y-132605133D01*
X117245070Y-132479249D01*
X117359563Y-132377817D01*
X117495003Y-132306732D01*
X117643519Y-132270126D01*
X117796481Y-132270126D01*
X117944997Y-132306732D01*
G37*
G36*
X102462664Y-130731602D02*
G01*
X102625000Y-130803878D01*
X102768761Y-130908327D01*
X102887664Y-131040383D01*
X102976514Y-131194274D01*
X103031425Y-131363275D01*
X103050000Y-131540000D01*
X103031425Y-131716725D01*
X102976514Y-131885726D01*
X102887664Y-132039617D01*
X102768761Y-132171673D01*
X102625000Y-132276122D01*
X102462664Y-132348398D01*
X102288849Y-132385344D01*
X102111151Y-132385344D01*
X101937336Y-132348398D01*
X101775000Y-132276122D01*
X101631239Y-132171673D01*
X101512336Y-132039617D01*
X101423486Y-131885726D01*
X101368575Y-131716725D01*
X101350000Y-131540000D01*
X101368575Y-131363275D01*
X101423486Y-131194274D01*
X101512336Y-131040383D01*
X101631239Y-130908327D01*
X101775000Y-130803878D01*
X101937336Y-130731602D01*
X102111151Y-130694656D01*
X102288849Y-130694656D01*
X102462664Y-130731602D01*
G37*
G36*
X144962664Y-130431602D02*
G01*
X145125000Y-130503878D01*
X145268761Y-130608327D01*
X145387664Y-130740383D01*
X145476514Y-130894274D01*
X145531425Y-131063275D01*
X145550000Y-131240000D01*
X145531425Y-131416725D01*
X145476514Y-131585726D01*
X145387664Y-131739617D01*
X145268761Y-131871673D01*
X145125000Y-131976122D01*
X144962664Y-132048398D01*
X144788849Y-132085344D01*
X144611151Y-132085344D01*
X144437336Y-132048398D01*
X144275000Y-131976122D01*
X144131239Y-131871673D01*
X144012336Y-131739617D01*
X143923486Y-131585726D01*
X143868575Y-131416725D01*
X143850000Y-131240000D01*
X143868575Y-131063275D01*
X143923486Y-130894274D01*
X144012336Y-130740383D01*
X144131239Y-130608327D01*
X144275000Y-130503878D01*
X144437336Y-130431602D01*
X144611151Y-130394656D01*
X144788849Y-130394656D01*
X144962664Y-130431602D01*
G37*
G36*
X110324997Y-129766732D02*
G01*
X110460437Y-129837817D01*
X110574930Y-129939249D01*
X110661822Y-130065133D01*
X110716063Y-130208154D01*
X110734500Y-130360000D01*
X110716063Y-130511846D01*
X110661822Y-130654867D01*
X110574930Y-130780751D01*
X110460437Y-130882183D01*
X110324997Y-130953268D01*
X110176481Y-130989874D01*
X110023519Y-130989874D01*
X109875003Y-130953268D01*
X109739563Y-130882183D01*
X109625070Y-130780751D01*
X109538178Y-130654867D01*
X109483937Y-130511846D01*
X109465500Y-130360000D01*
X109483937Y-130208154D01*
X109538178Y-130065133D01*
X109625070Y-129939249D01*
X109739563Y-129837817D01*
X109875003Y-129766732D01*
X110023519Y-129730126D01*
X110176481Y-129730126D01*
X110324997Y-129766732D01*
G37*
G36*
X117944997Y-129766732D02*
G01*
X118080437Y-129837817D01*
X118194930Y-129939249D01*
X118281822Y-130065133D01*
X118336063Y-130208154D01*
X118354500Y-130360000D01*
X118336063Y-130511846D01*
X118281822Y-130654867D01*
X118194930Y-130780751D01*
X118080437Y-130882183D01*
X117944997Y-130953268D01*
X117796481Y-130989874D01*
X117643519Y-130989874D01*
X117495003Y-130953268D01*
X117359563Y-130882183D01*
X117245070Y-130780751D01*
X117158178Y-130654867D01*
X117103937Y-130511846D01*
X117085500Y-130360000D01*
X117103937Y-130208154D01*
X117158178Y-130065133D01*
X117245070Y-129939249D01*
X117359563Y-129837817D01*
X117495003Y-129766732D01*
X117643519Y-129730126D01*
X117796481Y-129730126D01*
X117944997Y-129766732D01*
G37*
G36*
X102462664Y-128191602D02*
G01*
X102625000Y-128263878D01*
X102768761Y-128368327D01*
X102887664Y-128500383D01*
X102976514Y-128654274D01*
X103031425Y-128823275D01*
X103050000Y-129000000D01*
X103031425Y-129176725D01*
X102976514Y-129345726D01*
X102887664Y-129499617D01*
X102768761Y-129631673D01*
X102625000Y-129736122D01*
X102462664Y-129808398D01*
X102288849Y-129845344D01*
X102111151Y-129845344D01*
X101937336Y-129808398D01*
X101775000Y-129736122D01*
X101631239Y-129631673D01*
X101512336Y-129499617D01*
X101423486Y-129345726D01*
X101368575Y-129176725D01*
X101350000Y-129000000D01*
X101368575Y-128823275D01*
X101423486Y-128654274D01*
X101512336Y-128500383D01*
X101631239Y-128368327D01*
X101775000Y-128263878D01*
X101937336Y-128191602D01*
X102111151Y-128154656D01*
X102288849Y-128154656D01*
X102462664Y-128191602D01*
G37*
G36*
X144962664Y-127891602D02*
G01*
X145125000Y-127963878D01*
X145268761Y-128068327D01*
X145387664Y-128200383D01*
X145476514Y-128354274D01*
X145531425Y-128523275D01*
X145550000Y-128700000D01*
X145531425Y-128876725D01*
X145476514Y-129045726D01*
X145387664Y-129199617D01*
X145268761Y-129331673D01*
X145125000Y-129436122D01*
X144962664Y-129508398D01*
X144788849Y-129545344D01*
X144611151Y-129545344D01*
X144437336Y-129508398D01*
X144275000Y-129436122D01*
X144131239Y-129331673D01*
X144012336Y-129199617D01*
X143923486Y-129045726D01*
X143868575Y-128876725D01*
X143850000Y-128700000D01*
X143868575Y-128523275D01*
X143923486Y-128354274D01*
X144012336Y-128200383D01*
X144131239Y-128068327D01*
X144275000Y-127963878D01*
X144437336Y-127891602D01*
X144611151Y-127854656D01*
X144788849Y-127854656D01*
X144962664Y-127891602D01*
G37*
G36*
X118354500Y-128454500D02*
G01*
X117085500Y-128454500D01*
X117085500Y-127185500D01*
X118354500Y-127185500D01*
X118354500Y-128454500D01*
G37*
G36*
X110324997Y-127226732D02*
G01*
X110460437Y-127297817D01*
X110574930Y-127399249D01*
X110661822Y-127525133D01*
X110716063Y-127668154D01*
X110734500Y-127820000D01*
X110716063Y-127971846D01*
X110661822Y-128114867D01*
X110574930Y-128240751D01*
X110460437Y-128342183D01*
X110324997Y-128413268D01*
X110176481Y-128449874D01*
X110023519Y-128449874D01*
X109875003Y-128413268D01*
X109739563Y-128342183D01*
X109625070Y-128240751D01*
X109538178Y-128114867D01*
X109483937Y-127971846D01*
X109465500Y-127820000D01*
X109483937Y-127668154D01*
X109538178Y-127525133D01*
X109625070Y-127399249D01*
X109739563Y-127297817D01*
X109875003Y-127226732D01*
X110023519Y-127190126D01*
X110176481Y-127190126D01*
X110324997Y-127226732D01*
G37*
G36*
X102462664Y-125651602D02*
G01*
X102625000Y-125723878D01*
X102768761Y-125828327D01*
X102887664Y-125960383D01*
X102976514Y-126114274D01*
X103031425Y-126283275D01*
X103050000Y-126460000D01*
X103031425Y-126636725D01*
X102976514Y-126805726D01*
X102887664Y-126959617D01*
X102768761Y-127091673D01*
X102625000Y-127196122D01*
X102462664Y-127268398D01*
X102288849Y-127305344D01*
X102111151Y-127305344D01*
X101937336Y-127268398D01*
X101775000Y-127196122D01*
X101631239Y-127091673D01*
X101512336Y-126959617D01*
X101423486Y-126805726D01*
X101368575Y-126636725D01*
X101350000Y-126460000D01*
X101368575Y-126283275D01*
X101423486Y-126114274D01*
X101512336Y-125960383D01*
X101631239Y-125828327D01*
X101775000Y-125723878D01*
X101937336Y-125651602D01*
X102111151Y-125614656D01*
X102288849Y-125614656D01*
X102462664Y-125651602D01*
G37*
G36*
X144962664Y-125351602D02*
G01*
X145125000Y-125423878D01*
X145268761Y-125528327D01*
X145387664Y-125660383D01*
X145476514Y-125814274D01*
X145531425Y-125983275D01*
X145550000Y-126160000D01*
X145531425Y-126336725D01*
X145476514Y-126505726D01*
X145387664Y-126659617D01*
X145268761Y-126791673D01*
X145125000Y-126896122D01*
X144962664Y-126968398D01*
X144788849Y-127005344D01*
X144611151Y-127005344D01*
X144437336Y-126968398D01*
X144275000Y-126896122D01*
X144131239Y-126791673D01*
X144012336Y-126659617D01*
X143923486Y-126505726D01*
X143868575Y-126336725D01*
X143850000Y-126160000D01*
X143868575Y-125983275D01*
X143923486Y-125814274D01*
X144012336Y-125660383D01*
X144131239Y-125528327D01*
X144275000Y-125423878D01*
X144437336Y-125351602D01*
X144611151Y-125314656D01*
X144788849Y-125314656D01*
X144962664Y-125351602D01*
G37*
G36*
X102462664Y-123111602D02*
G01*
X102625000Y-123183878D01*
X102768761Y-123288327D01*
X102887664Y-123420383D01*
X102976514Y-123574274D01*
X103031425Y-123743275D01*
X103050000Y-123920000D01*
X103031425Y-124096725D01*
X102976514Y-124265726D01*
X102887664Y-124419617D01*
X102768761Y-124551673D01*
X102625000Y-124656122D01*
X102462664Y-124728398D01*
X102288849Y-124765344D01*
X102111151Y-124765344D01*
X101937336Y-124728398D01*
X101775000Y-124656122D01*
X101631239Y-124551673D01*
X101512336Y-124419617D01*
X101423486Y-124265726D01*
X101368575Y-124096725D01*
X101350000Y-123920000D01*
X101368575Y-123743275D01*
X101423486Y-123574274D01*
X101512336Y-123420383D01*
X101631239Y-123288327D01*
X101775000Y-123183878D01*
X101937336Y-123111602D01*
X102111151Y-123074656D01*
X102288849Y-123074656D01*
X102462664Y-123111602D01*
G37*
G36*
X144962664Y-122811602D02*
G01*
X145125000Y-122883878D01*
X145268761Y-122988327D01*
X145387664Y-123120383D01*
X145476514Y-123274274D01*
X145531425Y-123443275D01*
X145550000Y-123620000D01*
X145531425Y-123796725D01*
X145476514Y-123965726D01*
X145387664Y-124119617D01*
X145268761Y-124251673D01*
X145125000Y-124356122D01*
X144962664Y-124428398D01*
X144788849Y-124465344D01*
X144611151Y-124465344D01*
X144437336Y-124428398D01*
X144275000Y-124356122D01*
X144131239Y-124251673D01*
X144012336Y-124119617D01*
X143923486Y-123965726D01*
X143868575Y-123796725D01*
X143850000Y-123620000D01*
X143868575Y-123443275D01*
X143923486Y-123274274D01*
X144012336Y-123120383D01*
X144131239Y-122988327D01*
X144275000Y-122883878D01*
X144437336Y-122811602D01*
X144611151Y-122774656D01*
X144788849Y-122774656D01*
X144962664Y-122811602D01*
G37*
G36*
X134550000Y-124090000D02*
G01*
X132850000Y-124090000D01*
X132850000Y-122390000D01*
X134550000Y-122390000D01*
X134550000Y-124090000D01*
G37*
G36*
X102462664Y-120571602D02*
G01*
X102625000Y-120643878D01*
X102768761Y-120748327D01*
X102887664Y-120880383D01*
X102976514Y-121034274D01*
X103031425Y-121203275D01*
X103050000Y-121380000D01*
X103031425Y-121556725D01*
X102976514Y-121725726D01*
X102887664Y-121879617D01*
X102768761Y-122011673D01*
X102625000Y-122116122D01*
X102462664Y-122188398D01*
X102288849Y-122225344D01*
X102111151Y-122225344D01*
X101937336Y-122188398D01*
X101775000Y-122116122D01*
X101631239Y-122011673D01*
X101512336Y-121879617D01*
X101423486Y-121725726D01*
X101368575Y-121556725D01*
X101350000Y-121380000D01*
X101368575Y-121203275D01*
X101423486Y-121034274D01*
X101512336Y-120880383D01*
X101631239Y-120748327D01*
X101775000Y-120643878D01*
X101937336Y-120571602D01*
X102111151Y-120534656D01*
X102288849Y-120534656D01*
X102462664Y-120571602D01*
G37*
G36*
X144962664Y-120271602D02*
G01*
X145125000Y-120343878D01*
X145268761Y-120448327D01*
X145387664Y-120580383D01*
X145476514Y-120734274D01*
X145531425Y-120903275D01*
X145550000Y-121080000D01*
X145531425Y-121256725D01*
X145476514Y-121425726D01*
X145387664Y-121579617D01*
X145268761Y-121711673D01*
X145125000Y-121816122D01*
X144962664Y-121888398D01*
X144788849Y-121925344D01*
X144611151Y-121925344D01*
X144437336Y-121888398D01*
X144275000Y-121816122D01*
X144131239Y-121711673D01*
X144012336Y-121579617D01*
X143923486Y-121425726D01*
X143868575Y-121256725D01*
X143850000Y-121080000D01*
X143868575Y-120903275D01*
X143923486Y-120734274D01*
X144012336Y-120580383D01*
X144131239Y-120448327D01*
X144275000Y-120343878D01*
X144437336Y-120271602D01*
X144611151Y-120234656D01*
X144788849Y-120234656D01*
X144962664Y-120271602D01*
G37*
G36*
X133962664Y-119891602D02*
G01*
X134125000Y-119963878D01*
X134268761Y-120068327D01*
X134387664Y-120200383D01*
X134476514Y-120354274D01*
X134531425Y-120523275D01*
X134550000Y-120700000D01*
X134531425Y-120876725D01*
X134476514Y-121045726D01*
X134387664Y-121199617D01*
X134268761Y-121331673D01*
X134125000Y-121436122D01*
X133962664Y-121508398D01*
X133788849Y-121545344D01*
X133611151Y-121545344D01*
X133437336Y-121508398D01*
X133275000Y-121436122D01*
X133131239Y-121331673D01*
X133012336Y-121199617D01*
X132923486Y-121045726D01*
X132868575Y-120876725D01*
X132850000Y-120700000D01*
X132868575Y-120523275D01*
X132923486Y-120354274D01*
X133012336Y-120200383D01*
X133131239Y-120068327D01*
X133275000Y-119963878D01*
X133437336Y-119891602D01*
X133611151Y-119854656D01*
X133788849Y-119854656D01*
X133962664Y-119891602D01*
G37*
G36*
X102462664Y-118031602D02*
G01*
X102625000Y-118103878D01*
X102768761Y-118208327D01*
X102887664Y-118340383D01*
X102976514Y-118494274D01*
X103031425Y-118663275D01*
X103050000Y-118840000D01*
X103031425Y-119016725D01*
X102976514Y-119185726D01*
X102887664Y-119339617D01*
X102768761Y-119471673D01*
X102625000Y-119576122D01*
X102462664Y-119648398D01*
X102288849Y-119685344D01*
X102111151Y-119685344D01*
X101937336Y-119648398D01*
X101775000Y-119576122D01*
X101631239Y-119471673D01*
X101512336Y-119339617D01*
X101423486Y-119185726D01*
X101368575Y-119016725D01*
X101350000Y-118840000D01*
X101368575Y-118663275D01*
X101423486Y-118494274D01*
X101512336Y-118340383D01*
X101631239Y-118208327D01*
X101775000Y-118103878D01*
X101937336Y-118031602D01*
X102111151Y-117994656D01*
X102288849Y-117994656D01*
X102462664Y-118031602D01*
G37*
G36*
X144962664Y-117731602D02*
G01*
X145125000Y-117803878D01*
X145268761Y-117908327D01*
X145387664Y-118040383D01*
X145476514Y-118194274D01*
X145531425Y-118363275D01*
X145550000Y-118540000D01*
X145531425Y-118716725D01*
X145476514Y-118885726D01*
X145387664Y-119039617D01*
X145268761Y-119171673D01*
X145125000Y-119276122D01*
X144962664Y-119348398D01*
X144788849Y-119385344D01*
X144611151Y-119385344D01*
X144437336Y-119348398D01*
X144275000Y-119276122D01*
X144131239Y-119171673D01*
X144012336Y-119039617D01*
X143923486Y-118885726D01*
X143868575Y-118716725D01*
X143850000Y-118540000D01*
X143868575Y-118363275D01*
X143923486Y-118194274D01*
X144012336Y-118040383D01*
X144131239Y-117908327D01*
X144275000Y-117803878D01*
X144437336Y-117731602D01*
X144611151Y-117694656D01*
X144788849Y-117694656D01*
X144962664Y-117731602D01*
G37*
G36*
X133962664Y-117351602D02*
G01*
X134125000Y-117423878D01*
X134268761Y-117528327D01*
X134387664Y-117660383D01*
X134476514Y-117814274D01*
X134531425Y-117983275D01*
X134550000Y-118160000D01*
X134531425Y-118336725D01*
X134476514Y-118505726D01*
X134387664Y-118659617D01*
X134268761Y-118791673D01*
X134125000Y-118896122D01*
X133962664Y-118968398D01*
X133788849Y-119005344D01*
X133611151Y-119005344D01*
X133437336Y-118968398D01*
X133275000Y-118896122D01*
X133131239Y-118791673D01*
X133012336Y-118659617D01*
X132923486Y-118505726D01*
X132868575Y-118336725D01*
X132850000Y-118160000D01*
X132868575Y-117983275D01*
X132923486Y-117814274D01*
X133012336Y-117660383D01*
X133131239Y-117528327D01*
X133275000Y-117423878D01*
X133437336Y-117351602D01*
X133611151Y-117314656D01*
X133788849Y-117314656D01*
X133962664Y-117351602D01*
G37*
G36*
X102462664Y-115491602D02*
G01*
X102625000Y-115563878D01*
X102768761Y-115668327D01*
X102887664Y-115800383D01*
X102976514Y-115954274D01*
X103031425Y-116123275D01*
X103050000Y-116300000D01*
X103031425Y-116476725D01*
X102976514Y-116645726D01*
X102887664Y-116799617D01*
X102768761Y-116931673D01*
X102625000Y-117036122D01*
X102462664Y-117108398D01*
X102288849Y-117145344D01*
X102111151Y-117145344D01*
X101937336Y-117108398D01*
X101775000Y-117036122D01*
X101631239Y-116931673D01*
X101512336Y-116799617D01*
X101423486Y-116645726D01*
X101368575Y-116476725D01*
X101350000Y-116300000D01*
X101368575Y-116123275D01*
X101423486Y-115954274D01*
X101512336Y-115800383D01*
X101631239Y-115668327D01*
X101775000Y-115563878D01*
X101937336Y-115491602D01*
X102111151Y-115454656D01*
X102288849Y-115454656D01*
X102462664Y-115491602D01*
G37*
G36*
X144962664Y-115191602D02*
G01*
X145125000Y-115263878D01*
X145268761Y-115368327D01*
X145387664Y-115500383D01*
X145476514Y-115654274D01*
X145531425Y-115823275D01*
X145550000Y-116000000D01*
X145531425Y-116176725D01*
X145476514Y-116345726D01*
X145387664Y-116499617D01*
X145268761Y-116631673D01*
X145125000Y-116736122D01*
X144962664Y-116808398D01*
X144788849Y-116845344D01*
X144611151Y-116845344D01*
X144437336Y-116808398D01*
X144275000Y-116736122D01*
X144131239Y-116631673D01*
X144012336Y-116499617D01*
X143923486Y-116345726D01*
X143868575Y-116176725D01*
X143850000Y-116000000D01*
X143868575Y-115823275D01*
X143923486Y-115654274D01*
X144012336Y-115500383D01*
X144131239Y-115368327D01*
X144275000Y-115263878D01*
X144437336Y-115191602D01*
X144611151Y-115154656D01*
X144788849Y-115154656D01*
X144962664Y-115191602D01*
G37*
G36*
X102462664Y-112951602D02*
G01*
X102625000Y-113023878D01*
X102768761Y-113128327D01*
X102887664Y-113260383D01*
X102976514Y-113414274D01*
X103031425Y-113583275D01*
X103050000Y-113760000D01*
X103031425Y-113936725D01*
X102976514Y-114105726D01*
X102887664Y-114259617D01*
X102768761Y-114391673D01*
X102625000Y-114496122D01*
X102462664Y-114568398D01*
X102288849Y-114605344D01*
X102111151Y-114605344D01*
X101937336Y-114568398D01*
X101775000Y-114496122D01*
X101631239Y-114391673D01*
X101512336Y-114259617D01*
X101423486Y-114105726D01*
X101368575Y-113936725D01*
X101350000Y-113760000D01*
X101368575Y-113583275D01*
X101423486Y-113414274D01*
X101512336Y-113260383D01*
X101631239Y-113128327D01*
X101775000Y-113023878D01*
X101937336Y-112951602D01*
X102111151Y-112914656D01*
X102288849Y-112914656D01*
X102462664Y-112951602D01*
G37*
G36*
X144962664Y-112651602D02*
G01*
X145125000Y-112723878D01*
X145268761Y-112828327D01*
X145387664Y-112960383D01*
X145476514Y-113114274D01*
X145531425Y-113283275D01*
X145550000Y-113460000D01*
X145531425Y-113636725D01*
X145476514Y-113805726D01*
X145387664Y-113959617D01*
X145268761Y-114091673D01*
X145125000Y-114196122D01*
X144962664Y-114268398D01*
X144788849Y-114305344D01*
X144611151Y-114305344D01*
X144437336Y-114268398D01*
X144275000Y-114196122D01*
X144131239Y-114091673D01*
X144012336Y-113959617D01*
X143923486Y-113805726D01*
X143868575Y-113636725D01*
X143850000Y-113460000D01*
X143868575Y-113283275D01*
X143923486Y-113114274D01*
X144012336Y-112960383D01*
X144131239Y-112828327D01*
X144275000Y-112723878D01*
X144437336Y-112651602D01*
X144611151Y-112614656D01*
X144788849Y-112614656D01*
X144962664Y-112651602D01*
G37*
G36*
X102462664Y-110411602D02*
G01*
X102625000Y-110483878D01*
X102768761Y-110588327D01*
X102887664Y-110720383D01*
X102976514Y-110874274D01*
X103031425Y-111043275D01*
X103050000Y-111220000D01*
X103031425Y-111396725D01*
X102976514Y-111565726D01*
X102887664Y-111719617D01*
X102768761Y-111851673D01*
X102625000Y-111956122D01*
X102462664Y-112028398D01*
X102288849Y-112065344D01*
X102111151Y-112065344D01*
X101937336Y-112028398D01*
X101775000Y-111956122D01*
X101631239Y-111851673D01*
X101512336Y-111719617D01*
X101423486Y-111565726D01*
X101368575Y-111396725D01*
X101350000Y-111220000D01*
X101368575Y-111043275D01*
X101423486Y-110874274D01*
X101512336Y-110720383D01*
X101631239Y-110588327D01*
X101775000Y-110483878D01*
X101937336Y-110411602D01*
X102111151Y-110374656D01*
X102288849Y-110374656D01*
X102462664Y-110411602D01*
G37*
G36*
X144962664Y-110111602D02*
G01*
X145125000Y-110183878D01*
X145268761Y-110288327D01*
X145387664Y-110420383D01*
X145476514Y-110574274D01*
X145531425Y-110743275D01*
X145550000Y-110920000D01*
X145531425Y-111096725D01*
X145476514Y-111265726D01*
X145387664Y-111419617D01*
X145268761Y-111551673D01*
X145125000Y-111656122D01*
X144962664Y-111728398D01*
X144788849Y-111765344D01*
X144611151Y-111765344D01*
X144437336Y-111728398D01*
X144275000Y-111656122D01*
X144131239Y-111551673D01*
X144012336Y-111419617D01*
X143923486Y-111265726D01*
X143868575Y-111096725D01*
X143850000Y-110920000D01*
X143868575Y-110743275D01*
X143923486Y-110574274D01*
X144012336Y-110420383D01*
X144131239Y-110288327D01*
X144275000Y-110183878D01*
X144437336Y-110111602D01*
X144611151Y-110074656D01*
X144788849Y-110074656D01*
X144962664Y-110111602D01*
G37*
G36*
X102462664Y-107871602D02*
G01*
X102625000Y-107943878D01*
X102768761Y-108048327D01*
X102887664Y-108180383D01*
X102976514Y-108334274D01*
X103031425Y-108503275D01*
X103050000Y-108680000D01*
X103031425Y-108856725D01*
X102976514Y-109025726D01*
X102887664Y-109179617D01*
X102768761Y-109311673D01*
X102625000Y-109416122D01*
X102462664Y-109488398D01*
X102288849Y-109525344D01*
X102111151Y-109525344D01*
X101937336Y-109488398D01*
X101775000Y-109416122D01*
X101631239Y-109311673D01*
X101512336Y-109179617D01*
X101423486Y-109025726D01*
X101368575Y-108856725D01*
X101350000Y-108680000D01*
X101368575Y-108503275D01*
X101423486Y-108334274D01*
X101512336Y-108180383D01*
X101631239Y-108048327D01*
X101775000Y-107943878D01*
X101937336Y-107871602D01*
X102111151Y-107834656D01*
X102288849Y-107834656D01*
X102462664Y-107871602D01*
G37*
G36*
X144962664Y-107571602D02*
G01*
X145125000Y-107643878D01*
X145268761Y-107748327D01*
X145387664Y-107880383D01*
X145476514Y-108034274D01*
X145531425Y-108203275D01*
X145550000Y-108380000D01*
X145531425Y-108556725D01*
X145476514Y-108725726D01*
X145387664Y-108879617D01*
X145268761Y-109011673D01*
X145125000Y-109116122D01*
X144962664Y-109188398D01*
X144788849Y-109225344D01*
X144611151Y-109225344D01*
X144437336Y-109188398D01*
X144275000Y-109116122D01*
X144131239Y-109011673D01*
X144012336Y-108879617D01*
X143923486Y-108725726D01*
X143868575Y-108556725D01*
X143850000Y-108380000D01*
X143868575Y-108203275D01*
X143923486Y-108034274D01*
X144012336Y-107880383D01*
X144131239Y-107748327D01*
X144275000Y-107643878D01*
X144437336Y-107571602D01*
X144611151Y-107534656D01*
X144788849Y-107534656D01*
X144962664Y-107571602D01*
G37*
G36*
X102462664Y-105331602D02*
G01*
X102625000Y-105403878D01*
X102768761Y-105508327D01*
X102887664Y-105640383D01*
X102976514Y-105794274D01*
X103031425Y-105963275D01*
X103050000Y-106140000D01*
X103031425Y-106316725D01*
X102976514Y-106485726D01*
X102887664Y-106639617D01*
X102768761Y-106771673D01*
X102625000Y-106876122D01*
X102462664Y-106948398D01*
X102288849Y-106985344D01*
X102111151Y-106985344D01*
X101937336Y-106948398D01*
X101775000Y-106876122D01*
X101631239Y-106771673D01*
X101512336Y-106639617D01*
X101423486Y-106485726D01*
X101368575Y-106316725D01*
X101350000Y-106140000D01*
X101368575Y-105963275D01*
X101423486Y-105794274D01*
X101512336Y-105640383D01*
X101631239Y-105508327D01*
X101775000Y-105403878D01*
X101937336Y-105331602D01*
X102111151Y-105294656D01*
X102288849Y-105294656D01*
X102462664Y-105331602D01*
G37*
G36*
X144962664Y-105031602D02*
G01*
X145125000Y-105103878D01*
X145268761Y-105208327D01*
X145387664Y-105340383D01*
X145476514Y-105494274D01*
X145531425Y-105663275D01*
X145550000Y-105840000D01*
X145531425Y-106016725D01*
X145476514Y-106185726D01*
X145387664Y-106339617D01*
X145268761Y-106471673D01*
X145125000Y-106576122D01*
X144962664Y-106648398D01*
X144788849Y-106685344D01*
X144611151Y-106685344D01*
X144437336Y-106648398D01*
X144275000Y-106576122D01*
X144131239Y-106471673D01*
X144012336Y-106339617D01*
X143923486Y-106185726D01*
X143868575Y-106016725D01*
X143850000Y-105840000D01*
X143868575Y-105663275D01*
X143923486Y-105494274D01*
X144012336Y-105340383D01*
X144131239Y-105208327D01*
X144275000Y-105103878D01*
X144437336Y-105031602D01*
X144611151Y-104994656D01*
X144788849Y-104994656D01*
X144962664Y-105031602D01*
G37*
G36*
X102462664Y-102791602D02*
G01*
X102625000Y-102863878D01*
X102768761Y-102968327D01*
X102887664Y-103100383D01*
X102976514Y-103254274D01*
X103031425Y-103423275D01*
X103050000Y-103600000D01*
X103031425Y-103776725D01*
X102976514Y-103945726D01*
X102887664Y-104099617D01*
X102768761Y-104231673D01*
X102625000Y-104336122D01*
X102462664Y-104408398D01*
X102288849Y-104445344D01*
X102111151Y-104445344D01*
X101937336Y-104408398D01*
X101775000Y-104336122D01*
X101631239Y-104231673D01*
X101512336Y-104099617D01*
X101423486Y-103945726D01*
X101368575Y-103776725D01*
X101350000Y-103600000D01*
X101368575Y-103423275D01*
X101423486Y-103254274D01*
X101512336Y-103100383D01*
X101631239Y-102968327D01*
X101775000Y-102863878D01*
X101937336Y-102791602D01*
X102111151Y-102754656D01*
X102288849Y-102754656D01*
X102462664Y-102791602D01*
G37*
G36*
X144962664Y-102491602D02*
G01*
X145125000Y-102563878D01*
X145268761Y-102668327D01*
X145387664Y-102800383D01*
X145476514Y-102954274D01*
X145531425Y-103123275D01*
X145550000Y-103300000D01*
X145531425Y-103476725D01*
X145476514Y-103645726D01*
X145387664Y-103799617D01*
X145268761Y-103931673D01*
X145125000Y-104036122D01*
X144962664Y-104108398D01*
X144788849Y-104145344D01*
X144611151Y-104145344D01*
X144437336Y-104108398D01*
X144275000Y-104036122D01*
X144131239Y-103931673D01*
X144012336Y-103799617D01*
X143923486Y-103645726D01*
X143868575Y-103476725D01*
X143850000Y-103300000D01*
X143868575Y-103123275D01*
X143923486Y-102954274D01*
X144012336Y-102800383D01*
X144131239Y-102668327D01*
X144275000Y-102563878D01*
X144437336Y-102491602D01*
X144611151Y-102454656D01*
X144788849Y-102454656D01*
X144962664Y-102491602D01*
G37*
G36*
X102462664Y-100251602D02*
G01*
X102625000Y-100323878D01*
X102768761Y-100428327D01*
X102887664Y-100560383D01*
X102976514Y-100714274D01*
X103031425Y-100883275D01*
X103050000Y-101060000D01*
X103031425Y-101236725D01*
X102976514Y-101405726D01*
X102887664Y-101559617D01*
X102768761Y-101691673D01*
X102625000Y-101796122D01*
X102462664Y-101868398D01*
X102288849Y-101905344D01*
X102111151Y-101905344D01*
X101937336Y-101868398D01*
X101775000Y-101796122D01*
X101631239Y-101691673D01*
X101512336Y-101559617D01*
X101423486Y-101405726D01*
X101368575Y-101236725D01*
X101350000Y-101060000D01*
X101368575Y-100883275D01*
X101423486Y-100714274D01*
X101512336Y-100560383D01*
X101631239Y-100428327D01*
X101775000Y-100323878D01*
X101937336Y-100251602D01*
X102111151Y-100214656D01*
X102288849Y-100214656D01*
X102462664Y-100251602D01*
G37*
G36*
X144962664Y-99951602D02*
G01*
X145125000Y-100023878D01*
X145268761Y-100128327D01*
X145387664Y-100260383D01*
X145476514Y-100414274D01*
X145531425Y-100583275D01*
X145550000Y-100760000D01*
X145531425Y-100936725D01*
X145476514Y-101105726D01*
X145387664Y-101259617D01*
X145268761Y-101391673D01*
X145125000Y-101496122D01*
X144962664Y-101568398D01*
X144788849Y-101605344D01*
X144611151Y-101605344D01*
X144437336Y-101568398D01*
X144275000Y-101496122D01*
X144131239Y-101391673D01*
X144012336Y-101259617D01*
X143923486Y-101105726D01*
X143868575Y-100936725D01*
X143850000Y-100760000D01*
X143868575Y-100583275D01*
X143923486Y-100414274D01*
X144012336Y-100260383D01*
X144131239Y-100128327D01*
X144275000Y-100023878D01*
X144437336Y-99951602D01*
X144611151Y-99914656D01*
X144788849Y-99914656D01*
X144962664Y-99951602D01*
G37*
G36*
X103050000Y-99370000D02*
G01*
X101350000Y-99370000D01*
X101350000Y-97670000D01*
X103050000Y-97670000D01*
X103050000Y-99370000D01*
G37*
G36*
X145550000Y-99070000D02*
G01*
X143850000Y-99070000D01*
X143850000Y-97370000D01*
X145550000Y-97370000D01*
X145550000Y-99070000D01*
G37*
G36*
X144000000Y-95080000D02*
G01*
X141000000Y-95080000D01*
X141000000Y-92080000D01*
X144000000Y-92080000D01*
X144000000Y-95080000D01*
G37*
G36*
X102545090Y-89869215D02*
G01*
X102732683Y-89926120D01*
X102905570Y-90018530D01*
X103057107Y-90142893D01*
X103181470Y-90294430D01*
X103273880Y-90467317D01*
X103330785Y-90654910D01*
X103350000Y-90850000D01*
X103330785Y-91045090D01*
X103273880Y-91232683D01*
X103181470Y-91405570D01*
X103057107Y-91557107D01*
X102905570Y-91681470D01*
X102732683Y-91773880D01*
X102545090Y-91830785D01*
X102350000Y-91850000D01*
X102154910Y-91830785D01*
X101967317Y-91773880D01*
X101794430Y-91681470D01*
X101642893Y-91557107D01*
X101518530Y-91405570D01*
X101426120Y-91232683D01*
X101369215Y-91045090D01*
X101350000Y-90850000D01*
X101369215Y-90654910D01*
X101426120Y-90467317D01*
X101518530Y-90294430D01*
X101642893Y-90142893D01*
X101794430Y-90018530D01*
X101967317Y-89926120D01*
X102154910Y-89869215D01*
X102350000Y-89850000D01*
X102545090Y-89869215D01*
G37*
G36*
X107045090Y-89869215D02*
G01*
X107232683Y-89926120D01*
X107405570Y-90018530D01*
X107557107Y-90142893D01*
X107681470Y-90294430D01*
X107773880Y-90467317D01*
X107830785Y-90654910D01*
X107850000Y-90850000D01*
X107830785Y-91045090D01*
X107773880Y-91232683D01*
X107681470Y-91405570D01*
X107557107Y-91557107D01*
X107405570Y-91681470D01*
X107232683Y-91773880D01*
X107045090Y-91830785D01*
X106850000Y-91850000D01*
X106654910Y-91830785D01*
X106467317Y-91773880D01*
X106294430Y-91681470D01*
X106142893Y-91557107D01*
X106018530Y-91405570D01*
X105926120Y-91232683D01*
X105869215Y-91045090D01*
X105850000Y-90850000D01*
X105869215Y-90654910D01*
X105926120Y-90467317D01*
X106018530Y-90294430D01*
X106142893Y-90142893D01*
X106294430Y-90018530D01*
X106467317Y-89926120D01*
X106654910Y-89869215D01*
X106850000Y-89850000D01*
X107045090Y-89869215D01*
G37*
G36*
X142562744Y-87005123D02*
G01*
X142623869Y-87005123D01*
X142678427Y-87014227D01*
X142734623Y-87018650D01*
X142802304Y-87034899D01*
X142868228Y-87045900D01*
X142914986Y-87061952D01*
X142963465Y-87073591D01*
X143034026Y-87102818D01*
X143102543Y-87126340D01*
X143140813Y-87147050D01*
X143180902Y-87163656D01*
X143251959Y-87207200D01*
X143320422Y-87244250D01*
X143350046Y-87267307D01*
X143381568Y-87286624D01*
X143450449Y-87345454D01*
X143515922Y-87396414D01*
X143537281Y-87419616D01*
X143560528Y-87439471D01*
X143624365Y-87514214D01*
X143683711Y-87578681D01*
X143697659Y-87600030D01*
X143713375Y-87618431D01*
X143769221Y-87709564D01*
X143819211Y-87786079D01*
X143827022Y-87803886D01*
X143836343Y-87819097D01*
X143881261Y-87927540D01*
X143918726Y-88012951D01*
X143922008Y-88025911D01*
X143926408Y-88036534D01*
X143957623Y-88166553D01*
X143979542Y-88253108D01*
X143980141Y-88260348D01*
X143981349Y-88265376D01*
X143996296Y-88455307D01*
X144000000Y-88500000D01*
X143996296Y-88544696D01*
X143981349Y-88734623D01*
X143980142Y-88739650D01*
X143979542Y-88746892D01*
X143957618Y-88833464D01*
X143926408Y-88963465D01*
X143922008Y-88974085D01*
X143918726Y-88987049D01*
X143881254Y-89072476D01*
X143836343Y-89180902D01*
X143827023Y-89196109D01*
X143819211Y-89213921D01*
X143769211Y-89290450D01*
X143713375Y-89381568D01*
X143697661Y-89399965D01*
X143683711Y-89421319D01*
X143624353Y-89485798D01*
X143560528Y-89560528D01*
X143537285Y-89580378D01*
X143515922Y-89603586D01*
X143450436Y-89654555D01*
X143381568Y-89713375D01*
X143350052Y-89732687D01*
X143320422Y-89755750D01*
X143251945Y-89792807D01*
X143180902Y-89836343D01*
X143140820Y-89852945D01*
X143102543Y-89873660D01*
X143034011Y-89897186D01*
X142963465Y-89926408D01*
X142914996Y-89938044D01*
X142868228Y-89954100D01*
X142802290Y-89965103D01*
X142734623Y-89981349D01*
X142678439Y-89985770D01*
X142623869Y-89994877D01*
X142562731Y-89994877D01*
X142500000Y-89999814D01*
X142437268Y-89994877D01*
X142376131Y-89994877D01*
X142321561Y-89985770D01*
X142265376Y-89981349D01*
X142197706Y-89965102D01*
X142131772Y-89954100D01*
X142085005Y-89938045D01*
X142036534Y-89926408D01*
X141965982Y-89897184D01*
X141897457Y-89873660D01*
X141859182Y-89852946D01*
X141819097Y-89836343D01*
X141748045Y-89792802D01*
X141679578Y-89755750D01*
X141649951Y-89732690D01*
X141618431Y-89713375D01*
X141549552Y-89654546D01*
X141484078Y-89603586D01*
X141462717Y-89580382D01*
X141439471Y-89560528D01*
X141375632Y-89485783D01*
X141316289Y-89421319D01*
X141302341Y-89399970D01*
X141286624Y-89381568D01*
X141230771Y-89290425D01*
X141180789Y-89213921D01*
X141172978Y-89196115D01*
X141163656Y-89180902D01*
X141118727Y-89072435D01*
X141081274Y-88987049D01*
X141077992Y-88974092D01*
X141073591Y-88963465D01*
X141042361Y-88833388D01*
X141020458Y-88746892D01*
X141019858Y-88739656D01*
X141018650Y-88734623D01*
X141003683Y-88544456D01*
X141000000Y-88500000D01*
X141003683Y-88455547D01*
X141018650Y-88265376D01*
X141019858Y-88260342D01*
X141020458Y-88253108D01*
X141042357Y-88166629D01*
X141073591Y-88036534D01*
X141077993Y-88025905D01*
X141081274Y-88012951D01*
X141118720Y-87927581D01*
X141163656Y-87819097D01*
X141172980Y-87803881D01*
X141180789Y-87786079D01*
X141230762Y-87709589D01*
X141286624Y-87618431D01*
X141302344Y-87600025D01*
X141316289Y-87578681D01*
X141375620Y-87514229D01*
X141439471Y-87439471D01*
X141462722Y-87419612D01*
X141484078Y-87396414D01*
X141549539Y-87345463D01*
X141618431Y-87286624D01*
X141649957Y-87267304D01*
X141679578Y-87244250D01*
X141748031Y-87207204D01*
X141819097Y-87163656D01*
X141859190Y-87147048D01*
X141897457Y-87126340D01*
X141965968Y-87102820D01*
X142036534Y-87073591D01*
X142085015Y-87061951D01*
X142131772Y-87045900D01*
X142197692Y-87034899D01*
X142265376Y-87018650D01*
X142321573Y-87014227D01*
X142376131Y-87005123D01*
X142437256Y-87005123D01*
X142500000Y-87000185D01*
X142562744Y-87005123D01*
G37*
G36*
X102545090Y-83369215D02*
G01*
X102732683Y-83426120D01*
X102905570Y-83518530D01*
X103057107Y-83642893D01*
X103181470Y-83794430D01*
X103273880Y-83967317D01*
X103330785Y-84154910D01*
X103350000Y-84350000D01*
X103330785Y-84545090D01*
X103273880Y-84732683D01*
X103181470Y-84905570D01*
X103057107Y-85057107D01*
X102905570Y-85181470D01*
X102732683Y-85273880D01*
X102545090Y-85330785D01*
X102350000Y-85350000D01*
X102154910Y-85330785D01*
X101967317Y-85273880D01*
X101794430Y-85181470D01*
X101642893Y-85057107D01*
X101518530Y-84905570D01*
X101426120Y-84732683D01*
X101369215Y-84545090D01*
X101350000Y-84350000D01*
X101369215Y-84154910D01*
X101426120Y-83967317D01*
X101518530Y-83794430D01*
X101642893Y-83642893D01*
X101794430Y-83518530D01*
X101967317Y-83426120D01*
X102154910Y-83369215D01*
X102350000Y-83350000D01*
X102545090Y-83369215D01*
G37*
G36*
X107045090Y-83369215D02*
G01*
X107232683Y-83426120D01*
X107405570Y-83518530D01*
X107557107Y-83642893D01*
X107681470Y-83794430D01*
X107773880Y-83967317D01*
X107830785Y-84154910D01*
X107850000Y-84350000D01*
X107830785Y-84545090D01*
X107773880Y-84732683D01*
X107681470Y-84905570D01*
X107557107Y-85057107D01*
X107405570Y-85181470D01*
X107232683Y-85273880D01*
X107045090Y-85330785D01*
X106850000Y-85350000D01*
X106654910Y-85330785D01*
X106467317Y-85273880D01*
X106294430Y-85181470D01*
X106142893Y-85057107D01*
X106018530Y-84905570D01*
X105926120Y-84732683D01*
X105869215Y-84545090D01*
X105850000Y-84350000D01*
X105869215Y-84154910D01*
X105926120Y-83967317D01*
X106018530Y-83794430D01*
X106142893Y-83642893D01*
X106294430Y-83518530D01*
X106467317Y-83426120D01*
X106654910Y-83369215D01*
X106850000Y-83350000D01*
X107045090Y-83369215D01*
G37*
G36*
X142562744Y-81925123D02*
G01*
X142623869Y-81925123D01*
X142678427Y-81934227D01*
X142734623Y-81938650D01*
X142802304Y-81954899D01*
X142868228Y-81965900D01*
X142914986Y-81981952D01*
X142963465Y-81993591D01*
X143034026Y-82022818D01*
X143102543Y-82046340D01*
X143140813Y-82067050D01*
X143180902Y-82083656D01*
X143251959Y-82127200D01*
X143320422Y-82164250D01*
X143350046Y-82187307D01*
X143381568Y-82206624D01*
X143450449Y-82265454D01*
X143515922Y-82316414D01*
X143537281Y-82339616D01*
X143560528Y-82359471D01*
X143624365Y-82434214D01*
X143683711Y-82498681D01*
X143697659Y-82520030D01*
X143713375Y-82538431D01*
X143769221Y-82629564D01*
X143819211Y-82706079D01*
X143827022Y-82723886D01*
X143836343Y-82739097D01*
X143881261Y-82847540D01*
X143918726Y-82932951D01*
X143922008Y-82945911D01*
X143926408Y-82956534D01*
X143957623Y-83086553D01*
X143979542Y-83173108D01*
X143980141Y-83180348D01*
X143981349Y-83185376D01*
X143996296Y-83375307D01*
X144000000Y-83420000D01*
X143996296Y-83464696D01*
X143981349Y-83654623D01*
X143980142Y-83659650D01*
X143979542Y-83666892D01*
X143957618Y-83753464D01*
X143926408Y-83883465D01*
X143922008Y-83894085D01*
X143918726Y-83907049D01*
X143881254Y-83992476D01*
X143836343Y-84100902D01*
X143827023Y-84116109D01*
X143819211Y-84133921D01*
X143769211Y-84210450D01*
X143713375Y-84301568D01*
X143697661Y-84319965D01*
X143683711Y-84341319D01*
X143624353Y-84405798D01*
X143560528Y-84480528D01*
X143537285Y-84500378D01*
X143515922Y-84523586D01*
X143450436Y-84574555D01*
X143381568Y-84633375D01*
X143350052Y-84652687D01*
X143320422Y-84675750D01*
X143251945Y-84712807D01*
X143180902Y-84756343D01*
X143140820Y-84772945D01*
X143102543Y-84793660D01*
X143034011Y-84817186D01*
X142963465Y-84846408D01*
X142914996Y-84858044D01*
X142868228Y-84874100D01*
X142802290Y-84885103D01*
X142734623Y-84901349D01*
X142678439Y-84905770D01*
X142623869Y-84914877D01*
X142562731Y-84914877D01*
X142500000Y-84919814D01*
X142437268Y-84914877D01*
X142376131Y-84914877D01*
X142321561Y-84905770D01*
X142265376Y-84901349D01*
X142197706Y-84885102D01*
X142131772Y-84874100D01*
X142085005Y-84858045D01*
X142036534Y-84846408D01*
X141965982Y-84817184D01*
X141897457Y-84793660D01*
X141859182Y-84772946D01*
X141819097Y-84756343D01*
X141748045Y-84712802D01*
X141679578Y-84675750D01*
X141649951Y-84652690D01*
X141618431Y-84633375D01*
X141549552Y-84574546D01*
X141484078Y-84523586D01*
X141462717Y-84500382D01*
X141439471Y-84480528D01*
X141375632Y-84405783D01*
X141316289Y-84341319D01*
X141302341Y-84319970D01*
X141286624Y-84301568D01*
X141230771Y-84210425D01*
X141180789Y-84133921D01*
X141172978Y-84116115D01*
X141163656Y-84100902D01*
X141118727Y-83992435D01*
X141081274Y-83907049D01*
X141077992Y-83894092D01*
X141073591Y-83883465D01*
X141042361Y-83753388D01*
X141020458Y-83666892D01*
X141019858Y-83659656D01*
X141018650Y-83654623D01*
X141003683Y-83464456D01*
X141000000Y-83420000D01*
X141003683Y-83375547D01*
X141018650Y-83185376D01*
X141019858Y-83180342D01*
X141020458Y-83173108D01*
X141042357Y-83086629D01*
X141073591Y-82956534D01*
X141077993Y-82945905D01*
X141081274Y-82932951D01*
X141118720Y-82847581D01*
X141163656Y-82739097D01*
X141172980Y-82723881D01*
X141180789Y-82706079D01*
X141230762Y-82629589D01*
X141286624Y-82538431D01*
X141302344Y-82520025D01*
X141316289Y-82498681D01*
X141375620Y-82434229D01*
X141439471Y-82359471D01*
X141462722Y-82339612D01*
X141484078Y-82316414D01*
X141549539Y-82265463D01*
X141618431Y-82206624D01*
X141649957Y-82187304D01*
X141679578Y-82164250D01*
X141748031Y-82127204D01*
X141819097Y-82083656D01*
X141859190Y-82067048D01*
X141897457Y-82046340D01*
X141965968Y-82022820D01*
X142036534Y-81993591D01*
X142085015Y-81981951D01*
X142131772Y-81965900D01*
X142197692Y-81954899D01*
X142265376Y-81938650D01*
X142321573Y-81934227D01*
X142376131Y-81925123D01*
X142437256Y-81925123D01*
X142500000Y-81920185D01*
X142562744Y-81925123D01*
G37*
G36*
X102645090Y-78169215D02*
G01*
X102832683Y-78226120D01*
X103005570Y-78318530D01*
X103157107Y-78442893D01*
X103281470Y-78594430D01*
X103373880Y-78767317D01*
X103430785Y-78954910D01*
X103450000Y-79150000D01*
X103430785Y-79345090D01*
X103373880Y-79532683D01*
X103281470Y-79705570D01*
X103157107Y-79857107D01*
X103005570Y-79981470D01*
X102832683Y-80073880D01*
X102645090Y-80130785D01*
X102450000Y-80150000D01*
X102254910Y-80130785D01*
X102067317Y-80073880D01*
X101894430Y-79981470D01*
X101742893Y-79857107D01*
X101618530Y-79705570D01*
X101526120Y-79532683D01*
X101469215Y-79345090D01*
X101450000Y-79150000D01*
X101469215Y-78954910D01*
X101526120Y-78767317D01*
X101618530Y-78594430D01*
X101742893Y-78442893D01*
X101894430Y-78318530D01*
X102067317Y-78226120D01*
X102254910Y-78169215D01*
X102450000Y-78150000D01*
X102645090Y-78169215D01*
G37*
G36*
X107145090Y-78169215D02*
G01*
X107332683Y-78226120D01*
X107505570Y-78318530D01*
X107657107Y-78442893D01*
X107781470Y-78594430D01*
X107873880Y-78767317D01*
X107930785Y-78954910D01*
X107950000Y-79150000D01*
X107930785Y-79345090D01*
X107873880Y-79532683D01*
X107781470Y-79705570D01*
X107657107Y-79857107D01*
X107505570Y-79981470D01*
X107332683Y-80073880D01*
X107145090Y-80130785D01*
X106950000Y-80150000D01*
X106754910Y-80130785D01*
X106567317Y-80073880D01*
X106394430Y-79981470D01*
X106242893Y-79857107D01*
X106118530Y-79705570D01*
X106026120Y-79532683D01*
X105969215Y-79345090D01*
X105950000Y-79150000D01*
X105969215Y-78954910D01*
X106026120Y-78767317D01*
X106118530Y-78594430D01*
X106242893Y-78442893D01*
X106394430Y-78318530D01*
X106567317Y-78226120D01*
X106754910Y-78169215D01*
X106950000Y-78150000D01*
X107145090Y-78169215D01*
G37*
G36*
X144000000Y-79040000D02*
G01*
X141000000Y-79040000D01*
X141000000Y-76040000D01*
X144000000Y-76040000D01*
X144000000Y-79040000D01*
G37*
G36*
X142562744Y-70965123D02*
G01*
X142623869Y-70965123D01*
X142678427Y-70974227D01*
X142734623Y-70978650D01*
X142802304Y-70994899D01*
X142868228Y-71005900D01*
X142914986Y-71021952D01*
X142963465Y-71033591D01*
X143034026Y-71062818D01*
X143102543Y-71086340D01*
X143140813Y-71107050D01*
X143180902Y-71123656D01*
X143251959Y-71167200D01*
X143320422Y-71204250D01*
X143350046Y-71227307D01*
X143381568Y-71246624D01*
X143450449Y-71305454D01*
X143515922Y-71356414D01*
X143537281Y-71379616D01*
X143560528Y-71399471D01*
X143624365Y-71474214D01*
X143683711Y-71538681D01*
X143697659Y-71560030D01*
X143713375Y-71578431D01*
X143769221Y-71669564D01*
X143819211Y-71746079D01*
X143827022Y-71763886D01*
X143836343Y-71779097D01*
X143881261Y-71887540D01*
X143918726Y-71972951D01*
X143922008Y-71985911D01*
X143926408Y-71996534D01*
X143957623Y-72126553D01*
X143979542Y-72213108D01*
X143980141Y-72220348D01*
X143981349Y-72225376D01*
X143996296Y-72415307D01*
X144000000Y-72460000D01*
X143996296Y-72504696D01*
X143981349Y-72694623D01*
X143980142Y-72699650D01*
X143979542Y-72706892D01*
X143957618Y-72793464D01*
X143926408Y-72923465D01*
X143922008Y-72934085D01*
X143918726Y-72947049D01*
X143881254Y-73032476D01*
X143836343Y-73140902D01*
X143827023Y-73156109D01*
X143819211Y-73173921D01*
X143769211Y-73250450D01*
X143713375Y-73341568D01*
X143697661Y-73359965D01*
X143683711Y-73381319D01*
X143624353Y-73445798D01*
X143560528Y-73520528D01*
X143537285Y-73540378D01*
X143515922Y-73563586D01*
X143450436Y-73614555D01*
X143381568Y-73673375D01*
X143350052Y-73692687D01*
X143320422Y-73715750D01*
X143251945Y-73752807D01*
X143180902Y-73796343D01*
X143140820Y-73812945D01*
X143102543Y-73833660D01*
X143034011Y-73857186D01*
X142963465Y-73886408D01*
X142914996Y-73898044D01*
X142868228Y-73914100D01*
X142802290Y-73925103D01*
X142734623Y-73941349D01*
X142678439Y-73945770D01*
X142623869Y-73954877D01*
X142562731Y-73954877D01*
X142500000Y-73959814D01*
X142437268Y-73954877D01*
X142376131Y-73954877D01*
X142321561Y-73945770D01*
X142265376Y-73941349D01*
X142197706Y-73925102D01*
X142131772Y-73914100D01*
X142085005Y-73898045D01*
X142036534Y-73886408D01*
X141965982Y-73857184D01*
X141897457Y-73833660D01*
X141859182Y-73812946D01*
X141819097Y-73796343D01*
X141748045Y-73752802D01*
X141679578Y-73715750D01*
X141649951Y-73692690D01*
X141618431Y-73673375D01*
X141549552Y-73614546D01*
X141484078Y-73563586D01*
X141462717Y-73540382D01*
X141439471Y-73520528D01*
X141375632Y-73445783D01*
X141316289Y-73381319D01*
X141302341Y-73359970D01*
X141286624Y-73341568D01*
X141230771Y-73250425D01*
X141180789Y-73173921D01*
X141172978Y-73156115D01*
X141163656Y-73140902D01*
X141118727Y-73032435D01*
X141081274Y-72947049D01*
X141077992Y-72934092D01*
X141073591Y-72923465D01*
X141042361Y-72793388D01*
X141020458Y-72706892D01*
X141019858Y-72699656D01*
X141018650Y-72694623D01*
X141003683Y-72504456D01*
X141000000Y-72460000D01*
X141003683Y-72415547D01*
X141018650Y-72225376D01*
X141019858Y-72220342D01*
X141020458Y-72213108D01*
X141042357Y-72126629D01*
X141073591Y-71996534D01*
X141077993Y-71985905D01*
X141081274Y-71972951D01*
X141118720Y-71887581D01*
X141163656Y-71779097D01*
X141172980Y-71763881D01*
X141180789Y-71746079D01*
X141230762Y-71669589D01*
X141286624Y-71578431D01*
X141302344Y-71560025D01*
X141316289Y-71538681D01*
X141375620Y-71474229D01*
X141439471Y-71399471D01*
X141462722Y-71379612D01*
X141484078Y-71356414D01*
X141549539Y-71305463D01*
X141618431Y-71246624D01*
X141649957Y-71227304D01*
X141679578Y-71204250D01*
X141748031Y-71167204D01*
X141819097Y-71123656D01*
X141859190Y-71107048D01*
X141897457Y-71086340D01*
X141965968Y-71062820D01*
X142036534Y-71033591D01*
X142085015Y-71021951D01*
X142131772Y-71005900D01*
X142197692Y-70994899D01*
X142265376Y-70978650D01*
X142321573Y-70974227D01*
X142376131Y-70965123D01*
X142437256Y-70965123D01*
X142500000Y-70960185D01*
X142562744Y-70965123D01*
G37*
G36*
X102645090Y-71669215D02*
G01*
X102832683Y-71726120D01*
X103005570Y-71818530D01*
X103157107Y-71942893D01*
X103281470Y-72094430D01*
X103373880Y-72267317D01*
X103430785Y-72454910D01*
X103450000Y-72650000D01*
X103430785Y-72845090D01*
X103373880Y-73032683D01*
X103281470Y-73205570D01*
X103157107Y-73357107D01*
X103005570Y-73481470D01*
X102832683Y-73573880D01*
X102645090Y-73630785D01*
X102450000Y-73650000D01*
X102254910Y-73630785D01*
X102067317Y-73573880D01*
X101894430Y-73481470D01*
X101742893Y-73357107D01*
X101618530Y-73205570D01*
X101526120Y-73032683D01*
X101469215Y-72845090D01*
X101450000Y-72650000D01*
X101469215Y-72454910D01*
X101526120Y-72267317D01*
X101618530Y-72094430D01*
X101742893Y-71942893D01*
X101894430Y-71818530D01*
X102067317Y-71726120D01*
X102254910Y-71669215D01*
X102450000Y-71650000D01*
X102645090Y-71669215D01*
G37*
G36*
X107145090Y-71669215D02*
G01*
X107332683Y-71726120D01*
X107505570Y-71818530D01*
X107657107Y-71942893D01*
X107781470Y-72094430D01*
X107873880Y-72267317D01*
X107930785Y-72454910D01*
X107950000Y-72650000D01*
X107930785Y-72845090D01*
X107873880Y-73032683D01*
X107781470Y-73205570D01*
X107657107Y-73357107D01*
X107505570Y-73481470D01*
X107332683Y-73573880D01*
X107145090Y-73630785D01*
X106950000Y-73650000D01*
X106754910Y-73630785D01*
X106567317Y-73573880D01*
X106394430Y-73481470D01*
X106242893Y-73357107D01*
X106118530Y-73205570D01*
X106026120Y-73032683D01*
X105969215Y-72845090D01*
X105950000Y-72650000D01*
X105969215Y-72454910D01*
X106026120Y-72267317D01*
X106118530Y-72094430D01*
X106242893Y-71942893D01*
X106394430Y-71818530D01*
X106567317Y-71726120D01*
X106754910Y-71669215D01*
X106950000Y-71650000D01*
X107145090Y-71669215D01*
G37*
G36*
X121636454Y-67679937D02*
G01*
X121666436Y-67679937D01*
X121689534Y-67688344D01*
X121710196Y-67691617D01*
X121739382Y-67706487D01*
X121772500Y-67718542D01*
X121787123Y-67730812D01*
X121800590Y-67737674D01*
X121828174Y-67765258D01*
X121858964Y-67791094D01*
X121865731Y-67802815D01*
X121872325Y-67809409D01*
X121893253Y-67850485D01*
X121915400Y-67888843D01*
X121916777Y-67896653D01*
X121918382Y-67899803D01*
X121927647Y-67958303D01*
X121935000Y-68000000D01*
X121927647Y-68041700D01*
X121918382Y-68100196D01*
X121916777Y-68103345D01*
X121915400Y-68111157D01*
X121893249Y-68149522D01*
X121872325Y-68190590D01*
X121865732Y-68197182D01*
X121858964Y-68208906D01*
X121828168Y-68234746D01*
X121800590Y-68262325D01*
X121787126Y-68269184D01*
X121772500Y-68281458D01*
X121739375Y-68293514D01*
X121710196Y-68308382D01*
X121689539Y-68311653D01*
X121666436Y-68320063D01*
X121636447Y-68320063D01*
X121610000Y-68324252D01*
X121583552Y-68320063D01*
X121553564Y-68320063D01*
X121530460Y-68311653D01*
X121509803Y-68308382D01*
X121480620Y-68293513D01*
X121447500Y-68281458D01*
X121432874Y-68269186D01*
X121419409Y-68262325D01*
X121391825Y-68234741D01*
X121361036Y-68208906D01*
X121354268Y-68197184D01*
X121347674Y-68190590D01*
X121326741Y-68149507D01*
X121304600Y-68111157D01*
X121303223Y-68103348D01*
X121301617Y-68100196D01*
X121292343Y-68041644D01*
X121285000Y-68000000D01*
X121292342Y-67958359D01*
X121301617Y-67899803D01*
X121303223Y-67896650D01*
X121304600Y-67888843D01*
X121326737Y-67850500D01*
X121347674Y-67809409D01*
X121354269Y-67802813D01*
X121361036Y-67791094D01*
X121391819Y-67765263D01*
X121419409Y-67737674D01*
X121432877Y-67730811D01*
X121447500Y-67718542D01*
X121480613Y-67706489D01*
X121509803Y-67691617D01*
X121530465Y-67688344D01*
X121553564Y-67679937D01*
X121583546Y-67679937D01*
X121610000Y-67675747D01*
X121636454Y-67679937D01*
G37*
G36*
X127416454Y-67679937D02*
G01*
X127446436Y-67679937D01*
X127469534Y-67688344D01*
X127490196Y-67691617D01*
X127519382Y-67706487D01*
X127552500Y-67718542D01*
X127567123Y-67730812D01*
X127580590Y-67737674D01*
X127608174Y-67765258D01*
X127638964Y-67791094D01*
X127645731Y-67802815D01*
X127652325Y-67809409D01*
X127673253Y-67850485D01*
X127695400Y-67888843D01*
X127696777Y-67896653D01*
X127698382Y-67899803D01*
X127707647Y-67958303D01*
X127715000Y-68000000D01*
X127707647Y-68041700D01*
X127698382Y-68100196D01*
X127696777Y-68103345D01*
X127695400Y-68111157D01*
X127673249Y-68149522D01*
X127652325Y-68190590D01*
X127645732Y-68197182D01*
X127638964Y-68208906D01*
X127608168Y-68234746D01*
X127580590Y-68262325D01*
X127567126Y-68269184D01*
X127552500Y-68281458D01*
X127519375Y-68293514D01*
X127490196Y-68308382D01*
X127469539Y-68311653D01*
X127446436Y-68320063D01*
X127416447Y-68320063D01*
X127390000Y-68324252D01*
X127363552Y-68320063D01*
X127333564Y-68320063D01*
X127310460Y-68311653D01*
X127289803Y-68308382D01*
X127260620Y-68293513D01*
X127227500Y-68281458D01*
X127212874Y-68269186D01*
X127199409Y-68262325D01*
X127171825Y-68234741D01*
X127141036Y-68208906D01*
X127134268Y-68197184D01*
X127127674Y-68190590D01*
X127106741Y-68149507D01*
X127084600Y-68111157D01*
X127083223Y-68103348D01*
X127081617Y-68100196D01*
X127072343Y-68041644D01*
X127065000Y-68000000D01*
X127072342Y-67958359D01*
X127081617Y-67899803D01*
X127083223Y-67896650D01*
X127084600Y-67888843D01*
X127106737Y-67850500D01*
X127127674Y-67809409D01*
X127134269Y-67802813D01*
X127141036Y-67791094D01*
X127171819Y-67765263D01*
X127199409Y-67737674D01*
X127212877Y-67730811D01*
X127227500Y-67718542D01*
X127260613Y-67706489D01*
X127289803Y-67691617D01*
X127310465Y-67688344D01*
X127333564Y-67679937D01*
X127363546Y-67679937D01*
X127390000Y-67675747D01*
X127416454Y-67679937D01*
G37*
G36*
X103655046Y-65254816D02*
G01*
X103711463Y-65254816D01*
X103773643Y-65265192D01*
X103834425Y-65270510D01*
X103882160Y-65283300D01*
X103931356Y-65291510D01*
X103997346Y-65314164D01*
X104061727Y-65331415D01*
X104101163Y-65349804D01*
X104142205Y-65363894D01*
X104209643Y-65400389D01*
X104275000Y-65430866D01*
X104305765Y-65452407D01*
X104338267Y-65469997D01*
X104404427Y-65521492D01*
X104467763Y-65565840D01*
X104490086Y-65588163D01*
X104514190Y-65606924D01*
X104576107Y-65674184D01*
X104634160Y-65732237D01*
X104648813Y-65753164D01*
X104665178Y-65770941D01*
X104719776Y-65854510D01*
X104769134Y-65925000D01*
X104777372Y-65942666D01*
X104787109Y-65957570D01*
X104831298Y-66058312D01*
X104868585Y-66138273D01*
X104872057Y-66151234D01*
X104876657Y-66161719D01*
X104907460Y-66283359D01*
X104929490Y-66365575D01*
X104930128Y-66372873D01*
X104931384Y-66377831D01*
X104946103Y-66555467D01*
X104950000Y-66600000D01*
X104946103Y-66644536D01*
X104931384Y-66822168D01*
X104930128Y-66827125D01*
X104929490Y-66834425D01*
X104907455Y-66916657D01*
X104876657Y-67038280D01*
X104872058Y-67048763D01*
X104868585Y-67061727D01*
X104831291Y-67141703D01*
X104787109Y-67242429D01*
X104777373Y-67257330D01*
X104769134Y-67275000D01*
X104719767Y-67345503D01*
X104665178Y-67429058D01*
X104648816Y-67446831D01*
X104634160Y-67467763D01*
X104576096Y-67525826D01*
X104514190Y-67593075D01*
X104490090Y-67611832D01*
X104467763Y-67634160D01*
X104404414Y-67678516D01*
X104338267Y-67730002D01*
X104305771Y-67747587D01*
X104275000Y-67769134D01*
X104209629Y-67799616D01*
X104142205Y-67836105D01*
X104101171Y-67850191D01*
X104061727Y-67868585D01*
X103997333Y-67885839D01*
X103931356Y-67908489D01*
X103882168Y-67916697D01*
X103834425Y-67929490D01*
X103773639Y-67934808D01*
X103711463Y-67945184D01*
X103655046Y-67945184D01*
X103600000Y-67950000D01*
X103544954Y-67945184D01*
X103488537Y-67945184D01*
X103426359Y-67934808D01*
X103365575Y-67929490D01*
X103317832Y-67916697D01*
X103268643Y-67908489D01*
X103202662Y-67885837D01*
X103138273Y-67868585D01*
X103098831Y-67850193D01*
X103057794Y-67836105D01*
X102990362Y-67799613D01*
X102925000Y-67769134D01*
X102894232Y-67747590D01*
X102861732Y-67730002D01*
X102795575Y-67678509D01*
X102732237Y-67634160D01*
X102709912Y-67611835D01*
X102685809Y-67593075D01*
X102623891Y-67525814D01*
X102565840Y-67467763D01*
X102551186Y-67446835D01*
X102534821Y-67429058D01*
X102480217Y-67345482D01*
X102430866Y-67275000D01*
X102422628Y-67257335D01*
X102412890Y-67242429D01*
X102368692Y-67141667D01*
X102331415Y-67061727D01*
X102327942Y-67048769D01*
X102323342Y-67038280D01*
X102292525Y-66916589D01*
X102270510Y-66834425D01*
X102269871Y-66827131D01*
X102268615Y-66822168D01*
X102253877Y-66644320D01*
X102250000Y-66600000D01*
X102253877Y-66555683D01*
X102268615Y-66377831D01*
X102269871Y-66372867D01*
X102270510Y-66365575D01*
X102292521Y-66283427D01*
X102323342Y-66161719D01*
X102327943Y-66151228D01*
X102331415Y-66138273D01*
X102368684Y-66058348D01*
X102412890Y-65957570D01*
X102422630Y-65942661D01*
X102430866Y-65925000D01*
X102480208Y-65854531D01*
X102534821Y-65770941D01*
X102551189Y-65753159D01*
X102565840Y-65732237D01*
X102623879Y-65674197D01*
X102685809Y-65606924D01*
X102709917Y-65588159D01*
X102732237Y-65565840D01*
X102795562Y-65521499D01*
X102861732Y-65469997D01*
X102894238Y-65452405D01*
X102925000Y-65430866D01*
X102990349Y-65400392D01*
X103057794Y-65363894D01*
X103098839Y-65349803D01*
X103138273Y-65331415D01*
X103202648Y-65314165D01*
X103268643Y-65291510D01*
X103317840Y-65283300D01*
X103365575Y-65270510D01*
X103426355Y-65265192D01*
X103488537Y-65254816D01*
X103544954Y-65254816D01*
X103600000Y-65250000D01*
X103655046Y-65254816D01*
G37*
G36*
X143455046Y-65254816D02*
G01*
X143511463Y-65254816D01*
X143573643Y-65265192D01*
X143634425Y-65270510D01*
X143682160Y-65283300D01*
X143731356Y-65291510D01*
X143797346Y-65314164D01*
X143861727Y-65331415D01*
X143901163Y-65349804D01*
X143942205Y-65363894D01*
X144009643Y-65400389D01*
X144075000Y-65430866D01*
X144105765Y-65452407D01*
X144138267Y-65469997D01*
X144204427Y-65521492D01*
X144267763Y-65565840D01*
X144290086Y-65588163D01*
X144314190Y-65606924D01*
X144376107Y-65674184D01*
X144434160Y-65732237D01*
X144448813Y-65753164D01*
X144465178Y-65770941D01*
X144519776Y-65854510D01*
X144569134Y-65925000D01*
X144577372Y-65942666D01*
X144587109Y-65957570D01*
X144631298Y-66058312D01*
X144668585Y-66138273D01*
X144672057Y-66151234D01*
X144676657Y-66161719D01*
X144707460Y-66283359D01*
X144729490Y-66365575D01*
X144730128Y-66372873D01*
X144731384Y-66377831D01*
X144746103Y-66555467D01*
X144750000Y-66600000D01*
X144746103Y-66644536D01*
X144731384Y-66822168D01*
X144730128Y-66827125D01*
X144729490Y-66834425D01*
X144707455Y-66916657D01*
X144676657Y-67038280D01*
X144672058Y-67048763D01*
X144668585Y-67061727D01*
X144631291Y-67141703D01*
X144587109Y-67242429D01*
X144577373Y-67257330D01*
X144569134Y-67275000D01*
X144519767Y-67345503D01*
X144465178Y-67429058D01*
X144448816Y-67446831D01*
X144434160Y-67467763D01*
X144376096Y-67525826D01*
X144314190Y-67593075D01*
X144290090Y-67611832D01*
X144267763Y-67634160D01*
X144204414Y-67678516D01*
X144138267Y-67730002D01*
X144105771Y-67747587D01*
X144075000Y-67769134D01*
X144009629Y-67799616D01*
X143942205Y-67836105D01*
X143901171Y-67850191D01*
X143861727Y-67868585D01*
X143797333Y-67885839D01*
X143731356Y-67908489D01*
X143682168Y-67916697D01*
X143634425Y-67929490D01*
X143573639Y-67934808D01*
X143511463Y-67945184D01*
X143455046Y-67945184D01*
X143400000Y-67950000D01*
X143344954Y-67945184D01*
X143288537Y-67945184D01*
X143226359Y-67934808D01*
X143165575Y-67929490D01*
X143117832Y-67916697D01*
X143068643Y-67908489D01*
X143002662Y-67885837D01*
X142938273Y-67868585D01*
X142898831Y-67850193D01*
X142857794Y-67836105D01*
X142790362Y-67799613D01*
X142725000Y-67769134D01*
X142694232Y-67747590D01*
X142661732Y-67730002D01*
X142595575Y-67678509D01*
X142532237Y-67634160D01*
X142509912Y-67611835D01*
X142485809Y-67593075D01*
X142423891Y-67525814D01*
X142365840Y-67467763D01*
X142351186Y-67446835D01*
X142334821Y-67429058D01*
X142280217Y-67345482D01*
X142230866Y-67275000D01*
X142222628Y-67257335D01*
X142212890Y-67242429D01*
X142168692Y-67141667D01*
X142131415Y-67061727D01*
X142127942Y-67048769D01*
X142123342Y-67038280D01*
X142092525Y-66916589D01*
X142070510Y-66834425D01*
X142069871Y-66827131D01*
X142068615Y-66822168D01*
X142053877Y-66644320D01*
X142050000Y-66600000D01*
X142053877Y-66555683D01*
X142068615Y-66377831D01*
X142069871Y-66372867D01*
X142070510Y-66365575D01*
X142092521Y-66283427D01*
X142123342Y-66161719D01*
X142127943Y-66151228D01*
X142131415Y-66138273D01*
X142168684Y-66058348D01*
X142212890Y-65957570D01*
X142222630Y-65942661D01*
X142230866Y-65925000D01*
X142280208Y-65854531D01*
X142334821Y-65770941D01*
X142351189Y-65753159D01*
X142365840Y-65732237D01*
X142423879Y-65674197D01*
X142485809Y-65606924D01*
X142509917Y-65588159D01*
X142532237Y-65565840D01*
X142595562Y-65521499D01*
X142661732Y-65469997D01*
X142694238Y-65452405D01*
X142725000Y-65430866D01*
X142790349Y-65400392D01*
X142857794Y-65363894D01*
X142898839Y-65349803D01*
X142938273Y-65331415D01*
X143002648Y-65314165D01*
X143068643Y-65291510D01*
X143117840Y-65283300D01*
X143165575Y-65270510D01*
X143226355Y-65265192D01*
X143288537Y-65254816D01*
X143344954Y-65254816D01*
X143400000Y-65250000D01*
X143455046Y-65254816D01*
G37*
M02*
