%TF.GenerationSoftware,KiCad,Pcbnew,8.0.6*%
%TF.CreationDate,2024-11-13T15:41:56-05:00*%
%TF.ProjectId,KiCAD-RFM69,4b694341-442d-4524-964d-36392e6b6963,rev?*%
%TF.SameCoordinates,Original*%
%TF.FileFunction,Drillmap*%
%TF.FilePolarity,Positive*%
%FSLAX45Y45*%
G04 Gerber Fmt 4.5, Leading zero omitted, Abs format (unit mm)*
G04 Created by KiCad (PCBNEW 8.0.6) date 2024-11-13 15:41:56*
%MOMM*%
%LPD*%
G01*
G04 APERTURE LIST*
%ADD10C,0.100000*%
%ADD11C,0.200000*%
%ADD12C,0.110000*%
%ADD13C,0.152000*%
G04 APERTURE END LIST*
D10*
X14360000Y-6300416D02*
G75*
G02*
X14699735Y-6630000I10000J-329584D01*
G01*
X10360000Y-6300000D02*
X14360000Y-6300416D01*
X14700000Y-14659584D02*
G75*
G02*
X14360560Y-14980004I-330000J9584D01*
G01*
X14360560Y-14980004D02*
X10350000Y-14990223D01*
X10000000Y-14652513D02*
X10000000Y-6660000D01*
X10350000Y-14990223D02*
G75*
G02*
X10000000Y-14652513I0J350224D01*
G01*
X14700000Y-6630000D02*
X14700000Y-14659584D01*
X10000000Y-6660000D02*
G75*
G02*
X10360000Y-6300000I350000J10000D01*
G01*
D11*
D10*
X10975000Y-12295000D02*
X11005000Y-12325000D01*
X11005000Y-12295000D02*
X10975000Y-12325000D01*
X11195000Y-8125000D02*
X11225000Y-8155000D01*
X11225000Y-8125000D02*
X11195000Y-8155000D01*
X11275000Y-12295000D02*
X11305000Y-12325000D01*
X11305000Y-12295000D02*
X11275000Y-12325000D01*
X11545000Y-6965000D02*
X11575000Y-6995000D01*
X11575000Y-6965000D02*
X11545000Y-6995000D01*
X11575000Y-12295000D02*
X11605000Y-12325000D01*
X11605000Y-12295000D02*
X11575000Y-12325000D01*
X11875000Y-12295000D02*
X11905000Y-12325000D01*
X11905000Y-12295000D02*
X11875000Y-12325000D01*
X12175000Y-11445000D02*
X12205000Y-11475000D01*
X12205000Y-11445000D02*
X12175000Y-11475000D01*
X12175000Y-12295000D02*
X12205000Y-12325000D01*
X12205000Y-12295000D02*
X12175000Y-12325000D01*
X12365000Y-11215000D02*
X12395000Y-11245000D01*
X12395000Y-11215000D02*
X12365000Y-11245000D01*
X12365000Y-11645000D02*
X12395000Y-11675000D01*
X12395000Y-11645000D02*
X12365000Y-11675000D01*
X12475000Y-12295000D02*
X12505000Y-12325000D01*
X12505000Y-12295000D02*
X12475000Y-12325000D01*
X12475000Y-12745000D02*
X12505000Y-12775000D01*
X12505000Y-12745000D02*
X12475000Y-12775000D01*
X12575000Y-12945000D02*
X12605000Y-12975000D01*
X12605000Y-12945000D02*
X12575000Y-12975000D01*
X12625000Y-13145000D02*
X12655000Y-13175000D01*
X12655000Y-13145000D02*
X12625000Y-13175000D01*
X12725000Y-11505000D02*
X12755000Y-11535000D01*
X12755000Y-11505000D02*
X12725000Y-11535000D01*
X12775000Y-12295000D02*
X12805000Y-12325000D01*
X12805000Y-12295000D02*
X12775000Y-12325000D01*
X12975000Y-10685000D02*
X13005000Y-10715000D01*
X13005000Y-10685000D02*
X12975000Y-10715000D01*
X13165000Y-10925000D02*
X13195000Y-10955000D01*
X13195000Y-10925000D02*
X13165000Y-10955000D01*
X13225000Y-12565000D02*
X13255000Y-12595000D01*
X13255000Y-12565000D02*
X13225000Y-12595000D01*
X13355000Y-14215000D02*
X13385000Y-14245000D01*
X13385000Y-14215000D02*
X13355000Y-14245000D01*
X13695000Y-12545000D02*
X13725000Y-12575000D01*
X13725000Y-12545000D02*
X13695000Y-12575000D01*
X14165000Y-11685000D02*
X14195000Y-11715000D01*
X14195000Y-11685000D02*
X14165000Y-11715000D01*
X14165000Y-11995000D02*
X14195000Y-12025000D01*
X14195000Y-11995000D02*
X14165000Y-12025000D01*
X14175000Y-10445000D02*
X14205000Y-10475000D01*
X14205000Y-10445000D02*
X14175000Y-10475000D01*
X12650000Y-10332500D02*
G75*
G02*
X12615000Y-10332500I-17500J0D01*
G01*
X12615000Y-10332500D02*
G75*
G02*
X12650000Y-10332500I17500J0D01*
G01*
X12650000Y-10460000D02*
G75*
G02*
X12615000Y-10460000I-17500J0D01*
G01*
X12615000Y-10460000D02*
G75*
G02*
X12650000Y-10460000I17500J0D01*
G01*
X12650000Y-10587500D02*
G75*
G02*
X12615000Y-10587500I-17500J0D01*
G01*
X12615000Y-10587500D02*
G75*
G02*
X12650000Y-10587500I17500J0D01*
G01*
X12777500Y-10332500D02*
G75*
G02*
X12742500Y-10332500I-17500J0D01*
G01*
X12742500Y-10332500D02*
G75*
G02*
X12777500Y-10332500I17500J0D01*
G01*
X12777500Y-10460000D02*
G75*
G02*
X12742500Y-10460000I-17500J0D01*
G01*
X12742500Y-10460000D02*
G75*
G02*
X12777500Y-10460000I17500J0D01*
G01*
X12777500Y-10587500D02*
G75*
G02*
X12742500Y-10587500I-17500J0D01*
G01*
X12742500Y-10587500D02*
G75*
G02*
X12777500Y-10587500I17500J0D01*
G01*
X12905000Y-10332500D02*
G75*
G02*
X12870000Y-10332500I-17500J0D01*
G01*
X12870000Y-10332500D02*
G75*
G02*
X12905000Y-10332500I17500J0D01*
G01*
X12905000Y-10460000D02*
G75*
G02*
X12870000Y-10460000I-17500J0D01*
G01*
X12870000Y-10460000D02*
G75*
G02*
X12905000Y-10460000I17500J0D01*
G01*
X12905000Y-10587500D02*
G75*
G02*
X12870000Y-10587500I-17500J0D01*
G01*
X12870000Y-10587500D02*
G75*
G02*
X12905000Y-10587500I17500J0D01*
G01*
X10800000Y-6630000D02*
X10800000Y-6670000D01*
X10780000Y-6650000D02*
X10820000Y-6650000D01*
X11010000Y-9930000D02*
X11010000Y-9970000D01*
X10990000Y-9950000D02*
X11030000Y-9950000D01*
X11160000Y-11630000D02*
X11160000Y-11670000D01*
X11140000Y-11650000D02*
X11180000Y-11650000D01*
X11350000Y-8200000D02*
X11350000Y-8240000D01*
X11330000Y-8220000D02*
X11370000Y-8220000D01*
X11520000Y-10710000D02*
X11520000Y-10750000D01*
X11500000Y-10730000D02*
X11540000Y-10730000D01*
X11670000Y-8190000D02*
X11670000Y-8230000D01*
X11650000Y-8210000D02*
X11690000Y-8210000D01*
X11670000Y-8580000D02*
X11670000Y-8620000D01*
X11650000Y-8600000D02*
X11690000Y-8600000D01*
X11710000Y-10180000D02*
X11710000Y-10220000D01*
X11690000Y-10200000D02*
X11730000Y-10200000D01*
X11730000Y-11220000D02*
X11730000Y-11260000D01*
X11710000Y-11240000D02*
X11750000Y-11240000D01*
X11900000Y-11780000D02*
X11900000Y-11820000D01*
X11880000Y-11800000D02*
X11920000Y-11800000D01*
X12070000Y-9220000D02*
X12070000Y-9260000D01*
X12050000Y-9240000D02*
X12090000Y-9240000D01*
X12110000Y-11010000D02*
X12110000Y-11050000D01*
X12090000Y-11030000D02*
X12130000Y-11030000D01*
X12175000Y-11625000D02*
X12175000Y-11665000D01*
X12155000Y-11645000D02*
X12195000Y-11645000D01*
X12180000Y-7490000D02*
X12180000Y-7530000D01*
X12160000Y-7510000D02*
X12200000Y-7510000D01*
X12240000Y-9220000D02*
X12240000Y-9260000D01*
X12220000Y-9240000D02*
X12260000Y-9240000D01*
X12310000Y-11380000D02*
X12310000Y-11420000D01*
X12290000Y-11400000D02*
X12330000Y-11400000D01*
X12360000Y-8020000D02*
X12360000Y-8060000D01*
X12340000Y-8040000D02*
X12380000Y-8040000D01*
X12370000Y-8490000D02*
X12370000Y-8530000D01*
X12350000Y-8510000D02*
X12390000Y-8510000D01*
X12410000Y-9220000D02*
X12410000Y-9260000D01*
X12390000Y-9240000D02*
X12430000Y-9240000D01*
X12420000Y-9030000D02*
X12420000Y-9070000D01*
X12400000Y-9050000D02*
X12440000Y-9050000D01*
X12510000Y-14140000D02*
X12510000Y-14180000D01*
X12490000Y-14160000D02*
X12530000Y-14160000D01*
X12660000Y-10690000D02*
X12660000Y-10730000D01*
X12640000Y-10710000D02*
X12680000Y-10710000D01*
X12690000Y-7690000D02*
X12690000Y-7730000D01*
X12670000Y-7710000D02*
X12710000Y-7710000D01*
X12700000Y-11630000D02*
X12700000Y-11670000D01*
X12680000Y-11650000D02*
X12720000Y-11650000D01*
X12720000Y-7490000D02*
X12720000Y-7530000D01*
X12700000Y-7510000D02*
X12740000Y-7510000D01*
X12780000Y-13920000D02*
X12780000Y-13960000D01*
X12760000Y-13940000D02*
X12800000Y-13940000D01*
X12910000Y-11510000D02*
X12910000Y-11550000D01*
X12890000Y-11530000D02*
X12930000Y-11530000D01*
X12950000Y-8610000D02*
X12950000Y-8650000D01*
X12930000Y-8630000D02*
X12970000Y-8630000D01*
X12950000Y-9030000D02*
X12950000Y-9070000D01*
X12930000Y-9050000D02*
X12970000Y-9050000D01*
X12960000Y-9210000D02*
X12960000Y-9250000D01*
X12940000Y-9230000D02*
X12980000Y-9230000D01*
X13080000Y-11510000D02*
X13080000Y-11550000D01*
X13060000Y-11530000D02*
X13100000Y-11530000D01*
X13130000Y-9210000D02*
X13130000Y-9250000D01*
X13110000Y-9230000D02*
X13150000Y-9230000D01*
X13130000Y-11800000D02*
X13130000Y-11840000D01*
X13110000Y-11820000D02*
X13150000Y-11820000D01*
X13320000Y-9210000D02*
X13320000Y-9250000D01*
X13300000Y-9230000D02*
X13340000Y-9230000D01*
X13410000Y-14740000D02*
X13410000Y-14780000D01*
X13390000Y-14760000D02*
X13430000Y-14760000D01*
X13440000Y-13650000D02*
X13440000Y-13690000D01*
X13420000Y-13670000D02*
X13460000Y-13670000D01*
X13450000Y-10867500D02*
X13450000Y-10907500D01*
X13430000Y-10887500D02*
X13470000Y-10887500D01*
X13540000Y-13140000D02*
X13540000Y-13180000D01*
X13520000Y-13160000D02*
X13560000Y-13160000D01*
X13672500Y-9900000D02*
X13672500Y-9940000D01*
X13652500Y-9920000D02*
X13692500Y-9920000D01*
X13950000Y-8830000D02*
X13950000Y-8870000D01*
X13930000Y-8850000D02*
X13970000Y-8850000D01*
X14050000Y-14340000D02*
X14050000Y-14380000D01*
X14030000Y-14360000D02*
X14070000Y-14360000D01*
X14100000Y-13380000D02*
X14100000Y-13420000D01*
X14080000Y-13400000D02*
X14120000Y-13400000D01*
X11036163Y-12808163D02*
X11036163Y-12755837D01*
X10983837Y-12755837D01*
X10983837Y-12808163D01*
X11036163Y-12808163D01*
X11036163Y-13062163D02*
X11036163Y-13009837D01*
X10983837Y-13009837D01*
X10983837Y-13062163D01*
X11036163Y-13062163D01*
X11036163Y-13316163D02*
X11036163Y-13263837D01*
X10983837Y-13263837D01*
X10983837Y-13316163D01*
X11036163Y-13316163D01*
X11036163Y-13570163D02*
X11036163Y-13517837D01*
X10983837Y-13517837D01*
X10983837Y-13570163D01*
X11036163Y-13570163D01*
X11036163Y-13824163D02*
X11036163Y-13771837D01*
X10983837Y-13771837D01*
X10983837Y-13824163D01*
X11036163Y-13824163D01*
X11036163Y-14078163D02*
X11036163Y-14025837D01*
X10983837Y-14025837D01*
X10983837Y-14078163D01*
X11036163Y-14078163D01*
X11036163Y-14332163D02*
X11036163Y-14279837D01*
X10983837Y-14279837D01*
X10983837Y-14332163D01*
X11036163Y-14332163D01*
X11036163Y-14586163D02*
X11036163Y-14533837D01*
X10983837Y-14533837D01*
X10983837Y-14586163D01*
X11036163Y-14586163D01*
X11798163Y-12808163D02*
X11798163Y-12755837D01*
X11745837Y-12755837D01*
X11745837Y-12808163D01*
X11798163Y-12808163D01*
X11798163Y-13062163D02*
X11798163Y-13009837D01*
X11745837Y-13009837D01*
X11745837Y-13062163D01*
X11798163Y-13062163D01*
X11798163Y-13316163D02*
X11798163Y-13263837D01*
X11745837Y-13263837D01*
X11745837Y-13316163D01*
X11798163Y-13316163D01*
X11798163Y-13570163D02*
X11798163Y-13517837D01*
X11745837Y-13517837D01*
X11745837Y-13570163D01*
X11798163Y-13570163D01*
X11798163Y-13824163D02*
X11798163Y-13771837D01*
X11745837Y-13771837D01*
X11745837Y-13824163D01*
X11798163Y-13824163D01*
X11798163Y-14078163D02*
X11798163Y-14025837D01*
X11745837Y-14025837D01*
X11745837Y-14078163D01*
X11798163Y-14078163D01*
X11798163Y-14332163D02*
X11798163Y-14279837D01*
X11745837Y-14279837D01*
X11745837Y-14332163D01*
X11798163Y-14332163D01*
X11798163Y-14586163D02*
X11798163Y-14533837D01*
X11745837Y-14533837D01*
X11745837Y-14586163D01*
X11798163Y-14586163D01*
X10220000Y-9902000D02*
X10270000Y-9852000D01*
X10220000Y-9802000D01*
X10170000Y-9852000D01*
X10220000Y-9902000D01*
X10220000Y-10156000D02*
X10270000Y-10106000D01*
X10220000Y-10056000D01*
X10170000Y-10106000D01*
X10220000Y-10156000D01*
X10220000Y-10410000D02*
X10270000Y-10360000D01*
X10220000Y-10310000D01*
X10170000Y-10360000D01*
X10220000Y-10410000D01*
X10220000Y-10664000D02*
X10270000Y-10614000D01*
X10220000Y-10564000D01*
X10170000Y-10614000D01*
X10220000Y-10664000D01*
X10220000Y-10918000D02*
X10270000Y-10868000D01*
X10220000Y-10818000D01*
X10170000Y-10868000D01*
X10220000Y-10918000D01*
X10220000Y-11172000D02*
X10270000Y-11122000D01*
X10220000Y-11072000D01*
X10170000Y-11122000D01*
X10220000Y-11172000D01*
X10220000Y-11426000D02*
X10270000Y-11376000D01*
X10220000Y-11326000D01*
X10170000Y-11376000D01*
X10220000Y-11426000D01*
X10220000Y-11680000D02*
X10270000Y-11630000D01*
X10220000Y-11580000D01*
X10170000Y-11630000D01*
X10220000Y-11680000D01*
X10220000Y-11934000D02*
X10270000Y-11884000D01*
X10220000Y-11834000D01*
X10170000Y-11884000D01*
X10220000Y-11934000D01*
X10220000Y-12188000D02*
X10270000Y-12138000D01*
X10220000Y-12088000D01*
X10170000Y-12138000D01*
X10220000Y-12188000D01*
X10220000Y-12442000D02*
X10270000Y-12392000D01*
X10220000Y-12342000D01*
X10170000Y-12392000D01*
X10220000Y-12442000D01*
X10220000Y-12696000D02*
X10270000Y-12646000D01*
X10220000Y-12596000D01*
X10170000Y-12646000D01*
X10220000Y-12696000D01*
X10220000Y-12950000D02*
X10270000Y-12900000D01*
X10220000Y-12850000D01*
X10170000Y-12900000D01*
X10220000Y-12950000D01*
X10220000Y-13204000D02*
X10270000Y-13154000D01*
X10220000Y-13104000D01*
X10170000Y-13154000D01*
X10220000Y-13204000D01*
X10220000Y-13458000D02*
X10270000Y-13408000D01*
X10220000Y-13358000D01*
X10170000Y-13408000D01*
X10220000Y-13458000D01*
X10220000Y-13712000D02*
X10270000Y-13662000D01*
X10220000Y-13612000D01*
X10170000Y-13662000D01*
X10220000Y-13712000D01*
X10220000Y-13966000D02*
X10270000Y-13916000D01*
X10220000Y-13866000D01*
X10170000Y-13916000D01*
X10220000Y-13966000D01*
X10220000Y-14220000D02*
X10270000Y-14170000D01*
X10220000Y-14120000D01*
X10170000Y-14170000D01*
X10220000Y-14220000D01*
X12252000Y-14560000D02*
X12302000Y-14510000D01*
X12252000Y-14460000D01*
X12202000Y-14510000D01*
X12252000Y-14560000D01*
X12506000Y-14560000D02*
X12556000Y-14510000D01*
X12506000Y-14460000D01*
X12456000Y-14510000D01*
X12506000Y-14560000D01*
X12760000Y-14560000D02*
X12810000Y-14510000D01*
X12760000Y-14460000D01*
X12710000Y-14510000D01*
X12760000Y-14560000D01*
X13014000Y-14560000D02*
X13064000Y-14510000D01*
X13014000Y-14460000D01*
X12964000Y-14510000D01*
X13014000Y-14560000D01*
X13268000Y-14560000D02*
X13318000Y-14510000D01*
X13268000Y-14460000D01*
X13218000Y-14510000D01*
X13268000Y-14560000D01*
X13370000Y-11866000D02*
X13420000Y-11816000D01*
X13370000Y-11766000D01*
X13320000Y-11816000D01*
X13370000Y-11866000D01*
X13370000Y-12120000D02*
X13420000Y-12070000D01*
X13370000Y-12020000D01*
X13320000Y-12070000D01*
X13370000Y-12120000D01*
X13370000Y-12374000D02*
X13420000Y-12324000D01*
X13370000Y-12274000D01*
X13320000Y-12324000D01*
X13370000Y-12374000D01*
X14470000Y-9872000D02*
X14520000Y-9822000D01*
X14470000Y-9772000D01*
X14420000Y-9822000D01*
X14470000Y-9872000D01*
X14470000Y-10126000D02*
X14520000Y-10076000D01*
X14470000Y-10026000D01*
X14420000Y-10076000D01*
X14470000Y-10126000D01*
X14470000Y-10380000D02*
X14520000Y-10330000D01*
X14470000Y-10280000D01*
X14420000Y-10330000D01*
X14470000Y-10380000D01*
X14470000Y-10634000D02*
X14520000Y-10584000D01*
X14470000Y-10534000D01*
X14420000Y-10584000D01*
X14470000Y-10634000D01*
X14470000Y-10888000D02*
X14520000Y-10838000D01*
X14470000Y-10788000D01*
X14420000Y-10838000D01*
X14470000Y-10888000D01*
X14470000Y-11142000D02*
X14520000Y-11092000D01*
X14470000Y-11042000D01*
X14420000Y-11092000D01*
X14470000Y-11142000D01*
X14470000Y-11396000D02*
X14520000Y-11346000D01*
X14470000Y-11296000D01*
X14420000Y-11346000D01*
X14470000Y-11396000D01*
X14470000Y-11650000D02*
X14520000Y-11600000D01*
X14470000Y-11550000D01*
X14420000Y-11600000D01*
X14470000Y-11650000D01*
X14470000Y-11904000D02*
X14520000Y-11854000D01*
X14470000Y-11804000D01*
X14420000Y-11854000D01*
X14470000Y-11904000D01*
X14470000Y-12158000D02*
X14520000Y-12108000D01*
X14470000Y-12058000D01*
X14420000Y-12108000D01*
X14470000Y-12158000D01*
X14470000Y-12412000D02*
X14520000Y-12362000D01*
X14470000Y-12312000D01*
X14420000Y-12362000D01*
X14470000Y-12412000D01*
X14470000Y-12666000D02*
X14520000Y-12616000D01*
X14470000Y-12566000D01*
X14420000Y-12616000D01*
X14470000Y-12666000D01*
X14470000Y-12920000D02*
X14520000Y-12870000D01*
X14470000Y-12820000D01*
X14420000Y-12870000D01*
X14470000Y-12920000D01*
X14470000Y-13174000D02*
X14520000Y-13124000D01*
X14470000Y-13074000D01*
X14420000Y-13124000D01*
X14470000Y-13174000D01*
X14470000Y-13428000D02*
X14520000Y-13378000D01*
X14470000Y-13328000D01*
X14420000Y-13378000D01*
X14470000Y-13428000D01*
X14470000Y-13682000D02*
X14520000Y-13632000D01*
X14470000Y-13582000D01*
X14420000Y-13632000D01*
X14470000Y-13682000D01*
X14470000Y-13936000D02*
X14520000Y-13886000D01*
X14470000Y-13836000D01*
X14420000Y-13886000D01*
X14470000Y-13936000D01*
X14470000Y-14190000D02*
X14520000Y-14140000D01*
X14470000Y-14090000D01*
X14420000Y-14140000D01*
X14470000Y-14190000D01*
D12*
X10180000Y-8380000D02*
X10290000Y-8490000D01*
X10290000Y-8380000D02*
X10180000Y-8490000D01*
X10290000Y-8435000D02*
G75*
G02*
X10180000Y-8435000I-55000J0D01*
G01*
X10180000Y-8435000D02*
G75*
G02*
X10290000Y-8435000I55000J0D01*
G01*
X10180000Y-9030000D02*
X10290000Y-9140000D01*
X10290000Y-9030000D02*
X10180000Y-9140000D01*
X10290000Y-9085000D02*
G75*
G02*
X10180000Y-9085000I-55000J0D01*
G01*
X10180000Y-9085000D02*
G75*
G02*
X10290000Y-9085000I55000J0D01*
G01*
X10190000Y-7210000D02*
X10300000Y-7320000D01*
X10300000Y-7210000D02*
X10190000Y-7320000D01*
X10300000Y-7265000D02*
G75*
G02*
X10190000Y-7265000I-55000J0D01*
G01*
X10190000Y-7265000D02*
G75*
G02*
X10300000Y-7265000I55000J0D01*
G01*
X10190000Y-7860000D02*
X10300000Y-7970000D01*
X10300000Y-7860000D02*
X10190000Y-7970000D01*
X10300000Y-7915000D02*
G75*
G02*
X10190000Y-7915000I-55000J0D01*
G01*
X10190000Y-7915000D02*
G75*
G02*
X10300000Y-7915000I55000J0D01*
G01*
X10630000Y-8380000D02*
X10740000Y-8490000D01*
X10740000Y-8380000D02*
X10630000Y-8490000D01*
X10740000Y-8435000D02*
G75*
G02*
X10630000Y-8435000I-55000J0D01*
G01*
X10630000Y-8435000D02*
G75*
G02*
X10740000Y-8435000I55000J0D01*
G01*
X10630000Y-9030000D02*
X10740000Y-9140000D01*
X10740000Y-9030000D02*
X10630000Y-9140000D01*
X10740000Y-9085000D02*
G75*
G02*
X10630000Y-9085000I-55000J0D01*
G01*
X10630000Y-9085000D02*
G75*
G02*
X10740000Y-9085000I55000J0D01*
G01*
X10640000Y-7210000D02*
X10750000Y-7320000D01*
X10750000Y-7210000D02*
X10640000Y-7320000D01*
X10750000Y-7265000D02*
G75*
G02*
X10640000Y-7265000I-55000J0D01*
G01*
X10640000Y-7265000D02*
G75*
G02*
X10750000Y-7265000I55000J0D01*
G01*
X10640000Y-7860000D02*
X10750000Y-7970000D01*
X10750000Y-7860000D02*
X10640000Y-7970000D01*
X10750000Y-7915000D02*
G75*
G02*
X10640000Y-7915000I-55000J0D01*
G01*
X10640000Y-7915000D02*
G75*
G02*
X10750000Y-7915000I55000J0D01*
G01*
D13*
X14174000Y-7170000D02*
X14326000Y-7322000D01*
X14326000Y-7170000D02*
X14174000Y-7322000D01*
X14250000Y-7170000D02*
X14250000Y-7322000D01*
X14174000Y-7246000D02*
X14326000Y-7246000D01*
X14174000Y-7678000D02*
X14326000Y-7830000D01*
X14326000Y-7678000D02*
X14174000Y-7830000D01*
X14250000Y-7678000D02*
X14250000Y-7830000D01*
X14174000Y-7754000D02*
X14326000Y-7754000D01*
X14174000Y-8266000D02*
X14326000Y-8418000D01*
X14326000Y-8266000D02*
X14174000Y-8418000D01*
X14250000Y-8266000D02*
X14250000Y-8418000D01*
X14174000Y-8342000D02*
X14326000Y-8342000D01*
X14174000Y-8774000D02*
X14326000Y-8926000D01*
X14326000Y-8774000D02*
X14174000Y-8926000D01*
X14250000Y-8774000D02*
X14250000Y-8926000D01*
X14174000Y-8850000D02*
X14326000Y-8850000D01*
X14174000Y-9282000D02*
X14326000Y-9434000D01*
X14326000Y-9282000D02*
X14174000Y-9434000D01*
X14250000Y-9282000D02*
X14250000Y-9434000D01*
X14174000Y-9358000D02*
X14326000Y-9358000D01*
D11*
X10255634Y-15306707D02*
X10255634Y-15106707D01*
X10255634Y-15106707D02*
X10303253Y-15106707D01*
X10303253Y-15106707D02*
X10331825Y-15116231D01*
X10331825Y-15116231D02*
X10350872Y-15135279D01*
X10350872Y-15135279D02*
X10360396Y-15154326D01*
X10360396Y-15154326D02*
X10369920Y-15192421D01*
X10369920Y-15192421D02*
X10369920Y-15220993D01*
X10369920Y-15220993D02*
X10360396Y-15259088D01*
X10360396Y-15259088D02*
X10350872Y-15278136D01*
X10350872Y-15278136D02*
X10331825Y-15297183D01*
X10331825Y-15297183D02*
X10303253Y-15306707D01*
X10303253Y-15306707D02*
X10255634Y-15306707D01*
X10455634Y-15306707D02*
X10455634Y-15173374D01*
X10455634Y-15211469D02*
X10465158Y-15192421D01*
X10465158Y-15192421D02*
X10474682Y-15182898D01*
X10474682Y-15182898D02*
X10493729Y-15173374D01*
X10493729Y-15173374D02*
X10512777Y-15173374D01*
X10579444Y-15306707D02*
X10579444Y-15173374D01*
X10579444Y-15106707D02*
X10569920Y-15116231D01*
X10569920Y-15116231D02*
X10579444Y-15125755D01*
X10579444Y-15125755D02*
X10588967Y-15116231D01*
X10588967Y-15116231D02*
X10579444Y-15106707D01*
X10579444Y-15106707D02*
X10579444Y-15125755D01*
X10703253Y-15306707D02*
X10684205Y-15297183D01*
X10684205Y-15297183D02*
X10674682Y-15278136D01*
X10674682Y-15278136D02*
X10674682Y-15106707D01*
X10808015Y-15306707D02*
X10788967Y-15297183D01*
X10788967Y-15297183D02*
X10779444Y-15278136D01*
X10779444Y-15278136D02*
X10779444Y-15106707D01*
X11036586Y-15306707D02*
X11036586Y-15106707D01*
X11036586Y-15106707D02*
X11103253Y-15249564D01*
X11103253Y-15249564D02*
X11169920Y-15106707D01*
X11169920Y-15106707D02*
X11169920Y-15306707D01*
X11350872Y-15306707D02*
X11350872Y-15201945D01*
X11350872Y-15201945D02*
X11341348Y-15182898D01*
X11341348Y-15182898D02*
X11322301Y-15173374D01*
X11322301Y-15173374D02*
X11284205Y-15173374D01*
X11284205Y-15173374D02*
X11265158Y-15182898D01*
X11350872Y-15297183D02*
X11331824Y-15306707D01*
X11331824Y-15306707D02*
X11284205Y-15306707D01*
X11284205Y-15306707D02*
X11265158Y-15297183D01*
X11265158Y-15297183D02*
X11255634Y-15278136D01*
X11255634Y-15278136D02*
X11255634Y-15259088D01*
X11255634Y-15259088D02*
X11265158Y-15240041D01*
X11265158Y-15240041D02*
X11284205Y-15230517D01*
X11284205Y-15230517D02*
X11331824Y-15230517D01*
X11331824Y-15230517D02*
X11350872Y-15220993D01*
X11446110Y-15173374D02*
X11446110Y-15373374D01*
X11446110Y-15182898D02*
X11465158Y-15173374D01*
X11465158Y-15173374D02*
X11503253Y-15173374D01*
X11503253Y-15173374D02*
X11522301Y-15182898D01*
X11522301Y-15182898D02*
X11531824Y-15192421D01*
X11531824Y-15192421D02*
X11541348Y-15211469D01*
X11541348Y-15211469D02*
X11541348Y-15268612D01*
X11541348Y-15268612D02*
X11531824Y-15287660D01*
X11531824Y-15287660D02*
X11522301Y-15297183D01*
X11522301Y-15297183D02*
X11503253Y-15306707D01*
X11503253Y-15306707D02*
X11465158Y-15306707D01*
X11465158Y-15306707D02*
X11446110Y-15297183D01*
X11627063Y-15287660D02*
X11636586Y-15297183D01*
X11636586Y-15297183D02*
X11627063Y-15306707D01*
X11627063Y-15306707D02*
X11617539Y-15297183D01*
X11617539Y-15297183D02*
X11627063Y-15287660D01*
X11627063Y-15287660D02*
X11627063Y-15306707D01*
X11627063Y-15182898D02*
X11636586Y-15192421D01*
X11636586Y-15192421D02*
X11627063Y-15201945D01*
X11627063Y-15201945D02*
X11617539Y-15192421D01*
X11617539Y-15192421D02*
X11627063Y-15182898D01*
X11627063Y-15182898D02*
X11627063Y-15201945D01*
D10*
X9964857Y-15620223D02*
X9994857Y-15650223D01*
X9994857Y-15620223D02*
X9964857Y-15650223D01*
D11*
X10293729Y-15526707D02*
X10312777Y-15526707D01*
X10312777Y-15526707D02*
X10331825Y-15536231D01*
X10331825Y-15536231D02*
X10341348Y-15545755D01*
X10341348Y-15545755D02*
X10350872Y-15564802D01*
X10350872Y-15564802D02*
X10360396Y-15602898D01*
X10360396Y-15602898D02*
X10360396Y-15650517D01*
X10360396Y-15650517D02*
X10350872Y-15688612D01*
X10350872Y-15688612D02*
X10341348Y-15707660D01*
X10341348Y-15707660D02*
X10331825Y-15717183D01*
X10331825Y-15717183D02*
X10312777Y-15726707D01*
X10312777Y-15726707D02*
X10293729Y-15726707D01*
X10293729Y-15726707D02*
X10274682Y-15717183D01*
X10274682Y-15717183D02*
X10265158Y-15707660D01*
X10265158Y-15707660D02*
X10255634Y-15688612D01*
X10255634Y-15688612D02*
X10246110Y-15650517D01*
X10246110Y-15650517D02*
X10246110Y-15602898D01*
X10246110Y-15602898D02*
X10255634Y-15564802D01*
X10255634Y-15564802D02*
X10265158Y-15545755D01*
X10265158Y-15545755D02*
X10274682Y-15536231D01*
X10274682Y-15536231D02*
X10293729Y-15526707D01*
X10446110Y-15707660D02*
X10455634Y-15717183D01*
X10455634Y-15717183D02*
X10446110Y-15726707D01*
X10446110Y-15726707D02*
X10436586Y-15717183D01*
X10436586Y-15717183D02*
X10446110Y-15707660D01*
X10446110Y-15707660D02*
X10446110Y-15726707D01*
X10522301Y-15526707D02*
X10646110Y-15526707D01*
X10646110Y-15526707D02*
X10579444Y-15602898D01*
X10579444Y-15602898D02*
X10608015Y-15602898D01*
X10608015Y-15602898D02*
X10627063Y-15612421D01*
X10627063Y-15612421D02*
X10636586Y-15621945D01*
X10636586Y-15621945D02*
X10646110Y-15640993D01*
X10646110Y-15640993D02*
X10646110Y-15688612D01*
X10646110Y-15688612D02*
X10636586Y-15707660D01*
X10636586Y-15707660D02*
X10627063Y-15717183D01*
X10627063Y-15717183D02*
X10608015Y-15726707D01*
X10608015Y-15726707D02*
X10550872Y-15726707D01*
X10550872Y-15726707D02*
X10531825Y-15717183D01*
X10531825Y-15717183D02*
X10522301Y-15707660D01*
X10769920Y-15526707D02*
X10788967Y-15526707D01*
X10788967Y-15526707D02*
X10808015Y-15536231D01*
X10808015Y-15536231D02*
X10817539Y-15545755D01*
X10817539Y-15545755D02*
X10827063Y-15564802D01*
X10827063Y-15564802D02*
X10836586Y-15602898D01*
X10836586Y-15602898D02*
X10836586Y-15650517D01*
X10836586Y-15650517D02*
X10827063Y-15688612D01*
X10827063Y-15688612D02*
X10817539Y-15707660D01*
X10817539Y-15707660D02*
X10808015Y-15717183D01*
X10808015Y-15717183D02*
X10788967Y-15726707D01*
X10788967Y-15726707D02*
X10769920Y-15726707D01*
X10769920Y-15726707D02*
X10750872Y-15717183D01*
X10750872Y-15717183D02*
X10741348Y-15707660D01*
X10741348Y-15707660D02*
X10731825Y-15688612D01*
X10731825Y-15688612D02*
X10722301Y-15650517D01*
X10722301Y-15650517D02*
X10722301Y-15602898D01*
X10722301Y-15602898D02*
X10731825Y-15564802D01*
X10731825Y-15564802D02*
X10741348Y-15545755D01*
X10741348Y-15545755D02*
X10750872Y-15536231D01*
X10750872Y-15536231D02*
X10769920Y-15526707D01*
X10960396Y-15526707D02*
X10979444Y-15526707D01*
X10979444Y-15526707D02*
X10998491Y-15536231D01*
X10998491Y-15536231D02*
X11008015Y-15545755D01*
X11008015Y-15545755D02*
X11017539Y-15564802D01*
X11017539Y-15564802D02*
X11027063Y-15602898D01*
X11027063Y-15602898D02*
X11027063Y-15650517D01*
X11027063Y-15650517D02*
X11017539Y-15688612D01*
X11017539Y-15688612D02*
X11008015Y-15707660D01*
X11008015Y-15707660D02*
X10998491Y-15717183D01*
X10998491Y-15717183D02*
X10979444Y-15726707D01*
X10979444Y-15726707D02*
X10960396Y-15726707D01*
X10960396Y-15726707D02*
X10941348Y-15717183D01*
X10941348Y-15717183D02*
X10931825Y-15707660D01*
X10931825Y-15707660D02*
X10922301Y-15688612D01*
X10922301Y-15688612D02*
X10912777Y-15650517D01*
X10912777Y-15650517D02*
X10912777Y-15602898D01*
X10912777Y-15602898D02*
X10922301Y-15564802D01*
X10922301Y-15564802D02*
X10931825Y-15545755D01*
X10931825Y-15545755D02*
X10941348Y-15536231D01*
X10941348Y-15536231D02*
X10960396Y-15526707D01*
X11112777Y-15726707D02*
X11112777Y-15593374D01*
X11112777Y-15612421D02*
X11122301Y-15602898D01*
X11122301Y-15602898D02*
X11141348Y-15593374D01*
X11141348Y-15593374D02*
X11169920Y-15593374D01*
X11169920Y-15593374D02*
X11188967Y-15602898D01*
X11188967Y-15602898D02*
X11198491Y-15621945D01*
X11198491Y-15621945D02*
X11198491Y-15726707D01*
X11198491Y-15621945D02*
X11208015Y-15602898D01*
X11208015Y-15602898D02*
X11227063Y-15593374D01*
X11227063Y-15593374D02*
X11255634Y-15593374D01*
X11255634Y-15593374D02*
X11274682Y-15602898D01*
X11274682Y-15602898D02*
X11284205Y-15621945D01*
X11284205Y-15621945D02*
X11284205Y-15726707D01*
X11379444Y-15726707D02*
X11379444Y-15593374D01*
X11379444Y-15612421D02*
X11388967Y-15602898D01*
X11388967Y-15602898D02*
X11408015Y-15593374D01*
X11408015Y-15593374D02*
X11436586Y-15593374D01*
X11436586Y-15593374D02*
X11455634Y-15602898D01*
X11455634Y-15602898D02*
X11465158Y-15621945D01*
X11465158Y-15621945D02*
X11465158Y-15726707D01*
X11465158Y-15621945D02*
X11474682Y-15602898D01*
X11474682Y-15602898D02*
X11493729Y-15593374D01*
X11493729Y-15593374D02*
X11522301Y-15593374D01*
X11522301Y-15593374D02*
X11541348Y-15602898D01*
X11541348Y-15602898D02*
X11550872Y-15621945D01*
X11550872Y-15621945D02*
X11550872Y-15726707D01*
X11941348Y-15517183D02*
X11769920Y-15774326D01*
X12198491Y-15526707D02*
X12217539Y-15526707D01*
X12217539Y-15526707D02*
X12236587Y-15536231D01*
X12236587Y-15536231D02*
X12246110Y-15545755D01*
X12246110Y-15545755D02*
X12255634Y-15564802D01*
X12255634Y-15564802D02*
X12265158Y-15602898D01*
X12265158Y-15602898D02*
X12265158Y-15650517D01*
X12265158Y-15650517D02*
X12255634Y-15688612D01*
X12255634Y-15688612D02*
X12246110Y-15707660D01*
X12246110Y-15707660D02*
X12236587Y-15717183D01*
X12236587Y-15717183D02*
X12217539Y-15726707D01*
X12217539Y-15726707D02*
X12198491Y-15726707D01*
X12198491Y-15726707D02*
X12179444Y-15717183D01*
X12179444Y-15717183D02*
X12169920Y-15707660D01*
X12169920Y-15707660D02*
X12160396Y-15688612D01*
X12160396Y-15688612D02*
X12150872Y-15650517D01*
X12150872Y-15650517D02*
X12150872Y-15602898D01*
X12150872Y-15602898D02*
X12160396Y-15564802D01*
X12160396Y-15564802D02*
X12169920Y-15545755D01*
X12169920Y-15545755D02*
X12179444Y-15536231D01*
X12179444Y-15536231D02*
X12198491Y-15526707D01*
X12350872Y-15707660D02*
X12360396Y-15717183D01*
X12360396Y-15717183D02*
X12350872Y-15726707D01*
X12350872Y-15726707D02*
X12341348Y-15717183D01*
X12341348Y-15717183D02*
X12350872Y-15707660D01*
X12350872Y-15707660D02*
X12350872Y-15726707D01*
X12484206Y-15526707D02*
X12503253Y-15526707D01*
X12503253Y-15526707D02*
X12522301Y-15536231D01*
X12522301Y-15536231D02*
X12531825Y-15545755D01*
X12531825Y-15545755D02*
X12541348Y-15564802D01*
X12541348Y-15564802D02*
X12550872Y-15602898D01*
X12550872Y-15602898D02*
X12550872Y-15650517D01*
X12550872Y-15650517D02*
X12541348Y-15688612D01*
X12541348Y-15688612D02*
X12531825Y-15707660D01*
X12531825Y-15707660D02*
X12522301Y-15717183D01*
X12522301Y-15717183D02*
X12503253Y-15726707D01*
X12503253Y-15726707D02*
X12484206Y-15726707D01*
X12484206Y-15726707D02*
X12465158Y-15717183D01*
X12465158Y-15717183D02*
X12455634Y-15707660D01*
X12455634Y-15707660D02*
X12446110Y-15688612D01*
X12446110Y-15688612D02*
X12436587Y-15650517D01*
X12436587Y-15650517D02*
X12436587Y-15602898D01*
X12436587Y-15602898D02*
X12446110Y-15564802D01*
X12446110Y-15564802D02*
X12455634Y-15545755D01*
X12455634Y-15545755D02*
X12465158Y-15536231D01*
X12465158Y-15536231D02*
X12484206Y-15526707D01*
X12741348Y-15726707D02*
X12627063Y-15726707D01*
X12684206Y-15726707D02*
X12684206Y-15526707D01*
X12684206Y-15526707D02*
X12665158Y-15555279D01*
X12665158Y-15555279D02*
X12646110Y-15574326D01*
X12646110Y-15574326D02*
X12627063Y-15583850D01*
X12931825Y-15726707D02*
X12817539Y-15726707D01*
X12874682Y-15726707D02*
X12874682Y-15526707D01*
X12874682Y-15526707D02*
X12855634Y-15555279D01*
X12855634Y-15555279D02*
X12836587Y-15574326D01*
X12836587Y-15574326D02*
X12817539Y-15583850D01*
X13046110Y-15612421D02*
X13027063Y-15602898D01*
X13027063Y-15602898D02*
X13017539Y-15593374D01*
X13017539Y-15593374D02*
X13008015Y-15574326D01*
X13008015Y-15574326D02*
X13008015Y-15564802D01*
X13008015Y-15564802D02*
X13017539Y-15545755D01*
X13017539Y-15545755D02*
X13027063Y-15536231D01*
X13027063Y-15536231D02*
X13046110Y-15526707D01*
X13046110Y-15526707D02*
X13084206Y-15526707D01*
X13084206Y-15526707D02*
X13103253Y-15536231D01*
X13103253Y-15536231D02*
X13112777Y-15545755D01*
X13112777Y-15545755D02*
X13122301Y-15564802D01*
X13122301Y-15564802D02*
X13122301Y-15574326D01*
X13122301Y-15574326D02*
X13112777Y-15593374D01*
X13112777Y-15593374D02*
X13103253Y-15602898D01*
X13103253Y-15602898D02*
X13084206Y-15612421D01*
X13084206Y-15612421D02*
X13046110Y-15612421D01*
X13046110Y-15612421D02*
X13027063Y-15621945D01*
X13027063Y-15621945D02*
X13017539Y-15631469D01*
X13017539Y-15631469D02*
X13008015Y-15650517D01*
X13008015Y-15650517D02*
X13008015Y-15688612D01*
X13008015Y-15688612D02*
X13017539Y-15707660D01*
X13017539Y-15707660D02*
X13027063Y-15717183D01*
X13027063Y-15717183D02*
X13046110Y-15726707D01*
X13046110Y-15726707D02*
X13084206Y-15726707D01*
X13084206Y-15726707D02*
X13103253Y-15717183D01*
X13103253Y-15717183D02*
X13112777Y-15707660D01*
X13112777Y-15707660D02*
X13122301Y-15688612D01*
X13122301Y-15688612D02*
X13122301Y-15650517D01*
X13122301Y-15650517D02*
X13112777Y-15631469D01*
X13112777Y-15631469D02*
X13103253Y-15621945D01*
X13103253Y-15621945D02*
X13084206Y-15612421D01*
X13198491Y-15526707D02*
X13198491Y-15564802D01*
X13274682Y-15526707D02*
X13274682Y-15564802D01*
X13569920Y-15802898D02*
X13560396Y-15793374D01*
X13560396Y-15793374D02*
X13541349Y-15764802D01*
X13541349Y-15764802D02*
X13531825Y-15745755D01*
X13531825Y-15745755D02*
X13522301Y-15717183D01*
X13522301Y-15717183D02*
X13512777Y-15669564D01*
X13512777Y-15669564D02*
X13512777Y-15631469D01*
X13512777Y-15631469D02*
X13522301Y-15583850D01*
X13522301Y-15583850D02*
X13531825Y-15555279D01*
X13531825Y-15555279D02*
X13541349Y-15536231D01*
X13541349Y-15536231D02*
X13560396Y-15507660D01*
X13560396Y-15507660D02*
X13569920Y-15498136D01*
X13636587Y-15545755D02*
X13646110Y-15536231D01*
X13646110Y-15536231D02*
X13665158Y-15526707D01*
X13665158Y-15526707D02*
X13712777Y-15526707D01*
X13712777Y-15526707D02*
X13731825Y-15536231D01*
X13731825Y-15536231D02*
X13741349Y-15545755D01*
X13741349Y-15545755D02*
X13750872Y-15564802D01*
X13750872Y-15564802D02*
X13750872Y-15583850D01*
X13750872Y-15583850D02*
X13741349Y-15612421D01*
X13741349Y-15612421D02*
X13627063Y-15726707D01*
X13627063Y-15726707D02*
X13750872Y-15726707D01*
X13922301Y-15593374D02*
X13922301Y-15726707D01*
X13874682Y-15517183D02*
X13827063Y-15660041D01*
X13827063Y-15660041D02*
X13950872Y-15660041D01*
X14179444Y-15726707D02*
X14179444Y-15526707D01*
X14265158Y-15726707D02*
X14265158Y-15621945D01*
X14265158Y-15621945D02*
X14255634Y-15602898D01*
X14255634Y-15602898D02*
X14236587Y-15593374D01*
X14236587Y-15593374D02*
X14208015Y-15593374D01*
X14208015Y-15593374D02*
X14188968Y-15602898D01*
X14188968Y-15602898D02*
X14179444Y-15612421D01*
X14388968Y-15726707D02*
X14369920Y-15717183D01*
X14369920Y-15717183D02*
X14360396Y-15707660D01*
X14360396Y-15707660D02*
X14350872Y-15688612D01*
X14350872Y-15688612D02*
X14350872Y-15631469D01*
X14350872Y-15631469D02*
X14360396Y-15612421D01*
X14360396Y-15612421D02*
X14369920Y-15602898D01*
X14369920Y-15602898D02*
X14388968Y-15593374D01*
X14388968Y-15593374D02*
X14417539Y-15593374D01*
X14417539Y-15593374D02*
X14436587Y-15602898D01*
X14436587Y-15602898D02*
X14446111Y-15612421D01*
X14446111Y-15612421D02*
X14455634Y-15631469D01*
X14455634Y-15631469D02*
X14455634Y-15688612D01*
X14455634Y-15688612D02*
X14446111Y-15707660D01*
X14446111Y-15707660D02*
X14436587Y-15717183D01*
X14436587Y-15717183D02*
X14417539Y-15726707D01*
X14417539Y-15726707D02*
X14388968Y-15726707D01*
X14569920Y-15726707D02*
X14550872Y-15717183D01*
X14550872Y-15717183D02*
X14541349Y-15698136D01*
X14541349Y-15698136D02*
X14541349Y-15526707D01*
X14722301Y-15717183D02*
X14703253Y-15726707D01*
X14703253Y-15726707D02*
X14665158Y-15726707D01*
X14665158Y-15726707D02*
X14646111Y-15717183D01*
X14646111Y-15717183D02*
X14636587Y-15698136D01*
X14636587Y-15698136D02*
X14636587Y-15621945D01*
X14636587Y-15621945D02*
X14646111Y-15602898D01*
X14646111Y-15602898D02*
X14665158Y-15593374D01*
X14665158Y-15593374D02*
X14703253Y-15593374D01*
X14703253Y-15593374D02*
X14722301Y-15602898D01*
X14722301Y-15602898D02*
X14731825Y-15621945D01*
X14731825Y-15621945D02*
X14731825Y-15640993D01*
X14731825Y-15640993D02*
X14636587Y-15660041D01*
X14808015Y-15717183D02*
X14827063Y-15726707D01*
X14827063Y-15726707D02*
X14865158Y-15726707D01*
X14865158Y-15726707D02*
X14884206Y-15717183D01*
X14884206Y-15717183D02*
X14893730Y-15698136D01*
X14893730Y-15698136D02*
X14893730Y-15688612D01*
X14893730Y-15688612D02*
X14884206Y-15669564D01*
X14884206Y-15669564D02*
X14865158Y-15660041D01*
X14865158Y-15660041D02*
X14836587Y-15660041D01*
X14836587Y-15660041D02*
X14817539Y-15650517D01*
X14817539Y-15650517D02*
X14808015Y-15631469D01*
X14808015Y-15631469D02*
X14808015Y-15621945D01*
X14808015Y-15621945D02*
X14817539Y-15602898D01*
X14817539Y-15602898D02*
X14836587Y-15593374D01*
X14836587Y-15593374D02*
X14865158Y-15593374D01*
X14865158Y-15593374D02*
X14884206Y-15602898D01*
X14960396Y-15802898D02*
X14969920Y-15793374D01*
X14969920Y-15793374D02*
X14988968Y-15764802D01*
X14988968Y-15764802D02*
X14998492Y-15745755D01*
X14998492Y-15745755D02*
X15008015Y-15717183D01*
X15008015Y-15717183D02*
X15017539Y-15669564D01*
X15017539Y-15669564D02*
X15017539Y-15631469D01*
X15017539Y-15631469D02*
X15008015Y-15583850D01*
X15008015Y-15583850D02*
X14998492Y-15555279D01*
X14998492Y-15555279D02*
X14988968Y-15536231D01*
X14988968Y-15536231D02*
X14969920Y-15507660D01*
X14969920Y-15507660D02*
X14960396Y-15498136D01*
D10*
X9994857Y-15899223D02*
G75*
G02*
X9959857Y-15899223I-17500J0D01*
G01*
X9959857Y-15899223D02*
G75*
G02*
X9994857Y-15899223I17500J0D01*
G01*
D11*
X10293729Y-15790707D02*
X10312777Y-15790707D01*
X10312777Y-15790707D02*
X10331825Y-15800231D01*
X10331825Y-15800231D02*
X10341348Y-15809755D01*
X10341348Y-15809755D02*
X10350872Y-15828802D01*
X10350872Y-15828802D02*
X10360396Y-15866898D01*
X10360396Y-15866898D02*
X10360396Y-15914517D01*
X10360396Y-15914517D02*
X10350872Y-15952612D01*
X10350872Y-15952612D02*
X10341348Y-15971660D01*
X10341348Y-15971660D02*
X10331825Y-15981183D01*
X10331825Y-15981183D02*
X10312777Y-15990707D01*
X10312777Y-15990707D02*
X10293729Y-15990707D01*
X10293729Y-15990707D02*
X10274682Y-15981183D01*
X10274682Y-15981183D02*
X10265158Y-15971660D01*
X10265158Y-15971660D02*
X10255634Y-15952612D01*
X10255634Y-15952612D02*
X10246110Y-15914517D01*
X10246110Y-15914517D02*
X10246110Y-15866898D01*
X10246110Y-15866898D02*
X10255634Y-15828802D01*
X10255634Y-15828802D02*
X10265158Y-15809755D01*
X10265158Y-15809755D02*
X10274682Y-15800231D01*
X10274682Y-15800231D02*
X10293729Y-15790707D01*
X10446110Y-15971660D02*
X10455634Y-15981183D01*
X10455634Y-15981183D02*
X10446110Y-15990707D01*
X10446110Y-15990707D02*
X10436586Y-15981183D01*
X10436586Y-15981183D02*
X10446110Y-15971660D01*
X10446110Y-15971660D02*
X10446110Y-15990707D01*
X10522301Y-15790707D02*
X10646110Y-15790707D01*
X10646110Y-15790707D02*
X10579444Y-15866898D01*
X10579444Y-15866898D02*
X10608015Y-15866898D01*
X10608015Y-15866898D02*
X10627063Y-15876421D01*
X10627063Y-15876421D02*
X10636586Y-15885945D01*
X10636586Y-15885945D02*
X10646110Y-15904993D01*
X10646110Y-15904993D02*
X10646110Y-15952612D01*
X10646110Y-15952612D02*
X10636586Y-15971660D01*
X10636586Y-15971660D02*
X10627063Y-15981183D01*
X10627063Y-15981183D02*
X10608015Y-15990707D01*
X10608015Y-15990707D02*
X10550872Y-15990707D01*
X10550872Y-15990707D02*
X10531825Y-15981183D01*
X10531825Y-15981183D02*
X10522301Y-15971660D01*
X10827063Y-15790707D02*
X10731825Y-15790707D01*
X10731825Y-15790707D02*
X10722301Y-15885945D01*
X10722301Y-15885945D02*
X10731825Y-15876421D01*
X10731825Y-15876421D02*
X10750872Y-15866898D01*
X10750872Y-15866898D02*
X10798491Y-15866898D01*
X10798491Y-15866898D02*
X10817539Y-15876421D01*
X10817539Y-15876421D02*
X10827063Y-15885945D01*
X10827063Y-15885945D02*
X10836586Y-15904993D01*
X10836586Y-15904993D02*
X10836586Y-15952612D01*
X10836586Y-15952612D02*
X10827063Y-15971660D01*
X10827063Y-15971660D02*
X10817539Y-15981183D01*
X10817539Y-15981183D02*
X10798491Y-15990707D01*
X10798491Y-15990707D02*
X10750872Y-15990707D01*
X10750872Y-15990707D02*
X10731825Y-15981183D01*
X10731825Y-15981183D02*
X10722301Y-15971660D01*
X10960396Y-15790707D02*
X10979444Y-15790707D01*
X10979444Y-15790707D02*
X10998491Y-15800231D01*
X10998491Y-15800231D02*
X11008015Y-15809755D01*
X11008015Y-15809755D02*
X11017539Y-15828802D01*
X11017539Y-15828802D02*
X11027063Y-15866898D01*
X11027063Y-15866898D02*
X11027063Y-15914517D01*
X11027063Y-15914517D02*
X11017539Y-15952612D01*
X11017539Y-15952612D02*
X11008015Y-15971660D01*
X11008015Y-15971660D02*
X10998491Y-15981183D01*
X10998491Y-15981183D02*
X10979444Y-15990707D01*
X10979444Y-15990707D02*
X10960396Y-15990707D01*
X10960396Y-15990707D02*
X10941348Y-15981183D01*
X10941348Y-15981183D02*
X10931825Y-15971660D01*
X10931825Y-15971660D02*
X10922301Y-15952612D01*
X10922301Y-15952612D02*
X10912777Y-15914517D01*
X10912777Y-15914517D02*
X10912777Y-15866898D01*
X10912777Y-15866898D02*
X10922301Y-15828802D01*
X10922301Y-15828802D02*
X10931825Y-15809755D01*
X10931825Y-15809755D02*
X10941348Y-15800231D01*
X10941348Y-15800231D02*
X10960396Y-15790707D01*
X11112777Y-15990707D02*
X11112777Y-15857374D01*
X11112777Y-15876421D02*
X11122301Y-15866898D01*
X11122301Y-15866898D02*
X11141348Y-15857374D01*
X11141348Y-15857374D02*
X11169920Y-15857374D01*
X11169920Y-15857374D02*
X11188967Y-15866898D01*
X11188967Y-15866898D02*
X11198491Y-15885945D01*
X11198491Y-15885945D02*
X11198491Y-15990707D01*
X11198491Y-15885945D02*
X11208015Y-15866898D01*
X11208015Y-15866898D02*
X11227063Y-15857374D01*
X11227063Y-15857374D02*
X11255634Y-15857374D01*
X11255634Y-15857374D02*
X11274682Y-15866898D01*
X11274682Y-15866898D02*
X11284205Y-15885945D01*
X11284205Y-15885945D02*
X11284205Y-15990707D01*
X11379444Y-15990707D02*
X11379444Y-15857374D01*
X11379444Y-15876421D02*
X11388967Y-15866898D01*
X11388967Y-15866898D02*
X11408015Y-15857374D01*
X11408015Y-15857374D02*
X11436586Y-15857374D01*
X11436586Y-15857374D02*
X11455634Y-15866898D01*
X11455634Y-15866898D02*
X11465158Y-15885945D01*
X11465158Y-15885945D02*
X11465158Y-15990707D01*
X11465158Y-15885945D02*
X11474682Y-15866898D01*
X11474682Y-15866898D02*
X11493729Y-15857374D01*
X11493729Y-15857374D02*
X11522301Y-15857374D01*
X11522301Y-15857374D02*
X11541348Y-15866898D01*
X11541348Y-15866898D02*
X11550872Y-15885945D01*
X11550872Y-15885945D02*
X11550872Y-15990707D01*
X11941348Y-15781183D02*
X11769920Y-16038326D01*
X12198491Y-15790707D02*
X12217539Y-15790707D01*
X12217539Y-15790707D02*
X12236587Y-15800231D01*
X12236587Y-15800231D02*
X12246110Y-15809755D01*
X12246110Y-15809755D02*
X12255634Y-15828802D01*
X12255634Y-15828802D02*
X12265158Y-15866898D01*
X12265158Y-15866898D02*
X12265158Y-15914517D01*
X12265158Y-15914517D02*
X12255634Y-15952612D01*
X12255634Y-15952612D02*
X12246110Y-15971660D01*
X12246110Y-15971660D02*
X12236587Y-15981183D01*
X12236587Y-15981183D02*
X12217539Y-15990707D01*
X12217539Y-15990707D02*
X12198491Y-15990707D01*
X12198491Y-15990707D02*
X12179444Y-15981183D01*
X12179444Y-15981183D02*
X12169920Y-15971660D01*
X12169920Y-15971660D02*
X12160396Y-15952612D01*
X12160396Y-15952612D02*
X12150872Y-15914517D01*
X12150872Y-15914517D02*
X12150872Y-15866898D01*
X12150872Y-15866898D02*
X12160396Y-15828802D01*
X12160396Y-15828802D02*
X12169920Y-15809755D01*
X12169920Y-15809755D02*
X12179444Y-15800231D01*
X12179444Y-15800231D02*
X12198491Y-15790707D01*
X12350872Y-15971660D02*
X12360396Y-15981183D01*
X12360396Y-15981183D02*
X12350872Y-15990707D01*
X12350872Y-15990707D02*
X12341348Y-15981183D01*
X12341348Y-15981183D02*
X12350872Y-15971660D01*
X12350872Y-15971660D02*
X12350872Y-15990707D01*
X12484206Y-15790707D02*
X12503253Y-15790707D01*
X12503253Y-15790707D02*
X12522301Y-15800231D01*
X12522301Y-15800231D02*
X12531825Y-15809755D01*
X12531825Y-15809755D02*
X12541348Y-15828802D01*
X12541348Y-15828802D02*
X12550872Y-15866898D01*
X12550872Y-15866898D02*
X12550872Y-15914517D01*
X12550872Y-15914517D02*
X12541348Y-15952612D01*
X12541348Y-15952612D02*
X12531825Y-15971660D01*
X12531825Y-15971660D02*
X12522301Y-15981183D01*
X12522301Y-15981183D02*
X12503253Y-15990707D01*
X12503253Y-15990707D02*
X12484206Y-15990707D01*
X12484206Y-15990707D02*
X12465158Y-15981183D01*
X12465158Y-15981183D02*
X12455634Y-15971660D01*
X12455634Y-15971660D02*
X12446110Y-15952612D01*
X12446110Y-15952612D02*
X12436587Y-15914517D01*
X12436587Y-15914517D02*
X12436587Y-15866898D01*
X12436587Y-15866898D02*
X12446110Y-15828802D01*
X12446110Y-15828802D02*
X12455634Y-15809755D01*
X12455634Y-15809755D02*
X12465158Y-15800231D01*
X12465158Y-15800231D02*
X12484206Y-15790707D01*
X12741348Y-15990707D02*
X12627063Y-15990707D01*
X12684206Y-15990707D02*
X12684206Y-15790707D01*
X12684206Y-15790707D02*
X12665158Y-15819279D01*
X12665158Y-15819279D02*
X12646110Y-15838326D01*
X12646110Y-15838326D02*
X12627063Y-15847850D01*
X12808015Y-15790707D02*
X12931825Y-15790707D01*
X12931825Y-15790707D02*
X12865158Y-15866898D01*
X12865158Y-15866898D02*
X12893729Y-15866898D01*
X12893729Y-15866898D02*
X12912777Y-15876421D01*
X12912777Y-15876421D02*
X12922301Y-15885945D01*
X12922301Y-15885945D02*
X12931825Y-15904993D01*
X12931825Y-15904993D02*
X12931825Y-15952612D01*
X12931825Y-15952612D02*
X12922301Y-15971660D01*
X12922301Y-15971660D02*
X12912777Y-15981183D01*
X12912777Y-15981183D02*
X12893729Y-15990707D01*
X12893729Y-15990707D02*
X12836587Y-15990707D01*
X12836587Y-15990707D02*
X12817539Y-15981183D01*
X12817539Y-15981183D02*
X12808015Y-15971660D01*
X13046110Y-15876421D02*
X13027063Y-15866898D01*
X13027063Y-15866898D02*
X13017539Y-15857374D01*
X13017539Y-15857374D02*
X13008015Y-15838326D01*
X13008015Y-15838326D02*
X13008015Y-15828802D01*
X13008015Y-15828802D02*
X13017539Y-15809755D01*
X13017539Y-15809755D02*
X13027063Y-15800231D01*
X13027063Y-15800231D02*
X13046110Y-15790707D01*
X13046110Y-15790707D02*
X13084206Y-15790707D01*
X13084206Y-15790707D02*
X13103253Y-15800231D01*
X13103253Y-15800231D02*
X13112777Y-15809755D01*
X13112777Y-15809755D02*
X13122301Y-15828802D01*
X13122301Y-15828802D02*
X13122301Y-15838326D01*
X13122301Y-15838326D02*
X13112777Y-15857374D01*
X13112777Y-15857374D02*
X13103253Y-15866898D01*
X13103253Y-15866898D02*
X13084206Y-15876421D01*
X13084206Y-15876421D02*
X13046110Y-15876421D01*
X13046110Y-15876421D02*
X13027063Y-15885945D01*
X13027063Y-15885945D02*
X13017539Y-15895469D01*
X13017539Y-15895469D02*
X13008015Y-15914517D01*
X13008015Y-15914517D02*
X13008015Y-15952612D01*
X13008015Y-15952612D02*
X13017539Y-15971660D01*
X13017539Y-15971660D02*
X13027063Y-15981183D01*
X13027063Y-15981183D02*
X13046110Y-15990707D01*
X13046110Y-15990707D02*
X13084206Y-15990707D01*
X13084206Y-15990707D02*
X13103253Y-15981183D01*
X13103253Y-15981183D02*
X13112777Y-15971660D01*
X13112777Y-15971660D02*
X13122301Y-15952612D01*
X13122301Y-15952612D02*
X13122301Y-15914517D01*
X13122301Y-15914517D02*
X13112777Y-15895469D01*
X13112777Y-15895469D02*
X13103253Y-15885945D01*
X13103253Y-15885945D02*
X13084206Y-15876421D01*
X13198491Y-15790707D02*
X13198491Y-15828802D01*
X13274682Y-15790707D02*
X13274682Y-15828802D01*
X13569920Y-16066898D02*
X13560396Y-16057374D01*
X13560396Y-16057374D02*
X13541349Y-16028802D01*
X13541349Y-16028802D02*
X13531825Y-16009755D01*
X13531825Y-16009755D02*
X13522301Y-15981183D01*
X13522301Y-15981183D02*
X13512777Y-15933564D01*
X13512777Y-15933564D02*
X13512777Y-15895469D01*
X13512777Y-15895469D02*
X13522301Y-15847850D01*
X13522301Y-15847850D02*
X13531825Y-15819279D01*
X13531825Y-15819279D02*
X13541349Y-15800231D01*
X13541349Y-15800231D02*
X13560396Y-15771660D01*
X13560396Y-15771660D02*
X13569920Y-15762136D01*
X13655634Y-15990707D02*
X13693729Y-15990707D01*
X13693729Y-15990707D02*
X13712777Y-15981183D01*
X13712777Y-15981183D02*
X13722301Y-15971660D01*
X13722301Y-15971660D02*
X13741349Y-15943088D01*
X13741349Y-15943088D02*
X13750872Y-15904993D01*
X13750872Y-15904993D02*
X13750872Y-15828802D01*
X13750872Y-15828802D02*
X13741349Y-15809755D01*
X13741349Y-15809755D02*
X13731825Y-15800231D01*
X13731825Y-15800231D02*
X13712777Y-15790707D01*
X13712777Y-15790707D02*
X13674682Y-15790707D01*
X13674682Y-15790707D02*
X13655634Y-15800231D01*
X13655634Y-15800231D02*
X13646110Y-15809755D01*
X13646110Y-15809755D02*
X13636587Y-15828802D01*
X13636587Y-15828802D02*
X13636587Y-15876421D01*
X13636587Y-15876421D02*
X13646110Y-15895469D01*
X13646110Y-15895469D02*
X13655634Y-15904993D01*
X13655634Y-15904993D02*
X13674682Y-15914517D01*
X13674682Y-15914517D02*
X13712777Y-15914517D01*
X13712777Y-15914517D02*
X13731825Y-15904993D01*
X13731825Y-15904993D02*
X13741349Y-15895469D01*
X13741349Y-15895469D02*
X13750872Y-15876421D01*
X13988968Y-15990707D02*
X13988968Y-15790707D01*
X14074682Y-15990707D02*
X14074682Y-15885945D01*
X14074682Y-15885945D02*
X14065158Y-15866898D01*
X14065158Y-15866898D02*
X14046111Y-15857374D01*
X14046111Y-15857374D02*
X14017539Y-15857374D01*
X14017539Y-15857374D02*
X13998491Y-15866898D01*
X13998491Y-15866898D02*
X13988968Y-15876421D01*
X14198491Y-15990707D02*
X14179444Y-15981183D01*
X14179444Y-15981183D02*
X14169920Y-15971660D01*
X14169920Y-15971660D02*
X14160396Y-15952612D01*
X14160396Y-15952612D02*
X14160396Y-15895469D01*
X14160396Y-15895469D02*
X14169920Y-15876421D01*
X14169920Y-15876421D02*
X14179444Y-15866898D01*
X14179444Y-15866898D02*
X14198491Y-15857374D01*
X14198491Y-15857374D02*
X14227063Y-15857374D01*
X14227063Y-15857374D02*
X14246111Y-15866898D01*
X14246111Y-15866898D02*
X14255634Y-15876421D01*
X14255634Y-15876421D02*
X14265158Y-15895469D01*
X14265158Y-15895469D02*
X14265158Y-15952612D01*
X14265158Y-15952612D02*
X14255634Y-15971660D01*
X14255634Y-15971660D02*
X14246111Y-15981183D01*
X14246111Y-15981183D02*
X14227063Y-15990707D01*
X14227063Y-15990707D02*
X14198491Y-15990707D01*
X14379444Y-15990707D02*
X14360396Y-15981183D01*
X14360396Y-15981183D02*
X14350872Y-15962136D01*
X14350872Y-15962136D02*
X14350872Y-15790707D01*
X14531825Y-15981183D02*
X14512777Y-15990707D01*
X14512777Y-15990707D02*
X14474682Y-15990707D01*
X14474682Y-15990707D02*
X14455634Y-15981183D01*
X14455634Y-15981183D02*
X14446111Y-15962136D01*
X14446111Y-15962136D02*
X14446111Y-15885945D01*
X14446111Y-15885945D02*
X14455634Y-15866898D01*
X14455634Y-15866898D02*
X14474682Y-15857374D01*
X14474682Y-15857374D02*
X14512777Y-15857374D01*
X14512777Y-15857374D02*
X14531825Y-15866898D01*
X14531825Y-15866898D02*
X14541349Y-15885945D01*
X14541349Y-15885945D02*
X14541349Y-15904993D01*
X14541349Y-15904993D02*
X14446111Y-15924041D01*
X14617539Y-15981183D02*
X14636587Y-15990707D01*
X14636587Y-15990707D02*
X14674682Y-15990707D01*
X14674682Y-15990707D02*
X14693730Y-15981183D01*
X14693730Y-15981183D02*
X14703253Y-15962136D01*
X14703253Y-15962136D02*
X14703253Y-15952612D01*
X14703253Y-15952612D02*
X14693730Y-15933564D01*
X14693730Y-15933564D02*
X14674682Y-15924041D01*
X14674682Y-15924041D02*
X14646111Y-15924041D01*
X14646111Y-15924041D02*
X14627063Y-15914517D01*
X14627063Y-15914517D02*
X14617539Y-15895469D01*
X14617539Y-15895469D02*
X14617539Y-15885945D01*
X14617539Y-15885945D02*
X14627063Y-15866898D01*
X14627063Y-15866898D02*
X14646111Y-15857374D01*
X14646111Y-15857374D02*
X14674682Y-15857374D01*
X14674682Y-15857374D02*
X14693730Y-15866898D01*
X14769920Y-16066898D02*
X14779444Y-16057374D01*
X14779444Y-16057374D02*
X14798492Y-16028802D01*
X14798492Y-16028802D02*
X14808015Y-16009755D01*
X14808015Y-16009755D02*
X14817539Y-15981183D01*
X14817539Y-15981183D02*
X14827063Y-15933564D01*
X14827063Y-15933564D02*
X14827063Y-15895469D01*
X14827063Y-15895469D02*
X14817539Y-15847850D01*
X14817539Y-15847850D02*
X14808015Y-15819279D01*
X14808015Y-15819279D02*
X14798492Y-15800231D01*
X14798492Y-15800231D02*
X14779444Y-15771660D01*
X14779444Y-15771660D02*
X14769920Y-15762136D01*
D10*
X9974857Y-16143223D02*
X9974857Y-16183223D01*
X9954857Y-16163223D02*
X9994857Y-16163223D01*
D11*
X10293729Y-16054707D02*
X10312777Y-16054707D01*
X10312777Y-16054707D02*
X10331825Y-16064231D01*
X10331825Y-16064231D02*
X10341348Y-16073755D01*
X10341348Y-16073755D02*
X10350872Y-16092802D01*
X10350872Y-16092802D02*
X10360396Y-16130898D01*
X10360396Y-16130898D02*
X10360396Y-16178517D01*
X10360396Y-16178517D02*
X10350872Y-16216612D01*
X10350872Y-16216612D02*
X10341348Y-16235660D01*
X10341348Y-16235660D02*
X10331825Y-16245183D01*
X10331825Y-16245183D02*
X10312777Y-16254707D01*
X10312777Y-16254707D02*
X10293729Y-16254707D01*
X10293729Y-16254707D02*
X10274682Y-16245183D01*
X10274682Y-16245183D02*
X10265158Y-16235660D01*
X10265158Y-16235660D02*
X10255634Y-16216612D01*
X10255634Y-16216612D02*
X10246110Y-16178517D01*
X10246110Y-16178517D02*
X10246110Y-16130898D01*
X10246110Y-16130898D02*
X10255634Y-16092802D01*
X10255634Y-16092802D02*
X10265158Y-16073755D01*
X10265158Y-16073755D02*
X10274682Y-16064231D01*
X10274682Y-16064231D02*
X10293729Y-16054707D01*
X10446110Y-16235660D02*
X10455634Y-16245183D01*
X10455634Y-16245183D02*
X10446110Y-16254707D01*
X10446110Y-16254707D02*
X10436586Y-16245183D01*
X10436586Y-16245183D02*
X10446110Y-16235660D01*
X10446110Y-16235660D02*
X10446110Y-16254707D01*
X10627063Y-16121374D02*
X10627063Y-16254707D01*
X10579444Y-16045183D02*
X10531825Y-16188041D01*
X10531825Y-16188041D02*
X10655634Y-16188041D01*
X10769920Y-16054707D02*
X10788967Y-16054707D01*
X10788967Y-16054707D02*
X10808015Y-16064231D01*
X10808015Y-16064231D02*
X10817539Y-16073755D01*
X10817539Y-16073755D02*
X10827063Y-16092802D01*
X10827063Y-16092802D02*
X10836586Y-16130898D01*
X10836586Y-16130898D02*
X10836586Y-16178517D01*
X10836586Y-16178517D02*
X10827063Y-16216612D01*
X10827063Y-16216612D02*
X10817539Y-16235660D01*
X10817539Y-16235660D02*
X10808015Y-16245183D01*
X10808015Y-16245183D02*
X10788967Y-16254707D01*
X10788967Y-16254707D02*
X10769920Y-16254707D01*
X10769920Y-16254707D02*
X10750872Y-16245183D01*
X10750872Y-16245183D02*
X10741348Y-16235660D01*
X10741348Y-16235660D02*
X10731825Y-16216612D01*
X10731825Y-16216612D02*
X10722301Y-16178517D01*
X10722301Y-16178517D02*
X10722301Y-16130898D01*
X10722301Y-16130898D02*
X10731825Y-16092802D01*
X10731825Y-16092802D02*
X10741348Y-16073755D01*
X10741348Y-16073755D02*
X10750872Y-16064231D01*
X10750872Y-16064231D02*
X10769920Y-16054707D01*
X10960396Y-16054707D02*
X10979444Y-16054707D01*
X10979444Y-16054707D02*
X10998491Y-16064231D01*
X10998491Y-16064231D02*
X11008015Y-16073755D01*
X11008015Y-16073755D02*
X11017539Y-16092802D01*
X11017539Y-16092802D02*
X11027063Y-16130898D01*
X11027063Y-16130898D02*
X11027063Y-16178517D01*
X11027063Y-16178517D02*
X11017539Y-16216612D01*
X11017539Y-16216612D02*
X11008015Y-16235660D01*
X11008015Y-16235660D02*
X10998491Y-16245183D01*
X10998491Y-16245183D02*
X10979444Y-16254707D01*
X10979444Y-16254707D02*
X10960396Y-16254707D01*
X10960396Y-16254707D02*
X10941348Y-16245183D01*
X10941348Y-16245183D02*
X10931825Y-16235660D01*
X10931825Y-16235660D02*
X10922301Y-16216612D01*
X10922301Y-16216612D02*
X10912777Y-16178517D01*
X10912777Y-16178517D02*
X10912777Y-16130898D01*
X10912777Y-16130898D02*
X10922301Y-16092802D01*
X10922301Y-16092802D02*
X10931825Y-16073755D01*
X10931825Y-16073755D02*
X10941348Y-16064231D01*
X10941348Y-16064231D02*
X10960396Y-16054707D01*
X11112777Y-16254707D02*
X11112777Y-16121374D01*
X11112777Y-16140421D02*
X11122301Y-16130898D01*
X11122301Y-16130898D02*
X11141348Y-16121374D01*
X11141348Y-16121374D02*
X11169920Y-16121374D01*
X11169920Y-16121374D02*
X11188967Y-16130898D01*
X11188967Y-16130898D02*
X11198491Y-16149945D01*
X11198491Y-16149945D02*
X11198491Y-16254707D01*
X11198491Y-16149945D02*
X11208015Y-16130898D01*
X11208015Y-16130898D02*
X11227063Y-16121374D01*
X11227063Y-16121374D02*
X11255634Y-16121374D01*
X11255634Y-16121374D02*
X11274682Y-16130898D01*
X11274682Y-16130898D02*
X11284205Y-16149945D01*
X11284205Y-16149945D02*
X11284205Y-16254707D01*
X11379444Y-16254707D02*
X11379444Y-16121374D01*
X11379444Y-16140421D02*
X11388967Y-16130898D01*
X11388967Y-16130898D02*
X11408015Y-16121374D01*
X11408015Y-16121374D02*
X11436586Y-16121374D01*
X11436586Y-16121374D02*
X11455634Y-16130898D01*
X11455634Y-16130898D02*
X11465158Y-16149945D01*
X11465158Y-16149945D02*
X11465158Y-16254707D01*
X11465158Y-16149945D02*
X11474682Y-16130898D01*
X11474682Y-16130898D02*
X11493729Y-16121374D01*
X11493729Y-16121374D02*
X11522301Y-16121374D01*
X11522301Y-16121374D02*
X11541348Y-16130898D01*
X11541348Y-16130898D02*
X11550872Y-16149945D01*
X11550872Y-16149945D02*
X11550872Y-16254707D01*
X11941348Y-16045183D02*
X11769920Y-16302326D01*
X12198491Y-16054707D02*
X12217539Y-16054707D01*
X12217539Y-16054707D02*
X12236587Y-16064231D01*
X12236587Y-16064231D02*
X12246110Y-16073755D01*
X12246110Y-16073755D02*
X12255634Y-16092802D01*
X12255634Y-16092802D02*
X12265158Y-16130898D01*
X12265158Y-16130898D02*
X12265158Y-16178517D01*
X12265158Y-16178517D02*
X12255634Y-16216612D01*
X12255634Y-16216612D02*
X12246110Y-16235660D01*
X12246110Y-16235660D02*
X12236587Y-16245183D01*
X12236587Y-16245183D02*
X12217539Y-16254707D01*
X12217539Y-16254707D02*
X12198491Y-16254707D01*
X12198491Y-16254707D02*
X12179444Y-16245183D01*
X12179444Y-16245183D02*
X12169920Y-16235660D01*
X12169920Y-16235660D02*
X12160396Y-16216612D01*
X12160396Y-16216612D02*
X12150872Y-16178517D01*
X12150872Y-16178517D02*
X12150872Y-16130898D01*
X12150872Y-16130898D02*
X12160396Y-16092802D01*
X12160396Y-16092802D02*
X12169920Y-16073755D01*
X12169920Y-16073755D02*
X12179444Y-16064231D01*
X12179444Y-16064231D02*
X12198491Y-16054707D01*
X12350872Y-16235660D02*
X12360396Y-16245183D01*
X12360396Y-16245183D02*
X12350872Y-16254707D01*
X12350872Y-16254707D02*
X12341348Y-16245183D01*
X12341348Y-16245183D02*
X12350872Y-16235660D01*
X12350872Y-16235660D02*
X12350872Y-16254707D01*
X12484206Y-16054707D02*
X12503253Y-16054707D01*
X12503253Y-16054707D02*
X12522301Y-16064231D01*
X12522301Y-16064231D02*
X12531825Y-16073755D01*
X12531825Y-16073755D02*
X12541348Y-16092802D01*
X12541348Y-16092802D02*
X12550872Y-16130898D01*
X12550872Y-16130898D02*
X12550872Y-16178517D01*
X12550872Y-16178517D02*
X12541348Y-16216612D01*
X12541348Y-16216612D02*
X12531825Y-16235660D01*
X12531825Y-16235660D02*
X12522301Y-16245183D01*
X12522301Y-16245183D02*
X12503253Y-16254707D01*
X12503253Y-16254707D02*
X12484206Y-16254707D01*
X12484206Y-16254707D02*
X12465158Y-16245183D01*
X12465158Y-16245183D02*
X12455634Y-16235660D01*
X12455634Y-16235660D02*
X12446110Y-16216612D01*
X12446110Y-16216612D02*
X12436587Y-16178517D01*
X12436587Y-16178517D02*
X12436587Y-16130898D01*
X12436587Y-16130898D02*
X12446110Y-16092802D01*
X12446110Y-16092802D02*
X12455634Y-16073755D01*
X12455634Y-16073755D02*
X12465158Y-16064231D01*
X12465158Y-16064231D02*
X12484206Y-16054707D01*
X12741348Y-16254707D02*
X12627063Y-16254707D01*
X12684206Y-16254707D02*
X12684206Y-16054707D01*
X12684206Y-16054707D02*
X12665158Y-16083279D01*
X12665158Y-16083279D02*
X12646110Y-16102326D01*
X12646110Y-16102326D02*
X12627063Y-16111850D01*
X12922301Y-16054707D02*
X12827063Y-16054707D01*
X12827063Y-16054707D02*
X12817539Y-16149945D01*
X12817539Y-16149945D02*
X12827063Y-16140421D01*
X12827063Y-16140421D02*
X12846110Y-16130898D01*
X12846110Y-16130898D02*
X12893729Y-16130898D01*
X12893729Y-16130898D02*
X12912777Y-16140421D01*
X12912777Y-16140421D02*
X12922301Y-16149945D01*
X12922301Y-16149945D02*
X12931825Y-16168993D01*
X12931825Y-16168993D02*
X12931825Y-16216612D01*
X12931825Y-16216612D02*
X12922301Y-16235660D01*
X12922301Y-16235660D02*
X12912777Y-16245183D01*
X12912777Y-16245183D02*
X12893729Y-16254707D01*
X12893729Y-16254707D02*
X12846110Y-16254707D01*
X12846110Y-16254707D02*
X12827063Y-16245183D01*
X12827063Y-16245183D02*
X12817539Y-16235660D01*
X12998491Y-16054707D02*
X13131825Y-16054707D01*
X13131825Y-16054707D02*
X13046110Y-16254707D01*
X13198491Y-16054707D02*
X13198491Y-16092802D01*
X13274682Y-16054707D02*
X13274682Y-16092802D01*
X13569920Y-16330898D02*
X13560396Y-16321374D01*
X13560396Y-16321374D02*
X13541349Y-16292802D01*
X13541349Y-16292802D02*
X13531825Y-16273755D01*
X13531825Y-16273755D02*
X13522301Y-16245183D01*
X13522301Y-16245183D02*
X13512777Y-16197564D01*
X13512777Y-16197564D02*
X13512777Y-16159469D01*
X13512777Y-16159469D02*
X13522301Y-16111850D01*
X13522301Y-16111850D02*
X13531825Y-16083279D01*
X13531825Y-16083279D02*
X13541349Y-16064231D01*
X13541349Y-16064231D02*
X13560396Y-16035660D01*
X13560396Y-16035660D02*
X13569920Y-16026136D01*
X13731825Y-16121374D02*
X13731825Y-16254707D01*
X13684206Y-16045183D02*
X13636587Y-16188041D01*
X13636587Y-16188041D02*
X13760396Y-16188041D01*
X13827063Y-16073755D02*
X13836587Y-16064231D01*
X13836587Y-16064231D02*
X13855634Y-16054707D01*
X13855634Y-16054707D02*
X13903253Y-16054707D01*
X13903253Y-16054707D02*
X13922301Y-16064231D01*
X13922301Y-16064231D02*
X13931825Y-16073755D01*
X13931825Y-16073755D02*
X13941349Y-16092802D01*
X13941349Y-16092802D02*
X13941349Y-16111850D01*
X13941349Y-16111850D02*
X13931825Y-16140421D01*
X13931825Y-16140421D02*
X13817539Y-16254707D01*
X13817539Y-16254707D02*
X13941349Y-16254707D01*
X14179444Y-16254707D02*
X14179444Y-16054707D01*
X14265158Y-16254707D02*
X14265158Y-16149945D01*
X14265158Y-16149945D02*
X14255634Y-16130898D01*
X14255634Y-16130898D02*
X14236587Y-16121374D01*
X14236587Y-16121374D02*
X14208015Y-16121374D01*
X14208015Y-16121374D02*
X14188968Y-16130898D01*
X14188968Y-16130898D02*
X14179444Y-16140421D01*
X14388968Y-16254707D02*
X14369920Y-16245183D01*
X14369920Y-16245183D02*
X14360396Y-16235660D01*
X14360396Y-16235660D02*
X14350872Y-16216612D01*
X14350872Y-16216612D02*
X14350872Y-16159469D01*
X14350872Y-16159469D02*
X14360396Y-16140421D01*
X14360396Y-16140421D02*
X14369920Y-16130898D01*
X14369920Y-16130898D02*
X14388968Y-16121374D01*
X14388968Y-16121374D02*
X14417539Y-16121374D01*
X14417539Y-16121374D02*
X14436587Y-16130898D01*
X14436587Y-16130898D02*
X14446111Y-16140421D01*
X14446111Y-16140421D02*
X14455634Y-16159469D01*
X14455634Y-16159469D02*
X14455634Y-16216612D01*
X14455634Y-16216612D02*
X14446111Y-16235660D01*
X14446111Y-16235660D02*
X14436587Y-16245183D01*
X14436587Y-16245183D02*
X14417539Y-16254707D01*
X14417539Y-16254707D02*
X14388968Y-16254707D01*
X14569920Y-16254707D02*
X14550872Y-16245183D01*
X14550872Y-16245183D02*
X14541349Y-16226136D01*
X14541349Y-16226136D02*
X14541349Y-16054707D01*
X14722301Y-16245183D02*
X14703253Y-16254707D01*
X14703253Y-16254707D02*
X14665158Y-16254707D01*
X14665158Y-16254707D02*
X14646111Y-16245183D01*
X14646111Y-16245183D02*
X14636587Y-16226136D01*
X14636587Y-16226136D02*
X14636587Y-16149945D01*
X14636587Y-16149945D02*
X14646111Y-16130898D01*
X14646111Y-16130898D02*
X14665158Y-16121374D01*
X14665158Y-16121374D02*
X14703253Y-16121374D01*
X14703253Y-16121374D02*
X14722301Y-16130898D01*
X14722301Y-16130898D02*
X14731825Y-16149945D01*
X14731825Y-16149945D02*
X14731825Y-16168993D01*
X14731825Y-16168993D02*
X14636587Y-16188041D01*
X14808015Y-16245183D02*
X14827063Y-16254707D01*
X14827063Y-16254707D02*
X14865158Y-16254707D01*
X14865158Y-16254707D02*
X14884206Y-16245183D01*
X14884206Y-16245183D02*
X14893730Y-16226136D01*
X14893730Y-16226136D02*
X14893730Y-16216612D01*
X14893730Y-16216612D02*
X14884206Y-16197564D01*
X14884206Y-16197564D02*
X14865158Y-16188041D01*
X14865158Y-16188041D02*
X14836587Y-16188041D01*
X14836587Y-16188041D02*
X14817539Y-16178517D01*
X14817539Y-16178517D02*
X14808015Y-16159469D01*
X14808015Y-16159469D02*
X14808015Y-16149945D01*
X14808015Y-16149945D02*
X14817539Y-16130898D01*
X14817539Y-16130898D02*
X14836587Y-16121374D01*
X14836587Y-16121374D02*
X14865158Y-16121374D01*
X14865158Y-16121374D02*
X14884206Y-16130898D01*
X14960396Y-16330898D02*
X14969920Y-16321374D01*
X14969920Y-16321374D02*
X14988968Y-16292802D01*
X14988968Y-16292802D02*
X14998492Y-16273755D01*
X14998492Y-16273755D02*
X15008015Y-16245183D01*
X15008015Y-16245183D02*
X15017539Y-16197564D01*
X15017539Y-16197564D02*
X15017539Y-16159469D01*
X15017539Y-16159469D02*
X15008015Y-16111850D01*
X15008015Y-16111850D02*
X14998492Y-16083279D01*
X14998492Y-16083279D02*
X14988968Y-16064231D01*
X14988968Y-16064231D02*
X14969920Y-16035660D01*
X14969920Y-16035660D02*
X14960396Y-16026136D01*
D10*
X9984020Y-16453387D02*
X9984020Y-16401060D01*
X9931694Y-16401060D01*
X9931694Y-16453387D01*
X9984020Y-16453387D01*
D11*
X10293729Y-16318707D02*
X10312777Y-16318707D01*
X10312777Y-16318707D02*
X10331825Y-16328231D01*
X10331825Y-16328231D02*
X10341348Y-16337755D01*
X10341348Y-16337755D02*
X10350872Y-16356802D01*
X10350872Y-16356802D02*
X10360396Y-16394898D01*
X10360396Y-16394898D02*
X10360396Y-16442517D01*
X10360396Y-16442517D02*
X10350872Y-16480612D01*
X10350872Y-16480612D02*
X10341348Y-16499660D01*
X10341348Y-16499660D02*
X10331825Y-16509183D01*
X10331825Y-16509183D02*
X10312777Y-16518707D01*
X10312777Y-16518707D02*
X10293729Y-16518707D01*
X10293729Y-16518707D02*
X10274682Y-16509183D01*
X10274682Y-16509183D02*
X10265158Y-16499660D01*
X10265158Y-16499660D02*
X10255634Y-16480612D01*
X10255634Y-16480612D02*
X10246110Y-16442517D01*
X10246110Y-16442517D02*
X10246110Y-16394898D01*
X10246110Y-16394898D02*
X10255634Y-16356802D01*
X10255634Y-16356802D02*
X10265158Y-16337755D01*
X10265158Y-16337755D02*
X10274682Y-16328231D01*
X10274682Y-16328231D02*
X10293729Y-16318707D01*
X10446110Y-16499660D02*
X10455634Y-16509183D01*
X10455634Y-16509183D02*
X10446110Y-16518707D01*
X10446110Y-16518707D02*
X10436586Y-16509183D01*
X10436586Y-16509183D02*
X10446110Y-16499660D01*
X10446110Y-16499660D02*
X10446110Y-16518707D01*
X10522301Y-16318707D02*
X10655634Y-16318707D01*
X10655634Y-16318707D02*
X10569920Y-16518707D01*
X10817539Y-16385374D02*
X10817539Y-16518707D01*
X10769920Y-16309183D02*
X10722301Y-16452041D01*
X10722301Y-16452041D02*
X10846110Y-16452041D01*
X10960396Y-16318707D02*
X10979444Y-16318707D01*
X10979444Y-16318707D02*
X10998491Y-16328231D01*
X10998491Y-16328231D02*
X11008015Y-16337755D01*
X11008015Y-16337755D02*
X11017539Y-16356802D01*
X11017539Y-16356802D02*
X11027063Y-16394898D01*
X11027063Y-16394898D02*
X11027063Y-16442517D01*
X11027063Y-16442517D02*
X11017539Y-16480612D01*
X11017539Y-16480612D02*
X11008015Y-16499660D01*
X11008015Y-16499660D02*
X10998491Y-16509183D01*
X10998491Y-16509183D02*
X10979444Y-16518707D01*
X10979444Y-16518707D02*
X10960396Y-16518707D01*
X10960396Y-16518707D02*
X10941348Y-16509183D01*
X10941348Y-16509183D02*
X10931825Y-16499660D01*
X10931825Y-16499660D02*
X10922301Y-16480612D01*
X10922301Y-16480612D02*
X10912777Y-16442517D01*
X10912777Y-16442517D02*
X10912777Y-16394898D01*
X10912777Y-16394898D02*
X10922301Y-16356802D01*
X10922301Y-16356802D02*
X10931825Y-16337755D01*
X10931825Y-16337755D02*
X10941348Y-16328231D01*
X10941348Y-16328231D02*
X10960396Y-16318707D01*
X11112777Y-16518707D02*
X11112777Y-16385374D01*
X11112777Y-16404421D02*
X11122301Y-16394898D01*
X11122301Y-16394898D02*
X11141348Y-16385374D01*
X11141348Y-16385374D02*
X11169920Y-16385374D01*
X11169920Y-16385374D02*
X11188967Y-16394898D01*
X11188967Y-16394898D02*
X11198491Y-16413945D01*
X11198491Y-16413945D02*
X11198491Y-16518707D01*
X11198491Y-16413945D02*
X11208015Y-16394898D01*
X11208015Y-16394898D02*
X11227063Y-16385374D01*
X11227063Y-16385374D02*
X11255634Y-16385374D01*
X11255634Y-16385374D02*
X11274682Y-16394898D01*
X11274682Y-16394898D02*
X11284205Y-16413945D01*
X11284205Y-16413945D02*
X11284205Y-16518707D01*
X11379444Y-16518707D02*
X11379444Y-16385374D01*
X11379444Y-16404421D02*
X11388967Y-16394898D01*
X11388967Y-16394898D02*
X11408015Y-16385374D01*
X11408015Y-16385374D02*
X11436586Y-16385374D01*
X11436586Y-16385374D02*
X11455634Y-16394898D01*
X11455634Y-16394898D02*
X11465158Y-16413945D01*
X11465158Y-16413945D02*
X11465158Y-16518707D01*
X11465158Y-16413945D02*
X11474682Y-16394898D01*
X11474682Y-16394898D02*
X11493729Y-16385374D01*
X11493729Y-16385374D02*
X11522301Y-16385374D01*
X11522301Y-16385374D02*
X11541348Y-16394898D01*
X11541348Y-16394898D02*
X11550872Y-16413945D01*
X11550872Y-16413945D02*
X11550872Y-16518707D01*
X11941348Y-16309183D02*
X11769920Y-16566326D01*
X12198491Y-16318707D02*
X12217539Y-16318707D01*
X12217539Y-16318707D02*
X12236587Y-16328231D01*
X12236587Y-16328231D02*
X12246110Y-16337755D01*
X12246110Y-16337755D02*
X12255634Y-16356802D01*
X12255634Y-16356802D02*
X12265158Y-16394898D01*
X12265158Y-16394898D02*
X12265158Y-16442517D01*
X12265158Y-16442517D02*
X12255634Y-16480612D01*
X12255634Y-16480612D02*
X12246110Y-16499660D01*
X12246110Y-16499660D02*
X12236587Y-16509183D01*
X12236587Y-16509183D02*
X12217539Y-16518707D01*
X12217539Y-16518707D02*
X12198491Y-16518707D01*
X12198491Y-16518707D02*
X12179444Y-16509183D01*
X12179444Y-16509183D02*
X12169920Y-16499660D01*
X12169920Y-16499660D02*
X12160396Y-16480612D01*
X12160396Y-16480612D02*
X12150872Y-16442517D01*
X12150872Y-16442517D02*
X12150872Y-16394898D01*
X12150872Y-16394898D02*
X12160396Y-16356802D01*
X12160396Y-16356802D02*
X12169920Y-16337755D01*
X12169920Y-16337755D02*
X12179444Y-16328231D01*
X12179444Y-16328231D02*
X12198491Y-16318707D01*
X12350872Y-16499660D02*
X12360396Y-16509183D01*
X12360396Y-16509183D02*
X12350872Y-16518707D01*
X12350872Y-16518707D02*
X12341348Y-16509183D01*
X12341348Y-16509183D02*
X12350872Y-16499660D01*
X12350872Y-16499660D02*
X12350872Y-16518707D01*
X12484206Y-16318707D02*
X12503253Y-16318707D01*
X12503253Y-16318707D02*
X12522301Y-16328231D01*
X12522301Y-16328231D02*
X12531825Y-16337755D01*
X12531825Y-16337755D02*
X12541348Y-16356802D01*
X12541348Y-16356802D02*
X12550872Y-16394898D01*
X12550872Y-16394898D02*
X12550872Y-16442517D01*
X12550872Y-16442517D02*
X12541348Y-16480612D01*
X12541348Y-16480612D02*
X12531825Y-16499660D01*
X12531825Y-16499660D02*
X12522301Y-16509183D01*
X12522301Y-16509183D02*
X12503253Y-16518707D01*
X12503253Y-16518707D02*
X12484206Y-16518707D01*
X12484206Y-16518707D02*
X12465158Y-16509183D01*
X12465158Y-16509183D02*
X12455634Y-16499660D01*
X12455634Y-16499660D02*
X12446110Y-16480612D01*
X12446110Y-16480612D02*
X12436587Y-16442517D01*
X12436587Y-16442517D02*
X12436587Y-16394898D01*
X12436587Y-16394898D02*
X12446110Y-16356802D01*
X12446110Y-16356802D02*
X12455634Y-16337755D01*
X12455634Y-16337755D02*
X12465158Y-16328231D01*
X12465158Y-16328231D02*
X12484206Y-16318707D01*
X12627063Y-16337755D02*
X12636587Y-16328231D01*
X12636587Y-16328231D02*
X12655634Y-16318707D01*
X12655634Y-16318707D02*
X12703253Y-16318707D01*
X12703253Y-16318707D02*
X12722301Y-16328231D01*
X12722301Y-16328231D02*
X12731825Y-16337755D01*
X12731825Y-16337755D02*
X12741348Y-16356802D01*
X12741348Y-16356802D02*
X12741348Y-16375850D01*
X12741348Y-16375850D02*
X12731825Y-16404421D01*
X12731825Y-16404421D02*
X12617539Y-16518707D01*
X12617539Y-16518707D02*
X12741348Y-16518707D01*
X12836587Y-16518707D02*
X12874682Y-16518707D01*
X12874682Y-16518707D02*
X12893729Y-16509183D01*
X12893729Y-16509183D02*
X12903253Y-16499660D01*
X12903253Y-16499660D02*
X12922301Y-16471088D01*
X12922301Y-16471088D02*
X12931825Y-16432993D01*
X12931825Y-16432993D02*
X12931825Y-16356802D01*
X12931825Y-16356802D02*
X12922301Y-16337755D01*
X12922301Y-16337755D02*
X12912777Y-16328231D01*
X12912777Y-16328231D02*
X12893729Y-16318707D01*
X12893729Y-16318707D02*
X12855634Y-16318707D01*
X12855634Y-16318707D02*
X12836587Y-16328231D01*
X12836587Y-16328231D02*
X12827063Y-16337755D01*
X12827063Y-16337755D02*
X12817539Y-16356802D01*
X12817539Y-16356802D02*
X12817539Y-16404421D01*
X12817539Y-16404421D02*
X12827063Y-16423469D01*
X12827063Y-16423469D02*
X12836587Y-16432993D01*
X12836587Y-16432993D02*
X12855634Y-16442517D01*
X12855634Y-16442517D02*
X12893729Y-16442517D01*
X12893729Y-16442517D02*
X12912777Y-16432993D01*
X12912777Y-16432993D02*
X12922301Y-16423469D01*
X12922301Y-16423469D02*
X12931825Y-16404421D01*
X13122301Y-16518707D02*
X13008015Y-16518707D01*
X13065158Y-16518707D02*
X13065158Y-16318707D01*
X13065158Y-16318707D02*
X13046110Y-16347279D01*
X13046110Y-16347279D02*
X13027063Y-16366326D01*
X13027063Y-16366326D02*
X13008015Y-16375850D01*
X13198491Y-16318707D02*
X13198491Y-16356802D01*
X13274682Y-16318707D02*
X13274682Y-16356802D01*
X13569920Y-16594898D02*
X13560396Y-16585374D01*
X13560396Y-16585374D02*
X13541349Y-16556802D01*
X13541349Y-16556802D02*
X13531825Y-16537755D01*
X13531825Y-16537755D02*
X13522301Y-16509183D01*
X13522301Y-16509183D02*
X13512777Y-16461564D01*
X13512777Y-16461564D02*
X13512777Y-16423469D01*
X13512777Y-16423469D02*
X13522301Y-16375850D01*
X13522301Y-16375850D02*
X13531825Y-16347279D01*
X13531825Y-16347279D02*
X13541349Y-16328231D01*
X13541349Y-16328231D02*
X13560396Y-16299660D01*
X13560396Y-16299660D02*
X13569920Y-16290136D01*
X13750872Y-16518707D02*
X13636587Y-16518707D01*
X13693729Y-16518707D02*
X13693729Y-16318707D01*
X13693729Y-16318707D02*
X13674682Y-16347279D01*
X13674682Y-16347279D02*
X13655634Y-16366326D01*
X13655634Y-16366326D02*
X13636587Y-16375850D01*
X13922301Y-16318707D02*
X13884206Y-16318707D01*
X13884206Y-16318707D02*
X13865158Y-16328231D01*
X13865158Y-16328231D02*
X13855634Y-16337755D01*
X13855634Y-16337755D02*
X13836587Y-16366326D01*
X13836587Y-16366326D02*
X13827063Y-16404421D01*
X13827063Y-16404421D02*
X13827063Y-16480612D01*
X13827063Y-16480612D02*
X13836587Y-16499660D01*
X13836587Y-16499660D02*
X13846110Y-16509183D01*
X13846110Y-16509183D02*
X13865158Y-16518707D01*
X13865158Y-16518707D02*
X13903253Y-16518707D01*
X13903253Y-16518707D02*
X13922301Y-16509183D01*
X13922301Y-16509183D02*
X13931825Y-16499660D01*
X13931825Y-16499660D02*
X13941349Y-16480612D01*
X13941349Y-16480612D02*
X13941349Y-16432993D01*
X13941349Y-16432993D02*
X13931825Y-16413945D01*
X13931825Y-16413945D02*
X13922301Y-16404421D01*
X13922301Y-16404421D02*
X13903253Y-16394898D01*
X13903253Y-16394898D02*
X13865158Y-16394898D01*
X13865158Y-16394898D02*
X13846110Y-16404421D01*
X13846110Y-16404421D02*
X13836587Y-16413945D01*
X13836587Y-16413945D02*
X13827063Y-16432993D01*
X14179444Y-16518707D02*
X14179444Y-16318707D01*
X14265158Y-16518707D02*
X14265158Y-16413945D01*
X14265158Y-16413945D02*
X14255634Y-16394898D01*
X14255634Y-16394898D02*
X14236587Y-16385374D01*
X14236587Y-16385374D02*
X14208015Y-16385374D01*
X14208015Y-16385374D02*
X14188968Y-16394898D01*
X14188968Y-16394898D02*
X14179444Y-16404421D01*
X14388968Y-16518707D02*
X14369920Y-16509183D01*
X14369920Y-16509183D02*
X14360396Y-16499660D01*
X14360396Y-16499660D02*
X14350872Y-16480612D01*
X14350872Y-16480612D02*
X14350872Y-16423469D01*
X14350872Y-16423469D02*
X14360396Y-16404421D01*
X14360396Y-16404421D02*
X14369920Y-16394898D01*
X14369920Y-16394898D02*
X14388968Y-16385374D01*
X14388968Y-16385374D02*
X14417539Y-16385374D01*
X14417539Y-16385374D02*
X14436587Y-16394898D01*
X14436587Y-16394898D02*
X14446111Y-16404421D01*
X14446111Y-16404421D02*
X14455634Y-16423469D01*
X14455634Y-16423469D02*
X14455634Y-16480612D01*
X14455634Y-16480612D02*
X14446111Y-16499660D01*
X14446111Y-16499660D02*
X14436587Y-16509183D01*
X14436587Y-16509183D02*
X14417539Y-16518707D01*
X14417539Y-16518707D02*
X14388968Y-16518707D01*
X14569920Y-16518707D02*
X14550872Y-16509183D01*
X14550872Y-16509183D02*
X14541349Y-16490136D01*
X14541349Y-16490136D02*
X14541349Y-16318707D01*
X14722301Y-16509183D02*
X14703253Y-16518707D01*
X14703253Y-16518707D02*
X14665158Y-16518707D01*
X14665158Y-16518707D02*
X14646111Y-16509183D01*
X14646111Y-16509183D02*
X14636587Y-16490136D01*
X14636587Y-16490136D02*
X14636587Y-16413945D01*
X14636587Y-16413945D02*
X14646111Y-16394898D01*
X14646111Y-16394898D02*
X14665158Y-16385374D01*
X14665158Y-16385374D02*
X14703253Y-16385374D01*
X14703253Y-16385374D02*
X14722301Y-16394898D01*
X14722301Y-16394898D02*
X14731825Y-16413945D01*
X14731825Y-16413945D02*
X14731825Y-16432993D01*
X14731825Y-16432993D02*
X14636587Y-16452041D01*
X14808015Y-16509183D02*
X14827063Y-16518707D01*
X14827063Y-16518707D02*
X14865158Y-16518707D01*
X14865158Y-16518707D02*
X14884206Y-16509183D01*
X14884206Y-16509183D02*
X14893730Y-16490136D01*
X14893730Y-16490136D02*
X14893730Y-16480612D01*
X14893730Y-16480612D02*
X14884206Y-16461564D01*
X14884206Y-16461564D02*
X14865158Y-16452041D01*
X14865158Y-16452041D02*
X14836587Y-16452041D01*
X14836587Y-16452041D02*
X14817539Y-16442517D01*
X14817539Y-16442517D02*
X14808015Y-16423469D01*
X14808015Y-16423469D02*
X14808015Y-16413945D01*
X14808015Y-16413945D02*
X14817539Y-16394898D01*
X14817539Y-16394898D02*
X14836587Y-16385374D01*
X14836587Y-16385374D02*
X14865158Y-16385374D01*
X14865158Y-16385374D02*
X14884206Y-16394898D01*
X14960396Y-16594898D02*
X14969920Y-16585374D01*
X14969920Y-16585374D02*
X14988968Y-16556802D01*
X14988968Y-16556802D02*
X14998492Y-16537755D01*
X14998492Y-16537755D02*
X15008015Y-16509183D01*
X15008015Y-16509183D02*
X15017539Y-16461564D01*
X15017539Y-16461564D02*
X15017539Y-16423469D01*
X15017539Y-16423469D02*
X15008015Y-16375850D01*
X15008015Y-16375850D02*
X14998492Y-16347279D01*
X14998492Y-16347279D02*
X14988968Y-16328231D01*
X14988968Y-16328231D02*
X14969920Y-16299660D01*
X14969920Y-16299660D02*
X14960396Y-16290136D01*
D10*
X9944857Y-16741223D02*
X9994857Y-16691223D01*
X9944857Y-16641223D01*
X9894857Y-16691223D01*
X9944857Y-16741223D01*
D11*
X10360396Y-16782707D02*
X10246110Y-16782707D01*
X10303253Y-16782707D02*
X10303253Y-16582707D01*
X10303253Y-16582707D02*
X10284205Y-16611279D01*
X10284205Y-16611279D02*
X10265158Y-16630326D01*
X10265158Y-16630326D02*
X10246110Y-16639850D01*
X10446110Y-16763660D02*
X10455634Y-16773183D01*
X10455634Y-16773183D02*
X10446110Y-16782707D01*
X10446110Y-16782707D02*
X10436586Y-16773183D01*
X10436586Y-16773183D02*
X10446110Y-16763660D01*
X10446110Y-16763660D02*
X10446110Y-16782707D01*
X10579444Y-16582707D02*
X10598491Y-16582707D01*
X10598491Y-16582707D02*
X10617539Y-16592231D01*
X10617539Y-16592231D02*
X10627063Y-16601755D01*
X10627063Y-16601755D02*
X10636586Y-16620802D01*
X10636586Y-16620802D02*
X10646110Y-16658898D01*
X10646110Y-16658898D02*
X10646110Y-16706517D01*
X10646110Y-16706517D02*
X10636586Y-16744612D01*
X10636586Y-16744612D02*
X10627063Y-16763660D01*
X10627063Y-16763660D02*
X10617539Y-16773183D01*
X10617539Y-16773183D02*
X10598491Y-16782707D01*
X10598491Y-16782707D02*
X10579444Y-16782707D01*
X10579444Y-16782707D02*
X10560396Y-16773183D01*
X10560396Y-16773183D02*
X10550872Y-16763660D01*
X10550872Y-16763660D02*
X10541348Y-16744612D01*
X10541348Y-16744612D02*
X10531825Y-16706517D01*
X10531825Y-16706517D02*
X10531825Y-16658898D01*
X10531825Y-16658898D02*
X10541348Y-16620802D01*
X10541348Y-16620802D02*
X10550872Y-16601755D01*
X10550872Y-16601755D02*
X10560396Y-16592231D01*
X10560396Y-16592231D02*
X10579444Y-16582707D01*
X10769920Y-16582707D02*
X10788967Y-16582707D01*
X10788967Y-16582707D02*
X10808015Y-16592231D01*
X10808015Y-16592231D02*
X10817539Y-16601755D01*
X10817539Y-16601755D02*
X10827063Y-16620802D01*
X10827063Y-16620802D02*
X10836586Y-16658898D01*
X10836586Y-16658898D02*
X10836586Y-16706517D01*
X10836586Y-16706517D02*
X10827063Y-16744612D01*
X10827063Y-16744612D02*
X10817539Y-16763660D01*
X10817539Y-16763660D02*
X10808015Y-16773183D01*
X10808015Y-16773183D02*
X10788967Y-16782707D01*
X10788967Y-16782707D02*
X10769920Y-16782707D01*
X10769920Y-16782707D02*
X10750872Y-16773183D01*
X10750872Y-16773183D02*
X10741348Y-16763660D01*
X10741348Y-16763660D02*
X10731825Y-16744612D01*
X10731825Y-16744612D02*
X10722301Y-16706517D01*
X10722301Y-16706517D02*
X10722301Y-16658898D01*
X10722301Y-16658898D02*
X10731825Y-16620802D01*
X10731825Y-16620802D02*
X10741348Y-16601755D01*
X10741348Y-16601755D02*
X10750872Y-16592231D01*
X10750872Y-16592231D02*
X10769920Y-16582707D01*
X10960396Y-16582707D02*
X10979444Y-16582707D01*
X10979444Y-16582707D02*
X10998491Y-16592231D01*
X10998491Y-16592231D02*
X11008015Y-16601755D01*
X11008015Y-16601755D02*
X11017539Y-16620802D01*
X11017539Y-16620802D02*
X11027063Y-16658898D01*
X11027063Y-16658898D02*
X11027063Y-16706517D01*
X11027063Y-16706517D02*
X11017539Y-16744612D01*
X11017539Y-16744612D02*
X11008015Y-16763660D01*
X11008015Y-16763660D02*
X10998491Y-16773183D01*
X10998491Y-16773183D02*
X10979444Y-16782707D01*
X10979444Y-16782707D02*
X10960396Y-16782707D01*
X10960396Y-16782707D02*
X10941348Y-16773183D01*
X10941348Y-16773183D02*
X10931825Y-16763660D01*
X10931825Y-16763660D02*
X10922301Y-16744612D01*
X10922301Y-16744612D02*
X10912777Y-16706517D01*
X10912777Y-16706517D02*
X10912777Y-16658898D01*
X10912777Y-16658898D02*
X10922301Y-16620802D01*
X10922301Y-16620802D02*
X10931825Y-16601755D01*
X10931825Y-16601755D02*
X10941348Y-16592231D01*
X10941348Y-16592231D02*
X10960396Y-16582707D01*
X11112777Y-16782707D02*
X11112777Y-16649374D01*
X11112777Y-16668421D02*
X11122301Y-16658898D01*
X11122301Y-16658898D02*
X11141348Y-16649374D01*
X11141348Y-16649374D02*
X11169920Y-16649374D01*
X11169920Y-16649374D02*
X11188967Y-16658898D01*
X11188967Y-16658898D02*
X11198491Y-16677945D01*
X11198491Y-16677945D02*
X11198491Y-16782707D01*
X11198491Y-16677945D02*
X11208015Y-16658898D01*
X11208015Y-16658898D02*
X11227063Y-16649374D01*
X11227063Y-16649374D02*
X11255634Y-16649374D01*
X11255634Y-16649374D02*
X11274682Y-16658898D01*
X11274682Y-16658898D02*
X11284205Y-16677945D01*
X11284205Y-16677945D02*
X11284205Y-16782707D01*
X11379444Y-16782707D02*
X11379444Y-16649374D01*
X11379444Y-16668421D02*
X11388967Y-16658898D01*
X11388967Y-16658898D02*
X11408015Y-16649374D01*
X11408015Y-16649374D02*
X11436586Y-16649374D01*
X11436586Y-16649374D02*
X11455634Y-16658898D01*
X11455634Y-16658898D02*
X11465158Y-16677945D01*
X11465158Y-16677945D02*
X11465158Y-16782707D01*
X11465158Y-16677945D02*
X11474682Y-16658898D01*
X11474682Y-16658898D02*
X11493729Y-16649374D01*
X11493729Y-16649374D02*
X11522301Y-16649374D01*
X11522301Y-16649374D02*
X11541348Y-16658898D01*
X11541348Y-16658898D02*
X11550872Y-16677945D01*
X11550872Y-16677945D02*
X11550872Y-16782707D01*
X11941348Y-16573183D02*
X11769920Y-16830326D01*
X12198491Y-16582707D02*
X12217539Y-16582707D01*
X12217539Y-16582707D02*
X12236587Y-16592231D01*
X12236587Y-16592231D02*
X12246110Y-16601755D01*
X12246110Y-16601755D02*
X12255634Y-16620802D01*
X12255634Y-16620802D02*
X12265158Y-16658898D01*
X12265158Y-16658898D02*
X12265158Y-16706517D01*
X12265158Y-16706517D02*
X12255634Y-16744612D01*
X12255634Y-16744612D02*
X12246110Y-16763660D01*
X12246110Y-16763660D02*
X12236587Y-16773183D01*
X12236587Y-16773183D02*
X12217539Y-16782707D01*
X12217539Y-16782707D02*
X12198491Y-16782707D01*
X12198491Y-16782707D02*
X12179444Y-16773183D01*
X12179444Y-16773183D02*
X12169920Y-16763660D01*
X12169920Y-16763660D02*
X12160396Y-16744612D01*
X12160396Y-16744612D02*
X12150872Y-16706517D01*
X12150872Y-16706517D02*
X12150872Y-16658898D01*
X12150872Y-16658898D02*
X12160396Y-16620802D01*
X12160396Y-16620802D02*
X12169920Y-16601755D01*
X12169920Y-16601755D02*
X12179444Y-16592231D01*
X12179444Y-16592231D02*
X12198491Y-16582707D01*
X12350872Y-16763660D02*
X12360396Y-16773183D01*
X12360396Y-16773183D02*
X12350872Y-16782707D01*
X12350872Y-16782707D02*
X12341348Y-16773183D01*
X12341348Y-16773183D02*
X12350872Y-16763660D01*
X12350872Y-16763660D02*
X12350872Y-16782707D01*
X12484206Y-16582707D02*
X12503253Y-16582707D01*
X12503253Y-16582707D02*
X12522301Y-16592231D01*
X12522301Y-16592231D02*
X12531825Y-16601755D01*
X12531825Y-16601755D02*
X12541348Y-16620802D01*
X12541348Y-16620802D02*
X12550872Y-16658898D01*
X12550872Y-16658898D02*
X12550872Y-16706517D01*
X12550872Y-16706517D02*
X12541348Y-16744612D01*
X12541348Y-16744612D02*
X12531825Y-16763660D01*
X12531825Y-16763660D02*
X12522301Y-16773183D01*
X12522301Y-16773183D02*
X12503253Y-16782707D01*
X12503253Y-16782707D02*
X12484206Y-16782707D01*
X12484206Y-16782707D02*
X12465158Y-16773183D01*
X12465158Y-16773183D02*
X12455634Y-16763660D01*
X12455634Y-16763660D02*
X12446110Y-16744612D01*
X12446110Y-16744612D02*
X12436587Y-16706517D01*
X12436587Y-16706517D02*
X12436587Y-16658898D01*
X12436587Y-16658898D02*
X12446110Y-16620802D01*
X12446110Y-16620802D02*
X12455634Y-16601755D01*
X12455634Y-16601755D02*
X12465158Y-16592231D01*
X12465158Y-16592231D02*
X12484206Y-16582707D01*
X12617539Y-16582707D02*
X12741348Y-16582707D01*
X12741348Y-16582707D02*
X12674682Y-16658898D01*
X12674682Y-16658898D02*
X12703253Y-16658898D01*
X12703253Y-16658898D02*
X12722301Y-16668421D01*
X12722301Y-16668421D02*
X12731825Y-16677945D01*
X12731825Y-16677945D02*
X12741348Y-16696993D01*
X12741348Y-16696993D02*
X12741348Y-16744612D01*
X12741348Y-16744612D02*
X12731825Y-16763660D01*
X12731825Y-16763660D02*
X12722301Y-16773183D01*
X12722301Y-16773183D02*
X12703253Y-16782707D01*
X12703253Y-16782707D02*
X12646110Y-16782707D01*
X12646110Y-16782707D02*
X12627063Y-16773183D01*
X12627063Y-16773183D02*
X12617539Y-16763660D01*
X12836587Y-16782707D02*
X12874682Y-16782707D01*
X12874682Y-16782707D02*
X12893729Y-16773183D01*
X12893729Y-16773183D02*
X12903253Y-16763660D01*
X12903253Y-16763660D02*
X12922301Y-16735088D01*
X12922301Y-16735088D02*
X12931825Y-16696993D01*
X12931825Y-16696993D02*
X12931825Y-16620802D01*
X12931825Y-16620802D02*
X12922301Y-16601755D01*
X12922301Y-16601755D02*
X12912777Y-16592231D01*
X12912777Y-16592231D02*
X12893729Y-16582707D01*
X12893729Y-16582707D02*
X12855634Y-16582707D01*
X12855634Y-16582707D02*
X12836587Y-16592231D01*
X12836587Y-16592231D02*
X12827063Y-16601755D01*
X12827063Y-16601755D02*
X12817539Y-16620802D01*
X12817539Y-16620802D02*
X12817539Y-16668421D01*
X12817539Y-16668421D02*
X12827063Y-16687469D01*
X12827063Y-16687469D02*
X12836587Y-16696993D01*
X12836587Y-16696993D02*
X12855634Y-16706517D01*
X12855634Y-16706517D02*
X12893729Y-16706517D01*
X12893729Y-16706517D02*
X12912777Y-16696993D01*
X12912777Y-16696993D02*
X12922301Y-16687469D01*
X12922301Y-16687469D02*
X12931825Y-16668421D01*
X13103253Y-16649374D02*
X13103253Y-16782707D01*
X13055634Y-16573183D02*
X13008015Y-16716041D01*
X13008015Y-16716041D02*
X13131825Y-16716041D01*
X13198491Y-16582707D02*
X13198491Y-16620802D01*
X13274682Y-16582707D02*
X13274682Y-16620802D01*
X13569920Y-16858898D02*
X13560396Y-16849374D01*
X13560396Y-16849374D02*
X13541349Y-16820803D01*
X13541349Y-16820803D02*
X13531825Y-16801755D01*
X13531825Y-16801755D02*
X13522301Y-16773183D01*
X13522301Y-16773183D02*
X13512777Y-16725564D01*
X13512777Y-16725564D02*
X13512777Y-16687469D01*
X13512777Y-16687469D02*
X13522301Y-16639850D01*
X13522301Y-16639850D02*
X13531825Y-16611279D01*
X13531825Y-16611279D02*
X13541349Y-16592231D01*
X13541349Y-16592231D02*
X13560396Y-16563660D01*
X13560396Y-16563660D02*
X13569920Y-16554136D01*
X13731825Y-16649374D02*
X13731825Y-16782707D01*
X13684206Y-16573183D02*
X13636587Y-16716041D01*
X13636587Y-16716041D02*
X13760396Y-16716041D01*
X13922301Y-16649374D02*
X13922301Y-16782707D01*
X13874682Y-16573183D02*
X13827063Y-16716041D01*
X13827063Y-16716041D02*
X13950872Y-16716041D01*
X14179444Y-16782707D02*
X14179444Y-16582707D01*
X14265158Y-16782707D02*
X14265158Y-16677945D01*
X14265158Y-16677945D02*
X14255634Y-16658898D01*
X14255634Y-16658898D02*
X14236587Y-16649374D01*
X14236587Y-16649374D02*
X14208015Y-16649374D01*
X14208015Y-16649374D02*
X14188968Y-16658898D01*
X14188968Y-16658898D02*
X14179444Y-16668421D01*
X14388968Y-16782707D02*
X14369920Y-16773183D01*
X14369920Y-16773183D02*
X14360396Y-16763660D01*
X14360396Y-16763660D02*
X14350872Y-16744612D01*
X14350872Y-16744612D02*
X14350872Y-16687469D01*
X14350872Y-16687469D02*
X14360396Y-16668421D01*
X14360396Y-16668421D02*
X14369920Y-16658898D01*
X14369920Y-16658898D02*
X14388968Y-16649374D01*
X14388968Y-16649374D02*
X14417539Y-16649374D01*
X14417539Y-16649374D02*
X14436587Y-16658898D01*
X14436587Y-16658898D02*
X14446111Y-16668421D01*
X14446111Y-16668421D02*
X14455634Y-16687469D01*
X14455634Y-16687469D02*
X14455634Y-16744612D01*
X14455634Y-16744612D02*
X14446111Y-16763660D01*
X14446111Y-16763660D02*
X14436587Y-16773183D01*
X14436587Y-16773183D02*
X14417539Y-16782707D01*
X14417539Y-16782707D02*
X14388968Y-16782707D01*
X14569920Y-16782707D02*
X14550872Y-16773183D01*
X14550872Y-16773183D02*
X14541349Y-16754136D01*
X14541349Y-16754136D02*
X14541349Y-16582707D01*
X14722301Y-16773183D02*
X14703253Y-16782707D01*
X14703253Y-16782707D02*
X14665158Y-16782707D01*
X14665158Y-16782707D02*
X14646111Y-16773183D01*
X14646111Y-16773183D02*
X14636587Y-16754136D01*
X14636587Y-16754136D02*
X14636587Y-16677945D01*
X14636587Y-16677945D02*
X14646111Y-16658898D01*
X14646111Y-16658898D02*
X14665158Y-16649374D01*
X14665158Y-16649374D02*
X14703253Y-16649374D01*
X14703253Y-16649374D02*
X14722301Y-16658898D01*
X14722301Y-16658898D02*
X14731825Y-16677945D01*
X14731825Y-16677945D02*
X14731825Y-16696993D01*
X14731825Y-16696993D02*
X14636587Y-16716041D01*
X14808015Y-16773183D02*
X14827063Y-16782707D01*
X14827063Y-16782707D02*
X14865158Y-16782707D01*
X14865158Y-16782707D02*
X14884206Y-16773183D01*
X14884206Y-16773183D02*
X14893730Y-16754136D01*
X14893730Y-16754136D02*
X14893730Y-16744612D01*
X14893730Y-16744612D02*
X14884206Y-16725564D01*
X14884206Y-16725564D02*
X14865158Y-16716041D01*
X14865158Y-16716041D02*
X14836587Y-16716041D01*
X14836587Y-16716041D02*
X14817539Y-16706517D01*
X14817539Y-16706517D02*
X14808015Y-16687469D01*
X14808015Y-16687469D02*
X14808015Y-16677945D01*
X14808015Y-16677945D02*
X14817539Y-16658898D01*
X14817539Y-16658898D02*
X14836587Y-16649374D01*
X14836587Y-16649374D02*
X14865158Y-16649374D01*
X14865158Y-16649374D02*
X14884206Y-16658898D01*
X14960396Y-16858898D02*
X14969920Y-16849374D01*
X14969920Y-16849374D02*
X14988968Y-16820803D01*
X14988968Y-16820803D02*
X14998492Y-16801755D01*
X14998492Y-16801755D02*
X15008015Y-16773183D01*
X15008015Y-16773183D02*
X15017539Y-16725564D01*
X15017539Y-16725564D02*
X15017539Y-16687469D01*
X15017539Y-16687469D02*
X15008015Y-16639850D01*
X15008015Y-16639850D02*
X14998492Y-16611279D01*
X14998492Y-16611279D02*
X14988968Y-16592231D01*
X14988968Y-16592231D02*
X14969920Y-16563660D01*
X14969920Y-16563660D02*
X14960396Y-16554136D01*
D12*
X9884857Y-16900224D02*
X9994857Y-17010224D01*
X9994857Y-16900224D02*
X9884857Y-17010224D01*
X9994857Y-16955224D02*
G75*
G02*
X9884857Y-16955224I-55000J0D01*
G01*
X9884857Y-16955224D02*
G75*
G02*
X9994857Y-16955224I55000J0D01*
G01*
D11*
X10360396Y-17046707D02*
X10246110Y-17046707D01*
X10303253Y-17046707D02*
X10303253Y-16846707D01*
X10303253Y-16846707D02*
X10284205Y-16875279D01*
X10284205Y-16875279D02*
X10265158Y-16894326D01*
X10265158Y-16894326D02*
X10246110Y-16903850D01*
X10446110Y-17027660D02*
X10455634Y-17037184D01*
X10455634Y-17037184D02*
X10446110Y-17046707D01*
X10446110Y-17046707D02*
X10436586Y-17037184D01*
X10436586Y-17037184D02*
X10446110Y-17027660D01*
X10446110Y-17027660D02*
X10446110Y-17046707D01*
X10646110Y-17046707D02*
X10531825Y-17046707D01*
X10588967Y-17046707D02*
X10588967Y-16846707D01*
X10588967Y-16846707D02*
X10569920Y-16875279D01*
X10569920Y-16875279D02*
X10550872Y-16894326D01*
X10550872Y-16894326D02*
X10531825Y-16903850D01*
X10769920Y-16846707D02*
X10788967Y-16846707D01*
X10788967Y-16846707D02*
X10808015Y-16856231D01*
X10808015Y-16856231D02*
X10817539Y-16865755D01*
X10817539Y-16865755D02*
X10827063Y-16884803D01*
X10827063Y-16884803D02*
X10836586Y-16922898D01*
X10836586Y-16922898D02*
X10836586Y-16970517D01*
X10836586Y-16970517D02*
X10827063Y-17008612D01*
X10827063Y-17008612D02*
X10817539Y-17027660D01*
X10817539Y-17027660D02*
X10808015Y-17037184D01*
X10808015Y-17037184D02*
X10788967Y-17046707D01*
X10788967Y-17046707D02*
X10769920Y-17046707D01*
X10769920Y-17046707D02*
X10750872Y-17037184D01*
X10750872Y-17037184D02*
X10741348Y-17027660D01*
X10741348Y-17027660D02*
X10731825Y-17008612D01*
X10731825Y-17008612D02*
X10722301Y-16970517D01*
X10722301Y-16970517D02*
X10722301Y-16922898D01*
X10722301Y-16922898D02*
X10731825Y-16884803D01*
X10731825Y-16884803D02*
X10741348Y-16865755D01*
X10741348Y-16865755D02*
X10750872Y-16856231D01*
X10750872Y-16856231D02*
X10769920Y-16846707D01*
X10960396Y-16846707D02*
X10979444Y-16846707D01*
X10979444Y-16846707D02*
X10998491Y-16856231D01*
X10998491Y-16856231D02*
X11008015Y-16865755D01*
X11008015Y-16865755D02*
X11017539Y-16884803D01*
X11017539Y-16884803D02*
X11027063Y-16922898D01*
X11027063Y-16922898D02*
X11027063Y-16970517D01*
X11027063Y-16970517D02*
X11017539Y-17008612D01*
X11017539Y-17008612D02*
X11008015Y-17027660D01*
X11008015Y-17027660D02*
X10998491Y-17037184D01*
X10998491Y-17037184D02*
X10979444Y-17046707D01*
X10979444Y-17046707D02*
X10960396Y-17046707D01*
X10960396Y-17046707D02*
X10941348Y-17037184D01*
X10941348Y-17037184D02*
X10931825Y-17027660D01*
X10931825Y-17027660D02*
X10922301Y-17008612D01*
X10922301Y-17008612D02*
X10912777Y-16970517D01*
X10912777Y-16970517D02*
X10912777Y-16922898D01*
X10912777Y-16922898D02*
X10922301Y-16884803D01*
X10922301Y-16884803D02*
X10931825Y-16865755D01*
X10931825Y-16865755D02*
X10941348Y-16856231D01*
X10941348Y-16856231D02*
X10960396Y-16846707D01*
X11112777Y-17046707D02*
X11112777Y-16913374D01*
X11112777Y-16932422D02*
X11122301Y-16922898D01*
X11122301Y-16922898D02*
X11141348Y-16913374D01*
X11141348Y-16913374D02*
X11169920Y-16913374D01*
X11169920Y-16913374D02*
X11188967Y-16922898D01*
X11188967Y-16922898D02*
X11198491Y-16941945D01*
X11198491Y-16941945D02*
X11198491Y-17046707D01*
X11198491Y-16941945D02*
X11208015Y-16922898D01*
X11208015Y-16922898D02*
X11227063Y-16913374D01*
X11227063Y-16913374D02*
X11255634Y-16913374D01*
X11255634Y-16913374D02*
X11274682Y-16922898D01*
X11274682Y-16922898D02*
X11284205Y-16941945D01*
X11284205Y-16941945D02*
X11284205Y-17046707D01*
X11379444Y-17046707D02*
X11379444Y-16913374D01*
X11379444Y-16932422D02*
X11388967Y-16922898D01*
X11388967Y-16922898D02*
X11408015Y-16913374D01*
X11408015Y-16913374D02*
X11436586Y-16913374D01*
X11436586Y-16913374D02*
X11455634Y-16922898D01*
X11455634Y-16922898D02*
X11465158Y-16941945D01*
X11465158Y-16941945D02*
X11465158Y-17046707D01*
X11465158Y-16941945D02*
X11474682Y-16922898D01*
X11474682Y-16922898D02*
X11493729Y-16913374D01*
X11493729Y-16913374D02*
X11522301Y-16913374D01*
X11522301Y-16913374D02*
X11541348Y-16922898D01*
X11541348Y-16922898D02*
X11550872Y-16941945D01*
X11550872Y-16941945D02*
X11550872Y-17046707D01*
X11941348Y-16837184D02*
X11769920Y-17094326D01*
X12198491Y-16846707D02*
X12217539Y-16846707D01*
X12217539Y-16846707D02*
X12236587Y-16856231D01*
X12236587Y-16856231D02*
X12246110Y-16865755D01*
X12246110Y-16865755D02*
X12255634Y-16884803D01*
X12255634Y-16884803D02*
X12265158Y-16922898D01*
X12265158Y-16922898D02*
X12265158Y-16970517D01*
X12265158Y-16970517D02*
X12255634Y-17008612D01*
X12255634Y-17008612D02*
X12246110Y-17027660D01*
X12246110Y-17027660D02*
X12236587Y-17037184D01*
X12236587Y-17037184D02*
X12217539Y-17046707D01*
X12217539Y-17046707D02*
X12198491Y-17046707D01*
X12198491Y-17046707D02*
X12179444Y-17037184D01*
X12179444Y-17037184D02*
X12169920Y-17027660D01*
X12169920Y-17027660D02*
X12160396Y-17008612D01*
X12160396Y-17008612D02*
X12150872Y-16970517D01*
X12150872Y-16970517D02*
X12150872Y-16922898D01*
X12150872Y-16922898D02*
X12160396Y-16884803D01*
X12160396Y-16884803D02*
X12169920Y-16865755D01*
X12169920Y-16865755D02*
X12179444Y-16856231D01*
X12179444Y-16856231D02*
X12198491Y-16846707D01*
X12350872Y-17027660D02*
X12360396Y-17037184D01*
X12360396Y-17037184D02*
X12350872Y-17046707D01*
X12350872Y-17046707D02*
X12341348Y-17037184D01*
X12341348Y-17037184D02*
X12350872Y-17027660D01*
X12350872Y-17027660D02*
X12350872Y-17046707D01*
X12484206Y-16846707D02*
X12503253Y-16846707D01*
X12503253Y-16846707D02*
X12522301Y-16856231D01*
X12522301Y-16856231D02*
X12531825Y-16865755D01*
X12531825Y-16865755D02*
X12541348Y-16884803D01*
X12541348Y-16884803D02*
X12550872Y-16922898D01*
X12550872Y-16922898D02*
X12550872Y-16970517D01*
X12550872Y-16970517D02*
X12541348Y-17008612D01*
X12541348Y-17008612D02*
X12531825Y-17027660D01*
X12531825Y-17027660D02*
X12522301Y-17037184D01*
X12522301Y-17037184D02*
X12503253Y-17046707D01*
X12503253Y-17046707D02*
X12484206Y-17046707D01*
X12484206Y-17046707D02*
X12465158Y-17037184D01*
X12465158Y-17037184D02*
X12455634Y-17027660D01*
X12455634Y-17027660D02*
X12446110Y-17008612D01*
X12446110Y-17008612D02*
X12436587Y-16970517D01*
X12436587Y-16970517D02*
X12436587Y-16922898D01*
X12436587Y-16922898D02*
X12446110Y-16884803D01*
X12446110Y-16884803D02*
X12455634Y-16865755D01*
X12455634Y-16865755D02*
X12465158Y-16856231D01*
X12465158Y-16856231D02*
X12484206Y-16846707D01*
X12722301Y-16913374D02*
X12722301Y-17046707D01*
X12674682Y-16837184D02*
X12627063Y-16980041D01*
X12627063Y-16980041D02*
X12750872Y-16980041D01*
X12808015Y-16846707D02*
X12931825Y-16846707D01*
X12931825Y-16846707D02*
X12865158Y-16922898D01*
X12865158Y-16922898D02*
X12893729Y-16922898D01*
X12893729Y-16922898D02*
X12912777Y-16932422D01*
X12912777Y-16932422D02*
X12922301Y-16941945D01*
X12922301Y-16941945D02*
X12931825Y-16960993D01*
X12931825Y-16960993D02*
X12931825Y-17008612D01*
X12931825Y-17008612D02*
X12922301Y-17027660D01*
X12922301Y-17027660D02*
X12912777Y-17037184D01*
X12912777Y-17037184D02*
X12893729Y-17046707D01*
X12893729Y-17046707D02*
X12836587Y-17046707D01*
X12836587Y-17046707D02*
X12817539Y-17037184D01*
X12817539Y-17037184D02*
X12808015Y-17027660D01*
X12998491Y-16846707D02*
X13122301Y-16846707D01*
X13122301Y-16846707D02*
X13055634Y-16922898D01*
X13055634Y-16922898D02*
X13084206Y-16922898D01*
X13084206Y-16922898D02*
X13103253Y-16932422D01*
X13103253Y-16932422D02*
X13112777Y-16941945D01*
X13112777Y-16941945D02*
X13122301Y-16960993D01*
X13122301Y-16960993D02*
X13122301Y-17008612D01*
X13122301Y-17008612D02*
X13112777Y-17027660D01*
X13112777Y-17027660D02*
X13103253Y-17037184D01*
X13103253Y-17037184D02*
X13084206Y-17046707D01*
X13084206Y-17046707D02*
X13027063Y-17046707D01*
X13027063Y-17046707D02*
X13008015Y-17037184D01*
X13008015Y-17037184D02*
X12998491Y-17027660D01*
X13198491Y-16846707D02*
X13198491Y-16884803D01*
X13274682Y-16846707D02*
X13274682Y-16884803D01*
X13569920Y-17122898D02*
X13560396Y-17113374D01*
X13560396Y-17113374D02*
X13541349Y-17084803D01*
X13541349Y-17084803D02*
X13531825Y-17065755D01*
X13531825Y-17065755D02*
X13522301Y-17037184D01*
X13522301Y-17037184D02*
X13512777Y-16989564D01*
X13512777Y-16989564D02*
X13512777Y-16951469D01*
X13512777Y-16951469D02*
X13522301Y-16903850D01*
X13522301Y-16903850D02*
X13531825Y-16875279D01*
X13531825Y-16875279D02*
X13541349Y-16856231D01*
X13541349Y-16856231D02*
X13560396Y-16827660D01*
X13560396Y-16827660D02*
X13569920Y-16818136D01*
X13674682Y-16932422D02*
X13655634Y-16922898D01*
X13655634Y-16922898D02*
X13646110Y-16913374D01*
X13646110Y-16913374D02*
X13636587Y-16894326D01*
X13636587Y-16894326D02*
X13636587Y-16884803D01*
X13636587Y-16884803D02*
X13646110Y-16865755D01*
X13646110Y-16865755D02*
X13655634Y-16856231D01*
X13655634Y-16856231D02*
X13674682Y-16846707D01*
X13674682Y-16846707D02*
X13712777Y-16846707D01*
X13712777Y-16846707D02*
X13731825Y-16856231D01*
X13731825Y-16856231D02*
X13741349Y-16865755D01*
X13741349Y-16865755D02*
X13750872Y-16884803D01*
X13750872Y-16884803D02*
X13750872Y-16894326D01*
X13750872Y-16894326D02*
X13741349Y-16913374D01*
X13741349Y-16913374D02*
X13731825Y-16922898D01*
X13731825Y-16922898D02*
X13712777Y-16932422D01*
X13712777Y-16932422D02*
X13674682Y-16932422D01*
X13674682Y-16932422D02*
X13655634Y-16941945D01*
X13655634Y-16941945D02*
X13646110Y-16951469D01*
X13646110Y-16951469D02*
X13636587Y-16970517D01*
X13636587Y-16970517D02*
X13636587Y-17008612D01*
X13636587Y-17008612D02*
X13646110Y-17027660D01*
X13646110Y-17027660D02*
X13655634Y-17037184D01*
X13655634Y-17037184D02*
X13674682Y-17046707D01*
X13674682Y-17046707D02*
X13712777Y-17046707D01*
X13712777Y-17046707D02*
X13731825Y-17037184D01*
X13731825Y-17037184D02*
X13741349Y-17027660D01*
X13741349Y-17027660D02*
X13750872Y-17008612D01*
X13750872Y-17008612D02*
X13750872Y-16970517D01*
X13750872Y-16970517D02*
X13741349Y-16951469D01*
X13741349Y-16951469D02*
X13731825Y-16941945D01*
X13731825Y-16941945D02*
X13712777Y-16932422D01*
X13988968Y-17046707D02*
X13988968Y-16846707D01*
X14074682Y-17046707D02*
X14074682Y-16941945D01*
X14074682Y-16941945D02*
X14065158Y-16922898D01*
X14065158Y-16922898D02*
X14046111Y-16913374D01*
X14046111Y-16913374D02*
X14017539Y-16913374D01*
X14017539Y-16913374D02*
X13998491Y-16922898D01*
X13998491Y-16922898D02*
X13988968Y-16932422D01*
X14198491Y-17046707D02*
X14179444Y-17037184D01*
X14179444Y-17037184D02*
X14169920Y-17027660D01*
X14169920Y-17027660D02*
X14160396Y-17008612D01*
X14160396Y-17008612D02*
X14160396Y-16951469D01*
X14160396Y-16951469D02*
X14169920Y-16932422D01*
X14169920Y-16932422D02*
X14179444Y-16922898D01*
X14179444Y-16922898D02*
X14198491Y-16913374D01*
X14198491Y-16913374D02*
X14227063Y-16913374D01*
X14227063Y-16913374D02*
X14246111Y-16922898D01*
X14246111Y-16922898D02*
X14255634Y-16932422D01*
X14255634Y-16932422D02*
X14265158Y-16951469D01*
X14265158Y-16951469D02*
X14265158Y-17008612D01*
X14265158Y-17008612D02*
X14255634Y-17027660D01*
X14255634Y-17027660D02*
X14246111Y-17037184D01*
X14246111Y-17037184D02*
X14227063Y-17046707D01*
X14227063Y-17046707D02*
X14198491Y-17046707D01*
X14379444Y-17046707D02*
X14360396Y-17037184D01*
X14360396Y-17037184D02*
X14350872Y-17018136D01*
X14350872Y-17018136D02*
X14350872Y-16846707D01*
X14531825Y-17037184D02*
X14512777Y-17046707D01*
X14512777Y-17046707D02*
X14474682Y-17046707D01*
X14474682Y-17046707D02*
X14455634Y-17037184D01*
X14455634Y-17037184D02*
X14446111Y-17018136D01*
X14446111Y-17018136D02*
X14446111Y-16941945D01*
X14446111Y-16941945D02*
X14455634Y-16922898D01*
X14455634Y-16922898D02*
X14474682Y-16913374D01*
X14474682Y-16913374D02*
X14512777Y-16913374D01*
X14512777Y-16913374D02*
X14531825Y-16922898D01*
X14531825Y-16922898D02*
X14541349Y-16941945D01*
X14541349Y-16941945D02*
X14541349Y-16960993D01*
X14541349Y-16960993D02*
X14446111Y-16980041D01*
X14617539Y-17037184D02*
X14636587Y-17046707D01*
X14636587Y-17046707D02*
X14674682Y-17046707D01*
X14674682Y-17046707D02*
X14693730Y-17037184D01*
X14693730Y-17037184D02*
X14703253Y-17018136D01*
X14703253Y-17018136D02*
X14703253Y-17008612D01*
X14703253Y-17008612D02*
X14693730Y-16989564D01*
X14693730Y-16989564D02*
X14674682Y-16980041D01*
X14674682Y-16980041D02*
X14646111Y-16980041D01*
X14646111Y-16980041D02*
X14627063Y-16970517D01*
X14627063Y-16970517D02*
X14617539Y-16951469D01*
X14617539Y-16951469D02*
X14617539Y-16941945D01*
X14617539Y-16941945D02*
X14627063Y-16922898D01*
X14627063Y-16922898D02*
X14646111Y-16913374D01*
X14646111Y-16913374D02*
X14674682Y-16913374D01*
X14674682Y-16913374D02*
X14693730Y-16922898D01*
X14769920Y-17122898D02*
X14779444Y-17113374D01*
X14779444Y-17113374D02*
X14798492Y-17084803D01*
X14798492Y-17084803D02*
X14808015Y-17065755D01*
X14808015Y-17065755D02*
X14817539Y-17037184D01*
X14817539Y-17037184D02*
X14827063Y-16989564D01*
X14827063Y-16989564D02*
X14827063Y-16951469D01*
X14827063Y-16951469D02*
X14817539Y-16903850D01*
X14817539Y-16903850D02*
X14808015Y-16875279D01*
X14808015Y-16875279D02*
X14798492Y-16856231D01*
X14798492Y-16856231D02*
X14779444Y-16827660D01*
X14779444Y-16827660D02*
X14769920Y-16818136D01*
D13*
X9842857Y-17143224D02*
X9994857Y-17295224D01*
X9994857Y-17143224D02*
X9842857Y-17295224D01*
X9918857Y-17143224D02*
X9918857Y-17295224D01*
X9842857Y-17219224D02*
X9994857Y-17219224D01*
D11*
X10360396Y-17310707D02*
X10246110Y-17310707D01*
X10303253Y-17310707D02*
X10303253Y-17110707D01*
X10303253Y-17110707D02*
X10284205Y-17139279D01*
X10284205Y-17139279D02*
X10265158Y-17158326D01*
X10265158Y-17158326D02*
X10246110Y-17167850D01*
X10446110Y-17291660D02*
X10455634Y-17301184D01*
X10455634Y-17301184D02*
X10446110Y-17310707D01*
X10446110Y-17310707D02*
X10436586Y-17301184D01*
X10436586Y-17301184D02*
X10446110Y-17291660D01*
X10446110Y-17291660D02*
X10446110Y-17310707D01*
X10636586Y-17110707D02*
X10541348Y-17110707D01*
X10541348Y-17110707D02*
X10531825Y-17205945D01*
X10531825Y-17205945D02*
X10541348Y-17196422D01*
X10541348Y-17196422D02*
X10560396Y-17186898D01*
X10560396Y-17186898D02*
X10608015Y-17186898D01*
X10608015Y-17186898D02*
X10627063Y-17196422D01*
X10627063Y-17196422D02*
X10636586Y-17205945D01*
X10636586Y-17205945D02*
X10646110Y-17224993D01*
X10646110Y-17224993D02*
X10646110Y-17272612D01*
X10646110Y-17272612D02*
X10636586Y-17291660D01*
X10636586Y-17291660D02*
X10627063Y-17301184D01*
X10627063Y-17301184D02*
X10608015Y-17310707D01*
X10608015Y-17310707D02*
X10560396Y-17310707D01*
X10560396Y-17310707D02*
X10541348Y-17301184D01*
X10541348Y-17301184D02*
X10531825Y-17291660D01*
X10722301Y-17129755D02*
X10731825Y-17120231D01*
X10731825Y-17120231D02*
X10750872Y-17110707D01*
X10750872Y-17110707D02*
X10798491Y-17110707D01*
X10798491Y-17110707D02*
X10817539Y-17120231D01*
X10817539Y-17120231D02*
X10827063Y-17129755D01*
X10827063Y-17129755D02*
X10836586Y-17148803D01*
X10836586Y-17148803D02*
X10836586Y-17167850D01*
X10836586Y-17167850D02*
X10827063Y-17196422D01*
X10827063Y-17196422D02*
X10712777Y-17310707D01*
X10712777Y-17310707D02*
X10836586Y-17310707D01*
X10960396Y-17110707D02*
X10979444Y-17110707D01*
X10979444Y-17110707D02*
X10998491Y-17120231D01*
X10998491Y-17120231D02*
X11008015Y-17129755D01*
X11008015Y-17129755D02*
X11017539Y-17148803D01*
X11017539Y-17148803D02*
X11027063Y-17186898D01*
X11027063Y-17186898D02*
X11027063Y-17234517D01*
X11027063Y-17234517D02*
X11017539Y-17272612D01*
X11017539Y-17272612D02*
X11008015Y-17291660D01*
X11008015Y-17291660D02*
X10998491Y-17301184D01*
X10998491Y-17301184D02*
X10979444Y-17310707D01*
X10979444Y-17310707D02*
X10960396Y-17310707D01*
X10960396Y-17310707D02*
X10941348Y-17301184D01*
X10941348Y-17301184D02*
X10931825Y-17291660D01*
X10931825Y-17291660D02*
X10922301Y-17272612D01*
X10922301Y-17272612D02*
X10912777Y-17234517D01*
X10912777Y-17234517D02*
X10912777Y-17186898D01*
X10912777Y-17186898D02*
X10922301Y-17148803D01*
X10922301Y-17148803D02*
X10931825Y-17129755D01*
X10931825Y-17129755D02*
X10941348Y-17120231D01*
X10941348Y-17120231D02*
X10960396Y-17110707D01*
X11112777Y-17310707D02*
X11112777Y-17177374D01*
X11112777Y-17196422D02*
X11122301Y-17186898D01*
X11122301Y-17186898D02*
X11141348Y-17177374D01*
X11141348Y-17177374D02*
X11169920Y-17177374D01*
X11169920Y-17177374D02*
X11188967Y-17186898D01*
X11188967Y-17186898D02*
X11198491Y-17205945D01*
X11198491Y-17205945D02*
X11198491Y-17310707D01*
X11198491Y-17205945D02*
X11208015Y-17186898D01*
X11208015Y-17186898D02*
X11227063Y-17177374D01*
X11227063Y-17177374D02*
X11255634Y-17177374D01*
X11255634Y-17177374D02*
X11274682Y-17186898D01*
X11274682Y-17186898D02*
X11284205Y-17205945D01*
X11284205Y-17205945D02*
X11284205Y-17310707D01*
X11379444Y-17310707D02*
X11379444Y-17177374D01*
X11379444Y-17196422D02*
X11388967Y-17186898D01*
X11388967Y-17186898D02*
X11408015Y-17177374D01*
X11408015Y-17177374D02*
X11436586Y-17177374D01*
X11436586Y-17177374D02*
X11455634Y-17186898D01*
X11455634Y-17186898D02*
X11465158Y-17205945D01*
X11465158Y-17205945D02*
X11465158Y-17310707D01*
X11465158Y-17205945D02*
X11474682Y-17186898D01*
X11474682Y-17186898D02*
X11493729Y-17177374D01*
X11493729Y-17177374D02*
X11522301Y-17177374D01*
X11522301Y-17177374D02*
X11541348Y-17186898D01*
X11541348Y-17186898D02*
X11550872Y-17205945D01*
X11550872Y-17205945D02*
X11550872Y-17310707D01*
X11941348Y-17101184D02*
X11769920Y-17358326D01*
X12198491Y-17110707D02*
X12217539Y-17110707D01*
X12217539Y-17110707D02*
X12236587Y-17120231D01*
X12236587Y-17120231D02*
X12246110Y-17129755D01*
X12246110Y-17129755D02*
X12255634Y-17148803D01*
X12255634Y-17148803D02*
X12265158Y-17186898D01*
X12265158Y-17186898D02*
X12265158Y-17234517D01*
X12265158Y-17234517D02*
X12255634Y-17272612D01*
X12255634Y-17272612D02*
X12246110Y-17291660D01*
X12246110Y-17291660D02*
X12236587Y-17301184D01*
X12236587Y-17301184D02*
X12217539Y-17310707D01*
X12217539Y-17310707D02*
X12198491Y-17310707D01*
X12198491Y-17310707D02*
X12179444Y-17301184D01*
X12179444Y-17301184D02*
X12169920Y-17291660D01*
X12169920Y-17291660D02*
X12160396Y-17272612D01*
X12160396Y-17272612D02*
X12150872Y-17234517D01*
X12150872Y-17234517D02*
X12150872Y-17186898D01*
X12150872Y-17186898D02*
X12160396Y-17148803D01*
X12160396Y-17148803D02*
X12169920Y-17129755D01*
X12169920Y-17129755D02*
X12179444Y-17120231D01*
X12179444Y-17120231D02*
X12198491Y-17110707D01*
X12350872Y-17291660D02*
X12360396Y-17301184D01*
X12360396Y-17301184D02*
X12350872Y-17310707D01*
X12350872Y-17310707D02*
X12341348Y-17301184D01*
X12341348Y-17301184D02*
X12350872Y-17291660D01*
X12350872Y-17291660D02*
X12350872Y-17310707D01*
X12484206Y-17110707D02*
X12503253Y-17110707D01*
X12503253Y-17110707D02*
X12522301Y-17120231D01*
X12522301Y-17120231D02*
X12531825Y-17129755D01*
X12531825Y-17129755D02*
X12541348Y-17148803D01*
X12541348Y-17148803D02*
X12550872Y-17186898D01*
X12550872Y-17186898D02*
X12550872Y-17234517D01*
X12550872Y-17234517D02*
X12541348Y-17272612D01*
X12541348Y-17272612D02*
X12531825Y-17291660D01*
X12531825Y-17291660D02*
X12522301Y-17301184D01*
X12522301Y-17301184D02*
X12503253Y-17310707D01*
X12503253Y-17310707D02*
X12484206Y-17310707D01*
X12484206Y-17310707D02*
X12465158Y-17301184D01*
X12465158Y-17301184D02*
X12455634Y-17291660D01*
X12455634Y-17291660D02*
X12446110Y-17272612D01*
X12446110Y-17272612D02*
X12436587Y-17234517D01*
X12436587Y-17234517D02*
X12436587Y-17186898D01*
X12436587Y-17186898D02*
X12446110Y-17148803D01*
X12446110Y-17148803D02*
X12455634Y-17129755D01*
X12455634Y-17129755D02*
X12465158Y-17120231D01*
X12465158Y-17120231D02*
X12484206Y-17110707D01*
X12731825Y-17110707D02*
X12636587Y-17110707D01*
X12636587Y-17110707D02*
X12627063Y-17205945D01*
X12627063Y-17205945D02*
X12636587Y-17196422D01*
X12636587Y-17196422D02*
X12655634Y-17186898D01*
X12655634Y-17186898D02*
X12703253Y-17186898D01*
X12703253Y-17186898D02*
X12722301Y-17196422D01*
X12722301Y-17196422D02*
X12731825Y-17205945D01*
X12731825Y-17205945D02*
X12741348Y-17224993D01*
X12741348Y-17224993D02*
X12741348Y-17272612D01*
X12741348Y-17272612D02*
X12731825Y-17291660D01*
X12731825Y-17291660D02*
X12722301Y-17301184D01*
X12722301Y-17301184D02*
X12703253Y-17310707D01*
X12703253Y-17310707D02*
X12655634Y-17310707D01*
X12655634Y-17310707D02*
X12636587Y-17301184D01*
X12636587Y-17301184D02*
X12627063Y-17291660D01*
X12836587Y-17310707D02*
X12874682Y-17310707D01*
X12874682Y-17310707D02*
X12893729Y-17301184D01*
X12893729Y-17301184D02*
X12903253Y-17291660D01*
X12903253Y-17291660D02*
X12922301Y-17263088D01*
X12922301Y-17263088D02*
X12931825Y-17224993D01*
X12931825Y-17224993D02*
X12931825Y-17148803D01*
X12931825Y-17148803D02*
X12922301Y-17129755D01*
X12922301Y-17129755D02*
X12912777Y-17120231D01*
X12912777Y-17120231D02*
X12893729Y-17110707D01*
X12893729Y-17110707D02*
X12855634Y-17110707D01*
X12855634Y-17110707D02*
X12836587Y-17120231D01*
X12836587Y-17120231D02*
X12827063Y-17129755D01*
X12827063Y-17129755D02*
X12817539Y-17148803D01*
X12817539Y-17148803D02*
X12817539Y-17196422D01*
X12817539Y-17196422D02*
X12827063Y-17215469D01*
X12827063Y-17215469D02*
X12836587Y-17224993D01*
X12836587Y-17224993D02*
X12855634Y-17234517D01*
X12855634Y-17234517D02*
X12893729Y-17234517D01*
X12893729Y-17234517D02*
X12912777Y-17224993D01*
X12912777Y-17224993D02*
X12922301Y-17215469D01*
X12922301Y-17215469D02*
X12931825Y-17196422D01*
X13046110Y-17196422D02*
X13027063Y-17186898D01*
X13027063Y-17186898D02*
X13017539Y-17177374D01*
X13017539Y-17177374D02*
X13008015Y-17158326D01*
X13008015Y-17158326D02*
X13008015Y-17148803D01*
X13008015Y-17148803D02*
X13017539Y-17129755D01*
X13017539Y-17129755D02*
X13027063Y-17120231D01*
X13027063Y-17120231D02*
X13046110Y-17110707D01*
X13046110Y-17110707D02*
X13084206Y-17110707D01*
X13084206Y-17110707D02*
X13103253Y-17120231D01*
X13103253Y-17120231D02*
X13112777Y-17129755D01*
X13112777Y-17129755D02*
X13122301Y-17148803D01*
X13122301Y-17148803D02*
X13122301Y-17158326D01*
X13122301Y-17158326D02*
X13112777Y-17177374D01*
X13112777Y-17177374D02*
X13103253Y-17186898D01*
X13103253Y-17186898D02*
X13084206Y-17196422D01*
X13084206Y-17196422D02*
X13046110Y-17196422D01*
X13046110Y-17196422D02*
X13027063Y-17205945D01*
X13027063Y-17205945D02*
X13017539Y-17215469D01*
X13017539Y-17215469D02*
X13008015Y-17234517D01*
X13008015Y-17234517D02*
X13008015Y-17272612D01*
X13008015Y-17272612D02*
X13017539Y-17291660D01*
X13017539Y-17291660D02*
X13027063Y-17301184D01*
X13027063Y-17301184D02*
X13046110Y-17310707D01*
X13046110Y-17310707D02*
X13084206Y-17310707D01*
X13084206Y-17310707D02*
X13103253Y-17301184D01*
X13103253Y-17301184D02*
X13112777Y-17291660D01*
X13112777Y-17291660D02*
X13122301Y-17272612D01*
X13122301Y-17272612D02*
X13122301Y-17234517D01*
X13122301Y-17234517D02*
X13112777Y-17215469D01*
X13112777Y-17215469D02*
X13103253Y-17205945D01*
X13103253Y-17205945D02*
X13084206Y-17196422D01*
X13198491Y-17110707D02*
X13198491Y-17148803D01*
X13274682Y-17110707D02*
X13274682Y-17148803D01*
X13569920Y-17386898D02*
X13560396Y-17377374D01*
X13560396Y-17377374D02*
X13541349Y-17348803D01*
X13541349Y-17348803D02*
X13531825Y-17329755D01*
X13531825Y-17329755D02*
X13522301Y-17301184D01*
X13522301Y-17301184D02*
X13512777Y-17253564D01*
X13512777Y-17253564D02*
X13512777Y-17215469D01*
X13512777Y-17215469D02*
X13522301Y-17167850D01*
X13522301Y-17167850D02*
X13531825Y-17139279D01*
X13531825Y-17139279D02*
X13541349Y-17120231D01*
X13541349Y-17120231D02*
X13560396Y-17091660D01*
X13560396Y-17091660D02*
X13569920Y-17082136D01*
X13741349Y-17110707D02*
X13646110Y-17110707D01*
X13646110Y-17110707D02*
X13636587Y-17205945D01*
X13636587Y-17205945D02*
X13646110Y-17196422D01*
X13646110Y-17196422D02*
X13665158Y-17186898D01*
X13665158Y-17186898D02*
X13712777Y-17186898D01*
X13712777Y-17186898D02*
X13731825Y-17196422D01*
X13731825Y-17196422D02*
X13741349Y-17205945D01*
X13741349Y-17205945D02*
X13750872Y-17224993D01*
X13750872Y-17224993D02*
X13750872Y-17272612D01*
X13750872Y-17272612D02*
X13741349Y-17291660D01*
X13741349Y-17291660D02*
X13731825Y-17301184D01*
X13731825Y-17301184D02*
X13712777Y-17310707D01*
X13712777Y-17310707D02*
X13665158Y-17310707D01*
X13665158Y-17310707D02*
X13646110Y-17301184D01*
X13646110Y-17301184D02*
X13636587Y-17291660D01*
X13988968Y-17310707D02*
X13988968Y-17110707D01*
X14074682Y-17310707D02*
X14074682Y-17205945D01*
X14074682Y-17205945D02*
X14065158Y-17186898D01*
X14065158Y-17186898D02*
X14046111Y-17177374D01*
X14046111Y-17177374D02*
X14017539Y-17177374D01*
X14017539Y-17177374D02*
X13998491Y-17186898D01*
X13998491Y-17186898D02*
X13988968Y-17196422D01*
X14198491Y-17310707D02*
X14179444Y-17301184D01*
X14179444Y-17301184D02*
X14169920Y-17291660D01*
X14169920Y-17291660D02*
X14160396Y-17272612D01*
X14160396Y-17272612D02*
X14160396Y-17215469D01*
X14160396Y-17215469D02*
X14169920Y-17196422D01*
X14169920Y-17196422D02*
X14179444Y-17186898D01*
X14179444Y-17186898D02*
X14198491Y-17177374D01*
X14198491Y-17177374D02*
X14227063Y-17177374D01*
X14227063Y-17177374D02*
X14246111Y-17186898D01*
X14246111Y-17186898D02*
X14255634Y-17196422D01*
X14255634Y-17196422D02*
X14265158Y-17215469D01*
X14265158Y-17215469D02*
X14265158Y-17272612D01*
X14265158Y-17272612D02*
X14255634Y-17291660D01*
X14255634Y-17291660D02*
X14246111Y-17301184D01*
X14246111Y-17301184D02*
X14227063Y-17310707D01*
X14227063Y-17310707D02*
X14198491Y-17310707D01*
X14379444Y-17310707D02*
X14360396Y-17301184D01*
X14360396Y-17301184D02*
X14350872Y-17282136D01*
X14350872Y-17282136D02*
X14350872Y-17110707D01*
X14531825Y-17301184D02*
X14512777Y-17310707D01*
X14512777Y-17310707D02*
X14474682Y-17310707D01*
X14474682Y-17310707D02*
X14455634Y-17301184D01*
X14455634Y-17301184D02*
X14446111Y-17282136D01*
X14446111Y-17282136D02*
X14446111Y-17205945D01*
X14446111Y-17205945D02*
X14455634Y-17186898D01*
X14455634Y-17186898D02*
X14474682Y-17177374D01*
X14474682Y-17177374D02*
X14512777Y-17177374D01*
X14512777Y-17177374D02*
X14531825Y-17186898D01*
X14531825Y-17186898D02*
X14541349Y-17205945D01*
X14541349Y-17205945D02*
X14541349Y-17224993D01*
X14541349Y-17224993D02*
X14446111Y-17244041D01*
X14617539Y-17301184D02*
X14636587Y-17310707D01*
X14636587Y-17310707D02*
X14674682Y-17310707D01*
X14674682Y-17310707D02*
X14693730Y-17301184D01*
X14693730Y-17301184D02*
X14703253Y-17282136D01*
X14703253Y-17282136D02*
X14703253Y-17272612D01*
X14703253Y-17272612D02*
X14693730Y-17253564D01*
X14693730Y-17253564D02*
X14674682Y-17244041D01*
X14674682Y-17244041D02*
X14646111Y-17244041D01*
X14646111Y-17244041D02*
X14627063Y-17234517D01*
X14627063Y-17234517D02*
X14617539Y-17215469D01*
X14617539Y-17215469D02*
X14617539Y-17205945D01*
X14617539Y-17205945D02*
X14627063Y-17186898D01*
X14627063Y-17186898D02*
X14646111Y-17177374D01*
X14646111Y-17177374D02*
X14674682Y-17177374D01*
X14674682Y-17177374D02*
X14693730Y-17186898D01*
X14769920Y-17386898D02*
X14779444Y-17377374D01*
X14779444Y-17377374D02*
X14798492Y-17348803D01*
X14798492Y-17348803D02*
X14808015Y-17329755D01*
X14808015Y-17329755D02*
X14817539Y-17301184D01*
X14817539Y-17301184D02*
X14827063Y-17253564D01*
X14827063Y-17253564D02*
X14827063Y-17215469D01*
X14827063Y-17215469D02*
X14817539Y-17167850D01*
X14817539Y-17167850D02*
X14808015Y-17139279D01*
X14808015Y-17139279D02*
X14798492Y-17120231D01*
X14798492Y-17120231D02*
X14779444Y-17091660D01*
X14779444Y-17091660D02*
X14769920Y-17082136D01*
M02*
