G04 #@! TF.GenerationSoftware,KiCad,Pcbnew,8.0.6*
G04 #@! TF.CreationDate,2024-11-13T15:42:30-05:00*
G04 #@! TF.ProjectId,KiCAD-RFM69,4b694341-442d-4524-964d-36392e6b6963,rev?*
G04 #@! TF.SameCoordinates,Original*
G04 #@! TF.FileFunction,Legend,Bot*
G04 #@! TF.FilePolarity,Positive*
%FSLAX46Y46*%
G04 Gerber Fmt 4.6, Leading zero omitted, Abs format (unit mm)*
G04 Created by KiCad (PCBNEW 8.0.6) date 2024-11-13 15:42:30*
%MOMM*%
%LPD*%
G01*
G04 APERTURE LIST*
%ADD10C,0.152400*%
%ADD11C,0.250000*%
%ADD12C,0.650000*%
%ADD13C,2.000000*%
%ADD14R,1.700000X1.700000*%
%ADD15O,1.700000X1.700000*%
%ADD16R,3.000000X3.000000*%
%ADD17C,3.000000*%
%ADD18C,2.700000*%
%ADD19R,1.269000X1.269000*%
%ADD20C,1.269000*%
G04 APERTURE END LIST*
D10*
X137735940Y-74623354D02*
X137783559Y-74739468D01*
X137783559Y-74739468D02*
X137831178Y-74778173D01*
X137831178Y-74778173D02*
X137926416Y-74816877D01*
X137926416Y-74816877D02*
X138069273Y-74816877D01*
X138069273Y-74816877D02*
X138164511Y-74778173D01*
X138164511Y-74778173D02*
X138212131Y-74739468D01*
X138212131Y-74739468D02*
X138259750Y-74662058D01*
X138259750Y-74662058D02*
X138259750Y-74352420D01*
X138259750Y-74352420D02*
X137259750Y-74352420D01*
X137259750Y-74352420D02*
X137259750Y-74623354D01*
X137259750Y-74623354D02*
X137307369Y-74700763D01*
X137307369Y-74700763D02*
X137354988Y-74739468D01*
X137354988Y-74739468D02*
X137450226Y-74778173D01*
X137450226Y-74778173D02*
X137545464Y-74778173D01*
X137545464Y-74778173D02*
X137640702Y-74739468D01*
X137640702Y-74739468D02*
X137688321Y-74700763D01*
X137688321Y-74700763D02*
X137735940Y-74623354D01*
X137735940Y-74623354D02*
X137735940Y-74352420D01*
X138259750Y-75513563D02*
X137735940Y-75513563D01*
X137735940Y-75513563D02*
X137640702Y-75474858D01*
X137640702Y-75474858D02*
X137593083Y-75397449D01*
X137593083Y-75397449D02*
X137593083Y-75242630D01*
X137593083Y-75242630D02*
X137640702Y-75165220D01*
X138212131Y-75513563D02*
X138259750Y-75436154D01*
X138259750Y-75436154D02*
X138259750Y-75242630D01*
X138259750Y-75242630D02*
X138212131Y-75165220D01*
X138212131Y-75165220D02*
X138116892Y-75126516D01*
X138116892Y-75126516D02*
X138021654Y-75126516D01*
X138021654Y-75126516D02*
X137926416Y-75165220D01*
X137926416Y-75165220D02*
X137878797Y-75242630D01*
X137878797Y-75242630D02*
X137878797Y-75436154D01*
X137878797Y-75436154D02*
X137831178Y-75513563D01*
X137593083Y-75784496D02*
X137593083Y-76094134D01*
X137259750Y-75900610D02*
X138116892Y-75900610D01*
X138116892Y-75900610D02*
X138212131Y-75939315D01*
X138212131Y-75939315D02*
X138259750Y-76016725D01*
X138259750Y-76016725D02*
X138259750Y-76094134D01*
X137593083Y-76248953D02*
X137593083Y-76558591D01*
X137259750Y-76365067D02*
X138116892Y-76365067D01*
X138116892Y-76365067D02*
X138212131Y-76403772D01*
X138212131Y-76403772D02*
X138259750Y-76481182D01*
X138259750Y-76481182D02*
X138259750Y-76558591D01*
X138212131Y-77139162D02*
X138259750Y-77061753D01*
X138259750Y-77061753D02*
X138259750Y-76906934D01*
X138259750Y-76906934D02*
X138212131Y-76829524D01*
X138212131Y-76829524D02*
X138116892Y-76790820D01*
X138116892Y-76790820D02*
X137735940Y-76790820D01*
X137735940Y-76790820D02*
X137640702Y-76829524D01*
X137640702Y-76829524D02*
X137593083Y-76906934D01*
X137593083Y-76906934D02*
X137593083Y-77061753D01*
X137593083Y-77061753D02*
X137640702Y-77139162D01*
X137640702Y-77139162D02*
X137735940Y-77177867D01*
X137735940Y-77177867D02*
X137831178Y-77177867D01*
X137831178Y-77177867D02*
X137926416Y-76790820D01*
X138259750Y-77526210D02*
X137593083Y-77526210D01*
X137783559Y-77526210D02*
X137688321Y-77564915D01*
X137688321Y-77564915D02*
X137640702Y-77603620D01*
X137640702Y-77603620D02*
X137593083Y-77681029D01*
X137593083Y-77681029D02*
X137593083Y-77758439D01*
X137593083Y-77951963D02*
X138259750Y-78145487D01*
X137593083Y-78339010D02*
X138259750Y-78145487D01*
X138259750Y-78145487D02*
X138497845Y-78068077D01*
X138497845Y-78068077D02*
X138545464Y-78029372D01*
X138545464Y-78029372D02*
X138593083Y-77951963D01*
X138259750Y-79267924D02*
X137259750Y-79267924D01*
X137593083Y-79654972D02*
X138259750Y-79654972D01*
X137688321Y-79654972D02*
X137640702Y-79693677D01*
X137640702Y-79693677D02*
X137593083Y-79771087D01*
X137593083Y-79771087D02*
X137593083Y-79887201D01*
X137593083Y-79887201D02*
X137640702Y-79964610D01*
X137640702Y-79964610D02*
X137735940Y-80003315D01*
X137735940Y-80003315D02*
X138259750Y-80003315D01*
X137593083Y-80390362D02*
X138593083Y-80390362D01*
X137640702Y-80390362D02*
X137593083Y-80467772D01*
X137593083Y-80467772D02*
X137593083Y-80622591D01*
X137593083Y-80622591D02*
X137640702Y-80700000D01*
X137640702Y-80700000D02*
X137688321Y-80738705D01*
X137688321Y-80738705D02*
X137783559Y-80777410D01*
X137783559Y-80777410D02*
X138069273Y-80777410D01*
X138069273Y-80777410D02*
X138164511Y-80738705D01*
X138164511Y-80738705D02*
X138212131Y-80700000D01*
X138212131Y-80700000D02*
X138259750Y-80622591D01*
X138259750Y-80622591D02*
X138259750Y-80467772D01*
X138259750Y-80467772D02*
X138212131Y-80390362D01*
X137593083Y-81474095D02*
X138259750Y-81474095D01*
X137593083Y-81125752D02*
X138116892Y-81125752D01*
X138116892Y-81125752D02*
X138212131Y-81164457D01*
X138212131Y-81164457D02*
X138259750Y-81241867D01*
X138259750Y-81241867D02*
X138259750Y-81357981D01*
X138259750Y-81357981D02*
X138212131Y-81435390D01*
X138212131Y-81435390D02*
X138164511Y-81474095D01*
X137593083Y-81745028D02*
X137593083Y-82054666D01*
X137259750Y-81861142D02*
X138116892Y-81861142D01*
X138116892Y-81861142D02*
X138212131Y-81899847D01*
X138212131Y-81899847D02*
X138259750Y-81977257D01*
X138259750Y-81977257D02*
X138259750Y-82054666D01*
X137259750Y-82828761D02*
X138259750Y-83099694D01*
X138259750Y-83099694D02*
X137259750Y-83370628D01*
X138259750Y-83757676D02*
X138212131Y-83680266D01*
X138212131Y-83680266D02*
X138164511Y-83641561D01*
X138164511Y-83641561D02*
X138069273Y-83602857D01*
X138069273Y-83602857D02*
X137783559Y-83602857D01*
X137783559Y-83602857D02*
X137688321Y-83641561D01*
X137688321Y-83641561D02*
X137640702Y-83680266D01*
X137640702Y-83680266D02*
X137593083Y-83757676D01*
X137593083Y-83757676D02*
X137593083Y-83873790D01*
X137593083Y-83873790D02*
X137640702Y-83951199D01*
X137640702Y-83951199D02*
X137688321Y-83989904D01*
X137688321Y-83989904D02*
X137783559Y-84028609D01*
X137783559Y-84028609D02*
X138069273Y-84028609D01*
X138069273Y-84028609D02*
X138164511Y-83989904D01*
X138164511Y-83989904D02*
X138212131Y-83951199D01*
X138212131Y-83951199D02*
X138259750Y-83873790D01*
X138259750Y-83873790D02*
X138259750Y-83757676D01*
X138259750Y-84493066D02*
X138212131Y-84415656D01*
X138212131Y-84415656D02*
X138116892Y-84376951D01*
X138116892Y-84376951D02*
X137259750Y-84376951D01*
X137593083Y-84686589D02*
X137593083Y-84996227D01*
X137259750Y-84802703D02*
X138116892Y-84802703D01*
X138116892Y-84802703D02*
X138212131Y-84841408D01*
X138212131Y-84841408D02*
X138259750Y-84918818D01*
X138259750Y-84918818D02*
X138259750Y-84996227D01*
X138259750Y-85615503D02*
X137735940Y-85615503D01*
X137735940Y-85615503D02*
X137640702Y-85576798D01*
X137640702Y-85576798D02*
X137593083Y-85499389D01*
X137593083Y-85499389D02*
X137593083Y-85344570D01*
X137593083Y-85344570D02*
X137640702Y-85267160D01*
X138212131Y-85615503D02*
X138259750Y-85538094D01*
X138259750Y-85538094D02*
X138259750Y-85344570D01*
X138259750Y-85344570D02*
X138212131Y-85267160D01*
X138212131Y-85267160D02*
X138116892Y-85228456D01*
X138116892Y-85228456D02*
X138021654Y-85228456D01*
X138021654Y-85228456D02*
X137926416Y-85267160D01*
X137926416Y-85267160D02*
X137878797Y-85344570D01*
X137878797Y-85344570D02*
X137878797Y-85538094D01*
X137878797Y-85538094D02*
X137831178Y-85615503D01*
X137593083Y-86350893D02*
X138402607Y-86350893D01*
X138402607Y-86350893D02*
X138497845Y-86312188D01*
X138497845Y-86312188D02*
X138545464Y-86273484D01*
X138545464Y-86273484D02*
X138593083Y-86196074D01*
X138593083Y-86196074D02*
X138593083Y-86079960D01*
X138593083Y-86079960D02*
X138545464Y-86002550D01*
X138212131Y-86350893D02*
X138259750Y-86273484D01*
X138259750Y-86273484D02*
X138259750Y-86118665D01*
X138259750Y-86118665D02*
X138212131Y-86041255D01*
X138212131Y-86041255D02*
X138164511Y-86002550D01*
X138164511Y-86002550D02*
X138069273Y-85963846D01*
X138069273Y-85963846D02*
X137783559Y-85963846D01*
X137783559Y-85963846D02*
X137688321Y-86002550D01*
X137688321Y-86002550D02*
X137640702Y-86041255D01*
X137640702Y-86041255D02*
X137593083Y-86118665D01*
X137593083Y-86118665D02*
X137593083Y-86273484D01*
X137593083Y-86273484D02*
X137640702Y-86350893D01*
X138212131Y-87047578D02*
X138259750Y-86970169D01*
X138259750Y-86970169D02*
X138259750Y-86815350D01*
X138259750Y-86815350D02*
X138212131Y-86737940D01*
X138212131Y-86737940D02*
X138116892Y-86699236D01*
X138116892Y-86699236D02*
X137735940Y-86699236D01*
X137735940Y-86699236D02*
X137640702Y-86737940D01*
X137640702Y-86737940D02*
X137593083Y-86815350D01*
X137593083Y-86815350D02*
X137593083Y-86970169D01*
X137593083Y-86970169D02*
X137640702Y-87047578D01*
X137640702Y-87047578D02*
X137735940Y-87086283D01*
X137735940Y-87086283D02*
X137831178Y-87086283D01*
X137831178Y-87086283D02*
X137926416Y-86699236D01*
X138869694Y-77293981D02*
X138869694Y-77797143D01*
X138869694Y-77797143D02*
X139250646Y-77526209D01*
X139250646Y-77526209D02*
X139250646Y-77642324D01*
X139250646Y-77642324D02*
X139298265Y-77719733D01*
X139298265Y-77719733D02*
X139345884Y-77758438D01*
X139345884Y-77758438D02*
X139441122Y-77797143D01*
X139441122Y-77797143D02*
X139679217Y-77797143D01*
X139679217Y-77797143D02*
X139774455Y-77758438D01*
X139774455Y-77758438D02*
X139822075Y-77719733D01*
X139822075Y-77719733D02*
X139869694Y-77642324D01*
X139869694Y-77642324D02*
X139869694Y-77410095D01*
X139869694Y-77410095D02*
X139822075Y-77332686D01*
X139822075Y-77332686D02*
X139774455Y-77293981D01*
X139774455Y-78145485D02*
X139822075Y-78184190D01*
X139822075Y-78184190D02*
X139869694Y-78145485D01*
X139869694Y-78145485D02*
X139822075Y-78106781D01*
X139822075Y-78106781D02*
X139774455Y-78145485D01*
X139774455Y-78145485D02*
X139869694Y-78145485D01*
X139298265Y-78648648D02*
X139250646Y-78571238D01*
X139250646Y-78571238D02*
X139203027Y-78532533D01*
X139203027Y-78532533D02*
X139107789Y-78493829D01*
X139107789Y-78493829D02*
X139060170Y-78493829D01*
X139060170Y-78493829D02*
X138964932Y-78532533D01*
X138964932Y-78532533D02*
X138917313Y-78571238D01*
X138917313Y-78571238D02*
X138869694Y-78648648D01*
X138869694Y-78648648D02*
X138869694Y-78803467D01*
X138869694Y-78803467D02*
X138917313Y-78880876D01*
X138917313Y-78880876D02*
X138964932Y-78919581D01*
X138964932Y-78919581D02*
X139060170Y-78958286D01*
X139060170Y-78958286D02*
X139107789Y-78958286D01*
X139107789Y-78958286D02*
X139203027Y-78919581D01*
X139203027Y-78919581D02*
X139250646Y-78880876D01*
X139250646Y-78880876D02*
X139298265Y-78803467D01*
X139298265Y-78803467D02*
X139298265Y-78648648D01*
X139298265Y-78648648D02*
X139345884Y-78571238D01*
X139345884Y-78571238D02*
X139393503Y-78532533D01*
X139393503Y-78532533D02*
X139488741Y-78493829D01*
X139488741Y-78493829D02*
X139679217Y-78493829D01*
X139679217Y-78493829D02*
X139774455Y-78532533D01*
X139774455Y-78532533D02*
X139822075Y-78571238D01*
X139822075Y-78571238D02*
X139869694Y-78648648D01*
X139869694Y-78648648D02*
X139869694Y-78803467D01*
X139869694Y-78803467D02*
X139822075Y-78880876D01*
X139822075Y-78880876D02*
X139774455Y-78919581D01*
X139774455Y-78919581D02*
X139679217Y-78958286D01*
X139679217Y-78958286D02*
X139488741Y-78958286D01*
X139488741Y-78958286D02*
X139393503Y-78919581D01*
X139393503Y-78919581D02*
X139345884Y-78880876D01*
X139345884Y-78880876D02*
X139298265Y-78803467D01*
X139203027Y-79229219D02*
X139869694Y-79422743D01*
X139869694Y-79422743D02*
X139203027Y-79616266D01*
X139488741Y-80545180D02*
X139488741Y-81164457D01*
X138869694Y-82093371D02*
X138869694Y-82596533D01*
X138869694Y-82596533D02*
X139250646Y-82325599D01*
X139250646Y-82325599D02*
X139250646Y-82441714D01*
X139250646Y-82441714D02*
X139298265Y-82519123D01*
X139298265Y-82519123D02*
X139345884Y-82557828D01*
X139345884Y-82557828D02*
X139441122Y-82596533D01*
X139441122Y-82596533D02*
X139679217Y-82596533D01*
X139679217Y-82596533D02*
X139774455Y-82557828D01*
X139774455Y-82557828D02*
X139822075Y-82519123D01*
X139822075Y-82519123D02*
X139869694Y-82441714D01*
X139869694Y-82441714D02*
X139869694Y-82209485D01*
X139869694Y-82209485D02*
X139822075Y-82132076D01*
X139822075Y-82132076D02*
X139774455Y-82093371D01*
X138964932Y-82906171D02*
X138917313Y-82944875D01*
X138917313Y-82944875D02*
X138869694Y-83022285D01*
X138869694Y-83022285D02*
X138869694Y-83215809D01*
X138869694Y-83215809D02*
X138917313Y-83293218D01*
X138917313Y-83293218D02*
X138964932Y-83331923D01*
X138964932Y-83331923D02*
X139060170Y-83370628D01*
X139060170Y-83370628D02*
X139155408Y-83370628D01*
X139155408Y-83370628D02*
X139298265Y-83331923D01*
X139298265Y-83331923D02*
X139869694Y-82867466D01*
X139869694Y-82867466D02*
X139869694Y-83370628D01*
X138869694Y-83602856D02*
X139869694Y-83873789D01*
X139869694Y-83873789D02*
X138869694Y-84144723D01*
D11*
X131354574Y-72902462D02*
X131354574Y-70902462D01*
X131354574Y-70902462D02*
X130745050Y-70902462D01*
X130745050Y-70902462D02*
X130592669Y-70997700D01*
X130592669Y-70997700D02*
X130516479Y-71092938D01*
X130516479Y-71092938D02*
X130440288Y-71283414D01*
X130440288Y-71283414D02*
X130440288Y-71569128D01*
X130440288Y-71569128D02*
X130516479Y-71759604D01*
X130516479Y-71759604D02*
X130592669Y-71854843D01*
X130592669Y-71854843D02*
X130745050Y-71950081D01*
X130745050Y-71950081D02*
X131354574Y-71950081D01*
X129754574Y-72902462D02*
X129754574Y-71569128D01*
X129754574Y-70902462D02*
X129830765Y-70997700D01*
X129830765Y-70997700D02*
X129754574Y-71092938D01*
X129754574Y-71092938D02*
X129678384Y-70997700D01*
X129678384Y-70997700D02*
X129754574Y-70902462D01*
X129754574Y-70902462D02*
X129754574Y-71092938D01*
X128306955Y-72807224D02*
X128459336Y-72902462D01*
X128459336Y-72902462D02*
X128764098Y-72902462D01*
X128764098Y-72902462D02*
X128916479Y-72807224D01*
X128916479Y-72807224D02*
X128992669Y-72711985D01*
X128992669Y-72711985D02*
X129068860Y-72521509D01*
X129068860Y-72521509D02*
X129068860Y-71950081D01*
X129068860Y-71950081D02*
X128992669Y-71759604D01*
X128992669Y-71759604D02*
X128916479Y-71664366D01*
X128916479Y-71664366D02*
X128764098Y-71569128D01*
X128764098Y-71569128D02*
X128459336Y-71569128D01*
X128459336Y-71569128D02*
X128306955Y-71664366D01*
X127392669Y-72902462D02*
X127545050Y-72807224D01*
X127545050Y-72807224D02*
X127621240Y-72711985D01*
X127621240Y-72711985D02*
X127697431Y-72521509D01*
X127697431Y-72521509D02*
X127697431Y-71950081D01*
X127697431Y-71950081D02*
X127621240Y-71759604D01*
X127621240Y-71759604D02*
X127545050Y-71664366D01*
X127545050Y-71664366D02*
X127392669Y-71569128D01*
X127392669Y-71569128D02*
X127164097Y-71569128D01*
X127164097Y-71569128D02*
X127011716Y-71664366D01*
X127011716Y-71664366D02*
X126935526Y-71759604D01*
X126935526Y-71759604D02*
X126859335Y-71950081D01*
X126859335Y-71950081D02*
X126859335Y-72521509D01*
X126859335Y-72521509D02*
X126935526Y-72711985D01*
X126935526Y-72711985D02*
X127011716Y-72807224D01*
X127011716Y-72807224D02*
X127164097Y-72902462D01*
X127164097Y-72902462D02*
X127392669Y-72902462D01*
X125411716Y-72902462D02*
X126173621Y-72902462D01*
X126173621Y-72902462D02*
X126173621Y-70902462D01*
X124192669Y-71569128D02*
X124192669Y-72902462D01*
X124878383Y-71569128D02*
X124878383Y-72616747D01*
X124878383Y-72616747D02*
X124802193Y-72807224D01*
X124802193Y-72807224D02*
X124649812Y-72902462D01*
X124649812Y-72902462D02*
X124421240Y-72902462D01*
X124421240Y-72902462D02*
X124268859Y-72807224D01*
X124268859Y-72807224D02*
X124192669Y-72711985D01*
X123430764Y-72902462D02*
X123430764Y-71569128D01*
X123430764Y-71759604D02*
X123354574Y-71664366D01*
X123354574Y-71664366D02*
X123202193Y-71569128D01*
X123202193Y-71569128D02*
X122973621Y-71569128D01*
X122973621Y-71569128D02*
X122821240Y-71664366D01*
X122821240Y-71664366D02*
X122745050Y-71854843D01*
X122745050Y-71854843D02*
X122745050Y-72902462D01*
X122745050Y-71854843D02*
X122668859Y-71664366D01*
X122668859Y-71664366D02*
X122516478Y-71569128D01*
X122516478Y-71569128D02*
X122287907Y-71569128D01*
X122287907Y-71569128D02*
X122135526Y-71664366D01*
X122135526Y-71664366D02*
X122059336Y-71854843D01*
X122059336Y-71854843D02*
X122059336Y-72902462D01*
X120687907Y-72807224D02*
X120840288Y-72902462D01*
X120840288Y-72902462D02*
X121145050Y-72902462D01*
X121145050Y-72902462D02*
X121297431Y-72807224D01*
X121297431Y-72807224D02*
X121373622Y-72616747D01*
X121373622Y-72616747D02*
X121373622Y-71854843D01*
X121373622Y-71854843D02*
X121297431Y-71664366D01*
X121297431Y-71664366D02*
X121145050Y-71569128D01*
X121145050Y-71569128D02*
X120840288Y-71569128D01*
X120840288Y-71569128D02*
X120687907Y-71664366D01*
X120687907Y-71664366D02*
X120611717Y-71854843D01*
X120611717Y-71854843D02*
X120611717Y-72045319D01*
X120611717Y-72045319D02*
X121373622Y-72235795D01*
X118859335Y-71569128D02*
X118478383Y-72902462D01*
X118478383Y-72902462D02*
X118097430Y-71569128D01*
X116649811Y-72902462D02*
X117564097Y-72902462D01*
X117106954Y-72902462D02*
X117106954Y-70902462D01*
X117106954Y-70902462D02*
X117259335Y-71188176D01*
X117259335Y-71188176D02*
X117411716Y-71378652D01*
X117411716Y-71378652D02*
X117564097Y-71473890D01*
X115964096Y-72711985D02*
X115887906Y-72807224D01*
X115887906Y-72807224D02*
X115964096Y-72902462D01*
X115964096Y-72902462D02*
X116040287Y-72807224D01*
X116040287Y-72807224D02*
X115964096Y-72711985D01*
X115964096Y-72711985D02*
X115964096Y-72902462D01*
X114897429Y-70902462D02*
X114745048Y-70902462D01*
X114745048Y-70902462D02*
X114592667Y-70997700D01*
X114592667Y-70997700D02*
X114516477Y-71092938D01*
X114516477Y-71092938D02*
X114440286Y-71283414D01*
X114440286Y-71283414D02*
X114364096Y-71664366D01*
X114364096Y-71664366D02*
X114364096Y-72140557D01*
X114364096Y-72140557D02*
X114440286Y-72521509D01*
X114440286Y-72521509D02*
X114516477Y-72711985D01*
X114516477Y-72711985D02*
X114592667Y-72807224D01*
X114592667Y-72807224D02*
X114745048Y-72902462D01*
X114745048Y-72902462D02*
X114897429Y-72902462D01*
X114897429Y-72902462D02*
X115049810Y-72807224D01*
X115049810Y-72807224D02*
X115126001Y-72711985D01*
X115126001Y-72711985D02*
X115202191Y-72521509D01*
X115202191Y-72521509D02*
X115278382Y-72140557D01*
X115278382Y-72140557D02*
X115278382Y-71664366D01*
X115278382Y-71664366D02*
X115202191Y-71283414D01*
X115202191Y-71283414D02*
X115126001Y-71092938D01*
X115126001Y-71092938D02*
X115049810Y-70997700D01*
X115049810Y-70997700D02*
X114897429Y-70902462D01*
X130821241Y-75074731D02*
X130592669Y-75169969D01*
X130592669Y-75169969D02*
X130516479Y-75265207D01*
X130516479Y-75265207D02*
X130440288Y-75455683D01*
X130440288Y-75455683D02*
X130440288Y-75741397D01*
X130440288Y-75741397D02*
X130516479Y-75931873D01*
X130516479Y-75931873D02*
X130592669Y-76027112D01*
X130592669Y-76027112D02*
X130745050Y-76122350D01*
X130745050Y-76122350D02*
X131354574Y-76122350D01*
X131354574Y-76122350D02*
X131354574Y-74122350D01*
X131354574Y-74122350D02*
X130821241Y-74122350D01*
X130821241Y-74122350D02*
X130668860Y-74217588D01*
X130668860Y-74217588D02*
X130592669Y-74312826D01*
X130592669Y-74312826D02*
X130516479Y-74503302D01*
X130516479Y-74503302D02*
X130516479Y-74693778D01*
X130516479Y-74693778D02*
X130592669Y-74884254D01*
X130592669Y-74884254D02*
X130668860Y-74979492D01*
X130668860Y-74979492D02*
X130821241Y-75074731D01*
X130821241Y-75074731D02*
X131354574Y-75074731D01*
X129754574Y-76122350D02*
X129754574Y-74789016D01*
X129754574Y-75169969D02*
X129678384Y-74979492D01*
X129678384Y-74979492D02*
X129602193Y-74884254D01*
X129602193Y-74884254D02*
X129449812Y-74789016D01*
X129449812Y-74789016D02*
X129297431Y-74789016D01*
X128078384Y-76122350D02*
X128078384Y-75074731D01*
X128078384Y-75074731D02*
X128154574Y-74884254D01*
X128154574Y-74884254D02*
X128306955Y-74789016D01*
X128306955Y-74789016D02*
X128611717Y-74789016D01*
X128611717Y-74789016D02*
X128764098Y-74884254D01*
X128078384Y-76027112D02*
X128230765Y-76122350D01*
X128230765Y-76122350D02*
X128611717Y-76122350D01*
X128611717Y-76122350D02*
X128764098Y-76027112D01*
X128764098Y-76027112D02*
X128840289Y-75836635D01*
X128840289Y-75836635D02*
X128840289Y-75646159D01*
X128840289Y-75646159D02*
X128764098Y-75455683D01*
X128764098Y-75455683D02*
X128611717Y-75360445D01*
X128611717Y-75360445D02*
X128230765Y-75360445D01*
X128230765Y-75360445D02*
X128078384Y-75265207D01*
X126630765Y-76122350D02*
X126630765Y-74122350D01*
X126630765Y-76027112D02*
X126783146Y-76122350D01*
X126783146Y-76122350D02*
X127087908Y-76122350D01*
X127087908Y-76122350D02*
X127240289Y-76027112D01*
X127240289Y-76027112D02*
X127316479Y-75931873D01*
X127316479Y-75931873D02*
X127392670Y-75741397D01*
X127392670Y-75741397D02*
X127392670Y-75169969D01*
X127392670Y-75169969D02*
X127316479Y-74979492D01*
X127316479Y-74979492D02*
X127240289Y-74884254D01*
X127240289Y-74884254D02*
X127087908Y-74789016D01*
X127087908Y-74789016D02*
X126783146Y-74789016D01*
X126783146Y-74789016D02*
X126630765Y-74884254D01*
X124649812Y-76122350D02*
X124649812Y-74122350D01*
X124649812Y-75074731D02*
X123735526Y-75074731D01*
X123735526Y-76122350D02*
X123735526Y-74122350D01*
X122364098Y-76027112D02*
X122516479Y-76122350D01*
X122516479Y-76122350D02*
X122821241Y-76122350D01*
X122821241Y-76122350D02*
X122973622Y-76027112D01*
X122973622Y-76027112D02*
X123049813Y-75836635D01*
X123049813Y-75836635D02*
X123049813Y-75074731D01*
X123049813Y-75074731D02*
X122973622Y-74884254D01*
X122973622Y-74884254D02*
X122821241Y-74789016D01*
X122821241Y-74789016D02*
X122516479Y-74789016D01*
X122516479Y-74789016D02*
X122364098Y-74884254D01*
X122364098Y-74884254D02*
X122287908Y-75074731D01*
X122287908Y-75074731D02*
X122287908Y-75265207D01*
X122287908Y-75265207D02*
X123049813Y-75455683D01*
X121602193Y-74789016D02*
X121602193Y-76122350D01*
X121602193Y-74979492D02*
X121526003Y-74884254D01*
X121526003Y-74884254D02*
X121373622Y-74789016D01*
X121373622Y-74789016D02*
X121145050Y-74789016D01*
X121145050Y-74789016D02*
X120992669Y-74884254D01*
X120992669Y-74884254D02*
X120916479Y-75074731D01*
X120916479Y-75074731D02*
X120916479Y-76122350D01*
X120230765Y-76027112D02*
X120078384Y-76122350D01*
X120078384Y-76122350D02*
X119773622Y-76122350D01*
X119773622Y-76122350D02*
X119621241Y-76027112D01*
X119621241Y-76027112D02*
X119545050Y-75836635D01*
X119545050Y-75836635D02*
X119545050Y-75741397D01*
X119545050Y-75741397D02*
X119621241Y-75550921D01*
X119621241Y-75550921D02*
X119773622Y-75455683D01*
X119773622Y-75455683D02*
X120002193Y-75455683D01*
X120002193Y-75455683D02*
X120154574Y-75360445D01*
X120154574Y-75360445D02*
X120230765Y-75169969D01*
X120230765Y-75169969D02*
X120230765Y-75074731D01*
X120230765Y-75074731D02*
X120154574Y-74884254D01*
X120154574Y-74884254D02*
X120002193Y-74789016D01*
X120002193Y-74789016D02*
X119773622Y-74789016D01*
X119773622Y-74789016D02*
X119621241Y-74884254D01*
X118630765Y-76122350D02*
X118783146Y-76027112D01*
X118783146Y-76027112D02*
X118859336Y-75931873D01*
X118859336Y-75931873D02*
X118935527Y-75741397D01*
X118935527Y-75741397D02*
X118935527Y-75169969D01*
X118935527Y-75169969D02*
X118859336Y-74979492D01*
X118859336Y-74979492D02*
X118783146Y-74884254D01*
X118783146Y-74884254D02*
X118630765Y-74789016D01*
X118630765Y-74789016D02*
X118402193Y-74789016D01*
X118402193Y-74789016D02*
X118249812Y-74884254D01*
X118249812Y-74884254D02*
X118173622Y-74979492D01*
X118173622Y-74979492D02*
X118097431Y-75169969D01*
X118097431Y-75169969D02*
X118097431Y-75741397D01*
X118097431Y-75741397D02*
X118173622Y-75931873D01*
X118173622Y-75931873D02*
X118249812Y-76027112D01*
X118249812Y-76027112D02*
X118402193Y-76122350D01*
X118402193Y-76122350D02*
X118630765Y-76122350D01*
X117411717Y-74789016D02*
X117411717Y-76122350D01*
X117411717Y-74979492D02*
X117335527Y-74884254D01*
X117335527Y-74884254D02*
X117183146Y-74789016D01*
X117183146Y-74789016D02*
X116954574Y-74789016D01*
X116954574Y-74789016D02*
X116802193Y-74884254D01*
X116802193Y-74884254D02*
X116726003Y-75074731D01*
X116726003Y-75074731D02*
X116726003Y-76122350D01*
X130516479Y-79342238D02*
X131430765Y-79342238D01*
X130973622Y-79342238D02*
X130973622Y-77342238D01*
X130973622Y-77342238D02*
X131126003Y-77627952D01*
X131126003Y-77627952D02*
X131278384Y-77818428D01*
X131278384Y-77818428D02*
X131430765Y-77913666D01*
X128992669Y-79342238D02*
X129906955Y-79342238D01*
X129449812Y-79342238D02*
X129449812Y-77342238D01*
X129449812Y-77342238D02*
X129602193Y-77627952D01*
X129602193Y-77627952D02*
X129754574Y-77818428D01*
X129754574Y-77818428D02*
X129906955Y-77913666D01*
X127164097Y-77247000D02*
X128535526Y-79818428D01*
X126706955Y-77532714D02*
X126630764Y-77437476D01*
X126630764Y-77437476D02*
X126478383Y-77342238D01*
X126478383Y-77342238D02*
X126097431Y-77342238D01*
X126097431Y-77342238D02*
X125945050Y-77437476D01*
X125945050Y-77437476D02*
X125868859Y-77532714D01*
X125868859Y-77532714D02*
X125792669Y-77723190D01*
X125792669Y-77723190D02*
X125792669Y-77913666D01*
X125792669Y-77913666D02*
X125868859Y-78199380D01*
X125868859Y-78199380D02*
X126783145Y-79342238D01*
X126783145Y-79342238D02*
X125792669Y-79342238D01*
X124802192Y-77342238D02*
X124649811Y-77342238D01*
X124649811Y-77342238D02*
X124497430Y-77437476D01*
X124497430Y-77437476D02*
X124421240Y-77532714D01*
X124421240Y-77532714D02*
X124345049Y-77723190D01*
X124345049Y-77723190D02*
X124268859Y-78104142D01*
X124268859Y-78104142D02*
X124268859Y-78580333D01*
X124268859Y-78580333D02*
X124345049Y-78961285D01*
X124345049Y-78961285D02*
X124421240Y-79151761D01*
X124421240Y-79151761D02*
X124497430Y-79247000D01*
X124497430Y-79247000D02*
X124649811Y-79342238D01*
X124649811Y-79342238D02*
X124802192Y-79342238D01*
X124802192Y-79342238D02*
X124954573Y-79247000D01*
X124954573Y-79247000D02*
X125030764Y-79151761D01*
X125030764Y-79151761D02*
X125106954Y-78961285D01*
X125106954Y-78961285D02*
X125183145Y-78580333D01*
X125183145Y-78580333D02*
X125183145Y-78104142D01*
X125183145Y-78104142D02*
X125106954Y-77723190D01*
X125106954Y-77723190D02*
X125030764Y-77532714D01*
X125030764Y-77532714D02*
X124954573Y-77437476D01*
X124954573Y-77437476D02*
X124802192Y-77342238D01*
X123659335Y-77532714D02*
X123583144Y-77437476D01*
X123583144Y-77437476D02*
X123430763Y-77342238D01*
X123430763Y-77342238D02*
X123049811Y-77342238D01*
X123049811Y-77342238D02*
X122897430Y-77437476D01*
X122897430Y-77437476D02*
X122821239Y-77532714D01*
X122821239Y-77532714D02*
X122745049Y-77723190D01*
X122745049Y-77723190D02*
X122745049Y-77913666D01*
X122745049Y-77913666D02*
X122821239Y-78199380D01*
X122821239Y-78199380D02*
X123735525Y-79342238D01*
X123735525Y-79342238D02*
X122745049Y-79342238D01*
X121373620Y-78008904D02*
X121373620Y-79342238D01*
X121754572Y-77247000D02*
X122135525Y-78675571D01*
X122135525Y-78675571D02*
X121145048Y-78675571D01*
%LPC*%
D12*
X121610000Y-68000000D03*
X127390000Y-68000000D03*
D13*
X102350000Y-90850000D03*
X102350000Y-84350000D03*
X106850000Y-90850000D03*
X106850000Y-84350000D03*
D14*
X122520000Y-145100000D03*
D15*
X125060000Y-145100000D03*
X127600000Y-145100000D03*
X130140000Y-145100000D03*
X132680000Y-145100000D03*
D13*
X102450000Y-79150000D03*
X102450000Y-72650000D03*
X106950000Y-79150000D03*
X106950000Y-72650000D03*
D16*
X142500000Y-93580000D03*
D17*
X142500000Y-88500000D03*
X142500000Y-83420000D03*
D14*
X102200000Y-98520000D03*
D15*
X102200000Y-101060000D03*
X102200000Y-103600000D03*
X102200000Y-106140000D03*
X102200000Y-108680000D03*
X102200000Y-111220000D03*
X102200000Y-113760000D03*
X102200000Y-116300000D03*
X102200000Y-118840000D03*
X102200000Y-121380000D03*
X102200000Y-123920000D03*
X102200000Y-126460000D03*
X102200000Y-129000000D03*
X102200000Y-131540000D03*
X102200000Y-134080000D03*
X102200000Y-136620000D03*
X102200000Y-139160000D03*
X102200000Y-141700000D03*
D18*
X103500000Y-146525126D03*
D19*
X117720000Y-127820000D03*
D20*
X117720000Y-130360000D03*
X117720000Y-132900000D03*
X117720000Y-135440000D03*
X117720000Y-137980000D03*
X117720000Y-140520000D03*
X117720000Y-143060000D03*
X117720000Y-145600000D03*
X110100000Y-127820000D03*
X110100000Y-130360000D03*
X110100000Y-132900000D03*
X110100000Y-135440000D03*
X110100000Y-137980000D03*
X110100000Y-140520000D03*
X110100000Y-143060000D03*
X110100000Y-145600000D03*
D18*
X143400000Y-146200000D03*
D14*
X133700000Y-123240000D03*
D15*
X133700000Y-120700000D03*
X133700000Y-118160000D03*
D14*
X144700000Y-98220000D03*
D15*
X144700000Y-100760000D03*
X144700000Y-103300000D03*
X144700000Y-105840000D03*
X144700000Y-108380000D03*
X144700000Y-110920000D03*
X144700000Y-113460000D03*
X144700000Y-116000000D03*
X144700000Y-118540000D03*
X144700000Y-121080000D03*
X144700000Y-123620000D03*
X144700000Y-126160000D03*
X144700000Y-128700000D03*
X144700000Y-131240000D03*
X144700000Y-133780000D03*
X144700000Y-136320000D03*
X144700000Y-138860000D03*
X144700000Y-141400000D03*
D18*
X103600000Y-66600000D03*
X143400000Y-66600000D03*
D16*
X142500000Y-77540000D03*
D17*
X142500000Y-72460000D03*
%LPD*%
M02*
