M48
; DRILL file {KiCad 8.0.6} date 2024-11-13T15:41:55-0500
; FORMAT={-:-/ absolute / metric / decimal}
; #@! TF.CreationDate,2024-11-13T15:41:55-05:00
; #@! TF.GenerationSoftware,Kicad,Pcbnew,8.0.6
; #@! TF.FileFunction,Plated,1,2,PTH
FMAT,2
METRIC
; #@! TA.AperFunction,Plated,PTH,ViaDrill
T1C0.300
; #@! TA.AperFunction,Plated,PTH,ComponentDrill
T2C0.350
; #@! TA.AperFunction,Plated,PTH,ViaDrill
T3C0.400
; #@! TA.AperFunction,Plated,PTH,ComponentDrill
T4C0.740
; #@! TA.AperFunction,Plated,PTH,ComponentDrill
T5C1.000
; #@! TA.AperFunction,Plated,PTH,ComponentDrill
T6C1.100
; #@! TA.AperFunction,Plated,PTH,ComponentDrill
T7C1.520
%
G90
G05
T1
X109.9Y-123.1
X112.1Y-81.4
X112.9Y-123.1
X115.6Y-69.8
X115.9Y-123.1
X118.9Y-123.1
X121.9Y-114.6
X121.9Y-123.1
X123.8Y-112.3
X123.8Y-116.6
X124.9Y-123.1
X124.9Y-127.6
X125.9Y-129.6
X126.4Y-131.6
X127.4Y-115.2
X127.9Y-123.1
X129.9Y-107.0
X131.8Y-109.4
X132.4Y-125.8
X133.7Y-142.3
X137.1Y-125.6
X141.8Y-117.0
X141.8Y-120.1
X141.9Y-104.6
T2
X126.325Y-103.325
X126.325Y-104.6
X126.325Y-105.875
X127.6Y-103.325
X127.6Y-104.6
X127.6Y-105.875
X128.875Y-103.325
X128.875Y-104.6
X128.875Y-105.875
T3
X108.0Y-66.5
X110.1Y-99.5
X111.6Y-116.5
X113.5Y-82.2
X115.2Y-107.3
X116.7Y-82.1
X116.7Y-86.0
X117.1Y-102.0
X117.3Y-112.4
X119.0Y-118.0
X120.7Y-92.4
X121.1Y-110.3
X121.75Y-116.45
X121.8Y-75.1
X122.4Y-92.4
X123.1Y-114.0
X123.6Y-80.4
X123.7Y-85.1
X124.1Y-92.4
X124.2Y-90.5
X125.1Y-141.6
X126.6Y-107.1
X126.9Y-77.1
X127.0Y-116.5
X127.2Y-75.1
X127.8Y-139.4
X129.1Y-115.3
X129.5Y-86.3
X129.5Y-90.5
X129.6Y-92.3
X130.8Y-115.3
X131.3Y-92.3
X131.3Y-118.2
X133.2Y-92.3
X134.1Y-147.6
X134.4Y-136.7
X134.5Y-108.875
X135.4Y-131.6
X136.725Y-99.2
X139.5Y-88.5
X140.5Y-143.6
X141.0Y-134.0
T4
X110.1Y-127.82
X110.1Y-130.36
X110.1Y-132.9
X110.1Y-135.44
X110.1Y-137.98
X110.1Y-140.52
X110.1Y-143.06
X110.1Y-145.6
X117.72Y-127.82
X117.72Y-130.36
X117.72Y-132.9
X117.72Y-135.44
X117.72Y-137.98
X117.72Y-140.52
X117.72Y-143.06
X117.72Y-145.6
T5
X102.2Y-98.52
X102.2Y-101.06
X102.2Y-103.6
X102.2Y-106.14
X102.2Y-108.68
X102.2Y-111.22
X102.2Y-113.76
X102.2Y-116.3
X102.2Y-118.84
X102.2Y-121.38
X102.2Y-123.92
X102.2Y-126.46
X102.2Y-129.0
X102.2Y-131.54
X102.2Y-134.08
X102.2Y-136.62
X102.2Y-139.16
X102.2Y-141.7
X122.52Y-145.1
X125.06Y-145.1
X127.6Y-145.1
X130.14Y-145.1
X132.68Y-145.1
X133.7Y-118.16
X133.7Y-120.7
X133.7Y-123.24
X144.7Y-98.22
X144.7Y-100.76
X144.7Y-103.3
X144.7Y-105.84
X144.7Y-108.38
X144.7Y-110.92
X144.7Y-113.46
X144.7Y-116.0
X144.7Y-118.54
X144.7Y-121.08
X144.7Y-123.62
X144.7Y-126.16
X144.7Y-128.7
X144.7Y-131.24
X144.7Y-133.78
X144.7Y-136.32
X144.7Y-138.86
X144.7Y-141.4
T6
X102.35Y-84.35
X102.35Y-90.85
X102.45Y-72.65
X102.45Y-79.15
X106.85Y-84.35
X106.85Y-90.85
X106.95Y-72.65
X106.95Y-79.15
T7
X142.5Y-72.46
X142.5Y-77.54
X142.5Y-83.42
X142.5Y-88.5
X142.5Y-93.58
M30
