G04 #@! TF.GenerationSoftware,KiCad,Pcbnew,8.0.6*
G04 #@! TF.CreationDate,2024-11-13T15:42:30-05:00*
G04 #@! TF.ProjectId,KiCAD-RFM69,4b694341-442d-4524-964d-36392e6b6963,rev?*
G04 #@! TF.SameCoordinates,Original*
G04 #@! TF.FileFunction,Copper,L2,Bot*
G04 #@! TF.FilePolarity,Positive*
%FSLAX46Y46*%
G04 Gerber Fmt 4.6, Leading zero omitted, Abs format (unit mm)*
G04 Created by KiCad (PCBNEW 8.0.6) date 2024-11-13 15:42:30*
%MOMM*%
%LPD*%
G01*
G04 APERTURE LIST*
G04 #@! TA.AperFunction,ComponentPad*
%ADD10C,2.000000*%
G04 #@! TD*
G04 #@! TA.AperFunction,ComponentPad*
%ADD11C,0.600000*%
G04 #@! TD*
G04 #@! TA.AperFunction,ComponentPad*
%ADD12R,1.700000X1.700000*%
G04 #@! TD*
G04 #@! TA.AperFunction,ComponentPad*
%ADD13O,1.700000X1.700000*%
G04 #@! TD*
G04 #@! TA.AperFunction,ComponentPad*
%ADD14R,3.000000X3.000000*%
G04 #@! TD*
G04 #@! TA.AperFunction,ComponentPad*
%ADD15C,3.000000*%
G04 #@! TD*
G04 #@! TA.AperFunction,ComponentPad*
%ADD16R,1.269000X1.269000*%
G04 #@! TD*
G04 #@! TA.AperFunction,ComponentPad*
%ADD17C,1.269000*%
G04 #@! TD*
G04 #@! TA.AperFunction,ViaPad*
%ADD18C,0.600000*%
G04 #@! TD*
G04 #@! TA.AperFunction,ViaPad*
%ADD19C,0.800000*%
G04 #@! TD*
G04 #@! TA.AperFunction,Conductor*
%ADD20C,0.150000*%
G04 #@! TD*
G04 #@! TA.AperFunction,Conductor*
%ADD21C,0.200000*%
G04 #@! TD*
G04 #@! TA.AperFunction,Conductor*
%ADD22C,0.500000*%
G04 #@! TD*
G04 APERTURE END LIST*
D10*
X102350000Y-90850000D03*
X102350000Y-84350000D03*
X106850000Y-90850000D03*
X106850000Y-84350000D03*
D11*
X128875000Y-105875000D03*
X128875000Y-104600000D03*
X128875000Y-103325000D03*
X127600000Y-105875000D03*
X127600000Y-104600000D03*
X127600000Y-103325000D03*
X126325000Y-105875000D03*
X126325000Y-104600000D03*
X126325000Y-103325000D03*
D12*
X122520000Y-145100000D03*
D13*
X125060000Y-145100000D03*
X127600000Y-145100000D03*
X130140000Y-145100000D03*
X132680000Y-145100000D03*
D10*
X102450000Y-79150000D03*
X102450000Y-72650000D03*
X106950000Y-79150000D03*
X106950000Y-72650000D03*
D14*
X142500000Y-93580000D03*
D15*
X142500000Y-88500000D03*
X142500000Y-83420000D03*
D12*
X102200000Y-98520000D03*
D13*
X102200000Y-101060000D03*
X102200000Y-103600000D03*
X102200000Y-106140000D03*
X102200000Y-108680000D03*
X102200000Y-111220000D03*
X102200000Y-113760000D03*
X102200000Y-116300000D03*
X102200000Y-118840000D03*
X102200000Y-121380000D03*
X102200000Y-123920000D03*
X102200000Y-126460000D03*
X102200000Y-129000000D03*
X102200000Y-131540000D03*
X102200000Y-134080000D03*
X102200000Y-136620000D03*
X102200000Y-139160000D03*
X102200000Y-141700000D03*
D16*
X117720000Y-127820000D03*
D17*
X117720000Y-130360000D03*
X117720000Y-132900000D03*
X117720000Y-135440000D03*
X117720000Y-137980000D03*
X117720000Y-140520000D03*
X117720000Y-143060000D03*
X117720000Y-145600000D03*
X110100000Y-127820000D03*
X110100000Y-130360000D03*
X110100000Y-132900000D03*
X110100000Y-135440000D03*
X110100000Y-137980000D03*
X110100000Y-140520000D03*
X110100000Y-143060000D03*
X110100000Y-145600000D03*
D12*
X133700000Y-123240000D03*
D13*
X133700000Y-120700000D03*
X133700000Y-118160000D03*
D12*
X144700000Y-98220000D03*
D13*
X144700000Y-100760000D03*
X144700000Y-103300000D03*
X144700000Y-105840000D03*
X144700000Y-108380000D03*
X144700000Y-110920000D03*
X144700000Y-113460000D03*
X144700000Y-116000000D03*
X144700000Y-118540000D03*
X144700000Y-121080000D03*
X144700000Y-123620000D03*
X144700000Y-126160000D03*
X144700000Y-128700000D03*
X144700000Y-131240000D03*
X144700000Y-133780000D03*
X144700000Y-136320000D03*
X144700000Y-138860000D03*
X144700000Y-141400000D03*
D14*
X142500000Y-77540000D03*
D15*
X142500000Y-72460000D03*
D18*
X133700000Y-142300000D03*
X112100000Y-81400000D03*
X129900000Y-107000000D03*
X115600000Y-69800000D03*
X141900000Y-104600000D03*
X141800000Y-117000000D03*
X141800000Y-120100000D03*
X125900000Y-129600000D03*
X126400000Y-131600000D03*
X127400000Y-115200000D03*
X121900000Y-114600000D03*
X131800000Y-109400000D03*
X132400000Y-125800000D03*
X137100000Y-125600000D03*
X124900000Y-127600000D03*
X127900000Y-123100000D03*
X124900000Y-123100000D03*
X121900000Y-123100000D03*
X118900000Y-123100000D03*
X115900000Y-123100000D03*
X112900000Y-123100000D03*
X109900000Y-123100000D03*
X123800000Y-112300000D03*
X123800000Y-116600000D03*
D19*
X127800000Y-139400000D03*
X134400000Y-136700000D03*
X135400000Y-131600000D03*
X119000000Y-118000000D03*
X127000000Y-116500000D03*
X129100000Y-115300000D03*
X108000000Y-66500000D03*
X129500000Y-86300000D03*
X140500000Y-143600000D03*
X134100000Y-147600000D03*
X129600000Y-92300000D03*
X120700000Y-92400000D03*
X131300000Y-92300000D03*
X115200000Y-107300000D03*
X130800000Y-115300000D03*
X122400000Y-92400000D03*
X110100000Y-99500000D03*
X121750000Y-116450000D03*
X111600000Y-116500000D03*
X121800000Y-75100000D03*
X133200000Y-92300000D03*
X121100000Y-110300000D03*
X127200000Y-75100000D03*
X117100000Y-102000000D03*
X126600000Y-107100000D03*
X113500000Y-82200000D03*
X125100000Y-141600000D03*
X136725000Y-99200000D03*
X134500000Y-108875000D03*
X124100000Y-92400000D03*
X117300000Y-112400000D03*
X116700000Y-86000000D03*
X124200000Y-90500000D03*
X129500000Y-90500000D03*
X116700000Y-82100000D03*
X123600000Y-80400000D03*
X126900000Y-77100000D03*
X131300000Y-118200000D03*
X141000000Y-134000000D03*
X123700000Y-85100000D03*
X123100000Y-114000000D03*
X139500000Y-88500000D03*
D20*
X135800000Y-120100000D02*
X135200000Y-120700000D01*
X135200000Y-120700000D02*
X133700000Y-120700000D01*
X135800000Y-110175000D02*
X135800000Y-120100000D01*
X134500000Y-108875000D02*
X135800000Y-110175000D01*
X133700000Y-142300000D02*
X118480000Y-142300000D01*
X118480000Y-142300000D02*
X117720000Y-143060000D01*
X117500000Y-119300000D02*
X112100000Y-113900000D01*
X125951357Y-119300000D02*
X117500000Y-119300000D01*
X129900000Y-107000000D02*
X129900000Y-115351357D01*
X129900000Y-115351357D02*
X125951357Y-119300000D01*
X112100000Y-113900000D02*
X112100000Y-81400000D01*
X119600000Y-73800000D02*
X115600000Y-69800000D01*
X139551357Y-87700000D02*
X123500000Y-87700000D01*
X140102000Y-102802000D02*
X140102000Y-88250643D01*
X123500000Y-87700000D02*
X119600000Y-83800000D01*
X119600000Y-83800000D02*
X119600000Y-73800000D01*
X141900000Y-104600000D02*
X140102000Y-102802000D01*
X140102000Y-88250643D02*
X139551357Y-87700000D01*
X141800000Y-120100000D02*
X141800000Y-117000000D01*
X125898000Y-129602000D02*
X125900000Y-129600000D01*
X125898000Y-131807936D02*
X125898000Y-129602000D01*
X140243094Y-136000000D02*
X130090064Y-136000000D01*
X144700000Y-131543094D02*
X140243094Y-136000000D01*
X130090064Y-136000000D02*
X125898000Y-131807936D01*
X144700000Y-131240000D02*
X144700000Y-131543094D01*
X140249357Y-135602000D02*
X130402000Y-135602000D01*
X130402000Y-135602000D02*
X126400000Y-131600000D01*
X142100000Y-133751357D02*
X140249357Y-135602000D01*
X142100000Y-128800000D02*
X142100000Y-133751357D01*
X142100000Y-126220000D02*
X142100000Y-128800000D01*
X144700000Y-123620000D02*
X142100000Y-126220000D01*
D21*
X135100000Y-135300000D02*
X131300000Y-131500000D01*
X141000000Y-134000000D02*
X139700000Y-135300000D01*
X139700000Y-135300000D02*
X135100000Y-135300000D01*
X131300000Y-131500000D02*
X131300000Y-118200000D01*
D20*
X124400000Y-117700000D02*
X126900000Y-115200000D01*
X123300000Y-117700000D02*
X124400000Y-117700000D01*
X126900000Y-115200000D02*
X127400000Y-115200000D01*
X122800000Y-117200000D02*
X123300000Y-117700000D01*
X122800000Y-115500000D02*
X122800000Y-117200000D01*
X121900000Y-114600000D02*
X122800000Y-115500000D01*
X132400000Y-125800000D02*
X132400000Y-110400000D01*
X132400000Y-110000000D02*
X131800000Y-109400000D01*
X132400000Y-110400000D02*
X132400000Y-110000000D01*
X137100000Y-125600000D02*
X137400000Y-125300000D01*
X137400000Y-125300000D02*
X137940000Y-125300000D01*
X137940000Y-125300000D02*
X144700000Y-118540000D01*
X110100000Y-124200000D02*
X102200000Y-116300000D01*
X110100000Y-127820000D02*
X110100000Y-124200000D01*
X104954000Y-125214000D02*
X104954000Y-121594000D01*
X110100000Y-130360000D02*
X104954000Y-125214000D01*
X104954000Y-121594000D02*
X102200000Y-118840000D01*
X104677000Y-123857000D02*
X102200000Y-121380000D01*
X104677000Y-127477000D02*
X104677000Y-123857000D01*
X110100000Y-132900000D02*
X104677000Y-127477000D01*
X104400000Y-126120000D02*
X102200000Y-123920000D01*
X110100000Y-135440000D02*
X104400000Y-129740000D01*
X104400000Y-129740000D02*
X104400000Y-126120000D01*
X104083000Y-128343000D02*
X102200000Y-126460000D01*
X104083000Y-131963000D02*
X104083000Y-128343000D01*
X110100000Y-137980000D02*
X104083000Y-131963000D01*
X103806000Y-134226000D02*
X103806000Y-130606000D01*
X110100000Y-140520000D02*
X103806000Y-134226000D01*
X103806000Y-130606000D02*
X102200000Y-129000000D01*
X103529000Y-132869000D02*
X102200000Y-131540000D01*
X103529000Y-136489000D02*
X103529000Y-132869000D01*
X110100000Y-143060000D02*
X103529000Y-136489000D01*
X103252000Y-135132000D02*
X102200000Y-134080000D01*
X110100000Y-145600000D02*
X103252000Y-138752000D01*
X103252000Y-138752000D02*
X103252000Y-135132000D01*
X123800000Y-116600000D02*
X123800000Y-112300000D01*
D21*
X127800000Y-139400000D02*
X130500000Y-136700000D01*
X130500000Y-136700000D02*
X134400000Y-136700000D01*
X135400000Y-130480000D02*
X144600000Y-121280000D01*
X135400000Y-131600000D02*
X135400000Y-130480000D01*
X119500000Y-118500000D02*
X125000000Y-118500000D01*
X119000000Y-118000000D02*
X119500000Y-118500000D01*
X125000000Y-118500000D02*
X127000000Y-116500000D01*
D22*
X124200000Y-90500000D02*
X129500000Y-90500000D01*
X116700000Y-82100000D02*
X116700000Y-86000000D01*
X123600000Y-80400000D02*
X126900000Y-77100000D01*
X131260000Y-77540000D02*
X142500000Y-77540000D01*
X123700000Y-85100000D02*
X131260000Y-77540000D01*
D21*
X123100000Y-104900000D02*
X123100000Y-114000000D01*
X139500000Y-88500000D02*
X123100000Y-104900000D01*
G04 #@! TA.AperFunction,Conductor*
G36*
X103591111Y-63500498D02*
G01*
X103594534Y-63500548D01*
X103646096Y-63502021D01*
X103651568Y-63502178D01*
X103651568Y-63502177D01*
X103651571Y-63502178D01*
X103651573Y-63502177D01*
X103659656Y-63501347D01*
X103659731Y-63502083D01*
X103673145Y-63500506D01*
X143527379Y-63504655D01*
X143541166Y-63506260D01*
X143541231Y-63505617D01*
X143549312Y-63506432D01*
X143549316Y-63506431D01*
X143549317Y-63506432D01*
X143605730Y-63504719D01*
X143609469Y-63504663D01*
X143622208Y-63504664D01*
X143625410Y-63504708D01*
X143927656Y-63512827D01*
X143941773Y-63514015D01*
X144244247Y-63557016D01*
X144258125Y-63559806D01*
X144553708Y-63637042D01*
X144567185Y-63641400D01*
X144633199Y-63667001D01*
X144852014Y-63751858D01*
X144864915Y-63757730D01*
X145135272Y-63899968D01*
X145147418Y-63907273D01*
X145374459Y-64062161D01*
X145399785Y-64079438D01*
X145411015Y-64088080D01*
X145526550Y-64188000D01*
X145642083Y-64287918D01*
X145652256Y-64297787D01*
X145859013Y-64522692D01*
X145867993Y-64533658D01*
X146047725Y-64780676D01*
X146055396Y-64792595D01*
X146205771Y-65058520D01*
X146212031Y-65071236D01*
X146331075Y-65352581D01*
X146335843Y-65365928D01*
X146422004Y-65659020D01*
X146425218Y-65672825D01*
X146477369Y-65973840D01*
X146478986Y-65987921D01*
X146496650Y-66296478D01*
X146496853Y-66303565D01*
X146496853Y-66365892D01*
X146497914Y-66373951D01*
X146497124Y-66374054D01*
X146499500Y-66392096D01*
X146499500Y-146578500D01*
X146499051Y-146589042D01*
X146473607Y-146887238D01*
X146471651Y-146901001D01*
X146412831Y-147195270D01*
X146409346Y-147208728D01*
X146317959Y-147494555D01*
X146312990Y-147507538D01*
X146190182Y-147781343D01*
X146183791Y-147793688D01*
X146031110Y-148052023D01*
X146023377Y-148063576D01*
X145842732Y-148303206D01*
X145833754Y-148313820D01*
X145627433Y-148531711D01*
X145617325Y-148541253D01*
X145387901Y-148734691D01*
X145376786Y-148743043D01*
X145127156Y-148909580D01*
X145115178Y-148916634D01*
X144848479Y-149054182D01*
X144835786Y-149059852D01*
X144555359Y-149166685D01*
X144542111Y-149170898D01*
X144251495Y-149245669D01*
X144237859Y-149248373D01*
X143940691Y-149290147D01*
X143926838Y-149291307D01*
X143631212Y-149299434D01*
X143628130Y-149299481D01*
X143614040Y-149299518D01*
X143610166Y-149299467D01*
X143554047Y-149297860D01*
X143545965Y-149298690D01*
X143545902Y-149298080D01*
X143531985Y-149299726D01*
X103503534Y-149401723D01*
X103496424Y-149401537D01*
X103178323Y-149384081D01*
X103164815Y-149382594D01*
X102853706Y-149330960D01*
X102840441Y-149328003D01*
X102739160Y-149299523D01*
X102536862Y-149242637D01*
X102524008Y-149238249D01*
X102272044Y-149136510D01*
X102231587Y-149120174D01*
X102219285Y-149114404D01*
X102156734Y-149080765D01*
X101941534Y-148965035D01*
X101929953Y-148957963D01*
X101670215Y-148779097D01*
X101659465Y-148770790D01*
X101420861Y-148564579D01*
X101411081Y-148555142D01*
X101196485Y-148324066D01*
X101187797Y-148313618D01*
X100999771Y-148060445D01*
X100992278Y-148049107D01*
X100833084Y-147776873D01*
X100826878Y-147764784D01*
X100798209Y-147700500D01*
X100698430Y-147476768D01*
X100693591Y-147464092D01*
X100597427Y-147163737D01*
X100594000Y-147150588D01*
X100560689Y-146986433D01*
X100531283Y-146841521D01*
X100529318Y-146828101D01*
X100501008Y-146516350D01*
X100500500Y-146505136D01*
X100500500Y-146407028D01*
X101999500Y-146407028D01*
X101999500Y-146643223D01*
X102036446Y-146876494D01*
X102109433Y-147101122D01*
X102160882Y-147202095D01*
X102216657Y-147311559D01*
X102355483Y-147502636D01*
X102522490Y-147669643D01*
X102713567Y-147808469D01*
X102804609Y-147854857D01*
X102924003Y-147915692D01*
X102924005Y-147915692D01*
X102924008Y-147915694D01*
X103044412Y-147954815D01*
X103148631Y-147988679D01*
X103381903Y-148025626D01*
X103381908Y-148025626D01*
X103618097Y-148025626D01*
X103851368Y-147988679D01*
X104075992Y-147915694D01*
X104286433Y-147808469D01*
X104477510Y-147669643D01*
X104644517Y-147502636D01*
X104783343Y-147311559D01*
X104890568Y-147101118D01*
X104963553Y-146876494D01*
X104976142Y-146797011D01*
X105000500Y-146643223D01*
X105000500Y-146407028D01*
X104963553Y-146173757D01*
X104916268Y-146028230D01*
X104890568Y-145949134D01*
X104890566Y-145949131D01*
X104890566Y-145949129D01*
X104834002Y-145838117D01*
X104783343Y-145738693D01*
X104644517Y-145547616D01*
X104477510Y-145380609D01*
X104286433Y-145241783D01*
X104274581Y-145235744D01*
X104075996Y-145134559D01*
X103851368Y-145061572D01*
X103618097Y-145024626D01*
X103618092Y-145024626D01*
X103381908Y-145024626D01*
X103381903Y-145024626D01*
X103148631Y-145061572D01*
X102924003Y-145134559D01*
X102713566Y-145241783D01*
X102625274Y-145305932D01*
X102522490Y-145380609D01*
X102522488Y-145380611D01*
X102522487Y-145380611D01*
X102355485Y-145547613D01*
X102355485Y-145547614D01*
X102355483Y-145547616D01*
X102317424Y-145600000D01*
X102216657Y-145738692D01*
X102109433Y-145949129D01*
X102036446Y-146173757D01*
X101999500Y-146407028D01*
X100500500Y-146407028D01*
X100500500Y-141449999D01*
X100869364Y-141449999D01*
X100869364Y-141450000D01*
X101766988Y-141450000D01*
X101734075Y-141507007D01*
X101700000Y-141634174D01*
X101700000Y-141765826D01*
X101734075Y-141892993D01*
X101766988Y-141950000D01*
X100869364Y-141950000D01*
X100926567Y-142163486D01*
X100926570Y-142163492D01*
X101026399Y-142377578D01*
X101161894Y-142571082D01*
X101328917Y-142738105D01*
X101522421Y-142873600D01*
X101736507Y-142973429D01*
X101736516Y-142973433D01*
X101950000Y-143030634D01*
X101950000Y-142133012D01*
X102007007Y-142165925D01*
X102134174Y-142200000D01*
X102265826Y-142200000D01*
X102392993Y-142165925D01*
X102450000Y-142133012D01*
X102450000Y-143030633D01*
X102663483Y-142973433D01*
X102663492Y-142973429D01*
X102877578Y-142873600D01*
X103071082Y-142738105D01*
X103238105Y-142571082D01*
X103373600Y-142377578D01*
X103473429Y-142163492D01*
X103473432Y-142163486D01*
X103530636Y-141950000D01*
X102633012Y-141950000D01*
X102665925Y-141892993D01*
X102700000Y-141765826D01*
X102700000Y-141634174D01*
X102665925Y-141507007D01*
X102633012Y-141450000D01*
X103530636Y-141450000D01*
X103530635Y-141449999D01*
X103473432Y-141236513D01*
X103473429Y-141236507D01*
X103373600Y-141022422D01*
X103373599Y-141022420D01*
X103238113Y-140828926D01*
X103238108Y-140828920D01*
X103071082Y-140661894D01*
X102877578Y-140526399D01*
X102663492Y-140426570D01*
X102663486Y-140426567D01*
X102541349Y-140393841D01*
X102481689Y-140357476D01*
X102451160Y-140294629D01*
X102459455Y-140225253D01*
X102503940Y-140171375D01*
X102537444Y-140155407D01*
X102603954Y-140135232D01*
X102786450Y-140037685D01*
X102946410Y-139906410D01*
X103077685Y-139746450D01*
X103175232Y-139563954D01*
X103231341Y-139378982D01*
X103269639Y-139320545D01*
X103333451Y-139292089D01*
X103402518Y-139302649D01*
X103437682Y-139327297D01*
X106362904Y-142252520D01*
X109288060Y-145177676D01*
X109321545Y-145238999D01*
X109318310Y-145303674D01*
X109278750Y-145425431D01*
X109278748Y-145425436D01*
X109260401Y-145600000D01*
X109278748Y-145774563D01*
X109278749Y-145774565D01*
X109332985Y-145941490D01*
X109332988Y-145941496D01*
X109420750Y-146093504D01*
X109421694Y-146094552D01*
X109538193Y-146223939D01*
X109538196Y-146223941D01*
X109538199Y-146223944D01*
X109644699Y-146301321D01*
X109680201Y-146327115D01*
X109840550Y-146398506D01*
X110012238Y-146435000D01*
X110187762Y-146435000D01*
X110359450Y-146398506D01*
X110519800Y-146327114D01*
X110661801Y-146223944D01*
X110779250Y-146093504D01*
X110867012Y-145941496D01*
X110921252Y-145774562D01*
X110939599Y-145600000D01*
X116880401Y-145600000D01*
X116898748Y-145774563D01*
X116898749Y-145774565D01*
X116952985Y-145941490D01*
X116952988Y-145941496D01*
X117040750Y-146093504D01*
X117041694Y-146094552D01*
X117158193Y-146223939D01*
X117158196Y-146223941D01*
X117158199Y-146223944D01*
X117264699Y-146301321D01*
X117300201Y-146327115D01*
X117460550Y-146398506D01*
X117632238Y-146435000D01*
X117807762Y-146435000D01*
X117979450Y-146398506D01*
X118139800Y-146327114D01*
X118281801Y-146223944D01*
X118399250Y-146093504D01*
X118487012Y-145941496D01*
X118541252Y-145774562D01*
X118559599Y-145600000D01*
X118541252Y-145425438D01*
X118487012Y-145258504D01*
X118399250Y-145106496D01*
X118325534Y-145024626D01*
X118281806Y-144976060D01*
X118281803Y-144976058D01*
X118281802Y-144976057D01*
X118281801Y-144976056D01*
X118210800Y-144924471D01*
X118139798Y-144872884D01*
X117979449Y-144801493D01*
X117807762Y-144765000D01*
X117632238Y-144765000D01*
X117460550Y-144801493D01*
X117460545Y-144801495D01*
X117300201Y-144872886D01*
X117300196Y-144872888D01*
X117158205Y-144976050D01*
X117158199Y-144976055D01*
X117040749Y-145106497D01*
X116952988Y-145258503D01*
X116952985Y-145258509D01*
X116898749Y-145425434D01*
X116898748Y-145425436D01*
X116880401Y-145600000D01*
X110939599Y-145600000D01*
X110921252Y-145425438D01*
X110867012Y-145258504D01*
X110779250Y-145106496D01*
X110705534Y-145024626D01*
X110661806Y-144976060D01*
X110661803Y-144976058D01*
X110661802Y-144976057D01*
X110661801Y-144976056D01*
X110590800Y-144924471D01*
X110519798Y-144872884D01*
X110359449Y-144801493D01*
X110187762Y-144765000D01*
X110012238Y-144765000D01*
X109840552Y-144801493D01*
X109814997Y-144812870D01*
X109745747Y-144822152D01*
X109682471Y-144792520D01*
X109676885Y-144787269D01*
X109119863Y-144230247D01*
X121469500Y-144230247D01*
X121469500Y-145969752D01*
X121481131Y-146028229D01*
X121481132Y-146028230D01*
X121525447Y-146094552D01*
X121591769Y-146138867D01*
X121591770Y-146138868D01*
X121650247Y-146150499D01*
X121650250Y-146150500D01*
X121650252Y-146150500D01*
X123389750Y-146150500D01*
X123389751Y-146150499D01*
X123404568Y-146147552D01*
X123448229Y-146138868D01*
X123448229Y-146138867D01*
X123448231Y-146138867D01*
X123514552Y-146094552D01*
X123558867Y-146028231D01*
X123558867Y-146028229D01*
X123558868Y-146028229D01*
X123570499Y-145969752D01*
X123570500Y-145969750D01*
X123570500Y-145100000D01*
X124004417Y-145100000D01*
X124024699Y-145305932D01*
X124024700Y-145305934D01*
X124084768Y-145503954D01*
X124182315Y-145686450D01*
X124182317Y-145686452D01*
X124313589Y-145846410D01*
X124410209Y-145925702D01*
X124473550Y-145977685D01*
X124656046Y-146075232D01*
X124854066Y-146135300D01*
X124854065Y-146135300D01*
X124872529Y-146137118D01*
X125060000Y-146155583D01*
X125265934Y-146135300D01*
X125463954Y-146075232D01*
X125646450Y-145977685D01*
X125806410Y-145846410D01*
X125937685Y-145686450D01*
X126035232Y-145503954D01*
X126095300Y-145305934D01*
X126115583Y-145100000D01*
X126544417Y-145100000D01*
X126564699Y-145305932D01*
X126564700Y-145305934D01*
X126624768Y-145503954D01*
X126722315Y-145686450D01*
X126722317Y-145686452D01*
X126853589Y-145846410D01*
X126950209Y-145925702D01*
X127013550Y-145977685D01*
X127196046Y-146075232D01*
X127394066Y-146135300D01*
X127394065Y-146135300D01*
X127412529Y-146137118D01*
X127600000Y-146155583D01*
X127805934Y-146135300D01*
X128003954Y-146075232D01*
X128186450Y-145977685D01*
X128346410Y-145846410D01*
X128477685Y-145686450D01*
X128575232Y-145503954D01*
X128635300Y-145305934D01*
X128655583Y-145100000D01*
X129084417Y-145100000D01*
X129104699Y-145305932D01*
X129104700Y-145305934D01*
X129164768Y-145503954D01*
X129262315Y-145686450D01*
X129262317Y-145686452D01*
X129393589Y-145846410D01*
X129490209Y-145925702D01*
X129553550Y-145977685D01*
X129736046Y-146075232D01*
X129934066Y-146135300D01*
X129934065Y-146135300D01*
X129952529Y-146137118D01*
X130140000Y-146155583D01*
X130345934Y-146135300D01*
X130543954Y-146075232D01*
X130726450Y-145977685D01*
X130886410Y-145846410D01*
X131017685Y-145686450D01*
X131115232Y-145503954D01*
X131175300Y-145305934D01*
X131195583Y-145100000D01*
X131624417Y-145100000D01*
X131644699Y-145305932D01*
X131644700Y-145305934D01*
X131704768Y-145503954D01*
X131802315Y-145686450D01*
X131802317Y-145686452D01*
X131933589Y-145846410D01*
X132030209Y-145925702D01*
X132093550Y-145977685D01*
X132276046Y-146075232D01*
X132474066Y-146135300D01*
X132474065Y-146135300D01*
X132492529Y-146137118D01*
X132680000Y-146155583D01*
X132885934Y-146135300D01*
X133061966Y-146081902D01*
X141899500Y-146081902D01*
X141899500Y-146318097D01*
X141936446Y-146551368D01*
X142009433Y-146775996D01*
X142073127Y-146901001D01*
X142116657Y-146986433D01*
X142255483Y-147177510D01*
X142422490Y-147344517D01*
X142613567Y-147483343D01*
X142712991Y-147534002D01*
X142824003Y-147590566D01*
X142824005Y-147590566D01*
X142824008Y-147590568D01*
X142944412Y-147629689D01*
X143048631Y-147663553D01*
X143281903Y-147700500D01*
X143281908Y-147700500D01*
X143518097Y-147700500D01*
X143751368Y-147663553D01*
X143975992Y-147590568D01*
X144186433Y-147483343D01*
X144377510Y-147344517D01*
X144544517Y-147177510D01*
X144683343Y-146986433D01*
X144790568Y-146775992D01*
X144863553Y-146551368D01*
X144869985Y-146510756D01*
X144900500Y-146318097D01*
X144900500Y-146081902D01*
X144863553Y-145848631D01*
X144790566Y-145624003D01*
X144729397Y-145503954D01*
X144683343Y-145413567D01*
X144544517Y-145222490D01*
X144377510Y-145055483D01*
X144186433Y-144916657D01*
X144142096Y-144894066D01*
X143975996Y-144809433D01*
X143751368Y-144736446D01*
X143518097Y-144699500D01*
X143518092Y-144699500D01*
X143281908Y-144699500D01*
X143281903Y-144699500D01*
X143048631Y-144736446D01*
X142824003Y-144809433D01*
X142613566Y-144916657D01*
X142531809Y-144976058D01*
X142422490Y-145055483D01*
X142422488Y-145055485D01*
X142422487Y-145055485D01*
X142255485Y-145222487D01*
X142255485Y-145222488D01*
X142255483Y-145222490D01*
X142229314Y-145258509D01*
X142116657Y-145413566D01*
X142009433Y-145624003D01*
X141936446Y-145848631D01*
X141899500Y-146081902D01*
X133061966Y-146081902D01*
X133083954Y-146075232D01*
X133266450Y-145977685D01*
X133426410Y-145846410D01*
X133557685Y-145686450D01*
X133655232Y-145503954D01*
X133715300Y-145305934D01*
X133735583Y-145100000D01*
X133715300Y-144894066D01*
X133655232Y-144696046D01*
X133557685Y-144513550D01*
X133505702Y-144450209D01*
X133426410Y-144353589D01*
X133276121Y-144230252D01*
X133266450Y-144222315D01*
X133083954Y-144124768D01*
X132885934Y-144064700D01*
X132885932Y-144064699D01*
X132885934Y-144064699D01*
X132680000Y-144044417D01*
X132474067Y-144064699D01*
X132276043Y-144124769D01*
X132188114Y-144171769D01*
X132093550Y-144222315D01*
X132093548Y-144222316D01*
X132093547Y-144222317D01*
X131933589Y-144353589D01*
X131802317Y-144513547D01*
X131704769Y-144696043D01*
X131644699Y-144894067D01*
X131624417Y-145100000D01*
X131195583Y-145100000D01*
X131175300Y-144894066D01*
X131115232Y-144696046D01*
X131017685Y-144513550D01*
X130965702Y-144450209D01*
X130886410Y-144353589D01*
X130736121Y-144230252D01*
X130726450Y-144222315D01*
X130543954Y-144124768D01*
X130345934Y-144064700D01*
X130345932Y-144064699D01*
X130345934Y-144064699D01*
X130140000Y-144044417D01*
X129934067Y-144064699D01*
X129736043Y-144124769D01*
X129648114Y-144171769D01*
X129553550Y-144222315D01*
X129553548Y-144222316D01*
X129553547Y-144222317D01*
X129393589Y-144353589D01*
X129262317Y-144513547D01*
X129164769Y-144696043D01*
X129104699Y-144894067D01*
X129084417Y-145100000D01*
X128655583Y-145100000D01*
X128635300Y-144894066D01*
X128575232Y-144696046D01*
X128477685Y-144513550D01*
X128425702Y-144450209D01*
X128346410Y-144353589D01*
X128196121Y-144230252D01*
X128186450Y-144222315D01*
X128003954Y-144124768D01*
X127805934Y-144064700D01*
X127805932Y-144064699D01*
X127805934Y-144064699D01*
X127600000Y-144044417D01*
X127394067Y-144064699D01*
X127196043Y-144124769D01*
X127108114Y-144171769D01*
X127013550Y-144222315D01*
X127013548Y-144222316D01*
X127013547Y-144222317D01*
X126853589Y-144353589D01*
X126722317Y-144513547D01*
X126624769Y-144696043D01*
X126564699Y-144894067D01*
X126544417Y-145100000D01*
X126115583Y-145100000D01*
X126095300Y-144894066D01*
X126035232Y-144696046D01*
X125937685Y-144513550D01*
X125885702Y-144450209D01*
X125806410Y-144353589D01*
X125656121Y-144230252D01*
X125646450Y-144222315D01*
X125463954Y-144124768D01*
X125265934Y-144064700D01*
X125265932Y-144064699D01*
X125265934Y-144064699D01*
X125060000Y-144044417D01*
X124854067Y-144064699D01*
X124656043Y-144124769D01*
X124568114Y-144171769D01*
X124473550Y-144222315D01*
X124473548Y-144222316D01*
X124473547Y-144222317D01*
X124313589Y-144353589D01*
X124182317Y-144513547D01*
X124084769Y-144696043D01*
X124024699Y-144894067D01*
X124004417Y-145100000D01*
X123570500Y-145100000D01*
X123570500Y-144230249D01*
X123570499Y-144230247D01*
X123558868Y-144171770D01*
X123558867Y-144171769D01*
X123514552Y-144105447D01*
X123448230Y-144061132D01*
X123448229Y-144061131D01*
X123389752Y-144049500D01*
X123389748Y-144049500D01*
X121650252Y-144049500D01*
X121650247Y-144049500D01*
X121591770Y-144061131D01*
X121591769Y-144061132D01*
X121525447Y-144105447D01*
X121481132Y-144171769D01*
X121481131Y-144171770D01*
X121469500Y-144230247D01*
X109119863Y-144230247D01*
X103563819Y-138674203D01*
X103530334Y-138612880D01*
X103527500Y-138586522D01*
X103527500Y-137176477D01*
X103547185Y-137109438D01*
X103599989Y-137063683D01*
X103669147Y-137053739D01*
X103732703Y-137082764D01*
X103739180Y-137088795D01*
X106521759Y-139871375D01*
X109288060Y-142637676D01*
X109321545Y-142698999D01*
X109318310Y-142763674D01*
X109278750Y-142885431D01*
X109278748Y-142885436D01*
X109260401Y-143060000D01*
X109278748Y-143234563D01*
X109278749Y-143234565D01*
X109332985Y-143401490D01*
X109332988Y-143401496D01*
X109420750Y-143553504D01*
X109461662Y-143598941D01*
X109538193Y-143683939D01*
X109538196Y-143683941D01*
X109538199Y-143683944D01*
X109644699Y-143761321D01*
X109680201Y-143787115D01*
X109840550Y-143858506D01*
X110012238Y-143895000D01*
X110187762Y-143895000D01*
X110359450Y-143858506D01*
X110519800Y-143787114D01*
X110661801Y-143683944D01*
X110779250Y-143553504D01*
X110867012Y-143401496D01*
X110921252Y-143234562D01*
X110939599Y-143060000D01*
X116880401Y-143060000D01*
X116898748Y-143234563D01*
X116898749Y-143234565D01*
X116952985Y-143401490D01*
X116952988Y-143401496D01*
X117040750Y-143553504D01*
X117081662Y-143598941D01*
X117158193Y-143683939D01*
X117158196Y-143683941D01*
X117158199Y-143683944D01*
X117264699Y-143761321D01*
X117300201Y-143787115D01*
X117460550Y-143858506D01*
X117632238Y-143895000D01*
X117807762Y-143895000D01*
X117979450Y-143858506D01*
X118139800Y-143787114D01*
X118281801Y-143683944D01*
X118399250Y-143553504D01*
X118487012Y-143401496D01*
X118541252Y-143234562D01*
X118559599Y-143060000D01*
X118541252Y-142885438D01*
X118501689Y-142763674D01*
X118499694Y-142693835D01*
X118531940Y-142637675D01*
X118557799Y-142611817D01*
X118619123Y-142578333D01*
X118645479Y-142575500D01*
X133219837Y-142575500D01*
X133286876Y-142595185D01*
X133313548Y-142618295D01*
X133368872Y-142682143D01*
X133489947Y-142759953D01*
X133489950Y-142759954D01*
X133489949Y-142759954D01*
X133628036Y-142800499D01*
X133628038Y-142800500D01*
X133628039Y-142800500D01*
X133771962Y-142800500D01*
X133771962Y-142800499D01*
X133879121Y-142769035D01*
X133910050Y-142759954D01*
X133910050Y-142759953D01*
X133910053Y-142759953D01*
X134031128Y-142682143D01*
X134125377Y-142573373D01*
X134185165Y-142442457D01*
X134205647Y-142300000D01*
X134185165Y-142157543D01*
X134125377Y-142026627D01*
X134031128Y-141917857D01*
X133910053Y-141840047D01*
X133910051Y-141840046D01*
X133910049Y-141840045D01*
X133910050Y-141840045D01*
X133771963Y-141799500D01*
X133771961Y-141799500D01*
X133628039Y-141799500D01*
X133628036Y-141799500D01*
X133489949Y-141840045D01*
X133368873Y-141917856D01*
X133313550Y-141981703D01*
X133254772Y-142019477D01*
X133219837Y-142024500D01*
X118425198Y-142024500D01*
X118353599Y-142054158D01*
X118323942Y-142066442D01*
X118143113Y-142247270D01*
X118081789Y-142280754D01*
X118012098Y-142275770D01*
X118004998Y-142272868D01*
X117979451Y-142261494D01*
X117979447Y-142261493D01*
X117807762Y-142225000D01*
X117632238Y-142225000D01*
X117460550Y-142261493D01*
X117460545Y-142261495D01*
X117300201Y-142332886D01*
X117300196Y-142332888D01*
X117158205Y-142436050D01*
X117158199Y-142436055D01*
X117040749Y-142566497D01*
X116952988Y-142718503D01*
X116952985Y-142718509D01*
X116898749Y-142885434D01*
X116898748Y-142885436D01*
X116880401Y-143060000D01*
X110939599Y-143060000D01*
X110921252Y-142885438D01*
X110873381Y-142738105D01*
X110867014Y-142718509D01*
X110867011Y-142718503D01*
X110779250Y-142566496D01*
X110733248Y-142515406D01*
X110661806Y-142436060D01*
X110661803Y-142436058D01*
X110661802Y-142436057D01*
X110661801Y-142436056D01*
X110581313Y-142377578D01*
X110519798Y-142332884D01*
X110359449Y-142261493D01*
X110187762Y-142225000D01*
X110012238Y-142225000D01*
X109840552Y-142261493D01*
X109814997Y-142272870D01*
X109745747Y-142282152D01*
X109682471Y-142252520D01*
X109676885Y-142247269D01*
X103840819Y-136411203D01*
X103807334Y-136349880D01*
X103804500Y-136323522D01*
X103804500Y-134913477D01*
X103824185Y-134846438D01*
X103876989Y-134800683D01*
X103946147Y-134790739D01*
X104009703Y-134819764D01*
X104016181Y-134825796D01*
X109288060Y-140097676D01*
X109321545Y-140158999D01*
X109318310Y-140223674D01*
X109278750Y-140345431D01*
X109278748Y-140345436D01*
X109260401Y-140520000D01*
X109278748Y-140694563D01*
X109278749Y-140694565D01*
X109332985Y-140861490D01*
X109332988Y-140861496D01*
X109420750Y-141013504D01*
X109428780Y-141022422D01*
X109538193Y-141143939D01*
X109538196Y-141143941D01*
X109538199Y-141143944D01*
X109624998Y-141207007D01*
X109680201Y-141247115D01*
X109798762Y-141299901D01*
X109840550Y-141318506D01*
X110012238Y-141355000D01*
X110187762Y-141355000D01*
X110359450Y-141318506D01*
X110519800Y-141247114D01*
X110661801Y-141143944D01*
X110779250Y-141013504D01*
X110867012Y-140861496D01*
X110921252Y-140694562D01*
X110939599Y-140520000D01*
X116880401Y-140520000D01*
X116898748Y-140694563D01*
X116898749Y-140694565D01*
X116952985Y-140861490D01*
X116952988Y-140861496D01*
X117040750Y-141013504D01*
X117048780Y-141022422D01*
X117158193Y-141143939D01*
X117158196Y-141143941D01*
X117158199Y-141143944D01*
X117244998Y-141207007D01*
X117300201Y-141247115D01*
X117418762Y-141299901D01*
X117460550Y-141318506D01*
X117632238Y-141355000D01*
X117807762Y-141355000D01*
X117979450Y-141318506D01*
X118139800Y-141247114D01*
X118273467Y-141149999D01*
X143369364Y-141149999D01*
X143369364Y-141150000D01*
X144266988Y-141150000D01*
X144234075Y-141207007D01*
X144200000Y-141334174D01*
X144200000Y-141465826D01*
X144234075Y-141592993D01*
X144266988Y-141650000D01*
X143369364Y-141650000D01*
X143426567Y-141863486D01*
X143426570Y-141863492D01*
X143526399Y-142077578D01*
X143661894Y-142271082D01*
X143828917Y-142438105D01*
X144022421Y-142573600D01*
X144236507Y-142673429D01*
X144236516Y-142673433D01*
X144450000Y-142730634D01*
X144450000Y-141833012D01*
X144507007Y-141865925D01*
X144634174Y-141900000D01*
X144765826Y-141900000D01*
X144892993Y-141865925D01*
X144950000Y-141833012D01*
X144950000Y-142730633D01*
X145163483Y-142673433D01*
X145163492Y-142673429D01*
X145377578Y-142573600D01*
X145571082Y-142438105D01*
X145738105Y-142271082D01*
X145873600Y-142077578D01*
X145973429Y-141863492D01*
X145973432Y-141863486D01*
X146030636Y-141650000D01*
X145133012Y-141650000D01*
X145165925Y-141592993D01*
X145200000Y-141465826D01*
X145200000Y-141334174D01*
X145165925Y-141207007D01*
X145133012Y-141150000D01*
X146030636Y-141150000D01*
X146030635Y-141149999D01*
X145973432Y-140936513D01*
X145973429Y-140936507D01*
X145873600Y-140722422D01*
X145873599Y-140722420D01*
X145738113Y-140528926D01*
X145738108Y-140528920D01*
X145571082Y-140361894D01*
X145377578Y-140226399D01*
X145163492Y-140126570D01*
X145163486Y-140126567D01*
X145041349Y-140093841D01*
X144981689Y-140057476D01*
X144951160Y-139994629D01*
X144959455Y-139925253D01*
X145003940Y-139871375D01*
X145037444Y-139855407D01*
X145103954Y-139835232D01*
X145286450Y-139737685D01*
X145446410Y-139606410D01*
X145577685Y-139446450D01*
X145675232Y-139263954D01*
X145735300Y-139065934D01*
X145755583Y-138860000D01*
X145735300Y-138654066D01*
X145675232Y-138456046D01*
X145577685Y-138273550D01*
X145498707Y-138177314D01*
X145446410Y-138113589D01*
X145286452Y-137982317D01*
X145286453Y-137982317D01*
X145286450Y-137982315D01*
X145103954Y-137884768D01*
X144905934Y-137824700D01*
X144905932Y-137824699D01*
X144905934Y-137824699D01*
X144700000Y-137804417D01*
X144494067Y-137824699D01*
X144296043Y-137884769D01*
X144185898Y-137943643D01*
X144113550Y-137982315D01*
X144113548Y-137982316D01*
X144113547Y-137982317D01*
X143953589Y-138113589D01*
X143846276Y-138244353D01*
X143822315Y-138273550D01*
X143796690Y-138321490D01*
X143724769Y-138456043D01*
X143664699Y-138654067D01*
X143644417Y-138860000D01*
X143664699Y-139065932D01*
X143664700Y-139065934D01*
X143724768Y-139263954D01*
X143822315Y-139446450D01*
X143822317Y-139446452D01*
X143953589Y-139606410D01*
X144049353Y-139685000D01*
X144113550Y-139737685D01*
X144296046Y-139835232D01*
X144362551Y-139855405D01*
X144420989Y-139893702D01*
X144449446Y-139957514D01*
X144438887Y-140026581D01*
X144392663Y-140078975D01*
X144358650Y-140093841D01*
X144236514Y-140126567D01*
X144236507Y-140126570D01*
X144022422Y-140226399D01*
X144022420Y-140226400D01*
X143828926Y-140361886D01*
X143828920Y-140361891D01*
X143661891Y-140528920D01*
X143661886Y-140528926D01*
X143526400Y-140722420D01*
X143526399Y-140722422D01*
X143426570Y-140936507D01*
X143426567Y-140936513D01*
X143369364Y-141149999D01*
X118273467Y-141149999D01*
X118281801Y-141143944D01*
X118399250Y-141013504D01*
X118487012Y-140861496D01*
X118541252Y-140694562D01*
X118559599Y-140520000D01*
X118541252Y-140345438D01*
X118499060Y-140215583D01*
X118487014Y-140178509D01*
X118487011Y-140178503D01*
X118482896Y-140171375D01*
X118399250Y-140026496D01*
X118337138Y-139957514D01*
X118281806Y-139896060D01*
X118281803Y-139896058D01*
X118281802Y-139896057D01*
X118281801Y-139896056D01*
X118198083Y-139835231D01*
X118139798Y-139792884D01*
X117979449Y-139721493D01*
X117807762Y-139685000D01*
X117632238Y-139685000D01*
X117460550Y-139721493D01*
X117460545Y-139721495D01*
X117300201Y-139792886D01*
X117300196Y-139792888D01*
X117158205Y-139896050D01*
X117158199Y-139896055D01*
X117040749Y-140026497D01*
X116952988Y-140178503D01*
X116952985Y-140178509D01*
X116898749Y-140345434D01*
X116898748Y-140345436D01*
X116880401Y-140520000D01*
X110939599Y-140520000D01*
X110921252Y-140345438D01*
X110879060Y-140215583D01*
X110867014Y-140178509D01*
X110867011Y-140178503D01*
X110862896Y-140171375D01*
X110779250Y-140026496D01*
X110717138Y-139957514D01*
X110661806Y-139896060D01*
X110661803Y-139896058D01*
X110661802Y-139896057D01*
X110661801Y-139896056D01*
X110578083Y-139835231D01*
X110519798Y-139792884D01*
X110359449Y-139721493D01*
X110187762Y-139685000D01*
X110012238Y-139685000D01*
X109840552Y-139721493D01*
X109814997Y-139732870D01*
X109745747Y-139742152D01*
X109682471Y-139712520D01*
X109676885Y-139707269D01*
X104117819Y-134148203D01*
X104084334Y-134086880D01*
X104081500Y-134060522D01*
X104081500Y-132650477D01*
X104101185Y-132583438D01*
X104153989Y-132537683D01*
X104223147Y-132527739D01*
X104286703Y-132556764D01*
X104293181Y-132562796D01*
X109288061Y-137557676D01*
X109321546Y-137618999D01*
X109318311Y-137683675D01*
X109278749Y-137805434D01*
X109278748Y-137805436D01*
X109260401Y-137980000D01*
X109278748Y-138154563D01*
X109278749Y-138154565D01*
X109332985Y-138321490D01*
X109332988Y-138321496D01*
X109420750Y-138473504D01*
X109461662Y-138518941D01*
X109538193Y-138603939D01*
X109538196Y-138603941D01*
X109538199Y-138603944D01*
X109634902Y-138674203D01*
X109680201Y-138707115D01*
X109826164Y-138772101D01*
X109840550Y-138778506D01*
X110012238Y-138815000D01*
X110187762Y-138815000D01*
X110359450Y-138778506D01*
X110519800Y-138707114D01*
X110661801Y-138603944D01*
X110779250Y-138473504D01*
X110867012Y-138321496D01*
X110921252Y-138154562D01*
X110939599Y-137980000D01*
X116880401Y-137980000D01*
X116898748Y-138154563D01*
X116898749Y-138154565D01*
X116952985Y-138321490D01*
X116952988Y-138321496D01*
X117040750Y-138473504D01*
X117081662Y-138518941D01*
X117158193Y-138603939D01*
X117158196Y-138603941D01*
X117158199Y-138603944D01*
X117254902Y-138674203D01*
X117300201Y-138707115D01*
X117446164Y-138772101D01*
X117460550Y-138778506D01*
X117632238Y-138815000D01*
X117807762Y-138815000D01*
X117979450Y-138778506D01*
X118139800Y-138707114D01*
X118281801Y-138603944D01*
X118399250Y-138473504D01*
X118487012Y-138321496D01*
X118541252Y-138154562D01*
X118559599Y-137980000D01*
X118541252Y-137805438D01*
X118499059Y-137675582D01*
X118487014Y-137638509D01*
X118487011Y-137638503D01*
X118399250Y-137486496D01*
X118353248Y-137435406D01*
X118281806Y-137356060D01*
X118281803Y-137356058D01*
X118281802Y-137356057D01*
X118281801Y-137356056D01*
X118198084Y-137295232D01*
X118139798Y-137252884D01*
X117979449Y-137181493D01*
X117807762Y-137145000D01*
X117632238Y-137145000D01*
X117460550Y-137181493D01*
X117460545Y-137181495D01*
X117300201Y-137252886D01*
X117300196Y-137252888D01*
X117158205Y-137356050D01*
X117158199Y-137356055D01*
X117040749Y-137486497D01*
X116952988Y-137638503D01*
X116952985Y-137638509D01*
X116898749Y-137805434D01*
X116898748Y-137805436D01*
X116880401Y-137980000D01*
X110939599Y-137980000D01*
X110921252Y-137805438D01*
X110879059Y-137675582D01*
X110867014Y-137638509D01*
X110867011Y-137638503D01*
X110779250Y-137486496D01*
X110733248Y-137435406D01*
X110661806Y-137356060D01*
X110661803Y-137356058D01*
X110661802Y-137356057D01*
X110661801Y-137356056D01*
X110578084Y-137295232D01*
X110519798Y-137252884D01*
X110359449Y-137181493D01*
X110187762Y-137145000D01*
X110012238Y-137145000D01*
X109840552Y-137181493D01*
X109840548Y-137181494D01*
X109815000Y-137192869D01*
X109745750Y-137202153D01*
X109682474Y-137172524D01*
X109676885Y-137167270D01*
X104394819Y-131885204D01*
X104361334Y-131823881D01*
X104358500Y-131797523D01*
X104358500Y-130387477D01*
X104378185Y-130320438D01*
X104430989Y-130274683D01*
X104500147Y-130264739D01*
X104563703Y-130293764D01*
X104570180Y-130299795D01*
X106994801Y-132724417D01*
X109288060Y-135017676D01*
X109321545Y-135078999D01*
X109318310Y-135143674D01*
X109278750Y-135265431D01*
X109278748Y-135265436D01*
X109260401Y-135440000D01*
X109278748Y-135614563D01*
X109278749Y-135614565D01*
X109332985Y-135781490D01*
X109332988Y-135781496D01*
X109420750Y-135933504D01*
X109461662Y-135978941D01*
X109538193Y-136063939D01*
X109538196Y-136063941D01*
X109538199Y-136063944D01*
X109644699Y-136141321D01*
X109680201Y-136167115D01*
X109829441Y-136233560D01*
X109840550Y-136238506D01*
X110012238Y-136275000D01*
X110187762Y-136275000D01*
X110359450Y-136238506D01*
X110519800Y-136167114D01*
X110661801Y-136063944D01*
X110779250Y-135933504D01*
X110867012Y-135781496D01*
X110921252Y-135614562D01*
X110939599Y-135440000D01*
X116880401Y-135440000D01*
X116898748Y-135614563D01*
X116898749Y-135614565D01*
X116952985Y-135781490D01*
X116952988Y-135781496D01*
X117040750Y-135933504D01*
X117081662Y-135978941D01*
X117158193Y-136063939D01*
X117158196Y-136063941D01*
X117158199Y-136063944D01*
X117264699Y-136141321D01*
X117300201Y-136167115D01*
X117449441Y-136233560D01*
X117460550Y-136238506D01*
X117632238Y-136275000D01*
X117807762Y-136275000D01*
X117979450Y-136238506D01*
X118139800Y-136167114D01*
X118281801Y-136063944D01*
X118399250Y-135933504D01*
X118487012Y-135781496D01*
X118541252Y-135614562D01*
X118559599Y-135440000D01*
X118541252Y-135265438D01*
X118499059Y-135135582D01*
X118487014Y-135098509D01*
X118487011Y-135098503D01*
X118399250Y-134946496D01*
X118353248Y-134895406D01*
X118281806Y-134816060D01*
X118281803Y-134816058D01*
X118281802Y-134816057D01*
X118281801Y-134816056D01*
X118198084Y-134755232D01*
X118139798Y-134712884D01*
X117979449Y-134641493D01*
X117807762Y-134605000D01*
X117632238Y-134605000D01*
X117460550Y-134641493D01*
X117460545Y-134641495D01*
X117300201Y-134712886D01*
X117300196Y-134712888D01*
X117158205Y-134816050D01*
X117158199Y-134816055D01*
X117040749Y-134946497D01*
X116952988Y-135098503D01*
X116952985Y-135098509D01*
X116898749Y-135265434D01*
X116898748Y-135265436D01*
X116880401Y-135440000D01*
X110939599Y-135440000D01*
X110921252Y-135265438D01*
X110879059Y-135135582D01*
X110867014Y-135098509D01*
X110867011Y-135098503D01*
X110779250Y-134946496D01*
X110733248Y-134895406D01*
X110661806Y-134816060D01*
X110661803Y-134816058D01*
X110661802Y-134816057D01*
X110661801Y-134816056D01*
X110578084Y-134755232D01*
X110519798Y-134712884D01*
X110359449Y-134641493D01*
X110187762Y-134605000D01*
X110012238Y-134605000D01*
X109840552Y-134641493D01*
X109814997Y-134652870D01*
X109745747Y-134662152D01*
X109682471Y-134632520D01*
X109676885Y-134627269D01*
X104711819Y-129662203D01*
X104678334Y-129600880D01*
X104675500Y-129574522D01*
X104675500Y-128164477D01*
X104695185Y-128097438D01*
X104747989Y-128051683D01*
X104817147Y-128041739D01*
X104880703Y-128070764D01*
X104887180Y-128076795D01*
X107104148Y-130293764D01*
X109288060Y-132477676D01*
X109321545Y-132538999D01*
X109318310Y-132603674D01*
X109278750Y-132725431D01*
X109278748Y-132725436D01*
X109260401Y-132900000D01*
X109278748Y-133074563D01*
X109278749Y-133074565D01*
X109332985Y-133241490D01*
X109332988Y-133241496D01*
X109420750Y-133393504D01*
X109461662Y-133438941D01*
X109538193Y-133523939D01*
X109538196Y-133523941D01*
X109538199Y-133523944D01*
X109623444Y-133585878D01*
X109680201Y-133627115D01*
X109837525Y-133697159D01*
X109840550Y-133698506D01*
X110012238Y-133735000D01*
X110187762Y-133735000D01*
X110359450Y-133698506D01*
X110519800Y-133627114D01*
X110661801Y-133523944D01*
X110779250Y-133393504D01*
X110867012Y-133241496D01*
X110921252Y-133074562D01*
X110939599Y-132900000D01*
X116880401Y-132900000D01*
X116898748Y-133074563D01*
X116898749Y-133074565D01*
X116952985Y-133241490D01*
X116952988Y-133241496D01*
X117040750Y-133393504D01*
X117081662Y-133438941D01*
X117158193Y-133523939D01*
X117158196Y-133523941D01*
X117158199Y-133523944D01*
X117243444Y-133585878D01*
X117300201Y-133627115D01*
X117457525Y-133697159D01*
X117460550Y-133698506D01*
X117632238Y-133735000D01*
X117807762Y-133735000D01*
X117979450Y-133698506D01*
X118139800Y-133627114D01*
X118281801Y-133523944D01*
X118399250Y-133393504D01*
X118487012Y-133241496D01*
X118541252Y-133074562D01*
X118559599Y-132900000D01*
X118541252Y-132725438D01*
X118495114Y-132583438D01*
X118487014Y-132558509D01*
X118487011Y-132558503D01*
X118486007Y-132556764D01*
X118399250Y-132406496D01*
X118349385Y-132351115D01*
X118281806Y-132276060D01*
X118281803Y-132276058D01*
X118281802Y-132276057D01*
X118281801Y-132276056D01*
X118198084Y-132215232D01*
X118139798Y-132172884D01*
X117979449Y-132101493D01*
X117807762Y-132065000D01*
X117632238Y-132065000D01*
X117460550Y-132101493D01*
X117460545Y-132101495D01*
X117300201Y-132172886D01*
X117300196Y-132172888D01*
X117158205Y-132276050D01*
X117158199Y-132276055D01*
X117040749Y-132406497D01*
X116952988Y-132558503D01*
X116952985Y-132558509D01*
X116898749Y-132725434D01*
X116898748Y-132725436D01*
X116880401Y-132900000D01*
X110939599Y-132900000D01*
X110921252Y-132725438D01*
X110875114Y-132583438D01*
X110867014Y-132558509D01*
X110867011Y-132558503D01*
X110866007Y-132556764D01*
X110779250Y-132406496D01*
X110729385Y-132351115D01*
X110661806Y-132276060D01*
X110661803Y-132276058D01*
X110661802Y-132276057D01*
X110661801Y-132276056D01*
X110578084Y-132215232D01*
X110519798Y-132172884D01*
X110359449Y-132101493D01*
X110187762Y-132065000D01*
X110012238Y-132065000D01*
X109840552Y-132101493D01*
X109814997Y-132112870D01*
X109745747Y-132122152D01*
X109682471Y-132092520D01*
X109676885Y-132087269D01*
X104988819Y-127399203D01*
X104955334Y-127337880D01*
X104952500Y-127311522D01*
X104952500Y-125901477D01*
X104972185Y-125834438D01*
X105024989Y-125788683D01*
X105094147Y-125778739D01*
X105157703Y-125807764D01*
X105164181Y-125813796D01*
X109288061Y-129937676D01*
X109321546Y-129998999D01*
X109318311Y-130063675D01*
X109278749Y-130185434D01*
X109278748Y-130185436D01*
X109260401Y-130360000D01*
X109278748Y-130534563D01*
X109278749Y-130534565D01*
X109332985Y-130701490D01*
X109332988Y-130701496D01*
X109420750Y-130853504D01*
X109461662Y-130898941D01*
X109538193Y-130983939D01*
X109538196Y-130983941D01*
X109538199Y-130983944D01*
X109635264Y-131054466D01*
X109680201Y-131087115D01*
X109799090Y-131140047D01*
X109840550Y-131158506D01*
X110012238Y-131195000D01*
X110187762Y-131195000D01*
X110359450Y-131158506D01*
X110489146Y-131100762D01*
X110519798Y-131087115D01*
X110519798Y-131087114D01*
X110519800Y-131087114D01*
X110661801Y-130983944D01*
X110779250Y-130853504D01*
X110867012Y-130701496D01*
X110921252Y-130534562D01*
X110939599Y-130360000D01*
X116880401Y-130360000D01*
X116898748Y-130534563D01*
X116898749Y-130534565D01*
X116952985Y-130701490D01*
X116952988Y-130701496D01*
X117040750Y-130853504D01*
X117081662Y-130898941D01*
X117158193Y-130983939D01*
X117158196Y-130983941D01*
X117158199Y-130983944D01*
X117255264Y-131054466D01*
X117300201Y-131087115D01*
X117419090Y-131140047D01*
X117460550Y-131158506D01*
X117632238Y-131195000D01*
X117807762Y-131195000D01*
X117979450Y-131158506D01*
X118109146Y-131100762D01*
X118139798Y-131087115D01*
X118139798Y-131087114D01*
X118139800Y-131087114D01*
X118281801Y-130983944D01*
X118399250Y-130853504D01*
X118487012Y-130701496D01*
X118541252Y-130534562D01*
X118559599Y-130360000D01*
X118541252Y-130185438D01*
X118494406Y-130041261D01*
X118487014Y-130018509D01*
X118487011Y-130018503D01*
X118399250Y-129866496D01*
X118353248Y-129815406D01*
X118281806Y-129736060D01*
X118281803Y-129736058D01*
X118281802Y-129736057D01*
X118281801Y-129736056D01*
X118198084Y-129675232D01*
X118139798Y-129632884D01*
X118065938Y-129600000D01*
X125394353Y-129600000D01*
X125414834Y-129742456D01*
X125471482Y-129866496D01*
X125474623Y-129873373D01*
X125568872Y-129982143D01*
X125568874Y-129982144D01*
X125575577Y-129987953D01*
X125574001Y-129989771D01*
X125611286Y-130032787D01*
X125622500Y-130084316D01*
X125622500Y-131862736D01*
X125639111Y-131902839D01*
X125656142Y-131943953D01*
X125656142Y-131943954D01*
X125664443Y-131963995D01*
X129934008Y-136233560D01*
X130012321Y-136265997D01*
X130035264Y-136275500D01*
X130144864Y-136275500D01*
X130200167Y-136275500D01*
X130267206Y-136295185D01*
X130312961Y-136347989D01*
X130322905Y-136417147D01*
X130293880Y-136480703D01*
X130287848Y-136487181D01*
X128002926Y-138772101D01*
X127941603Y-138805586D01*
X127899060Y-138807359D01*
X127800001Y-138794318D01*
X127799999Y-138794318D01*
X127643239Y-138814955D01*
X127643237Y-138814956D01*
X127497160Y-138875463D01*
X127371718Y-138971718D01*
X127275463Y-139097160D01*
X127214956Y-139243237D01*
X127214955Y-139243239D01*
X127194318Y-139399998D01*
X127194318Y-139400001D01*
X127214955Y-139556760D01*
X127214956Y-139556762D01*
X127275464Y-139702841D01*
X127371718Y-139828282D01*
X127497159Y-139924536D01*
X127643238Y-139985044D01*
X127716044Y-139994629D01*
X127799999Y-140005682D01*
X127800000Y-140005682D01*
X127800001Y-140005682D01*
X127883956Y-139994629D01*
X127956762Y-139985044D01*
X128102841Y-139924536D01*
X128228282Y-139828282D01*
X128324536Y-139702841D01*
X128385044Y-139556762D01*
X128405682Y-139400000D01*
X128392640Y-139300936D01*
X128403405Y-139231902D01*
X128427895Y-139197074D01*
X130588152Y-137036819D01*
X130649475Y-137003334D01*
X130675833Y-137000500D01*
X133812518Y-137000500D01*
X133879557Y-137020185D01*
X133910892Y-137049013D01*
X133922150Y-137063683D01*
X133957258Y-137109438D01*
X133971718Y-137128282D01*
X134097159Y-137224536D01*
X134243238Y-137285044D01*
X134320609Y-137295230D01*
X134399999Y-137305682D01*
X134400000Y-137305682D01*
X134400001Y-137305682D01*
X134479391Y-137295230D01*
X134556762Y-137285044D01*
X134702841Y-137224536D01*
X134828282Y-137128282D01*
X134924536Y-137002841D01*
X134985044Y-136856762D01*
X135005682Y-136700000D01*
X134985044Y-136543238D01*
X134945160Y-136446951D01*
X134937692Y-136377484D01*
X134966466Y-136320000D01*
X143644417Y-136320000D01*
X143664699Y-136525932D01*
X143669949Y-136543238D01*
X143724768Y-136723954D01*
X143822315Y-136906450D01*
X143822317Y-136906452D01*
X143953589Y-137066410D01*
X144049353Y-137145000D01*
X144113550Y-137197685D01*
X144296046Y-137295232D01*
X144494066Y-137355300D01*
X144494065Y-137355300D01*
X144501782Y-137356060D01*
X144700000Y-137375583D01*
X144905934Y-137355300D01*
X145103954Y-137295232D01*
X145286450Y-137197685D01*
X145446410Y-137066410D01*
X145577685Y-136906450D01*
X145675232Y-136723954D01*
X145735300Y-136525934D01*
X145755583Y-136320000D01*
X145735300Y-136114066D01*
X145675232Y-135916046D01*
X145577685Y-135733550D01*
X145498707Y-135637314D01*
X145446410Y-135573589D01*
X145286452Y-135442317D01*
X145286453Y-135442317D01*
X145286450Y-135442315D01*
X145103954Y-135344768D01*
X144905934Y-135284700D01*
X144905932Y-135284699D01*
X144905934Y-135284699D01*
X144700000Y-135264417D01*
X144494067Y-135284699D01*
X144296043Y-135344769D01*
X144185898Y-135403643D01*
X144113550Y-135442315D01*
X144113548Y-135442316D01*
X144113547Y-135442317D01*
X143953589Y-135573589D01*
X143846276Y-135704353D01*
X143822315Y-135733550D01*
X143796690Y-135781490D01*
X143724769Y-135916043D01*
X143664699Y-136114067D01*
X143644417Y-136320000D01*
X134966466Y-136320000D01*
X134968967Y-136315004D01*
X135029056Y-136279352D01*
X135059722Y-136275500D01*
X140297893Y-136275500D01*
X140297894Y-136275500D01*
X140399152Y-136233557D01*
X140476651Y-136156058D01*
X142852708Y-133780000D01*
X143644417Y-133780000D01*
X143664699Y-133985932D01*
X143668967Y-134000001D01*
X143724768Y-134183954D01*
X143822315Y-134366450D01*
X143822317Y-134366452D01*
X143953589Y-134526410D01*
X144046109Y-134602338D01*
X144113550Y-134657685D01*
X144296046Y-134755232D01*
X144494066Y-134815300D01*
X144494065Y-134815300D01*
X144501782Y-134816060D01*
X144700000Y-134835583D01*
X144905934Y-134815300D01*
X145103954Y-134755232D01*
X145286450Y-134657685D01*
X145446410Y-134526410D01*
X145577685Y-134366450D01*
X145675232Y-134183954D01*
X145735300Y-133985934D01*
X145755583Y-133780000D01*
X145735300Y-133574066D01*
X145675232Y-133376046D01*
X145577685Y-133193550D01*
X145504824Y-133104768D01*
X145446410Y-133033589D01*
X145286452Y-132902317D01*
X145286453Y-132902317D01*
X145286450Y-132902315D01*
X145103954Y-132804768D01*
X144905934Y-132744700D01*
X144905932Y-132744699D01*
X144905934Y-132744699D01*
X144700000Y-132724417D01*
X144494067Y-132744699D01*
X144296043Y-132804769D01*
X144185898Y-132863643D01*
X144113550Y-132902315D01*
X144113548Y-132902316D01*
X144113547Y-132902317D01*
X143953589Y-133033589D01*
X143822317Y-133193547D01*
X143724769Y-133376043D01*
X143664699Y-133574067D01*
X143644417Y-133780000D01*
X142852708Y-133780000D01*
X144336661Y-132296046D01*
X144397982Y-132262563D01*
X144460334Y-132265068D01*
X144494066Y-132275300D01*
X144494065Y-132275300D01*
X144501782Y-132276060D01*
X144700000Y-132295583D01*
X144905934Y-132275300D01*
X145103954Y-132215232D01*
X145286450Y-132117685D01*
X145446410Y-131986410D01*
X145577685Y-131826450D01*
X145675232Y-131643954D01*
X145735300Y-131445934D01*
X145755583Y-131240000D01*
X145735300Y-131034066D01*
X145675232Y-130836046D01*
X145577685Y-130653550D01*
X145504824Y-130564768D01*
X145446410Y-130493589D01*
X145317110Y-130387477D01*
X145286450Y-130362315D01*
X145103954Y-130264768D01*
X144905934Y-130204700D01*
X144905932Y-130204699D01*
X144905934Y-130204699D01*
X144700000Y-130184417D01*
X144494067Y-130204699D01*
X144296043Y-130264769D01*
X144191896Y-130320438D01*
X144113550Y-130362315D01*
X144113548Y-130362316D01*
X144113547Y-130362317D01*
X143953589Y-130493589D01*
X143822317Y-130653547D01*
X143822315Y-130653550D01*
X143817630Y-130662315D01*
X143724769Y-130836043D01*
X143664699Y-131034067D01*
X143644417Y-131240000D01*
X143664699Y-131445932D01*
X143693101Y-131539560D01*
X143723570Y-131640006D01*
X143724769Y-131643956D01*
X143822317Y-131826453D01*
X143843292Y-131852011D01*
X143870605Y-131916321D01*
X143858814Y-131985189D01*
X143835120Y-132018357D01*
X142587181Y-133266297D01*
X142525858Y-133299782D01*
X142456166Y-133294798D01*
X142400233Y-133252926D01*
X142375816Y-133187462D01*
X142375500Y-133178616D01*
X142375500Y-128700000D01*
X143644417Y-128700000D01*
X143664699Y-128905932D01*
X143664700Y-128905934D01*
X143724768Y-129103954D01*
X143822315Y-129286450D01*
X143822317Y-129286452D01*
X143953589Y-129446410D01*
X144046109Y-129522338D01*
X144113550Y-129577685D01*
X144296046Y-129675232D01*
X144494066Y-129735300D01*
X144494065Y-129735300D01*
X144501782Y-129736060D01*
X144700000Y-129755583D01*
X144905934Y-129735300D01*
X145103954Y-129675232D01*
X145286450Y-129577685D01*
X145446410Y-129446410D01*
X145577685Y-129286450D01*
X145675232Y-129103954D01*
X145735300Y-128905934D01*
X145755583Y-128700000D01*
X145735300Y-128494066D01*
X145675232Y-128296046D01*
X145577685Y-128113550D01*
X145480299Y-127994884D01*
X145446410Y-127953589D01*
X145286452Y-127822317D01*
X145286453Y-127822317D01*
X145286450Y-127822315D01*
X145103954Y-127724768D01*
X144905934Y-127664700D01*
X144905932Y-127664699D01*
X144905934Y-127664699D01*
X144700000Y-127644417D01*
X144494067Y-127664699D01*
X144296043Y-127724769D01*
X144186723Y-127783203D01*
X144113550Y-127822315D01*
X144113548Y-127822316D01*
X144113547Y-127822317D01*
X143953589Y-127953589D01*
X143822317Y-128113547D01*
X143724769Y-128296043D01*
X143664699Y-128494067D01*
X143644417Y-128700000D01*
X142375500Y-128700000D01*
X142375500Y-126385476D01*
X142395185Y-126318437D01*
X142411814Y-126297800D01*
X142549614Y-126160000D01*
X143644417Y-126160000D01*
X143664699Y-126365932D01*
X143664700Y-126365934D01*
X143724768Y-126563954D01*
X143822315Y-126746450D01*
X143822317Y-126746452D01*
X143953589Y-126906410D01*
X144005843Y-126949293D01*
X144113550Y-127037685D01*
X144296046Y-127135232D01*
X144494066Y-127195300D01*
X144494065Y-127195300D01*
X144501782Y-127196060D01*
X144700000Y-127215583D01*
X144905934Y-127195300D01*
X145103954Y-127135232D01*
X145286450Y-127037685D01*
X145446410Y-126906410D01*
X145577685Y-126746450D01*
X145675232Y-126563954D01*
X145735300Y-126365934D01*
X145755583Y-126160000D01*
X145735300Y-125954066D01*
X145675232Y-125756046D01*
X145577685Y-125573550D01*
X145504824Y-125484768D01*
X145446410Y-125413589D01*
X145286452Y-125282317D01*
X145286453Y-125282317D01*
X145286450Y-125282315D01*
X145103954Y-125184768D01*
X144905934Y-125124700D01*
X144905932Y-125124699D01*
X144905934Y-125124699D01*
X144700000Y-125104417D01*
X144494067Y-125124699D01*
X144296043Y-125184769D01*
X144234143Y-125217856D01*
X144113550Y-125282315D01*
X144113548Y-125282316D01*
X144113547Y-125282317D01*
X143953589Y-125413589D01*
X143837324Y-125555261D01*
X143822315Y-125573550D01*
X143783643Y-125645898D01*
X143724769Y-125756043D01*
X143664699Y-125954067D01*
X143644417Y-126160000D01*
X142549614Y-126160000D01*
X144112633Y-124596980D01*
X144173954Y-124563497D01*
X144243646Y-124568481D01*
X144258764Y-124575304D01*
X144296046Y-124595232D01*
X144494066Y-124655300D01*
X144494065Y-124655300D01*
X144512529Y-124657118D01*
X144700000Y-124675583D01*
X144905934Y-124655300D01*
X145103954Y-124595232D01*
X145286450Y-124497685D01*
X145446410Y-124366410D01*
X145577685Y-124206450D01*
X145675232Y-124023954D01*
X145735300Y-123825934D01*
X145755583Y-123620000D01*
X145735300Y-123414066D01*
X145675232Y-123216046D01*
X145577685Y-123033550D01*
X145455528Y-122884700D01*
X145446410Y-122873589D01*
X145286452Y-122742317D01*
X145286453Y-122742317D01*
X145286450Y-122742315D01*
X145103954Y-122644768D01*
X144905934Y-122584700D01*
X144905932Y-122584699D01*
X144905934Y-122584699D01*
X144700000Y-122564417D01*
X144494067Y-122584699D01*
X144296043Y-122644769D01*
X144185898Y-122703643D01*
X144113550Y-122742315D01*
X144113548Y-122742316D01*
X144113547Y-122742317D01*
X143953589Y-122873589D01*
X143822317Y-123033547D01*
X143724769Y-123216043D01*
X143664699Y-123414067D01*
X143644417Y-123620000D01*
X143664699Y-123825932D01*
X143724769Y-124023957D01*
X143744694Y-124061234D01*
X143758935Y-124129637D01*
X143733934Y-124194880D01*
X143723016Y-124207367D01*
X141943942Y-125986443D01*
X141866444Y-126063940D01*
X141866443Y-126063941D01*
X141866443Y-126063942D01*
X141854159Y-126093596D01*
X141824500Y-126165199D01*
X141824500Y-133585878D01*
X141804815Y-133652917D01*
X141788181Y-133673560D01*
X141726067Y-133735673D01*
X141664743Y-133769157D01*
X141595052Y-133764172D01*
X141539118Y-133722301D01*
X141528757Y-133704104D01*
X141528599Y-133704196D01*
X141524539Y-133697163D01*
X141470789Y-133627115D01*
X141428282Y-133571718D01*
X141302841Y-133475464D01*
X141188885Y-133428262D01*
X141156762Y-133414956D01*
X141156760Y-133414955D01*
X141000001Y-133394318D01*
X140999999Y-133394318D01*
X140843239Y-133414955D01*
X140843237Y-133414956D01*
X140697160Y-133475463D01*
X140571718Y-133571718D01*
X140475463Y-133697160D01*
X140414956Y-133843237D01*
X140414955Y-133843239D01*
X140394318Y-133999998D01*
X140394318Y-134000001D01*
X140407359Y-134099060D01*
X140396593Y-134168095D01*
X140372101Y-134202926D01*
X139611848Y-134963181D01*
X139550525Y-134996666D01*
X139524167Y-134999500D01*
X135275833Y-134999500D01*
X135208794Y-134979815D01*
X135188152Y-134963181D01*
X131824969Y-131599998D01*
X134794318Y-131599998D01*
X134794318Y-131600001D01*
X134814955Y-131756760D01*
X134814956Y-131756762D01*
X134868158Y-131885204D01*
X134875464Y-131902841D01*
X134971718Y-132028282D01*
X135097159Y-132124536D01*
X135243238Y-132185044D01*
X135321619Y-132195363D01*
X135399999Y-132205682D01*
X135400000Y-132205682D01*
X135400001Y-132205682D01*
X135452254Y-132198802D01*
X135556762Y-132185044D01*
X135702841Y-132124536D01*
X135828282Y-132028282D01*
X135924536Y-131902841D01*
X135985044Y-131756762D01*
X136005682Y-131600000D01*
X135985044Y-131443238D01*
X135924536Y-131297159D01*
X135828282Y-131171718D01*
X135828280Y-131171717D01*
X135828280Y-131171716D01*
X135749014Y-131110894D01*
X135707811Y-131054466D01*
X135700500Y-131012518D01*
X135700500Y-130655832D01*
X135720185Y-130588793D01*
X135736814Y-130568156D01*
X144207963Y-122097006D01*
X144269284Y-122063523D01*
X144331635Y-122066027D01*
X144494066Y-122115300D01*
X144494065Y-122115300D01*
X144511438Y-122117011D01*
X144700000Y-122135583D01*
X144905934Y-122115300D01*
X145103954Y-122055232D01*
X145286450Y-121957685D01*
X145446410Y-121826410D01*
X145577685Y-121666450D01*
X145675232Y-121483954D01*
X145735300Y-121285934D01*
X145755583Y-121080000D01*
X145735300Y-120874066D01*
X145675232Y-120676046D01*
X145577685Y-120493550D01*
X145504824Y-120404768D01*
X145446410Y-120333589D01*
X145286452Y-120202317D01*
X145286453Y-120202317D01*
X145286450Y-120202315D01*
X145103954Y-120104768D01*
X144905934Y-120044700D01*
X144905932Y-120044699D01*
X144905934Y-120044699D01*
X144700000Y-120024417D01*
X144494067Y-120044699D01*
X144318692Y-120097898D01*
X144311768Y-120099999D01*
X144296043Y-120104769D01*
X144185898Y-120163643D01*
X144113550Y-120202315D01*
X144113548Y-120202316D01*
X144113547Y-120202317D01*
X143953589Y-120333589D01*
X143822317Y-120493547D01*
X143724769Y-120676043D01*
X143664699Y-120874067D01*
X143644417Y-121080000D01*
X143664699Y-121285932D01*
X143724769Y-121483957D01*
X143745422Y-121522596D01*
X143767211Y-121563359D01*
X143781453Y-121631761D01*
X143756453Y-121697005D01*
X143745534Y-121709493D01*
X135215489Y-130239540D01*
X135159541Y-130295487D01*
X135159535Y-130295495D01*
X135119982Y-130364004D01*
X135119979Y-130364009D01*
X135099500Y-130440439D01*
X135099500Y-131012518D01*
X135079815Y-131079557D01*
X135050986Y-131110894D01*
X134971719Y-131171716D01*
X134875463Y-131297160D01*
X134814956Y-131443237D01*
X134814955Y-131443239D01*
X134794318Y-131599998D01*
X131824969Y-131599998D01*
X131636819Y-131411848D01*
X131603334Y-131350525D01*
X131600500Y-131324167D01*
X131600500Y-118787482D01*
X131620185Y-118720443D01*
X131649014Y-118689106D01*
X131728282Y-118628282D01*
X131824536Y-118502841D01*
X131885044Y-118356762D01*
X131885044Y-118356760D01*
X131885939Y-118354600D01*
X131929780Y-118300197D01*
X131996074Y-118278132D01*
X132063773Y-118295411D01*
X132111384Y-118346548D01*
X132124500Y-118402053D01*
X132124500Y-125314397D01*
X132104815Y-125381436D01*
X132074941Y-125411313D01*
X132075577Y-125412047D01*
X132068874Y-125417855D01*
X132068872Y-125417856D01*
X132068872Y-125417857D01*
X132062943Y-125424700D01*
X131974623Y-125526626D01*
X131974622Y-125526628D01*
X131914834Y-125657543D01*
X131894353Y-125800000D01*
X131914834Y-125942456D01*
X131966710Y-126056046D01*
X131974623Y-126073373D01*
X132068872Y-126182143D01*
X132189947Y-126259953D01*
X132189950Y-126259954D01*
X132189949Y-126259954D01*
X132328036Y-126300499D01*
X132328038Y-126300500D01*
X132328039Y-126300500D01*
X132471962Y-126300500D01*
X132471962Y-126300499D01*
X132610053Y-126259953D01*
X132731128Y-126182143D01*
X132825377Y-126073373D01*
X132885165Y-125942457D01*
X132905647Y-125800000D01*
X132885165Y-125657543D01*
X132858886Y-125600000D01*
X136594353Y-125600000D01*
X136614834Y-125742456D01*
X136656842Y-125834438D01*
X136674623Y-125873373D01*
X136768872Y-125982143D01*
X136889947Y-126059953D01*
X136889950Y-126059954D01*
X136889949Y-126059954D01*
X137028036Y-126100499D01*
X137028038Y-126100500D01*
X137028039Y-126100500D01*
X137171962Y-126100500D01*
X137171962Y-126100499D01*
X137296468Y-126063942D01*
X137310050Y-126059954D01*
X137310050Y-126059953D01*
X137310053Y-126059953D01*
X137431128Y-125982143D01*
X137525377Y-125873373D01*
X137585165Y-125742457D01*
X137593878Y-125681853D01*
X137622902Y-125618298D01*
X137681680Y-125580523D01*
X137716616Y-125575500D01*
X137994799Y-125575500D01*
X137994800Y-125575500D01*
X138096058Y-125533557D01*
X138173557Y-125456058D01*
X138173556Y-125456058D01*
X138232125Y-125397489D01*
X138232124Y-125397489D01*
X144112634Y-119516980D01*
X144173955Y-119483497D01*
X144243647Y-119488481D01*
X144258767Y-119495305D01*
X144296046Y-119515232D01*
X144494066Y-119575300D01*
X144494065Y-119575300D01*
X144512529Y-119577118D01*
X144700000Y-119595583D01*
X144905934Y-119575300D01*
X145103954Y-119515232D01*
X145286450Y-119417685D01*
X145446410Y-119286410D01*
X145577685Y-119126450D01*
X145675232Y-118943954D01*
X145735300Y-118745934D01*
X145755583Y-118540000D01*
X145735300Y-118334066D01*
X145675232Y-118136046D01*
X145577685Y-117953550D01*
X145455528Y-117804700D01*
X145446410Y-117793589D01*
X145286452Y-117662317D01*
X145286453Y-117662317D01*
X145286450Y-117662315D01*
X145103954Y-117564768D01*
X144905934Y-117504700D01*
X144905932Y-117504699D01*
X144905934Y-117504699D01*
X144700000Y-117484417D01*
X144494067Y-117504699D01*
X144296043Y-117564769D01*
X144202152Y-117614956D01*
X144113550Y-117662315D01*
X144113548Y-117662316D01*
X144113547Y-117662317D01*
X143953589Y-117793589D01*
X143838720Y-117933560D01*
X143822315Y-117953550D01*
X143800535Y-117994297D01*
X143724769Y-118136043D01*
X143664699Y-118334067D01*
X143644417Y-118540000D01*
X143664699Y-118745932D01*
X143724769Y-118943958D01*
X143744693Y-118981232D01*
X143758935Y-119049634D01*
X143733935Y-119114878D01*
X143723016Y-119127366D01*
X142494406Y-120355977D01*
X142433083Y-120389462D01*
X142363391Y-120384478D01*
X142307458Y-120342606D01*
X142283041Y-120277142D01*
X142283987Y-120250649D01*
X142285165Y-120242456D01*
X142305647Y-120100000D01*
X142285165Y-119957543D01*
X142225377Y-119826627D01*
X142131128Y-119717857D01*
X142131125Y-119717855D01*
X142124423Y-119712047D01*
X142125552Y-119710743D01*
X142086701Y-119665898D01*
X142075500Y-119614397D01*
X142075500Y-117485601D01*
X142095185Y-117418562D01*
X142125063Y-117388685D01*
X142124426Y-117387950D01*
X142131120Y-117382147D01*
X142131128Y-117382143D01*
X142225377Y-117273373D01*
X142285165Y-117142457D01*
X142305647Y-117000000D01*
X142285165Y-116857543D01*
X142225377Y-116726627D01*
X142131128Y-116617857D01*
X142010053Y-116540047D01*
X142010051Y-116540046D01*
X142010049Y-116540045D01*
X142010050Y-116540045D01*
X141871963Y-116499500D01*
X141871961Y-116499500D01*
X141728039Y-116499500D01*
X141728036Y-116499500D01*
X141589949Y-116540045D01*
X141468873Y-116617856D01*
X141374623Y-116726626D01*
X141374622Y-116726628D01*
X141314834Y-116857543D01*
X141294353Y-117000000D01*
X141314834Y-117142456D01*
X141330923Y-117177685D01*
X141374623Y-117273373D01*
X141468872Y-117382143D01*
X141468874Y-117382144D01*
X141475574Y-117387950D01*
X141474442Y-117389255D01*
X141513291Y-117434082D01*
X141524500Y-117485601D01*
X141524500Y-119614397D01*
X141504815Y-119681436D01*
X141474941Y-119711313D01*
X141475577Y-119712047D01*
X141468874Y-119717855D01*
X141374623Y-119826626D01*
X141374622Y-119826628D01*
X141314834Y-119957543D01*
X141294353Y-120100000D01*
X141314834Y-120242456D01*
X141360572Y-120342606D01*
X141374623Y-120373373D01*
X141468872Y-120482143D01*
X141589947Y-120559953D01*
X141589950Y-120559954D01*
X141589949Y-120559954D01*
X141728036Y-120600499D01*
X141728038Y-120600500D01*
X141728039Y-120600500D01*
X141871961Y-120600500D01*
X141940832Y-120580278D01*
X142010701Y-120580278D01*
X142069479Y-120618052D01*
X142098504Y-120681608D01*
X142088560Y-120750766D01*
X142063447Y-120786936D01*
X137862204Y-124988181D01*
X137800881Y-125021666D01*
X137774523Y-125024500D01*
X137345198Y-125024500D01*
X137273599Y-125054158D01*
X137273598Y-125054157D01*
X137243942Y-125066441D01*
X137233783Y-125073230D01*
X137232450Y-125071235D01*
X137185879Y-125096666D01*
X137159521Y-125099500D01*
X137028036Y-125099500D01*
X136889949Y-125140045D01*
X136768873Y-125217856D01*
X136674623Y-125326626D01*
X136674622Y-125326628D01*
X136614834Y-125457543D01*
X136594353Y-125600000D01*
X132858886Y-125600000D01*
X132825377Y-125526627D01*
X132731128Y-125417857D01*
X132731125Y-125417855D01*
X132724423Y-125412047D01*
X132725552Y-125410743D01*
X132686701Y-125365898D01*
X132675500Y-125314397D01*
X132675500Y-124410812D01*
X132695185Y-124343773D01*
X132747989Y-124298018D01*
X132817147Y-124288074D01*
X132823692Y-124289195D01*
X132826269Y-124289707D01*
X132830251Y-124290500D01*
X132830252Y-124290500D01*
X134569750Y-124290500D01*
X134569751Y-124290499D01*
X134584568Y-124287552D01*
X134628229Y-124278868D01*
X134628229Y-124278867D01*
X134628231Y-124278867D01*
X134694552Y-124234552D01*
X134738867Y-124168231D01*
X134738867Y-124168229D01*
X134738868Y-124168229D01*
X134750499Y-124109752D01*
X134750500Y-124109750D01*
X134750500Y-122370249D01*
X134750499Y-122370247D01*
X134738868Y-122311770D01*
X134738867Y-122311769D01*
X134694552Y-122245447D01*
X134628230Y-122201132D01*
X134628229Y-122201131D01*
X134569752Y-122189500D01*
X134569748Y-122189500D01*
X134259457Y-122189500D01*
X134192418Y-122169815D01*
X134146663Y-122117011D01*
X134136719Y-122047853D01*
X134165744Y-121984297D01*
X134207052Y-121953118D01*
X134377578Y-121873600D01*
X134571082Y-121738105D01*
X134738105Y-121571082D01*
X134873600Y-121377578D01*
X134973429Y-121163492D01*
X134973432Y-121163486D01*
X135030636Y-120950000D01*
X134133012Y-120950000D01*
X134165925Y-120892993D01*
X134200000Y-120765826D01*
X134200000Y-120634174D01*
X134165925Y-120507007D01*
X134133012Y-120450000D01*
X135030636Y-120450000D01*
X135030635Y-120449999D01*
X134973432Y-120236513D01*
X134973429Y-120236507D01*
X134873600Y-120022422D01*
X134873599Y-120022420D01*
X134738113Y-119828926D01*
X134738108Y-119828920D01*
X134571082Y-119661894D01*
X134377578Y-119526399D01*
X134163492Y-119426570D01*
X134163486Y-119426567D01*
X134041349Y-119393841D01*
X133981689Y-119357476D01*
X133951160Y-119294629D01*
X133959455Y-119225253D01*
X134003940Y-119171375D01*
X134037444Y-119155407D01*
X134103954Y-119135232D01*
X134286450Y-119037685D01*
X134446410Y-118906410D01*
X134577685Y-118746450D01*
X134675232Y-118563954D01*
X134735300Y-118365934D01*
X134755583Y-118160000D01*
X134735300Y-117954066D01*
X134675232Y-117756046D01*
X134577685Y-117573550D01*
X134504536Y-117484417D01*
X134446410Y-117413589D01*
X134286452Y-117282317D01*
X134286453Y-117282317D01*
X134286450Y-117282315D01*
X134103954Y-117184768D01*
X133905934Y-117124700D01*
X133905932Y-117124699D01*
X133905934Y-117124699D01*
X133700000Y-117104417D01*
X133494067Y-117124699D01*
X133296043Y-117184769D01*
X133190726Y-117241063D01*
X133113550Y-117282315D01*
X133113548Y-117282316D01*
X133113547Y-117282317D01*
X132953589Y-117413590D01*
X132895353Y-117484551D01*
X132837607Y-117523885D01*
X132767763Y-117525756D01*
X132707994Y-117489568D01*
X132677279Y-117426812D01*
X132675500Y-117405886D01*
X132675500Y-116000000D01*
X143644417Y-116000000D01*
X143664699Y-116205932D01*
X143680722Y-116258753D01*
X143724768Y-116403954D01*
X143822315Y-116586450D01*
X143822317Y-116586452D01*
X143953589Y-116746410D01*
X144046109Y-116822338D01*
X144113550Y-116877685D01*
X144296046Y-116975232D01*
X144494066Y-117035300D01*
X144494065Y-117035300D01*
X144512529Y-117037118D01*
X144700000Y-117055583D01*
X144905934Y-117035300D01*
X145103954Y-116975232D01*
X145286450Y-116877685D01*
X145446410Y-116746410D01*
X145577685Y-116586450D01*
X145675232Y-116403954D01*
X145735300Y-116205934D01*
X145755583Y-116000000D01*
X145735300Y-115794066D01*
X145675232Y-115596046D01*
X145577685Y-115413550D01*
X145504824Y-115324768D01*
X145446410Y-115253589D01*
X145286452Y-115122317D01*
X145286453Y-115122317D01*
X145286450Y-115122315D01*
X145103954Y-115024768D01*
X144905934Y-114964700D01*
X144905932Y-114964699D01*
X144905934Y-114964699D01*
X144700000Y-114944417D01*
X144494067Y-114964699D01*
X144296043Y-115024769D01*
X144230220Y-115059953D01*
X144113550Y-115122315D01*
X144113548Y-115122316D01*
X144113547Y-115122317D01*
X143953589Y-115253589D01*
X143822317Y-115413547D01*
X143724769Y-115596043D01*
X143664699Y-115794067D01*
X143644417Y-116000000D01*
X132675500Y-116000000D01*
X132675500Y-113460000D01*
X143644417Y-113460000D01*
X143664699Y-113665932D01*
X143664700Y-113665934D01*
X143724768Y-113863954D01*
X143822315Y-114046450D01*
X143822317Y-114046452D01*
X143953589Y-114206410D01*
X144050209Y-114285702D01*
X144113550Y-114337685D01*
X144296046Y-114435232D01*
X144494066Y-114495300D01*
X144494065Y-114495300D01*
X144512529Y-114497118D01*
X144700000Y-114515583D01*
X144905934Y-114495300D01*
X145103954Y-114435232D01*
X145286450Y-114337685D01*
X145446410Y-114206410D01*
X145577685Y-114046450D01*
X145675232Y-113863954D01*
X145735300Y-113665934D01*
X145755583Y-113460000D01*
X145735300Y-113254066D01*
X145675232Y-113056046D01*
X145577685Y-112873550D01*
X145455528Y-112724700D01*
X145446410Y-112713589D01*
X145286452Y-112582317D01*
X145286453Y-112582317D01*
X145286450Y-112582315D01*
X145103954Y-112484768D01*
X144905934Y-112424700D01*
X144905932Y-112424699D01*
X144905934Y-112424699D01*
X144700000Y-112404417D01*
X144494067Y-112424699D01*
X144296043Y-112484769D01*
X144185898Y-112543643D01*
X144113550Y-112582315D01*
X144113548Y-112582316D01*
X144113547Y-112582317D01*
X143953589Y-112713589D01*
X143822317Y-112873547D01*
X143724769Y-113056043D01*
X143664699Y-113254067D01*
X143644417Y-113460000D01*
X132675500Y-113460000D01*
X132675500Y-110920000D01*
X143644417Y-110920000D01*
X143664699Y-111125932D01*
X143664700Y-111125934D01*
X143724768Y-111323954D01*
X143822315Y-111506450D01*
X143822317Y-111506452D01*
X143953589Y-111666410D01*
X144036812Y-111734708D01*
X144113550Y-111797685D01*
X144296046Y-111895232D01*
X144494066Y-111955300D01*
X144494065Y-111955300D01*
X144512529Y-111957118D01*
X144700000Y-111975583D01*
X144905934Y-111955300D01*
X145103954Y-111895232D01*
X145286450Y-111797685D01*
X145446410Y-111666410D01*
X145577685Y-111506450D01*
X145675232Y-111323954D01*
X145735300Y-111125934D01*
X145755583Y-110920000D01*
X145735300Y-110714066D01*
X145675232Y-110516046D01*
X145577685Y-110333550D01*
X145455528Y-110184700D01*
X145446410Y-110173589D01*
X145286452Y-110042317D01*
X145286453Y-110042317D01*
X145286450Y-110042315D01*
X145103954Y-109944768D01*
X144905934Y-109884700D01*
X144905932Y-109884699D01*
X144905934Y-109884699D01*
X144700000Y-109864417D01*
X144494067Y-109884699D01*
X144296043Y-109944769D01*
X144185898Y-110003643D01*
X144113550Y-110042315D01*
X144113548Y-110042316D01*
X144113547Y-110042317D01*
X143953589Y-110173589D01*
X143822317Y-110333547D01*
X143724769Y-110516043D01*
X143664699Y-110714067D01*
X143644417Y-110920000D01*
X132675500Y-110920000D01*
X132675500Y-109945201D01*
X132675500Y-109945200D01*
X132633557Y-109843942D01*
X132633557Y-109843941D01*
X132334951Y-109545335D01*
X132301466Y-109484012D01*
X132299894Y-109440010D01*
X132305647Y-109400000D01*
X132285165Y-109257543D01*
X132225377Y-109126627D01*
X132131128Y-109017857D01*
X132010053Y-108940047D01*
X132010051Y-108940046D01*
X132010049Y-108940045D01*
X132010050Y-108940045D01*
X131871963Y-108899500D01*
X131871961Y-108899500D01*
X131728039Y-108899500D01*
X131728036Y-108899500D01*
X131589949Y-108940045D01*
X131468873Y-109017856D01*
X131374623Y-109126626D01*
X131374622Y-109126628D01*
X131314834Y-109257543D01*
X131294353Y-109400000D01*
X131314834Y-109542456D01*
X131316149Y-109545335D01*
X131374623Y-109673373D01*
X131468872Y-109782143D01*
X131589947Y-109859953D01*
X131589950Y-109859954D01*
X131589949Y-109859954D01*
X131728036Y-109900499D01*
X131728038Y-109900500D01*
X131859522Y-109900500D01*
X131926561Y-109920185D01*
X131947198Y-109936814D01*
X132088182Y-110077797D01*
X132121666Y-110139118D01*
X132124500Y-110165477D01*
X132124500Y-117997946D01*
X132104815Y-118064985D01*
X132052011Y-118110740D01*
X131982853Y-118120684D01*
X131919297Y-118091659D01*
X131885939Y-118045399D01*
X131885044Y-118043238D01*
X131824536Y-117897159D01*
X131728282Y-117771718D01*
X131602841Y-117675464D01*
X131571101Y-117662317D01*
X131456762Y-117614956D01*
X131456760Y-117614955D01*
X131300001Y-117594318D01*
X131299999Y-117594318D01*
X131143239Y-117614955D01*
X131143237Y-117614956D01*
X130997160Y-117675463D01*
X130871718Y-117771718D01*
X130775463Y-117897160D01*
X130714956Y-118043237D01*
X130714955Y-118043239D01*
X130694318Y-118199998D01*
X130694318Y-118200001D01*
X130714955Y-118356760D01*
X130714956Y-118356762D01*
X130747796Y-118436046D01*
X130775464Y-118502841D01*
X130871718Y-118628282D01*
X130944997Y-118684511D01*
X130950986Y-118689106D01*
X130992189Y-118745534D01*
X130999500Y-118787482D01*
X130999500Y-131539562D01*
X131013152Y-131590513D01*
X131019979Y-131615990D01*
X131019982Y-131615995D01*
X131059535Y-131684504D01*
X131059541Y-131684512D01*
X134489848Y-135114819D01*
X134523333Y-135176142D01*
X134518349Y-135245834D01*
X134476477Y-135301767D01*
X134411013Y-135326184D01*
X134402167Y-135326500D01*
X130567478Y-135326500D01*
X130500439Y-135306815D01*
X130479797Y-135290181D01*
X126934951Y-131745336D01*
X126901466Y-131684013D01*
X126899894Y-131640011D01*
X126905647Y-131600000D01*
X126885165Y-131457543D01*
X126825377Y-131326627D01*
X126731128Y-131217857D01*
X126610053Y-131140047D01*
X126610051Y-131140046D01*
X126610049Y-131140045D01*
X126610050Y-131140045D01*
X126471963Y-131099500D01*
X126471961Y-131099500D01*
X126328039Y-131099500D01*
X126328038Y-131099500D01*
X126319260Y-131100762D01*
X126318893Y-131098212D01*
X126262539Y-131098200D01*
X126203769Y-131060413D01*
X126174758Y-130996851D01*
X126173500Y-130979231D01*
X126173500Y-130086887D01*
X126193185Y-130019848D01*
X126224728Y-129988305D01*
X126224423Y-129987953D01*
X126229353Y-129983680D01*
X126230464Y-129982569D01*
X126231128Y-129982143D01*
X126325377Y-129873373D01*
X126385165Y-129742457D01*
X126405647Y-129600000D01*
X126385165Y-129457543D01*
X126325377Y-129326627D01*
X126231128Y-129217857D01*
X126110053Y-129140047D01*
X126110051Y-129140046D01*
X126110049Y-129140045D01*
X126110050Y-129140045D01*
X125971963Y-129099500D01*
X125971961Y-129099500D01*
X125828039Y-129099500D01*
X125828036Y-129099500D01*
X125689949Y-129140045D01*
X125568873Y-129217856D01*
X125474623Y-129326626D01*
X125474622Y-129326628D01*
X125414834Y-129457543D01*
X125394353Y-129600000D01*
X118065938Y-129600000D01*
X117979449Y-129561493D01*
X117807762Y-129525000D01*
X117632238Y-129525000D01*
X117460550Y-129561493D01*
X117460545Y-129561495D01*
X117300201Y-129632886D01*
X117300196Y-129632888D01*
X117158205Y-129736050D01*
X117158199Y-129736055D01*
X117040749Y-129866497D01*
X116952988Y-130018503D01*
X116952985Y-130018509D01*
X116898749Y-130185434D01*
X116898748Y-130185436D01*
X116880401Y-130360000D01*
X110939599Y-130360000D01*
X110921252Y-130185438D01*
X110874406Y-130041261D01*
X110867014Y-130018509D01*
X110867011Y-130018503D01*
X110779250Y-129866496D01*
X110733248Y-129815406D01*
X110661806Y-129736060D01*
X110661803Y-129736058D01*
X110661802Y-129736057D01*
X110661801Y-129736056D01*
X110578084Y-129675232D01*
X110519798Y-129632884D01*
X110359449Y-129561493D01*
X110187762Y-129525000D01*
X110012238Y-129525000D01*
X109840552Y-129561493D01*
X109840548Y-129561494D01*
X109815000Y-129572869D01*
X109745750Y-129582153D01*
X109682474Y-129552524D01*
X109676885Y-129547270D01*
X105265819Y-125136204D01*
X105232334Y-125074881D01*
X105229500Y-125048523D01*
X105229500Y-121539201D01*
X105229500Y-121539200D01*
X105187557Y-121437942D01*
X105187557Y-121437941D01*
X103176981Y-119427366D01*
X103143497Y-119366044D01*
X103148481Y-119296352D01*
X103155299Y-119281243D01*
X103175232Y-119243954D01*
X103235300Y-119045934D01*
X103255583Y-118840000D01*
X103235300Y-118634066D01*
X103175232Y-118436046D01*
X103077685Y-118253550D01*
X102981253Y-118136046D01*
X102946410Y-118093589D01*
X102786452Y-117962317D01*
X102786453Y-117962317D01*
X102786450Y-117962315D01*
X102603954Y-117864768D01*
X102405934Y-117804700D01*
X102405932Y-117804699D01*
X102405934Y-117804699D01*
X102200000Y-117784417D01*
X101994067Y-117804699D01*
X101796043Y-117864769D01*
X101735447Y-117897159D01*
X101613550Y-117962315D01*
X101613548Y-117962316D01*
X101613547Y-117962317D01*
X101453589Y-118093589D01*
X101322317Y-118253547D01*
X101322315Y-118253550D01*
X101295969Y-118302839D01*
X101224769Y-118436043D01*
X101164699Y-118634067D01*
X101144417Y-118840000D01*
X101164699Y-119045932D01*
X101185614Y-119114878D01*
X101224768Y-119243954D01*
X101322315Y-119426450D01*
X101323068Y-119427367D01*
X101453589Y-119586410D01*
X101516461Y-119638007D01*
X101613550Y-119717685D01*
X101796046Y-119815232D01*
X101994066Y-119875300D01*
X101994065Y-119875300D01*
X102012529Y-119877118D01*
X102200000Y-119895583D01*
X102405934Y-119875300D01*
X102603954Y-119815232D01*
X102641233Y-119795305D01*
X102709632Y-119781063D01*
X102774877Y-119806061D01*
X102787367Y-119816982D01*
X104642181Y-121671796D01*
X104675666Y-121733119D01*
X104678500Y-121759477D01*
X104678500Y-123169523D01*
X104658815Y-123236562D01*
X104606011Y-123282317D01*
X104536853Y-123292261D01*
X104473297Y-123263236D01*
X104466819Y-123257204D01*
X103176982Y-121967367D01*
X103143497Y-121906044D01*
X103148481Y-121836352D01*
X103155299Y-121821243D01*
X103175232Y-121783954D01*
X103235300Y-121585934D01*
X103255583Y-121380000D01*
X103235300Y-121174066D01*
X103175232Y-120976046D01*
X103077685Y-120793550D01*
X103025702Y-120730209D01*
X102946410Y-120633589D01*
X102786452Y-120502317D01*
X102786453Y-120502317D01*
X102786450Y-120502315D01*
X102603954Y-120404768D01*
X102405934Y-120344700D01*
X102405932Y-120344699D01*
X102405934Y-120344699D01*
X102200000Y-120324417D01*
X101994067Y-120344699D01*
X101796043Y-120404769D01*
X101690459Y-120461206D01*
X101613550Y-120502315D01*
X101613548Y-120502316D01*
X101613547Y-120502317D01*
X101453589Y-120633589D01*
X101322317Y-120793547D01*
X101224769Y-120976043D01*
X101164699Y-121174067D01*
X101144417Y-121380000D01*
X101164699Y-121585932D01*
X101164700Y-121585934D01*
X101224768Y-121783954D01*
X101322315Y-121966450D01*
X101322317Y-121966452D01*
X101453589Y-122126410D01*
X101464767Y-122135583D01*
X101613550Y-122257685D01*
X101796046Y-122355232D01*
X101994066Y-122415300D01*
X101994065Y-122415300D01*
X102012529Y-122417118D01*
X102200000Y-122435583D01*
X102405934Y-122415300D01*
X102603954Y-122355232D01*
X102641233Y-122335305D01*
X102709632Y-122321063D01*
X102774877Y-122346061D01*
X102787367Y-122356982D01*
X104365181Y-123934796D01*
X104398666Y-123996119D01*
X104401500Y-124022477D01*
X104401500Y-125432523D01*
X104381815Y-125499562D01*
X104329011Y-125545317D01*
X104259853Y-125555261D01*
X104196297Y-125526236D01*
X104189819Y-125520204D01*
X103176982Y-124507367D01*
X103143497Y-124446044D01*
X103148481Y-124376352D01*
X103155299Y-124361243D01*
X103175232Y-124323954D01*
X103235300Y-124125934D01*
X103255583Y-123920000D01*
X103235300Y-123714066D01*
X103175232Y-123516046D01*
X103077685Y-123333550D01*
X103015030Y-123257204D01*
X102946410Y-123173589D01*
X102786452Y-123042317D01*
X102786453Y-123042317D01*
X102786450Y-123042315D01*
X102603954Y-122944768D01*
X102405934Y-122884700D01*
X102405932Y-122884699D01*
X102405934Y-122884699D01*
X102200000Y-122864417D01*
X101994067Y-122884699D01*
X101796043Y-122944769D01*
X101685898Y-123003643D01*
X101613550Y-123042315D01*
X101613548Y-123042316D01*
X101613547Y-123042317D01*
X101453589Y-123173589D01*
X101322317Y-123333547D01*
X101224769Y-123516043D01*
X101164699Y-123714067D01*
X101144417Y-123920000D01*
X101164699Y-124125932D01*
X101184053Y-124189732D01*
X101224768Y-124323954D01*
X101322315Y-124506450D01*
X101322317Y-124506452D01*
X101453589Y-124666410D01*
X101464767Y-124675583D01*
X101613550Y-124797685D01*
X101796046Y-124895232D01*
X101994066Y-124955300D01*
X101994065Y-124955300D01*
X102012529Y-124957118D01*
X102200000Y-124975583D01*
X102405934Y-124955300D01*
X102603954Y-124895232D01*
X102641233Y-124875305D01*
X102709632Y-124861063D01*
X102774877Y-124886061D01*
X102787367Y-124896982D01*
X104088181Y-126197796D01*
X104121666Y-126259119D01*
X104124500Y-126285477D01*
X104124500Y-127695522D01*
X104104815Y-127762561D01*
X104052011Y-127808316D01*
X103982853Y-127818260D01*
X103919297Y-127789235D01*
X103912819Y-127783203D01*
X103176982Y-127047367D01*
X103143497Y-126986044D01*
X103148481Y-126916353D01*
X103155299Y-126901243D01*
X103175232Y-126863954D01*
X103235300Y-126665934D01*
X103255583Y-126460000D01*
X103235300Y-126254066D01*
X103175232Y-126056046D01*
X103077685Y-125873550D01*
X103023696Y-125807764D01*
X102946410Y-125713589D01*
X102828677Y-125616969D01*
X102786450Y-125582315D01*
X102603954Y-125484768D01*
X102405934Y-125424700D01*
X102405932Y-125424699D01*
X102405934Y-125424699D01*
X102200000Y-125404417D01*
X101994067Y-125424699D01*
X101796043Y-125484769D01*
X101717736Y-125526626D01*
X101613550Y-125582315D01*
X101613548Y-125582316D01*
X101613547Y-125582317D01*
X101453589Y-125713589D01*
X101322317Y-125873547D01*
X101224769Y-126056043D01*
X101164699Y-126254067D01*
X101144417Y-126460000D01*
X101164699Y-126665932D01*
X101164700Y-126665934D01*
X101224768Y-126863954D01*
X101322315Y-127046450D01*
X101334578Y-127061392D01*
X101453589Y-127206410D01*
X101464767Y-127215583D01*
X101613550Y-127337685D01*
X101796046Y-127435232D01*
X101994066Y-127495300D01*
X101994065Y-127495300D01*
X102012529Y-127497118D01*
X102200000Y-127515583D01*
X102405934Y-127495300D01*
X102603954Y-127435232D01*
X102641233Y-127415305D01*
X102709632Y-127401063D01*
X102774877Y-127426061D01*
X102787367Y-127436982D01*
X103771181Y-128420796D01*
X103804666Y-128482119D01*
X103807500Y-128508477D01*
X103807500Y-129918523D01*
X103787815Y-129985562D01*
X103735011Y-130031317D01*
X103665853Y-130041261D01*
X103602297Y-130012236D01*
X103595819Y-130006204D01*
X103176982Y-129587367D01*
X103143497Y-129526044D01*
X103148481Y-129456352D01*
X103155299Y-129441243D01*
X103175232Y-129403954D01*
X103235300Y-129205934D01*
X103255583Y-129000000D01*
X103235300Y-128794066D01*
X103175232Y-128596046D01*
X103077685Y-128413550D01*
X102995580Y-128313504D01*
X102946410Y-128253589D01*
X102786452Y-128122317D01*
X102786453Y-128122317D01*
X102786450Y-128122315D01*
X102603954Y-128024768D01*
X102405934Y-127964700D01*
X102405932Y-127964699D01*
X102405934Y-127964699D01*
X102200000Y-127944417D01*
X101994067Y-127964699D01*
X101796043Y-128024769D01*
X101709994Y-128070764D01*
X101613550Y-128122315D01*
X101613548Y-128122316D01*
X101613547Y-128122317D01*
X101453589Y-128253589D01*
X101322317Y-128413547D01*
X101224769Y-128596043D01*
X101164699Y-128794067D01*
X101144417Y-129000000D01*
X101164699Y-129205932D01*
X101189124Y-129286450D01*
X101224768Y-129403954D01*
X101322315Y-129586450D01*
X101339616Y-129607531D01*
X101453589Y-129746410D01*
X101464767Y-129755583D01*
X101613550Y-129877685D01*
X101796046Y-129975232D01*
X101994066Y-130035300D01*
X101994065Y-130035300D01*
X102012529Y-130037118D01*
X102200000Y-130055583D01*
X102405934Y-130035300D01*
X102603954Y-129975232D01*
X102641233Y-129955305D01*
X102709632Y-129941063D01*
X102774877Y-129966061D01*
X102787367Y-129976982D01*
X103494181Y-130683796D01*
X103527666Y-130745119D01*
X103530500Y-130771477D01*
X103530500Y-132181523D01*
X103510815Y-132248562D01*
X103458011Y-132294317D01*
X103388853Y-132304261D01*
X103325297Y-132275236D01*
X103318819Y-132269204D01*
X103176982Y-132127367D01*
X103143497Y-132066044D01*
X103148481Y-131996352D01*
X103155299Y-131981243D01*
X103175232Y-131943954D01*
X103235300Y-131745934D01*
X103255583Y-131540000D01*
X103235300Y-131334066D01*
X103175232Y-131136046D01*
X103077685Y-130953550D01*
X102995580Y-130853504D01*
X102946410Y-130793589D01*
X102786452Y-130662317D01*
X102786453Y-130662317D01*
X102786450Y-130662315D01*
X102603954Y-130564768D01*
X102405934Y-130504700D01*
X102405932Y-130504699D01*
X102405934Y-130504699D01*
X102200000Y-130484417D01*
X101994067Y-130504699D01*
X101796043Y-130564769D01*
X101685898Y-130623643D01*
X101613550Y-130662315D01*
X101613548Y-130662316D01*
X101613547Y-130662317D01*
X101453589Y-130793589D01*
X101322317Y-130953547D01*
X101224769Y-131136043D01*
X101164699Y-131334067D01*
X101144417Y-131540000D01*
X101164699Y-131745932D01*
X101180349Y-131797523D01*
X101224768Y-131943954D01*
X101322315Y-132126450D01*
X101322317Y-132126452D01*
X101453589Y-132286410D01*
X101532434Y-132351115D01*
X101613550Y-132417685D01*
X101796046Y-132515232D01*
X101994066Y-132575300D01*
X101994065Y-132575300D01*
X102012529Y-132577118D01*
X102200000Y-132595583D01*
X102405934Y-132575300D01*
X102603954Y-132515232D01*
X102641233Y-132495305D01*
X102709632Y-132481063D01*
X102774877Y-132506061D01*
X102787367Y-132516982D01*
X103217181Y-132946796D01*
X103250666Y-133008119D01*
X103253500Y-133034477D01*
X103253500Y-133361223D01*
X103233815Y-133428262D01*
X103181011Y-133474017D01*
X103111853Y-133483961D01*
X103048297Y-133454936D01*
X103033647Y-133439888D01*
X102946410Y-133333590D01*
X102946409Y-133333589D01*
X102786450Y-133202315D01*
X102603954Y-133104768D01*
X102405934Y-133044700D01*
X102405932Y-133044699D01*
X102405934Y-133044699D01*
X102200000Y-133024417D01*
X101994067Y-133044699D01*
X101796043Y-133104769D01*
X101685898Y-133163643D01*
X101613550Y-133202315D01*
X101613548Y-133202316D01*
X101613547Y-133202317D01*
X101453589Y-133333589D01*
X101322317Y-133493547D01*
X101224769Y-133676043D01*
X101164699Y-133874067D01*
X101144417Y-134080000D01*
X101164699Y-134285932D01*
X101164700Y-134285934D01*
X101224768Y-134483954D01*
X101322315Y-134666450D01*
X101322317Y-134666452D01*
X101453589Y-134826410D01*
X101464767Y-134835583D01*
X101613550Y-134957685D01*
X101796046Y-135055232D01*
X101994066Y-135115300D01*
X101994065Y-135115300D01*
X102012529Y-135117118D01*
X102200000Y-135135583D01*
X102405934Y-135115300D01*
X102603954Y-135055232D01*
X102641233Y-135035305D01*
X102709632Y-135021063D01*
X102774877Y-135046061D01*
X102787367Y-135056982D01*
X102940181Y-135209796D01*
X102973666Y-135271119D01*
X102976500Y-135297477D01*
X102976500Y-135637314D01*
X102956815Y-135704353D01*
X102904011Y-135750108D01*
X102834853Y-135760052D01*
X102792539Y-135743845D01*
X102791822Y-135745187D01*
X102786451Y-135742316D01*
X102786450Y-135742315D01*
X102603954Y-135644768D01*
X102405934Y-135584700D01*
X102405932Y-135584699D01*
X102405934Y-135584699D01*
X102200000Y-135564417D01*
X101994067Y-135584699D01*
X101796043Y-135644769D01*
X101685898Y-135703643D01*
X101613550Y-135742315D01*
X101613548Y-135742316D01*
X101613547Y-135742317D01*
X101453589Y-135873589D01*
X101322317Y-136033547D01*
X101224769Y-136216043D01*
X101164699Y-136414067D01*
X101144417Y-136620000D01*
X101164699Y-136825932D01*
X101164700Y-136825934D01*
X101224768Y-137023954D01*
X101322315Y-137206450D01*
X101322317Y-137206452D01*
X101453589Y-137366410D01*
X101464767Y-137375583D01*
X101613550Y-137497685D01*
X101796046Y-137595232D01*
X101994066Y-137655300D01*
X101994065Y-137655300D01*
X102012529Y-137657118D01*
X102200000Y-137675583D01*
X102405934Y-137655300D01*
X102603954Y-137595232D01*
X102786450Y-137497685D01*
X102786452Y-137497683D01*
X102791822Y-137494813D01*
X102792828Y-137496695D01*
X102850288Y-137478705D01*
X102917668Y-137497190D01*
X102964357Y-137549169D01*
X102976500Y-137602685D01*
X102976500Y-138177314D01*
X102956815Y-138244353D01*
X102904011Y-138290108D01*
X102834853Y-138300052D01*
X102792539Y-138283845D01*
X102791822Y-138285187D01*
X102786451Y-138282316D01*
X102786450Y-138282315D01*
X102603954Y-138184768D01*
X102405934Y-138124700D01*
X102405932Y-138124699D01*
X102405934Y-138124699D01*
X102200000Y-138104417D01*
X101994067Y-138124699D01*
X101796043Y-138184769D01*
X101685898Y-138243643D01*
X101613550Y-138282315D01*
X101613548Y-138282316D01*
X101613547Y-138282317D01*
X101453589Y-138413589D01*
X101322317Y-138573547D01*
X101322315Y-138573550D01*
X101283643Y-138645898D01*
X101224769Y-138756043D01*
X101164699Y-138954067D01*
X101144417Y-139160000D01*
X101164699Y-139365932D01*
X101175034Y-139400001D01*
X101224768Y-139563954D01*
X101322315Y-139746450D01*
X101322317Y-139746452D01*
X101453589Y-139906410D01*
X101549405Y-139985043D01*
X101613550Y-140037685D01*
X101796046Y-140135232D01*
X101862551Y-140155405D01*
X101920989Y-140193702D01*
X101949446Y-140257514D01*
X101938887Y-140326581D01*
X101892663Y-140378975D01*
X101858650Y-140393841D01*
X101736514Y-140426567D01*
X101736507Y-140426570D01*
X101522422Y-140526399D01*
X101522420Y-140526400D01*
X101328926Y-140661886D01*
X101328920Y-140661891D01*
X101161891Y-140828920D01*
X101161886Y-140828926D01*
X101026400Y-141022420D01*
X101026399Y-141022422D01*
X100926570Y-141236507D01*
X100926567Y-141236513D01*
X100869364Y-141449999D01*
X100500500Y-141449999D01*
X100500500Y-116300000D01*
X101144417Y-116300000D01*
X101164699Y-116505932D01*
X101164700Y-116505934D01*
X101224768Y-116703954D01*
X101322315Y-116886450D01*
X101322317Y-116886452D01*
X101453589Y-117046410D01*
X101545945Y-117122203D01*
X101613550Y-117177685D01*
X101796046Y-117275232D01*
X101994066Y-117335300D01*
X101994065Y-117335300D01*
X102012529Y-117337118D01*
X102200000Y-117355583D01*
X102405934Y-117335300D01*
X102603954Y-117275232D01*
X102641233Y-117255305D01*
X102709632Y-117241063D01*
X102774877Y-117266061D01*
X102787367Y-117276982D01*
X109788181Y-124277796D01*
X109821666Y-124339119D01*
X109824500Y-124365477D01*
X109824500Y-126948113D01*
X109804815Y-127015152D01*
X109752011Y-127060907D01*
X109750936Y-127061392D01*
X109680201Y-127092885D01*
X109680196Y-127092888D01*
X109538205Y-127196050D01*
X109538199Y-127196055D01*
X109420749Y-127326497D01*
X109332988Y-127478503D01*
X109332985Y-127478509D01*
X109278749Y-127645434D01*
X109278748Y-127645436D01*
X109260401Y-127820000D01*
X109278748Y-127994563D01*
X109278749Y-127994565D01*
X109332985Y-128161490D01*
X109332988Y-128161496D01*
X109420750Y-128313504D01*
X109461662Y-128358941D01*
X109538193Y-128443939D01*
X109538196Y-128443941D01*
X109538199Y-128443944D01*
X109627021Y-128508477D01*
X109680201Y-128547115D01*
X109796855Y-128599052D01*
X109840550Y-128618506D01*
X110012238Y-128655000D01*
X110187762Y-128655000D01*
X110359450Y-128618506D01*
X110519800Y-128547114D01*
X110661801Y-128443944D01*
X110779250Y-128313504D01*
X110867012Y-128161496D01*
X110921252Y-127994562D01*
X110939599Y-127820000D01*
X110921252Y-127645438D01*
X110879059Y-127515582D01*
X110867014Y-127478509D01*
X110867011Y-127478503D01*
X110843039Y-127436982D01*
X110779250Y-127326496D01*
X110733248Y-127275406D01*
X110661806Y-127196060D01*
X110661803Y-127196058D01*
X110661802Y-127196057D01*
X110661801Y-127196056D01*
X110620084Y-127165747D01*
X116885000Y-127165747D01*
X116885000Y-128474252D01*
X116896631Y-128532729D01*
X116896632Y-128532730D01*
X116940947Y-128599052D01*
X117007269Y-128643367D01*
X117007270Y-128643368D01*
X117065747Y-128654999D01*
X117065750Y-128655000D01*
X117065752Y-128655000D01*
X118374250Y-128655000D01*
X118374251Y-128654999D01*
X118389068Y-128652052D01*
X118432729Y-128643368D01*
X118432729Y-128643367D01*
X118432731Y-128643367D01*
X118499052Y-128599052D01*
X118543367Y-128532731D01*
X118543367Y-128532729D01*
X118543368Y-128532729D01*
X118554999Y-128474252D01*
X118555000Y-128474250D01*
X118555000Y-127165749D01*
X118554999Y-127165747D01*
X118543368Y-127107270D01*
X118543367Y-127107269D01*
X118499052Y-127040947D01*
X118432730Y-126996632D01*
X118432729Y-126996631D01*
X118374252Y-126985000D01*
X118374248Y-126985000D01*
X117065752Y-126985000D01*
X117065747Y-126985000D01*
X117007270Y-126996631D01*
X117007269Y-126996632D01*
X116940947Y-127040947D01*
X116896632Y-127107269D01*
X116896631Y-127107270D01*
X116885000Y-127165747D01*
X110620084Y-127165747D01*
X110539598Y-127107270D01*
X110519799Y-127092885D01*
X110449064Y-127061392D01*
X110395827Y-127016142D01*
X110375506Y-126949293D01*
X110375500Y-126948113D01*
X110375500Y-124145201D01*
X110375500Y-124145200D01*
X110333557Y-124043942D01*
X110333557Y-124043941D01*
X103176981Y-116887366D01*
X103143497Y-116826044D01*
X103148481Y-116756352D01*
X103155299Y-116741243D01*
X103175232Y-116703954D01*
X103235300Y-116505934D01*
X103255583Y-116300000D01*
X103235300Y-116094066D01*
X103175232Y-115896046D01*
X103077685Y-115713550D01*
X103025702Y-115650209D01*
X102946410Y-115553589D01*
X102814337Y-115445201D01*
X102786450Y-115422315D01*
X102603954Y-115324768D01*
X102405934Y-115264700D01*
X102405932Y-115264699D01*
X102405934Y-115264699D01*
X102200000Y-115244417D01*
X101994067Y-115264699D01*
X101796043Y-115324769D01*
X101760174Y-115343942D01*
X101613550Y-115422315D01*
X101613548Y-115422316D01*
X101613547Y-115422317D01*
X101453589Y-115553589D01*
X101322317Y-115713547D01*
X101224769Y-115896043D01*
X101164699Y-116094067D01*
X101144417Y-116300000D01*
X100500500Y-116300000D01*
X100500500Y-113760000D01*
X101144417Y-113760000D01*
X101164699Y-113965932D01*
X101189124Y-114046450D01*
X101224768Y-114163954D01*
X101322315Y-114346450D01*
X101322317Y-114346452D01*
X101453589Y-114506410D01*
X101529816Y-114568967D01*
X101613550Y-114637685D01*
X101796046Y-114735232D01*
X101994066Y-114795300D01*
X101994065Y-114795300D01*
X102012529Y-114797118D01*
X102200000Y-114815583D01*
X102405934Y-114795300D01*
X102603954Y-114735232D01*
X102786450Y-114637685D01*
X102946410Y-114506410D01*
X103077685Y-114346450D01*
X103175232Y-114163954D01*
X103235300Y-113965934D01*
X103255583Y-113760000D01*
X103235300Y-113554066D01*
X103175232Y-113356046D01*
X103077685Y-113173550D01*
X102981253Y-113056046D01*
X102946410Y-113013589D01*
X102786452Y-112882317D01*
X102786453Y-112882317D01*
X102786450Y-112882315D01*
X102616554Y-112791502D01*
X102603956Y-112784769D01*
X102603955Y-112784768D01*
X102603954Y-112784768D01*
X102405934Y-112724700D01*
X102405932Y-112724699D01*
X102405934Y-112724699D01*
X102200000Y-112704417D01*
X101994067Y-112724699D01*
X101796043Y-112784769D01*
X101685898Y-112843643D01*
X101613550Y-112882315D01*
X101613548Y-112882316D01*
X101613547Y-112882317D01*
X101453589Y-113013589D01*
X101322317Y-113173547D01*
X101224769Y-113356043D01*
X101164699Y-113554067D01*
X101144417Y-113760000D01*
X100500500Y-113760000D01*
X100500500Y-111220000D01*
X101144417Y-111220000D01*
X101164699Y-111425932D01*
X101164700Y-111425934D01*
X101224768Y-111623954D01*
X101322315Y-111806450D01*
X101322317Y-111806452D01*
X101453589Y-111966410D01*
X101464767Y-111975583D01*
X101613550Y-112097685D01*
X101796046Y-112195232D01*
X101994066Y-112255300D01*
X101994065Y-112255300D01*
X102012529Y-112257118D01*
X102200000Y-112275583D01*
X102405934Y-112255300D01*
X102603954Y-112195232D01*
X102786450Y-112097685D01*
X102946410Y-111966410D01*
X103077685Y-111806450D01*
X103175232Y-111623954D01*
X103235300Y-111425934D01*
X103255583Y-111220000D01*
X103235300Y-111014066D01*
X103175232Y-110816046D01*
X103077685Y-110633550D01*
X102981253Y-110516046D01*
X102946410Y-110473589D01*
X102786452Y-110342317D01*
X102786453Y-110342317D01*
X102786450Y-110342315D01*
X102603954Y-110244768D01*
X102405934Y-110184700D01*
X102405932Y-110184699D01*
X102405934Y-110184699D01*
X102200000Y-110164417D01*
X101994067Y-110184699D01*
X101796043Y-110244769D01*
X101685898Y-110303643D01*
X101613550Y-110342315D01*
X101613548Y-110342316D01*
X101613547Y-110342317D01*
X101453589Y-110473589D01*
X101322317Y-110633547D01*
X101224769Y-110816043D01*
X101164699Y-111014067D01*
X101144417Y-111220000D01*
X100500500Y-111220000D01*
X100500500Y-108680000D01*
X101144417Y-108680000D01*
X101164699Y-108885932D01*
X101164700Y-108885934D01*
X101224768Y-109083954D01*
X101322315Y-109266450D01*
X101322317Y-109266452D01*
X101453589Y-109426410D01*
X101545021Y-109501445D01*
X101613550Y-109557685D01*
X101796046Y-109655232D01*
X101994066Y-109715300D01*
X101994065Y-109715300D01*
X102012529Y-109717118D01*
X102200000Y-109735583D01*
X102405934Y-109715300D01*
X102603954Y-109655232D01*
X102786450Y-109557685D01*
X102946410Y-109426410D01*
X103077685Y-109266450D01*
X103175232Y-109083954D01*
X103235300Y-108885934D01*
X103255583Y-108680000D01*
X103235300Y-108474066D01*
X103175232Y-108276046D01*
X103077685Y-108093550D01*
X102981253Y-107976046D01*
X102946410Y-107933589D01*
X102786452Y-107802317D01*
X102786453Y-107802317D01*
X102786450Y-107802315D01*
X102603954Y-107704768D01*
X102405934Y-107644700D01*
X102405932Y-107644699D01*
X102405934Y-107644699D01*
X102200000Y-107624417D01*
X101994067Y-107644699D01*
X101796043Y-107704769D01*
X101685898Y-107763643D01*
X101613550Y-107802315D01*
X101613548Y-107802316D01*
X101613547Y-107802317D01*
X101453589Y-107933589D01*
X101322317Y-108093547D01*
X101224769Y-108276043D01*
X101164699Y-108474067D01*
X101144417Y-108680000D01*
X100500500Y-108680000D01*
X100500500Y-106140000D01*
X101144417Y-106140000D01*
X101164699Y-106345932D01*
X101164700Y-106345934D01*
X101224768Y-106543954D01*
X101322315Y-106726450D01*
X101322461Y-106726628D01*
X101453589Y-106886410D01*
X101464767Y-106895583D01*
X101613550Y-107017685D01*
X101796046Y-107115232D01*
X101994066Y-107175300D01*
X101994065Y-107175300D01*
X102012529Y-107177118D01*
X102200000Y-107195583D01*
X102405934Y-107175300D01*
X102603954Y-107115232D01*
X102786450Y-107017685D01*
X102946410Y-106886410D01*
X103077685Y-106726450D01*
X103175232Y-106543954D01*
X103235300Y-106345934D01*
X103255583Y-106140000D01*
X103235300Y-105934066D01*
X103175232Y-105736046D01*
X103077685Y-105553550D01*
X102981253Y-105436046D01*
X102946410Y-105393589D01*
X102786452Y-105262317D01*
X102786453Y-105262317D01*
X102786450Y-105262315D01*
X102603954Y-105164768D01*
X102405934Y-105104700D01*
X102405932Y-105104699D01*
X102405934Y-105104699D01*
X102200000Y-105084417D01*
X101994067Y-105104699D01*
X101796043Y-105164769D01*
X101685898Y-105223643D01*
X101613550Y-105262315D01*
X101613548Y-105262316D01*
X101613547Y-105262317D01*
X101453589Y-105393589D01*
X101322317Y-105553547D01*
X101322315Y-105553550D01*
X101292608Y-105609127D01*
X101224769Y-105736043D01*
X101164699Y-105934067D01*
X101144417Y-106140000D01*
X100500500Y-106140000D01*
X100500500Y-103600000D01*
X101144417Y-103600000D01*
X101164699Y-103805932D01*
X101164700Y-103805934D01*
X101224768Y-104003954D01*
X101322315Y-104186450D01*
X101322317Y-104186452D01*
X101453589Y-104346410D01*
X101464767Y-104355583D01*
X101613550Y-104477685D01*
X101796046Y-104575232D01*
X101994066Y-104635300D01*
X101994065Y-104635300D01*
X102012529Y-104637118D01*
X102200000Y-104655583D01*
X102405934Y-104635300D01*
X102603954Y-104575232D01*
X102786450Y-104477685D01*
X102946410Y-104346410D01*
X103077685Y-104186450D01*
X103175232Y-104003954D01*
X103235300Y-103805934D01*
X103255583Y-103600000D01*
X103235300Y-103394066D01*
X103175232Y-103196046D01*
X103077685Y-103013550D01*
X102981253Y-102896046D01*
X102946410Y-102853589D01*
X102828677Y-102756969D01*
X102786450Y-102722315D01*
X102603954Y-102624768D01*
X102405934Y-102564700D01*
X102405932Y-102564699D01*
X102405934Y-102564699D01*
X102200000Y-102544417D01*
X101994067Y-102564699D01*
X101796043Y-102624769D01*
X101724742Y-102662881D01*
X101613550Y-102722315D01*
X101613548Y-102722316D01*
X101613547Y-102722317D01*
X101453589Y-102853589D01*
X101322317Y-103013547D01*
X101224769Y-103196043D01*
X101164699Y-103394067D01*
X101144417Y-103600000D01*
X100500500Y-103600000D01*
X100500500Y-101060000D01*
X101144417Y-101060000D01*
X101164699Y-101265932D01*
X101164700Y-101265934D01*
X101224768Y-101463954D01*
X101322315Y-101646450D01*
X101322317Y-101646452D01*
X101453589Y-101806410D01*
X101464767Y-101815583D01*
X101613550Y-101937685D01*
X101796046Y-102035232D01*
X101994066Y-102095300D01*
X101994065Y-102095300D01*
X102012529Y-102097118D01*
X102200000Y-102115583D01*
X102405934Y-102095300D01*
X102603954Y-102035232D01*
X102786450Y-101937685D01*
X102946410Y-101806410D01*
X103077685Y-101646450D01*
X103175232Y-101463954D01*
X103235300Y-101265934D01*
X103255583Y-101060000D01*
X103235300Y-100854066D01*
X103175232Y-100656046D01*
X103077685Y-100473550D01*
X102981253Y-100356046D01*
X102946410Y-100313589D01*
X102786452Y-100182317D01*
X102786453Y-100182317D01*
X102786450Y-100182315D01*
X102603954Y-100084768D01*
X102405934Y-100024700D01*
X102405932Y-100024699D01*
X102405934Y-100024699D01*
X102200000Y-100004417D01*
X101994067Y-100024699D01*
X101796043Y-100084769D01*
X101685898Y-100143643D01*
X101613550Y-100182315D01*
X101613548Y-100182316D01*
X101613547Y-100182317D01*
X101453589Y-100313589D01*
X101322317Y-100473547D01*
X101224769Y-100656043D01*
X101164699Y-100854067D01*
X101144417Y-101060000D01*
X100500500Y-101060000D01*
X100500500Y-97650247D01*
X101149500Y-97650247D01*
X101149500Y-99389752D01*
X101161131Y-99448229D01*
X101161132Y-99448230D01*
X101205447Y-99514552D01*
X101271769Y-99558867D01*
X101271770Y-99558868D01*
X101330247Y-99570499D01*
X101330250Y-99570500D01*
X101330252Y-99570500D01*
X103069750Y-99570500D01*
X103069751Y-99570499D01*
X103084568Y-99567552D01*
X103128229Y-99558868D01*
X103128229Y-99558867D01*
X103128231Y-99558867D01*
X103194552Y-99514552D01*
X103238867Y-99448231D01*
X103238867Y-99448229D01*
X103238868Y-99448229D01*
X103250499Y-99389752D01*
X103250500Y-99389750D01*
X103250500Y-97650249D01*
X103250499Y-97650247D01*
X103238868Y-97591770D01*
X103238867Y-97591769D01*
X103194552Y-97525447D01*
X103128230Y-97481132D01*
X103128229Y-97481131D01*
X103069752Y-97469500D01*
X103069748Y-97469500D01*
X101330252Y-97469500D01*
X101330247Y-97469500D01*
X101271770Y-97481131D01*
X101271769Y-97481132D01*
X101205447Y-97525447D01*
X101161132Y-97591769D01*
X101161131Y-97591770D01*
X101149500Y-97650247D01*
X100500500Y-97650247D01*
X100500500Y-90849994D01*
X100844859Y-90849994D01*
X100844859Y-90850005D01*
X100865385Y-91097729D01*
X100865387Y-91097738D01*
X100926412Y-91338717D01*
X101026266Y-91566364D01*
X101126564Y-91719882D01*
X101826212Y-91020234D01*
X101837482Y-91062292D01*
X101909890Y-91187708D01*
X102012292Y-91290110D01*
X102137708Y-91362518D01*
X102179765Y-91373787D01*
X101479942Y-92073609D01*
X101526768Y-92110055D01*
X101526770Y-92110056D01*
X101745385Y-92228364D01*
X101745396Y-92228369D01*
X101980506Y-92309083D01*
X102225707Y-92350000D01*
X102474293Y-92350000D01*
X102719493Y-92309083D01*
X102954603Y-92228369D01*
X102954614Y-92228364D01*
X103173228Y-92110057D01*
X103173231Y-92110055D01*
X103220056Y-92073609D01*
X102520234Y-91373787D01*
X102562292Y-91362518D01*
X102687708Y-91290110D01*
X102790110Y-91187708D01*
X102862518Y-91062292D01*
X102873787Y-91020234D01*
X103573434Y-91719882D01*
X103673731Y-91566369D01*
X103773587Y-91338717D01*
X103834612Y-91097738D01*
X103834614Y-91097729D01*
X103855141Y-90850005D01*
X103855141Y-90849999D01*
X105644357Y-90849999D01*
X105644357Y-90850000D01*
X105664884Y-91071535D01*
X105664885Y-91071537D01*
X105725769Y-91285523D01*
X105725775Y-91285538D01*
X105824938Y-91484683D01*
X105824943Y-91484691D01*
X105959020Y-91662238D01*
X106123437Y-91812123D01*
X106123439Y-91812125D01*
X106312595Y-91929245D01*
X106312596Y-91929245D01*
X106312599Y-91929247D01*
X106520060Y-92009618D01*
X106738757Y-92050500D01*
X106738759Y-92050500D01*
X106961241Y-92050500D01*
X106961243Y-92050500D01*
X107179940Y-92009618D01*
X107387401Y-91929247D01*
X107576562Y-91812124D01*
X107740981Y-91662236D01*
X107875058Y-91484689D01*
X107974229Y-91285528D01*
X108035115Y-91071536D01*
X108055643Y-90850000D01*
X108055642Y-90849994D01*
X108035115Y-90628464D01*
X108035114Y-90628462D01*
X108027659Y-90602261D01*
X107974229Y-90414472D01*
X107974224Y-90414461D01*
X107875061Y-90215316D01*
X107875056Y-90215308D01*
X107740979Y-90037761D01*
X107576562Y-89887876D01*
X107576560Y-89887874D01*
X107387404Y-89770754D01*
X107387398Y-89770752D01*
X107179940Y-89690382D01*
X106961243Y-89649500D01*
X106738757Y-89649500D01*
X106520060Y-89690382D01*
X106388864Y-89741207D01*
X106312601Y-89770752D01*
X106312595Y-89770754D01*
X106123439Y-89887874D01*
X106123437Y-89887876D01*
X105959020Y-90037761D01*
X105824943Y-90215308D01*
X105824938Y-90215316D01*
X105725775Y-90414461D01*
X105725769Y-90414476D01*
X105664885Y-90628462D01*
X105664884Y-90628464D01*
X105644357Y-90849999D01*
X103855141Y-90849999D01*
X103855141Y-90849994D01*
X103834614Y-90602270D01*
X103834612Y-90602261D01*
X103773587Y-90361282D01*
X103673731Y-90133630D01*
X103573434Y-89980116D01*
X102873787Y-90679764D01*
X102862518Y-90637708D01*
X102790110Y-90512292D01*
X102687708Y-90409890D01*
X102562292Y-90337482D01*
X102520235Y-90326212D01*
X103220057Y-89626390D01*
X103220056Y-89626389D01*
X103173229Y-89589943D01*
X102954614Y-89471635D01*
X102954603Y-89471630D01*
X102719493Y-89390916D01*
X102474293Y-89350000D01*
X102225707Y-89350000D01*
X101980506Y-89390916D01*
X101745396Y-89471630D01*
X101745390Y-89471632D01*
X101526761Y-89589949D01*
X101479942Y-89626388D01*
X101479942Y-89626390D01*
X102179765Y-90326212D01*
X102137708Y-90337482D01*
X102012292Y-90409890D01*
X101909890Y-90512292D01*
X101837482Y-90637708D01*
X101826212Y-90679764D01*
X101126564Y-89980116D01*
X101026267Y-90133632D01*
X100926412Y-90361282D01*
X100865387Y-90602261D01*
X100865385Y-90602270D01*
X100844859Y-90849994D01*
X100500500Y-90849994D01*
X100500500Y-84349994D01*
X100844859Y-84349994D01*
X100844859Y-84350005D01*
X100865385Y-84597729D01*
X100865387Y-84597738D01*
X100926412Y-84838717D01*
X101026266Y-85066364D01*
X101126564Y-85219882D01*
X101826212Y-84520234D01*
X101837482Y-84562292D01*
X101909890Y-84687708D01*
X102012292Y-84790110D01*
X102137708Y-84862518D01*
X102179765Y-84873787D01*
X101479942Y-85573609D01*
X101526768Y-85610055D01*
X101526770Y-85610056D01*
X101745385Y-85728364D01*
X101745396Y-85728369D01*
X101980506Y-85809083D01*
X102225707Y-85850000D01*
X102474293Y-85850000D01*
X102719493Y-85809083D01*
X102954603Y-85728369D01*
X102954614Y-85728364D01*
X103173228Y-85610057D01*
X103173231Y-85610055D01*
X103220056Y-85573609D01*
X102520234Y-84873787D01*
X102562292Y-84862518D01*
X102687708Y-84790110D01*
X102790110Y-84687708D01*
X102862518Y-84562292D01*
X102873787Y-84520234D01*
X103573434Y-85219882D01*
X103673731Y-85066369D01*
X103773587Y-84838717D01*
X103834612Y-84597738D01*
X103834614Y-84597729D01*
X103855141Y-84350005D01*
X103855141Y-84349999D01*
X105644357Y-84349999D01*
X105644357Y-84350000D01*
X105664884Y-84571535D01*
X105664885Y-84571537D01*
X105725769Y-84785523D01*
X105725775Y-84785538D01*
X105824938Y-84984683D01*
X105824943Y-84984691D01*
X105959020Y-85162238D01*
X106123437Y-85312123D01*
X106123439Y-85312125D01*
X106312595Y-85429245D01*
X106312596Y-85429245D01*
X106312599Y-85429247D01*
X106520060Y-85509618D01*
X106738757Y-85550500D01*
X106738759Y-85550500D01*
X106961241Y-85550500D01*
X106961243Y-85550500D01*
X107179940Y-85509618D01*
X107387401Y-85429247D01*
X107576562Y-85312124D01*
X107740981Y-85162236D01*
X107875058Y-84984689D01*
X107974229Y-84785528D01*
X108035115Y-84571536D01*
X108055643Y-84350000D01*
X108055642Y-84349994D01*
X108035115Y-84128464D01*
X108035114Y-84128462D01*
X108027659Y-84102261D01*
X107974229Y-83914472D01*
X107974224Y-83914461D01*
X107875061Y-83715316D01*
X107875056Y-83715308D01*
X107740979Y-83537761D01*
X107576562Y-83387876D01*
X107576560Y-83387874D01*
X107387404Y-83270754D01*
X107387398Y-83270752D01*
X107179940Y-83190382D01*
X106961243Y-83149500D01*
X106738757Y-83149500D01*
X106520060Y-83190382D01*
X106388864Y-83241207D01*
X106312601Y-83270752D01*
X106312595Y-83270754D01*
X106123439Y-83387874D01*
X106123437Y-83387876D01*
X105959020Y-83537761D01*
X105824943Y-83715308D01*
X105824938Y-83715316D01*
X105725775Y-83914461D01*
X105725769Y-83914476D01*
X105664885Y-84128462D01*
X105664884Y-84128464D01*
X105644357Y-84349999D01*
X103855141Y-84349999D01*
X103855141Y-84349994D01*
X103834614Y-84102270D01*
X103834612Y-84102261D01*
X103773587Y-83861282D01*
X103673731Y-83633630D01*
X103573434Y-83480116D01*
X102873787Y-84179764D01*
X102862518Y-84137708D01*
X102790110Y-84012292D01*
X102687708Y-83909890D01*
X102562292Y-83837482D01*
X102520235Y-83826212D01*
X103220057Y-83126390D01*
X103220056Y-83126389D01*
X103173229Y-83089943D01*
X102954614Y-82971635D01*
X102954603Y-82971630D01*
X102719493Y-82890916D01*
X102474293Y-82850000D01*
X102225707Y-82850000D01*
X101980506Y-82890916D01*
X101745396Y-82971630D01*
X101745390Y-82971632D01*
X101526761Y-83089949D01*
X101479942Y-83126388D01*
X101479942Y-83126390D01*
X102179765Y-83826212D01*
X102137708Y-83837482D01*
X102012292Y-83909890D01*
X101909890Y-84012292D01*
X101837482Y-84137708D01*
X101826212Y-84179764D01*
X101126564Y-83480116D01*
X101026267Y-83633632D01*
X100926412Y-83861282D01*
X100865387Y-84102261D01*
X100865385Y-84102270D01*
X100844859Y-84349994D01*
X100500500Y-84349994D01*
X100500500Y-81400000D01*
X111594353Y-81400000D01*
X111614834Y-81542456D01*
X111629909Y-81575464D01*
X111674623Y-81673373D01*
X111768872Y-81782143D01*
X111768874Y-81782144D01*
X111775574Y-81787950D01*
X111774442Y-81789255D01*
X111813291Y-81834082D01*
X111824500Y-81885601D01*
X111824500Y-113954801D01*
X111843222Y-114000000D01*
X111843223Y-114000000D01*
X111866443Y-114056058D01*
X111866444Y-114056059D01*
X117343938Y-119533555D01*
X117343939Y-119533555D01*
X117343941Y-119533557D01*
X117373595Y-119545839D01*
X117373597Y-119545841D01*
X117373598Y-119545841D01*
X117394570Y-119554527D01*
X117445200Y-119575500D01*
X117445203Y-119575500D01*
X126006156Y-119575500D01*
X126006157Y-119575500D01*
X126107415Y-119533557D01*
X126184914Y-119456058D01*
X126184913Y-119456058D01*
X126243482Y-119397489D01*
X126243481Y-119397489D01*
X130133557Y-115507416D01*
X130154901Y-115455886D01*
X130175500Y-115406157D01*
X130175500Y-108380000D01*
X143644417Y-108380000D01*
X143664699Y-108585932D01*
X143664700Y-108585934D01*
X143724768Y-108783954D01*
X143822315Y-108966450D01*
X143822317Y-108966452D01*
X143953589Y-109126410D01*
X144050209Y-109205702D01*
X144113550Y-109257685D01*
X144296046Y-109355232D01*
X144494066Y-109415300D01*
X144494065Y-109415300D01*
X144512529Y-109417118D01*
X144700000Y-109435583D01*
X144905934Y-109415300D01*
X145103954Y-109355232D01*
X145286450Y-109257685D01*
X145446410Y-109126410D01*
X145577685Y-108966450D01*
X145675232Y-108783954D01*
X145735300Y-108585934D01*
X145755583Y-108380000D01*
X145735300Y-108174066D01*
X145675232Y-107976046D01*
X145577685Y-107793550D01*
X145455528Y-107644700D01*
X145446410Y-107633589D01*
X145286452Y-107502317D01*
X145286453Y-107502317D01*
X145286450Y-107502315D01*
X145103954Y-107404768D01*
X144905934Y-107344700D01*
X144905932Y-107344699D01*
X144905934Y-107344699D01*
X144700000Y-107324417D01*
X144494067Y-107344699D01*
X144296043Y-107404769D01*
X144185898Y-107463643D01*
X144113550Y-107502315D01*
X144113548Y-107502316D01*
X144113547Y-107502317D01*
X143953589Y-107633589D01*
X143822317Y-107793547D01*
X143724769Y-107976043D01*
X143664699Y-108174067D01*
X143644417Y-108380000D01*
X130175500Y-108380000D01*
X130175500Y-107485601D01*
X130195185Y-107418562D01*
X130225063Y-107388685D01*
X130224426Y-107387950D01*
X130231120Y-107382147D01*
X130231128Y-107382143D01*
X130325377Y-107273373D01*
X130385165Y-107142457D01*
X130405647Y-107000000D01*
X130385165Y-106857543D01*
X130325377Y-106726627D01*
X130231128Y-106617857D01*
X130110053Y-106540047D01*
X130110051Y-106540046D01*
X130110049Y-106540045D01*
X130110050Y-106540045D01*
X129971963Y-106499500D01*
X129971961Y-106499500D01*
X129828039Y-106499500D01*
X129828036Y-106499500D01*
X129689949Y-106540045D01*
X129568873Y-106617856D01*
X129474623Y-106726626D01*
X129474622Y-106726628D01*
X129414834Y-106857543D01*
X129394353Y-107000000D01*
X129414834Y-107142456D01*
X129439097Y-107195583D01*
X129474623Y-107273373D01*
X129568872Y-107382143D01*
X129568874Y-107382144D01*
X129575574Y-107387950D01*
X129574442Y-107389255D01*
X129613291Y-107434082D01*
X129624500Y-107485601D01*
X129624500Y-115185879D01*
X129604815Y-115252918D01*
X129588181Y-115273560D01*
X125873561Y-118988181D01*
X125812238Y-119021666D01*
X125785880Y-119024500D01*
X125145454Y-119024500D01*
X125078415Y-119004815D01*
X125032660Y-118952011D01*
X125022716Y-118882853D01*
X125051741Y-118819297D01*
X125110519Y-118781523D01*
X125113359Y-118780726D01*
X125114540Y-118780409D01*
X125115989Y-118780021D01*
X125184511Y-118740460D01*
X125240460Y-118684511D01*
X126797073Y-117127896D01*
X126858394Y-117094413D01*
X126900936Y-117092640D01*
X127000000Y-117105682D01*
X127000001Y-117105682D01*
X127052254Y-117098802D01*
X127156762Y-117085044D01*
X127302841Y-117024536D01*
X127428282Y-116928282D01*
X127524536Y-116802841D01*
X127585044Y-116656762D01*
X127603587Y-116515911D01*
X127605682Y-116500001D01*
X127605682Y-116499998D01*
X127591923Y-116395492D01*
X127585044Y-116343238D01*
X127524536Y-116197159D01*
X127428282Y-116071718D01*
X127302841Y-115975464D01*
X127156762Y-115914956D01*
X127156760Y-115914955D01*
X127000001Y-115894318D01*
X126999999Y-115894318D01*
X126896103Y-115907996D01*
X126827068Y-115897230D01*
X126774812Y-115850850D01*
X126755927Y-115783581D01*
X126776408Y-115716781D01*
X126792232Y-115697381D01*
X126900767Y-115588846D01*
X126962088Y-115555363D01*
X127031780Y-115560347D01*
X127061140Y-115577768D01*
X127061411Y-115577348D01*
X127068871Y-115582142D01*
X127068872Y-115582143D01*
X127189947Y-115659953D01*
X127189950Y-115659954D01*
X127189949Y-115659954D01*
X127328036Y-115700499D01*
X127328038Y-115700500D01*
X127328039Y-115700500D01*
X127471962Y-115700500D01*
X127471962Y-115700499D01*
X127610053Y-115659953D01*
X127731128Y-115582143D01*
X127825377Y-115473373D01*
X127885165Y-115342457D01*
X127905647Y-115200000D01*
X127885165Y-115057543D01*
X127825377Y-114926627D01*
X127731128Y-114817857D01*
X127610053Y-114740047D01*
X127610051Y-114740046D01*
X127610049Y-114740045D01*
X127610050Y-114740045D01*
X127471963Y-114699500D01*
X127471961Y-114699500D01*
X127328039Y-114699500D01*
X127328036Y-114699500D01*
X127189949Y-114740045D01*
X127068873Y-114817856D01*
X127068872Y-114817856D01*
X127068872Y-114817857D01*
X127020768Y-114873373D01*
X127013550Y-114881703D01*
X126954772Y-114919477D01*
X126919837Y-114924500D01*
X126845199Y-114924500D01*
X126808542Y-114939684D01*
X126771884Y-114954869D01*
X126748150Y-114964700D01*
X126743940Y-114966444D01*
X124322204Y-117388181D01*
X124260881Y-117421666D01*
X124234523Y-117424500D01*
X123465478Y-117424500D01*
X123398439Y-117404815D01*
X123377797Y-117388181D01*
X123111819Y-117122203D01*
X123078334Y-117060880D01*
X123075500Y-117034522D01*
X123075500Y-116788404D01*
X123095185Y-116721365D01*
X123147989Y-116675610D01*
X123217147Y-116665666D01*
X123280703Y-116694691D01*
X123312294Y-116736892D01*
X123314834Y-116742455D01*
X123314835Y-116742457D01*
X123374623Y-116873373D01*
X123468872Y-116982143D01*
X123589947Y-117059953D01*
X123589950Y-117059954D01*
X123589949Y-117059954D01*
X123728036Y-117100499D01*
X123728038Y-117100500D01*
X123728039Y-117100500D01*
X123871962Y-117100500D01*
X123871962Y-117100499D01*
X124010053Y-117059953D01*
X124131128Y-116982143D01*
X124225377Y-116873373D01*
X124285165Y-116742457D01*
X124305647Y-116600000D01*
X124285165Y-116457543D01*
X124225377Y-116326627D01*
X124131128Y-116217857D01*
X124131125Y-116217855D01*
X124124423Y-116212047D01*
X124125552Y-116210743D01*
X124086701Y-116165898D01*
X124075500Y-116114397D01*
X124075500Y-112785601D01*
X124095185Y-112718562D01*
X124125063Y-112688685D01*
X124124426Y-112687950D01*
X124131120Y-112682147D01*
X124131128Y-112682143D01*
X124225377Y-112573373D01*
X124285165Y-112442457D01*
X124305647Y-112300000D01*
X124285165Y-112157543D01*
X124225377Y-112026627D01*
X124131128Y-111917857D01*
X124010053Y-111840047D01*
X124010051Y-111840046D01*
X124010049Y-111840045D01*
X124010050Y-111840045D01*
X123871963Y-111799500D01*
X123871961Y-111799500D01*
X123728039Y-111799500D01*
X123728036Y-111799500D01*
X123589949Y-111840045D01*
X123581882Y-111843730D01*
X123581128Y-111842081D01*
X123524498Y-111858708D01*
X123457459Y-111839022D01*
X123411705Y-111786218D01*
X123400500Y-111734708D01*
X123400500Y-106591660D01*
X125961892Y-106591660D01*
X125961892Y-106591661D01*
X125975692Y-106600333D01*
X125975691Y-106600333D01*
X126145861Y-106659878D01*
X126324997Y-106680062D01*
X126325003Y-106680062D01*
X126504138Y-106659878D01*
X126504141Y-106659877D01*
X126674305Y-106600334D01*
X126674306Y-106600334D01*
X126688106Y-106591661D01*
X126688106Y-106591660D01*
X127236892Y-106591660D01*
X127236892Y-106591661D01*
X127250692Y-106600333D01*
X127250691Y-106600333D01*
X127420861Y-106659878D01*
X127599997Y-106680062D01*
X127600003Y-106680062D01*
X127779138Y-106659878D01*
X127779141Y-106659877D01*
X127949305Y-106600334D01*
X127949306Y-106600334D01*
X127963106Y-106591661D01*
X127963106Y-106591660D01*
X128511892Y-106591660D01*
X128511892Y-106591661D01*
X128525692Y-106600333D01*
X128525691Y-106600333D01*
X128695861Y-106659878D01*
X128874997Y-106680062D01*
X128875003Y-106680062D01*
X129054138Y-106659878D01*
X129054141Y-106659877D01*
X129224305Y-106600334D01*
X129224306Y-106600334D01*
X129238106Y-106591661D01*
X129238106Y-106591660D01*
X128875001Y-106228553D01*
X128875000Y-106228553D01*
X128511892Y-106591660D01*
X127963106Y-106591660D01*
X127600001Y-106228553D01*
X127600000Y-106228553D01*
X127236892Y-106591660D01*
X126688106Y-106591660D01*
X126325001Y-106228553D01*
X126325000Y-106228553D01*
X125961892Y-106591660D01*
X123400500Y-106591660D01*
X123400500Y-105874997D01*
X125519938Y-105874997D01*
X125519938Y-105875002D01*
X125540121Y-106054138D01*
X125599665Y-106224304D01*
X125608338Y-106238107D01*
X125971446Y-105875000D01*
X125971446Y-105874999D01*
X125936637Y-105840190D01*
X126150000Y-105840190D01*
X126150000Y-105909810D01*
X126176643Y-105974129D01*
X126225871Y-106023357D01*
X126290190Y-106050000D01*
X126359810Y-106050000D01*
X126424129Y-106023357D01*
X126473357Y-105974129D01*
X126500000Y-105909810D01*
X126500000Y-105840190D01*
X126473357Y-105775871D01*
X126424129Y-105726643D01*
X126359810Y-105700000D01*
X126290190Y-105700000D01*
X126225871Y-105726643D01*
X126176643Y-105775871D01*
X126150000Y-105840190D01*
X125936637Y-105840190D01*
X125608338Y-105511891D01*
X125608337Y-105511891D01*
X125599667Y-105525691D01*
X125599662Y-105525701D01*
X125540122Y-105695858D01*
X125540121Y-105695861D01*
X125519938Y-105874997D01*
X123400500Y-105874997D01*
X123400500Y-105075832D01*
X123420185Y-105008793D01*
X123436814Y-104988156D01*
X123824973Y-104599997D01*
X125519938Y-104599997D01*
X125519938Y-104600002D01*
X125540121Y-104779138D01*
X125599665Y-104949304D01*
X125608338Y-104963107D01*
X125971446Y-104600000D01*
X125971446Y-104599999D01*
X125936637Y-104565190D01*
X126150000Y-104565190D01*
X126150000Y-104634810D01*
X126176643Y-104699129D01*
X126225871Y-104748357D01*
X126290190Y-104775000D01*
X126359810Y-104775000D01*
X126424129Y-104748357D01*
X126473357Y-104699129D01*
X126500000Y-104634810D01*
X126500000Y-104565190D01*
X126473357Y-104500871D01*
X126424129Y-104451643D01*
X126359810Y-104425000D01*
X126290190Y-104425000D01*
X126225871Y-104451643D01*
X126176643Y-104500871D01*
X126150000Y-104565190D01*
X125936637Y-104565190D01*
X125608338Y-104236891D01*
X125608337Y-104236891D01*
X125599667Y-104250691D01*
X125599662Y-104250701D01*
X125540122Y-104420858D01*
X125540121Y-104420861D01*
X125519938Y-104599997D01*
X123824973Y-104599997D01*
X124462470Y-103962500D01*
X126041053Y-103962500D01*
X126590872Y-104512319D01*
X126624357Y-104573642D01*
X126619373Y-104643334D01*
X126590872Y-104687681D01*
X126041053Y-105237500D01*
X126962499Y-106158946D01*
X127281256Y-105840190D01*
X127425000Y-105840190D01*
X127425000Y-105909810D01*
X127451643Y-105974129D01*
X127500871Y-106023357D01*
X127565190Y-106050000D01*
X127634810Y-106050000D01*
X127699129Y-106023357D01*
X127748357Y-105974129D01*
X127775000Y-105909810D01*
X127775000Y-105840190D01*
X127748357Y-105775871D01*
X127699129Y-105726643D01*
X127634810Y-105700000D01*
X127565190Y-105700000D01*
X127500871Y-105726643D01*
X127451643Y-105775871D01*
X127425000Y-105840190D01*
X127281256Y-105840190D01*
X127512319Y-105609127D01*
X127573642Y-105575642D01*
X127643334Y-105580626D01*
X127687681Y-105609127D01*
X128237500Y-106158946D01*
X128556257Y-105840190D01*
X128700000Y-105840190D01*
X128700000Y-105909810D01*
X128726643Y-105974129D01*
X128775871Y-106023357D01*
X128840190Y-106050000D01*
X128909810Y-106050000D01*
X128974129Y-106023357D01*
X129023357Y-105974129D01*
X129050000Y-105909810D01*
X129050000Y-105875000D01*
X129228553Y-105875000D01*
X129591660Y-106238106D01*
X129591661Y-106238106D01*
X129600334Y-106224306D01*
X129600334Y-106224305D01*
X129659877Y-106054141D01*
X129659878Y-106054138D01*
X129680062Y-105875002D01*
X129680062Y-105874997D01*
X129676119Y-105840000D01*
X143644417Y-105840000D01*
X143664699Y-106045932D01*
X143693234Y-106140000D01*
X143724768Y-106243954D01*
X143822315Y-106426450D01*
X143822317Y-106426452D01*
X143953589Y-106586410D01*
X144050209Y-106665702D01*
X144113550Y-106717685D01*
X144296046Y-106815232D01*
X144494066Y-106875300D01*
X144494065Y-106875300D01*
X144512529Y-106877118D01*
X144700000Y-106895583D01*
X144905934Y-106875300D01*
X145103954Y-106815232D01*
X145286450Y-106717685D01*
X145446410Y-106586410D01*
X145577685Y-106426450D01*
X145675232Y-106243954D01*
X145735300Y-106045934D01*
X145755583Y-105840000D01*
X145735300Y-105634066D01*
X145675232Y-105436046D01*
X145577685Y-105253550D01*
X145455528Y-105104700D01*
X145446410Y-105093589D01*
X145317931Y-104988151D01*
X145286450Y-104962315D01*
X145103954Y-104864768D01*
X144905934Y-104804700D01*
X144905932Y-104804699D01*
X144905934Y-104804699D01*
X144700000Y-104784417D01*
X144494067Y-104804699D01*
X144296043Y-104864769D01*
X144185898Y-104923643D01*
X144113550Y-104962315D01*
X144113548Y-104962316D01*
X144113547Y-104962317D01*
X143953589Y-105093589D01*
X143822317Y-105253547D01*
X143724769Y-105436043D01*
X143664699Y-105634067D01*
X143644417Y-105840000D01*
X129676119Y-105840000D01*
X129659878Y-105695861D01*
X129600333Y-105525692D01*
X129591661Y-105511892D01*
X129591660Y-105511892D01*
X129228553Y-105875000D01*
X129050000Y-105875000D01*
X129050000Y-105840190D01*
X129023357Y-105775871D01*
X128974129Y-105726643D01*
X128909810Y-105700000D01*
X128840190Y-105700000D01*
X128775871Y-105726643D01*
X128726643Y-105775871D01*
X128700000Y-105840190D01*
X128556257Y-105840190D01*
X128875000Y-105521447D01*
X129158946Y-105237500D01*
X128609127Y-104687681D01*
X128575642Y-104626358D01*
X128580016Y-104565190D01*
X128700000Y-104565190D01*
X128700000Y-104634810D01*
X128726643Y-104699129D01*
X128775871Y-104748357D01*
X128840190Y-104775000D01*
X128909810Y-104775000D01*
X128974129Y-104748357D01*
X129023357Y-104699129D01*
X129050000Y-104634810D01*
X129050000Y-104600000D01*
X129228553Y-104600000D01*
X129591660Y-104963106D01*
X129591661Y-104963106D01*
X129600334Y-104949306D01*
X129600334Y-104949305D01*
X129659877Y-104779141D01*
X129659878Y-104779138D01*
X129680062Y-104600002D01*
X129680062Y-104599997D01*
X129659878Y-104420861D01*
X129600333Y-104250692D01*
X129591661Y-104236892D01*
X129591660Y-104236892D01*
X129228553Y-104600000D01*
X129050000Y-104600000D01*
X129050000Y-104565190D01*
X129023357Y-104500871D01*
X128974129Y-104451643D01*
X128909810Y-104425000D01*
X128840190Y-104425000D01*
X128775871Y-104451643D01*
X128726643Y-104500871D01*
X128700000Y-104565190D01*
X128580016Y-104565190D01*
X128580626Y-104556666D01*
X128609127Y-104512319D01*
X128875000Y-104246447D01*
X129158946Y-103962500D01*
X129158946Y-103962499D01*
X128486637Y-103290190D01*
X128700000Y-103290190D01*
X128700000Y-103359810D01*
X128726643Y-103424129D01*
X128775871Y-103473357D01*
X128840190Y-103500000D01*
X128909810Y-103500000D01*
X128974129Y-103473357D01*
X129023357Y-103424129D01*
X129050000Y-103359810D01*
X129050000Y-103325000D01*
X129228553Y-103325000D01*
X129591660Y-103688106D01*
X129591661Y-103688106D01*
X129600334Y-103674306D01*
X129600334Y-103674305D01*
X129659877Y-103504141D01*
X129659878Y-103504138D01*
X129680062Y-103325002D01*
X129680062Y-103324997D01*
X129659878Y-103145861D01*
X129600333Y-102975692D01*
X129591661Y-102961892D01*
X129591660Y-102961892D01*
X129228553Y-103325000D01*
X129050000Y-103325000D01*
X129050000Y-103290190D01*
X129023357Y-103225871D01*
X128974129Y-103176643D01*
X128909810Y-103150000D01*
X128840190Y-103150000D01*
X128775871Y-103176643D01*
X128726643Y-103225871D01*
X128700000Y-103290190D01*
X128486637Y-103290190D01*
X128237500Y-103041053D01*
X127687681Y-103590872D01*
X127626358Y-103624357D01*
X127556666Y-103619373D01*
X127512319Y-103590872D01*
X127211637Y-103290190D01*
X127425000Y-103290190D01*
X127425000Y-103359810D01*
X127451643Y-103424129D01*
X127500871Y-103473357D01*
X127565190Y-103500000D01*
X127634810Y-103500000D01*
X127699129Y-103473357D01*
X127748357Y-103424129D01*
X127775000Y-103359810D01*
X127775000Y-103290190D01*
X127748357Y-103225871D01*
X127699129Y-103176643D01*
X127634810Y-103150000D01*
X127565190Y-103150000D01*
X127500871Y-103176643D01*
X127451643Y-103225871D01*
X127425000Y-103290190D01*
X127211637Y-103290190D01*
X126962500Y-103041053D01*
X126041053Y-103962500D01*
X124462470Y-103962500D01*
X125322688Y-103102281D01*
X125384010Y-103068798D01*
X125453702Y-103073782D01*
X125509635Y-103115654D01*
X125534052Y-103181118D01*
X125533588Y-103203847D01*
X125519938Y-103324996D01*
X125519938Y-103325002D01*
X125540121Y-103504138D01*
X125599665Y-103674304D01*
X125608338Y-103688107D01*
X126006256Y-103290190D01*
X126150000Y-103290190D01*
X126150000Y-103359810D01*
X126176643Y-103424129D01*
X126225871Y-103473357D01*
X126290190Y-103500000D01*
X126359810Y-103500000D01*
X126424129Y-103473357D01*
X126473357Y-103424129D01*
X126500000Y-103359810D01*
X126500000Y-103290190D01*
X126473357Y-103225871D01*
X126424129Y-103176643D01*
X126359810Y-103150000D01*
X126290190Y-103150000D01*
X126225871Y-103176643D01*
X126176643Y-103225871D01*
X126150000Y-103290190D01*
X126006256Y-103290190D01*
X126325000Y-102971447D01*
X126688106Y-102608338D01*
X126688104Y-102608337D01*
X127236891Y-102608337D01*
X127236891Y-102608338D01*
X127600000Y-102971446D01*
X127600001Y-102971446D01*
X127963107Y-102608338D01*
X127963105Y-102608337D01*
X128511891Y-102608337D01*
X128511891Y-102608338D01*
X128875000Y-102971446D01*
X128875001Y-102971446D01*
X129238107Y-102608338D01*
X129224304Y-102599665D01*
X129054138Y-102540121D01*
X128875003Y-102519938D01*
X128874997Y-102519938D01*
X128695861Y-102540121D01*
X128695858Y-102540122D01*
X128525701Y-102599662D01*
X128525691Y-102599667D01*
X128511891Y-102608337D01*
X127963105Y-102608337D01*
X127949304Y-102599665D01*
X127779138Y-102540121D01*
X127600003Y-102519938D01*
X127599997Y-102519938D01*
X127420861Y-102540121D01*
X127420858Y-102540122D01*
X127250701Y-102599662D01*
X127250691Y-102599667D01*
X127236891Y-102608337D01*
X126688104Y-102608337D01*
X126674304Y-102599665D01*
X126504138Y-102540121D01*
X126325003Y-102519938D01*
X126324996Y-102519938D01*
X126203847Y-102533588D01*
X126135025Y-102521533D01*
X126083646Y-102474184D01*
X126066022Y-102406574D01*
X126087749Y-102340168D01*
X126102278Y-102322691D01*
X139297073Y-89127896D01*
X139358394Y-89094413D01*
X139400936Y-89092640D01*
X139500000Y-89105682D01*
X139500001Y-89105682D01*
X139552254Y-89098802D01*
X139656762Y-89085044D01*
X139656765Y-89085042D01*
X139664613Y-89082940D01*
X139665077Y-89084675D01*
X139724516Y-89078285D01*
X139786995Y-89109559D01*
X139822648Y-89169648D01*
X139826500Y-89200315D01*
X139826500Y-102856800D01*
X139855338Y-102926420D01*
X139868443Y-102958058D01*
X139868444Y-102958059D01*
X141365048Y-104454663D01*
X141398533Y-104515986D01*
X141400105Y-104559989D01*
X141394353Y-104599998D01*
X141394353Y-104599999D01*
X141414834Y-104742456D01*
X141468716Y-104860438D01*
X141474623Y-104873373D01*
X141568872Y-104982143D01*
X141689947Y-105059953D01*
X141689950Y-105059954D01*
X141689949Y-105059954D01*
X141797107Y-105091417D01*
X141804505Y-105093590D01*
X141828036Y-105100499D01*
X141828038Y-105100500D01*
X141828039Y-105100500D01*
X141971962Y-105100500D01*
X141971962Y-105100499D01*
X142110053Y-105059953D01*
X142231128Y-104982143D01*
X142325377Y-104873373D01*
X142385165Y-104742457D01*
X142405647Y-104600000D01*
X142385165Y-104457543D01*
X142325377Y-104326627D01*
X142231128Y-104217857D01*
X142110053Y-104140047D01*
X142110051Y-104140046D01*
X142110049Y-104140045D01*
X142110050Y-104140045D01*
X141971963Y-104099500D01*
X141971961Y-104099500D01*
X141840477Y-104099500D01*
X141773438Y-104079815D01*
X141752796Y-104063181D01*
X140989615Y-103300000D01*
X143644417Y-103300000D01*
X143664699Y-103505932D01*
X143664700Y-103505934D01*
X143724768Y-103703954D01*
X143822315Y-103886450D01*
X143822317Y-103886452D01*
X143953589Y-104046410D01*
X144029045Y-104108334D01*
X144113550Y-104177685D01*
X144296046Y-104275232D01*
X144494066Y-104335300D01*
X144494065Y-104335300D01*
X144512529Y-104337118D01*
X144700000Y-104355583D01*
X144905934Y-104335300D01*
X145103954Y-104275232D01*
X145286450Y-104177685D01*
X145446410Y-104046410D01*
X145577685Y-103886450D01*
X145675232Y-103703954D01*
X145735300Y-103505934D01*
X145755583Y-103300000D01*
X145735300Y-103094066D01*
X145675232Y-102896046D01*
X145577685Y-102713550D01*
X145504824Y-102624768D01*
X145446410Y-102553589D01*
X145286452Y-102422317D01*
X145286453Y-102422317D01*
X145286450Y-102422315D01*
X145103954Y-102324768D01*
X144905934Y-102264700D01*
X144905932Y-102264699D01*
X144905934Y-102264699D01*
X144700000Y-102244417D01*
X144494067Y-102264699D01*
X144296043Y-102324769D01*
X144185898Y-102383643D01*
X144113550Y-102422315D01*
X144113548Y-102422316D01*
X144113547Y-102422317D01*
X143953589Y-102553589D01*
X143822317Y-102713547D01*
X143822315Y-102713550D01*
X143783643Y-102785898D01*
X143724769Y-102896043D01*
X143664699Y-103094067D01*
X143644417Y-103300000D01*
X140989615Y-103300000D01*
X140413819Y-102724204D01*
X140380334Y-102662881D01*
X140377500Y-102636523D01*
X140377500Y-100760000D01*
X143644417Y-100760000D01*
X143664699Y-100965932D01*
X143664700Y-100965934D01*
X143724768Y-101163954D01*
X143822315Y-101346450D01*
X143822317Y-101346452D01*
X143953589Y-101506410D01*
X144050209Y-101585702D01*
X144113550Y-101637685D01*
X144296046Y-101735232D01*
X144494066Y-101795300D01*
X144494065Y-101795300D01*
X144512529Y-101797118D01*
X144700000Y-101815583D01*
X144905934Y-101795300D01*
X145103954Y-101735232D01*
X145286450Y-101637685D01*
X145446410Y-101506410D01*
X145577685Y-101346450D01*
X145675232Y-101163954D01*
X145735300Y-100965934D01*
X145755583Y-100760000D01*
X145735300Y-100554066D01*
X145675232Y-100356046D01*
X145577685Y-100173550D01*
X145455528Y-100024700D01*
X145446410Y-100013589D01*
X145286452Y-99882317D01*
X145286453Y-99882317D01*
X145286450Y-99882315D01*
X145103954Y-99784768D01*
X144905934Y-99724700D01*
X144905932Y-99724699D01*
X144905934Y-99724699D01*
X144700000Y-99704417D01*
X144494067Y-99724699D01*
X144296043Y-99784769D01*
X144185898Y-99843643D01*
X144113550Y-99882315D01*
X144113548Y-99882316D01*
X144113547Y-99882317D01*
X143953589Y-100013589D01*
X143822317Y-100173547D01*
X143724769Y-100356043D01*
X143664699Y-100554067D01*
X143644417Y-100760000D01*
X140377500Y-100760000D01*
X140377500Y-97350247D01*
X143649500Y-97350247D01*
X143649500Y-99089752D01*
X143661131Y-99148229D01*
X143661132Y-99148230D01*
X143705447Y-99214552D01*
X143771769Y-99258867D01*
X143771770Y-99258868D01*
X143830247Y-99270499D01*
X143830250Y-99270500D01*
X143830252Y-99270500D01*
X145569750Y-99270500D01*
X145569751Y-99270499D01*
X145584568Y-99267552D01*
X145628229Y-99258868D01*
X145628229Y-99258867D01*
X145628231Y-99258867D01*
X145694552Y-99214552D01*
X145738867Y-99148231D01*
X145738867Y-99148229D01*
X145738868Y-99148229D01*
X145750499Y-99089752D01*
X145750500Y-99089750D01*
X145750500Y-97350249D01*
X145750499Y-97350247D01*
X145738868Y-97291770D01*
X145738867Y-97291769D01*
X145694552Y-97225447D01*
X145628230Y-97181132D01*
X145628229Y-97181131D01*
X145569752Y-97169500D01*
X145569748Y-97169500D01*
X143830252Y-97169500D01*
X143830247Y-97169500D01*
X143771770Y-97181131D01*
X143771769Y-97181132D01*
X143705447Y-97225447D01*
X143661132Y-97291769D01*
X143661131Y-97291770D01*
X143649500Y-97350247D01*
X140377500Y-97350247D01*
X140377500Y-95455336D01*
X140397185Y-95388297D01*
X140449989Y-95342542D01*
X140519147Y-95332598D01*
X140582703Y-95361623D01*
X140600766Y-95381025D01*
X140642809Y-95437187D01*
X140642812Y-95437190D01*
X140757906Y-95523350D01*
X140757913Y-95523354D01*
X140892620Y-95573596D01*
X140892627Y-95573598D01*
X140952155Y-95579999D01*
X140952172Y-95580000D01*
X142250000Y-95580000D01*
X142250000Y-94299064D01*
X142278316Y-94310793D01*
X142425147Y-94340000D01*
X142574853Y-94340000D01*
X142721684Y-94310793D01*
X142750000Y-94299064D01*
X142750000Y-95580000D01*
X144047828Y-95580000D01*
X144047844Y-95579999D01*
X144107372Y-95573598D01*
X144107379Y-95573596D01*
X144242086Y-95523354D01*
X144242093Y-95523350D01*
X144357187Y-95437190D01*
X144357190Y-95437187D01*
X144443350Y-95322093D01*
X144443354Y-95322086D01*
X144493596Y-95187379D01*
X144493598Y-95187372D01*
X144499999Y-95127844D01*
X144500000Y-95127827D01*
X144500000Y-93830000D01*
X143219064Y-93830000D01*
X143230793Y-93801684D01*
X143260000Y-93654853D01*
X143260000Y-93505147D01*
X143230793Y-93358316D01*
X143219064Y-93330000D01*
X144500000Y-93330000D01*
X144500000Y-92032172D01*
X144499999Y-92032155D01*
X144493598Y-91972627D01*
X144493596Y-91972620D01*
X144443354Y-91837913D01*
X144443350Y-91837906D01*
X144357190Y-91722812D01*
X144357187Y-91722809D01*
X144242093Y-91636649D01*
X144242086Y-91636645D01*
X144107379Y-91586403D01*
X144107372Y-91586401D01*
X144047844Y-91580000D01*
X142750000Y-91580000D01*
X142750000Y-92860935D01*
X142721684Y-92849207D01*
X142574853Y-92820000D01*
X142425147Y-92820000D01*
X142278316Y-92849207D01*
X142250000Y-92860935D01*
X142250000Y-91580000D01*
X140952155Y-91580000D01*
X140892627Y-91586401D01*
X140892620Y-91586403D01*
X140757913Y-91636645D01*
X140757906Y-91636649D01*
X140642812Y-91722809D01*
X140600766Y-91778975D01*
X140544832Y-91820845D01*
X140475140Y-91825829D01*
X140413817Y-91792343D01*
X140380333Y-91731019D01*
X140377500Y-91704663D01*
X140377500Y-88499995D01*
X140794732Y-88499995D01*
X140794732Y-88500004D01*
X140813777Y-88754154D01*
X140813778Y-88754157D01*
X140870492Y-89002637D01*
X140963607Y-89239888D01*
X141091041Y-89460612D01*
X141249950Y-89659877D01*
X141436783Y-89833232D01*
X141647366Y-89976805D01*
X141647371Y-89976807D01*
X141647372Y-89976808D01*
X141647373Y-89976809D01*
X141745110Y-90023876D01*
X141876992Y-90087387D01*
X141876993Y-90087387D01*
X141876996Y-90087389D01*
X142120542Y-90162513D01*
X142372565Y-90200500D01*
X142627435Y-90200500D01*
X142879458Y-90162513D01*
X143123004Y-90087389D01*
X143352634Y-89976805D01*
X143563217Y-89833232D01*
X143750050Y-89659877D01*
X143908959Y-89460612D01*
X144036393Y-89239888D01*
X144129508Y-89002637D01*
X144186222Y-88754157D01*
X144205268Y-88500000D01*
X144186222Y-88245843D01*
X144129508Y-87997363D01*
X144036393Y-87760112D01*
X143908959Y-87539388D01*
X143750050Y-87340123D01*
X143563217Y-87166768D01*
X143352634Y-87023195D01*
X143352630Y-87023193D01*
X143352627Y-87023191D01*
X143352626Y-87023190D01*
X143123006Y-86912612D01*
X143123008Y-86912612D01*
X142879466Y-86837489D01*
X142879462Y-86837488D01*
X142879458Y-86837487D01*
X142758231Y-86819214D01*
X142627440Y-86799500D01*
X142627435Y-86799500D01*
X142372565Y-86799500D01*
X142372559Y-86799500D01*
X142215609Y-86823157D01*
X142120542Y-86837487D01*
X142120539Y-86837488D01*
X142120533Y-86837489D01*
X141876992Y-86912612D01*
X141647373Y-87023190D01*
X141647372Y-87023191D01*
X141436782Y-87166768D01*
X141249952Y-87340121D01*
X141249950Y-87340123D01*
X141091041Y-87539388D01*
X140963608Y-87760109D01*
X140870492Y-87997362D01*
X140870490Y-87997369D01*
X140813777Y-88245845D01*
X140794732Y-88499995D01*
X140377500Y-88499995D01*
X140377500Y-88195844D01*
X140377499Y-88195840D01*
X140367625Y-88172002D01*
X140367615Y-88171981D01*
X140367603Y-88171950D01*
X140335558Y-88094585D01*
X139707415Y-87466443D01*
X139606157Y-87424500D01*
X123665477Y-87424500D01*
X123598438Y-87404815D01*
X123577796Y-87388181D01*
X121289613Y-85099998D01*
X123094318Y-85099998D01*
X123094318Y-85100001D01*
X123114955Y-85256760D01*
X123114956Y-85256762D01*
X123175464Y-85402841D01*
X123271718Y-85528282D01*
X123397159Y-85624536D01*
X123543238Y-85685044D01*
X123621619Y-85695363D01*
X123699999Y-85705682D01*
X123700000Y-85705682D01*
X123700001Y-85705682D01*
X123764754Y-85697157D01*
X123856762Y-85685044D01*
X124002841Y-85624536D01*
X124128282Y-85528282D01*
X124224536Y-85402841D01*
X124285044Y-85256762D01*
X124295424Y-85177914D01*
X124323688Y-85114020D01*
X124330669Y-85106432D01*
X126017106Y-83419995D01*
X140794732Y-83419995D01*
X140794732Y-83420004D01*
X140813777Y-83674154D01*
X140868625Y-83914461D01*
X140870492Y-83922637D01*
X140963607Y-84159888D01*
X141091041Y-84380612D01*
X141249950Y-84579877D01*
X141436783Y-84753232D01*
X141647366Y-84896805D01*
X141647371Y-84896807D01*
X141647372Y-84896808D01*
X141647373Y-84896809D01*
X141743783Y-84943237D01*
X141876992Y-85007387D01*
X141876993Y-85007387D01*
X141876996Y-85007389D01*
X142120542Y-85082513D01*
X142372565Y-85120500D01*
X142627435Y-85120500D01*
X142879458Y-85082513D01*
X143123004Y-85007389D01*
X143352634Y-84896805D01*
X143563217Y-84753232D01*
X143750050Y-84579877D01*
X143908959Y-84380612D01*
X144036393Y-84159888D01*
X144129508Y-83922637D01*
X144186222Y-83674157D01*
X144205268Y-83420000D01*
X144186222Y-83165843D01*
X144129508Y-82917363D01*
X144036393Y-82680112D01*
X143908959Y-82459388D01*
X143750050Y-82260123D01*
X143563217Y-82086768D01*
X143352634Y-81943195D01*
X143352630Y-81943193D01*
X143352627Y-81943191D01*
X143352626Y-81943190D01*
X143123006Y-81832612D01*
X143123008Y-81832612D01*
X142879466Y-81757489D01*
X142879462Y-81757488D01*
X142879458Y-81757487D01*
X142758231Y-81739214D01*
X142627440Y-81719500D01*
X142627435Y-81719500D01*
X142372565Y-81719500D01*
X142372559Y-81719500D01*
X142215609Y-81743157D01*
X142120542Y-81757487D01*
X142120539Y-81757488D01*
X142120533Y-81757489D01*
X141876992Y-81832612D01*
X141647373Y-81943190D01*
X141647372Y-81943191D01*
X141647366Y-81943194D01*
X141647366Y-81943195D01*
X141622639Y-81960053D01*
X141436782Y-82086768D01*
X141249952Y-82260121D01*
X141249950Y-82260123D01*
X141091041Y-82459388D01*
X140963608Y-82680109D01*
X140870492Y-82917362D01*
X140870490Y-82917369D01*
X140813777Y-83165845D01*
X140794732Y-83419995D01*
X126017106Y-83419995D01*
X131410284Y-78026819D01*
X131471607Y-77993334D01*
X131497965Y-77990500D01*
X140675500Y-77990500D01*
X140742539Y-78010185D01*
X140788294Y-78062989D01*
X140799500Y-78114500D01*
X140799500Y-79059752D01*
X140811131Y-79118229D01*
X140811132Y-79118230D01*
X140855447Y-79184552D01*
X140921769Y-79228867D01*
X140921770Y-79228868D01*
X140980247Y-79240499D01*
X140980250Y-79240500D01*
X140980252Y-79240500D01*
X144019750Y-79240500D01*
X144019751Y-79240499D01*
X144034568Y-79237552D01*
X144078229Y-79228868D01*
X144078229Y-79228867D01*
X144078231Y-79228867D01*
X144144552Y-79184552D01*
X144188867Y-79118231D01*
X144188867Y-79118229D01*
X144188868Y-79118229D01*
X144200499Y-79059752D01*
X144200500Y-79059750D01*
X144200500Y-76020249D01*
X144200499Y-76020247D01*
X144188868Y-75961770D01*
X144188867Y-75961769D01*
X144144552Y-75895447D01*
X144078230Y-75851132D01*
X144078229Y-75851131D01*
X144019752Y-75839500D01*
X144019748Y-75839500D01*
X140980252Y-75839500D01*
X140980247Y-75839500D01*
X140921770Y-75851131D01*
X140921769Y-75851132D01*
X140855447Y-75895447D01*
X140811132Y-75961769D01*
X140811131Y-75961770D01*
X140799500Y-76020247D01*
X140799500Y-76965500D01*
X140779815Y-77032539D01*
X140727011Y-77078294D01*
X140675500Y-77089500D01*
X131200691Y-77089500D01*
X131131944Y-77107920D01*
X131086112Y-77120201D01*
X131086107Y-77120204D01*
X130983393Y-77179505D01*
X130983385Y-77179511D01*
X123693578Y-84469317D01*
X123632255Y-84502802D01*
X123622084Y-84504575D01*
X123543238Y-84514956D01*
X123397160Y-84575463D01*
X123271718Y-84671718D01*
X123175463Y-84797160D01*
X123114956Y-84943237D01*
X123114955Y-84943239D01*
X123094318Y-85099998D01*
X121289613Y-85099998D01*
X119911819Y-83722204D01*
X119878334Y-83660881D01*
X119875500Y-83634523D01*
X119875500Y-80399998D01*
X122994318Y-80399998D01*
X122994318Y-80400001D01*
X123014955Y-80556760D01*
X123014956Y-80556762D01*
X123053576Y-80650000D01*
X123075464Y-80702841D01*
X123171718Y-80828282D01*
X123297159Y-80924536D01*
X123443238Y-80985044D01*
X123521619Y-80995363D01*
X123599999Y-81005682D01*
X123600000Y-81005682D01*
X123600001Y-81005682D01*
X123652254Y-80998802D01*
X123756762Y-80985044D01*
X123902841Y-80924536D01*
X124028282Y-80828282D01*
X124124536Y-80702841D01*
X124185044Y-80556762D01*
X124195424Y-80477914D01*
X124223688Y-80414020D01*
X124230669Y-80406432D01*
X126906423Y-77730679D01*
X126967744Y-77697196D01*
X126977898Y-77695426D01*
X127056762Y-77685044D01*
X127202841Y-77624536D01*
X127328282Y-77528282D01*
X127424536Y-77402841D01*
X127485044Y-77256762D01*
X127505682Y-77100000D01*
X127504836Y-77093577D01*
X127485044Y-76943239D01*
X127485044Y-76943238D01*
X127424536Y-76797159D01*
X127328282Y-76671718D01*
X127202841Y-76575464D01*
X127056762Y-76514956D01*
X127056760Y-76514955D01*
X126900001Y-76494318D01*
X126899999Y-76494318D01*
X126743239Y-76514955D01*
X126743237Y-76514956D01*
X126597160Y-76575463D01*
X126471718Y-76671718D01*
X126375463Y-76797160D01*
X126314956Y-76943238D01*
X126304575Y-77022083D01*
X126276308Y-77085979D01*
X126269317Y-77093577D01*
X123593578Y-79769317D01*
X123532255Y-79802802D01*
X123522084Y-79804575D01*
X123443238Y-79814956D01*
X123297160Y-79875463D01*
X123171718Y-79971718D01*
X123075463Y-80097160D01*
X123014956Y-80243237D01*
X123014955Y-80243239D01*
X122994318Y-80399998D01*
X119875500Y-80399998D01*
X119875500Y-73745201D01*
X119875500Y-73745200D01*
X119833557Y-73643942D01*
X119833557Y-73643941D01*
X118649614Y-72459998D01*
X140494891Y-72459998D01*
X140494891Y-72460001D01*
X140515300Y-72745362D01*
X140576109Y-73024895D01*
X140676091Y-73292958D01*
X140813191Y-73544038D01*
X140813196Y-73544046D01*
X140919882Y-73686561D01*
X140919883Y-73686562D01*
X141814767Y-72791677D01*
X141826497Y-72819995D01*
X141909670Y-72944472D01*
X142015528Y-73050330D01*
X142140005Y-73133503D01*
X142168320Y-73145231D01*
X141273436Y-74040115D01*
X141415960Y-74146807D01*
X141415961Y-74146808D01*
X141667042Y-74283908D01*
X141667041Y-74283908D01*
X141935104Y-74383890D01*
X142214637Y-74444699D01*
X142499999Y-74465109D01*
X142500001Y-74465109D01*
X142785362Y-74444699D01*
X143064895Y-74383890D01*
X143332958Y-74283908D01*
X143584047Y-74146803D01*
X143726561Y-74040116D01*
X143726562Y-74040115D01*
X142831679Y-73145231D01*
X142859995Y-73133503D01*
X142984472Y-73050330D01*
X143090330Y-72944472D01*
X143173503Y-72819995D01*
X143185231Y-72791678D01*
X144080115Y-73686562D01*
X144080116Y-73686561D01*
X144186803Y-73544047D01*
X144323908Y-73292958D01*
X144423890Y-73024895D01*
X144484699Y-72745362D01*
X144505109Y-72460001D01*
X144505109Y-72459998D01*
X144484699Y-72174637D01*
X144423890Y-71895104D01*
X144323908Y-71627041D01*
X144186808Y-71375961D01*
X144186807Y-71375960D01*
X144080115Y-71233436D01*
X143185231Y-72128320D01*
X143173503Y-72100005D01*
X143090330Y-71975528D01*
X142984472Y-71869670D01*
X142859995Y-71786497D01*
X142831678Y-71774767D01*
X143726562Y-70879883D01*
X143726561Y-70879882D01*
X143584046Y-70773196D01*
X143584038Y-70773191D01*
X143332957Y-70636091D01*
X143332958Y-70636091D01*
X143064895Y-70536109D01*
X142785362Y-70475300D01*
X142500001Y-70454891D01*
X142499999Y-70454891D01*
X142214637Y-70475300D01*
X141935104Y-70536109D01*
X141667041Y-70636091D01*
X141415961Y-70773191D01*
X141415953Y-70773196D01*
X141273437Y-70879882D01*
X141273436Y-70879883D01*
X142168321Y-71774767D01*
X142140005Y-71786497D01*
X142015528Y-71869670D01*
X141909670Y-71975528D01*
X141826497Y-72100005D01*
X141814768Y-72128321D01*
X140919883Y-71233436D01*
X140919882Y-71233437D01*
X140813196Y-71375953D01*
X140813191Y-71375961D01*
X140676091Y-71627041D01*
X140576109Y-71895104D01*
X140515300Y-72174637D01*
X140494891Y-72459998D01*
X118649614Y-72459998D01*
X116134950Y-69945335D01*
X116101466Y-69884013D01*
X116099894Y-69840011D01*
X116105647Y-69800000D01*
X116085165Y-69657543D01*
X116025377Y-69526627D01*
X115931128Y-69417857D01*
X115810053Y-69340047D01*
X115810051Y-69340046D01*
X115810049Y-69340045D01*
X115810050Y-69340045D01*
X115671963Y-69299500D01*
X115671961Y-69299500D01*
X115528039Y-69299500D01*
X115528036Y-69299500D01*
X115389949Y-69340045D01*
X115268873Y-69417856D01*
X115174623Y-69526626D01*
X115174622Y-69526628D01*
X115114834Y-69657543D01*
X115094353Y-69800000D01*
X115114834Y-69942456D01*
X115174622Y-70073371D01*
X115174623Y-70073373D01*
X115268872Y-70182143D01*
X115389947Y-70259953D01*
X115389950Y-70259954D01*
X115389949Y-70259954D01*
X115528036Y-70300499D01*
X115528038Y-70300500D01*
X115659523Y-70300500D01*
X115726562Y-70320185D01*
X115747204Y-70336819D01*
X119288181Y-73877796D01*
X119321666Y-73939119D01*
X119324500Y-73965477D01*
X119324500Y-83854800D01*
X119366443Y-83956058D01*
X123266443Y-87856058D01*
X123343942Y-87933557D01*
X123445200Y-87975500D01*
X138894102Y-87975500D01*
X138961141Y-87995185D01*
X139006896Y-88047989D01*
X139016840Y-88117147D01*
X138992477Y-88174987D01*
X138975464Y-88197157D01*
X138914956Y-88343237D01*
X138914955Y-88343239D01*
X138894318Y-88499998D01*
X138894318Y-88500001D01*
X138907359Y-88599060D01*
X138896593Y-88668095D01*
X138872101Y-88702926D01*
X122915489Y-104659540D01*
X122859541Y-104715487D01*
X122859535Y-104715495D01*
X122819982Y-104784004D01*
X122819979Y-104784009D01*
X122799500Y-104860439D01*
X122799500Y-113412518D01*
X122779815Y-113479557D01*
X122750986Y-113510894D01*
X122671719Y-113571716D01*
X122575463Y-113697160D01*
X122514956Y-113843237D01*
X122514955Y-113843239D01*
X122494318Y-113999998D01*
X122494318Y-114000000D01*
X122514955Y-114156760D01*
X122514956Y-114156762D01*
X122530537Y-114194377D01*
X122538006Y-114263847D01*
X122527013Y-114285808D01*
X122532326Y-114285808D01*
X122591104Y-114323583D01*
X122595764Y-114329296D01*
X122671718Y-114428282D01*
X122797159Y-114524536D01*
X122943238Y-114585044D01*
X123021619Y-114595363D01*
X123099999Y-114605682D01*
X123100000Y-114605682D01*
X123100001Y-114605682D01*
X123152254Y-114598802D01*
X123256762Y-114585044D01*
X123353048Y-114545160D01*
X123422516Y-114537692D01*
X123484996Y-114568967D01*
X123520648Y-114629056D01*
X123524500Y-114659722D01*
X123524500Y-116114397D01*
X123504815Y-116181436D01*
X123474941Y-116211313D01*
X123475577Y-116212047D01*
X123468874Y-116217855D01*
X123374623Y-116326626D01*
X123374622Y-116326628D01*
X123312294Y-116463107D01*
X123266539Y-116515911D01*
X123199500Y-116535595D01*
X123132460Y-116515910D01*
X123086705Y-116463106D01*
X123075500Y-116411595D01*
X123075500Y-115445201D01*
X123075500Y-115445200D01*
X123033557Y-115343942D01*
X123033557Y-115343941D01*
X122434950Y-114745335D01*
X122401466Y-114684013D01*
X122399894Y-114640011D01*
X122405647Y-114600000D01*
X122385165Y-114457543D01*
X122384594Y-114456294D01*
X122384399Y-114454936D01*
X122382667Y-114449036D01*
X122383515Y-114448786D01*
X122374652Y-114387137D01*
X122387113Y-114359851D01*
X122376817Y-114359484D01*
X122322263Y-114323033D01*
X122270978Y-114263847D01*
X122231128Y-114217857D01*
X122110053Y-114140047D01*
X122110051Y-114140046D01*
X122110049Y-114140045D01*
X122110050Y-114140045D01*
X121971963Y-114099500D01*
X121971961Y-114099500D01*
X121828039Y-114099500D01*
X121828036Y-114099500D01*
X121689949Y-114140045D01*
X121568873Y-114217856D01*
X121474623Y-114326626D01*
X121474622Y-114326628D01*
X121414834Y-114457543D01*
X121394353Y-114600000D01*
X121414834Y-114742456D01*
X121448230Y-114815582D01*
X121474623Y-114873373D01*
X121568872Y-114982143D01*
X121689947Y-115059953D01*
X121689950Y-115059954D01*
X121689949Y-115059954D01*
X121828036Y-115100499D01*
X121828038Y-115100500D01*
X121959522Y-115100500D01*
X122026561Y-115120185D01*
X122047203Y-115136819D01*
X122488181Y-115577796D01*
X122521666Y-115639119D01*
X122524500Y-115665477D01*
X122524500Y-117254800D01*
X122566246Y-117355583D01*
X122566443Y-117356058D01*
X122566444Y-117356059D01*
X123143942Y-117933558D01*
X123143944Y-117933560D01*
X123210045Y-117960939D01*
X123264449Y-118004779D01*
X123286514Y-118071073D01*
X123269235Y-118138773D01*
X123218098Y-118186383D01*
X123162593Y-118199500D01*
X119720812Y-118199500D01*
X119653773Y-118179815D01*
X119608018Y-118127011D01*
X119597873Y-118059314D01*
X119598066Y-118057853D01*
X119605682Y-118000000D01*
X119599566Y-117953547D01*
X119585044Y-117843239D01*
X119585044Y-117843238D01*
X119524536Y-117697159D01*
X119428282Y-117571718D01*
X119302841Y-117475464D01*
X119156762Y-117414956D01*
X119156760Y-117414955D01*
X119000001Y-117394318D01*
X118999999Y-117394318D01*
X118843239Y-117414955D01*
X118843237Y-117414956D01*
X118697160Y-117475463D01*
X118571718Y-117571718D01*
X118475463Y-117697160D01*
X118414956Y-117843237D01*
X118414955Y-117843239D01*
X118394318Y-117999998D01*
X118394318Y-118000001D01*
X118414955Y-118156760D01*
X118414956Y-118156762D01*
X118475464Y-118302841D01*
X118571718Y-118428282D01*
X118697159Y-118524536D01*
X118843238Y-118585044D01*
X118900936Y-118592640D01*
X118999999Y-118605682D01*
X119000000Y-118605682D01*
X119099061Y-118592640D01*
X119168096Y-118603405D01*
X119202927Y-118627898D01*
X119315489Y-118740460D01*
X119384012Y-118780022D01*
X119386638Y-118780725D01*
X119388603Y-118781923D01*
X119391516Y-118783130D01*
X119391327Y-118783584D01*
X119446298Y-118817090D01*
X119476827Y-118879937D01*
X119468532Y-118949312D01*
X119424047Y-119003190D01*
X119357495Y-119024465D01*
X119354544Y-119024500D01*
X117665478Y-119024500D01*
X117598439Y-119004815D01*
X117577797Y-118988181D01*
X112411819Y-113822203D01*
X112378334Y-113760880D01*
X112375500Y-113734522D01*
X112375500Y-90499998D01*
X123594318Y-90499998D01*
X123594318Y-90500001D01*
X123614955Y-90656760D01*
X123614956Y-90656762D01*
X123675464Y-90802841D01*
X123771718Y-90928282D01*
X123897159Y-91024536D01*
X124043238Y-91085044D01*
X124121619Y-91095363D01*
X124199999Y-91105682D01*
X124200000Y-91105682D01*
X124200001Y-91105682D01*
X124260409Y-91097729D01*
X124356762Y-91085044D01*
X124502841Y-91024536D01*
X124565933Y-90976123D01*
X124631102Y-90950930D01*
X124641419Y-90950500D01*
X129058581Y-90950500D01*
X129125620Y-90970185D01*
X129134067Y-90976124D01*
X129197157Y-91024535D01*
X129197158Y-91024535D01*
X129197159Y-91024536D01*
X129343238Y-91085044D01*
X129421619Y-91095363D01*
X129499999Y-91105682D01*
X129500000Y-91105682D01*
X129500001Y-91105682D01*
X129560409Y-91097729D01*
X129656762Y-91085044D01*
X129802841Y-91024536D01*
X129928282Y-90928282D01*
X130024536Y-90802841D01*
X130085044Y-90656762D01*
X130105682Y-90500000D01*
X130085044Y-90343238D01*
X130024536Y-90197159D01*
X129928282Y-90071718D01*
X129802841Y-89975464D01*
X129656762Y-89914956D01*
X129656760Y-89914955D01*
X129500001Y-89894318D01*
X129499999Y-89894318D01*
X129343239Y-89914955D01*
X129343237Y-89914956D01*
X129197157Y-89975464D01*
X129134067Y-90023876D01*
X129068898Y-90049070D01*
X129058581Y-90049500D01*
X124641419Y-90049500D01*
X124574380Y-90029815D01*
X124565933Y-90023876D01*
X124502842Y-89975464D01*
X124356762Y-89914956D01*
X124356760Y-89914955D01*
X124200001Y-89894318D01*
X124199999Y-89894318D01*
X124043239Y-89914955D01*
X124043237Y-89914956D01*
X123897160Y-89975463D01*
X123771718Y-90071718D01*
X123675463Y-90197160D01*
X123614956Y-90343237D01*
X123614955Y-90343239D01*
X123594318Y-90499998D01*
X112375500Y-90499998D01*
X112375500Y-82099998D01*
X116094318Y-82099998D01*
X116094318Y-82100001D01*
X116114955Y-82256760D01*
X116114957Y-82256765D01*
X116175461Y-82402836D01*
X116175464Y-82402841D01*
X116223876Y-82465933D01*
X116249070Y-82531102D01*
X116249500Y-82541419D01*
X116249500Y-85558580D01*
X116229815Y-85625619D01*
X116223876Y-85634066D01*
X116175464Y-85697157D01*
X116114956Y-85843237D01*
X116114955Y-85843239D01*
X116094318Y-85999998D01*
X116094318Y-86000001D01*
X116114955Y-86156760D01*
X116114956Y-86156762D01*
X116175464Y-86302841D01*
X116271718Y-86428282D01*
X116397159Y-86524536D01*
X116543238Y-86585044D01*
X116621619Y-86595363D01*
X116699999Y-86605682D01*
X116700000Y-86605682D01*
X116700001Y-86605682D01*
X116752254Y-86598802D01*
X116856762Y-86585044D01*
X117002841Y-86524536D01*
X117128282Y-86428282D01*
X117224536Y-86302841D01*
X117285044Y-86156762D01*
X117305682Y-86000000D01*
X117285044Y-85843238D01*
X117224536Y-85697159D01*
X117224535Y-85697158D01*
X117224535Y-85697157D01*
X117176124Y-85634066D01*
X117150930Y-85568896D01*
X117150500Y-85558580D01*
X117150500Y-82541419D01*
X117170185Y-82474380D01*
X117176124Y-82465933D01*
X117192092Y-82445121D01*
X117224536Y-82402841D01*
X117285044Y-82256762D01*
X117305682Y-82100000D01*
X117285044Y-81943238D01*
X117224536Y-81797159D01*
X117128282Y-81671718D01*
X117002841Y-81575464D01*
X116856762Y-81514956D01*
X116856760Y-81514955D01*
X116700001Y-81494318D01*
X116699999Y-81494318D01*
X116543239Y-81514955D01*
X116543237Y-81514956D01*
X116397160Y-81575463D01*
X116271718Y-81671718D01*
X116175463Y-81797160D01*
X116114956Y-81943237D01*
X116114955Y-81943239D01*
X116094318Y-82099998D01*
X112375500Y-82099998D01*
X112375500Y-81885601D01*
X112395185Y-81818562D01*
X112425063Y-81788685D01*
X112424426Y-81787950D01*
X112431120Y-81782147D01*
X112431128Y-81782143D01*
X112525377Y-81673373D01*
X112585165Y-81542457D01*
X112605647Y-81400000D01*
X112585165Y-81257543D01*
X112525377Y-81126627D01*
X112431128Y-81017857D01*
X112310053Y-80940047D01*
X112310051Y-80940046D01*
X112310049Y-80940045D01*
X112310050Y-80940045D01*
X112171963Y-80899500D01*
X112171961Y-80899500D01*
X112028039Y-80899500D01*
X112028036Y-80899500D01*
X111889949Y-80940045D01*
X111768873Y-81017856D01*
X111674623Y-81126626D01*
X111674622Y-81126628D01*
X111614834Y-81257543D01*
X111594353Y-81400000D01*
X100500500Y-81400000D01*
X100500500Y-79149994D01*
X100944859Y-79149994D01*
X100944859Y-79150005D01*
X100965385Y-79397729D01*
X100965387Y-79397738D01*
X101026412Y-79638717D01*
X101126266Y-79866364D01*
X101226564Y-80019882D01*
X101926212Y-79320234D01*
X101937482Y-79362292D01*
X102009890Y-79487708D01*
X102112292Y-79590110D01*
X102237708Y-79662518D01*
X102279765Y-79673787D01*
X101579942Y-80373609D01*
X101626768Y-80410055D01*
X101626770Y-80410056D01*
X101845385Y-80528364D01*
X101845396Y-80528369D01*
X102080506Y-80609083D01*
X102325707Y-80650000D01*
X102574293Y-80650000D01*
X102819493Y-80609083D01*
X103054603Y-80528369D01*
X103054614Y-80528364D01*
X103273228Y-80410057D01*
X103273231Y-80410055D01*
X103320056Y-80373609D01*
X102620234Y-79673787D01*
X102662292Y-79662518D01*
X102787708Y-79590110D01*
X102890110Y-79487708D01*
X102962518Y-79362292D01*
X102973787Y-79320234D01*
X103673434Y-80019882D01*
X103773731Y-79866369D01*
X103873587Y-79638717D01*
X103934612Y-79397738D01*
X103934614Y-79397729D01*
X103955141Y-79150005D01*
X103955141Y-79149999D01*
X105744357Y-79149999D01*
X105744357Y-79150000D01*
X105764884Y-79371535D01*
X105764885Y-79371537D01*
X105825769Y-79585523D01*
X105825775Y-79585538D01*
X105924938Y-79784683D01*
X105924943Y-79784691D01*
X106059020Y-79962238D01*
X106223437Y-80112123D01*
X106223439Y-80112125D01*
X106412595Y-80229245D01*
X106412596Y-80229245D01*
X106412599Y-80229247D01*
X106620060Y-80309618D01*
X106838757Y-80350500D01*
X106838759Y-80350500D01*
X107061241Y-80350500D01*
X107061243Y-80350500D01*
X107279940Y-80309618D01*
X107487401Y-80229247D01*
X107676562Y-80112124D01*
X107840981Y-79962236D01*
X107975058Y-79784689D01*
X108074229Y-79585528D01*
X108135115Y-79371536D01*
X108155643Y-79150000D01*
X108155642Y-79149994D01*
X108135115Y-78928464D01*
X108135114Y-78928462D01*
X108127659Y-78902261D01*
X108074229Y-78714472D01*
X108074224Y-78714461D01*
X107975061Y-78515316D01*
X107975056Y-78515308D01*
X107840979Y-78337761D01*
X107676562Y-78187876D01*
X107676560Y-78187874D01*
X107487404Y-78070754D01*
X107487398Y-78070752D01*
X107279940Y-77990382D01*
X107061243Y-77949500D01*
X106838757Y-77949500D01*
X106620060Y-77990382D01*
X106488864Y-78041207D01*
X106412601Y-78070752D01*
X106412595Y-78070754D01*
X106223439Y-78187874D01*
X106223437Y-78187876D01*
X106059020Y-78337761D01*
X105924943Y-78515308D01*
X105924938Y-78515316D01*
X105825775Y-78714461D01*
X105825769Y-78714476D01*
X105764885Y-78928462D01*
X105764884Y-78928464D01*
X105744357Y-79149999D01*
X103955141Y-79149999D01*
X103955141Y-79149994D01*
X103934614Y-78902270D01*
X103934612Y-78902261D01*
X103873587Y-78661282D01*
X103773731Y-78433630D01*
X103673434Y-78280116D01*
X102973787Y-78979764D01*
X102962518Y-78937708D01*
X102890110Y-78812292D01*
X102787708Y-78709890D01*
X102662292Y-78637482D01*
X102620235Y-78626212D01*
X103320057Y-77926390D01*
X103320056Y-77926389D01*
X103273229Y-77889943D01*
X103054614Y-77771635D01*
X103054603Y-77771630D01*
X102819493Y-77690916D01*
X102574293Y-77650000D01*
X102325707Y-77650000D01*
X102080506Y-77690916D01*
X101845396Y-77771630D01*
X101845390Y-77771632D01*
X101626761Y-77889949D01*
X101579942Y-77926388D01*
X101579942Y-77926390D01*
X102279765Y-78626212D01*
X102237708Y-78637482D01*
X102112292Y-78709890D01*
X102009890Y-78812292D01*
X101937482Y-78937708D01*
X101926212Y-78979764D01*
X101226564Y-78280116D01*
X101126267Y-78433632D01*
X101026412Y-78661282D01*
X100965387Y-78902261D01*
X100965385Y-78902270D01*
X100944859Y-79149994D01*
X100500500Y-79149994D01*
X100500500Y-72649994D01*
X100944859Y-72649994D01*
X100944859Y-72650005D01*
X100965385Y-72897729D01*
X100965387Y-72897738D01*
X101026412Y-73138717D01*
X101126266Y-73366364D01*
X101226564Y-73519882D01*
X101926212Y-72820234D01*
X101937482Y-72862292D01*
X102009890Y-72987708D01*
X102112292Y-73090110D01*
X102237708Y-73162518D01*
X102279765Y-73173787D01*
X101579942Y-73873609D01*
X101626768Y-73910055D01*
X101626770Y-73910056D01*
X101845385Y-74028364D01*
X101845396Y-74028369D01*
X102080506Y-74109083D01*
X102325707Y-74150000D01*
X102574293Y-74150000D01*
X102819493Y-74109083D01*
X103054603Y-74028369D01*
X103054614Y-74028364D01*
X103273228Y-73910057D01*
X103273231Y-73910055D01*
X103320056Y-73873609D01*
X102620234Y-73173787D01*
X102662292Y-73162518D01*
X102787708Y-73090110D01*
X102890110Y-72987708D01*
X102962518Y-72862292D01*
X102973787Y-72820234D01*
X103673434Y-73519882D01*
X103773731Y-73366369D01*
X103873587Y-73138717D01*
X103934612Y-72897738D01*
X103934614Y-72897729D01*
X103955141Y-72650005D01*
X103955141Y-72649999D01*
X105744357Y-72649999D01*
X105744357Y-72650000D01*
X105764884Y-72871535D01*
X105764885Y-72871537D01*
X105825769Y-73085523D01*
X105825775Y-73085538D01*
X105924938Y-73284683D01*
X105924943Y-73284691D01*
X106059020Y-73462238D01*
X106223437Y-73612123D01*
X106223439Y-73612125D01*
X106412595Y-73729245D01*
X106412596Y-73729245D01*
X106412599Y-73729247D01*
X106620060Y-73809618D01*
X106838757Y-73850500D01*
X106838759Y-73850500D01*
X107061241Y-73850500D01*
X107061243Y-73850500D01*
X107279940Y-73809618D01*
X107487401Y-73729247D01*
X107676562Y-73612124D01*
X107840981Y-73462236D01*
X107975058Y-73284689D01*
X108074229Y-73085528D01*
X108135115Y-72871536D01*
X108155643Y-72650000D01*
X108155642Y-72649994D01*
X108135115Y-72428464D01*
X108135114Y-72428462D01*
X108127659Y-72402261D01*
X108074229Y-72214472D01*
X108074224Y-72214461D01*
X107975061Y-72015316D01*
X107975056Y-72015308D01*
X107840979Y-71837761D01*
X107676562Y-71687876D01*
X107676560Y-71687874D01*
X107487404Y-71570754D01*
X107487398Y-71570752D01*
X107279940Y-71490382D01*
X107061243Y-71449500D01*
X106838757Y-71449500D01*
X106620060Y-71490382D01*
X106488864Y-71541207D01*
X106412601Y-71570752D01*
X106412595Y-71570754D01*
X106223439Y-71687874D01*
X106223437Y-71687876D01*
X106059020Y-71837761D01*
X105924943Y-72015308D01*
X105924938Y-72015316D01*
X105825775Y-72214461D01*
X105825769Y-72214476D01*
X105764885Y-72428462D01*
X105764884Y-72428464D01*
X105744357Y-72649999D01*
X103955141Y-72649999D01*
X103955141Y-72649994D01*
X103934614Y-72402270D01*
X103934612Y-72402261D01*
X103873587Y-72161282D01*
X103773731Y-71933630D01*
X103673434Y-71780116D01*
X102973787Y-72479764D01*
X102962518Y-72437708D01*
X102890110Y-72312292D01*
X102787708Y-72209890D01*
X102662292Y-72137482D01*
X102620235Y-72126212D01*
X103320057Y-71426390D01*
X103320056Y-71426389D01*
X103273229Y-71389943D01*
X103054614Y-71271635D01*
X103054603Y-71271630D01*
X102819493Y-71190916D01*
X102574293Y-71150000D01*
X102325707Y-71150000D01*
X102080506Y-71190916D01*
X101845396Y-71271630D01*
X101845390Y-71271632D01*
X101626761Y-71389949D01*
X101579942Y-71426388D01*
X101579942Y-71426390D01*
X102279765Y-72126212D01*
X102237708Y-72137482D01*
X102112292Y-72209890D01*
X102009890Y-72312292D01*
X101937482Y-72437708D01*
X101926212Y-72479764D01*
X101226564Y-71780116D01*
X101126267Y-71933632D01*
X101026412Y-72161282D01*
X100965387Y-72402261D01*
X100965385Y-72402270D01*
X100944859Y-72649994D01*
X100500500Y-72649994D01*
X100500500Y-66673162D01*
X100502074Y-66659729D01*
X100501348Y-66659655D01*
X100502178Y-66651568D01*
X100500551Y-66594630D01*
X100500500Y-66591087D01*
X100500500Y-66579360D01*
X100500541Y-66576174D01*
X100502964Y-66481902D01*
X102099500Y-66481902D01*
X102099500Y-66718097D01*
X102136446Y-66951368D01*
X102209433Y-67175996D01*
X102316657Y-67386433D01*
X102455483Y-67577510D01*
X102622490Y-67744517D01*
X102813567Y-67883343D01*
X102912991Y-67934002D01*
X103024003Y-67990566D01*
X103024005Y-67990566D01*
X103024008Y-67990568D01*
X103144412Y-68029689D01*
X103248631Y-68063553D01*
X103481903Y-68100500D01*
X103481908Y-68100500D01*
X103718097Y-68100500D01*
X103951368Y-68063553D01*
X103954304Y-68062599D01*
X104175992Y-67990568D01*
X104280342Y-67937399D01*
X121134500Y-67937399D01*
X121134500Y-68062601D01*
X121166905Y-68183536D01*
X121229505Y-68291964D01*
X121318036Y-68380495D01*
X121426464Y-68443095D01*
X121547399Y-68475500D01*
X121547401Y-68475500D01*
X121672599Y-68475500D01*
X121672601Y-68475500D01*
X121793536Y-68443095D01*
X121901964Y-68380495D01*
X121990495Y-68291964D01*
X122053095Y-68183536D01*
X122085500Y-68062601D01*
X122085500Y-67937399D01*
X126914500Y-67937399D01*
X126914500Y-68062601D01*
X126946905Y-68183536D01*
X127009505Y-68291964D01*
X127098036Y-68380495D01*
X127206464Y-68443095D01*
X127327399Y-68475500D01*
X127327401Y-68475500D01*
X127452599Y-68475500D01*
X127452601Y-68475500D01*
X127573536Y-68443095D01*
X127681964Y-68380495D01*
X127770495Y-68291964D01*
X127833095Y-68183536D01*
X127865500Y-68062601D01*
X127865500Y-67937399D01*
X127833095Y-67816464D01*
X127770495Y-67708036D01*
X127681964Y-67619505D01*
X127573536Y-67556905D01*
X127573537Y-67556905D01*
X127533224Y-67546103D01*
X127452601Y-67524500D01*
X127327399Y-67524500D01*
X127246775Y-67546103D01*
X127206463Y-67556905D01*
X127098037Y-67619504D01*
X127098034Y-67619506D01*
X127009506Y-67708034D01*
X127009504Y-67708037D01*
X126946905Y-67816463D01*
X126946905Y-67816464D01*
X126914500Y-67937399D01*
X122085500Y-67937399D01*
X122053095Y-67816464D01*
X121990495Y-67708036D01*
X121901964Y-67619505D01*
X121793536Y-67556905D01*
X121793537Y-67556905D01*
X121753224Y-67546103D01*
X121672601Y-67524500D01*
X121547399Y-67524500D01*
X121466775Y-67546103D01*
X121426463Y-67556905D01*
X121318037Y-67619504D01*
X121318034Y-67619506D01*
X121229506Y-67708034D01*
X121229504Y-67708037D01*
X121166905Y-67816463D01*
X121166905Y-67816464D01*
X121134500Y-67937399D01*
X104280342Y-67937399D01*
X104386433Y-67883343D01*
X104577510Y-67744517D01*
X104744517Y-67577510D01*
X104883343Y-67386433D01*
X104990568Y-67175992D01*
X105063553Y-66951368D01*
X105100500Y-66718097D01*
X105100500Y-66481902D01*
X141899500Y-66481902D01*
X141899500Y-66718097D01*
X141936446Y-66951368D01*
X142009433Y-67175996D01*
X142116657Y-67386433D01*
X142255483Y-67577510D01*
X142422490Y-67744517D01*
X142613567Y-67883343D01*
X142712991Y-67934002D01*
X142824003Y-67990566D01*
X142824005Y-67990566D01*
X142824008Y-67990568D01*
X142944412Y-68029689D01*
X143048631Y-68063553D01*
X143281903Y-68100500D01*
X143281908Y-68100500D01*
X143518097Y-68100500D01*
X143751368Y-68063553D01*
X143754304Y-68062599D01*
X143975992Y-67990568D01*
X144186433Y-67883343D01*
X144377510Y-67744517D01*
X144544517Y-67577510D01*
X144683343Y-67386433D01*
X144790568Y-67175992D01*
X144863553Y-66951368D01*
X144900500Y-66718097D01*
X144900500Y-66481902D01*
X144863553Y-66248631D01*
X144829689Y-66144412D01*
X144790568Y-66024008D01*
X144790566Y-66024005D01*
X144790566Y-66024003D01*
X144683342Y-65813566D01*
X144544517Y-65622490D01*
X144377510Y-65455483D01*
X144186433Y-65316657D01*
X144173435Y-65310034D01*
X143975996Y-65209433D01*
X143751368Y-65136446D01*
X143518097Y-65099500D01*
X143518092Y-65099500D01*
X143281908Y-65099500D01*
X143281903Y-65099500D01*
X143048631Y-65136446D01*
X142824003Y-65209433D01*
X142613566Y-65316657D01*
X142555123Y-65359119D01*
X142422490Y-65455483D01*
X142422488Y-65455485D01*
X142422487Y-65455485D01*
X142255485Y-65622487D01*
X142255485Y-65622488D01*
X142255483Y-65622490D01*
X142195862Y-65704550D01*
X142116657Y-65813566D01*
X142009433Y-66024003D01*
X141936446Y-66248631D01*
X141899500Y-66481902D01*
X105100500Y-66481902D01*
X105063553Y-66248631D01*
X105029689Y-66144412D01*
X104990568Y-66024008D01*
X104990566Y-66024005D01*
X104990566Y-66024003D01*
X104883342Y-65813566D01*
X104744517Y-65622490D01*
X104577510Y-65455483D01*
X104386433Y-65316657D01*
X104373435Y-65310034D01*
X104175996Y-65209433D01*
X103951368Y-65136446D01*
X103718097Y-65099500D01*
X103718092Y-65099500D01*
X103481908Y-65099500D01*
X103481903Y-65099500D01*
X103248631Y-65136446D01*
X103024003Y-65209433D01*
X102813566Y-65316657D01*
X102755123Y-65359119D01*
X102622490Y-65455483D01*
X102622488Y-65455485D01*
X102622487Y-65455485D01*
X102455485Y-65622487D01*
X102455485Y-65622488D01*
X102455483Y-65622490D01*
X102395862Y-65704550D01*
X102316657Y-65813566D01*
X102209433Y-66024003D01*
X102136446Y-66248631D01*
X102099500Y-66481902D01*
X100502964Y-66481902D01*
X100504488Y-66422614D01*
X100508488Y-66267009D01*
X100509559Y-66253634D01*
X100551325Y-65944351D01*
X100553845Y-65931147D01*
X100595077Y-65764649D01*
X100628859Y-65628232D01*
X100632789Y-65615394D01*
X100740170Y-65322390D01*
X100745476Y-65310034D01*
X100795295Y-65209432D01*
X100883969Y-65030371D01*
X100890564Y-65018691D01*
X101058545Y-64755658D01*
X101066380Y-64744746D01*
X101261841Y-64501484D01*
X101270813Y-64491480D01*
X101491480Y-64270813D01*
X101501484Y-64261841D01*
X101717737Y-64088082D01*
X101744748Y-64066378D01*
X101755658Y-64058545D01*
X102018691Y-63890564D01*
X102030371Y-63883969D01*
X102285289Y-63757730D01*
X102310034Y-63745476D01*
X102322393Y-63740170D01*
X102615394Y-63632789D01*
X102628232Y-63628859D01*
X102931152Y-63553843D01*
X102944351Y-63551325D01*
X103253634Y-63509559D01*
X103267010Y-63508488D01*
X103576277Y-63500537D01*
X103579441Y-63500497D01*
X103591111Y-63500498D01*
G37*
G04 #@! TD.AperFunction*
M02*
