M48
; DRILL file {KiCad 9.0.5} date 2025-11-15T07:59:23-0500
; FORMAT={-:-/ absolute / metric / decimal}
; #@! TF.CreationDate,2025-11-15T07:59:23-05:00
; #@! TF.GenerationSoftware,Kicad,Pcbnew,9.0.5
; #@! TF.FileFunction,Plated,1,4,PTH
FMAT,2
METRIC
; #@! TA.AperFunction,Plated,PTH,ComponentDrill
T1C0.250
; #@! TA.AperFunction,Plated,PTH,ViaDrill
T2C0.300
; #@! TA.AperFunction,Plated,PTH,ComponentDrill
T3C0.750
; #@! TA.AperFunction,Plated,PTH,ComponentDrill
T4C1.000
; #@! TA.AperFunction,Plated,PTH,ComponentDrill
T5C1.240
; #@! TA.AperFunction,Plated,PTH,ComponentDrill
T6C1.520
; #@! TA.AperFunction,Plated,PTH,ComponentDrill
T7C2.540
%
G90
G05
T1
X130.25Y-90.5
X130.25Y-91.875
X130.25Y-93.25
X131.625Y-90.5
X131.625Y-91.875
X131.625Y-93.25
X133.0Y-90.5
X133.0Y-91.875
X133.0Y-93.25
T2
X108.175Y-95.975
X108.55Y-119.15
X109.6Y-87.675
X109.875Y-80.15
X110.95Y-85.55
X111.0Y-120.575
X111.225Y-127.175
X111.5Y-112.55
X111.8Y-104.625
X112.075Y-71.95
X112.6Y-50.5
X113.275Y-120.225
X113.45Y-57.875
X113.45Y-89.475
X113.525Y-118.05
X113.55Y-103.775
X113.625Y-108.075
X113.7Y-65.0
X113.8Y-86.6
X114.075Y-120.825
X114.325Y-90.075
X115.025Y-83.2
X115.375Y-90.475
X116.275Y-120.9
X116.375Y-90.925
X116.4Y-58.5
X116.725Y-106.3
X116.905Y-93.17
X117.425Y-120.2
X118.6Y-87.9
X119.05Y-79.05
X119.125Y-74.775
X119.2Y-51.05
X119.35Y-94.275
X119.9Y-55.7
X120.3Y-88.1
X120.325Y-91.4
X121.275Y-68.975
X121.675Y-104.425
X122.45Y-99.35
X122.5Y-100.875
X122.688Y-69.188
X122.85Y-121.3
X123.0Y-78.35
X123.225Y-80.075
X123.25Y-67.125
X123.425Y-94.275
X123.85Y-127.6
X124.925Y-80.075
X125.25Y-73.975
X125.7Y-88.6
X126.2Y-57.5
X126.225Y-56.2
X126.55Y-80.125
X127.025Y-58.725
X127.075Y-129.975
X127.175Y-99.275
X127.325Y-110.9
X127.35Y-120.925
X127.399Y-52.926
X127.65Y-124.95
X127.7Y-69.975
X128.001Y-52.324
X128.05Y-130.0
X128.25Y-114.925
X128.4Y-101.1
X128.5Y-79.981
X129.125Y-89.675
X129.35Y-79.981
X129.5Y-130.7
X129.8Y-58.6
X130.45Y-118.9
X130.55Y-63.9
X131.075Y-78.525
X131.975Y-84.025
X132.3Y-55.275
X132.65Y-85.25
X132.675Y-116.925
X133.875Y-53.6
X133.925Y-52.025
X133.925Y-91.475
X134.0Y-48.125
X134.3Y-101.1
X134.375Y-59.5
X134.425Y-113.05
X134.5Y-63.725
X134.95Y-126.875
X134.95Y-127.5
X135.125Y-126.25
X135.225Y-53.0
X135.525Y-125.775
X136.0Y-125.375
X136.3Y-85.8
X136.325Y-96.7
X136.4Y-78.025
X136.45Y-124.925
X136.45Y-127.475
X136.525Y-83.35
X136.8Y-126.95
X136.825Y-119.85
X136.9Y-124.475
X137.15Y-98.2
X137.225Y-126.5
X137.4Y-124.075
X137.675Y-126.075
X137.8Y-89.475
X137.8Y-101.6
X137.95Y-114.9
X138.0Y-116.9
X138.05Y-124.05
X138.125Y-125.65
X138.275Y-92.3
X138.329Y-90.075
X138.525Y-93.125
X138.7Y-83.6
X138.7Y-102.75
X138.8Y-88.3
X139.5Y-127.75
X139.525Y-126.425
X139.525Y-127.075
X139.6Y-82.0
X139.825Y-52.8
X140.225Y-130.475
X140.35Y-78.9
X140.95Y-126.425
X140.95Y-127.1
X140.975Y-127.75
X141.0Y-98.2
X142.15Y-92.35
X142.15Y-93.875
X142.2Y-89.9
X142.3Y-83.6
T3
X138.35Y-50.65
X140.35Y-50.65
T4
X105.1Y-83.02
X105.1Y-85.56
X105.1Y-88.1
X105.1Y-90.64
X105.1Y-93.18
X105.1Y-95.72
X105.1Y-98.26
X105.1Y-100.8
X105.1Y-103.34
X105.1Y-105.88
X105.1Y-108.42
X105.1Y-110.96
X105.1Y-113.5
X105.1Y-116.04
X105.1Y-118.58
X105.1Y-121.12
X105.1Y-123.66
X105.1Y-126.2
X110.89Y-46.3
X110.98Y-131.8
X113.43Y-46.3
X113.52Y-131.8
X115.97Y-46.3
X116.06Y-131.8
X118.51Y-46.3
X118.6Y-131.8
X135.7Y-129.3
X147.8Y-83.04
X147.8Y-85.58
X147.8Y-88.12
X147.8Y-90.66
X147.8Y-93.2
X147.8Y-95.74
X147.8Y-98.28
X147.8Y-100.82
X147.8Y-103.36
X147.8Y-105.9
X147.8Y-108.44
X147.8Y-110.98
X147.8Y-113.52
X147.8Y-116.06
X147.8Y-118.6
X147.8Y-121.14
X147.8Y-123.68
X147.8Y-126.22
T5
X105.5Y-54.0
X105.5Y-69.0
X105.55Y-61.5
X112.0Y-54.0
X112.0Y-69.0
X112.05Y-61.5
X126.825Y-105.975
X133.325Y-105.975
T6
X145.5Y-55.42
X145.5Y-60.5
X145.5Y-66.0
X145.5Y-71.08
X145.5Y-76.16
T7
X138.5Y-58.58
X138.5Y-63.66
X138.5Y-67.72
X138.5Y-72.8
M30
