%TF.GenerationSoftware,KiCad,Pcbnew,9.0.5*%
%TF.CreationDate,2025-11-15T07:59:09-05:00*%
%TF.ProjectId,PicoLume_v4,5069636f-4c75-46d6-955f-76342e6b6963,rev?*%
%TF.SameCoordinates,Original*%
%TF.FileFunction,Paste,Top*%
%TF.FilePolarity,Positive*%
%FSLAX46Y46*%
G04 Gerber Fmt 4.6, Leading zero omitted, Abs format (unit mm)*
G04 Created by KiCad (PCBNEW 9.0.5) date 2025-11-15 07:59:09*
%MOMM*%
%LPD*%
G01*
G04 APERTURE LIST*
G04 Aperture macros list*
%AMRoundRect*
0 Rectangle with rounded corners*
0 $1 Rounding radius*
0 $2 $3 $4 $5 $6 $7 $8 $9 X,Y pos of 4 corners*
0 Add a 4 corners polygon primitive as box body*
4,1,4,$2,$3,$4,$5,$6,$7,$8,$9,$2,$3,0*
0 Add four circle primitives for the rounded corners*
1,1,$1+$1,$2,$3*
1,1,$1+$1,$4,$5*
1,1,$1+$1,$6,$7*
1,1,$1+$1,$8,$9*
0 Add four rect primitives between the rounded corners*
20,1,$1+$1,$2,$3,$4,$5,0*
20,1,$1+$1,$4,$5,$6,$7,0*
20,1,$1+$1,$6,$7,$8,$9,0*
20,1,$1+$1,$8,$9,$2,$3,0*%
%AMFreePoly0*
4,1,18,-0.437500,0.050000,-0.433694,0.069134,-0.422855,0.085355,-0.406634,0.096194,-0.387500,0.100000,0.387500,0.100000,0.437500,0.050000,0.437500,-0.050000,0.433694,-0.069134,0.422855,-0.085355,0.406634,-0.096194,0.387500,-0.100000,-0.387500,-0.100000,-0.406634,-0.096194,-0.422855,-0.085355,-0.433694,-0.069134,-0.437500,-0.050000,-0.437500,0.050000,-0.437500,0.050000,$1*%
%AMFreePoly1*
4,1,18,-0.437500,0.050000,-0.433694,0.069134,-0.422855,0.085355,-0.406634,0.096194,-0.387500,0.100000,0.387500,0.100000,0.406634,0.096194,0.422855,0.085355,0.433694,0.069134,0.437500,0.050000,0.437500,-0.050000,0.387500,-0.100000,-0.387500,-0.100000,-0.406634,-0.096194,-0.422855,-0.085355,-0.433694,-0.069134,-0.437500,-0.050000,-0.437500,0.050000,-0.437500,0.050000,$1*%
%AMFreePoly2*
4,1,18,-0.100000,0.387500,-0.050000,0.437500,0.050000,0.437500,0.069134,0.433694,0.085355,0.422855,0.096194,0.406634,0.100000,0.387500,0.100000,-0.387500,0.096194,-0.406634,0.085355,-0.422855,0.069134,-0.433694,0.050000,-0.437500,-0.050000,-0.437500,-0.069134,-0.433694,-0.085355,-0.422855,-0.096194,-0.406634,-0.100000,-0.387500,-0.100000,0.387500,-0.100000,0.387500,$1*%
%AMFreePoly3*
4,1,18,-0.100000,0.387500,-0.096194,0.406634,-0.085355,0.422855,-0.069134,0.433694,-0.050000,0.437500,0.050000,0.437500,0.100000,0.387500,0.100000,-0.387500,0.096194,-0.406634,0.085355,-0.422855,0.069134,-0.433694,0.050000,-0.437500,-0.050000,-0.437500,-0.069134,-0.433694,-0.085355,-0.422855,-0.096194,-0.406634,-0.100000,-0.387500,-0.100000,0.387500,-0.100000,0.387500,$1*%
%AMFreePoly4*
4,1,18,-0.437500,0.050000,-0.433694,0.069134,-0.422855,0.085355,-0.406634,0.096194,-0.387500,0.100000,0.387500,0.100000,0.406634,0.096194,0.422855,0.085355,0.433694,0.069134,0.437500,0.050000,0.437500,-0.050000,0.433694,-0.069134,0.422855,-0.085355,0.406634,-0.096194,0.387500,-0.100000,-0.387500,-0.100000,-0.437500,-0.050000,-0.437500,0.050000,-0.437500,0.050000,$1*%
%AMFreePoly5*
4,1,18,-0.437500,0.050000,-0.387500,0.100000,0.387500,0.100000,0.406634,0.096194,0.422855,0.085355,0.433694,0.069134,0.437500,0.050000,0.437500,-0.050000,0.433694,-0.069134,0.422855,-0.085355,0.406634,-0.096194,0.387500,-0.100000,-0.387500,-0.100000,-0.406634,-0.096194,-0.422855,-0.085355,-0.433694,-0.069134,-0.437500,-0.050000,-0.437500,0.050000,-0.437500,0.050000,$1*%
%AMFreePoly6*
4,1,18,-0.100000,0.387500,-0.096194,0.406634,-0.085355,0.422855,-0.069134,0.433694,-0.050000,0.437500,0.050000,0.437500,0.069134,0.433694,0.085355,0.422855,0.096194,0.406634,0.100000,0.387500,0.100000,-0.387500,0.050000,-0.437500,-0.050000,-0.437500,-0.069134,-0.433694,-0.085355,-0.422855,-0.096194,-0.406634,-0.100000,-0.387500,-0.100000,0.387500,-0.100000,0.387500,$1*%
%AMFreePoly7*
4,1,18,-0.100000,0.387500,-0.096194,0.406634,-0.085355,0.422855,-0.069134,0.433694,-0.050000,0.437500,0.050000,0.437500,0.069134,0.433694,0.085355,0.422855,0.096194,0.406634,0.100000,0.387500,0.100000,-0.387500,0.096194,-0.406634,0.085355,-0.422855,0.069134,-0.433694,0.050000,-0.437500,-0.050000,-0.437500,-0.100000,-0.387500,-0.100000,0.387500,-0.100000,0.387500,$1*%
G04 Aperture macros list end*
%ADD10RoundRect,0.200000X-0.200000X-0.275000X0.200000X-0.275000X0.200000X0.275000X-0.200000X0.275000X0*%
%ADD11RoundRect,0.225000X-0.250000X0.225000X-0.250000X-0.225000X0.250000X-0.225000X0.250000X0.225000X0*%
%ADD12RoundRect,0.250000X0.250000X0.475000X-0.250000X0.475000X-0.250000X-0.475000X0.250000X-0.475000X0*%
%ADD13RoundRect,0.225000X0.225000X0.250000X-0.225000X0.250000X-0.225000X-0.250000X0.225000X-0.250000X0*%
%ADD14R,0.550000X0.800000*%
%ADD15RoundRect,0.225000X0.250000X-0.225000X0.250000X0.225000X-0.250000X0.225000X-0.250000X-0.225000X0*%
%ADD16RoundRect,0.200000X-0.275000X0.200000X-0.275000X-0.200000X0.275000X-0.200000X0.275000X0.200000X0*%
%ADD17RoundRect,0.225000X-0.225000X-0.250000X0.225000X-0.250000X0.225000X0.250000X-0.225000X0.250000X0*%
%ADD18RoundRect,0.218750X0.218750X0.256250X-0.218750X0.256250X-0.218750X-0.256250X0.218750X-0.256250X0*%
%ADD19RoundRect,0.250000X-0.350000X-0.350000X0.350000X-0.350000X0.350000X0.350000X-0.350000X0.350000X0*%
%ADD20FreePoly0,0.000000*%
%ADD21RoundRect,0.050000X-0.387500X-0.050000X0.387500X-0.050000X0.387500X0.050000X-0.387500X0.050000X0*%
%ADD22FreePoly1,0.000000*%
%ADD23FreePoly2,0.000000*%
%ADD24RoundRect,0.050000X-0.050000X-0.387500X0.050000X-0.387500X0.050000X0.387500X-0.050000X0.387500X0*%
%ADD25FreePoly3,0.000000*%
%ADD26FreePoly4,0.000000*%
%ADD27FreePoly5,0.000000*%
%ADD28FreePoly6,0.000000*%
%ADD29FreePoly7,0.000000*%
%ADD30RoundRect,0.150000X-0.512500X-0.150000X0.512500X-0.150000X0.512500X0.150000X-0.512500X0.150000X0*%
%ADD31RoundRect,0.100000X-0.400000X-0.400000X0.400000X-0.400000X0.400000X0.400000X-0.400000X0.400000X0*%
%ADD32RoundRect,0.105000X-0.420000X-0.995000X0.420000X-0.995000X0.420000X0.995000X-0.420000X0.995000X0*%
%ADD33RoundRect,0.200000X0.275000X-0.200000X0.275000X0.200000X-0.275000X0.200000X-0.275000X-0.200000X0*%
%ADD34R,1.820000X1.160000*%
%ADD35RoundRect,0.250000X-0.375000X-1.075000X0.375000X-1.075000X0.375000X1.075000X-0.375000X1.075000X0*%
%ADD36R,0.550000X0.550000*%
%ADD37RoundRect,0.200000X0.200000X0.275000X-0.200000X0.275000X-0.200000X-0.275000X0.200000X-0.275000X0*%
%ADD38RoundRect,0.250000X0.475000X-0.250000X0.475000X0.250000X-0.475000X0.250000X-0.475000X-0.250000X0*%
%ADD39RoundRect,0.150000X0.150000X0.625000X-0.150000X0.625000X-0.150000X-0.625000X0.150000X-0.625000X0*%
%ADD40RoundRect,0.250000X0.350000X0.650000X-0.350000X0.650000X-0.350000X-0.650000X0.350000X-0.650000X0*%
%ADD41RoundRect,0.250000X0.375000X1.075000X-0.375000X1.075000X-0.375000X-1.075000X0.375000X-1.075000X0*%
%ADD42RoundRect,0.250000X-0.650000X0.325000X-0.650000X-0.325000X0.650000X-0.325000X0.650000X0.325000X0*%
%ADD43RoundRect,0.218750X0.256250X-0.218750X0.256250X0.218750X-0.256250X0.218750X-0.256250X-0.218750X0*%
%ADD44RoundRect,0.250000X0.325000X0.650000X-0.325000X0.650000X-0.325000X-0.650000X0.325000X-0.650000X0*%
%ADD45R,0.750000X0.200000*%
%ADD46R,1.000000X1.600000*%
%ADD47R,3.000000X1.200000*%
%ADD48RoundRect,0.250000X-0.475000X0.250000X-0.475000X-0.250000X0.475000X-0.250000X0.475000X0.250000X0*%
%ADD49RoundRect,0.250000X-1.075000X0.375000X-1.075000X-0.375000X1.075000X-0.375000X1.075000X0.375000X0*%
%ADD50R,0.600000X1.150000*%
%ADD51R,0.300000X1.150000*%
%ADD52R,1.500000X1.500000*%
%ADD53R,0.475000X0.300000*%
%ADD54RoundRect,0.218750X-0.256250X0.218750X-0.256250X-0.218750X0.256250X-0.218750X0.256250X0.218750X0*%
%ADD55RoundRect,0.162500X-0.162500X0.650000X-0.162500X-0.650000X0.162500X-0.650000X0.162500X0.650000X0*%
%ADD56RoundRect,0.150000X-0.150000X-0.625000X0.150000X-0.625000X0.150000X0.625000X-0.150000X0.625000X0*%
%ADD57RoundRect,0.250000X-0.350000X-0.650000X0.350000X-0.650000X0.350000X0.650000X-0.350000X0.650000X0*%
%ADD58RoundRect,0.150000X0.150000X-0.587500X0.150000X0.587500X-0.150000X0.587500X-0.150000X-0.587500X0*%
%ADD59R,1.300000X1.050000*%
%ADD60R,0.300000X0.475000*%
G04 APERTURE END LIST*
D10*
%TO.C,R31*%
X145375000Y-79800000D03*
X143725000Y-79800000D03*
%TD*%
%TO.C,R15*%
X138625000Y-81500000D03*
X136975000Y-81500000D03*
%TD*%
D11*
%TO.C,C13*%
X129675000Y-99550000D03*
X129675000Y-101100000D03*
%TD*%
%TO.C,C9*%
X137700000Y-86725000D03*
X137700000Y-88275000D03*
%TD*%
D12*
%TO.C,C20*%
X109400000Y-75500000D03*
X107500000Y-75500000D03*
%TD*%
D13*
%TO.C,C3*%
X122125000Y-94275000D03*
X120575000Y-94275000D03*
%TD*%
D14*
%TO.C,U6*%
X140350000Y-82700000D03*
X141300000Y-82700000D03*
X142250000Y-82700000D03*
X142250000Y-80300000D03*
X140350000Y-80300000D03*
%TD*%
D15*
%TO.C,C1*%
X126525000Y-82650000D03*
X126525000Y-81100000D03*
%TD*%
D10*
%TO.C,R4*%
X108175000Y-50500000D03*
X109825000Y-50500000D03*
%TD*%
D16*
%TO.C,R8*%
X129725000Y-81050000D03*
X129725000Y-82700000D03*
%TD*%
%TO.C,R17*%
X116400000Y-59675000D03*
X116400000Y-61325000D03*
%TD*%
%TO.C,R12*%
X112500000Y-127175000D03*
X112500000Y-128825000D03*
%TD*%
D13*
%TO.C,C8*%
X123300000Y-91475000D03*
X121750000Y-91475000D03*
%TD*%
D17*
%TO.C,C12*%
X133725000Y-84200000D03*
X135275000Y-84200000D03*
%TD*%
D18*
%TO.C,D2*%
X136787500Y-54000000D03*
X135212500Y-54000000D03*
%TD*%
D19*
%TO.C,U1*%
X130925000Y-91175000D03*
X130925000Y-92575000D03*
X132325000Y-91175000D03*
X132325000Y-92575000D03*
D20*
X128187500Y-89075000D03*
D21*
X128187500Y-89475000D03*
X128187500Y-89875000D03*
X128187500Y-90275000D03*
X128187500Y-90675000D03*
X128187500Y-91075000D03*
X128187500Y-91475000D03*
X128187500Y-91875000D03*
X128187500Y-92275000D03*
X128187500Y-92675000D03*
X128187500Y-93075000D03*
X128187500Y-93475000D03*
X128187500Y-93875000D03*
X128187500Y-94275000D03*
D22*
X128187500Y-94675000D03*
D23*
X128825000Y-95312500D03*
D24*
X129225000Y-95312500D03*
X129625000Y-95312500D03*
X130025000Y-95312500D03*
X130425000Y-95312500D03*
X130825000Y-95312500D03*
X131225000Y-95312500D03*
X131625000Y-95312500D03*
X132025000Y-95312500D03*
X132425000Y-95312500D03*
X132825000Y-95312500D03*
X133225000Y-95312500D03*
X133625000Y-95312500D03*
X134025000Y-95312500D03*
D25*
X134425000Y-95312500D03*
D26*
X135062500Y-94675000D03*
D21*
X135062500Y-94275000D03*
X135062500Y-93875000D03*
X135062500Y-93475000D03*
X135062500Y-93075000D03*
X135062500Y-92675000D03*
X135062500Y-92275000D03*
X135062500Y-91875000D03*
X135062500Y-91475000D03*
X135062500Y-91075000D03*
X135062500Y-90675000D03*
X135062500Y-90275000D03*
X135062500Y-89875000D03*
X135062500Y-89475000D03*
D27*
X135062500Y-89075000D03*
D28*
X134425000Y-88437500D03*
D24*
X134025000Y-88437500D03*
X133625000Y-88437500D03*
X133225000Y-88437500D03*
X132825000Y-88437500D03*
X132425000Y-88437500D03*
X132025000Y-88437500D03*
X131625000Y-88437500D03*
X131225000Y-88437500D03*
X130825000Y-88437500D03*
X130425000Y-88437500D03*
X130025000Y-88437500D03*
X129625000Y-88437500D03*
X129225000Y-88437500D03*
D29*
X128825000Y-88437500D03*
%TD*%
D30*
%TO.C,U5*%
X111862500Y-79050000D03*
X111862500Y-80000000D03*
X111862500Y-80950000D03*
X114137500Y-80950000D03*
X114137500Y-80000000D03*
X114137500Y-79050000D03*
%TD*%
D31*
%TO.C,J8*%
X140225000Y-128875000D03*
D32*
X141700000Y-130375000D03*
D31*
X140225000Y-131875000D03*
D32*
X138750000Y-130375000D03*
%TD*%
D10*
%TO.C,R23*%
X128675000Y-70000000D03*
X130325000Y-70000000D03*
%TD*%
D33*
%TO.C,R28*%
X133500000Y-62650000D03*
X133500000Y-61000000D03*
%TD*%
D16*
%TO.C,R11*%
X114510000Y-127175000D03*
X114510000Y-128825000D03*
%TD*%
D13*
%TO.C,C14*%
X125275000Y-100900000D03*
X123725000Y-100900000D03*
%TD*%
D12*
%TO.C,C22*%
X116950000Y-65000000D03*
X115050000Y-65000000D03*
%TD*%
D34*
%TO.C,F2*%
X118000000Y-68025000D03*
X118000000Y-70975000D03*
%TD*%
D35*
%TO.C,L2*%
X111600000Y-76000000D03*
X114400000Y-76000000D03*
%TD*%
D17*
%TO.C,C6*%
X138325000Y-98200000D03*
X139875000Y-98200000D03*
%TD*%
D12*
%TO.C,C16*%
X109450000Y-78000000D03*
X107550000Y-78000000D03*
%TD*%
D36*
%TO.C,D3*%
X111575000Y-84400000D03*
X112525000Y-84400000D03*
X112525000Y-83450000D03*
X111575000Y-83450000D03*
%TD*%
D37*
%TO.C,R22*%
X130325000Y-68500000D03*
X128675000Y-68500000D03*
%TD*%
D10*
%TO.C,R14*%
X115275000Y-63000000D03*
X116925000Y-63000000D03*
%TD*%
D17*
%TO.C,C28*%
X133725000Y-85800000D03*
X135275000Y-85800000D03*
%TD*%
D33*
%TO.C,R26*%
X130500000Y-62650000D03*
X130500000Y-61000000D03*
%TD*%
D16*
%TO.C,R7*%
X128125000Y-81050000D03*
X128125000Y-82700000D03*
%TD*%
D38*
%TO.C,C17*%
X117000000Y-52950000D03*
X117000000Y-51050000D03*
%TD*%
D33*
%TO.C,R9*%
X124925000Y-82700000D03*
X124925000Y-81050000D03*
%TD*%
D39*
%TO.C,J10*%
X139700000Y-104600000D03*
X138700000Y-104600000D03*
X137700000Y-104600000D03*
D40*
X141000000Y-107125000D03*
X136400000Y-107125000D03*
%TD*%
D10*
%TO.C,R10*%
X109450000Y-73100000D03*
X111100000Y-73100000D03*
%TD*%
D16*
%TO.C,R1*%
X131225000Y-99500000D03*
X131225000Y-101150000D03*
%TD*%
%TO.C,R20*%
X124500000Y-77175000D03*
X124500000Y-78825000D03*
%TD*%
D37*
%TO.C,R29*%
X133325000Y-59500000D03*
X131675000Y-59500000D03*
%TD*%
D17*
%TO.C,C27*%
X131400000Y-53575000D03*
X132950000Y-53575000D03*
%TD*%
D41*
%TO.C,L4*%
X121900000Y-64500000D03*
X119100000Y-64500000D03*
%TD*%
D16*
%TO.C,R25*%
X125000000Y-58175000D03*
X125000000Y-59825000D03*
%TD*%
D33*
%TO.C,R16*%
X114900000Y-61325000D03*
X114900000Y-59675000D03*
%TD*%
D42*
%TO.C,C26*%
X121000000Y-75525000D03*
X121000000Y-78475000D03*
%TD*%
D43*
%TO.C,Fault1*%
X123500000Y-59787500D03*
X123500000Y-58212500D03*
%TD*%
D30*
%TO.C,U8*%
X127362500Y-76662500D03*
X127362500Y-77612500D03*
X127362500Y-78562500D03*
X129637500Y-78562500D03*
X129637500Y-77612500D03*
X129637500Y-76662500D03*
%TD*%
D44*
%TO.C,C23*%
X137975000Y-78000000D03*
X135025000Y-78000000D03*
%TD*%
D11*
%TO.C,C10*%
X132775000Y-99525000D03*
X132775000Y-101075000D03*
%TD*%
D17*
%TO.C,C11*%
X139475000Y-92350000D03*
X141025000Y-92350000D03*
%TD*%
%TO.C,C4*%
X139425000Y-89900000D03*
X140975000Y-89900000D03*
%TD*%
D45*
%TO.C,IC2*%
X127300000Y-56000000D03*
X127300000Y-56400000D03*
X127300000Y-56800000D03*
X127300000Y-57200000D03*
X127300000Y-57600000D03*
X129500000Y-57600000D03*
X129500000Y-57200000D03*
X129500000Y-56800000D03*
X129500000Y-56400000D03*
X129500000Y-56000000D03*
D46*
X128400000Y-56800000D03*
%TD*%
D47*
%TO.C,U4*%
X125225000Y-110900000D03*
X125225000Y-112900000D03*
X125225000Y-114900000D03*
X125225000Y-116900000D03*
X125225000Y-118900000D03*
X125225000Y-120900000D03*
X125225000Y-122900000D03*
X125225000Y-124900000D03*
X140225000Y-124900000D03*
X140225000Y-122900000D03*
X140225000Y-120900000D03*
X140225000Y-118900000D03*
X140225000Y-116900000D03*
X140225000Y-114900000D03*
X140225000Y-112900000D03*
X140225000Y-110900000D03*
%TD*%
D16*
%TO.C,R30*%
X113625000Y-105100000D03*
X113625000Y-106750000D03*
%TD*%
D48*
%TO.C,C25*%
X129000000Y-72050000D03*
X129000000Y-73950000D03*
%TD*%
D10*
%TO.C,R18*%
X121350000Y-52000000D03*
X123000000Y-52000000D03*
%TD*%
%TO.C,R6*%
X112950000Y-73100000D03*
X114600000Y-73100000D03*
%TD*%
%TO.C,R19*%
X131350000Y-52000000D03*
X133000000Y-52000000D03*
%TD*%
D49*
%TO.C,L3*%
X132000000Y-72100000D03*
X132000000Y-74900000D03*
%TD*%
D50*
%TO.C,J11*%
X130500000Y-49690000D03*
X129700000Y-49690000D03*
D51*
X128550000Y-49690000D03*
X127550000Y-49690000D03*
X127050000Y-49690000D03*
X126050000Y-49690000D03*
D50*
X124900000Y-49690000D03*
X124100000Y-49690000D03*
D51*
X125550000Y-49690000D03*
X126550000Y-49690000D03*
X128050000Y-49690000D03*
X129050000Y-49690000D03*
D52*
X132420000Y-49115000D03*
X122180000Y-49115000D03*
X132420000Y-45185000D03*
X122180000Y-45185000D03*
%TD*%
D11*
%TO.C,C24*%
X133000000Y-77225000D03*
X133000000Y-78775000D03*
%TD*%
D48*
%TO.C,C15*%
X126500000Y-72050000D03*
X126500000Y-73950000D03*
%TD*%
D53*
%TO.C,IC1*%
X124324000Y-67500000D03*
X124324000Y-68000000D03*
X124324000Y-68500000D03*
X124324000Y-69000000D03*
X126000000Y-69000000D03*
X126000000Y-68500000D03*
X126000000Y-68000000D03*
X126000000Y-67500000D03*
%TD*%
D13*
%TO.C,C7*%
X125250000Y-99325000D03*
X123700000Y-99325000D03*
%TD*%
D33*
%TO.C,R27*%
X132000000Y-62650000D03*
X132000000Y-61000000D03*
%TD*%
D16*
%TO.C,R3*%
X116500000Y-127175000D03*
X116500000Y-128825000D03*
%TD*%
D54*
%TO.C,CHG1*%
X123500000Y-55212500D03*
X123500000Y-56787500D03*
%TD*%
D55*
%TO.C,U2*%
X116905000Y-87912500D03*
X115635000Y-87912500D03*
X114365000Y-87912500D03*
X113095000Y-87912500D03*
X113095000Y-95087500D03*
X114365000Y-95087500D03*
X115635000Y-95087500D03*
X116905000Y-95087500D03*
%TD*%
D56*
%TO.C,J4*%
X127000000Y-128500000D03*
X128000000Y-128500000D03*
X129000000Y-128500000D03*
X130000000Y-128500000D03*
D57*
X125700000Y-132375000D03*
X131300000Y-132375000D03*
%TD*%
D58*
%TO.C,Q4*%
X121550000Y-72937500D03*
X123450000Y-72937500D03*
X122500000Y-71062500D03*
%TD*%
D59*
%TO.C,Y1*%
X117850000Y-104400000D03*
X120150000Y-104400000D03*
X120150000Y-102650000D03*
X117850000Y-102650000D03*
%TD*%
D13*
%TO.C,C2*%
X123275000Y-88100000D03*
X121725000Y-88100000D03*
%TD*%
D38*
%TO.C,C21*%
X115000000Y-52950000D03*
X115000000Y-51050000D03*
%TD*%
D48*
%TO.C,C18*%
X117000000Y-79050000D03*
X117000000Y-80950000D03*
%TD*%
D60*
%TO.C,IC3*%
X118700000Y-58138000D03*
X119200000Y-58138000D03*
X119700000Y-58138000D03*
X119700000Y-56462000D03*
X119200000Y-56462000D03*
X118700000Y-56462000D03*
%TD*%
D37*
%TO.C,R13*%
X139825000Y-54000000D03*
X138175000Y-54000000D03*
%TD*%
%TO.C,R21*%
X130325000Y-67000000D03*
X128675000Y-67000000D03*
%TD*%
D15*
%TO.C,C19*%
X117000000Y-77275000D03*
X117000000Y-75725000D03*
%TD*%
D33*
%TO.C,R24*%
X125000000Y-56825000D03*
X125000000Y-55175000D03*
%TD*%
D46*
%TO.C,L1*%
X132400000Y-81500000D03*
X134400000Y-81500000D03*
%TD*%
D16*
%TO.C,R5*%
X137700000Y-83575000D03*
X137700000Y-85225000D03*
%TD*%
%TO.C,R2*%
X118500000Y-127175000D03*
X118500000Y-128825000D03*
%TD*%
D54*
%TO.C,D1*%
X123250000Y-81137500D03*
X123250000Y-82712500D03*
%TD*%
D17*
%TO.C,C5*%
X139475000Y-93875000D03*
X141025000Y-93875000D03*
%TD*%
M02*
