G04 #@! TF.GenerationSoftware,KiCad,Pcbnew,9.0.4-9.0.4-0~ubuntu22.04.1*
G04 #@! TF.CreationDate,2025-09-21T20:46:50-04:00*
G04 #@! TF.ProjectId,Pico_RF_V1,5069636f-5f52-4465-9f56-312e6b696361,rev?*
G04 #@! TF.SameCoordinates,Original*
G04 #@! TF.FileFunction,Paste,Top*
G04 #@! TF.FilePolarity,Positive*
%FSLAX46Y46*%
G04 Gerber Fmt 4.6, Leading zero omitted, Abs format (unit mm)*
G04 Created by KiCad (PCBNEW 9.0.4-9.0.4-0~ubuntu22.04.1) date 2025-09-21 20:46:50*
%MOMM*%
%LPD*%
G01*
G04 APERTURE LIST*
G04 Aperture macros list*
%AMRoundRect*
0 Rectangle with rounded corners*
0 $1 Rounding radius*
0 $2 $3 $4 $5 $6 $7 $8 $9 X,Y pos of 4 corners*
0 Add a 4 corners polygon primitive as box body*
4,1,4,$2,$3,$4,$5,$6,$7,$8,$9,$2,$3,0*
0 Add four circle primitives for the rounded corners*
1,1,$1+$1,$2,$3*
1,1,$1+$1,$4,$5*
1,1,$1+$1,$6,$7*
1,1,$1+$1,$8,$9*
0 Add four rect primitives between the rounded corners*
20,1,$1+$1,$2,$3,$4,$5,0*
20,1,$1+$1,$4,$5,$6,$7,0*
20,1,$1+$1,$6,$7,$8,$9,0*
20,1,$1+$1,$8,$9,$2,$3,0*%
G04 Aperture macros list end*
%ADD10RoundRect,0.225000X0.225000X0.250000X-0.225000X0.250000X-0.225000X-0.250000X0.225000X-0.250000X0*%
%ADD11RoundRect,0.218750X0.218750X0.256250X-0.218750X0.256250X-0.218750X-0.256250X0.218750X-0.256250X0*%
%ADD12RoundRect,0.200000X-0.200000X-0.275000X0.200000X-0.275000X0.200000X0.275000X-0.200000X0.275000X0*%
%ADD13RoundRect,0.250000X1.075000X-0.375000X1.075000X0.375000X-1.075000X0.375000X-1.075000X-0.375000X0*%
%ADD14RoundRect,0.090000X0.660000X0.360000X-0.660000X0.360000X-0.660000X-0.360000X0.660000X-0.360000X0*%
%ADD15R,1.500000X4.000000*%
%ADD16RoundRect,0.200000X0.200000X0.275000X-0.200000X0.275000X-0.200000X-0.275000X0.200000X-0.275000X0*%
%ADD17RoundRect,0.250000X-0.292217X-0.292217X0.292217X-0.292217X0.292217X0.292217X-0.292217X0.292217X0*%
%ADD18RoundRect,0.050000X-0.387500X-0.050000X0.387500X-0.050000X0.387500X0.050000X-0.387500X0.050000X0*%
%ADD19RoundRect,0.050000X-0.050000X-0.387500X0.050000X-0.387500X0.050000X0.387500X-0.050000X0.387500X0*%
%ADD20RoundRect,0.200000X-0.275000X0.200000X-0.275000X-0.200000X0.275000X-0.200000X0.275000X0.200000X0*%
%ADD21RoundRect,0.150000X-0.150000X0.587500X-0.150000X-0.587500X0.150000X-0.587500X0.150000X0.587500X0*%
%ADD22RoundRect,0.100000X-0.400000X-0.400000X0.400000X-0.400000X0.400000X0.400000X-0.400000X0.400000X0*%
%ADD23RoundRect,0.105000X-0.420000X-0.995000X0.420000X-0.995000X0.420000X0.995000X-0.420000X0.995000X0*%
%ADD24RoundRect,0.225000X-0.250000X0.225000X-0.250000X-0.225000X0.250000X-0.225000X0.250000X0.225000X0*%
%ADD25RoundRect,0.250000X0.650000X-1.000000X0.650000X1.000000X-0.650000X1.000000X-0.650000X-1.000000X0*%
%ADD26RoundRect,0.225000X0.250000X-0.225000X0.250000X0.225000X-0.250000X0.225000X-0.250000X-0.225000X0*%
%ADD27RoundRect,0.150000X-0.650000X-0.150000X0.650000X-0.150000X0.650000X0.150000X-0.650000X0.150000X0*%
%ADD28RoundRect,0.218750X-0.218750X-0.256250X0.218750X-0.256250X0.218750X0.256250X-0.218750X0.256250X0*%
%ADD29RoundRect,0.150000X-0.512500X-0.150000X0.512500X-0.150000X0.512500X0.150000X-0.512500X0.150000X0*%
%ADD30R,0.550000X0.800000*%
%ADD31R,1.300000X1.050000*%
%ADD32RoundRect,0.225000X-0.225000X-0.250000X0.225000X-0.250000X0.225000X0.250000X-0.225000X0.250000X0*%
%ADD33RoundRect,0.150000X-0.150000X0.512500X-0.150000X-0.512500X0.150000X-0.512500X0.150000X0.512500X0*%
%ADD34RoundRect,0.150000X-0.150000X-0.625000X0.150000X-0.625000X0.150000X0.625000X-0.150000X0.625000X0*%
%ADD35RoundRect,0.250000X-0.350000X-0.650000X0.350000X-0.650000X0.350000X0.650000X-0.350000X0.650000X0*%
%ADD36R,0.600000X1.150000*%
%ADD37R,0.300000X1.150000*%
%ADD38R,1.500000X1.500000*%
%ADD39R,3.000000X1.200000*%
G04 APERTURE END LIST*
D10*
X114375000Y-116500000D03*
X112825000Y-116500000D03*
D11*
X123037500Y-122250000D03*
X121462500Y-122250000D03*
D12*
X118275000Y-71800000D03*
X119925000Y-71800000D03*
D13*
X126450000Y-78400000D03*
X126450000Y-75600000D03*
D14*
X113850000Y-70500000D03*
X113850000Y-67200000D03*
X108950000Y-67200000D03*
X108950000Y-70500000D03*
D15*
X130900000Y-82800000D03*
X134500000Y-82800000D03*
D16*
X131125000Y-73900000D03*
X129475000Y-73900000D03*
D12*
X111075000Y-75100000D03*
X112725000Y-75100000D03*
D17*
X126962500Y-103962500D03*
X126962500Y-105237500D03*
X128237500Y-103962500D03*
X128237500Y-105237500D03*
D18*
X124162500Y-102000000D03*
X124162500Y-102400000D03*
X124162500Y-102800000D03*
X124162500Y-103200000D03*
X124162500Y-103600000D03*
X124162500Y-104000000D03*
X124162500Y-104400000D03*
X124162500Y-104800000D03*
X124162500Y-105200000D03*
X124162500Y-105600000D03*
X124162500Y-106000000D03*
X124162500Y-106400000D03*
X124162500Y-106800000D03*
X124162500Y-107200000D03*
D19*
X125000000Y-108037500D03*
X125400000Y-108037500D03*
X125800000Y-108037500D03*
X126200000Y-108037500D03*
X126600000Y-108037500D03*
X127000000Y-108037500D03*
X127400000Y-108037500D03*
X127800000Y-108037500D03*
X128200000Y-108037500D03*
X128600000Y-108037500D03*
X129000000Y-108037500D03*
X129400000Y-108037500D03*
X129800000Y-108037500D03*
X130200000Y-108037500D03*
D18*
X131037500Y-107200000D03*
X131037500Y-106800000D03*
X131037500Y-106400000D03*
X131037500Y-106000000D03*
X131037500Y-105600000D03*
X131037500Y-105200000D03*
X131037500Y-104800000D03*
X131037500Y-104400000D03*
X131037500Y-104000000D03*
X131037500Y-103600000D03*
X131037500Y-103200000D03*
X131037500Y-102800000D03*
X131037500Y-102400000D03*
X131037500Y-102000000D03*
D19*
X130200000Y-101162500D03*
X129800000Y-101162500D03*
X129400000Y-101162500D03*
X129000000Y-101162500D03*
X128600000Y-101162500D03*
X128200000Y-101162500D03*
X127800000Y-101162500D03*
X127400000Y-101162500D03*
X127000000Y-101162500D03*
X126600000Y-101162500D03*
X126200000Y-101162500D03*
X125800000Y-101162500D03*
X125400000Y-101162500D03*
X125000000Y-101162500D03*
D20*
X127400000Y-112375000D03*
X127400000Y-114025000D03*
D21*
X135500000Y-76000000D03*
X133600000Y-76000000D03*
X134550000Y-77875000D03*
D22*
X137600000Y-145100000D03*
D23*
X139075000Y-146600000D03*
D22*
X137600000Y-148100000D03*
D23*
X136125000Y-146600000D03*
D24*
X129100000Y-112400000D03*
X129100000Y-113950000D03*
D25*
X134050000Y-71400000D03*
X134050000Y-67400000D03*
D26*
X133200000Y-95200000D03*
X133200000Y-93650000D03*
D20*
X140400000Y-112575000D03*
X140400000Y-114225000D03*
D27*
X108300000Y-95695000D03*
X108300000Y-96965000D03*
X108300000Y-98235000D03*
X108300000Y-99505000D03*
X115500000Y-99505000D03*
X115500000Y-98235000D03*
X115500000Y-96965000D03*
X115500000Y-95695000D03*
D28*
X111012500Y-88000000D03*
X112587500Y-88000000D03*
D20*
X140600000Y-119175000D03*
X140600000Y-120825000D03*
D12*
X129475000Y-71750000D03*
X131125000Y-71750000D03*
D15*
X120700000Y-83000000D03*
X117100000Y-83000000D03*
D26*
X129600000Y-95200000D03*
X129600000Y-93650000D03*
D10*
X129475000Y-89300000D03*
X127925000Y-89300000D03*
D24*
X130800000Y-112400000D03*
X130800000Y-113950000D03*
D10*
X129475000Y-87400000D03*
X127925000Y-87400000D03*
D12*
X110975000Y-89700000D03*
X112625000Y-89700000D03*
D26*
X124100000Y-95150000D03*
X124100000Y-93600000D03*
D20*
X126000000Y-93600000D03*
X126000000Y-95250000D03*
D10*
X118175000Y-107200000D03*
X116625000Y-107200000D03*
D26*
X122400000Y-95150000D03*
X122400000Y-93600000D03*
D12*
X126400000Y-83400000D03*
X128050000Y-83400000D03*
D10*
X120075000Y-102000000D03*
X118525000Y-102000000D03*
D29*
X131262500Y-87450000D03*
X131262500Y-88400000D03*
X131262500Y-89350000D03*
X133537500Y-89350000D03*
X133537500Y-88400000D03*
X133537500Y-87450000D03*
D24*
X114400000Y-81450000D03*
X114400000Y-83000000D03*
D30*
X137400000Y-99750000D03*
X138350000Y-99750000D03*
X139300000Y-99750000D03*
X139300000Y-97350000D03*
X137400000Y-97350000D03*
D31*
X117300000Y-116450000D03*
X119600000Y-116450000D03*
X119600000Y-114600000D03*
X117300000Y-114600000D03*
D16*
X128025000Y-85200000D03*
X126375000Y-85200000D03*
D32*
X119375000Y-76775000D03*
X120925000Y-76775000D03*
X119550000Y-111600000D03*
X121100000Y-111600000D03*
D20*
X127600000Y-93600000D03*
X127600000Y-95250000D03*
D12*
X121425000Y-124000000D03*
X123075000Y-124000000D03*
D24*
X135500000Y-87425000D03*
X135500000Y-88975000D03*
X134500000Y-106100000D03*
X134500000Y-107650000D03*
D33*
X117650000Y-76112500D03*
X116700000Y-76112500D03*
X115750000Y-76112500D03*
X115750000Y-78387500D03*
X116700000Y-78387500D03*
X117650000Y-78387500D03*
D34*
X125950000Y-144375000D03*
X126950000Y-144375000D03*
X127950000Y-144375000D03*
X128950000Y-144375000D03*
D35*
X124650000Y-148250000D03*
X130250000Y-148250000D03*
D20*
X124900000Y-112375000D03*
X124900000Y-114025000D03*
D21*
X131050000Y-75925000D03*
X129150000Y-75925000D03*
X130100000Y-77800000D03*
D26*
X120700000Y-95150000D03*
X120700000Y-93600000D03*
D36*
X126700000Y-69075000D03*
X125900000Y-69075000D03*
D37*
X124750000Y-69075000D03*
X123750000Y-69075000D03*
X123250000Y-69075000D03*
X122250000Y-69075000D03*
D36*
X121100000Y-69075000D03*
X120300000Y-69075000D03*
D37*
X121750000Y-69075000D03*
X122750000Y-69075000D03*
X124250000Y-69075000D03*
X125250000Y-69075000D03*
D38*
X128620000Y-68500000D03*
X118380000Y-68500000D03*
X128620000Y-64570000D03*
X118380000Y-64570000D03*
D32*
X119400000Y-78475000D03*
X120950000Y-78475000D03*
D26*
X131300000Y-95175000D03*
X131300000Y-93625000D03*
D16*
X112600000Y-91400000D03*
X110950000Y-91400000D03*
D39*
X122600000Y-127600000D03*
X122600000Y-129600000D03*
X122600000Y-131600000D03*
X122600000Y-133600000D03*
X122600000Y-135600000D03*
X122600000Y-137600000D03*
X122600000Y-139600000D03*
X122600000Y-141600000D03*
X137600000Y-141600000D03*
X137600000Y-139600000D03*
X137600000Y-137600000D03*
X137600000Y-135600000D03*
X137600000Y-133600000D03*
X137600000Y-131600000D03*
X137600000Y-129600000D03*
X137600000Y-127600000D03*
D32*
X132725000Y-99750000D03*
X134275000Y-99750000D03*
M02*
