M48
; DRILL file {KiCad 9.0.4-9.0.4-0~ubuntu22.04.1} date 2025-09-21T20:46:35-0400
; FORMAT={-:-/ absolute / metric / decimal}
; #@! TF.CreationDate,2025-09-21T20:46:35-04:00
; #@! TF.GenerationSoftware,Kicad,Pcbnew,9.0.4-9.0.4-0~ubuntu22.04.1
; #@! TF.FileFunction,Plated,1,2,PTH
FMAT,2
METRIC
; #@! TA.AperFunction,Plated,PTH,ViaDrill
T1C0.300
; #@! TA.AperFunction,Plated,PTH,ComponentDrill
T2C0.350
; #@! TA.AperFunction,Plated,PTH,ComponentDrill
T3C0.740
; #@! TA.AperFunction,Plated,PTH,ComponentDrill
T4C1.000
; #@! TA.AperFunction,Plated,PTH,ComponentDrill
T5C1.240
; #@! TA.AperFunction,Plated,PTH,ComponentDrill
T6C1.520
%
G90
G05
T1
X101.5Y-94.5
X101.75Y-78.5
X101.75Y-86.0
X102.5Y-71.0
X103.5Y-94.5
X104.939Y-143.218
X104.95Y-75.1
X104.95Y-82.4
X104.95Y-89.8
X105.75Y-70.0
X106.0Y-72.0
X107.1Y-147.458
X107.15Y-102.125
X107.175Y-107.325
X109.5Y-91.4
X109.5Y-93.6
X109.7Y-99.5
X109.7Y-102.1
X110.55Y-115.575
X111.1Y-76.8
X111.25Y-79.5
X111.25Y-81.5
X111.25Y-85.75
X111.35Y-118.05
X111.5Y-68.0
X112.5Y-148.5
X113.625Y-128.0
X113.675Y-125.75
X113.7Y-139.525
X113.725Y-136.8
X113.875Y-119.3
X114.45Y-73.775
X115.05Y-107.2
X115.75Y-65.25
X116.0Y-87.9
X116.25Y-90.25
X117.3Y-112.5
X118.475Y-79.925
X119.25Y-87.5
X119.55Y-73.525
X119.6Y-120.9
X119.75Y-125.75
X119.825Y-122.55
X120.0Y-144.5
X120.0Y-146.0
X120.775Y-147.05
X120.975Y-106.375
X121.0Y-65.25
X121.2Y-89.0
X121.75Y-91.25
X121.9Y-116.4
X121.95Y-79.975
X122.3Y-73.0
X122.375Y-75.05
X122.4Y-111.6
X122.5Y-71.5
X122.8Y-89.5
X123.2Y-113.3
X123.2Y-118.127
X123.727Y-114.0
X123.727Y-115.0
X124.6Y-115.6
X124.602Y-118.126
X125.1Y-71.5
X125.5Y-88.1
X125.55Y-81.85
X125.75Y-127.5
X125.75Y-130.5
X125.75Y-132.5
X125.75Y-134.5
X125.75Y-136.5
X125.75Y-140.0
X126.25Y-65.25
X126.25Y-147.75
X126.4Y-79.775
X126.45Y-73.8
X126.6Y-107.0
X126.75Y-117.5
X127.012Y-86.487
X127.4Y-115.0
X128.0Y-70.0
X128.0Y-91.5
X128.5Y-116.0
X128.75Y-118.0
X128.825Y-147.75
X129.2Y-82.8
X130.0Y-118.0
X130.25Y-91.5
X130.25Y-123.25
X131.4Y-79.4
X131.5Y-134.5
X131.55Y-136.95
X132.3Y-80.35
X132.6Y-98.0
X132.65Y-145.55
X132.9Y-101.8
X133.3Y-79.4
X133.35Y-144.75
X134.0Y-130.5
X134.0Y-139.0
X134.125Y-144.025
X134.575Y-145.9
X134.6Y-146.675
X134.85Y-143.275
X135.1Y-108.7
X135.1Y-131.5
X135.3Y-132.7
X135.5Y-95.25
X135.75Y-142.75
X135.95Y-98.225
X136.1Y-144.4
X136.35Y-124.15
X136.7Y-142.75
X136.75Y-91.25
X136.925Y-124.675
X137.0Y-75.25
X137.0Y-80.25
X137.25Y-85.0
X137.4Y-95.1
X137.5Y-125.25
X137.9Y-122.6
X138.4Y-142.9
X138.425Y-143.7
X138.45Y-123.15
X138.825Y-144.5
X139.0Y-117.6
X140.4Y-116.0
X140.5Y-128.3
X142.5Y-122.3
T2
X126.325Y-103.325
X126.325Y-104.6
X126.325Y-105.875
X127.6Y-103.325
X127.6Y-104.6
X127.6Y-105.875
X128.875Y-103.325
X128.875Y-104.6
X128.875Y-105.875
T3
X109.2Y-123.36
X109.2Y-125.9
X109.2Y-128.44
X109.2Y-130.98
X109.2Y-133.52
X109.2Y-136.06
X109.2Y-138.6
X109.2Y-141.14
X116.82Y-123.36
X116.82Y-125.9
X116.82Y-128.44
X116.82Y-130.98
X116.82Y-133.52
X116.82Y-136.06
X116.82Y-138.6
X116.82Y-141.14
T4
X102.2Y-98.52
X102.2Y-101.06
X102.2Y-103.6
X102.2Y-106.14
X102.2Y-108.68
X102.2Y-111.22
X102.2Y-113.76
X102.2Y-116.3
X102.2Y-118.84
X102.2Y-121.38
X102.2Y-123.92
X102.2Y-126.46
X102.2Y-129.0
X102.2Y-131.54
X102.2Y-134.08
X102.2Y-136.62
X102.2Y-139.16
X102.2Y-141.7
X109.98Y-146.4
X112.52Y-146.4
X115.06Y-146.4
X117.6Y-146.4
X133.25Y-147.25
X144.7Y-98.22
X144.7Y-100.76
X144.7Y-103.3
X144.7Y-105.84
X144.7Y-108.38
X144.7Y-110.92
X144.7Y-113.46
X144.7Y-116.0
X144.7Y-118.54
X144.7Y-121.08
X144.7Y-123.62
X144.7Y-126.16
X144.7Y-128.7
X144.7Y-131.24
X144.7Y-133.78
X144.7Y-136.32
X144.7Y-138.86
X144.7Y-141.4
T5
X101.7Y-75.1
X101.7Y-82.4
X101.7Y-89.8
X108.2Y-75.1
X108.2Y-82.4
X108.2Y-89.8
X127.0Y-123.25
X133.5Y-123.25
T6
X142.5Y-72.82
X142.5Y-77.9
X142.5Y-83.4
X142.5Y-88.48
X142.5Y-93.56
M30
