G04 #@! TF.GenerationSoftware,KiCad,Pcbnew,9.0.4-9.0.4-0~ubuntu22.04.1*
G04 #@! TF.CreationDate,2025-09-21T20:47:05-04:00*
G04 #@! TF.ProjectId,Pico_RF_V1,5069636f-5f52-4465-9f56-312e6b696361,rev?*
G04 #@! TF.SameCoordinates,Original*
G04 #@! TF.FileFunction,Soldermask,Bot*
G04 #@! TF.FilePolarity,Negative*
%FSLAX46Y46*%
G04 Gerber Fmt 4.6, Leading zero omitted, Abs format (unit mm)*
G04 Created by KiCad (PCBNEW 9.0.4-9.0.4-0~ubuntu22.04.1) date 2025-09-21 20:47:05*
%MOMM*%
%LPD*%
G01*
G04 APERTURE LIST*
G04 APERTURE END LIST*
G36*
X133496742Y-146436601D02*
G01*
X133650687Y-146500367D01*
X133789234Y-146592941D01*
X133907059Y-146710766D01*
X133999633Y-146849313D01*
X134063399Y-147003258D01*
X134095907Y-147166685D01*
X134095907Y-147333315D01*
X134063399Y-147496742D01*
X133999633Y-147650687D01*
X133907059Y-147789234D01*
X133789234Y-147907059D01*
X133650687Y-147999633D01*
X133496742Y-148063399D01*
X133333315Y-148095907D01*
X133166685Y-148095907D01*
X133003258Y-148063399D01*
X132849313Y-147999633D01*
X132710766Y-147907059D01*
X132592941Y-147789234D01*
X132500367Y-147650687D01*
X132436601Y-147496742D01*
X132404093Y-147333315D01*
X132404093Y-147166685D01*
X132436601Y-147003258D01*
X132500367Y-146849313D01*
X132592941Y-146710766D01*
X132710766Y-146592941D01*
X132849313Y-146500367D01*
X133003258Y-146436601D01*
X133166685Y-146404093D01*
X133333315Y-146404093D01*
X133496742Y-146436601D01*
G37*
G36*
X103815151Y-145212427D02*
G01*
X104016623Y-145277889D01*
X104205373Y-145374062D01*
X104376755Y-145498578D01*
X104526548Y-145648371D01*
X104651064Y-145819753D01*
X104747237Y-146008503D01*
X104812699Y-146209975D01*
X104845838Y-146419206D01*
X104845838Y-146631046D01*
X104812699Y-146840277D01*
X104747237Y-147041749D01*
X104651064Y-147230499D01*
X104526548Y-147401881D01*
X104376755Y-147551674D01*
X104205373Y-147676190D01*
X104016623Y-147772363D01*
X103815151Y-147837825D01*
X103605920Y-147870964D01*
X103394080Y-147870964D01*
X103184849Y-147837825D01*
X102983377Y-147772363D01*
X102794627Y-147676190D01*
X102623245Y-147551674D01*
X102473452Y-147401881D01*
X102348936Y-147230499D01*
X102252763Y-147041749D01*
X102187301Y-146840277D01*
X102154162Y-146631046D01*
X102154162Y-146419206D01*
X102187301Y-146209975D01*
X102252763Y-146008503D01*
X102348936Y-145819753D01*
X102473452Y-145648371D01*
X102623245Y-145498578D01*
X102794627Y-145374062D01*
X102983377Y-145277889D01*
X103184849Y-145212427D01*
X103394080Y-145179288D01*
X103605920Y-145179288D01*
X103815151Y-145212427D01*
G37*
G36*
X143715151Y-144887301D02*
G01*
X143916623Y-144952763D01*
X144105373Y-145048936D01*
X144276755Y-145173452D01*
X144426548Y-145323245D01*
X144551064Y-145494627D01*
X144647237Y-145683377D01*
X144712699Y-145884849D01*
X144745838Y-146094080D01*
X144745838Y-146305920D01*
X144712699Y-146515151D01*
X144647237Y-146716623D01*
X144551064Y-146905373D01*
X144426548Y-147076755D01*
X144276755Y-147226548D01*
X144105373Y-147351064D01*
X143916623Y-147447237D01*
X143715151Y-147512699D01*
X143505920Y-147545838D01*
X143294080Y-147545838D01*
X143084849Y-147512699D01*
X142883377Y-147447237D01*
X142694627Y-147351064D01*
X142523245Y-147226548D01*
X142373452Y-147076755D01*
X142248936Y-146905373D01*
X142152763Y-146716623D01*
X142087301Y-146515151D01*
X142054162Y-146305920D01*
X142054162Y-146094080D01*
X142087301Y-145884849D01*
X142152763Y-145683377D01*
X142248936Y-145494627D01*
X142373452Y-145323245D01*
X142523245Y-145173452D01*
X142694627Y-145048936D01*
X142883377Y-144952763D01*
X143084849Y-144887301D01*
X143294080Y-144854162D01*
X143505920Y-144854162D01*
X143715151Y-144887301D01*
G37*
G36*
X110226742Y-145586601D02*
G01*
X110380687Y-145650367D01*
X110519234Y-145742941D01*
X110637059Y-145860766D01*
X110729633Y-145999313D01*
X110793399Y-146153258D01*
X110825907Y-146316685D01*
X110825907Y-146483315D01*
X110793399Y-146646742D01*
X110729633Y-146800687D01*
X110637059Y-146939234D01*
X110519234Y-147057059D01*
X110380687Y-147149633D01*
X110226742Y-147213399D01*
X110063315Y-147245907D01*
X109896685Y-147245907D01*
X109733258Y-147213399D01*
X109579313Y-147149633D01*
X109440766Y-147057059D01*
X109322941Y-146939234D01*
X109230367Y-146800687D01*
X109166601Y-146646742D01*
X109134093Y-146483315D01*
X109134093Y-146316685D01*
X109166601Y-146153258D01*
X109230367Y-145999313D01*
X109322941Y-145860766D01*
X109440766Y-145742941D01*
X109579313Y-145650367D01*
X109733258Y-145586601D01*
X109896685Y-145554093D01*
X110063315Y-145554093D01*
X110226742Y-145586601D01*
G37*
G36*
X112766742Y-145586601D02*
G01*
X112920687Y-145650367D01*
X113059234Y-145742941D01*
X113177059Y-145860766D01*
X113269633Y-145999313D01*
X113333399Y-146153258D01*
X113365907Y-146316685D01*
X113365907Y-146483315D01*
X113333399Y-146646742D01*
X113269633Y-146800687D01*
X113177059Y-146939234D01*
X113059234Y-147057059D01*
X112920687Y-147149633D01*
X112766742Y-147213399D01*
X112603315Y-147245907D01*
X112436685Y-147245907D01*
X112273258Y-147213399D01*
X112119313Y-147149633D01*
X111980766Y-147057059D01*
X111862941Y-146939234D01*
X111770367Y-146800687D01*
X111706601Y-146646742D01*
X111674093Y-146483315D01*
X111674093Y-146316685D01*
X111706601Y-146153258D01*
X111770367Y-145999313D01*
X111862941Y-145860766D01*
X111980766Y-145742941D01*
X112119313Y-145650367D01*
X112273258Y-145586601D01*
X112436685Y-145554093D01*
X112603315Y-145554093D01*
X112766742Y-145586601D01*
G37*
G36*
X115306742Y-145586601D02*
G01*
X115460687Y-145650367D01*
X115599234Y-145742941D01*
X115717059Y-145860766D01*
X115809633Y-145999313D01*
X115873399Y-146153258D01*
X115905907Y-146316685D01*
X115905907Y-146483315D01*
X115873399Y-146646742D01*
X115809633Y-146800687D01*
X115717059Y-146939234D01*
X115599234Y-147057059D01*
X115460687Y-147149633D01*
X115306742Y-147213399D01*
X115143315Y-147245907D01*
X114976685Y-147245907D01*
X114813258Y-147213399D01*
X114659313Y-147149633D01*
X114520766Y-147057059D01*
X114402941Y-146939234D01*
X114310367Y-146800687D01*
X114246601Y-146646742D01*
X114214093Y-146483315D01*
X114214093Y-146316685D01*
X114246601Y-146153258D01*
X114310367Y-145999313D01*
X114402941Y-145860766D01*
X114520766Y-145742941D01*
X114659313Y-145650367D01*
X114813258Y-145586601D01*
X114976685Y-145554093D01*
X115143315Y-145554093D01*
X115306742Y-145586601D01*
G37*
G36*
X117846742Y-145586601D02*
G01*
X118000687Y-145650367D01*
X118139234Y-145742941D01*
X118257059Y-145860766D01*
X118349633Y-145999313D01*
X118413399Y-146153258D01*
X118445907Y-146316685D01*
X118445907Y-146483315D01*
X118413399Y-146646742D01*
X118349633Y-146800687D01*
X118257059Y-146939234D01*
X118139234Y-147057059D01*
X118000687Y-147149633D01*
X117846742Y-147213399D01*
X117683315Y-147245907D01*
X117516685Y-147245907D01*
X117353258Y-147213399D01*
X117199313Y-147149633D01*
X117060766Y-147057059D01*
X116942941Y-146939234D01*
X116850367Y-146800687D01*
X116786601Y-146646742D01*
X116754093Y-146483315D01*
X116754093Y-146316685D01*
X116786601Y-146153258D01*
X116850367Y-145999313D01*
X116942941Y-145860766D01*
X117060766Y-145742941D01*
X117199313Y-145650367D01*
X117353258Y-145586601D01*
X117516685Y-145554093D01*
X117683315Y-145554093D01*
X117846742Y-145586601D01*
G37*
G36*
X102446742Y-140886601D02*
G01*
X102600687Y-140950367D01*
X102739234Y-141042941D01*
X102857059Y-141160766D01*
X102949633Y-141299313D01*
X103013399Y-141453258D01*
X103045907Y-141616685D01*
X103045907Y-141783315D01*
X103013399Y-141946742D01*
X102949633Y-142100687D01*
X102857059Y-142239234D01*
X102739234Y-142357059D01*
X102600687Y-142449633D01*
X102446742Y-142513399D01*
X102283315Y-142545907D01*
X102116685Y-142545907D01*
X101953258Y-142513399D01*
X101799313Y-142449633D01*
X101660766Y-142357059D01*
X101542941Y-142239234D01*
X101450367Y-142100687D01*
X101386601Y-141946742D01*
X101354093Y-141783315D01*
X101354093Y-141616685D01*
X101386601Y-141453258D01*
X101450367Y-141299313D01*
X101542941Y-141160766D01*
X101660766Y-141042941D01*
X101799313Y-140950367D01*
X101953258Y-140886601D01*
X102116685Y-140854093D01*
X102283315Y-140854093D01*
X102446742Y-140886601D01*
G37*
G36*
X144946742Y-140586601D02*
G01*
X145100687Y-140650367D01*
X145239234Y-140742941D01*
X145357059Y-140860766D01*
X145449633Y-140999313D01*
X145513399Y-141153258D01*
X145545907Y-141316685D01*
X145545907Y-141483315D01*
X145513399Y-141646742D01*
X145449633Y-141800687D01*
X145357059Y-141939234D01*
X145239234Y-142057059D01*
X145100687Y-142149633D01*
X144946742Y-142213399D01*
X144783315Y-142245907D01*
X144616685Y-142245907D01*
X144453258Y-142213399D01*
X144299313Y-142149633D01*
X144160766Y-142057059D01*
X144042941Y-141939234D01*
X143950367Y-141800687D01*
X143886601Y-141646742D01*
X143854093Y-141483315D01*
X143854093Y-141316685D01*
X143886601Y-141153258D01*
X143950367Y-140999313D01*
X144042941Y-140860766D01*
X144160766Y-140742941D01*
X144299313Y-140650367D01*
X144453258Y-140586601D01*
X144616685Y-140554093D01*
X144783315Y-140554093D01*
X144946742Y-140586601D01*
G37*
G36*
X109384186Y-140532821D02*
G01*
X109499101Y-140580421D01*
X109602523Y-140649525D01*
X109690475Y-140737477D01*
X109759579Y-140840899D01*
X109807179Y-140955814D01*
X109831445Y-141077808D01*
X109831445Y-141202192D01*
X109807179Y-141324186D01*
X109759579Y-141439101D01*
X109690475Y-141542523D01*
X109602523Y-141630475D01*
X109499101Y-141699579D01*
X109384186Y-141747179D01*
X109262192Y-141771445D01*
X109137808Y-141771445D01*
X109015814Y-141747179D01*
X108900899Y-141699579D01*
X108797477Y-141630475D01*
X108709525Y-141542523D01*
X108640421Y-141439101D01*
X108592821Y-141324186D01*
X108568555Y-141202192D01*
X108568555Y-141077808D01*
X108592821Y-140955814D01*
X108640421Y-140840899D01*
X108709525Y-140737477D01*
X108797477Y-140649525D01*
X108900899Y-140580421D01*
X109015814Y-140532821D01*
X109137808Y-140508555D01*
X109262192Y-140508555D01*
X109384186Y-140532821D01*
G37*
G36*
X117004186Y-140532821D02*
G01*
X117119101Y-140580421D01*
X117222523Y-140649525D01*
X117310475Y-140737477D01*
X117379579Y-140840899D01*
X117427179Y-140955814D01*
X117451445Y-141077808D01*
X117451445Y-141202192D01*
X117427179Y-141324186D01*
X117379579Y-141439101D01*
X117310475Y-141542523D01*
X117222523Y-141630475D01*
X117119101Y-141699579D01*
X117004186Y-141747179D01*
X116882192Y-141771445D01*
X116757808Y-141771445D01*
X116635814Y-141747179D01*
X116520899Y-141699579D01*
X116417477Y-141630475D01*
X116329525Y-141542523D01*
X116260421Y-141439101D01*
X116212821Y-141324186D01*
X116188555Y-141202192D01*
X116188555Y-141077808D01*
X116212821Y-140955814D01*
X116260421Y-140840899D01*
X116329525Y-140737477D01*
X116417477Y-140649525D01*
X116520899Y-140580421D01*
X116635814Y-140532821D01*
X116757808Y-140508555D01*
X116882192Y-140508555D01*
X117004186Y-140532821D01*
G37*
G36*
X102446742Y-138346601D02*
G01*
X102600687Y-138410367D01*
X102739234Y-138502941D01*
X102857059Y-138620766D01*
X102949633Y-138759313D01*
X103013399Y-138913258D01*
X103045907Y-139076685D01*
X103045907Y-139243315D01*
X103013399Y-139406742D01*
X102949633Y-139560687D01*
X102857059Y-139699234D01*
X102739234Y-139817059D01*
X102600687Y-139909633D01*
X102446742Y-139973399D01*
X102283315Y-140005907D01*
X102116685Y-140005907D01*
X101953258Y-139973399D01*
X101799313Y-139909633D01*
X101660766Y-139817059D01*
X101542941Y-139699234D01*
X101450367Y-139560687D01*
X101386601Y-139406742D01*
X101354093Y-139243315D01*
X101354093Y-139076685D01*
X101386601Y-138913258D01*
X101450367Y-138759313D01*
X101542941Y-138620766D01*
X101660766Y-138502941D01*
X101799313Y-138410367D01*
X101953258Y-138346601D01*
X102116685Y-138314093D01*
X102283315Y-138314093D01*
X102446742Y-138346601D01*
G37*
G36*
X144946742Y-138046601D02*
G01*
X145100687Y-138110367D01*
X145239234Y-138202941D01*
X145357059Y-138320766D01*
X145449633Y-138459313D01*
X145513399Y-138613258D01*
X145545907Y-138776685D01*
X145545907Y-138943315D01*
X145513399Y-139106742D01*
X145449633Y-139260687D01*
X145357059Y-139399234D01*
X145239234Y-139517059D01*
X145100687Y-139609633D01*
X144946742Y-139673399D01*
X144783315Y-139705907D01*
X144616685Y-139705907D01*
X144453258Y-139673399D01*
X144299313Y-139609633D01*
X144160766Y-139517059D01*
X144042941Y-139399234D01*
X143950367Y-139260687D01*
X143886601Y-139106742D01*
X143854093Y-138943315D01*
X143854093Y-138776685D01*
X143886601Y-138613258D01*
X143950367Y-138459313D01*
X144042941Y-138320766D01*
X144160766Y-138202941D01*
X144299313Y-138110367D01*
X144453258Y-138046601D01*
X144616685Y-138014093D01*
X144783315Y-138014093D01*
X144946742Y-138046601D01*
G37*
G36*
X109384186Y-137992821D02*
G01*
X109499101Y-138040421D01*
X109602523Y-138109525D01*
X109690475Y-138197477D01*
X109759579Y-138300899D01*
X109807179Y-138415814D01*
X109831445Y-138537808D01*
X109831445Y-138662192D01*
X109807179Y-138784186D01*
X109759579Y-138899101D01*
X109690475Y-139002523D01*
X109602523Y-139090475D01*
X109499101Y-139159579D01*
X109384186Y-139207179D01*
X109262192Y-139231445D01*
X109137808Y-139231445D01*
X109015814Y-139207179D01*
X108900899Y-139159579D01*
X108797477Y-139090475D01*
X108709525Y-139002523D01*
X108640421Y-138899101D01*
X108592821Y-138784186D01*
X108568555Y-138662192D01*
X108568555Y-138537808D01*
X108592821Y-138415814D01*
X108640421Y-138300899D01*
X108709525Y-138197477D01*
X108797477Y-138109525D01*
X108900899Y-138040421D01*
X109015814Y-137992821D01*
X109137808Y-137968555D01*
X109262192Y-137968555D01*
X109384186Y-137992821D01*
G37*
G36*
X117004186Y-137992821D02*
G01*
X117119101Y-138040421D01*
X117222523Y-138109525D01*
X117310475Y-138197477D01*
X117379579Y-138300899D01*
X117427179Y-138415814D01*
X117451445Y-138537808D01*
X117451445Y-138662192D01*
X117427179Y-138784186D01*
X117379579Y-138899101D01*
X117310475Y-139002523D01*
X117222523Y-139090475D01*
X117119101Y-139159579D01*
X117004186Y-139207179D01*
X116882192Y-139231445D01*
X116757808Y-139231445D01*
X116635814Y-139207179D01*
X116520899Y-139159579D01*
X116417477Y-139090475D01*
X116329525Y-139002523D01*
X116260421Y-138899101D01*
X116212821Y-138784186D01*
X116188555Y-138662192D01*
X116188555Y-138537808D01*
X116212821Y-138415814D01*
X116260421Y-138300899D01*
X116329525Y-138197477D01*
X116417477Y-138109525D01*
X116520899Y-138040421D01*
X116635814Y-137992821D01*
X116757808Y-137968555D01*
X116882192Y-137968555D01*
X117004186Y-137992821D01*
G37*
G36*
X102446742Y-135806601D02*
G01*
X102600687Y-135870367D01*
X102739234Y-135962941D01*
X102857059Y-136080766D01*
X102949633Y-136219313D01*
X103013399Y-136373258D01*
X103045907Y-136536685D01*
X103045907Y-136703315D01*
X103013399Y-136866742D01*
X102949633Y-137020687D01*
X102857059Y-137159234D01*
X102739234Y-137277059D01*
X102600687Y-137369633D01*
X102446742Y-137433399D01*
X102283315Y-137465907D01*
X102116685Y-137465907D01*
X101953258Y-137433399D01*
X101799313Y-137369633D01*
X101660766Y-137277059D01*
X101542941Y-137159234D01*
X101450367Y-137020687D01*
X101386601Y-136866742D01*
X101354093Y-136703315D01*
X101354093Y-136536685D01*
X101386601Y-136373258D01*
X101450367Y-136219313D01*
X101542941Y-136080766D01*
X101660766Y-135962941D01*
X101799313Y-135870367D01*
X101953258Y-135806601D01*
X102116685Y-135774093D01*
X102283315Y-135774093D01*
X102446742Y-135806601D01*
G37*
G36*
X144946742Y-135506601D02*
G01*
X145100687Y-135570367D01*
X145239234Y-135662941D01*
X145357059Y-135780766D01*
X145449633Y-135919313D01*
X145513399Y-136073258D01*
X145545907Y-136236685D01*
X145545907Y-136403315D01*
X145513399Y-136566742D01*
X145449633Y-136720687D01*
X145357059Y-136859234D01*
X145239234Y-136977059D01*
X145100687Y-137069633D01*
X144946742Y-137133399D01*
X144783315Y-137165907D01*
X144616685Y-137165907D01*
X144453258Y-137133399D01*
X144299313Y-137069633D01*
X144160766Y-136977059D01*
X144042941Y-136859234D01*
X143950367Y-136720687D01*
X143886601Y-136566742D01*
X143854093Y-136403315D01*
X143854093Y-136236685D01*
X143886601Y-136073258D01*
X143950367Y-135919313D01*
X144042941Y-135780766D01*
X144160766Y-135662941D01*
X144299313Y-135570367D01*
X144453258Y-135506601D01*
X144616685Y-135474093D01*
X144783315Y-135474093D01*
X144946742Y-135506601D01*
G37*
G36*
X109384186Y-135452821D02*
G01*
X109499101Y-135500421D01*
X109602523Y-135569525D01*
X109690475Y-135657477D01*
X109759579Y-135760899D01*
X109807179Y-135875814D01*
X109831445Y-135997808D01*
X109831445Y-136122192D01*
X109807179Y-136244186D01*
X109759579Y-136359101D01*
X109690475Y-136462523D01*
X109602523Y-136550475D01*
X109499101Y-136619579D01*
X109384186Y-136667179D01*
X109262192Y-136691445D01*
X109137808Y-136691445D01*
X109015814Y-136667179D01*
X108900899Y-136619579D01*
X108797477Y-136550475D01*
X108709525Y-136462523D01*
X108640421Y-136359101D01*
X108592821Y-136244186D01*
X108568555Y-136122192D01*
X108568555Y-135997808D01*
X108592821Y-135875814D01*
X108640421Y-135760899D01*
X108709525Y-135657477D01*
X108797477Y-135569525D01*
X108900899Y-135500421D01*
X109015814Y-135452821D01*
X109137808Y-135428555D01*
X109262192Y-135428555D01*
X109384186Y-135452821D01*
G37*
G36*
X117004186Y-135452821D02*
G01*
X117119101Y-135500421D01*
X117222523Y-135569525D01*
X117310475Y-135657477D01*
X117379579Y-135760899D01*
X117427179Y-135875814D01*
X117451445Y-135997808D01*
X117451445Y-136122192D01*
X117427179Y-136244186D01*
X117379579Y-136359101D01*
X117310475Y-136462523D01*
X117222523Y-136550475D01*
X117119101Y-136619579D01*
X117004186Y-136667179D01*
X116882192Y-136691445D01*
X116757808Y-136691445D01*
X116635814Y-136667179D01*
X116520899Y-136619579D01*
X116417477Y-136550475D01*
X116329525Y-136462523D01*
X116260421Y-136359101D01*
X116212821Y-136244186D01*
X116188555Y-136122192D01*
X116188555Y-135997808D01*
X116212821Y-135875814D01*
X116260421Y-135760899D01*
X116329525Y-135657477D01*
X116417477Y-135569525D01*
X116520899Y-135500421D01*
X116635814Y-135452821D01*
X116757808Y-135428555D01*
X116882192Y-135428555D01*
X117004186Y-135452821D01*
G37*
G36*
X102446742Y-133266601D02*
G01*
X102600687Y-133330367D01*
X102739234Y-133422941D01*
X102857059Y-133540766D01*
X102949633Y-133679313D01*
X103013399Y-133833258D01*
X103045907Y-133996685D01*
X103045907Y-134163315D01*
X103013399Y-134326742D01*
X102949633Y-134480687D01*
X102857059Y-134619234D01*
X102739234Y-134737059D01*
X102600687Y-134829633D01*
X102446742Y-134893399D01*
X102283315Y-134925907D01*
X102116685Y-134925907D01*
X101953258Y-134893399D01*
X101799313Y-134829633D01*
X101660766Y-134737059D01*
X101542941Y-134619234D01*
X101450367Y-134480687D01*
X101386601Y-134326742D01*
X101354093Y-134163315D01*
X101354093Y-133996685D01*
X101386601Y-133833258D01*
X101450367Y-133679313D01*
X101542941Y-133540766D01*
X101660766Y-133422941D01*
X101799313Y-133330367D01*
X101953258Y-133266601D01*
X102116685Y-133234093D01*
X102283315Y-133234093D01*
X102446742Y-133266601D01*
G37*
G36*
X144946742Y-132966601D02*
G01*
X145100687Y-133030367D01*
X145239234Y-133122941D01*
X145357059Y-133240766D01*
X145449633Y-133379313D01*
X145513399Y-133533258D01*
X145545907Y-133696685D01*
X145545907Y-133863315D01*
X145513399Y-134026742D01*
X145449633Y-134180687D01*
X145357059Y-134319234D01*
X145239234Y-134437059D01*
X145100687Y-134529633D01*
X144946742Y-134593399D01*
X144783315Y-134625907D01*
X144616685Y-134625907D01*
X144453258Y-134593399D01*
X144299313Y-134529633D01*
X144160766Y-134437059D01*
X144042941Y-134319234D01*
X143950367Y-134180687D01*
X143886601Y-134026742D01*
X143854093Y-133863315D01*
X143854093Y-133696685D01*
X143886601Y-133533258D01*
X143950367Y-133379313D01*
X144042941Y-133240766D01*
X144160766Y-133122941D01*
X144299313Y-133030367D01*
X144453258Y-132966601D01*
X144616685Y-132934093D01*
X144783315Y-132934093D01*
X144946742Y-132966601D01*
G37*
G36*
X109384186Y-132912821D02*
G01*
X109499101Y-132960421D01*
X109602523Y-133029525D01*
X109690475Y-133117477D01*
X109759579Y-133220899D01*
X109807179Y-133335814D01*
X109831445Y-133457808D01*
X109831445Y-133582192D01*
X109807179Y-133704186D01*
X109759579Y-133819101D01*
X109690475Y-133922523D01*
X109602523Y-134010475D01*
X109499101Y-134079579D01*
X109384186Y-134127179D01*
X109262192Y-134151445D01*
X109137808Y-134151445D01*
X109015814Y-134127179D01*
X108900899Y-134079579D01*
X108797477Y-134010475D01*
X108709525Y-133922523D01*
X108640421Y-133819101D01*
X108592821Y-133704186D01*
X108568555Y-133582192D01*
X108568555Y-133457808D01*
X108592821Y-133335814D01*
X108640421Y-133220899D01*
X108709525Y-133117477D01*
X108797477Y-133029525D01*
X108900899Y-132960421D01*
X109015814Y-132912821D01*
X109137808Y-132888555D01*
X109262192Y-132888555D01*
X109384186Y-132912821D01*
G37*
G36*
X117004186Y-132912821D02*
G01*
X117119101Y-132960421D01*
X117222523Y-133029525D01*
X117310475Y-133117477D01*
X117379579Y-133220899D01*
X117427179Y-133335814D01*
X117451445Y-133457808D01*
X117451445Y-133582192D01*
X117427179Y-133704186D01*
X117379579Y-133819101D01*
X117310475Y-133922523D01*
X117222523Y-134010475D01*
X117119101Y-134079579D01*
X117004186Y-134127179D01*
X116882192Y-134151445D01*
X116757808Y-134151445D01*
X116635814Y-134127179D01*
X116520899Y-134079579D01*
X116417477Y-134010475D01*
X116329525Y-133922523D01*
X116260421Y-133819101D01*
X116212821Y-133704186D01*
X116188555Y-133582192D01*
X116188555Y-133457808D01*
X116212821Y-133335814D01*
X116260421Y-133220899D01*
X116329525Y-133117477D01*
X116417477Y-133029525D01*
X116520899Y-132960421D01*
X116635814Y-132912821D01*
X116757808Y-132888555D01*
X116882192Y-132888555D01*
X117004186Y-132912821D01*
G37*
G36*
X102446742Y-130726601D02*
G01*
X102600687Y-130790367D01*
X102739234Y-130882941D01*
X102857059Y-131000766D01*
X102949633Y-131139313D01*
X103013399Y-131293258D01*
X103045907Y-131456685D01*
X103045907Y-131623315D01*
X103013399Y-131786742D01*
X102949633Y-131940687D01*
X102857059Y-132079234D01*
X102739234Y-132197059D01*
X102600687Y-132289633D01*
X102446742Y-132353399D01*
X102283315Y-132385907D01*
X102116685Y-132385907D01*
X101953258Y-132353399D01*
X101799313Y-132289633D01*
X101660766Y-132197059D01*
X101542941Y-132079234D01*
X101450367Y-131940687D01*
X101386601Y-131786742D01*
X101354093Y-131623315D01*
X101354093Y-131456685D01*
X101386601Y-131293258D01*
X101450367Y-131139313D01*
X101542941Y-131000766D01*
X101660766Y-130882941D01*
X101799313Y-130790367D01*
X101953258Y-130726601D01*
X102116685Y-130694093D01*
X102283315Y-130694093D01*
X102446742Y-130726601D01*
G37*
G36*
X144946742Y-130426601D02*
G01*
X145100687Y-130490367D01*
X145239234Y-130582941D01*
X145357059Y-130700766D01*
X145449633Y-130839313D01*
X145513399Y-130993258D01*
X145545907Y-131156685D01*
X145545907Y-131323315D01*
X145513399Y-131486742D01*
X145449633Y-131640687D01*
X145357059Y-131779234D01*
X145239234Y-131897059D01*
X145100687Y-131989633D01*
X144946742Y-132053399D01*
X144783315Y-132085907D01*
X144616685Y-132085907D01*
X144453258Y-132053399D01*
X144299313Y-131989633D01*
X144160766Y-131897059D01*
X144042941Y-131779234D01*
X143950367Y-131640687D01*
X143886601Y-131486742D01*
X143854093Y-131323315D01*
X143854093Y-131156685D01*
X143886601Y-130993258D01*
X143950367Y-130839313D01*
X144042941Y-130700766D01*
X144160766Y-130582941D01*
X144299313Y-130490367D01*
X144453258Y-130426601D01*
X144616685Y-130394093D01*
X144783315Y-130394093D01*
X144946742Y-130426601D01*
G37*
G36*
X109384186Y-130372821D02*
G01*
X109499101Y-130420421D01*
X109602523Y-130489525D01*
X109690475Y-130577477D01*
X109759579Y-130680899D01*
X109807179Y-130795814D01*
X109831445Y-130917808D01*
X109831445Y-131042192D01*
X109807179Y-131164186D01*
X109759579Y-131279101D01*
X109690475Y-131382523D01*
X109602523Y-131470475D01*
X109499101Y-131539579D01*
X109384186Y-131587179D01*
X109262192Y-131611445D01*
X109137808Y-131611445D01*
X109015814Y-131587179D01*
X108900899Y-131539579D01*
X108797477Y-131470475D01*
X108709525Y-131382523D01*
X108640421Y-131279101D01*
X108592821Y-131164186D01*
X108568555Y-131042192D01*
X108568555Y-130917808D01*
X108592821Y-130795814D01*
X108640421Y-130680899D01*
X108709525Y-130577477D01*
X108797477Y-130489525D01*
X108900899Y-130420421D01*
X109015814Y-130372821D01*
X109137808Y-130348555D01*
X109262192Y-130348555D01*
X109384186Y-130372821D01*
G37*
G36*
X117004186Y-130372821D02*
G01*
X117119101Y-130420421D01*
X117222523Y-130489525D01*
X117310475Y-130577477D01*
X117379579Y-130680899D01*
X117427179Y-130795814D01*
X117451445Y-130917808D01*
X117451445Y-131042192D01*
X117427179Y-131164186D01*
X117379579Y-131279101D01*
X117310475Y-131382523D01*
X117222523Y-131470475D01*
X117119101Y-131539579D01*
X117004186Y-131587179D01*
X116882192Y-131611445D01*
X116757808Y-131611445D01*
X116635814Y-131587179D01*
X116520899Y-131539579D01*
X116417477Y-131470475D01*
X116329525Y-131382523D01*
X116260421Y-131279101D01*
X116212821Y-131164186D01*
X116188555Y-131042192D01*
X116188555Y-130917808D01*
X116212821Y-130795814D01*
X116260421Y-130680899D01*
X116329525Y-130577477D01*
X116417477Y-130489525D01*
X116520899Y-130420421D01*
X116635814Y-130372821D01*
X116757808Y-130348555D01*
X116882192Y-130348555D01*
X117004186Y-130372821D01*
G37*
G36*
X102446742Y-128186601D02*
G01*
X102600687Y-128250367D01*
X102739234Y-128342941D01*
X102857059Y-128460766D01*
X102949633Y-128599313D01*
X103013399Y-128753258D01*
X103045907Y-128916685D01*
X103045907Y-129083315D01*
X103013399Y-129246742D01*
X102949633Y-129400687D01*
X102857059Y-129539234D01*
X102739234Y-129657059D01*
X102600687Y-129749633D01*
X102446742Y-129813399D01*
X102283315Y-129845907D01*
X102116685Y-129845907D01*
X101953258Y-129813399D01*
X101799313Y-129749633D01*
X101660766Y-129657059D01*
X101542941Y-129539234D01*
X101450367Y-129400687D01*
X101386601Y-129246742D01*
X101354093Y-129083315D01*
X101354093Y-128916685D01*
X101386601Y-128753258D01*
X101450367Y-128599313D01*
X101542941Y-128460766D01*
X101660766Y-128342941D01*
X101799313Y-128250367D01*
X101953258Y-128186601D01*
X102116685Y-128154093D01*
X102283315Y-128154093D01*
X102446742Y-128186601D01*
G37*
G36*
X144946742Y-127886601D02*
G01*
X145100687Y-127950367D01*
X145239234Y-128042941D01*
X145357059Y-128160766D01*
X145449633Y-128299313D01*
X145513399Y-128453258D01*
X145545907Y-128616685D01*
X145545907Y-128783315D01*
X145513399Y-128946742D01*
X145449633Y-129100687D01*
X145357059Y-129239234D01*
X145239234Y-129357059D01*
X145100687Y-129449633D01*
X144946742Y-129513399D01*
X144783315Y-129545907D01*
X144616685Y-129545907D01*
X144453258Y-129513399D01*
X144299313Y-129449633D01*
X144160766Y-129357059D01*
X144042941Y-129239234D01*
X143950367Y-129100687D01*
X143886601Y-128946742D01*
X143854093Y-128783315D01*
X143854093Y-128616685D01*
X143886601Y-128453258D01*
X143950367Y-128299313D01*
X144042941Y-128160766D01*
X144160766Y-128042941D01*
X144299313Y-127950367D01*
X144453258Y-127886601D01*
X144616685Y-127854093D01*
X144783315Y-127854093D01*
X144946742Y-127886601D01*
G37*
G36*
X109384186Y-127832821D02*
G01*
X109499101Y-127880421D01*
X109602523Y-127949525D01*
X109690475Y-128037477D01*
X109759579Y-128140899D01*
X109807179Y-128255814D01*
X109831445Y-128377808D01*
X109831445Y-128502192D01*
X109807179Y-128624186D01*
X109759579Y-128739101D01*
X109690475Y-128842523D01*
X109602523Y-128930475D01*
X109499101Y-128999579D01*
X109384186Y-129047179D01*
X109262192Y-129071445D01*
X109137808Y-129071445D01*
X109015814Y-129047179D01*
X108900899Y-128999579D01*
X108797477Y-128930475D01*
X108709525Y-128842523D01*
X108640421Y-128739101D01*
X108592821Y-128624186D01*
X108568555Y-128502192D01*
X108568555Y-128377808D01*
X108592821Y-128255814D01*
X108640421Y-128140899D01*
X108709525Y-128037477D01*
X108797477Y-127949525D01*
X108900899Y-127880421D01*
X109015814Y-127832821D01*
X109137808Y-127808555D01*
X109262192Y-127808555D01*
X109384186Y-127832821D01*
G37*
G36*
X117004186Y-127832821D02*
G01*
X117119101Y-127880421D01*
X117222523Y-127949525D01*
X117310475Y-128037477D01*
X117379579Y-128140899D01*
X117427179Y-128255814D01*
X117451445Y-128377808D01*
X117451445Y-128502192D01*
X117427179Y-128624186D01*
X117379579Y-128739101D01*
X117310475Y-128842523D01*
X117222523Y-128930475D01*
X117119101Y-128999579D01*
X117004186Y-129047179D01*
X116882192Y-129071445D01*
X116757808Y-129071445D01*
X116635814Y-129047179D01*
X116520899Y-128999579D01*
X116417477Y-128930475D01*
X116329525Y-128842523D01*
X116260421Y-128739101D01*
X116212821Y-128624186D01*
X116188555Y-128502192D01*
X116188555Y-128377808D01*
X116212821Y-128255814D01*
X116260421Y-128140899D01*
X116329525Y-128037477D01*
X116417477Y-127949525D01*
X116520899Y-127880421D01*
X116635814Y-127832821D01*
X116757808Y-127808555D01*
X116882192Y-127808555D01*
X117004186Y-127832821D01*
G37*
G36*
X102446742Y-125646601D02*
G01*
X102600687Y-125710367D01*
X102739234Y-125802941D01*
X102857059Y-125920766D01*
X102949633Y-126059313D01*
X103013399Y-126213258D01*
X103045907Y-126376685D01*
X103045907Y-126543315D01*
X103013399Y-126706742D01*
X102949633Y-126860687D01*
X102857059Y-126999234D01*
X102739234Y-127117059D01*
X102600687Y-127209633D01*
X102446742Y-127273399D01*
X102283315Y-127305907D01*
X102116685Y-127305907D01*
X101953258Y-127273399D01*
X101799313Y-127209633D01*
X101660766Y-127117059D01*
X101542941Y-126999234D01*
X101450367Y-126860687D01*
X101386601Y-126706742D01*
X101354093Y-126543315D01*
X101354093Y-126376685D01*
X101386601Y-126213258D01*
X101450367Y-126059313D01*
X101542941Y-125920766D01*
X101660766Y-125802941D01*
X101799313Y-125710367D01*
X101953258Y-125646601D01*
X102116685Y-125614093D01*
X102283315Y-125614093D01*
X102446742Y-125646601D01*
G37*
G36*
X144946742Y-125346601D02*
G01*
X145100687Y-125410367D01*
X145239234Y-125502941D01*
X145357059Y-125620766D01*
X145449633Y-125759313D01*
X145513399Y-125913258D01*
X145545907Y-126076685D01*
X145545907Y-126243315D01*
X145513399Y-126406742D01*
X145449633Y-126560687D01*
X145357059Y-126699234D01*
X145239234Y-126817059D01*
X145100687Y-126909633D01*
X144946742Y-126973399D01*
X144783315Y-127005907D01*
X144616685Y-127005907D01*
X144453258Y-126973399D01*
X144299313Y-126909633D01*
X144160766Y-126817059D01*
X144042941Y-126699234D01*
X143950367Y-126560687D01*
X143886601Y-126406742D01*
X143854093Y-126243315D01*
X143854093Y-126076685D01*
X143886601Y-125913258D01*
X143950367Y-125759313D01*
X144042941Y-125620766D01*
X144160766Y-125502941D01*
X144299313Y-125410367D01*
X144453258Y-125346601D01*
X144616685Y-125314093D01*
X144783315Y-125314093D01*
X144946742Y-125346601D01*
G37*
G36*
X109384186Y-125292821D02*
G01*
X109499101Y-125340421D01*
X109602523Y-125409525D01*
X109690475Y-125497477D01*
X109759579Y-125600899D01*
X109807179Y-125715814D01*
X109831445Y-125837808D01*
X109831445Y-125962192D01*
X109807179Y-126084186D01*
X109759579Y-126199101D01*
X109690475Y-126302523D01*
X109602523Y-126390475D01*
X109499101Y-126459579D01*
X109384186Y-126507179D01*
X109262192Y-126531445D01*
X109137808Y-126531445D01*
X109015814Y-126507179D01*
X108900899Y-126459579D01*
X108797477Y-126390475D01*
X108709525Y-126302523D01*
X108640421Y-126199101D01*
X108592821Y-126084186D01*
X108568555Y-125962192D01*
X108568555Y-125837808D01*
X108592821Y-125715814D01*
X108640421Y-125600899D01*
X108709525Y-125497477D01*
X108797477Y-125409525D01*
X108900899Y-125340421D01*
X109015814Y-125292821D01*
X109137808Y-125268555D01*
X109262192Y-125268555D01*
X109384186Y-125292821D01*
G37*
G36*
X117004186Y-125292821D02*
G01*
X117119101Y-125340421D01*
X117222523Y-125409525D01*
X117310475Y-125497477D01*
X117379579Y-125600899D01*
X117427179Y-125715814D01*
X117451445Y-125837808D01*
X117451445Y-125962192D01*
X117427179Y-126084186D01*
X117379579Y-126199101D01*
X117310475Y-126302523D01*
X117222523Y-126390475D01*
X117119101Y-126459579D01*
X117004186Y-126507179D01*
X116882192Y-126531445D01*
X116757808Y-126531445D01*
X116635814Y-126507179D01*
X116520899Y-126459579D01*
X116417477Y-126390475D01*
X116329525Y-126302523D01*
X116260421Y-126199101D01*
X116212821Y-126084186D01*
X116188555Y-125962192D01*
X116188555Y-125837808D01*
X116212821Y-125715814D01*
X116260421Y-125600899D01*
X116329525Y-125497477D01*
X116417477Y-125409525D01*
X116520899Y-125340421D01*
X116635814Y-125292821D01*
X116757808Y-125268555D01*
X116882192Y-125268555D01*
X117004186Y-125292821D01*
G37*
G36*
X102446742Y-123106601D02*
G01*
X102600687Y-123170367D01*
X102739234Y-123262941D01*
X102857059Y-123380766D01*
X102949633Y-123519313D01*
X103013399Y-123673258D01*
X103045907Y-123836685D01*
X103045907Y-124003315D01*
X103013399Y-124166742D01*
X102949633Y-124320687D01*
X102857059Y-124459234D01*
X102739234Y-124577059D01*
X102600687Y-124669633D01*
X102446742Y-124733399D01*
X102283315Y-124765907D01*
X102116685Y-124765907D01*
X101953258Y-124733399D01*
X101799313Y-124669633D01*
X101660766Y-124577059D01*
X101542941Y-124459234D01*
X101450367Y-124320687D01*
X101386601Y-124166742D01*
X101354093Y-124003315D01*
X101354093Y-123836685D01*
X101386601Y-123673258D01*
X101450367Y-123519313D01*
X101542941Y-123380766D01*
X101660766Y-123262941D01*
X101799313Y-123170367D01*
X101953258Y-123106601D01*
X102116685Y-123074093D01*
X102283315Y-123074093D01*
X102446742Y-123106601D01*
G37*
G36*
X144946742Y-122806601D02*
G01*
X145100687Y-122870367D01*
X145239234Y-122962941D01*
X145357059Y-123080766D01*
X145449633Y-123219313D01*
X145513399Y-123373258D01*
X145545907Y-123536685D01*
X145545907Y-123703315D01*
X145513399Y-123866742D01*
X145449633Y-124020687D01*
X145357059Y-124159234D01*
X145239234Y-124277059D01*
X145100687Y-124369633D01*
X144946742Y-124433399D01*
X144783315Y-124465907D01*
X144616685Y-124465907D01*
X144453258Y-124433399D01*
X144299313Y-124369633D01*
X144160766Y-124277059D01*
X144042941Y-124159234D01*
X143950367Y-124020687D01*
X143886601Y-123866742D01*
X143854093Y-123703315D01*
X143854093Y-123536685D01*
X143886601Y-123373258D01*
X143950367Y-123219313D01*
X144042941Y-123080766D01*
X144160766Y-122962941D01*
X144299313Y-122870367D01*
X144453258Y-122806601D01*
X144616685Y-122774093D01*
X144783315Y-122774093D01*
X144946742Y-122806601D01*
G37*
G36*
X127930000Y-124180000D02*
G01*
X126070000Y-124180000D01*
X126070000Y-122320000D01*
X127930000Y-122320000D01*
X127930000Y-124180000D01*
G37*
G36*
X133769965Y-122360045D02*
G01*
X133938399Y-122429813D01*
X134089986Y-122531100D01*
X134218900Y-122660014D01*
X134320187Y-122811601D01*
X134389955Y-122980035D01*
X134425522Y-123158844D01*
X134425522Y-123341156D01*
X134389955Y-123519965D01*
X134320187Y-123688399D01*
X134218900Y-123839986D01*
X134089986Y-123968900D01*
X133938399Y-124070187D01*
X133769965Y-124139955D01*
X133591156Y-124175522D01*
X133408844Y-124175522D01*
X133230035Y-124139955D01*
X133061601Y-124070187D01*
X132910014Y-123968900D01*
X132781100Y-123839986D01*
X132679813Y-123688399D01*
X132610045Y-123519965D01*
X132574478Y-123341156D01*
X132574478Y-123158844D01*
X132610045Y-122980035D01*
X132679813Y-122811601D01*
X132781100Y-122660014D01*
X132910014Y-122531100D01*
X133061601Y-122429813D01*
X133230035Y-122360045D01*
X133408844Y-122324478D01*
X133591156Y-122324478D01*
X133769965Y-122360045D01*
G37*
G36*
X109384186Y-122752821D02*
G01*
X109499101Y-122800421D01*
X109602523Y-122869525D01*
X109690475Y-122957477D01*
X109759579Y-123060899D01*
X109807179Y-123175814D01*
X109831445Y-123297808D01*
X109831445Y-123422192D01*
X109807179Y-123544186D01*
X109759579Y-123659101D01*
X109690475Y-123762523D01*
X109602523Y-123850475D01*
X109499101Y-123919579D01*
X109384186Y-123967179D01*
X109262192Y-123991445D01*
X109137808Y-123991445D01*
X109015814Y-123967179D01*
X108900899Y-123919579D01*
X108797477Y-123850475D01*
X108709525Y-123762523D01*
X108640421Y-123659101D01*
X108592821Y-123544186D01*
X108568555Y-123422192D01*
X108568555Y-123297808D01*
X108592821Y-123175814D01*
X108640421Y-123060899D01*
X108709525Y-122957477D01*
X108797477Y-122869525D01*
X108900899Y-122800421D01*
X109015814Y-122752821D01*
X109137808Y-122728555D01*
X109262192Y-122728555D01*
X109384186Y-122752821D01*
G37*
G36*
X117004186Y-122752821D02*
G01*
X117119101Y-122800421D01*
X117222523Y-122869525D01*
X117310475Y-122957477D01*
X117379579Y-123060899D01*
X117427179Y-123175814D01*
X117451445Y-123297808D01*
X117451445Y-123422192D01*
X117427179Y-123544186D01*
X117379579Y-123659101D01*
X117310475Y-123762523D01*
X117222523Y-123850475D01*
X117119101Y-123919579D01*
X117004186Y-123967179D01*
X116882192Y-123991445D01*
X116757808Y-123991445D01*
X116635814Y-123967179D01*
X116520899Y-123919579D01*
X116417477Y-123850475D01*
X116329525Y-123762523D01*
X116260421Y-123659101D01*
X116212821Y-123544186D01*
X116188555Y-123422192D01*
X116188555Y-123297808D01*
X116212821Y-123175814D01*
X116260421Y-123060899D01*
X116329525Y-122957477D01*
X116417477Y-122869525D01*
X116520899Y-122800421D01*
X116635814Y-122752821D01*
X116757808Y-122728555D01*
X116882192Y-122728555D01*
X117004186Y-122752821D01*
G37*
G36*
X102446742Y-120566601D02*
G01*
X102600687Y-120630367D01*
X102739234Y-120722941D01*
X102857059Y-120840766D01*
X102949633Y-120979313D01*
X103013399Y-121133258D01*
X103045907Y-121296685D01*
X103045907Y-121463315D01*
X103013399Y-121626742D01*
X102949633Y-121780687D01*
X102857059Y-121919234D01*
X102739234Y-122037059D01*
X102600687Y-122129633D01*
X102446742Y-122193399D01*
X102283315Y-122225907D01*
X102116685Y-122225907D01*
X101953258Y-122193399D01*
X101799313Y-122129633D01*
X101660766Y-122037059D01*
X101542941Y-121919234D01*
X101450367Y-121780687D01*
X101386601Y-121626742D01*
X101354093Y-121463315D01*
X101354093Y-121296685D01*
X101386601Y-121133258D01*
X101450367Y-120979313D01*
X101542941Y-120840766D01*
X101660766Y-120722941D01*
X101799313Y-120630367D01*
X101953258Y-120566601D01*
X102116685Y-120534093D01*
X102283315Y-120534093D01*
X102446742Y-120566601D01*
G37*
G36*
X144946742Y-120266601D02*
G01*
X145100687Y-120330367D01*
X145239234Y-120422941D01*
X145357059Y-120540766D01*
X145449633Y-120679313D01*
X145513399Y-120833258D01*
X145545907Y-120996685D01*
X145545907Y-121163315D01*
X145513399Y-121326742D01*
X145449633Y-121480687D01*
X145357059Y-121619234D01*
X145239234Y-121737059D01*
X145100687Y-121829633D01*
X144946742Y-121893399D01*
X144783315Y-121925907D01*
X144616685Y-121925907D01*
X144453258Y-121893399D01*
X144299313Y-121829633D01*
X144160766Y-121737059D01*
X144042941Y-121619234D01*
X143950367Y-121480687D01*
X143886601Y-121326742D01*
X143854093Y-121163315D01*
X143854093Y-120996685D01*
X143886601Y-120833258D01*
X143950367Y-120679313D01*
X144042941Y-120540766D01*
X144160766Y-120422941D01*
X144299313Y-120330367D01*
X144453258Y-120266601D01*
X144616685Y-120234093D01*
X144783315Y-120234093D01*
X144946742Y-120266601D01*
G37*
G36*
X102446742Y-118026601D02*
G01*
X102600687Y-118090367D01*
X102739234Y-118182941D01*
X102857059Y-118300766D01*
X102949633Y-118439313D01*
X103013399Y-118593258D01*
X103045907Y-118756685D01*
X103045907Y-118923315D01*
X103013399Y-119086742D01*
X102949633Y-119240687D01*
X102857059Y-119379234D01*
X102739234Y-119497059D01*
X102600687Y-119589633D01*
X102446742Y-119653399D01*
X102283315Y-119685907D01*
X102116685Y-119685907D01*
X101953258Y-119653399D01*
X101799313Y-119589633D01*
X101660766Y-119497059D01*
X101542941Y-119379234D01*
X101450367Y-119240687D01*
X101386601Y-119086742D01*
X101354093Y-118923315D01*
X101354093Y-118756685D01*
X101386601Y-118593258D01*
X101450367Y-118439313D01*
X101542941Y-118300766D01*
X101660766Y-118182941D01*
X101799313Y-118090367D01*
X101953258Y-118026601D01*
X102116685Y-117994093D01*
X102283315Y-117994093D01*
X102446742Y-118026601D01*
G37*
G36*
X144946742Y-117726601D02*
G01*
X145100687Y-117790367D01*
X145239234Y-117882941D01*
X145357059Y-118000766D01*
X145449633Y-118139313D01*
X145513399Y-118293258D01*
X145545907Y-118456685D01*
X145545907Y-118623315D01*
X145513399Y-118786742D01*
X145449633Y-118940687D01*
X145357059Y-119079234D01*
X145239234Y-119197059D01*
X145100687Y-119289633D01*
X144946742Y-119353399D01*
X144783315Y-119385907D01*
X144616685Y-119385907D01*
X144453258Y-119353399D01*
X144299313Y-119289633D01*
X144160766Y-119197059D01*
X144042941Y-119079234D01*
X143950367Y-118940687D01*
X143886601Y-118786742D01*
X143854093Y-118623315D01*
X143854093Y-118456685D01*
X143886601Y-118293258D01*
X143950367Y-118139313D01*
X144042941Y-118000766D01*
X144160766Y-117882941D01*
X144299313Y-117790367D01*
X144453258Y-117726601D01*
X144616685Y-117694093D01*
X144783315Y-117694093D01*
X144946742Y-117726601D01*
G37*
G36*
X102446742Y-115486601D02*
G01*
X102600687Y-115550367D01*
X102739234Y-115642941D01*
X102857059Y-115760766D01*
X102949633Y-115899313D01*
X103013399Y-116053258D01*
X103045907Y-116216685D01*
X103045907Y-116383315D01*
X103013399Y-116546742D01*
X102949633Y-116700687D01*
X102857059Y-116839234D01*
X102739234Y-116957059D01*
X102600687Y-117049633D01*
X102446742Y-117113399D01*
X102283315Y-117145907D01*
X102116685Y-117145907D01*
X101953258Y-117113399D01*
X101799313Y-117049633D01*
X101660766Y-116957059D01*
X101542941Y-116839234D01*
X101450367Y-116700687D01*
X101386601Y-116546742D01*
X101354093Y-116383315D01*
X101354093Y-116216685D01*
X101386601Y-116053258D01*
X101450367Y-115899313D01*
X101542941Y-115760766D01*
X101660766Y-115642941D01*
X101799313Y-115550367D01*
X101953258Y-115486601D01*
X102116685Y-115454093D01*
X102283315Y-115454093D01*
X102446742Y-115486601D01*
G37*
G36*
X144946742Y-115186601D02*
G01*
X145100687Y-115250367D01*
X145239234Y-115342941D01*
X145357059Y-115460766D01*
X145449633Y-115599313D01*
X145513399Y-115753258D01*
X145545907Y-115916685D01*
X145545907Y-116083315D01*
X145513399Y-116246742D01*
X145449633Y-116400687D01*
X145357059Y-116539234D01*
X145239234Y-116657059D01*
X145100687Y-116749633D01*
X144946742Y-116813399D01*
X144783315Y-116845907D01*
X144616685Y-116845907D01*
X144453258Y-116813399D01*
X144299313Y-116749633D01*
X144160766Y-116657059D01*
X144042941Y-116539234D01*
X143950367Y-116400687D01*
X143886601Y-116246742D01*
X143854093Y-116083315D01*
X143854093Y-115916685D01*
X143886601Y-115753258D01*
X143950367Y-115599313D01*
X144042941Y-115460766D01*
X144160766Y-115342941D01*
X144299313Y-115250367D01*
X144453258Y-115186601D01*
X144616685Y-115154093D01*
X144783315Y-115154093D01*
X144946742Y-115186601D01*
G37*
G36*
X102446742Y-112946601D02*
G01*
X102600687Y-113010367D01*
X102739234Y-113102941D01*
X102857059Y-113220766D01*
X102949633Y-113359313D01*
X103013399Y-113513258D01*
X103045907Y-113676685D01*
X103045907Y-113843315D01*
X103013399Y-114006742D01*
X102949633Y-114160687D01*
X102857059Y-114299234D01*
X102739234Y-114417059D01*
X102600687Y-114509633D01*
X102446742Y-114573399D01*
X102283315Y-114605907D01*
X102116685Y-114605907D01*
X101953258Y-114573399D01*
X101799313Y-114509633D01*
X101660766Y-114417059D01*
X101542941Y-114299234D01*
X101450367Y-114160687D01*
X101386601Y-114006742D01*
X101354093Y-113843315D01*
X101354093Y-113676685D01*
X101386601Y-113513258D01*
X101450367Y-113359313D01*
X101542941Y-113220766D01*
X101660766Y-113102941D01*
X101799313Y-113010367D01*
X101953258Y-112946601D01*
X102116685Y-112914093D01*
X102283315Y-112914093D01*
X102446742Y-112946601D01*
G37*
G36*
X144946742Y-112646601D02*
G01*
X145100687Y-112710367D01*
X145239234Y-112802941D01*
X145357059Y-112920766D01*
X145449633Y-113059313D01*
X145513399Y-113213258D01*
X145545907Y-113376685D01*
X145545907Y-113543315D01*
X145513399Y-113706742D01*
X145449633Y-113860687D01*
X145357059Y-113999234D01*
X145239234Y-114117059D01*
X145100687Y-114209633D01*
X144946742Y-114273399D01*
X144783315Y-114305907D01*
X144616685Y-114305907D01*
X144453258Y-114273399D01*
X144299313Y-114209633D01*
X144160766Y-114117059D01*
X144042941Y-113999234D01*
X143950367Y-113860687D01*
X143886601Y-113706742D01*
X143854093Y-113543315D01*
X143854093Y-113376685D01*
X143886601Y-113213258D01*
X143950367Y-113059313D01*
X144042941Y-112920766D01*
X144160766Y-112802941D01*
X144299313Y-112710367D01*
X144453258Y-112646601D01*
X144616685Y-112614093D01*
X144783315Y-112614093D01*
X144946742Y-112646601D01*
G37*
G36*
X102446742Y-110406601D02*
G01*
X102600687Y-110470367D01*
X102739234Y-110562941D01*
X102857059Y-110680766D01*
X102949633Y-110819313D01*
X103013399Y-110973258D01*
X103045907Y-111136685D01*
X103045907Y-111303315D01*
X103013399Y-111466742D01*
X102949633Y-111620687D01*
X102857059Y-111759234D01*
X102739234Y-111877059D01*
X102600687Y-111969633D01*
X102446742Y-112033399D01*
X102283315Y-112065907D01*
X102116685Y-112065907D01*
X101953258Y-112033399D01*
X101799313Y-111969633D01*
X101660766Y-111877059D01*
X101542941Y-111759234D01*
X101450367Y-111620687D01*
X101386601Y-111466742D01*
X101354093Y-111303315D01*
X101354093Y-111136685D01*
X101386601Y-110973258D01*
X101450367Y-110819313D01*
X101542941Y-110680766D01*
X101660766Y-110562941D01*
X101799313Y-110470367D01*
X101953258Y-110406601D01*
X102116685Y-110374093D01*
X102283315Y-110374093D01*
X102446742Y-110406601D01*
G37*
G36*
X144946742Y-110106601D02*
G01*
X145100687Y-110170367D01*
X145239234Y-110262941D01*
X145357059Y-110380766D01*
X145449633Y-110519313D01*
X145513399Y-110673258D01*
X145545907Y-110836685D01*
X145545907Y-111003315D01*
X145513399Y-111166742D01*
X145449633Y-111320687D01*
X145357059Y-111459234D01*
X145239234Y-111577059D01*
X145100687Y-111669633D01*
X144946742Y-111733399D01*
X144783315Y-111765907D01*
X144616685Y-111765907D01*
X144453258Y-111733399D01*
X144299313Y-111669633D01*
X144160766Y-111577059D01*
X144042941Y-111459234D01*
X143950367Y-111320687D01*
X143886601Y-111166742D01*
X143854093Y-111003315D01*
X143854093Y-110836685D01*
X143886601Y-110673258D01*
X143950367Y-110519313D01*
X144042941Y-110380766D01*
X144160766Y-110262941D01*
X144299313Y-110170367D01*
X144453258Y-110106601D01*
X144616685Y-110074093D01*
X144783315Y-110074093D01*
X144946742Y-110106601D01*
G37*
G36*
X102446742Y-107866601D02*
G01*
X102600687Y-107930367D01*
X102739234Y-108022941D01*
X102857059Y-108140766D01*
X102949633Y-108279313D01*
X103013399Y-108433258D01*
X103045907Y-108596685D01*
X103045907Y-108763315D01*
X103013399Y-108926742D01*
X102949633Y-109080687D01*
X102857059Y-109219234D01*
X102739234Y-109337059D01*
X102600687Y-109429633D01*
X102446742Y-109493399D01*
X102283315Y-109525907D01*
X102116685Y-109525907D01*
X101953258Y-109493399D01*
X101799313Y-109429633D01*
X101660766Y-109337059D01*
X101542941Y-109219234D01*
X101450367Y-109080687D01*
X101386601Y-108926742D01*
X101354093Y-108763315D01*
X101354093Y-108596685D01*
X101386601Y-108433258D01*
X101450367Y-108279313D01*
X101542941Y-108140766D01*
X101660766Y-108022941D01*
X101799313Y-107930367D01*
X101953258Y-107866601D01*
X102116685Y-107834093D01*
X102283315Y-107834093D01*
X102446742Y-107866601D01*
G37*
G36*
X144946742Y-107566601D02*
G01*
X145100687Y-107630367D01*
X145239234Y-107722941D01*
X145357059Y-107840766D01*
X145449633Y-107979313D01*
X145513399Y-108133258D01*
X145545907Y-108296685D01*
X145545907Y-108463315D01*
X145513399Y-108626742D01*
X145449633Y-108780687D01*
X145357059Y-108919234D01*
X145239234Y-109037059D01*
X145100687Y-109129633D01*
X144946742Y-109193399D01*
X144783315Y-109225907D01*
X144616685Y-109225907D01*
X144453258Y-109193399D01*
X144299313Y-109129633D01*
X144160766Y-109037059D01*
X144042941Y-108919234D01*
X143950367Y-108780687D01*
X143886601Y-108626742D01*
X143854093Y-108463315D01*
X143854093Y-108296685D01*
X143886601Y-108133258D01*
X143950367Y-107979313D01*
X144042941Y-107840766D01*
X144160766Y-107722941D01*
X144299313Y-107630367D01*
X144453258Y-107566601D01*
X144616685Y-107534093D01*
X144783315Y-107534093D01*
X144946742Y-107566601D01*
G37*
G36*
X102446742Y-105326601D02*
G01*
X102600687Y-105390367D01*
X102739234Y-105482941D01*
X102857059Y-105600766D01*
X102949633Y-105739313D01*
X103013399Y-105893258D01*
X103045907Y-106056685D01*
X103045907Y-106223315D01*
X103013399Y-106386742D01*
X102949633Y-106540687D01*
X102857059Y-106679234D01*
X102739234Y-106797059D01*
X102600687Y-106889633D01*
X102446742Y-106953399D01*
X102283315Y-106985907D01*
X102116685Y-106985907D01*
X101953258Y-106953399D01*
X101799313Y-106889633D01*
X101660766Y-106797059D01*
X101542941Y-106679234D01*
X101450367Y-106540687D01*
X101386601Y-106386742D01*
X101354093Y-106223315D01*
X101354093Y-106056685D01*
X101386601Y-105893258D01*
X101450367Y-105739313D01*
X101542941Y-105600766D01*
X101660766Y-105482941D01*
X101799313Y-105390367D01*
X101953258Y-105326601D01*
X102116685Y-105294093D01*
X102283315Y-105294093D01*
X102446742Y-105326601D01*
G37*
G36*
X144946742Y-105026601D02*
G01*
X145100687Y-105090367D01*
X145239234Y-105182941D01*
X145357059Y-105300766D01*
X145449633Y-105439313D01*
X145513399Y-105593258D01*
X145545907Y-105756685D01*
X145545907Y-105923315D01*
X145513399Y-106086742D01*
X145449633Y-106240687D01*
X145357059Y-106379234D01*
X145239234Y-106497059D01*
X145100687Y-106589633D01*
X144946742Y-106653399D01*
X144783315Y-106685907D01*
X144616685Y-106685907D01*
X144453258Y-106653399D01*
X144299313Y-106589633D01*
X144160766Y-106497059D01*
X144042941Y-106379234D01*
X143950367Y-106240687D01*
X143886601Y-106086742D01*
X143854093Y-105923315D01*
X143854093Y-105756685D01*
X143886601Y-105593258D01*
X143950367Y-105439313D01*
X144042941Y-105300766D01*
X144160766Y-105182941D01*
X144299313Y-105090367D01*
X144453258Y-105026601D01*
X144616685Y-104994093D01*
X144783315Y-104994093D01*
X144946742Y-105026601D01*
G37*
G36*
X102446742Y-102786601D02*
G01*
X102600687Y-102850367D01*
X102739234Y-102942941D01*
X102857059Y-103060766D01*
X102949633Y-103199313D01*
X103013399Y-103353258D01*
X103045907Y-103516685D01*
X103045907Y-103683315D01*
X103013399Y-103846742D01*
X102949633Y-104000687D01*
X102857059Y-104139234D01*
X102739234Y-104257059D01*
X102600687Y-104349633D01*
X102446742Y-104413399D01*
X102283315Y-104445907D01*
X102116685Y-104445907D01*
X101953258Y-104413399D01*
X101799313Y-104349633D01*
X101660766Y-104257059D01*
X101542941Y-104139234D01*
X101450367Y-104000687D01*
X101386601Y-103846742D01*
X101354093Y-103683315D01*
X101354093Y-103516685D01*
X101386601Y-103353258D01*
X101450367Y-103199313D01*
X101542941Y-103060766D01*
X101660766Y-102942941D01*
X101799313Y-102850367D01*
X101953258Y-102786601D01*
X102116685Y-102754093D01*
X102283315Y-102754093D01*
X102446742Y-102786601D01*
G37*
G36*
X144946742Y-102486601D02*
G01*
X145100687Y-102550367D01*
X145239234Y-102642941D01*
X145357059Y-102760766D01*
X145449633Y-102899313D01*
X145513399Y-103053258D01*
X145545907Y-103216685D01*
X145545907Y-103383315D01*
X145513399Y-103546742D01*
X145449633Y-103700687D01*
X145357059Y-103839234D01*
X145239234Y-103957059D01*
X145100687Y-104049633D01*
X144946742Y-104113399D01*
X144783315Y-104145907D01*
X144616685Y-104145907D01*
X144453258Y-104113399D01*
X144299313Y-104049633D01*
X144160766Y-103957059D01*
X144042941Y-103839234D01*
X143950367Y-103700687D01*
X143886601Y-103546742D01*
X143854093Y-103383315D01*
X143854093Y-103216685D01*
X143886601Y-103053258D01*
X143950367Y-102899313D01*
X144042941Y-102760766D01*
X144160766Y-102642941D01*
X144299313Y-102550367D01*
X144453258Y-102486601D01*
X144616685Y-102454093D01*
X144783315Y-102454093D01*
X144946742Y-102486601D01*
G37*
G36*
X102446742Y-100246601D02*
G01*
X102600687Y-100310367D01*
X102739234Y-100402941D01*
X102857059Y-100520766D01*
X102949633Y-100659313D01*
X103013399Y-100813258D01*
X103045907Y-100976685D01*
X103045907Y-101143315D01*
X103013399Y-101306742D01*
X102949633Y-101460687D01*
X102857059Y-101599234D01*
X102739234Y-101717059D01*
X102600687Y-101809633D01*
X102446742Y-101873399D01*
X102283315Y-101905907D01*
X102116685Y-101905907D01*
X101953258Y-101873399D01*
X101799313Y-101809633D01*
X101660766Y-101717059D01*
X101542941Y-101599234D01*
X101450367Y-101460687D01*
X101386601Y-101306742D01*
X101354093Y-101143315D01*
X101354093Y-100976685D01*
X101386601Y-100813258D01*
X101450367Y-100659313D01*
X101542941Y-100520766D01*
X101660766Y-100402941D01*
X101799313Y-100310367D01*
X101953258Y-100246601D01*
X102116685Y-100214093D01*
X102283315Y-100214093D01*
X102446742Y-100246601D01*
G37*
G36*
X144946742Y-99946601D02*
G01*
X145100687Y-100010367D01*
X145239234Y-100102941D01*
X145357059Y-100220766D01*
X145449633Y-100359313D01*
X145513399Y-100513258D01*
X145545907Y-100676685D01*
X145545907Y-100843315D01*
X145513399Y-101006742D01*
X145449633Y-101160687D01*
X145357059Y-101299234D01*
X145239234Y-101417059D01*
X145100687Y-101509633D01*
X144946742Y-101573399D01*
X144783315Y-101605907D01*
X144616685Y-101605907D01*
X144453258Y-101573399D01*
X144299313Y-101509633D01*
X144160766Y-101417059D01*
X144042941Y-101299234D01*
X143950367Y-101160687D01*
X143886601Y-101006742D01*
X143854093Y-100843315D01*
X143854093Y-100676685D01*
X143886601Y-100513258D01*
X143950367Y-100359313D01*
X144042941Y-100220766D01*
X144160766Y-100102941D01*
X144299313Y-100010367D01*
X144453258Y-99946601D01*
X144616685Y-99914093D01*
X144783315Y-99914093D01*
X144946742Y-99946601D01*
G37*
G36*
X102446742Y-97706601D02*
G01*
X102600687Y-97770367D01*
X102739234Y-97862941D01*
X102857059Y-97980766D01*
X102949633Y-98119313D01*
X103013399Y-98273258D01*
X103045907Y-98436685D01*
X103045907Y-98603315D01*
X103013399Y-98766742D01*
X102949633Y-98920687D01*
X102857059Y-99059234D01*
X102739234Y-99177059D01*
X102600687Y-99269633D01*
X102446742Y-99333399D01*
X102283315Y-99365907D01*
X102116685Y-99365907D01*
X101953258Y-99333399D01*
X101799313Y-99269633D01*
X101660766Y-99177059D01*
X101542941Y-99059234D01*
X101450367Y-98920687D01*
X101386601Y-98766742D01*
X101354093Y-98603315D01*
X101354093Y-98436685D01*
X101386601Y-98273258D01*
X101450367Y-98119313D01*
X101542941Y-97980766D01*
X101660766Y-97862941D01*
X101799313Y-97770367D01*
X101953258Y-97706601D01*
X102116685Y-97674093D01*
X102283315Y-97674093D01*
X102446742Y-97706601D01*
G37*
G36*
X144946742Y-97406601D02*
G01*
X145100687Y-97470367D01*
X145239234Y-97562941D01*
X145357059Y-97680766D01*
X145449633Y-97819313D01*
X145513399Y-97973258D01*
X145545907Y-98136685D01*
X145545907Y-98303315D01*
X145513399Y-98466742D01*
X145449633Y-98620687D01*
X145357059Y-98759234D01*
X145239234Y-98877059D01*
X145100687Y-98969633D01*
X144946742Y-99033399D01*
X144783315Y-99065907D01*
X144616685Y-99065907D01*
X144453258Y-99033399D01*
X144299313Y-98969633D01*
X144160766Y-98877059D01*
X144042941Y-98759234D01*
X143950367Y-98620687D01*
X143886601Y-98466742D01*
X143854093Y-98303315D01*
X143854093Y-98136685D01*
X143886601Y-97973258D01*
X143950367Y-97819313D01*
X144042941Y-97680766D01*
X144160766Y-97562941D01*
X144299313Y-97470367D01*
X144453258Y-97406601D01*
X144616685Y-97374093D01*
X144783315Y-97374093D01*
X144946742Y-97406601D01*
G37*
G36*
X144000000Y-95060000D02*
G01*
X141000000Y-95060000D01*
X141000000Y-92060000D01*
X144000000Y-92060000D01*
X144000000Y-95060000D01*
G37*
G36*
X102630000Y-90730000D02*
G01*
X100770000Y-90730000D01*
X100770000Y-88870000D01*
X102630000Y-88870000D01*
X102630000Y-90730000D01*
G37*
G36*
X108469965Y-88910045D02*
G01*
X108638399Y-88979813D01*
X108789986Y-89081100D01*
X108918900Y-89210014D01*
X109020187Y-89361601D01*
X109089955Y-89530035D01*
X109125522Y-89708844D01*
X109125522Y-89891156D01*
X109089955Y-90069965D01*
X109020187Y-90238399D01*
X108918900Y-90389986D01*
X108789986Y-90518900D01*
X108638399Y-90620187D01*
X108469965Y-90689955D01*
X108291156Y-90725522D01*
X108108844Y-90725522D01*
X107930035Y-90689955D01*
X107761601Y-90620187D01*
X107610014Y-90518900D01*
X107481100Y-90389986D01*
X107379813Y-90238399D01*
X107310045Y-90069965D01*
X107274478Y-89891156D01*
X107274478Y-89708844D01*
X107310045Y-89530035D01*
X107379813Y-89361601D01*
X107481100Y-89210014D01*
X107610014Y-89081100D01*
X107761601Y-88979813D01*
X107930035Y-88910045D01*
X108108844Y-88874478D01*
X108291156Y-88874478D01*
X108469965Y-88910045D01*
G37*
G36*
X142850168Y-87021445D02*
G01*
X143074025Y-87094181D01*
X143283748Y-87201040D01*
X143474172Y-87339391D01*
X143640609Y-87505828D01*
X143778960Y-87696252D01*
X143885819Y-87905975D01*
X143958555Y-88129832D01*
X143995376Y-88362311D01*
X143995376Y-88597689D01*
X143958555Y-88830168D01*
X143885819Y-89054025D01*
X143778960Y-89263748D01*
X143640609Y-89454172D01*
X143474172Y-89620609D01*
X143283748Y-89758960D01*
X143074025Y-89865819D01*
X142850168Y-89938555D01*
X142617689Y-89975376D01*
X142382311Y-89975376D01*
X142149832Y-89938555D01*
X141925975Y-89865819D01*
X141716252Y-89758960D01*
X141525828Y-89620609D01*
X141359391Y-89454172D01*
X141221040Y-89263748D01*
X141114181Y-89054025D01*
X141041445Y-88830168D01*
X141004624Y-88597689D01*
X141004624Y-88362311D01*
X141041445Y-88129832D01*
X141114181Y-87905975D01*
X141221040Y-87696252D01*
X141359391Y-87505828D01*
X141525828Y-87339391D01*
X141716252Y-87201040D01*
X141925975Y-87094181D01*
X142149832Y-87021445D01*
X142382311Y-86984624D01*
X142617689Y-86984624D01*
X142850168Y-87021445D01*
G37*
G36*
X142850168Y-81941445D02*
G01*
X143074025Y-82014181D01*
X143283748Y-82121040D01*
X143474172Y-82259391D01*
X143640609Y-82425828D01*
X143778960Y-82616252D01*
X143885819Y-82825975D01*
X143958555Y-83049832D01*
X143995376Y-83282311D01*
X143995376Y-83517689D01*
X143958555Y-83750168D01*
X143885819Y-83974025D01*
X143778960Y-84183748D01*
X143640609Y-84374172D01*
X143474172Y-84540609D01*
X143283748Y-84678960D01*
X143074025Y-84785819D01*
X142850168Y-84858555D01*
X142617689Y-84895376D01*
X142382311Y-84895376D01*
X142149832Y-84858555D01*
X141925975Y-84785819D01*
X141716252Y-84678960D01*
X141525828Y-84540609D01*
X141359391Y-84374172D01*
X141221040Y-84183748D01*
X141114181Y-83974025D01*
X141041445Y-83750168D01*
X141004624Y-83517689D01*
X141004624Y-83282311D01*
X141041445Y-83049832D01*
X141114181Y-82825975D01*
X141221040Y-82616252D01*
X141359391Y-82425828D01*
X141525828Y-82259391D01*
X141716252Y-82121040D01*
X141925975Y-82014181D01*
X142149832Y-81941445D01*
X142382311Y-81904624D01*
X142617689Y-81904624D01*
X142850168Y-81941445D01*
G37*
G36*
X102630000Y-83330000D02*
G01*
X100770000Y-83330000D01*
X100770000Y-81470000D01*
X102630000Y-81470000D01*
X102630000Y-83330000D01*
G37*
G36*
X108469965Y-81510045D02*
G01*
X108638399Y-81579813D01*
X108789986Y-81681100D01*
X108918900Y-81810014D01*
X109020187Y-81961601D01*
X109089955Y-82130035D01*
X109125522Y-82308844D01*
X109125522Y-82491156D01*
X109089955Y-82669965D01*
X109020187Y-82838399D01*
X108918900Y-82989986D01*
X108789986Y-83118900D01*
X108638399Y-83220187D01*
X108469965Y-83289955D01*
X108291156Y-83325522D01*
X108108844Y-83325522D01*
X107930035Y-83289955D01*
X107761601Y-83220187D01*
X107610014Y-83118900D01*
X107481100Y-82989986D01*
X107379813Y-82838399D01*
X107310045Y-82669965D01*
X107274478Y-82491156D01*
X107274478Y-82308844D01*
X107310045Y-82130035D01*
X107379813Y-81961601D01*
X107481100Y-81810014D01*
X107610014Y-81681100D01*
X107761601Y-81579813D01*
X107930035Y-81510045D01*
X108108844Y-81474478D01*
X108291156Y-81474478D01*
X108469965Y-81510045D01*
G37*
G36*
X142850168Y-76441445D02*
G01*
X143074025Y-76514181D01*
X143283748Y-76621040D01*
X143474172Y-76759391D01*
X143640609Y-76925828D01*
X143778960Y-77116252D01*
X143885819Y-77325975D01*
X143958555Y-77549832D01*
X143995376Y-77782311D01*
X143995376Y-78017689D01*
X143958555Y-78250168D01*
X143885819Y-78474025D01*
X143778960Y-78683748D01*
X143640609Y-78874172D01*
X143474172Y-79040609D01*
X143283748Y-79178960D01*
X143074025Y-79285819D01*
X142850168Y-79358555D01*
X142617689Y-79395376D01*
X142382311Y-79395376D01*
X142149832Y-79358555D01*
X141925975Y-79285819D01*
X141716252Y-79178960D01*
X141525828Y-79040609D01*
X141359391Y-78874172D01*
X141221040Y-78683748D01*
X141114181Y-78474025D01*
X141041445Y-78250168D01*
X141004624Y-78017689D01*
X141004624Y-77782311D01*
X141041445Y-77549832D01*
X141114181Y-77325975D01*
X141221040Y-77116252D01*
X141359391Y-76925828D01*
X141525828Y-76759391D01*
X141716252Y-76621040D01*
X141925975Y-76514181D01*
X142149832Y-76441445D01*
X142382311Y-76404624D01*
X142617689Y-76404624D01*
X142850168Y-76441445D01*
G37*
G36*
X102630000Y-76030000D02*
G01*
X100770000Y-76030000D01*
X100770000Y-74170000D01*
X102630000Y-74170000D01*
X102630000Y-76030000D01*
G37*
G36*
X108469965Y-74210045D02*
G01*
X108638399Y-74279813D01*
X108789986Y-74381100D01*
X108918900Y-74510014D01*
X109020187Y-74661601D01*
X109089955Y-74830035D01*
X109125522Y-75008844D01*
X109125522Y-75191156D01*
X109089955Y-75369965D01*
X109020187Y-75538399D01*
X108918900Y-75689986D01*
X108789986Y-75818900D01*
X108638399Y-75920187D01*
X108469965Y-75989955D01*
X108291156Y-76025522D01*
X108108844Y-76025522D01*
X107930035Y-75989955D01*
X107761601Y-75920187D01*
X107610014Y-75818900D01*
X107481100Y-75689986D01*
X107379813Y-75538399D01*
X107310045Y-75369965D01*
X107274478Y-75191156D01*
X107274478Y-75008844D01*
X107310045Y-74830035D01*
X107379813Y-74661601D01*
X107481100Y-74510014D01*
X107610014Y-74381100D01*
X107761601Y-74279813D01*
X107930035Y-74210045D01*
X108108844Y-74174478D01*
X108291156Y-74174478D01*
X108469965Y-74210045D01*
G37*
G36*
X144000000Y-74320000D02*
G01*
X141000000Y-74320000D01*
X141000000Y-71320000D01*
X144000000Y-71320000D01*
X144000000Y-74320000D01*
G37*
G36*
X120734372Y-67699739D02*
G01*
X120807847Y-67742160D01*
X120867840Y-67802153D01*
X120910261Y-67875628D01*
X120932220Y-67957579D01*
X120932220Y-68042421D01*
X120910261Y-68124372D01*
X120867840Y-68197847D01*
X120807847Y-68257840D01*
X120734372Y-68300261D01*
X120652421Y-68322220D01*
X120567579Y-68322220D01*
X120485628Y-68300261D01*
X120412153Y-68257840D01*
X120352160Y-68197847D01*
X120309739Y-68124372D01*
X120287780Y-68042421D01*
X120287780Y-67957579D01*
X120309739Y-67875628D01*
X120352160Y-67802153D01*
X120412153Y-67742160D01*
X120485628Y-67699739D01*
X120567579Y-67677780D01*
X120652421Y-67677780D01*
X120734372Y-67699739D01*
G37*
G36*
X126514372Y-67699739D02*
G01*
X126587847Y-67742160D01*
X126647840Y-67802153D01*
X126690261Y-67875628D01*
X126712220Y-67957579D01*
X126712220Y-68042421D01*
X126690261Y-68124372D01*
X126647840Y-68197847D01*
X126587847Y-68257840D01*
X126514372Y-68300261D01*
X126432421Y-68322220D01*
X126347579Y-68322220D01*
X126265628Y-68300261D01*
X126192153Y-68257840D01*
X126132160Y-68197847D01*
X126089739Y-68124372D01*
X126067780Y-68042421D01*
X126067780Y-67957579D01*
X126089739Y-67875628D01*
X126132160Y-67802153D01*
X126192153Y-67742160D01*
X126265628Y-67699739D01*
X126347579Y-67677780D01*
X126432421Y-67677780D01*
X126514372Y-67699739D01*
G37*
G36*
X103915151Y-65287301D02*
G01*
X104116623Y-65352763D01*
X104305373Y-65448936D01*
X104476755Y-65573452D01*
X104626548Y-65723245D01*
X104751064Y-65894627D01*
X104847237Y-66083377D01*
X104912699Y-66284849D01*
X104945838Y-66494080D01*
X104945838Y-66705920D01*
X104912699Y-66915151D01*
X104847237Y-67116623D01*
X104751064Y-67305373D01*
X104626548Y-67476755D01*
X104476755Y-67626548D01*
X104305373Y-67751064D01*
X104116623Y-67847237D01*
X103915151Y-67912699D01*
X103705920Y-67945838D01*
X103494080Y-67945838D01*
X103284849Y-67912699D01*
X103083377Y-67847237D01*
X102894627Y-67751064D01*
X102723245Y-67626548D01*
X102573452Y-67476755D01*
X102448936Y-67305373D01*
X102352763Y-67116623D01*
X102287301Y-66915151D01*
X102254162Y-66705920D01*
X102254162Y-66494080D01*
X102287301Y-66284849D01*
X102352763Y-66083377D01*
X102448936Y-65894627D01*
X102573452Y-65723245D01*
X102723245Y-65573452D01*
X102894627Y-65448936D01*
X103083377Y-65352763D01*
X103284849Y-65287301D01*
X103494080Y-65254162D01*
X103705920Y-65254162D01*
X103915151Y-65287301D01*
G37*
G36*
X143715151Y-65287301D02*
G01*
X143916623Y-65352763D01*
X144105373Y-65448936D01*
X144276755Y-65573452D01*
X144426548Y-65723245D01*
X144551064Y-65894627D01*
X144647237Y-66083377D01*
X144712699Y-66284849D01*
X144745838Y-66494080D01*
X144745838Y-66705920D01*
X144712699Y-66915151D01*
X144647237Y-67116623D01*
X144551064Y-67305373D01*
X144426548Y-67476755D01*
X144276755Y-67626548D01*
X144105373Y-67751064D01*
X143916623Y-67847237D01*
X143715151Y-67912699D01*
X143505920Y-67945838D01*
X143294080Y-67945838D01*
X143084849Y-67912699D01*
X142883377Y-67847237D01*
X142694627Y-67751064D01*
X142523245Y-67626548D01*
X142373452Y-67476755D01*
X142248936Y-67305373D01*
X142152763Y-67116623D01*
X142087301Y-66915151D01*
X142054162Y-66705920D01*
X142054162Y-66494080D01*
X142087301Y-66284849D01*
X142152763Y-66083377D01*
X142248936Y-65894627D01*
X142373452Y-65723245D01*
X142523245Y-65573452D01*
X142694627Y-65448936D01*
X142883377Y-65352763D01*
X143084849Y-65287301D01*
X143294080Y-65254162D01*
X143505920Y-65254162D01*
X143715151Y-65287301D01*
G37*
M02*
