G04 #@! TF.GenerationSoftware,KiCad,Pcbnew,9.0.4-9.0.4-0~ubuntu22.04.1*
G04 #@! TF.CreationDate,2025-09-21T20:46:47-04:00*
G04 #@! TF.ProjectId,Pico_RF_V1,5069636f-5f52-4465-9f56-312e6b696361,rev?*
G04 #@! TF.SameCoordinates,Original*
G04 #@! TF.FileFunction,Copper,L2,Bot*
G04 #@! TF.FilePolarity,Positive*
%FSLAX46Y46*%
G04 Gerber Fmt 4.6, Leading zero omitted, Abs format (unit mm)*
G04 Created by KiCad (PCBNEW 9.0.4-9.0.4-0~ubuntu22.04.1) date 2025-09-21 20:46:47*
%MOMM*%
%LPD*%
G01*
G04 APERTURE LIST*
G04 #@! TA.AperFunction,ComponentPad*
%ADD10C,1.700000*%
G04 #@! TD*
G04 #@! TA.AperFunction,ComponentPad*
%ADD11O,1.700000X1.700000*%
G04 #@! TD*
G04 #@! TA.AperFunction,ComponentPad*
%ADD12R,1.860000X1.860000*%
G04 #@! TD*
G04 #@! TA.AperFunction,ComponentPad*
%ADD13C,1.860000*%
G04 #@! TD*
G04 #@! TA.AperFunction,ComponentPad*
%ADD14C,0.600000*%
G04 #@! TD*
G04 #@! TA.AperFunction,ComponentPad*
%ADD15R,3.000000X3.000000*%
G04 #@! TD*
G04 #@! TA.AperFunction,ComponentPad*
%ADD16C,3.000000*%
G04 #@! TD*
G04 #@! TA.AperFunction,ComponentPad*
%ADD17C,1.269000*%
G04 #@! TD*
G04 #@! TA.AperFunction,ViaPad*
%ADD18C,0.600000*%
G04 #@! TD*
G04 #@! TA.AperFunction,Conductor*
%ADD19C,0.200000*%
G04 #@! TD*
G04 #@! TA.AperFunction,Conductor*
%ADD20C,3.000000*%
G04 #@! TD*
G04 #@! TA.AperFunction,Conductor*
%ADD21C,0.400000*%
G04 #@! TD*
G04 #@! TA.AperFunction,Conductor*
%ADD22C,0.800000*%
G04 #@! TD*
G04 APERTURE END LIST*
D10*
X109980000Y-146400000D03*
D11*
X112520000Y-146400000D03*
X115060000Y-146400000D03*
X117600000Y-146400000D03*
D12*
X101700000Y-89800000D03*
D13*
X108200000Y-89800000D03*
D14*
X126325000Y-103325000D03*
X126325000Y-104600000D03*
X126325000Y-105875000D03*
X127600000Y-103325000D03*
X127600000Y-104600000D03*
X127600000Y-105875000D03*
X128875000Y-103325000D03*
X128875000Y-104600000D03*
X128875000Y-105875000D03*
D12*
X101700000Y-75100000D03*
D13*
X108200000Y-75100000D03*
D15*
X142500000Y-93560000D03*
D16*
X142500000Y-88480000D03*
X142500000Y-83400000D03*
D10*
X102200000Y-98520000D03*
D11*
X102200000Y-101060000D03*
X102200000Y-103600000D03*
X102200000Y-106140000D03*
X102200000Y-108680000D03*
X102200000Y-111220000D03*
X102200000Y-113760000D03*
X102200000Y-116300000D03*
X102200000Y-118840000D03*
X102200000Y-121380000D03*
X102200000Y-123920000D03*
X102200000Y-126460000D03*
X102200000Y-129000000D03*
X102200000Y-131540000D03*
X102200000Y-134080000D03*
X102200000Y-136620000D03*
X102200000Y-139160000D03*
X102200000Y-141700000D03*
D17*
X116820000Y-123360000D03*
X116820000Y-125900000D03*
X116820000Y-128440000D03*
X116820000Y-130980000D03*
X116820000Y-133520000D03*
X116820000Y-136060000D03*
X116820000Y-138600000D03*
X116820000Y-141140000D03*
X109200000Y-123360000D03*
X109200000Y-125900000D03*
X109200000Y-128440000D03*
X109200000Y-130980000D03*
X109200000Y-133520000D03*
X109200000Y-136060000D03*
X109200000Y-138600000D03*
X109200000Y-141140000D03*
D10*
X133250000Y-147250000D03*
X144700000Y-98220000D03*
D11*
X144700000Y-100760000D03*
X144700000Y-103300000D03*
X144700000Y-105840000D03*
X144700000Y-108380000D03*
X144700000Y-110920000D03*
X144700000Y-113460000D03*
X144700000Y-116000000D03*
X144700000Y-118540000D03*
X144700000Y-121080000D03*
X144700000Y-123620000D03*
X144700000Y-126160000D03*
X144700000Y-128700000D03*
X144700000Y-131240000D03*
X144700000Y-133780000D03*
X144700000Y-136320000D03*
X144700000Y-138860000D03*
X144700000Y-141400000D03*
D12*
X127000000Y-123250000D03*
D13*
X133500000Y-123250000D03*
D16*
X142500000Y-77900000D03*
D15*
X142500000Y-72820000D03*
D12*
X101700000Y-82400000D03*
D13*
X108200000Y-82400000D03*
D18*
X109700000Y-99500000D03*
X104950000Y-89800000D03*
X138425000Y-143700000D03*
X126750000Y-117500000D03*
X121000000Y-65250000D03*
X138400000Y-142900000D03*
X113875000Y-119300000D03*
X116250000Y-90250000D03*
X134850000Y-143275000D03*
X107100000Y-147457969D03*
X130250000Y-91500000D03*
X104950000Y-82400000D03*
X107175000Y-107325000D03*
X131500000Y-134500000D03*
X119250000Y-87500000D03*
X103500000Y-94500000D03*
X128825000Y-147750000D03*
X105750000Y-70000000D03*
X137250000Y-85000000D03*
X122500000Y-71500000D03*
X134575000Y-145900000D03*
X136700000Y-142750000D03*
X134000000Y-130500000D03*
X137000000Y-80250000D03*
X111250000Y-79500000D03*
X128500000Y-116000000D03*
X101500000Y-94500000D03*
X125750000Y-132500000D03*
X127012500Y-86487500D03*
X136750000Y-91250000D03*
X121950000Y-79975000D03*
X119750000Y-125750000D03*
X125750000Y-127500000D03*
X122400000Y-111600000D03*
X109700000Y-102100000D03*
X102500000Y-71000000D03*
X104950000Y-75100000D03*
X135950000Y-98225000D03*
X101750000Y-78500000D03*
X120000000Y-144500000D03*
X136100000Y-144400000D03*
X137000000Y-75250000D03*
X115750000Y-65250000D03*
X111250000Y-81500000D03*
X114450000Y-73775000D03*
X135500000Y-95250000D03*
X110550000Y-115575000D03*
X113725000Y-136800000D03*
X134600000Y-146675000D03*
X120775000Y-147050000D03*
X135750000Y-142750000D03*
X111350000Y-118050000D03*
X125750000Y-130500000D03*
X134125000Y-144025000D03*
X113700000Y-139525000D03*
X120975000Y-106375000D03*
X126250000Y-65250000D03*
X122375000Y-75050000D03*
X128000000Y-70000000D03*
X132650000Y-145550000D03*
X126250000Y-147750000D03*
X130250000Y-123250000D03*
X111250000Y-85750000D03*
X107150000Y-102125000D03*
X113625000Y-128000000D03*
X134000000Y-139000000D03*
X119550000Y-73525000D03*
X135100000Y-108700000D03*
X133350000Y-144750000D03*
X121750000Y-91250000D03*
X125750000Y-134500000D03*
X115050000Y-107200000D03*
X119825000Y-122550000D03*
X101750000Y-86000000D03*
X126600000Y-107000000D03*
X125100000Y-71500000D03*
X104938948Y-143218088D03*
X113675000Y-125750000D03*
X117300000Y-112500000D03*
X125750000Y-136500000D03*
X111500000Y-68000000D03*
X121900000Y-116400000D03*
X118475000Y-79925000D03*
X138825000Y-144500000D03*
X132600000Y-98000000D03*
X128000000Y-91500000D03*
X125500000Y-88100000D03*
X125750000Y-140000000D03*
X126450000Y-73800000D03*
X125550000Y-81850000D03*
X122300000Y-73000000D03*
X123727000Y-115000000D03*
X127400000Y-115000000D03*
X131550000Y-136950000D03*
X129200000Y-82800000D03*
X140400000Y-116000000D03*
X121200000Y-89000000D03*
X139000000Y-117600000D03*
X136350000Y-124150000D03*
X137900000Y-122600000D03*
X124601917Y-118125520D03*
X119600000Y-120900000D03*
X106000000Y-72000000D03*
X124600000Y-115600000D03*
X112500000Y-148500000D03*
X120000000Y-146000000D03*
X123200000Y-118127000D03*
X123200000Y-113300000D03*
X130000000Y-118000000D03*
X135100000Y-131500000D03*
X140500000Y-128300000D03*
X136925000Y-124675000D03*
X138450000Y-123150000D03*
X142500000Y-122300000D03*
X137500000Y-125250000D03*
X116000000Y-87900000D03*
X135300000Y-132700000D03*
X111100000Y-76800000D03*
X128750000Y-118000000D03*
X131400000Y-79400000D03*
X133300000Y-79400000D03*
X109500000Y-93600000D03*
X109500000Y-91400000D03*
X122800000Y-89500000D03*
X137400000Y-95100000D03*
X132900000Y-101800000D03*
X123727000Y-114000000D03*
X126400000Y-79775000D03*
X132300000Y-80350000D03*
D19*
X102200000Y-98520000D02*
X105672000Y-101992000D01*
X105672000Y-101992000D02*
X105672000Y-114172000D01*
X105672000Y-114172000D02*
X115060000Y-123560000D01*
X115060000Y-123560000D02*
X115060000Y-146400000D01*
D20*
X140378680Y-72460000D02*
X139373000Y-73465680D01*
X142500000Y-72460000D02*
X140378680Y-72460000D01*
D21*
X125500000Y-88000000D02*
X127012500Y-86487500D01*
D19*
X109700000Y-99500000D02*
X109700000Y-102100000D01*
D20*
X139373000Y-73465680D02*
X139373000Y-90453000D01*
D21*
X125500000Y-88100000D02*
X125500000Y-88000000D01*
D20*
X139373000Y-90453000D02*
X142500000Y-93580000D01*
D21*
X125425000Y-73000000D02*
X125550000Y-73125000D01*
X125550000Y-73125000D02*
X125550000Y-73800000D01*
X125550000Y-73800000D02*
X125550000Y-81850000D01*
X126450000Y-73800000D02*
X125550000Y-73800000D01*
X125425000Y-73000000D02*
X122300000Y-73000000D01*
D19*
X123727000Y-115000000D02*
X127400000Y-115000000D01*
X131550000Y-136950000D02*
X129900000Y-138600000D01*
D22*
X127400000Y-82800000D02*
X129200000Y-82800000D01*
D19*
X129900000Y-138600000D02*
X122860000Y-138600000D01*
X140400000Y-116200000D02*
X139000000Y-117600000D01*
D22*
X121200000Y-89000000D02*
X127400000Y-82800000D01*
D19*
X122860000Y-138600000D02*
X115060000Y-146400000D01*
X140400000Y-116000000D02*
X140400000Y-116200000D01*
X136350000Y-124150000D02*
X137900000Y-122600000D01*
X124600000Y-118123603D02*
X124601917Y-118125520D01*
X106000000Y-107300000D02*
X106000000Y-72000000D01*
X124600000Y-115600000D02*
X124600000Y-118123603D01*
X119600000Y-120900000D02*
X106000000Y-107300000D01*
X111170000Y-147750000D02*
X112520000Y-146400000D01*
X106100000Y-117660000D02*
X106100000Y-145100000D01*
X108750000Y-147750000D02*
X111170000Y-147750000D01*
X102200000Y-113760000D02*
X106100000Y-117660000D01*
X106100000Y-145100000D02*
X108750000Y-147750000D01*
X117500000Y-148500000D02*
X112500000Y-148500000D01*
X106427000Y-143564552D02*
X109262448Y-146400000D01*
X102200000Y-111220000D02*
X106427000Y-115447000D01*
X120000000Y-146000000D02*
X117500000Y-148500000D01*
X106427000Y-115447000D02*
X106427000Y-143564552D01*
X109262448Y-146400000D02*
X109980000Y-146400000D01*
X123200000Y-113300000D02*
X123200000Y-118127000D01*
X134540000Y-113460000D02*
X144700000Y-113460000D01*
X130550000Y-117450000D02*
X130000000Y-118000000D01*
X130550000Y-117450000D02*
X134540000Y-113460000D01*
X135100000Y-131500000D02*
X136000000Y-130600000D01*
X136000000Y-130600000D02*
X140260000Y-130600000D01*
X140260000Y-130600000D02*
X144700000Y-126160000D01*
X140500000Y-125280000D02*
X144700000Y-121080000D01*
X140500000Y-128300000D02*
X140500000Y-125280000D01*
X136925000Y-124675000D02*
X138450000Y-123150000D01*
X140450000Y-122300000D02*
X142500000Y-122300000D01*
X137500000Y-125250000D02*
X140450000Y-122300000D01*
X116000000Y-87900000D02*
X117827000Y-89727000D01*
X124407000Y-120207000D02*
X140493000Y-120207000D01*
X117827000Y-113627000D02*
X124407000Y-120207000D01*
X140493000Y-120207000D02*
X144700000Y-116000000D01*
X117827000Y-89727000D02*
X117827000Y-113627000D01*
X140700000Y-132700000D02*
X144700000Y-128700000D01*
X135300000Y-132700000D02*
X140700000Y-132700000D01*
X134780000Y-133780000D02*
X144700000Y-133780000D01*
X112900000Y-111900000D02*
X134780000Y-133780000D01*
X111100000Y-76800000D02*
X112900000Y-78600000D01*
X112900000Y-78600000D02*
X112900000Y-111900000D01*
X138370000Y-108380000D02*
X128750000Y-118000000D01*
X144700000Y-108380000D02*
X138370000Y-108380000D01*
D20*
X142500000Y-77900000D02*
X142500000Y-83400000D01*
D21*
X131400000Y-79400000D02*
X133300000Y-79400000D01*
D19*
X109500000Y-91400000D02*
X109500000Y-93600000D01*
D21*
X131800000Y-89500000D02*
X137400000Y-95100000D01*
X122800000Y-89500000D02*
X131800000Y-89500000D01*
D19*
X132900000Y-107000000D02*
X132900000Y-101800000D01*
X123727000Y-114000000D02*
X125900000Y-114000000D01*
X125900000Y-114000000D02*
X132900000Y-107000000D01*
D21*
X132300000Y-80350000D02*
X126975000Y-80350000D01*
X126975000Y-80350000D02*
X126400000Y-79775000D01*
G04 #@! TA.AperFunction,Conductor*
G36*
X103591111Y-63500498D02*
G01*
X103594534Y-63500548D01*
X103646096Y-63502021D01*
X103651568Y-63502178D01*
X103651568Y-63502177D01*
X103651571Y-63502178D01*
X103651573Y-63502177D01*
X103659656Y-63501347D01*
X103659731Y-63502083D01*
X103673145Y-63500506D01*
X143541786Y-63504657D01*
X143549317Y-63506432D01*
X143607599Y-63504663D01*
X143622208Y-63504664D01*
X143625410Y-63504708D01*
X143927656Y-63512827D01*
X143941773Y-63514015D01*
X144244247Y-63557016D01*
X144258125Y-63559806D01*
X144553708Y-63637042D01*
X144567185Y-63641400D01*
X144633199Y-63667001D01*
X144852014Y-63751858D01*
X144864915Y-63757730D01*
X145135272Y-63899968D01*
X145147418Y-63907273D01*
X145374459Y-64062161D01*
X145399785Y-64079438D01*
X145411015Y-64088080D01*
X145526550Y-64188000D01*
X145642083Y-64287918D01*
X145652256Y-64297787D01*
X145859013Y-64522692D01*
X145867993Y-64533658D01*
X146047725Y-64780676D01*
X146055396Y-64792595D01*
X146205771Y-65058520D01*
X146212031Y-65071236D01*
X146331075Y-65352581D01*
X146335843Y-65365928D01*
X146422004Y-65659020D01*
X146425218Y-65672825D01*
X146477369Y-65973840D01*
X146478986Y-65987921D01*
X146496650Y-66296478D01*
X146496798Y-66299859D01*
X146496853Y-66301698D01*
X146496853Y-66365892D01*
X146499013Y-66373954D01*
X146499445Y-66388390D01*
X146499157Y-66389491D01*
X146499500Y-66392096D01*
X146499500Y-146578500D01*
X146499051Y-146589042D01*
X146473607Y-146887238D01*
X146471651Y-146901001D01*
X146412831Y-147195270D01*
X146409346Y-147208728D01*
X146317959Y-147494555D01*
X146312990Y-147507538D01*
X146190182Y-147781343D01*
X146183791Y-147793688D01*
X146031110Y-148052023D01*
X146023377Y-148063576D01*
X145842732Y-148303206D01*
X145833754Y-148313820D01*
X145627433Y-148531711D01*
X145617325Y-148541253D01*
X145387901Y-148734691D01*
X145376786Y-148743043D01*
X145127156Y-148909580D01*
X145115178Y-148916634D01*
X144848479Y-149054182D01*
X144835786Y-149059852D01*
X144555359Y-149166685D01*
X144542111Y-149170898D01*
X144251495Y-149245669D01*
X144237859Y-149248373D01*
X143940691Y-149290147D01*
X143926838Y-149291307D01*
X143631212Y-149299434D01*
X143628130Y-149299481D01*
X143614040Y-149299518D01*
X143610166Y-149299467D01*
X143554047Y-149297860D01*
X143545965Y-149298690D01*
X143545902Y-149298080D01*
X143531985Y-149299726D01*
X103503534Y-149401723D01*
X103496424Y-149401537D01*
X103178323Y-149384081D01*
X103164815Y-149382594D01*
X102853706Y-149330960D01*
X102840441Y-149328003D01*
X102739160Y-149299523D01*
X102536862Y-149242637D01*
X102524008Y-149238249D01*
X102272044Y-149136510D01*
X102231587Y-149120174D01*
X102219285Y-149114404D01*
X102156734Y-149080765D01*
X101941534Y-148965035D01*
X101929953Y-148957963D01*
X101670215Y-148779097D01*
X101659465Y-148770790D01*
X101420861Y-148564579D01*
X101411087Y-148555149D01*
X101369493Y-148510361D01*
X101369492Y-148510359D01*
X101196485Y-148324066D01*
X101187797Y-148313618D01*
X100999771Y-148060445D01*
X100992278Y-148049107D01*
X100916578Y-147919655D01*
X100833083Y-147776872D01*
X100826878Y-147764784D01*
X100825345Y-147761347D01*
X100698430Y-147476768D01*
X100693591Y-147464092D01*
X100597427Y-147163737D01*
X100594000Y-147150588D01*
X100555752Y-146962104D01*
X100531283Y-146841521D01*
X100529318Y-146828101D01*
X100501008Y-146516350D01*
X100500500Y-146505136D01*
X100500500Y-146407028D01*
X101999500Y-146407028D01*
X101999500Y-146643223D01*
X102036446Y-146876494D01*
X102109433Y-147101122D01*
X102171227Y-147222398D01*
X102216657Y-147311559D01*
X102355483Y-147502636D01*
X102522490Y-147669643D01*
X102713567Y-147808469D01*
X102804609Y-147854857D01*
X102924003Y-147915692D01*
X102924005Y-147915692D01*
X102924008Y-147915694D01*
X102981921Y-147934511D01*
X103148631Y-147988679D01*
X103381903Y-148025626D01*
X103381908Y-148025626D01*
X103618097Y-148025626D01*
X103851368Y-147988679D01*
X104075992Y-147915694D01*
X104286433Y-147808469D01*
X104477510Y-147669643D01*
X104644517Y-147502636D01*
X104783343Y-147311559D01*
X104890568Y-147101118D01*
X104963553Y-146876494D01*
X104976142Y-146797011D01*
X105000500Y-146643223D01*
X105000500Y-146407028D01*
X104963553Y-146173757D01*
X104890566Y-145949129D01*
X104788736Y-145749278D01*
X104783343Y-145738693D01*
X104644517Y-145547616D01*
X104477510Y-145380609D01*
X104286433Y-145241783D01*
X104286431Y-145241782D01*
X104075996Y-145134559D01*
X103851368Y-145061572D01*
X103618097Y-145024626D01*
X103618092Y-145024626D01*
X103381908Y-145024626D01*
X103381903Y-145024626D01*
X103148631Y-145061572D01*
X102924003Y-145134559D01*
X102713566Y-145241783D01*
X102604550Y-145320988D01*
X102522490Y-145380609D01*
X102522488Y-145380611D01*
X102522487Y-145380611D01*
X102355485Y-145547613D01*
X102355485Y-145547614D01*
X102355483Y-145547616D01*
X102299984Y-145624003D01*
X102216657Y-145738692D01*
X102109433Y-145949129D01*
X102036446Y-146173757D01*
X101999500Y-146407028D01*
X100500500Y-146407028D01*
X100500500Y-141450000D01*
X100872769Y-141450000D01*
X101766988Y-141450000D01*
X101734075Y-141507007D01*
X101700000Y-141634174D01*
X101700000Y-141765826D01*
X101734075Y-141892993D01*
X101766988Y-141950000D01*
X100872769Y-141950000D01*
X100883242Y-142016126D01*
X100883242Y-142016129D01*
X100948904Y-142218217D01*
X101045379Y-142407557D01*
X101170272Y-142579459D01*
X101170276Y-142579464D01*
X101320535Y-142729723D01*
X101320540Y-142729727D01*
X101492442Y-142854620D01*
X101681782Y-142951095D01*
X101883871Y-143016757D01*
X101950000Y-143027231D01*
X101950000Y-142133012D01*
X102007007Y-142165925D01*
X102134174Y-142200000D01*
X102265826Y-142200000D01*
X102392993Y-142165925D01*
X102450000Y-142133012D01*
X102450000Y-143027230D01*
X102516126Y-143016757D01*
X102516129Y-143016757D01*
X102718217Y-142951095D01*
X102907557Y-142854620D01*
X103079459Y-142729727D01*
X103079464Y-142729723D01*
X103229723Y-142579464D01*
X103229727Y-142579459D01*
X103354620Y-142407557D01*
X103451095Y-142218217D01*
X103516757Y-142016129D01*
X103516757Y-142016126D01*
X103527231Y-141950000D01*
X102633012Y-141950000D01*
X102665925Y-141892993D01*
X102700000Y-141765826D01*
X102700000Y-141634174D01*
X102665925Y-141507007D01*
X102633012Y-141450000D01*
X103527231Y-141450000D01*
X103516757Y-141383873D01*
X103516757Y-141383870D01*
X103451095Y-141181782D01*
X103354620Y-140992442D01*
X103229727Y-140820540D01*
X103229723Y-140820535D01*
X103079464Y-140670276D01*
X103079459Y-140670272D01*
X102907557Y-140545379D01*
X102718216Y-140448904D01*
X102542026Y-140391656D01*
X102484350Y-140352218D01*
X102457152Y-140287860D01*
X102469067Y-140219013D01*
X102516311Y-140167538D01*
X102532882Y-140159168D01*
X102697598Y-140090941D01*
X102869655Y-139975977D01*
X103015977Y-139829655D01*
X103130941Y-139657598D01*
X103210130Y-139466420D01*
X103250500Y-139263465D01*
X103250500Y-139056535D01*
X103210130Y-138853580D01*
X103130941Y-138662402D01*
X103015977Y-138490345D01*
X103015975Y-138490342D01*
X102869657Y-138344024D01*
X102783626Y-138286541D01*
X102697598Y-138229059D01*
X102638271Y-138204485D01*
X102506420Y-138149870D01*
X102506412Y-138149868D01*
X102303469Y-138109500D01*
X102303465Y-138109500D01*
X102096535Y-138109500D01*
X102096530Y-138109500D01*
X101893587Y-138149868D01*
X101893579Y-138149870D01*
X101702403Y-138229058D01*
X101530342Y-138344024D01*
X101384024Y-138490342D01*
X101269058Y-138662403D01*
X101189870Y-138853579D01*
X101189868Y-138853587D01*
X101149500Y-139056530D01*
X101149500Y-139263469D01*
X101183620Y-139435000D01*
X101189870Y-139466420D01*
X101269059Y-139657598D01*
X101320443Y-139734500D01*
X101384024Y-139829657D01*
X101530342Y-139975975D01*
X101702405Y-140090943D01*
X101805043Y-140133456D01*
X101867108Y-140159164D01*
X101921511Y-140203005D01*
X101943576Y-140269299D01*
X101926297Y-140336998D01*
X101875160Y-140384609D01*
X101857974Y-140391656D01*
X101681781Y-140448905D01*
X101492442Y-140545379D01*
X101320540Y-140670272D01*
X101320535Y-140670276D01*
X101170276Y-140820535D01*
X101170272Y-140820540D01*
X101045379Y-140992442D01*
X100948904Y-141181782D01*
X100883242Y-141383870D01*
X100883242Y-141383873D01*
X100872769Y-141450000D01*
X100500500Y-141450000D01*
X100500500Y-136516530D01*
X101149500Y-136516530D01*
X101149500Y-136723469D01*
X101181454Y-136884110D01*
X101189870Y-136926420D01*
X101269059Y-137117598D01*
X101320443Y-137194500D01*
X101384024Y-137289657D01*
X101530342Y-137435975D01*
X101530345Y-137435977D01*
X101702402Y-137550941D01*
X101893580Y-137630130D01*
X102096530Y-137670499D01*
X102096534Y-137670500D01*
X102096535Y-137670500D01*
X102303466Y-137670500D01*
X102303467Y-137670499D01*
X102506420Y-137630130D01*
X102697598Y-137550941D01*
X102869655Y-137435977D01*
X103015977Y-137289655D01*
X103130941Y-137117598D01*
X103210130Y-136926420D01*
X103250500Y-136723465D01*
X103250500Y-136516535D01*
X103210130Y-136313580D01*
X103130941Y-136122402D01*
X103015977Y-135950345D01*
X103015975Y-135950342D01*
X102869657Y-135804024D01*
X102736743Y-135715215D01*
X102697598Y-135689059D01*
X102638271Y-135664485D01*
X102506420Y-135609870D01*
X102506412Y-135609868D01*
X102303469Y-135569500D01*
X102303465Y-135569500D01*
X102096535Y-135569500D01*
X102096530Y-135569500D01*
X101893587Y-135609868D01*
X101893579Y-135609870D01*
X101702403Y-135689058D01*
X101530342Y-135804024D01*
X101384024Y-135950342D01*
X101269058Y-136122403D01*
X101189870Y-136313579D01*
X101189868Y-136313587D01*
X101149500Y-136516530D01*
X100500500Y-136516530D01*
X100500500Y-133976530D01*
X101149500Y-133976530D01*
X101149500Y-134183469D01*
X101183620Y-134355000D01*
X101189870Y-134386420D01*
X101269059Y-134577598D01*
X101320443Y-134654500D01*
X101384024Y-134749657D01*
X101530342Y-134895975D01*
X101530345Y-134895977D01*
X101702402Y-135010941D01*
X101893580Y-135090130D01*
X102096530Y-135130499D01*
X102096534Y-135130500D01*
X102096535Y-135130500D01*
X102303466Y-135130500D01*
X102303467Y-135130499D01*
X102506420Y-135090130D01*
X102697598Y-135010941D01*
X102869655Y-134895977D01*
X103015977Y-134749655D01*
X103130941Y-134577598D01*
X103210130Y-134386420D01*
X103250500Y-134183465D01*
X103250500Y-133976535D01*
X103210130Y-133773580D01*
X103130941Y-133582402D01*
X103015977Y-133410345D01*
X103015975Y-133410342D01*
X102869657Y-133264024D01*
X102736743Y-133175215D01*
X102697598Y-133149059D01*
X102638271Y-133124485D01*
X102506420Y-133069870D01*
X102506412Y-133069868D01*
X102303469Y-133029500D01*
X102303465Y-133029500D01*
X102096535Y-133029500D01*
X102096530Y-133029500D01*
X101893587Y-133069868D01*
X101893579Y-133069870D01*
X101702403Y-133149058D01*
X101530342Y-133264024D01*
X101384024Y-133410342D01*
X101269058Y-133582403D01*
X101189870Y-133773579D01*
X101189868Y-133773587D01*
X101149500Y-133976530D01*
X100500500Y-133976530D01*
X100500500Y-131436530D01*
X101149500Y-131436530D01*
X101149500Y-131643469D01*
X101183620Y-131815000D01*
X101189870Y-131846420D01*
X101269059Y-132037598D01*
X101320443Y-132114500D01*
X101384024Y-132209657D01*
X101530342Y-132355975D01*
X101530345Y-132355977D01*
X101702402Y-132470941D01*
X101893580Y-132550130D01*
X102096530Y-132590499D01*
X102096534Y-132590500D01*
X102096535Y-132590500D01*
X102303466Y-132590500D01*
X102303467Y-132590499D01*
X102506420Y-132550130D01*
X102697598Y-132470941D01*
X102869655Y-132355977D01*
X103015977Y-132209655D01*
X103130941Y-132037598D01*
X103210130Y-131846420D01*
X103250500Y-131643465D01*
X103250500Y-131436535D01*
X103210130Y-131233580D01*
X103130941Y-131042402D01*
X103015977Y-130870345D01*
X103015975Y-130870342D01*
X102869657Y-130724024D01*
X102736743Y-130635215D01*
X102697598Y-130609059D01*
X102638271Y-130584485D01*
X102506420Y-130529870D01*
X102506412Y-130529868D01*
X102303469Y-130489500D01*
X102303465Y-130489500D01*
X102096535Y-130489500D01*
X102096530Y-130489500D01*
X101893587Y-130529868D01*
X101893579Y-130529870D01*
X101702403Y-130609058D01*
X101530342Y-130724024D01*
X101384024Y-130870342D01*
X101269058Y-131042403D01*
X101189870Y-131233579D01*
X101189868Y-131233587D01*
X101149500Y-131436530D01*
X100500500Y-131436530D01*
X100500500Y-128896530D01*
X101149500Y-128896530D01*
X101149500Y-129103469D01*
X101181055Y-129262104D01*
X101189870Y-129306420D01*
X101269059Y-129497598D01*
X101320443Y-129574500D01*
X101384024Y-129669657D01*
X101530342Y-129815975D01*
X101530345Y-129815977D01*
X101702402Y-129930941D01*
X101893580Y-130010130D01*
X102096530Y-130050499D01*
X102096534Y-130050500D01*
X102096535Y-130050500D01*
X102303466Y-130050500D01*
X102303467Y-130050499D01*
X102506420Y-130010130D01*
X102697598Y-129930941D01*
X102869655Y-129815977D01*
X103015977Y-129669655D01*
X103130941Y-129497598D01*
X103210130Y-129306420D01*
X103250500Y-129103465D01*
X103250500Y-128896535D01*
X103210130Y-128693580D01*
X103130941Y-128502402D01*
X103015977Y-128330345D01*
X103015975Y-128330342D01*
X102869657Y-128184024D01*
X102736743Y-128095215D01*
X102697598Y-128069059D01*
X102638271Y-128044485D01*
X102506420Y-127989870D01*
X102506412Y-127989868D01*
X102303469Y-127949500D01*
X102303465Y-127949500D01*
X102096535Y-127949500D01*
X102096530Y-127949500D01*
X101893587Y-127989868D01*
X101893579Y-127989870D01*
X101702403Y-128069058D01*
X101530342Y-128184024D01*
X101384024Y-128330342D01*
X101269058Y-128502403D01*
X101189870Y-128693579D01*
X101189868Y-128693587D01*
X101149500Y-128896530D01*
X100500500Y-128896530D01*
X100500500Y-126356530D01*
X101149500Y-126356530D01*
X101149500Y-126563469D01*
X101181055Y-126722104D01*
X101189870Y-126766420D01*
X101269059Y-126957598D01*
X101320443Y-127034500D01*
X101384024Y-127129657D01*
X101530342Y-127275975D01*
X101530345Y-127275977D01*
X101702402Y-127390941D01*
X101893580Y-127470130D01*
X102096530Y-127510499D01*
X102096534Y-127510500D01*
X102096535Y-127510500D01*
X102303466Y-127510500D01*
X102303467Y-127510499D01*
X102506420Y-127470130D01*
X102697598Y-127390941D01*
X102869655Y-127275977D01*
X103015977Y-127129655D01*
X103130941Y-126957598D01*
X103210130Y-126766420D01*
X103250500Y-126563465D01*
X103250500Y-126356535D01*
X103210130Y-126153580D01*
X103130941Y-125962402D01*
X103015977Y-125790345D01*
X103015975Y-125790342D01*
X102869657Y-125644024D01*
X102736743Y-125555215D01*
X102697598Y-125529059D01*
X102638271Y-125504485D01*
X102506420Y-125449870D01*
X102506412Y-125449868D01*
X102303469Y-125409500D01*
X102303465Y-125409500D01*
X102096535Y-125409500D01*
X102096530Y-125409500D01*
X101893587Y-125449868D01*
X101893579Y-125449870D01*
X101702403Y-125529058D01*
X101530342Y-125644024D01*
X101384024Y-125790342D01*
X101269058Y-125962403D01*
X101189870Y-126153579D01*
X101189868Y-126153587D01*
X101149500Y-126356530D01*
X100500500Y-126356530D01*
X100500500Y-123816530D01*
X101149500Y-123816530D01*
X101149500Y-124023469D01*
X101189868Y-124226412D01*
X101189870Y-124226420D01*
X101219384Y-124297674D01*
X101269059Y-124417598D01*
X101320443Y-124494500D01*
X101384024Y-124589657D01*
X101530342Y-124735975D01*
X101530345Y-124735977D01*
X101702402Y-124850941D01*
X101893580Y-124930130D01*
X102096530Y-124970499D01*
X102096534Y-124970500D01*
X102096535Y-124970500D01*
X102303466Y-124970500D01*
X102303467Y-124970499D01*
X102506420Y-124930130D01*
X102697598Y-124850941D01*
X102869655Y-124735977D01*
X103015977Y-124589655D01*
X103130941Y-124417598D01*
X103210130Y-124226420D01*
X103250500Y-124023465D01*
X103250500Y-123816535D01*
X103210130Y-123613580D01*
X103130941Y-123422402D01*
X103015977Y-123250345D01*
X103015975Y-123250342D01*
X102869657Y-123104024D01*
X102736743Y-123015215D01*
X102697598Y-122989059D01*
X102688460Y-122985274D01*
X102506420Y-122909870D01*
X102506412Y-122909868D01*
X102303469Y-122869500D01*
X102303465Y-122869500D01*
X102096535Y-122869500D01*
X102096530Y-122869500D01*
X101893587Y-122909868D01*
X101893579Y-122909870D01*
X101702403Y-122989058D01*
X101530342Y-123104024D01*
X101384024Y-123250342D01*
X101269058Y-123422403D01*
X101189870Y-123613579D01*
X101189868Y-123613587D01*
X101149500Y-123816530D01*
X100500500Y-123816530D01*
X100500500Y-121276530D01*
X101149500Y-121276530D01*
X101149500Y-121483469D01*
X101189868Y-121686412D01*
X101189870Y-121686420D01*
X101236709Y-121799500D01*
X101269059Y-121877598D01*
X101283695Y-121899502D01*
X101384024Y-122049657D01*
X101530342Y-122195975D01*
X101530345Y-122195977D01*
X101702402Y-122310941D01*
X101893580Y-122390130D01*
X102096530Y-122430499D01*
X102096534Y-122430500D01*
X102096535Y-122430500D01*
X102303466Y-122430500D01*
X102303467Y-122430499D01*
X102506420Y-122390130D01*
X102697598Y-122310941D01*
X102869655Y-122195977D01*
X103015977Y-122049655D01*
X103130941Y-121877598D01*
X103210130Y-121686420D01*
X103250500Y-121483465D01*
X103250500Y-121276535D01*
X103210130Y-121073580D01*
X103130941Y-120882402D01*
X103015977Y-120710345D01*
X103015975Y-120710342D01*
X102869657Y-120564024D01*
X102773089Y-120499500D01*
X102697598Y-120449059D01*
X102693747Y-120447464D01*
X102506420Y-120369870D01*
X102506412Y-120369868D01*
X102303469Y-120329500D01*
X102303465Y-120329500D01*
X102096535Y-120329500D01*
X102096530Y-120329500D01*
X101893587Y-120369868D01*
X101893579Y-120369870D01*
X101702403Y-120449058D01*
X101530342Y-120564024D01*
X101384024Y-120710342D01*
X101269058Y-120882403D01*
X101189870Y-121073579D01*
X101189868Y-121073587D01*
X101149500Y-121276530D01*
X100500500Y-121276530D01*
X100500500Y-118736530D01*
X101149500Y-118736530D01*
X101149500Y-118943469D01*
X101189868Y-119146412D01*
X101189870Y-119146420D01*
X101269059Y-119337598D01*
X101326541Y-119423626D01*
X101384024Y-119509657D01*
X101530342Y-119655975D01*
X101530345Y-119655977D01*
X101702402Y-119770941D01*
X101893580Y-119850130D01*
X102078009Y-119886815D01*
X102096530Y-119890499D01*
X102096534Y-119890500D01*
X102096535Y-119890500D01*
X102303466Y-119890500D01*
X102303467Y-119890499D01*
X102506420Y-119850130D01*
X102697598Y-119770941D01*
X102869655Y-119655977D01*
X103015977Y-119509655D01*
X103130941Y-119337598D01*
X103210130Y-119146420D01*
X103250500Y-118943465D01*
X103250500Y-118736535D01*
X103210130Y-118533580D01*
X103130941Y-118342402D01*
X103015977Y-118170345D01*
X103015975Y-118170342D01*
X102869657Y-118024024D01*
X102765498Y-117954428D01*
X102697598Y-117909059D01*
X102693385Y-117907314D01*
X102506420Y-117829870D01*
X102506412Y-117829868D01*
X102303469Y-117789500D01*
X102303465Y-117789500D01*
X102096535Y-117789500D01*
X102096530Y-117789500D01*
X101893587Y-117829868D01*
X101893579Y-117829870D01*
X101702403Y-117909058D01*
X101530342Y-118024024D01*
X101384024Y-118170342D01*
X101269058Y-118342403D01*
X101189870Y-118533579D01*
X101189868Y-118533587D01*
X101149500Y-118736530D01*
X100500500Y-118736530D01*
X100500500Y-116196530D01*
X101149500Y-116196530D01*
X101149500Y-116403469D01*
X101181055Y-116562104D01*
X101189870Y-116606420D01*
X101269059Y-116797598D01*
X101326541Y-116883626D01*
X101384024Y-116969657D01*
X101530342Y-117115975D01*
X101530345Y-117115977D01*
X101702402Y-117230941D01*
X101893580Y-117310130D01*
X102096530Y-117350499D01*
X102096534Y-117350500D01*
X102096535Y-117350500D01*
X102303466Y-117350500D01*
X102303467Y-117350499D01*
X102506420Y-117310130D01*
X102697598Y-117230941D01*
X102869655Y-117115977D01*
X103015977Y-116969655D01*
X103130941Y-116797598D01*
X103210130Y-116606420D01*
X103250500Y-116403465D01*
X103250500Y-116196535D01*
X103210130Y-115993580D01*
X103130941Y-115802402D01*
X103015977Y-115630345D01*
X103015975Y-115630342D01*
X102869657Y-115484024D01*
X102744653Y-115400500D01*
X102697598Y-115369059D01*
X102604127Y-115330342D01*
X102506420Y-115289870D01*
X102506412Y-115289868D01*
X102303469Y-115249500D01*
X102303465Y-115249500D01*
X102096535Y-115249500D01*
X102096530Y-115249500D01*
X101893587Y-115289868D01*
X101893579Y-115289870D01*
X101702403Y-115369058D01*
X101530342Y-115484024D01*
X101384024Y-115630342D01*
X101269058Y-115802403D01*
X101189870Y-115993579D01*
X101189868Y-115993587D01*
X101149500Y-116196530D01*
X100500500Y-116196530D01*
X100500500Y-108576530D01*
X101149500Y-108576530D01*
X101149500Y-108783469D01*
X101189868Y-108986412D01*
X101189870Y-108986420D01*
X101269059Y-109177598D01*
X101326541Y-109263626D01*
X101384024Y-109349657D01*
X101530342Y-109495975D01*
X101530345Y-109495977D01*
X101702402Y-109610941D01*
X101893580Y-109690130D01*
X102096530Y-109730499D01*
X102096534Y-109730500D01*
X102096535Y-109730500D01*
X102303466Y-109730500D01*
X102303467Y-109730499D01*
X102506420Y-109690130D01*
X102697598Y-109610941D01*
X102869655Y-109495977D01*
X103015977Y-109349655D01*
X103130941Y-109177598D01*
X103210130Y-108986420D01*
X103250500Y-108783465D01*
X103250500Y-108576535D01*
X103210130Y-108373580D01*
X103130941Y-108182402D01*
X103015977Y-108010345D01*
X103015975Y-108010342D01*
X102869657Y-107864024D01*
X102783626Y-107806541D01*
X102697598Y-107749059D01*
X102604127Y-107710342D01*
X102506420Y-107669870D01*
X102506412Y-107669868D01*
X102303469Y-107629500D01*
X102303465Y-107629500D01*
X102096535Y-107629500D01*
X102096530Y-107629500D01*
X101893587Y-107669868D01*
X101893579Y-107669870D01*
X101702403Y-107749058D01*
X101530342Y-107864024D01*
X101384024Y-108010342D01*
X101269058Y-108182403D01*
X101189870Y-108373579D01*
X101189868Y-108373587D01*
X101149500Y-108576530D01*
X100500500Y-108576530D01*
X100500500Y-106036530D01*
X101149500Y-106036530D01*
X101149500Y-106243469D01*
X101189868Y-106446412D01*
X101189870Y-106446420D01*
X101269059Y-106637598D01*
X101294050Y-106675000D01*
X101384024Y-106809657D01*
X101530342Y-106955975D01*
X101530345Y-106955977D01*
X101702402Y-107070941D01*
X101893580Y-107150130D01*
X102063978Y-107184024D01*
X102096530Y-107190499D01*
X102096534Y-107190500D01*
X102096535Y-107190500D01*
X102303466Y-107190500D01*
X102303467Y-107190499D01*
X102506420Y-107150130D01*
X102697598Y-107070941D01*
X102869655Y-106955977D01*
X103015977Y-106809655D01*
X103130941Y-106637598D01*
X103210130Y-106446420D01*
X103250500Y-106243465D01*
X103250500Y-106036535D01*
X103210130Y-105833580D01*
X103130941Y-105642402D01*
X103015977Y-105470345D01*
X103015975Y-105470342D01*
X102869657Y-105324024D01*
X102740162Y-105237499D01*
X102697598Y-105209059D01*
X102604127Y-105170342D01*
X102506420Y-105129870D01*
X102506412Y-105129868D01*
X102303469Y-105089500D01*
X102303465Y-105089500D01*
X102096535Y-105089500D01*
X102096530Y-105089500D01*
X101893587Y-105129868D01*
X101893579Y-105129870D01*
X101702403Y-105209058D01*
X101530342Y-105324024D01*
X101384024Y-105470342D01*
X101269058Y-105642403D01*
X101189870Y-105833579D01*
X101189868Y-105833587D01*
X101149500Y-106036530D01*
X100500500Y-106036530D01*
X100500500Y-103496530D01*
X101149500Y-103496530D01*
X101149500Y-103703469D01*
X101189868Y-103906412D01*
X101189870Y-103906420D01*
X101269059Y-104097598D01*
X101326541Y-104183626D01*
X101384024Y-104269657D01*
X101530342Y-104415975D01*
X101530345Y-104415977D01*
X101702402Y-104530941D01*
X101893580Y-104610130D01*
X102017656Y-104634810D01*
X102096530Y-104650499D01*
X102096534Y-104650500D01*
X102096535Y-104650500D01*
X102303466Y-104650500D01*
X102303467Y-104650499D01*
X102506420Y-104610130D01*
X102697598Y-104530941D01*
X102869655Y-104415977D01*
X103015977Y-104269655D01*
X103130941Y-104097598D01*
X103210130Y-103906420D01*
X103250500Y-103703465D01*
X103250500Y-103496535D01*
X103210130Y-103293580D01*
X103130941Y-103102402D01*
X103015977Y-102930345D01*
X103015975Y-102930342D01*
X102869657Y-102784024D01*
X102783626Y-102726541D01*
X102697598Y-102669059D01*
X102604127Y-102630342D01*
X102506420Y-102589870D01*
X102506412Y-102589868D01*
X102303469Y-102549500D01*
X102303465Y-102549500D01*
X102096535Y-102549500D01*
X102096530Y-102549500D01*
X101893587Y-102589868D01*
X101893579Y-102589870D01*
X101702403Y-102669058D01*
X101530342Y-102784024D01*
X101384024Y-102930342D01*
X101269058Y-103102403D01*
X101189870Y-103293579D01*
X101189868Y-103293587D01*
X101149500Y-103496530D01*
X100500500Y-103496530D01*
X100500500Y-100956530D01*
X101149500Y-100956530D01*
X101149500Y-101163469D01*
X101189868Y-101366412D01*
X101189870Y-101366420D01*
X101269059Y-101557598D01*
X101301943Y-101606812D01*
X101384024Y-101729657D01*
X101530342Y-101875975D01*
X101530345Y-101875977D01*
X101702402Y-101990941D01*
X101893580Y-102070130D01*
X102080513Y-102107313D01*
X102096530Y-102110499D01*
X102096534Y-102110500D01*
X102096535Y-102110500D01*
X102303466Y-102110500D01*
X102303467Y-102110499D01*
X102506420Y-102070130D01*
X102697598Y-101990941D01*
X102869655Y-101875977D01*
X103015977Y-101729655D01*
X103130941Y-101557598D01*
X103210130Y-101366420D01*
X103250500Y-101163465D01*
X103250500Y-100956535D01*
X103210130Y-100753580D01*
X103130941Y-100562402D01*
X103015977Y-100390345D01*
X103015975Y-100390342D01*
X102869657Y-100244024D01*
X102783626Y-100186541D01*
X102697598Y-100129059D01*
X102604127Y-100090342D01*
X102506420Y-100049870D01*
X102506412Y-100049868D01*
X102303469Y-100009500D01*
X102303465Y-100009500D01*
X102096535Y-100009500D01*
X102096530Y-100009500D01*
X101893587Y-100049868D01*
X101893579Y-100049870D01*
X101702403Y-100129058D01*
X101530342Y-100244024D01*
X101384024Y-100390342D01*
X101269058Y-100562403D01*
X101189870Y-100753579D01*
X101189868Y-100753587D01*
X101149500Y-100956530D01*
X100500500Y-100956530D01*
X100500500Y-98416530D01*
X101149500Y-98416530D01*
X101149500Y-98623469D01*
X101189868Y-98826412D01*
X101189870Y-98826420D01*
X101269059Y-99017598D01*
X101312160Y-99082104D01*
X101384024Y-99189657D01*
X101530342Y-99335975D01*
X101530345Y-99335977D01*
X101702402Y-99450941D01*
X101893580Y-99530130D01*
X102096530Y-99570499D01*
X102096534Y-99570500D01*
X102096535Y-99570500D01*
X102303466Y-99570500D01*
X102303467Y-99570499D01*
X102506420Y-99530130D01*
X102626974Y-99480194D01*
X102696438Y-99472726D01*
X102758918Y-99504000D01*
X102762104Y-99507075D01*
X105335181Y-102080152D01*
X105368666Y-102141475D01*
X105371500Y-102167833D01*
X105371500Y-113667167D01*
X105351815Y-113734206D01*
X105299011Y-113779961D01*
X105229853Y-113789905D01*
X105166297Y-113760880D01*
X105159819Y-113754848D01*
X103187075Y-111782104D01*
X103153590Y-111720781D01*
X103158574Y-111651089D01*
X103160163Y-111647049D01*
X103210130Y-111526420D01*
X103250500Y-111323465D01*
X103250500Y-111116535D01*
X103210130Y-110913580D01*
X103130941Y-110722402D01*
X103015977Y-110550345D01*
X103015975Y-110550342D01*
X102869657Y-110404024D01*
X102783626Y-110346541D01*
X102697598Y-110289059D01*
X102604127Y-110250342D01*
X102506420Y-110209870D01*
X102506412Y-110209868D01*
X102303469Y-110169500D01*
X102303465Y-110169500D01*
X102096535Y-110169500D01*
X102096530Y-110169500D01*
X101893587Y-110209868D01*
X101893579Y-110209870D01*
X101702403Y-110289058D01*
X101530342Y-110404024D01*
X101384024Y-110550342D01*
X101269058Y-110722403D01*
X101189870Y-110913579D01*
X101189868Y-110913587D01*
X101149500Y-111116530D01*
X101149500Y-111323469D01*
X101189868Y-111526412D01*
X101189870Y-111526420D01*
X101269059Y-111717598D01*
X101291060Y-111750525D01*
X101384024Y-111889657D01*
X101530342Y-112035975D01*
X101530345Y-112035977D01*
X101702402Y-112150941D01*
X101893580Y-112230130D01*
X102096530Y-112270499D01*
X102096534Y-112270500D01*
X102096535Y-112270500D01*
X102303466Y-112270500D01*
X102303467Y-112270499D01*
X102506420Y-112230130D01*
X102626974Y-112180194D01*
X102696438Y-112172726D01*
X102758918Y-112204000D01*
X102762104Y-112207075D01*
X106090181Y-115535152D01*
X106123666Y-115596475D01*
X106126500Y-115622833D01*
X106126500Y-116962167D01*
X106106815Y-117029206D01*
X106054011Y-117074961D01*
X105984853Y-117084905D01*
X105921297Y-117055880D01*
X105914819Y-117049848D01*
X103187075Y-114322104D01*
X103153590Y-114260781D01*
X103158574Y-114191089D01*
X103160163Y-114187049D01*
X103210130Y-114066420D01*
X103250500Y-113863465D01*
X103250500Y-113656535D01*
X103210130Y-113453580D01*
X103130941Y-113262402D01*
X103015977Y-113090345D01*
X103015975Y-113090342D01*
X102869657Y-112944024D01*
X102704406Y-112833608D01*
X102697598Y-112829059D01*
X102604127Y-112790342D01*
X102506420Y-112749870D01*
X102506412Y-112749868D01*
X102303469Y-112709500D01*
X102303465Y-112709500D01*
X102096535Y-112709500D01*
X102096530Y-112709500D01*
X101893587Y-112749868D01*
X101893579Y-112749870D01*
X101702403Y-112829058D01*
X101530342Y-112944024D01*
X101384024Y-113090342D01*
X101269058Y-113262403D01*
X101189870Y-113453579D01*
X101189868Y-113453587D01*
X101149500Y-113656530D01*
X101149500Y-113863469D01*
X101186112Y-114047529D01*
X101189870Y-114066420D01*
X101269059Y-114257598D01*
X101297725Y-114300500D01*
X101384024Y-114429657D01*
X101530342Y-114575975D01*
X101530345Y-114575977D01*
X101702402Y-114690941D01*
X101893580Y-114770130D01*
X102077994Y-114806812D01*
X102096530Y-114810499D01*
X102096534Y-114810500D01*
X102096535Y-114810500D01*
X102303466Y-114810500D01*
X102303467Y-114810499D01*
X102506420Y-114770130D01*
X102626974Y-114720194D01*
X102696438Y-114712726D01*
X102758918Y-114744000D01*
X102762104Y-114747075D01*
X105763181Y-117748152D01*
X105796666Y-117809475D01*
X105799500Y-117835833D01*
X105799500Y-145139562D01*
X105806454Y-145165513D01*
X105819979Y-145215990D01*
X105819980Y-145215991D01*
X105823730Y-145222487D01*
X105834871Y-145241783D01*
X105859540Y-145284511D01*
X108509540Y-147934511D01*
X108565489Y-147990460D01*
X108565491Y-147990461D01*
X108565495Y-147990464D01*
X108634004Y-148030017D01*
X108634011Y-148030021D01*
X108710438Y-148050500D01*
X108710440Y-148050500D01*
X111209560Y-148050500D01*
X111209562Y-148050500D01*
X111285989Y-148030021D01*
X111354511Y-147990460D01*
X111410460Y-147934511D01*
X111957896Y-147387073D01*
X112019217Y-147353590D01*
X112088908Y-147358574D01*
X112093007Y-147360186D01*
X112213580Y-147410130D01*
X112389297Y-147445082D01*
X112416530Y-147450499D01*
X112416534Y-147450500D01*
X112416535Y-147450500D01*
X112623466Y-147450500D01*
X112623467Y-147450499D01*
X112826420Y-147410130D01*
X113017598Y-147330941D01*
X113189655Y-147215977D01*
X113335977Y-147069655D01*
X113450941Y-146897598D01*
X113530130Y-146706420D01*
X113570500Y-146503465D01*
X113570500Y-146296535D01*
X113530130Y-146093580D01*
X113450941Y-145902402D01*
X113335977Y-145730345D01*
X113335975Y-145730342D01*
X113189657Y-145584024D01*
X113022616Y-145472412D01*
X113017598Y-145469059D01*
X113017593Y-145469057D01*
X112826420Y-145389870D01*
X112826412Y-145389868D01*
X112623469Y-145349500D01*
X112623465Y-145349500D01*
X112416535Y-145349500D01*
X112416530Y-145349500D01*
X112213587Y-145389868D01*
X112213579Y-145389870D01*
X112022403Y-145469058D01*
X111850342Y-145584024D01*
X111704024Y-145730342D01*
X111589058Y-145902403D01*
X111509870Y-146093579D01*
X111509868Y-146093587D01*
X111469500Y-146296530D01*
X111469500Y-146503469D01*
X111509868Y-146706412D01*
X111509871Y-146706424D01*
X111559803Y-146826971D01*
X111567272Y-146896440D01*
X111535997Y-146958919D01*
X111532923Y-146962104D01*
X111081848Y-147413181D01*
X111020525Y-147446666D01*
X110994167Y-147449500D01*
X110708937Y-147449500D01*
X110641898Y-147429815D01*
X110596143Y-147377011D01*
X110586199Y-147307853D01*
X110615224Y-147244297D01*
X110640046Y-147222398D01*
X110644236Y-147219597D01*
X110649655Y-147215977D01*
X110795977Y-147069655D01*
X110910941Y-146897598D01*
X110990130Y-146706420D01*
X111030500Y-146503465D01*
X111030500Y-146296535D01*
X110990130Y-146093580D01*
X110910941Y-145902402D01*
X110795977Y-145730345D01*
X110795975Y-145730342D01*
X110649657Y-145584024D01*
X110482616Y-145472412D01*
X110477598Y-145469059D01*
X110477593Y-145469057D01*
X110286420Y-145389870D01*
X110286412Y-145389868D01*
X110083469Y-145349500D01*
X110083465Y-145349500D01*
X109876535Y-145349500D01*
X109876530Y-145349500D01*
X109673587Y-145389868D01*
X109673579Y-145389870D01*
X109482403Y-145469058D01*
X109310342Y-145584024D01*
X109310341Y-145584025D01*
X109178574Y-145715793D01*
X109117251Y-145749278D01*
X109047559Y-145744294D01*
X109003212Y-145715793D01*
X106763819Y-143476400D01*
X106730334Y-143415077D01*
X106727500Y-143388719D01*
X106727500Y-141222242D01*
X108364999Y-141222242D01*
X108397087Y-141383554D01*
X108397090Y-141383564D01*
X108460029Y-141535514D01*
X108460036Y-141535527D01*
X108551412Y-141672280D01*
X108551415Y-141672284D01*
X108667715Y-141788584D01*
X108667719Y-141788587D01*
X108804472Y-141879963D01*
X108804485Y-141879970D01*
X108896823Y-141918217D01*
X108956440Y-141942911D01*
X108956444Y-141942911D01*
X108956445Y-141942912D01*
X109117757Y-141975000D01*
X109117760Y-141975000D01*
X109282242Y-141975000D01*
X109390769Y-141953411D01*
X109443560Y-141942911D01*
X109595521Y-141879967D01*
X109732281Y-141788587D01*
X109848587Y-141672281D01*
X109939967Y-141535521D01*
X110002911Y-141383560D01*
X110032646Y-141234075D01*
X110035000Y-141222242D01*
X110035000Y-141057757D01*
X110002912Y-140896445D01*
X110002911Y-140896444D01*
X110002911Y-140896440D01*
X110002909Y-140896435D01*
X109939970Y-140744485D01*
X109939963Y-140744472D01*
X109848587Y-140607719D01*
X109848584Y-140607715D01*
X109732284Y-140491415D01*
X109732280Y-140491412D01*
X109595527Y-140400036D01*
X109595514Y-140400029D01*
X109443564Y-140337090D01*
X109443554Y-140337087D01*
X109282242Y-140305000D01*
X109282240Y-140305000D01*
X109117760Y-140305000D01*
X109117758Y-140305000D01*
X108956445Y-140337087D01*
X108956435Y-140337090D01*
X108804485Y-140400029D01*
X108804472Y-140400036D01*
X108667719Y-140491412D01*
X108667715Y-140491415D01*
X108551415Y-140607715D01*
X108551412Y-140607719D01*
X108460036Y-140744472D01*
X108460029Y-140744485D01*
X108397090Y-140896435D01*
X108397087Y-140896445D01*
X108365000Y-141057757D01*
X108365000Y-141057760D01*
X108365000Y-141222240D01*
X108365000Y-141222242D01*
X108364999Y-141222242D01*
X106727500Y-141222242D01*
X106727500Y-138682242D01*
X108364999Y-138682242D01*
X108397087Y-138843554D01*
X108397090Y-138843564D01*
X108460029Y-138995514D01*
X108460036Y-138995527D01*
X108551412Y-139132280D01*
X108551415Y-139132284D01*
X108667715Y-139248584D01*
X108667719Y-139248587D01*
X108804472Y-139339963D01*
X108804485Y-139339970D01*
X108956435Y-139402909D01*
X108956440Y-139402911D01*
X108956444Y-139402911D01*
X108956445Y-139402912D01*
X109117757Y-139435000D01*
X109117760Y-139435000D01*
X109282242Y-139435000D01*
X109390769Y-139413411D01*
X109443560Y-139402911D01*
X109595521Y-139339967D01*
X109732281Y-139248587D01*
X109848587Y-139132281D01*
X109939967Y-138995521D01*
X110002911Y-138843560D01*
X110022951Y-138742815D01*
X110035000Y-138682242D01*
X110035000Y-138517757D01*
X110002912Y-138356445D01*
X110002911Y-138356444D01*
X110002911Y-138356440D01*
X109964282Y-138263181D01*
X109939970Y-138204485D01*
X109939963Y-138204472D01*
X109848587Y-138067719D01*
X109848584Y-138067715D01*
X109732284Y-137951415D01*
X109732280Y-137951412D01*
X109595527Y-137860036D01*
X109595514Y-137860029D01*
X109443564Y-137797090D01*
X109443554Y-137797087D01*
X109282242Y-137765000D01*
X109282240Y-137765000D01*
X109117760Y-137765000D01*
X109117758Y-137765000D01*
X108956445Y-137797087D01*
X108956435Y-137797090D01*
X108804485Y-137860029D01*
X108804472Y-137860036D01*
X108667719Y-137951412D01*
X108667715Y-137951415D01*
X108551415Y-138067715D01*
X108551412Y-138067719D01*
X108460036Y-138204472D01*
X108460029Y-138204485D01*
X108397090Y-138356435D01*
X108397087Y-138356445D01*
X108365000Y-138517757D01*
X108365000Y-138517760D01*
X108365000Y-138682240D01*
X108365000Y-138682242D01*
X108364999Y-138682242D01*
X106727500Y-138682242D01*
X106727500Y-136142242D01*
X108364999Y-136142242D01*
X108397087Y-136303554D01*
X108397090Y-136303564D01*
X108460029Y-136455514D01*
X108460036Y-136455527D01*
X108551412Y-136592280D01*
X108551415Y-136592284D01*
X108667715Y-136708584D01*
X108667719Y-136708587D01*
X108804472Y-136799963D01*
X108804485Y-136799970D01*
X108956435Y-136862909D01*
X108956440Y-136862911D01*
X108956444Y-136862911D01*
X108956445Y-136862912D01*
X109117757Y-136895000D01*
X109117760Y-136895000D01*
X109282242Y-136895000D01*
X109390769Y-136873411D01*
X109443560Y-136862911D01*
X109595521Y-136799967D01*
X109732281Y-136708587D01*
X109848587Y-136592281D01*
X109939967Y-136455521D01*
X110002911Y-136303560D01*
X110025292Y-136191045D01*
X110035000Y-136142242D01*
X110035000Y-135977757D01*
X110002912Y-135816445D01*
X110002911Y-135816444D01*
X110002911Y-135816440D01*
X109981159Y-135763926D01*
X109939970Y-135664485D01*
X109939963Y-135664472D01*
X109848587Y-135527719D01*
X109848584Y-135527715D01*
X109732284Y-135411415D01*
X109732280Y-135411412D01*
X109595527Y-135320036D01*
X109595514Y-135320029D01*
X109443564Y-135257090D01*
X109443554Y-135257087D01*
X109282242Y-135225000D01*
X109282240Y-135225000D01*
X109117760Y-135225000D01*
X109117758Y-135225000D01*
X108956445Y-135257087D01*
X108956435Y-135257090D01*
X108804485Y-135320029D01*
X108804472Y-135320036D01*
X108667719Y-135411412D01*
X108667715Y-135411415D01*
X108551415Y-135527715D01*
X108551412Y-135527719D01*
X108460036Y-135664472D01*
X108460029Y-135664485D01*
X108397090Y-135816435D01*
X108397087Y-135816445D01*
X108365000Y-135977757D01*
X108365000Y-135977760D01*
X108365000Y-136142240D01*
X108365000Y-136142242D01*
X108364999Y-136142242D01*
X106727500Y-136142242D01*
X106727500Y-133602242D01*
X108364999Y-133602242D01*
X108397087Y-133763554D01*
X108397090Y-133763564D01*
X108460029Y-133915514D01*
X108460036Y-133915527D01*
X108551412Y-134052280D01*
X108551415Y-134052284D01*
X108667715Y-134168584D01*
X108667719Y-134168587D01*
X108804472Y-134259963D01*
X108804485Y-134259970D01*
X108956435Y-134322909D01*
X108956440Y-134322911D01*
X108956444Y-134322911D01*
X108956445Y-134322912D01*
X109117757Y-134355000D01*
X109117760Y-134355000D01*
X109282242Y-134355000D01*
X109390769Y-134333411D01*
X109443560Y-134322911D01*
X109595521Y-134259967D01*
X109732281Y-134168587D01*
X109848587Y-134052281D01*
X109939967Y-133915521D01*
X110002911Y-133763560D01*
X110022951Y-133662815D01*
X110035000Y-133602242D01*
X110035000Y-133437757D01*
X110002912Y-133276445D01*
X110002911Y-133276444D01*
X110002911Y-133276440D01*
X109971456Y-133200500D01*
X109939970Y-133124485D01*
X109939963Y-133124472D01*
X109848587Y-132987719D01*
X109848584Y-132987715D01*
X109732284Y-132871415D01*
X109732280Y-132871412D01*
X109595527Y-132780036D01*
X109595514Y-132780029D01*
X109443564Y-132717090D01*
X109443554Y-132717087D01*
X109282242Y-132685000D01*
X109282240Y-132685000D01*
X109117760Y-132685000D01*
X109117758Y-132685000D01*
X108956445Y-132717087D01*
X108956435Y-132717090D01*
X108804485Y-132780029D01*
X108804472Y-132780036D01*
X108667719Y-132871412D01*
X108667715Y-132871415D01*
X108551415Y-132987715D01*
X108551412Y-132987719D01*
X108460036Y-133124472D01*
X108460029Y-133124485D01*
X108397090Y-133276435D01*
X108397087Y-133276445D01*
X108365000Y-133437757D01*
X108365000Y-133437760D01*
X108365000Y-133602240D01*
X108365000Y-133602242D01*
X108364999Y-133602242D01*
X106727500Y-133602242D01*
X106727500Y-131062242D01*
X108364999Y-131062242D01*
X108397087Y-131223554D01*
X108397090Y-131223564D01*
X108460029Y-131375514D01*
X108460036Y-131375527D01*
X108551412Y-131512280D01*
X108551415Y-131512284D01*
X108667715Y-131628584D01*
X108667719Y-131628587D01*
X108804472Y-131719963D01*
X108804485Y-131719970D01*
X108956435Y-131782909D01*
X108956440Y-131782911D01*
X108956444Y-131782911D01*
X108956445Y-131782912D01*
X109117757Y-131815000D01*
X109117760Y-131815000D01*
X109282242Y-131815000D01*
X109390769Y-131793411D01*
X109443560Y-131782911D01*
X109595521Y-131719967D01*
X109732281Y-131628587D01*
X109848587Y-131512281D01*
X109939967Y-131375521D01*
X110002911Y-131223560D01*
X110027588Y-131099502D01*
X110035000Y-131062242D01*
X110035000Y-130897757D01*
X110002912Y-130736445D01*
X110002911Y-130736444D01*
X110002911Y-130736440D01*
X109981159Y-130683926D01*
X109939970Y-130584485D01*
X109939963Y-130584472D01*
X109848587Y-130447719D01*
X109848584Y-130447715D01*
X109732284Y-130331415D01*
X109732280Y-130331412D01*
X109595527Y-130240036D01*
X109595514Y-130240029D01*
X109443564Y-130177090D01*
X109443554Y-130177087D01*
X109282242Y-130145000D01*
X109282240Y-130145000D01*
X109117760Y-130145000D01*
X109117758Y-130145000D01*
X108956445Y-130177087D01*
X108956435Y-130177090D01*
X108804485Y-130240029D01*
X108804472Y-130240036D01*
X108667719Y-130331412D01*
X108667715Y-130331415D01*
X108551415Y-130447715D01*
X108551412Y-130447719D01*
X108460036Y-130584472D01*
X108460029Y-130584485D01*
X108397090Y-130736435D01*
X108397087Y-130736445D01*
X108365000Y-130897757D01*
X108365000Y-130897760D01*
X108365000Y-131062240D01*
X108365000Y-131062242D01*
X108364999Y-131062242D01*
X106727500Y-131062242D01*
X106727500Y-128522242D01*
X108364999Y-128522242D01*
X108397087Y-128683554D01*
X108397090Y-128683564D01*
X108460029Y-128835514D01*
X108460036Y-128835527D01*
X108551412Y-128972280D01*
X108551415Y-128972284D01*
X108667715Y-129088584D01*
X108667719Y-129088587D01*
X108804472Y-129179963D01*
X108804485Y-129179970D01*
X108956435Y-129242909D01*
X108956440Y-129242911D01*
X108956444Y-129242911D01*
X108956445Y-129242912D01*
X109117757Y-129275000D01*
X109117760Y-129275000D01*
X109282242Y-129275000D01*
X109390769Y-129253411D01*
X109443560Y-129242911D01*
X109595521Y-129179967D01*
X109732281Y-129088587D01*
X109848587Y-128972281D01*
X109939967Y-128835521D01*
X110002911Y-128683560D01*
X110018077Y-128607316D01*
X110035000Y-128522242D01*
X110035000Y-128357757D01*
X110002912Y-128196445D01*
X110002911Y-128196444D01*
X110002911Y-128196440D01*
X109965786Y-128106812D01*
X109939970Y-128044485D01*
X109939963Y-128044472D01*
X109848587Y-127907719D01*
X109848584Y-127907715D01*
X109732284Y-127791415D01*
X109732280Y-127791412D01*
X109595527Y-127700036D01*
X109595514Y-127700029D01*
X109443564Y-127637090D01*
X109443554Y-127637087D01*
X109282242Y-127605000D01*
X109282240Y-127605000D01*
X109117760Y-127605000D01*
X109117758Y-127605000D01*
X108956445Y-127637087D01*
X108956435Y-127637090D01*
X108804485Y-127700029D01*
X108804472Y-127700036D01*
X108667719Y-127791412D01*
X108667715Y-127791415D01*
X108551415Y-127907715D01*
X108551412Y-127907719D01*
X108460036Y-128044472D01*
X108460029Y-128044485D01*
X108397090Y-128196435D01*
X108397087Y-128196445D01*
X108365000Y-128357757D01*
X108365000Y-128357760D01*
X108365000Y-128522240D01*
X108365000Y-128522242D01*
X108364999Y-128522242D01*
X106727500Y-128522242D01*
X106727500Y-125982242D01*
X108364999Y-125982242D01*
X108397087Y-126143554D01*
X108397090Y-126143564D01*
X108460029Y-126295514D01*
X108460036Y-126295527D01*
X108551412Y-126432280D01*
X108551415Y-126432284D01*
X108667715Y-126548584D01*
X108667719Y-126548587D01*
X108804472Y-126639963D01*
X108804485Y-126639970D01*
X108956435Y-126702909D01*
X108956440Y-126702911D01*
X108956444Y-126702911D01*
X108956445Y-126702912D01*
X109117757Y-126735000D01*
X109117760Y-126735000D01*
X109282242Y-126735000D01*
X109390769Y-126713411D01*
X109443560Y-126702911D01*
X109595521Y-126639967D01*
X109732281Y-126548587D01*
X109848587Y-126432281D01*
X109939967Y-126295521D01*
X110002911Y-126143560D01*
X110022951Y-126042815D01*
X110035000Y-125982242D01*
X110035000Y-125817757D01*
X110002912Y-125656445D01*
X110002911Y-125656444D01*
X110002911Y-125656440D01*
X109961852Y-125557314D01*
X109939970Y-125504485D01*
X109939963Y-125504472D01*
X109848587Y-125367719D01*
X109848584Y-125367715D01*
X109732284Y-125251415D01*
X109732280Y-125251412D01*
X109595527Y-125160036D01*
X109595514Y-125160029D01*
X109443564Y-125097090D01*
X109443554Y-125097087D01*
X109282242Y-125065000D01*
X109282240Y-125065000D01*
X109117760Y-125065000D01*
X109117758Y-125065000D01*
X108956445Y-125097087D01*
X108956435Y-125097090D01*
X108804485Y-125160029D01*
X108804472Y-125160036D01*
X108667719Y-125251412D01*
X108667715Y-125251415D01*
X108551415Y-125367715D01*
X108551412Y-125367719D01*
X108460036Y-125504472D01*
X108460029Y-125504485D01*
X108397090Y-125656435D01*
X108397087Y-125656445D01*
X108365000Y-125817757D01*
X108365000Y-125817760D01*
X108365000Y-125982240D01*
X108365000Y-125982242D01*
X108364999Y-125982242D01*
X106727500Y-125982242D01*
X106727500Y-123442242D01*
X108364999Y-123442242D01*
X108397087Y-123603554D01*
X108397090Y-123603564D01*
X108460029Y-123755514D01*
X108460036Y-123755527D01*
X108551412Y-123892280D01*
X108551415Y-123892284D01*
X108667715Y-124008584D01*
X108667719Y-124008587D01*
X108804472Y-124099963D01*
X108804485Y-124099970D01*
X108956435Y-124162909D01*
X108956440Y-124162911D01*
X108956444Y-124162911D01*
X108956445Y-124162912D01*
X109117757Y-124195000D01*
X109117760Y-124195000D01*
X109282242Y-124195000D01*
X109390769Y-124173411D01*
X109443560Y-124162911D01*
X109595521Y-124099967D01*
X109732281Y-124008587D01*
X109848587Y-123892281D01*
X109939967Y-123755521D01*
X110002911Y-123603560D01*
X110020223Y-123516530D01*
X110035000Y-123442242D01*
X110035000Y-123277757D01*
X110002912Y-123116445D01*
X110002911Y-123116444D01*
X110002911Y-123116440D01*
X109997768Y-123104023D01*
X109939970Y-122964485D01*
X109939963Y-122964472D01*
X109848587Y-122827719D01*
X109848584Y-122827715D01*
X109732284Y-122711415D01*
X109732280Y-122711412D01*
X109595527Y-122620036D01*
X109595514Y-122620029D01*
X109443564Y-122557090D01*
X109443554Y-122557087D01*
X109282242Y-122525000D01*
X109282240Y-122525000D01*
X109117760Y-122525000D01*
X109117758Y-122525000D01*
X108956445Y-122557087D01*
X108956435Y-122557090D01*
X108804485Y-122620029D01*
X108804472Y-122620036D01*
X108667719Y-122711412D01*
X108667715Y-122711415D01*
X108551415Y-122827715D01*
X108551412Y-122827719D01*
X108460036Y-122964472D01*
X108460029Y-122964485D01*
X108397090Y-123116435D01*
X108397087Y-123116445D01*
X108365000Y-123277757D01*
X108365000Y-123277760D01*
X108365000Y-123442240D01*
X108365000Y-123442242D01*
X108364999Y-123442242D01*
X106727500Y-123442242D01*
X106727500Y-115951833D01*
X106747185Y-115884794D01*
X106799989Y-115839039D01*
X106869147Y-115829095D01*
X106932703Y-115858120D01*
X106939181Y-115864152D01*
X114723181Y-123648152D01*
X114756666Y-123709475D01*
X114759500Y-123735833D01*
X114759500Y-145304563D01*
X114739815Y-145371602D01*
X114687011Y-145417357D01*
X114682953Y-145419124D01*
X114562404Y-145469057D01*
X114390342Y-145584024D01*
X114244024Y-145730342D01*
X114129058Y-145902403D01*
X114049870Y-146093579D01*
X114049868Y-146093587D01*
X114009500Y-146296530D01*
X114009500Y-146503469D01*
X114049868Y-146706412D01*
X114049870Y-146706420D01*
X114115939Y-146865925D01*
X114129059Y-146897598D01*
X114159782Y-146943579D01*
X114244024Y-147069657D01*
X114390342Y-147215975D01*
X114390345Y-147215977D01*
X114562402Y-147330941D01*
X114753580Y-147410130D01*
X114929297Y-147445082D01*
X114956530Y-147450499D01*
X114956534Y-147450500D01*
X114956535Y-147450500D01*
X115163466Y-147450500D01*
X115163467Y-147450499D01*
X115366420Y-147410130D01*
X115557598Y-147330941D01*
X115729655Y-147215977D01*
X115875977Y-147069655D01*
X115990941Y-146897598D01*
X116059165Y-146732889D01*
X116103004Y-146678488D01*
X116169298Y-146656423D01*
X116236998Y-146673702D01*
X116284609Y-146724839D01*
X116291656Y-146742026D01*
X116348904Y-146918216D01*
X116445379Y-147107557D01*
X116570272Y-147279459D01*
X116570276Y-147279464D01*
X116720535Y-147429723D01*
X116720540Y-147429727D01*
X116892442Y-147554620D01*
X117081782Y-147651095D01*
X117283871Y-147716757D01*
X117350000Y-147727231D01*
X117350000Y-146833012D01*
X117407007Y-146865925D01*
X117534174Y-146900000D01*
X117665826Y-146900000D01*
X117792993Y-146865925D01*
X117850000Y-146833012D01*
X117850000Y-147673666D01*
X117830315Y-147740705D01*
X117813681Y-147761347D01*
X117411848Y-148163181D01*
X117350525Y-148196666D01*
X117324167Y-148199500D01*
X112958676Y-148199500D01*
X112891637Y-148179815D01*
X112870995Y-148163181D01*
X112807316Y-148099502D01*
X112807314Y-148099500D01*
X112722444Y-148050500D01*
X112693187Y-148033608D01*
X112629539Y-148016554D01*
X112565892Y-147999500D01*
X112434108Y-147999500D01*
X112306812Y-148033608D01*
X112192686Y-148099500D01*
X112192683Y-148099502D01*
X112099502Y-148192683D01*
X112099500Y-148192686D01*
X112033608Y-148306812D01*
X111999500Y-148434108D01*
X111999500Y-148565891D01*
X112033608Y-148693187D01*
X112060902Y-148740460D01*
X112099500Y-148807314D01*
X112192686Y-148900500D01*
X112306814Y-148966392D01*
X112434108Y-149000500D01*
X112434110Y-149000500D01*
X112565890Y-149000500D01*
X112565892Y-149000500D01*
X112693186Y-148966392D01*
X112807314Y-148900500D01*
X112870995Y-148836819D01*
X112932318Y-148803334D01*
X112958676Y-148800500D01*
X117539560Y-148800500D01*
X117539562Y-148800500D01*
X117615989Y-148780021D01*
X117684511Y-148740460D01*
X117740460Y-148684511D01*
X119278440Y-147146530D01*
X132199500Y-147146530D01*
X132199500Y-147353469D01*
X132239868Y-147556412D01*
X132239870Y-147556420D01*
X132286767Y-147669640D01*
X132319059Y-147747598D01*
X132376541Y-147833626D01*
X132434024Y-147919657D01*
X132580342Y-148065975D01*
X132580345Y-148065977D01*
X132752402Y-148180941D01*
X132943580Y-148260130D01*
X133146530Y-148300499D01*
X133146534Y-148300500D01*
X133146535Y-148300500D01*
X133353466Y-148300500D01*
X133353467Y-148300499D01*
X133556420Y-148260130D01*
X133747598Y-148180941D01*
X133919655Y-148065977D01*
X134065977Y-147919655D01*
X134180941Y-147747598D01*
X134260130Y-147556420D01*
X134300500Y-147353465D01*
X134300500Y-147146535D01*
X134260130Y-146943580D01*
X134180941Y-146752402D01*
X134065977Y-146580345D01*
X134065975Y-146580342D01*
X133919657Y-146434024D01*
X133770219Y-146334174D01*
X133747598Y-146319059D01*
X133745263Y-146318092D01*
X133556420Y-146239870D01*
X133556412Y-146239868D01*
X133353468Y-146199500D01*
X133353465Y-146199500D01*
X133146535Y-146199500D01*
X133146530Y-146199500D01*
X132943587Y-146239868D01*
X132943579Y-146239870D01*
X132752403Y-146319058D01*
X132580342Y-146434024D01*
X132434024Y-146580342D01*
X132319058Y-146752403D01*
X132239870Y-146943579D01*
X132239868Y-146943587D01*
X132199500Y-147146530D01*
X119278440Y-147146530D01*
X119888151Y-146536818D01*
X119949474Y-146503334D01*
X119975832Y-146500500D01*
X120065890Y-146500500D01*
X120065892Y-146500500D01*
X120193186Y-146466392D01*
X120307314Y-146400500D01*
X120400500Y-146307314D01*
X120466392Y-146193186D01*
X120496210Y-146081902D01*
X141899500Y-146081902D01*
X141899500Y-146318097D01*
X141936446Y-146551368D01*
X142009433Y-146775996D01*
X142094822Y-146943579D01*
X142116657Y-146986433D01*
X142255483Y-147177510D01*
X142422490Y-147344517D01*
X142613567Y-147483343D01*
X142712991Y-147534002D01*
X142824003Y-147590566D01*
X142824005Y-147590566D01*
X142824008Y-147590568D01*
X142944412Y-147629689D01*
X143048631Y-147663553D01*
X143281903Y-147700500D01*
X143281908Y-147700500D01*
X143518097Y-147700500D01*
X143751368Y-147663553D01*
X143975992Y-147590568D01*
X144186433Y-147483343D01*
X144377510Y-147344517D01*
X144544517Y-147177510D01*
X144683343Y-146986433D01*
X144790568Y-146775992D01*
X144863553Y-146551368D01*
X144869985Y-146510756D01*
X144900500Y-146318097D01*
X144900500Y-146081902D01*
X144863553Y-145848631D01*
X144812882Y-145692683D01*
X144790568Y-145624008D01*
X144790566Y-145624005D01*
X144790566Y-145624003D01*
X144713326Y-145472412D01*
X144683343Y-145413567D01*
X144544517Y-145222490D01*
X144377510Y-145055483D01*
X144186433Y-144916657D01*
X143975996Y-144809433D01*
X143751368Y-144736446D01*
X143518097Y-144699500D01*
X143518092Y-144699500D01*
X143281908Y-144699500D01*
X143281903Y-144699500D01*
X143048631Y-144736446D01*
X142824003Y-144809433D01*
X142613566Y-144916657D01*
X142532537Y-144975529D01*
X142422490Y-145055483D01*
X142422488Y-145055485D01*
X142422487Y-145055485D01*
X142255485Y-145222487D01*
X142255485Y-145222488D01*
X142255483Y-145222490D01*
X142210422Y-145284511D01*
X142116657Y-145413566D01*
X142009433Y-145624003D01*
X141936446Y-145848631D01*
X141899500Y-146081902D01*
X120496210Y-146081902D01*
X120500500Y-146065892D01*
X120500500Y-145934108D01*
X120466392Y-145806814D01*
X120400500Y-145692686D01*
X120307314Y-145599500D01*
X120217449Y-145547616D01*
X120193187Y-145533608D01*
X120129539Y-145516554D01*
X120065892Y-145499500D01*
X119934108Y-145499500D01*
X119806812Y-145533608D01*
X119692686Y-145599500D01*
X119692683Y-145599502D01*
X119599502Y-145692683D01*
X119599500Y-145692686D01*
X119533608Y-145806812D01*
X119499500Y-145934108D01*
X119499500Y-146024166D01*
X119479815Y-146091205D01*
X119463181Y-146111847D01*
X118961347Y-146613681D01*
X118900024Y-146647166D01*
X118873666Y-146650000D01*
X118033012Y-146650000D01*
X118065925Y-146592993D01*
X118100000Y-146465826D01*
X118100000Y-146334174D01*
X118065925Y-146207007D01*
X118033012Y-146150000D01*
X118927231Y-146150000D01*
X118916757Y-146083873D01*
X118916757Y-146083870D01*
X118851095Y-145881782D01*
X118754620Y-145692442D01*
X118629727Y-145520540D01*
X118629723Y-145520535D01*
X118479464Y-145370276D01*
X118479459Y-145370272D01*
X118307557Y-145245379D01*
X118118215Y-145148903D01*
X117916124Y-145083241D01*
X117850000Y-145072768D01*
X117850000Y-145966988D01*
X117792993Y-145934075D01*
X117665826Y-145900000D01*
X117534174Y-145900000D01*
X117407007Y-145934075D01*
X117350000Y-145966988D01*
X117350000Y-145072768D01*
X117349999Y-145072768D01*
X117283875Y-145083241D01*
X117081783Y-145148903D01*
X117081781Y-145148904D01*
X117074487Y-145152621D01*
X117005817Y-145165513D01*
X116941078Y-145139234D01*
X116900824Y-145082125D01*
X116897835Y-145012319D01*
X116930515Y-144954454D01*
X120734970Y-141150000D01*
X143372769Y-141150000D01*
X144266988Y-141150000D01*
X144234075Y-141207007D01*
X144200000Y-141334174D01*
X144200000Y-141465826D01*
X144234075Y-141592993D01*
X144266988Y-141650000D01*
X143372769Y-141650000D01*
X143383242Y-141716126D01*
X143383242Y-141716129D01*
X143448904Y-141918217D01*
X143545379Y-142107557D01*
X143670272Y-142279459D01*
X143670276Y-142279464D01*
X143820535Y-142429723D01*
X143820540Y-142429727D01*
X143992442Y-142554620D01*
X144181782Y-142651095D01*
X144383871Y-142716757D01*
X144450000Y-142727231D01*
X144450000Y-141833012D01*
X144507007Y-141865925D01*
X144634174Y-141900000D01*
X144765826Y-141900000D01*
X144892993Y-141865925D01*
X144950000Y-141833012D01*
X144950000Y-142727230D01*
X145016126Y-142716757D01*
X145016129Y-142716757D01*
X145218217Y-142651095D01*
X145407557Y-142554620D01*
X145579459Y-142429727D01*
X145579464Y-142429723D01*
X145729723Y-142279464D01*
X145729727Y-142279459D01*
X145854620Y-142107557D01*
X145951095Y-141918217D01*
X146016757Y-141716129D01*
X146016757Y-141716126D01*
X146027231Y-141650000D01*
X145133012Y-141650000D01*
X145165925Y-141592993D01*
X145200000Y-141465826D01*
X145200000Y-141334174D01*
X145165925Y-141207007D01*
X145133012Y-141150000D01*
X146027231Y-141150000D01*
X146016757Y-141083873D01*
X146016757Y-141083870D01*
X145951095Y-140881782D01*
X145854620Y-140692442D01*
X145729727Y-140520540D01*
X145729723Y-140520535D01*
X145579464Y-140370276D01*
X145579459Y-140370272D01*
X145407557Y-140245379D01*
X145218216Y-140148904D01*
X145042026Y-140091656D01*
X144984350Y-140052218D01*
X144957152Y-139987860D01*
X144969067Y-139919013D01*
X145016311Y-139867538D01*
X145032882Y-139859168D01*
X145197598Y-139790941D01*
X145369655Y-139675977D01*
X145515977Y-139529655D01*
X145630941Y-139357598D01*
X145710130Y-139166420D01*
X145750500Y-138963465D01*
X145750500Y-138756535D01*
X145710130Y-138553580D01*
X145630941Y-138362402D01*
X145515977Y-138190345D01*
X145515975Y-138190342D01*
X145369657Y-138044024D01*
X145231052Y-137951412D01*
X145197598Y-137929059D01*
X145006420Y-137849870D01*
X145006412Y-137849868D01*
X144803469Y-137809500D01*
X144803465Y-137809500D01*
X144596535Y-137809500D01*
X144596530Y-137809500D01*
X144393587Y-137849868D01*
X144393579Y-137849870D01*
X144202403Y-137929058D01*
X144030342Y-138044024D01*
X143884024Y-138190342D01*
X143769058Y-138362403D01*
X143689870Y-138553579D01*
X143689868Y-138553587D01*
X143649500Y-138756530D01*
X143649500Y-138963469D01*
X143689868Y-139166412D01*
X143689870Y-139166420D01*
X143769058Y-139357596D01*
X143884024Y-139529657D01*
X144030342Y-139675975D01*
X144202405Y-139790943D01*
X144295865Y-139829655D01*
X144367108Y-139859164D01*
X144421511Y-139903005D01*
X144443576Y-139969299D01*
X144426297Y-140036998D01*
X144375160Y-140084609D01*
X144357974Y-140091656D01*
X144181781Y-140148905D01*
X143992442Y-140245379D01*
X143820540Y-140370272D01*
X143820535Y-140370276D01*
X143670276Y-140520535D01*
X143670272Y-140520540D01*
X143545379Y-140692442D01*
X143448904Y-140881782D01*
X143383242Y-141083870D01*
X143383242Y-141083873D01*
X143372769Y-141150000D01*
X120734970Y-141150000D01*
X122948152Y-138936819D01*
X123009475Y-138903334D01*
X123035833Y-138900500D01*
X129939560Y-138900500D01*
X129939562Y-138900500D01*
X130015989Y-138880021D01*
X130084511Y-138840460D01*
X130140460Y-138784511D01*
X131438151Y-137486818D01*
X131499474Y-137453334D01*
X131525832Y-137450500D01*
X131615890Y-137450500D01*
X131615892Y-137450500D01*
X131743186Y-137416392D01*
X131857314Y-137350500D01*
X131950500Y-137257314D01*
X132016392Y-137143186D01*
X132050500Y-137015892D01*
X132050500Y-136884108D01*
X132016392Y-136756814D01*
X131950500Y-136642686D01*
X131857314Y-136549500D01*
X131763782Y-136495499D01*
X131743187Y-136483608D01*
X131638385Y-136455527D01*
X131615892Y-136449500D01*
X131484108Y-136449500D01*
X131356812Y-136483608D01*
X131242686Y-136549500D01*
X131242683Y-136549502D01*
X131149502Y-136642683D01*
X131149500Y-136642686D01*
X131083608Y-136756812D01*
X131049500Y-136884108D01*
X131049500Y-136974166D01*
X131029815Y-137041205D01*
X131013181Y-137061847D01*
X129811848Y-138263181D01*
X129750525Y-138296666D01*
X129724167Y-138299500D01*
X122820438Y-138299500D01*
X122744010Y-138319978D01*
X122675489Y-138359540D01*
X122675486Y-138359542D01*
X115622104Y-145412923D01*
X115604559Y-145422503D01*
X115589927Y-145436126D01*
X115574520Y-145438905D01*
X115560781Y-145446408D01*
X115540839Y-145444981D01*
X115521168Y-145448531D01*
X115494190Y-145441645D01*
X115491089Y-145441424D01*
X115486970Y-145439803D01*
X115437047Y-145419124D01*
X115382644Y-145375283D01*
X115360579Y-145308988D01*
X115360500Y-145304563D01*
X115360500Y-141050707D01*
X115685500Y-141050707D01*
X115685500Y-141229292D01*
X115713434Y-141405659D01*
X115768619Y-141575499D01*
X115849687Y-141734606D01*
X115849691Y-141734612D01*
X115859007Y-141747436D01*
X115859010Y-141747436D01*
X116450000Y-141156446D01*
X116450000Y-141188711D01*
X116475215Y-141282815D01*
X116523926Y-141367186D01*
X116592814Y-141436074D01*
X116677185Y-141484785D01*
X116771289Y-141510000D01*
X116803553Y-141510000D01*
X116212561Y-142100989D01*
X116225389Y-142110309D01*
X116384500Y-142191380D01*
X116554340Y-142246565D01*
X116730708Y-142274500D01*
X116909292Y-142274500D01*
X117085659Y-142246565D01*
X117255499Y-142191380D01*
X117414607Y-142110311D01*
X117427436Y-142100989D01*
X117427437Y-142100989D01*
X116836448Y-141510000D01*
X116868711Y-141510000D01*
X116962815Y-141484785D01*
X117047186Y-141436074D01*
X117116074Y-141367186D01*
X117164785Y-141282815D01*
X117190000Y-141188711D01*
X117190000Y-141156448D01*
X117780989Y-141747437D01*
X117780989Y-141747436D01*
X117790311Y-141734607D01*
X117871380Y-141575499D01*
X117926565Y-141405659D01*
X117954500Y-141229292D01*
X117954500Y-141050707D01*
X117926565Y-140874340D01*
X117871380Y-140704500D01*
X117790309Y-140545389D01*
X117780989Y-140532562D01*
X117780989Y-140532561D01*
X117190000Y-141123551D01*
X117190000Y-141091289D01*
X117164785Y-140997185D01*
X117116074Y-140912814D01*
X117047186Y-140843926D01*
X116962815Y-140795215D01*
X116868711Y-140770000D01*
X116836447Y-140770000D01*
X117427436Y-140179010D01*
X117427436Y-140179007D01*
X117414612Y-140169691D01*
X117414606Y-140169687D01*
X117255499Y-140088619D01*
X117085659Y-140033434D01*
X116909292Y-140005500D01*
X116730708Y-140005500D01*
X116554340Y-140033434D01*
X116384500Y-140088619D01*
X116225391Y-140169689D01*
X116212561Y-140179009D01*
X116803554Y-140770000D01*
X116771289Y-140770000D01*
X116677185Y-140795215D01*
X116592814Y-140843926D01*
X116523926Y-140912814D01*
X116475215Y-140997185D01*
X116450000Y-141091289D01*
X116450000Y-141123552D01*
X115859009Y-140532561D01*
X115849689Y-140545391D01*
X115768619Y-140704500D01*
X115713434Y-140874340D01*
X115685500Y-141050707D01*
X115360500Y-141050707D01*
X115360500Y-138510707D01*
X115685500Y-138510707D01*
X115685500Y-138689292D01*
X115713434Y-138865659D01*
X115768619Y-139035499D01*
X115849687Y-139194606D01*
X115849691Y-139194612D01*
X115859007Y-139207436D01*
X115859010Y-139207436D01*
X116450000Y-138616446D01*
X116450000Y-138648711D01*
X116475215Y-138742815D01*
X116523926Y-138827186D01*
X116592814Y-138896074D01*
X116677185Y-138944785D01*
X116771289Y-138970000D01*
X116803553Y-138970000D01*
X116212561Y-139560989D01*
X116225389Y-139570309D01*
X116384500Y-139651380D01*
X116554340Y-139706565D01*
X116730708Y-139734500D01*
X116909292Y-139734500D01*
X117085659Y-139706565D01*
X117255499Y-139651380D01*
X117414607Y-139570311D01*
X117427436Y-139560989D01*
X117427437Y-139560989D01*
X116836448Y-138970000D01*
X116868711Y-138970000D01*
X116962815Y-138944785D01*
X117047186Y-138896074D01*
X117116074Y-138827186D01*
X117164785Y-138742815D01*
X117190000Y-138648711D01*
X117190000Y-138616448D01*
X117780989Y-139207437D01*
X117780989Y-139207436D01*
X117790311Y-139194607D01*
X117871380Y-139035499D01*
X117926565Y-138865659D01*
X117954500Y-138689292D01*
X117954500Y-138510707D01*
X117926565Y-138334340D01*
X117871380Y-138164500D01*
X117790309Y-138005389D01*
X117780989Y-137992562D01*
X117780989Y-137992561D01*
X117190000Y-138583551D01*
X117190000Y-138551289D01*
X117164785Y-138457185D01*
X117116074Y-138372814D01*
X117047186Y-138303926D01*
X116962815Y-138255215D01*
X116868711Y-138230000D01*
X116836447Y-138230000D01*
X117427436Y-137639010D01*
X117427436Y-137639007D01*
X117414612Y-137629691D01*
X117414606Y-137629687D01*
X117255499Y-137548619D01*
X117085659Y-137493434D01*
X116909292Y-137465500D01*
X116730708Y-137465500D01*
X116554340Y-137493434D01*
X116384500Y-137548619D01*
X116225391Y-137629689D01*
X116212561Y-137639009D01*
X116803554Y-138230000D01*
X116771289Y-138230000D01*
X116677185Y-138255215D01*
X116592814Y-138303926D01*
X116523926Y-138372814D01*
X116475215Y-138457185D01*
X116450000Y-138551289D01*
X116450000Y-138583552D01*
X115859009Y-137992561D01*
X115849689Y-138005391D01*
X115768619Y-138164500D01*
X115713434Y-138334340D01*
X115685500Y-138510707D01*
X115360500Y-138510707D01*
X115360500Y-135970707D01*
X115685500Y-135970707D01*
X115685500Y-136149292D01*
X115713434Y-136325659D01*
X115768619Y-136495499D01*
X115849687Y-136654606D01*
X115849691Y-136654612D01*
X115859007Y-136667436D01*
X115859010Y-136667436D01*
X116450000Y-136076446D01*
X116450000Y-136108711D01*
X116475215Y-136202815D01*
X116523926Y-136287186D01*
X116592814Y-136356074D01*
X116677185Y-136404785D01*
X116771289Y-136430000D01*
X116803553Y-136430000D01*
X116212561Y-137020989D01*
X116225389Y-137030309D01*
X116384500Y-137111380D01*
X116554340Y-137166565D01*
X116730708Y-137194500D01*
X116909292Y-137194500D01*
X117085659Y-137166565D01*
X117255499Y-137111380D01*
X117414607Y-137030311D01*
X117427436Y-137020989D01*
X117427437Y-137020989D01*
X116836448Y-136430000D01*
X116868711Y-136430000D01*
X116962815Y-136404785D01*
X117047186Y-136356074D01*
X117116074Y-136287186D01*
X117164785Y-136202815D01*
X117190000Y-136108711D01*
X117190000Y-136076448D01*
X117780989Y-136667437D01*
X117780989Y-136667436D01*
X117790311Y-136654607D01*
X117871380Y-136495499D01*
X117926565Y-136325659D01*
X117943850Y-136216530D01*
X143649500Y-136216530D01*
X143649500Y-136423469D01*
X143689868Y-136626412D01*
X143689870Y-136626420D01*
X143769058Y-136817596D01*
X143884024Y-136989657D01*
X144030342Y-137135975D01*
X144030345Y-137135977D01*
X144202402Y-137250941D01*
X144393580Y-137330130D01*
X144596530Y-137370499D01*
X144596534Y-137370500D01*
X144596535Y-137370500D01*
X144803466Y-137370500D01*
X144803467Y-137370499D01*
X145006420Y-137330130D01*
X145197598Y-137250941D01*
X145369655Y-137135977D01*
X145515977Y-136989655D01*
X145630941Y-136817598D01*
X145710130Y-136626420D01*
X145750500Y-136423465D01*
X145750500Y-136216535D01*
X145710130Y-136013580D01*
X145630941Y-135822402D01*
X145515977Y-135650345D01*
X145515975Y-135650342D01*
X145369657Y-135504024D01*
X145231052Y-135411412D01*
X145197598Y-135389059D01*
X145006420Y-135309870D01*
X145006412Y-135309868D01*
X144803469Y-135269500D01*
X144803465Y-135269500D01*
X144596535Y-135269500D01*
X144596530Y-135269500D01*
X144393587Y-135309868D01*
X144393579Y-135309870D01*
X144202403Y-135389058D01*
X144030342Y-135504024D01*
X143884024Y-135650342D01*
X143769058Y-135822403D01*
X143689870Y-136013579D01*
X143689868Y-136013587D01*
X143649500Y-136216530D01*
X117943850Y-136216530D01*
X117947887Y-136191045D01*
X117954500Y-136149292D01*
X117954500Y-135970707D01*
X117926565Y-135794340D01*
X117871380Y-135624500D01*
X117790309Y-135465389D01*
X117780989Y-135452562D01*
X117780989Y-135452561D01*
X117190000Y-136043551D01*
X117190000Y-136011289D01*
X117164785Y-135917185D01*
X117116074Y-135832814D01*
X117047186Y-135763926D01*
X116962815Y-135715215D01*
X116868711Y-135690000D01*
X116836447Y-135690000D01*
X117427436Y-135099010D01*
X117427436Y-135099007D01*
X117414612Y-135089691D01*
X117414606Y-135089687D01*
X117255499Y-135008619D01*
X117085659Y-134953434D01*
X116909292Y-134925500D01*
X116730708Y-134925500D01*
X116554340Y-134953434D01*
X116384500Y-135008619D01*
X116225391Y-135089689D01*
X116212561Y-135099009D01*
X116803554Y-135690000D01*
X116771289Y-135690000D01*
X116677185Y-135715215D01*
X116592814Y-135763926D01*
X116523926Y-135832814D01*
X116475215Y-135917185D01*
X116450000Y-136011289D01*
X116450000Y-136043552D01*
X115859009Y-135452561D01*
X115849689Y-135465391D01*
X115768619Y-135624500D01*
X115713434Y-135794340D01*
X115685500Y-135970707D01*
X115360500Y-135970707D01*
X115360500Y-133430707D01*
X115685500Y-133430707D01*
X115685500Y-133609292D01*
X115713434Y-133785659D01*
X115768619Y-133955499D01*
X115849687Y-134114606D01*
X115849691Y-134114612D01*
X115859007Y-134127436D01*
X115859010Y-134127436D01*
X116450000Y-133536446D01*
X116450000Y-133568711D01*
X116475215Y-133662815D01*
X116523926Y-133747186D01*
X116592814Y-133816074D01*
X116677185Y-133864785D01*
X116771289Y-133890000D01*
X116803553Y-133890000D01*
X116212561Y-134480989D01*
X116225389Y-134490309D01*
X116384500Y-134571380D01*
X116554340Y-134626565D01*
X116730708Y-134654500D01*
X116909292Y-134654500D01*
X117085659Y-134626565D01*
X117255499Y-134571380D01*
X117414607Y-134490311D01*
X117427436Y-134480989D01*
X117427437Y-134480989D01*
X116836448Y-133890000D01*
X116868711Y-133890000D01*
X116962815Y-133864785D01*
X117047186Y-133816074D01*
X117116074Y-133747186D01*
X117164785Y-133662815D01*
X117190000Y-133568711D01*
X117190000Y-133536447D01*
X117780989Y-134127437D01*
X117780989Y-134127436D01*
X117790311Y-134114607D01*
X117871380Y-133955499D01*
X117926565Y-133785659D01*
X117954500Y-133609292D01*
X117954500Y-133430707D01*
X117926565Y-133254340D01*
X117871380Y-133084500D01*
X117790309Y-132925389D01*
X117780989Y-132912562D01*
X117780989Y-132912561D01*
X117190000Y-133503551D01*
X117190000Y-133471289D01*
X117164785Y-133377185D01*
X117116074Y-133292814D01*
X117047186Y-133223926D01*
X116962815Y-133175215D01*
X116868711Y-133150000D01*
X116836447Y-133150000D01*
X117427436Y-132559010D01*
X117427436Y-132559007D01*
X117414612Y-132549691D01*
X117414606Y-132549687D01*
X117255499Y-132468619D01*
X117085659Y-132413434D01*
X116909292Y-132385500D01*
X116730708Y-132385500D01*
X116554340Y-132413434D01*
X116384500Y-132468619D01*
X116225391Y-132549689D01*
X116212561Y-132559009D01*
X116803554Y-133150000D01*
X116771289Y-133150000D01*
X116677185Y-133175215D01*
X116592814Y-133223926D01*
X116523926Y-133292814D01*
X116475215Y-133377185D01*
X116450000Y-133471289D01*
X116450000Y-133503552D01*
X115859009Y-132912561D01*
X115849689Y-132925391D01*
X115768619Y-133084500D01*
X115713434Y-133254340D01*
X115685500Y-133430707D01*
X115360500Y-133430707D01*
X115360500Y-130890707D01*
X115685500Y-130890707D01*
X115685500Y-131069292D01*
X115713434Y-131245659D01*
X115768619Y-131415499D01*
X115849687Y-131574606D01*
X115849691Y-131574612D01*
X115859007Y-131587436D01*
X115859010Y-131587436D01*
X116450000Y-130996446D01*
X116450000Y-131028711D01*
X116475215Y-131122815D01*
X116523926Y-131207186D01*
X116592814Y-131276074D01*
X116677185Y-131324785D01*
X116771289Y-131350000D01*
X116803553Y-131350000D01*
X116212561Y-131940989D01*
X116225389Y-131950309D01*
X116384500Y-132031380D01*
X116554340Y-132086565D01*
X116730708Y-132114500D01*
X116909292Y-132114500D01*
X117085659Y-132086565D01*
X117255499Y-132031380D01*
X117414607Y-131950311D01*
X117427436Y-131940989D01*
X117427437Y-131940989D01*
X116836448Y-131350000D01*
X116868711Y-131350000D01*
X116962815Y-131324785D01*
X117047186Y-131276074D01*
X117116074Y-131207186D01*
X117164785Y-131122815D01*
X117190000Y-131028711D01*
X117190000Y-130996447D01*
X117780989Y-131587437D01*
X117780989Y-131587436D01*
X117790311Y-131574607D01*
X117871380Y-131415499D01*
X117926565Y-131245659D01*
X117954500Y-131069292D01*
X117954500Y-130890707D01*
X117926565Y-130714340D01*
X117871380Y-130544500D01*
X117790309Y-130385389D01*
X117780989Y-130372562D01*
X117780989Y-130372561D01*
X117190000Y-130963551D01*
X117190000Y-130931289D01*
X117164785Y-130837185D01*
X117116074Y-130752814D01*
X117047186Y-130683926D01*
X116962815Y-130635215D01*
X116868711Y-130610000D01*
X116836447Y-130610000D01*
X117427436Y-130019010D01*
X117427436Y-130019007D01*
X117414612Y-130009691D01*
X117414606Y-130009687D01*
X117255499Y-129928619D01*
X117085659Y-129873434D01*
X116909292Y-129845500D01*
X116730708Y-129845500D01*
X116554340Y-129873434D01*
X116384500Y-129928619D01*
X116225391Y-130009689D01*
X116212561Y-130019009D01*
X116803554Y-130610000D01*
X116771289Y-130610000D01*
X116677185Y-130635215D01*
X116592814Y-130683926D01*
X116523926Y-130752814D01*
X116475215Y-130837185D01*
X116450000Y-130931289D01*
X116450000Y-130963552D01*
X115859009Y-130372561D01*
X115849689Y-130385391D01*
X115768619Y-130544500D01*
X115713434Y-130714340D01*
X115685500Y-130890707D01*
X115360500Y-130890707D01*
X115360500Y-128350707D01*
X115685500Y-128350707D01*
X115685500Y-128529292D01*
X115713434Y-128705659D01*
X115768619Y-128875499D01*
X115849687Y-129034606D01*
X115849691Y-129034612D01*
X115859007Y-129047436D01*
X115859010Y-129047436D01*
X116450000Y-128456446D01*
X116450000Y-128488711D01*
X116475215Y-128582815D01*
X116523926Y-128667186D01*
X116592814Y-128736074D01*
X116677185Y-128784785D01*
X116771289Y-128810000D01*
X116803553Y-128810000D01*
X116212561Y-129400989D01*
X116225389Y-129410309D01*
X116384500Y-129491380D01*
X116554340Y-129546565D01*
X116730708Y-129574500D01*
X116909292Y-129574500D01*
X117085659Y-129546565D01*
X117255499Y-129491380D01*
X117414607Y-129410311D01*
X117427436Y-129400989D01*
X117427437Y-129400989D01*
X116836448Y-128810000D01*
X116868711Y-128810000D01*
X116962815Y-128784785D01*
X117047186Y-128736074D01*
X117116074Y-128667186D01*
X117164785Y-128582815D01*
X117190000Y-128488711D01*
X117190000Y-128456447D01*
X117780989Y-129047437D01*
X117780989Y-129047436D01*
X117790311Y-129034607D01*
X117871380Y-128875499D01*
X117926565Y-128705659D01*
X117954500Y-128529292D01*
X117954500Y-128350707D01*
X117926565Y-128174340D01*
X117871380Y-128004500D01*
X117790309Y-127845389D01*
X117780989Y-127832562D01*
X117780989Y-127832561D01*
X117190000Y-128423551D01*
X117190000Y-128391289D01*
X117164785Y-128297185D01*
X117116074Y-128212814D01*
X117047186Y-128143926D01*
X116962815Y-128095215D01*
X116868711Y-128070000D01*
X116836447Y-128070000D01*
X117427436Y-127479010D01*
X117427436Y-127479007D01*
X117414612Y-127469691D01*
X117414606Y-127469687D01*
X117255499Y-127388619D01*
X117085659Y-127333434D01*
X116909292Y-127305500D01*
X116730708Y-127305500D01*
X116554340Y-127333434D01*
X116384500Y-127388619D01*
X116225391Y-127469689D01*
X116212561Y-127479009D01*
X116803554Y-128070000D01*
X116771289Y-128070000D01*
X116677185Y-128095215D01*
X116592814Y-128143926D01*
X116523926Y-128212814D01*
X116475215Y-128297185D01*
X116450000Y-128391289D01*
X116450000Y-128423552D01*
X115859009Y-127832561D01*
X115849689Y-127845391D01*
X115768619Y-128004500D01*
X115713434Y-128174340D01*
X115685500Y-128350707D01*
X115360500Y-128350707D01*
X115360500Y-125810707D01*
X115685500Y-125810707D01*
X115685500Y-125989292D01*
X115713434Y-126165659D01*
X115768619Y-126335499D01*
X115849687Y-126494606D01*
X115849691Y-126494612D01*
X115859007Y-126507436D01*
X115859010Y-126507436D01*
X116450000Y-125916446D01*
X116450000Y-125948711D01*
X116475215Y-126042815D01*
X116523926Y-126127186D01*
X116592814Y-126196074D01*
X116677185Y-126244785D01*
X116771289Y-126270000D01*
X116803553Y-126270000D01*
X116212561Y-126860989D01*
X116225389Y-126870309D01*
X116384500Y-126951380D01*
X116554340Y-127006565D01*
X116730708Y-127034500D01*
X116909292Y-127034500D01*
X117085659Y-127006565D01*
X117255499Y-126951380D01*
X117414607Y-126870311D01*
X117427436Y-126860989D01*
X117427437Y-126860989D01*
X116836448Y-126270000D01*
X116868711Y-126270000D01*
X116962815Y-126244785D01*
X117047186Y-126196074D01*
X117116074Y-126127186D01*
X117164785Y-126042815D01*
X117190000Y-125948711D01*
X117190000Y-125916447D01*
X117780989Y-126507437D01*
X117780989Y-126507436D01*
X117790311Y-126494607D01*
X117871380Y-126335499D01*
X117926565Y-126165659D01*
X117954500Y-125989292D01*
X117954500Y-125810707D01*
X117926565Y-125634340D01*
X117871380Y-125464500D01*
X117790309Y-125305389D01*
X117780989Y-125292562D01*
X117780989Y-125292561D01*
X117190000Y-125883551D01*
X117190000Y-125851289D01*
X117164785Y-125757185D01*
X117116074Y-125672814D01*
X117047186Y-125603926D01*
X116962815Y-125555215D01*
X116868711Y-125530000D01*
X116836447Y-125530000D01*
X117427436Y-124939010D01*
X117427436Y-124939007D01*
X117414612Y-124929691D01*
X117414606Y-124929687D01*
X117255499Y-124848619D01*
X117085659Y-124793434D01*
X116909292Y-124765500D01*
X116730708Y-124765500D01*
X116554340Y-124793434D01*
X116384500Y-124848619D01*
X116225391Y-124929689D01*
X116212561Y-124939009D01*
X116803554Y-125530000D01*
X116771289Y-125530000D01*
X116677185Y-125555215D01*
X116592814Y-125603926D01*
X116523926Y-125672814D01*
X116475215Y-125757185D01*
X116450000Y-125851289D01*
X116450000Y-125883552D01*
X115859009Y-125292561D01*
X115849689Y-125305391D01*
X115768619Y-125464500D01*
X115713434Y-125634340D01*
X115685500Y-125810707D01*
X115360500Y-125810707D01*
X115360500Y-123520439D01*
X115355778Y-123502815D01*
X115340021Y-123444011D01*
X115319641Y-123408711D01*
X115300464Y-123375495D01*
X115300458Y-123375487D01*
X115195678Y-123270707D01*
X115685500Y-123270707D01*
X115685500Y-123449292D01*
X115713434Y-123625659D01*
X115768619Y-123795499D01*
X115849687Y-123954606D01*
X115849691Y-123954612D01*
X115859007Y-123967436D01*
X115859010Y-123967436D01*
X116450000Y-123376446D01*
X116450000Y-123408711D01*
X116475215Y-123502815D01*
X116523926Y-123587186D01*
X116592814Y-123656074D01*
X116677185Y-123704785D01*
X116771289Y-123730000D01*
X116803553Y-123730000D01*
X116212561Y-124320989D01*
X116225389Y-124330309D01*
X116384500Y-124411380D01*
X116554340Y-124466565D01*
X116730708Y-124494500D01*
X116909292Y-124494500D01*
X117085659Y-124466565D01*
X117255499Y-124411380D01*
X117414607Y-124330311D01*
X117427436Y-124320989D01*
X117427437Y-124320989D01*
X116836448Y-123730000D01*
X116868711Y-123730000D01*
X116962815Y-123704785D01*
X117047186Y-123656074D01*
X117116074Y-123587186D01*
X117164785Y-123502815D01*
X117190000Y-123408711D01*
X117190000Y-123376447D01*
X117780989Y-123967437D01*
X117780989Y-123967436D01*
X117790311Y-123954607D01*
X117871380Y-123795499D01*
X117926565Y-123625659D01*
X117954500Y-123449292D01*
X117954500Y-123270707D01*
X117926565Y-123094340D01*
X117871380Y-122924500D01*
X117790309Y-122765389D01*
X117780989Y-122752562D01*
X117780989Y-122752561D01*
X117190000Y-123343551D01*
X117190000Y-123311289D01*
X117164785Y-123217185D01*
X117116074Y-123132814D01*
X117047186Y-123063926D01*
X116962815Y-123015215D01*
X116868711Y-122990000D01*
X116836447Y-122990000D01*
X117427436Y-122399010D01*
X117427436Y-122399007D01*
X117414612Y-122389691D01*
X117414606Y-122389687D01*
X117255499Y-122308619D01*
X117085659Y-122253434D01*
X116909292Y-122225500D01*
X116730708Y-122225500D01*
X116554340Y-122253434D01*
X116384500Y-122308619D01*
X116225391Y-122389689D01*
X116212561Y-122399009D01*
X116803554Y-122990000D01*
X116771289Y-122990000D01*
X116677185Y-123015215D01*
X116592814Y-123063926D01*
X116523926Y-123132814D01*
X116475215Y-123217185D01*
X116450000Y-123311289D01*
X116450000Y-123343552D01*
X115859009Y-122752561D01*
X115849689Y-122765391D01*
X115768619Y-122924500D01*
X115713434Y-123094340D01*
X115685500Y-123270707D01*
X115195678Y-123270707D01*
X106008819Y-114083848D01*
X105975334Y-114022525D01*
X105972500Y-113996167D01*
X105972500Y-107996833D01*
X105992185Y-107929794D01*
X106044989Y-107884039D01*
X106114147Y-107874095D01*
X106177703Y-107903120D01*
X106184181Y-107909152D01*
X119063181Y-120788152D01*
X119096666Y-120849475D01*
X119099500Y-120875833D01*
X119099500Y-120965892D01*
X119102352Y-120976535D01*
X119133608Y-121093187D01*
X119166554Y-121150250D01*
X119199500Y-121207314D01*
X119292686Y-121300500D01*
X119406814Y-121366392D01*
X119534108Y-121400500D01*
X119534110Y-121400500D01*
X119665890Y-121400500D01*
X119665892Y-121400500D01*
X119793186Y-121366392D01*
X119907314Y-121300500D01*
X120000500Y-121207314D01*
X120066392Y-121093186D01*
X120100500Y-120965892D01*
X120100500Y-120834108D01*
X120066392Y-120706814D01*
X120000500Y-120592686D01*
X119907314Y-120499500D01*
X119819948Y-120449059D01*
X119793187Y-120433608D01*
X119706355Y-120410342D01*
X119665892Y-120399500D01*
X119575833Y-120399500D01*
X119508794Y-120379815D01*
X119488152Y-120363181D01*
X106336819Y-107211848D01*
X106303334Y-107150525D01*
X106300500Y-107124167D01*
X106300500Y-91334108D01*
X108999500Y-91334108D01*
X108999500Y-91465891D01*
X109033608Y-91593187D01*
X109047152Y-91616645D01*
X109099500Y-91707314D01*
X109099502Y-91707316D01*
X109163181Y-91770995D01*
X109196666Y-91832318D01*
X109199500Y-91858676D01*
X109199500Y-93141323D01*
X109179815Y-93208362D01*
X109163182Y-93229004D01*
X109099500Y-93292686D01*
X109033608Y-93406812D01*
X108999500Y-93534108D01*
X108999500Y-93665891D01*
X109033608Y-93793187D01*
X109066554Y-93850250D01*
X109099500Y-93907314D01*
X109192686Y-94000500D01*
X109306814Y-94066392D01*
X109434108Y-94100500D01*
X109434110Y-94100500D01*
X109565890Y-94100500D01*
X109565892Y-94100500D01*
X109693186Y-94066392D01*
X109807314Y-94000500D01*
X109900500Y-93907314D01*
X109966392Y-93793186D01*
X110000500Y-93665892D01*
X110000500Y-93534108D01*
X109966392Y-93406814D01*
X109900500Y-93292686D01*
X109836818Y-93229004D01*
X109803334Y-93167680D01*
X109800500Y-93141323D01*
X109800500Y-91858676D01*
X109820185Y-91791637D01*
X109836819Y-91770995D01*
X109900500Y-91707314D01*
X109966392Y-91593186D01*
X110000500Y-91465892D01*
X110000500Y-91334108D01*
X109966392Y-91206814D01*
X109900500Y-91092686D01*
X109807314Y-90999500D01*
X109750250Y-90966554D01*
X109693187Y-90933608D01*
X109577700Y-90902664D01*
X109565892Y-90899500D01*
X109434108Y-90899500D01*
X109306812Y-90933608D01*
X109192686Y-90999500D01*
X109192683Y-90999502D01*
X109099502Y-91092683D01*
X109099500Y-91092686D01*
X109033608Y-91206812D01*
X108999500Y-91334108D01*
X106300500Y-91334108D01*
X106300500Y-89711022D01*
X107069500Y-89711022D01*
X107069500Y-89888977D01*
X107097335Y-90064726D01*
X107152325Y-90233965D01*
X107233109Y-90392511D01*
X107337703Y-90536471D01*
X107463529Y-90662297D01*
X107607489Y-90766891D01*
X107628986Y-90777844D01*
X107766034Y-90847674D01*
X107766036Y-90847674D01*
X107766039Y-90847676D01*
X107856752Y-90877150D01*
X107935273Y-90902664D01*
X108111023Y-90930500D01*
X108111028Y-90930500D01*
X108288977Y-90930500D01*
X108464726Y-90902664D01*
X108474464Y-90899500D01*
X108633961Y-90847676D01*
X108792511Y-90766891D01*
X108936471Y-90662297D01*
X109062297Y-90536471D01*
X109166891Y-90392511D01*
X109247676Y-90233961D01*
X109302664Y-90064726D01*
X109311584Y-90008405D01*
X109330500Y-89888977D01*
X109330500Y-89711022D01*
X109302664Y-89535273D01*
X109248546Y-89368718D01*
X109247676Y-89366039D01*
X109247674Y-89366036D01*
X109247674Y-89366034D01*
X109166890Y-89207488D01*
X109062297Y-89063529D01*
X108936471Y-88937703D01*
X108792511Y-88833109D01*
X108771046Y-88822172D01*
X108633965Y-88752325D01*
X108464726Y-88697335D01*
X108288977Y-88669500D01*
X108288972Y-88669500D01*
X108111028Y-88669500D01*
X108111023Y-88669500D01*
X107935273Y-88697335D01*
X107766034Y-88752325D01*
X107607488Y-88833109D01*
X107463527Y-88937704D01*
X107337704Y-89063527D01*
X107233109Y-89207488D01*
X107152325Y-89366034D01*
X107097335Y-89535273D01*
X107069500Y-89711022D01*
X106300500Y-89711022D01*
X106300500Y-82311022D01*
X107069500Y-82311022D01*
X107069500Y-82488977D01*
X107097335Y-82664726D01*
X107152325Y-82833965D01*
X107233109Y-82992511D01*
X107337703Y-83136471D01*
X107463529Y-83262297D01*
X107607489Y-83366891D01*
X107628986Y-83377844D01*
X107766034Y-83447674D01*
X107766036Y-83447674D01*
X107766039Y-83447676D01*
X107856752Y-83477150D01*
X107935273Y-83502664D01*
X108111023Y-83530500D01*
X108111028Y-83530500D01*
X108288977Y-83530500D01*
X108464726Y-83502664D01*
X108633961Y-83447676D01*
X108792511Y-83366891D01*
X108936471Y-83262297D01*
X109062297Y-83136471D01*
X109166891Y-82992511D01*
X109247676Y-82833961D01*
X109302664Y-82664726D01*
X109315949Y-82580847D01*
X109330500Y-82488977D01*
X109330500Y-82311022D01*
X109302664Y-82135273D01*
X109247674Y-81966034D01*
X109166890Y-81807488D01*
X109062297Y-81663529D01*
X108936471Y-81537703D01*
X108792511Y-81433109D01*
X108771046Y-81422172D01*
X108633965Y-81352325D01*
X108464726Y-81297335D01*
X108288977Y-81269500D01*
X108288972Y-81269500D01*
X108111028Y-81269500D01*
X108111023Y-81269500D01*
X107935273Y-81297335D01*
X107766034Y-81352325D01*
X107607488Y-81433109D01*
X107463527Y-81537704D01*
X107337704Y-81663527D01*
X107233109Y-81807488D01*
X107152325Y-81966034D01*
X107097335Y-82135273D01*
X107069500Y-82311022D01*
X106300500Y-82311022D01*
X106300500Y-76734108D01*
X110599500Y-76734108D01*
X110599500Y-76865892D01*
X110611814Y-76911848D01*
X110633608Y-76993187D01*
X110666554Y-77050250D01*
X110699500Y-77107314D01*
X110792686Y-77200500D01*
X110906814Y-77266392D01*
X111034108Y-77300500D01*
X111034110Y-77300500D01*
X111124167Y-77300500D01*
X111191206Y-77320185D01*
X111211848Y-77336819D01*
X112563181Y-78688152D01*
X112596666Y-78749475D01*
X112599500Y-78775833D01*
X112599500Y-111939562D01*
X112607790Y-111970499D01*
X112619979Y-112015990D01*
X112619980Y-112015991D01*
X112631519Y-112035977D01*
X112659540Y-112084511D01*
X134595489Y-134020460D01*
X134664012Y-134060022D01*
X134740438Y-134080500D01*
X134819562Y-134080500D01*
X143604564Y-134080500D01*
X143671603Y-134100185D01*
X143717358Y-134152989D01*
X143719125Y-134157047D01*
X143769058Y-134277596D01*
X143884024Y-134449657D01*
X144030342Y-134595975D01*
X144030345Y-134595977D01*
X144202402Y-134710941D01*
X144393580Y-134790130D01*
X144596530Y-134830499D01*
X144596534Y-134830500D01*
X144596535Y-134830500D01*
X144803466Y-134830500D01*
X144803467Y-134830499D01*
X145006420Y-134790130D01*
X145197598Y-134710941D01*
X145369655Y-134595977D01*
X145515977Y-134449655D01*
X145630941Y-134277598D01*
X145710130Y-134086420D01*
X145750500Y-133883465D01*
X145750500Y-133676535D01*
X145710130Y-133473580D01*
X145630941Y-133282402D01*
X145515977Y-133110345D01*
X145515975Y-133110342D01*
X145369657Y-132964024D01*
X145231052Y-132871412D01*
X145197598Y-132849059D01*
X145006420Y-132769870D01*
X145006412Y-132769868D01*
X144803469Y-132729500D01*
X144803465Y-132729500D01*
X144596535Y-132729500D01*
X144596530Y-132729500D01*
X144393587Y-132769868D01*
X144393579Y-132769870D01*
X144202403Y-132849058D01*
X144030342Y-132964024D01*
X143884024Y-133110342D01*
X143769058Y-133282403D01*
X143719125Y-133402953D01*
X143675284Y-133457356D01*
X143608990Y-133479421D01*
X143604564Y-133479500D01*
X134955833Y-133479500D01*
X134888794Y-133459815D01*
X134868152Y-133443181D01*
X132859079Y-131434108D01*
X134599500Y-131434108D01*
X134599500Y-131565892D01*
X134605273Y-131587436D01*
X134633608Y-131693187D01*
X134659248Y-131737596D01*
X134699500Y-131807314D01*
X134792686Y-131900500D01*
X134906814Y-131966392D01*
X135034108Y-132000500D01*
X135034110Y-132000500D01*
X135047794Y-132000500D01*
X135114833Y-132020185D01*
X135160588Y-132072989D01*
X135170532Y-132142147D01*
X135141507Y-132205703D01*
X135109794Y-132231887D01*
X134992689Y-132299497D01*
X134992683Y-132299502D01*
X134899502Y-132392683D01*
X134899500Y-132392686D01*
X134833608Y-132506812D01*
X134799500Y-132634108D01*
X134799500Y-132765892D01*
X134800566Y-132769870D01*
X134833608Y-132893187D01*
X134860902Y-132940460D01*
X134899500Y-133007314D01*
X134992686Y-133100500D01*
X135106814Y-133166392D01*
X135234108Y-133200500D01*
X135234110Y-133200500D01*
X135365890Y-133200500D01*
X135365892Y-133200500D01*
X135493186Y-133166392D01*
X135607314Y-133100500D01*
X135670995Y-133036819D01*
X135732318Y-133003334D01*
X135758676Y-133000500D01*
X140739560Y-133000500D01*
X140739562Y-133000500D01*
X140815989Y-132980021D01*
X140884511Y-132940460D01*
X140940460Y-132884511D01*
X142688440Y-131136530D01*
X143649500Y-131136530D01*
X143649500Y-131343469D01*
X143689868Y-131546412D01*
X143689870Y-131546420D01*
X143769058Y-131737596D01*
X143884024Y-131909657D01*
X144030342Y-132055975D01*
X144030345Y-132055977D01*
X144202402Y-132170941D01*
X144393580Y-132250130D01*
X144596530Y-132290499D01*
X144596534Y-132290500D01*
X144596535Y-132290500D01*
X144803466Y-132290500D01*
X144803467Y-132290499D01*
X145006420Y-132250130D01*
X145197598Y-132170941D01*
X145369655Y-132055977D01*
X145515977Y-131909655D01*
X145630941Y-131737598D01*
X145710130Y-131546420D01*
X145750500Y-131343465D01*
X145750500Y-131136535D01*
X145710130Y-130933580D01*
X145630941Y-130742402D01*
X145515977Y-130570345D01*
X145515975Y-130570342D01*
X145369657Y-130424024D01*
X145213941Y-130319979D01*
X145197598Y-130309059D01*
X145086839Y-130263181D01*
X145006420Y-130229870D01*
X145006412Y-130229868D01*
X144803469Y-130189500D01*
X144803465Y-130189500D01*
X144596535Y-130189500D01*
X144596530Y-130189500D01*
X144393587Y-130229868D01*
X144393579Y-130229870D01*
X144202403Y-130309058D01*
X144030342Y-130424024D01*
X143884024Y-130570342D01*
X143769058Y-130742403D01*
X143689870Y-130933579D01*
X143689868Y-130933587D01*
X143649500Y-131136530D01*
X142688440Y-131136530D01*
X144137896Y-129687073D01*
X144199217Y-129653590D01*
X144268909Y-129658574D01*
X144273007Y-129660186D01*
X144393580Y-129710130D01*
X144596530Y-129750499D01*
X144596534Y-129750500D01*
X144596535Y-129750500D01*
X144803466Y-129750500D01*
X144803467Y-129750499D01*
X145006420Y-129710130D01*
X145197598Y-129630941D01*
X145369655Y-129515977D01*
X145515977Y-129369655D01*
X145630941Y-129197598D01*
X145710130Y-129006420D01*
X145750500Y-128803465D01*
X145750500Y-128596535D01*
X145710130Y-128393580D01*
X145630941Y-128202402D01*
X145515977Y-128030345D01*
X145515975Y-128030342D01*
X145369657Y-127884024D01*
X145231052Y-127791412D01*
X145197598Y-127769059D01*
X145006420Y-127689870D01*
X145006412Y-127689868D01*
X144803469Y-127649500D01*
X144803465Y-127649500D01*
X144596535Y-127649500D01*
X144596530Y-127649500D01*
X144393587Y-127689868D01*
X144393579Y-127689870D01*
X144202403Y-127769058D01*
X144030342Y-127884024D01*
X143884024Y-128030342D01*
X143769058Y-128202403D01*
X143689870Y-128393579D01*
X143689868Y-128393587D01*
X143649500Y-128596530D01*
X143649500Y-128803469D01*
X143689868Y-129006412D01*
X143689871Y-129006424D01*
X143739803Y-129126971D01*
X143747272Y-129196440D01*
X143715997Y-129258919D01*
X143712923Y-129262104D01*
X140611848Y-132363181D01*
X140550525Y-132396666D01*
X140524167Y-132399500D01*
X135758676Y-132399500D01*
X135691637Y-132379815D01*
X135670995Y-132363181D01*
X135607316Y-132299502D01*
X135607314Y-132299500D01*
X135521803Y-132250130D01*
X135493187Y-132233608D01*
X135429539Y-132216554D01*
X135365892Y-132199500D01*
X135352206Y-132199500D01*
X135285167Y-132179815D01*
X135239412Y-132127011D01*
X135229468Y-132057853D01*
X135258493Y-131994297D01*
X135290206Y-131968113D01*
X135362087Y-131926611D01*
X135407314Y-131900500D01*
X135500500Y-131807314D01*
X135566392Y-131693186D01*
X135600500Y-131565892D01*
X135600500Y-131475832D01*
X135620185Y-131408793D01*
X135636819Y-131388151D01*
X136088152Y-130936819D01*
X136149475Y-130903334D01*
X136175833Y-130900500D01*
X140299560Y-130900500D01*
X140299562Y-130900500D01*
X140375989Y-130880021D01*
X140444511Y-130840460D01*
X140500460Y-130784511D01*
X144137896Y-127147073D01*
X144199217Y-127113590D01*
X144268909Y-127118574D01*
X144273007Y-127120186D01*
X144393580Y-127170130D01*
X144596530Y-127210499D01*
X144596534Y-127210500D01*
X144596535Y-127210500D01*
X144803466Y-127210500D01*
X144803467Y-127210499D01*
X145006420Y-127170130D01*
X145197598Y-127090941D01*
X145369655Y-126975977D01*
X145515977Y-126829655D01*
X145630941Y-126657598D01*
X145710130Y-126466420D01*
X145750500Y-126263465D01*
X145750500Y-126056535D01*
X145710130Y-125853580D01*
X145630941Y-125662402D01*
X145515977Y-125490345D01*
X145515975Y-125490342D01*
X145369657Y-125344024D01*
X145214628Y-125240438D01*
X145197598Y-125229059D01*
X145189807Y-125225832D01*
X145006420Y-125149870D01*
X145006412Y-125149868D01*
X144803469Y-125109500D01*
X144803465Y-125109500D01*
X144596535Y-125109500D01*
X144596530Y-125109500D01*
X144393587Y-125149868D01*
X144393579Y-125149870D01*
X144202403Y-125229058D01*
X144030342Y-125344024D01*
X143884024Y-125490342D01*
X143769058Y-125662403D01*
X143689870Y-125853579D01*
X143689868Y-125853587D01*
X143649500Y-126056530D01*
X143649500Y-126263469D01*
X143689868Y-126466412D01*
X143689871Y-126466424D01*
X143739803Y-126586971D01*
X143747272Y-126656440D01*
X143715997Y-126718919D01*
X143712923Y-126722104D01*
X140171848Y-130263181D01*
X140110525Y-130296666D01*
X140084167Y-130299500D01*
X135960438Y-130299500D01*
X135909486Y-130313152D01*
X135884010Y-130319979D01*
X135864207Y-130331413D01*
X135864206Y-130331413D01*
X135815492Y-130359537D01*
X135815487Y-130359541D01*
X135211847Y-130963181D01*
X135150524Y-130996666D01*
X135124166Y-130999500D01*
X135034108Y-130999500D01*
X134906812Y-131033608D01*
X134792686Y-131099500D01*
X134792683Y-131099502D01*
X134699502Y-131192683D01*
X134699500Y-131192686D01*
X134633608Y-131306812D01*
X134611814Y-131388151D01*
X134599500Y-131434108D01*
X132859079Y-131434108D01*
X126316652Y-124891681D01*
X126283167Y-124830358D01*
X126288151Y-124760666D01*
X126330023Y-124704733D01*
X126395487Y-124680316D01*
X126404333Y-124680000D01*
X126750000Y-124680000D01*
X126750000Y-123817529D01*
X126819153Y-123846174D01*
X126938935Y-123870000D01*
X127061065Y-123870000D01*
X127180847Y-123846174D01*
X127250000Y-123817529D01*
X127250000Y-124680000D01*
X127977828Y-124680000D01*
X127977844Y-124679999D01*
X128037372Y-124673598D01*
X128037379Y-124673596D01*
X128172086Y-124623354D01*
X128172093Y-124623350D01*
X128287187Y-124537190D01*
X128287190Y-124537187D01*
X128373350Y-124422093D01*
X128373354Y-124422086D01*
X128423596Y-124287379D01*
X128423598Y-124287372D01*
X128429999Y-124227844D01*
X128430000Y-124227827D01*
X128430000Y-123500000D01*
X127567530Y-123500000D01*
X127596174Y-123430847D01*
X127620000Y-123311065D01*
X127620000Y-123188935D01*
X127614448Y-123161022D01*
X132369500Y-123161022D01*
X132369500Y-123338977D01*
X132397335Y-123514726D01*
X132452325Y-123683965D01*
X132533109Y-123842511D01*
X132637703Y-123986471D01*
X132763529Y-124112297D01*
X132907489Y-124216891D01*
X132928986Y-124227844D01*
X133066034Y-124297674D01*
X133066036Y-124297674D01*
X133066039Y-124297676D01*
X133137789Y-124320989D01*
X133235273Y-124352664D01*
X133411023Y-124380500D01*
X133411028Y-124380500D01*
X133588977Y-124380500D01*
X133764726Y-124352664D01*
X133793896Y-124343186D01*
X133933961Y-124297676D01*
X134092511Y-124216891D01*
X134236471Y-124112297D01*
X134264660Y-124084108D01*
X135849500Y-124084108D01*
X135849500Y-124215892D01*
X135866554Y-124279539D01*
X135883608Y-124343187D01*
X135889080Y-124352664D01*
X135949500Y-124457314D01*
X136042686Y-124550500D01*
X136156814Y-124616392D01*
X136284108Y-124650500D01*
X136284110Y-124650500D01*
X136305131Y-124650500D01*
X136372170Y-124670185D01*
X136417925Y-124722989D01*
X136424904Y-124742402D01*
X136458608Y-124868186D01*
X136524500Y-124982314D01*
X136617686Y-125075500D01*
X136731814Y-125141392D01*
X136859108Y-125175500D01*
X136859110Y-125175500D01*
X136875500Y-125175500D01*
X136942539Y-125195185D01*
X136988294Y-125247989D01*
X136999500Y-125299500D01*
X136999500Y-125315891D01*
X137033608Y-125443187D01*
X137060835Y-125490345D01*
X137099500Y-125557314D01*
X137192686Y-125650500D01*
X137306814Y-125716392D01*
X137434108Y-125750500D01*
X137434110Y-125750500D01*
X137565890Y-125750500D01*
X137565892Y-125750500D01*
X137693186Y-125716392D01*
X137807314Y-125650500D01*
X137900500Y-125557314D01*
X137966392Y-125443186D01*
X138000500Y-125315892D01*
X138000500Y-125225832D01*
X138020185Y-125158793D01*
X138036819Y-125138151D01*
X140538152Y-122636819D01*
X140599475Y-122603334D01*
X140625833Y-122600500D01*
X142041324Y-122600500D01*
X142108363Y-122620185D01*
X142129005Y-122636819D01*
X142192686Y-122700500D01*
X142306814Y-122766392D01*
X142321626Y-122770360D01*
X142381285Y-122806725D01*
X142411814Y-122869572D01*
X142403519Y-122938948D01*
X142377212Y-122977816D01*
X140315489Y-125039540D01*
X140259541Y-125095487D01*
X140259535Y-125095495D01*
X140219982Y-125164004D01*
X140219979Y-125164009D01*
X140199500Y-125240439D01*
X140199500Y-127841323D01*
X140179815Y-127908362D01*
X140163182Y-127929004D01*
X140099500Y-127992686D01*
X140033608Y-128106812D01*
X139999500Y-128234108D01*
X139999500Y-128365891D01*
X140033608Y-128493187D01*
X140054454Y-128529292D01*
X140099500Y-128607314D01*
X140192686Y-128700500D01*
X140306814Y-128766392D01*
X140434108Y-128800500D01*
X140434110Y-128800500D01*
X140565890Y-128800500D01*
X140565892Y-128800500D01*
X140693186Y-128766392D01*
X140807314Y-128700500D01*
X140900500Y-128607314D01*
X140966392Y-128493186D01*
X141000500Y-128365892D01*
X141000500Y-128234108D01*
X140966392Y-128106814D01*
X140900500Y-127992686D01*
X140836818Y-127929004D01*
X140803334Y-127867680D01*
X140800500Y-127841323D01*
X140800500Y-125455832D01*
X140820185Y-125388793D01*
X140836814Y-125368156D01*
X142688439Y-123516530D01*
X143649500Y-123516530D01*
X143649500Y-123723469D01*
X143689868Y-123926412D01*
X143689870Y-123926420D01*
X143714744Y-123986472D01*
X143769059Y-124117598D01*
X143808440Y-124176536D01*
X143884024Y-124289657D01*
X144030342Y-124435975D01*
X144030345Y-124435977D01*
X144202402Y-124550941D01*
X144393580Y-124630130D01*
X144594951Y-124670185D01*
X144596530Y-124670499D01*
X144596534Y-124670500D01*
X144596535Y-124670500D01*
X144803466Y-124670500D01*
X144803467Y-124670499D01*
X145006420Y-124630130D01*
X145197598Y-124550941D01*
X145369655Y-124435977D01*
X145515977Y-124289655D01*
X145630941Y-124117598D01*
X145710130Y-123926420D01*
X145750500Y-123723465D01*
X145750500Y-123516535D01*
X145710130Y-123313580D01*
X145630941Y-123122402D01*
X145515977Y-122950345D01*
X145515975Y-122950342D01*
X145369657Y-122804024D01*
X145214815Y-122700563D01*
X145197598Y-122689059D01*
X145184438Y-122683608D01*
X145006420Y-122609870D01*
X145006412Y-122609868D01*
X144803469Y-122569500D01*
X144803465Y-122569500D01*
X144596535Y-122569500D01*
X144596530Y-122569500D01*
X144393587Y-122609868D01*
X144393579Y-122609870D01*
X144202403Y-122689058D01*
X144030342Y-122804024D01*
X143884024Y-122950342D01*
X143769058Y-123122403D01*
X143689870Y-123313579D01*
X143689868Y-123313587D01*
X143649500Y-123516530D01*
X142688439Y-123516530D01*
X144137896Y-122067073D01*
X144199217Y-122033590D01*
X144268909Y-122038574D01*
X144273007Y-122040186D01*
X144393580Y-122090130D01*
X144596530Y-122130499D01*
X144596534Y-122130500D01*
X144596535Y-122130500D01*
X144803466Y-122130500D01*
X144803467Y-122130499D01*
X145006420Y-122090130D01*
X145197598Y-122010941D01*
X145369655Y-121895977D01*
X145515977Y-121749655D01*
X145630941Y-121577598D01*
X145710130Y-121386420D01*
X145750500Y-121183465D01*
X145750500Y-120976535D01*
X145710130Y-120773580D01*
X145630941Y-120582402D01*
X145515977Y-120410345D01*
X145515975Y-120410342D01*
X145369657Y-120264024D01*
X145283626Y-120206541D01*
X145197598Y-120149059D01*
X145006420Y-120069870D01*
X145006412Y-120069868D01*
X144803469Y-120029500D01*
X144803465Y-120029500D01*
X144596535Y-120029500D01*
X144596530Y-120029500D01*
X144393587Y-120069868D01*
X144393579Y-120069870D01*
X144202403Y-120149058D01*
X144030342Y-120264024D01*
X143884024Y-120410342D01*
X143769058Y-120582403D01*
X143689870Y-120773579D01*
X143689868Y-120773587D01*
X143649500Y-120976530D01*
X143649500Y-121183469D01*
X143689868Y-121386412D01*
X143689871Y-121386424D01*
X143739803Y-121506971D01*
X143747272Y-121576440D01*
X143715997Y-121638919D01*
X143712923Y-121642104D01*
X143177816Y-122177212D01*
X143116493Y-122210697D01*
X143046802Y-122205713D01*
X142990868Y-122163842D01*
X142970361Y-122121627D01*
X142966392Y-122106814D01*
X142900500Y-121992686D01*
X142807314Y-121899500D01*
X142750250Y-121866554D01*
X142693187Y-121833608D01*
X142629539Y-121816554D01*
X142565892Y-121799500D01*
X142434108Y-121799500D01*
X142306812Y-121833608D01*
X142192686Y-121899500D01*
X142192683Y-121899502D01*
X142129005Y-121963181D01*
X142067682Y-121996666D01*
X142041324Y-121999500D01*
X140410438Y-121999500D01*
X140380258Y-122007587D01*
X140334009Y-122019979D01*
X140334008Y-122019980D01*
X140275812Y-122053580D01*
X140265492Y-122059538D01*
X140265486Y-122059542D01*
X139162086Y-123162942D01*
X139100763Y-123196427D01*
X139031071Y-123191443D01*
X138975138Y-123149571D01*
X138951466Y-123091447D01*
X138950500Y-123084116D01*
X138950500Y-123084108D01*
X138916392Y-122956814D01*
X138850500Y-122842686D01*
X138757314Y-122749500D01*
X138672439Y-122700497D01*
X138643187Y-122683608D01*
X138577068Y-122665892D01*
X138515892Y-122649500D01*
X138515891Y-122649500D01*
X138515887Y-122649499D01*
X138508249Y-122648493D01*
X138444355Y-122620221D01*
X138405888Y-122561894D01*
X138401505Y-122541743D01*
X138400500Y-122534115D01*
X138400500Y-122534108D01*
X138366392Y-122406814D01*
X138300500Y-122292686D01*
X138207314Y-122199500D01*
X138116962Y-122147335D01*
X138093187Y-122133608D01*
X137993188Y-122106814D01*
X137965892Y-122099500D01*
X137834108Y-122099500D01*
X137706812Y-122133608D01*
X137592686Y-122199500D01*
X137592683Y-122199502D01*
X137499502Y-122292683D01*
X137499500Y-122292686D01*
X137433608Y-122406812D01*
X137399500Y-122534108D01*
X137399500Y-122624166D01*
X137379815Y-122691205D01*
X137363181Y-122711847D01*
X136461847Y-123613181D01*
X136400524Y-123646666D01*
X136374166Y-123649500D01*
X136284108Y-123649500D01*
X136156812Y-123683608D01*
X136042686Y-123749500D01*
X136042683Y-123749502D01*
X135949502Y-123842683D01*
X135949500Y-123842686D01*
X135883608Y-123956812D01*
X135865749Y-124023465D01*
X135849500Y-124084108D01*
X134264660Y-124084108D01*
X134362297Y-123986471D01*
X134466891Y-123842511D01*
X134547676Y-123683961D01*
X134602664Y-123514726D01*
X134630500Y-123338977D01*
X134630500Y-123161022D01*
X134602664Y-122985273D01*
X134565070Y-122869572D01*
X134547676Y-122816039D01*
X134547674Y-122816036D01*
X134547674Y-122816034D01*
X134494588Y-122711847D01*
X134466891Y-122657489D01*
X134362297Y-122513529D01*
X134236471Y-122387703D01*
X134092511Y-122283109D01*
X134071046Y-122272172D01*
X133933965Y-122202325D01*
X133764726Y-122147335D01*
X133588977Y-122119500D01*
X133588972Y-122119500D01*
X133411028Y-122119500D01*
X133411023Y-122119500D01*
X133235273Y-122147335D01*
X133066034Y-122202325D01*
X132907488Y-122283109D01*
X132763527Y-122387704D01*
X132637704Y-122513527D01*
X132533109Y-122657488D01*
X132452325Y-122816034D01*
X132397335Y-122985273D01*
X132369500Y-123161022D01*
X127614448Y-123161022D01*
X127596174Y-123069153D01*
X127567530Y-123000000D01*
X128430000Y-123000000D01*
X128430000Y-122272172D01*
X128429999Y-122272155D01*
X128423598Y-122212627D01*
X128423596Y-122212620D01*
X128373354Y-122077913D01*
X128373350Y-122077906D01*
X128287190Y-121962812D01*
X128287187Y-121962809D01*
X128172093Y-121876649D01*
X128172086Y-121876645D01*
X128037379Y-121826403D01*
X128037372Y-121826401D01*
X127977844Y-121820000D01*
X127250000Y-121820000D01*
X127250000Y-122682470D01*
X127180847Y-122653826D01*
X127061065Y-122630000D01*
X126938935Y-122630000D01*
X126819153Y-122653826D01*
X126750000Y-122682470D01*
X126750000Y-121820000D01*
X126022155Y-121820000D01*
X125962627Y-121826401D01*
X125962620Y-121826403D01*
X125827913Y-121876645D01*
X125827906Y-121876649D01*
X125712812Y-121962809D01*
X125712809Y-121962812D01*
X125626649Y-122077906D01*
X125626645Y-122077913D01*
X125576403Y-122212620D01*
X125576401Y-122212627D01*
X125570000Y-122272155D01*
X125570000Y-123000000D01*
X126432470Y-123000000D01*
X126403826Y-123069153D01*
X126380000Y-123188935D01*
X126380000Y-123311065D01*
X126403826Y-123430847D01*
X126432470Y-123500000D01*
X125570000Y-123500000D01*
X125570000Y-123845667D01*
X125550315Y-123912706D01*
X125497511Y-123958461D01*
X125428353Y-123968405D01*
X125364797Y-123939380D01*
X125358319Y-123933348D01*
X113236819Y-111811848D01*
X113203334Y-111750525D01*
X113200500Y-111724167D01*
X113200500Y-87834108D01*
X115499500Y-87834108D01*
X115499500Y-87965892D01*
X115511814Y-88011848D01*
X115533608Y-88093187D01*
X115564986Y-88147534D01*
X115599500Y-88207314D01*
X115692686Y-88300500D01*
X115806814Y-88366392D01*
X115934108Y-88400500D01*
X115934110Y-88400500D01*
X116024167Y-88400500D01*
X116091206Y-88420185D01*
X116111848Y-88436819D01*
X117490181Y-89815152D01*
X117523666Y-89876475D01*
X117526500Y-89902833D01*
X117526500Y-113666562D01*
X117533500Y-113692686D01*
X117546979Y-113742989D01*
X117556533Y-113759536D01*
X117556534Y-113759540D01*
X117586535Y-113811504D01*
X117586539Y-113811509D01*
X117586540Y-113811511D01*
X124166540Y-120391511D01*
X124222489Y-120447460D01*
X124222491Y-120447461D01*
X124222495Y-120447464D01*
X124291004Y-120487017D01*
X124291011Y-120487021D01*
X124367438Y-120507500D01*
X124367440Y-120507500D01*
X140532560Y-120507500D01*
X140532562Y-120507500D01*
X140608989Y-120487021D01*
X140677511Y-120447460D01*
X140733460Y-120391511D01*
X142688440Y-118436530D01*
X143649500Y-118436530D01*
X143649500Y-118643469D01*
X143689868Y-118846412D01*
X143689870Y-118846420D01*
X143769058Y-119037596D01*
X143884024Y-119209657D01*
X144030342Y-119355975D01*
X144030345Y-119355977D01*
X144202402Y-119470941D01*
X144393580Y-119550130D01*
X144596530Y-119590499D01*
X144596534Y-119590500D01*
X144596535Y-119590500D01*
X144803466Y-119590500D01*
X144803467Y-119590499D01*
X145006420Y-119550130D01*
X145197598Y-119470941D01*
X145369655Y-119355977D01*
X145515977Y-119209655D01*
X145630941Y-119037598D01*
X145710130Y-118846420D01*
X145750500Y-118643465D01*
X145750500Y-118436535D01*
X145710130Y-118233580D01*
X145630941Y-118042402D01*
X145515977Y-117870345D01*
X145515975Y-117870342D01*
X145369657Y-117724024D01*
X145235690Y-117634511D01*
X145197598Y-117609059D01*
X145117381Y-117575832D01*
X145006420Y-117529870D01*
X145006412Y-117529868D01*
X144803469Y-117489500D01*
X144803465Y-117489500D01*
X144596535Y-117489500D01*
X144596530Y-117489500D01*
X144393587Y-117529868D01*
X144393579Y-117529870D01*
X144202403Y-117609058D01*
X144030342Y-117724024D01*
X143884024Y-117870342D01*
X143769058Y-118042403D01*
X143689870Y-118233579D01*
X143689868Y-118233587D01*
X143649500Y-118436530D01*
X142688440Y-118436530D01*
X144137896Y-116987073D01*
X144199217Y-116953590D01*
X144268909Y-116958574D01*
X144273007Y-116960186D01*
X144393580Y-117010130D01*
X144593257Y-117049848D01*
X144596530Y-117050499D01*
X144596534Y-117050500D01*
X144596535Y-117050500D01*
X144803466Y-117050500D01*
X144803467Y-117050499D01*
X145006420Y-117010130D01*
X145197598Y-116930941D01*
X145369655Y-116815977D01*
X145515977Y-116669655D01*
X145630941Y-116497598D01*
X145710130Y-116306420D01*
X145750500Y-116103465D01*
X145750500Y-115896535D01*
X145710130Y-115693580D01*
X145630941Y-115502402D01*
X145515977Y-115330345D01*
X145515975Y-115330342D01*
X145369657Y-115184024D01*
X145283626Y-115126541D01*
X145197598Y-115069059D01*
X145189952Y-115065892D01*
X145006420Y-114989870D01*
X145006412Y-114989868D01*
X144803469Y-114949500D01*
X144803465Y-114949500D01*
X144596535Y-114949500D01*
X144596530Y-114949500D01*
X144393587Y-114989868D01*
X144393579Y-114989870D01*
X144202403Y-115069058D01*
X144030342Y-115184024D01*
X143884024Y-115330342D01*
X143769058Y-115502403D01*
X143689870Y-115693579D01*
X143689868Y-115693587D01*
X143649500Y-115896530D01*
X143649500Y-116103469D01*
X143689868Y-116306412D01*
X143689871Y-116306424D01*
X143739803Y-116426971D01*
X143747272Y-116496440D01*
X143715997Y-116558919D01*
X143712923Y-116562104D01*
X140404848Y-119870181D01*
X140343525Y-119903666D01*
X140317167Y-119906500D01*
X124819301Y-119906500D01*
X124752262Y-119886815D01*
X124706507Y-119834011D01*
X124695330Y-119785195D01*
X124685999Y-119355975D01*
X124672231Y-118722682D01*
X124690454Y-118655234D01*
X124742251Y-118608342D01*
X124764094Y-118600220D01*
X124795103Y-118591912D01*
X124909231Y-118526020D01*
X125002417Y-118432834D01*
X125068309Y-118318706D01*
X125102417Y-118191412D01*
X125102417Y-118059628D01*
X125077326Y-117965986D01*
X125075208Y-117958081D01*
X125075206Y-117958076D01*
X125068784Y-117934108D01*
X128249500Y-117934108D01*
X128249500Y-118065891D01*
X128283608Y-118193187D01*
X128316554Y-118250250D01*
X128349500Y-118307314D01*
X128442686Y-118400500D01*
X128556814Y-118466392D01*
X128684108Y-118500500D01*
X128684110Y-118500500D01*
X128815890Y-118500500D01*
X128815892Y-118500500D01*
X128943186Y-118466392D01*
X129057314Y-118400500D01*
X129150500Y-118307314D01*
X129216392Y-118193186D01*
X129250500Y-118065892D01*
X129250500Y-117975832D01*
X129259144Y-117946391D01*
X129265668Y-117916405D01*
X129269422Y-117911389D01*
X129270185Y-117908793D01*
X129286819Y-117888151D01*
X129287819Y-117887151D01*
X129349142Y-117853666D01*
X129418834Y-117858650D01*
X129474767Y-117900522D01*
X129499184Y-117965986D01*
X129499500Y-117974832D01*
X129499500Y-118065891D01*
X129533608Y-118193187D01*
X129566554Y-118250250D01*
X129599500Y-118307314D01*
X129692686Y-118400500D01*
X129806814Y-118466392D01*
X129934108Y-118500500D01*
X129934110Y-118500500D01*
X130065890Y-118500500D01*
X130065892Y-118500500D01*
X130193186Y-118466392D01*
X130307314Y-118400500D01*
X130400500Y-118307314D01*
X130466392Y-118193186D01*
X130500500Y-118065892D01*
X130500500Y-117975832D01*
X130520185Y-117908793D01*
X130536819Y-117888151D01*
X130790460Y-117634511D01*
X130890863Y-117534108D01*
X138499500Y-117534108D01*
X138499500Y-117665892D01*
X138511982Y-117712477D01*
X138533608Y-117793187D01*
X138558230Y-117835833D01*
X138599500Y-117907314D01*
X138692686Y-118000500D01*
X138765264Y-118042403D01*
X138805944Y-118065890D01*
X138806814Y-118066392D01*
X138934108Y-118100500D01*
X138934110Y-118100500D01*
X139065890Y-118100500D01*
X139065892Y-118100500D01*
X139193186Y-118066392D01*
X139307314Y-118000500D01*
X139400500Y-117907314D01*
X139466392Y-117793186D01*
X139500500Y-117665892D01*
X139500500Y-117575832D01*
X139520185Y-117508793D01*
X139536819Y-117488151D01*
X140014841Y-117010129D01*
X140522418Y-116502551D01*
X140578007Y-116470458D01*
X140593186Y-116466392D01*
X140707314Y-116400500D01*
X140800500Y-116307314D01*
X140866392Y-116193186D01*
X140900500Y-116065892D01*
X140900500Y-115934108D01*
X140866392Y-115806814D01*
X140800500Y-115692686D01*
X140707314Y-115599500D01*
X140650250Y-115566554D01*
X140593187Y-115533608D01*
X140529539Y-115516554D01*
X140465892Y-115499500D01*
X140334108Y-115499500D01*
X140206812Y-115533608D01*
X140092686Y-115599500D01*
X140092683Y-115599502D01*
X139999502Y-115692683D01*
X139999500Y-115692686D01*
X139933608Y-115806812D01*
X139899500Y-115934108D01*
X139899500Y-116065891D01*
X139925272Y-116162075D01*
X139923609Y-116231925D01*
X139893178Y-116281849D01*
X139111847Y-117063181D01*
X139050524Y-117096666D01*
X139024166Y-117099500D01*
X138934108Y-117099500D01*
X138806812Y-117133608D01*
X138692686Y-117199500D01*
X138692683Y-117199502D01*
X138599502Y-117292683D01*
X138599500Y-117292686D01*
X138533608Y-117406812D01*
X138506283Y-117508793D01*
X138499500Y-117534108D01*
X130890863Y-117534108D01*
X134628152Y-113796819D01*
X134689475Y-113763334D01*
X134715833Y-113760500D01*
X143604564Y-113760500D01*
X143671603Y-113780185D01*
X143717358Y-113832989D01*
X143719121Y-113837039D01*
X143769059Y-113957598D01*
X143794830Y-113996167D01*
X143884024Y-114129657D01*
X144030342Y-114275975D01*
X144030345Y-114275977D01*
X144202402Y-114390941D01*
X144393580Y-114470130D01*
X144541234Y-114499500D01*
X144596530Y-114510499D01*
X144596534Y-114510500D01*
X144596535Y-114510500D01*
X144803466Y-114510500D01*
X144803467Y-114510499D01*
X145006420Y-114470130D01*
X145197598Y-114390941D01*
X145369655Y-114275977D01*
X145515977Y-114129655D01*
X145630941Y-113957598D01*
X145710130Y-113766420D01*
X145750500Y-113563465D01*
X145750500Y-113356535D01*
X145710130Y-113153580D01*
X145630941Y-112962402D01*
X145515977Y-112790345D01*
X145515975Y-112790342D01*
X145369657Y-112644024D01*
X145283626Y-112586541D01*
X145197598Y-112529059D01*
X145006420Y-112449870D01*
X145006412Y-112449868D01*
X144803469Y-112409500D01*
X144803465Y-112409500D01*
X144596535Y-112409500D01*
X144596530Y-112409500D01*
X144393587Y-112449868D01*
X144393579Y-112449870D01*
X144202403Y-112529058D01*
X144030342Y-112644024D01*
X143884024Y-112790342D01*
X143769058Y-112962403D01*
X143719125Y-113082953D01*
X143675284Y-113137356D01*
X143608990Y-113159421D01*
X143604564Y-113159500D01*
X134500438Y-113159500D01*
X134449486Y-113173152D01*
X134424010Y-113179979D01*
X134361818Y-113215886D01*
X134361817Y-113215885D01*
X134355492Y-113219537D01*
X134355487Y-113219541D01*
X130365489Y-117209540D01*
X130111847Y-117463181D01*
X130084919Y-117477884D01*
X130059101Y-117494477D01*
X130052900Y-117495368D01*
X130050524Y-117496666D01*
X130024166Y-117499500D01*
X129974832Y-117499500D01*
X129907793Y-117479815D01*
X129862038Y-117427011D01*
X129852094Y-117357853D01*
X129881119Y-117294297D01*
X129887151Y-117287819D01*
X136358441Y-110816530D01*
X143649500Y-110816530D01*
X143649500Y-111023469D01*
X143689868Y-111226412D01*
X143689870Y-111226420D01*
X143769058Y-111417596D01*
X143884024Y-111589657D01*
X144030342Y-111735975D01*
X144030345Y-111735977D01*
X144202402Y-111850941D01*
X144393580Y-111930130D01*
X144596530Y-111970499D01*
X144596534Y-111970500D01*
X144596535Y-111970500D01*
X144803466Y-111970500D01*
X144803467Y-111970499D01*
X145006420Y-111930130D01*
X145197598Y-111850941D01*
X145369655Y-111735977D01*
X145515977Y-111589655D01*
X145630941Y-111417598D01*
X145710130Y-111226420D01*
X145750500Y-111023465D01*
X145750500Y-110816535D01*
X145710130Y-110613580D01*
X145630941Y-110422402D01*
X145515977Y-110250345D01*
X145515975Y-110250342D01*
X145369657Y-110104024D01*
X145283626Y-110046541D01*
X145197598Y-109989059D01*
X145006420Y-109909870D01*
X145006412Y-109909868D01*
X144803469Y-109869500D01*
X144803465Y-109869500D01*
X144596535Y-109869500D01*
X144596530Y-109869500D01*
X144393587Y-109909868D01*
X144393579Y-109909870D01*
X144202403Y-109989058D01*
X144030342Y-110104024D01*
X143884024Y-110250342D01*
X143769058Y-110422403D01*
X143689870Y-110613579D01*
X143689868Y-110613587D01*
X143649500Y-110816530D01*
X136358441Y-110816530D01*
X136452209Y-110722762D01*
X138458152Y-108716819D01*
X138519475Y-108683334D01*
X138545833Y-108680500D01*
X143604564Y-108680500D01*
X143671603Y-108700185D01*
X143717358Y-108752989D01*
X143719125Y-108757047D01*
X143769058Y-108877596D01*
X143884024Y-109049657D01*
X144030342Y-109195975D01*
X144030345Y-109195977D01*
X144202402Y-109310941D01*
X144393580Y-109390130D01*
X144596530Y-109430499D01*
X144596534Y-109430500D01*
X144596535Y-109430500D01*
X144803466Y-109430500D01*
X144803467Y-109430499D01*
X145006420Y-109390130D01*
X145197598Y-109310941D01*
X145369655Y-109195977D01*
X145515977Y-109049655D01*
X145630941Y-108877598D01*
X145710130Y-108686420D01*
X145750500Y-108483465D01*
X145750500Y-108276535D01*
X145710130Y-108073580D01*
X145630941Y-107882402D01*
X145515977Y-107710345D01*
X145515975Y-107710342D01*
X145369657Y-107564024D01*
X145283626Y-107506541D01*
X145197598Y-107449059D01*
X145006420Y-107369870D01*
X145006412Y-107369868D01*
X144803469Y-107329500D01*
X144803465Y-107329500D01*
X144596535Y-107329500D01*
X144596530Y-107329500D01*
X144393587Y-107369868D01*
X144393579Y-107369870D01*
X144202403Y-107449058D01*
X144030342Y-107564024D01*
X143884024Y-107710342D01*
X143769058Y-107882403D01*
X143719125Y-108002953D01*
X143675284Y-108057356D01*
X143608990Y-108079421D01*
X143604564Y-108079500D01*
X138330438Y-108079500D01*
X138279486Y-108093152D01*
X138254010Y-108099979D01*
X138191818Y-108135886D01*
X138191817Y-108135885D01*
X138185492Y-108139537D01*
X138185487Y-108139541D01*
X128861847Y-117463181D01*
X128800524Y-117496666D01*
X128774166Y-117499500D01*
X128684108Y-117499500D01*
X128556812Y-117533608D01*
X128442686Y-117599500D01*
X128442683Y-117599502D01*
X128349502Y-117692683D01*
X128349500Y-117692686D01*
X128283608Y-117806812D01*
X128249500Y-117934108D01*
X125068784Y-117934108D01*
X125068309Y-117932334D01*
X125002417Y-117818206D01*
X124936818Y-117752607D01*
X124903334Y-117691283D01*
X124900500Y-117664926D01*
X124900500Y-116058676D01*
X124920185Y-115991637D01*
X124936819Y-115970995D01*
X124955981Y-115951833D01*
X125000500Y-115907314D01*
X125066392Y-115793186D01*
X125100500Y-115665892D01*
X125100500Y-115534108D01*
X125079730Y-115456592D01*
X125081393Y-115386743D01*
X125120556Y-115328881D01*
X125184784Y-115301377D01*
X125199505Y-115300500D01*
X126941324Y-115300500D01*
X127008363Y-115320185D01*
X127029005Y-115336819D01*
X127092686Y-115400500D01*
X127206814Y-115466392D01*
X127334108Y-115500500D01*
X127334110Y-115500500D01*
X127465890Y-115500500D01*
X127465892Y-115500500D01*
X127593186Y-115466392D01*
X127707314Y-115400500D01*
X127800500Y-115307314D01*
X127866392Y-115193186D01*
X127900500Y-115065892D01*
X127900500Y-114934108D01*
X127866392Y-114806814D01*
X127800500Y-114692686D01*
X127707314Y-114599500D01*
X127646599Y-114564446D01*
X127593187Y-114533608D01*
X127506941Y-114510499D01*
X127465892Y-114499500D01*
X127334108Y-114499500D01*
X127206812Y-114533608D01*
X127092686Y-114599500D01*
X127092683Y-114599502D01*
X127029005Y-114663181D01*
X126967682Y-114696666D01*
X126941324Y-114699500D01*
X124185676Y-114699500D01*
X124156926Y-114691058D01*
X124127564Y-114685040D01*
X124121721Y-114680720D01*
X124118637Y-114679815D01*
X124099057Y-114664231D01*
X124098552Y-114663738D01*
X124034314Y-114599500D01*
X124030480Y-114597286D01*
X124021716Y-114588731D01*
X124008073Y-114564446D01*
X123991645Y-114541947D01*
X123991195Y-114534403D01*
X123987495Y-114527816D01*
X123989147Y-114500011D01*
X123987491Y-114472201D01*
X123991191Y-114465611D01*
X123991640Y-114458069D01*
X124008063Y-114435569D01*
X124021704Y-114411281D01*
X124032831Y-114401638D01*
X124032836Y-114401633D01*
X124032847Y-114401625D01*
X124034306Y-114400504D01*
X124034314Y-114400500D01*
X124097995Y-114336819D01*
X124159318Y-114303334D01*
X124185676Y-114300500D01*
X125939560Y-114300500D01*
X125939562Y-114300500D01*
X126015989Y-114280021D01*
X126084511Y-114240460D01*
X126140460Y-114184511D01*
X133140460Y-107184511D01*
X133140748Y-107184012D01*
X133180021Y-107115989D01*
X133200500Y-107039562D01*
X133200500Y-105736530D01*
X143649500Y-105736530D01*
X143649500Y-105943469D01*
X143689868Y-106146412D01*
X143689870Y-106146420D01*
X143769058Y-106337596D01*
X143884024Y-106509657D01*
X144030342Y-106655975D01*
X144030345Y-106655977D01*
X144202402Y-106770941D01*
X144393580Y-106850130D01*
X144596530Y-106890499D01*
X144596534Y-106890500D01*
X144596535Y-106890500D01*
X144803466Y-106890500D01*
X144803467Y-106890499D01*
X145006420Y-106850130D01*
X145197598Y-106770941D01*
X145369655Y-106655977D01*
X145515977Y-106509655D01*
X145630941Y-106337598D01*
X145710130Y-106146420D01*
X145750500Y-105943465D01*
X145750500Y-105736535D01*
X145710130Y-105533580D01*
X145630941Y-105342402D01*
X145515977Y-105170345D01*
X145515975Y-105170342D01*
X145369657Y-105024024D01*
X145264188Y-104953553D01*
X145197598Y-104909059D01*
X145136970Y-104883946D01*
X145006420Y-104829870D01*
X145006412Y-104829868D01*
X144803469Y-104789500D01*
X144803465Y-104789500D01*
X144596535Y-104789500D01*
X144596530Y-104789500D01*
X144393587Y-104829868D01*
X144393579Y-104829870D01*
X144202403Y-104909058D01*
X144030342Y-105024024D01*
X143884024Y-105170342D01*
X143769058Y-105342403D01*
X143689870Y-105533579D01*
X143689868Y-105533587D01*
X143649500Y-105736530D01*
X133200500Y-105736530D01*
X133200500Y-103196530D01*
X143649500Y-103196530D01*
X143649500Y-103403469D01*
X143689868Y-103606412D01*
X143689870Y-103606420D01*
X143769058Y-103797596D01*
X143884024Y-103969657D01*
X144030342Y-104115975D01*
X144030345Y-104115977D01*
X144202402Y-104230941D01*
X144393580Y-104310130D01*
X144596530Y-104350499D01*
X144596534Y-104350500D01*
X144596535Y-104350500D01*
X144803466Y-104350500D01*
X144803467Y-104350499D01*
X145006420Y-104310130D01*
X145197598Y-104230941D01*
X145369655Y-104115977D01*
X145515977Y-103969655D01*
X145630941Y-103797598D01*
X145710130Y-103606420D01*
X145750500Y-103403465D01*
X145750500Y-103196535D01*
X145710130Y-102993580D01*
X145630941Y-102802402D01*
X145515977Y-102630345D01*
X145515975Y-102630342D01*
X145369657Y-102484024D01*
X145283626Y-102426541D01*
X145197598Y-102369059D01*
X145006420Y-102289870D01*
X145006412Y-102289868D01*
X144803469Y-102249500D01*
X144803465Y-102249500D01*
X144596535Y-102249500D01*
X144596530Y-102249500D01*
X144393587Y-102289868D01*
X144393579Y-102289870D01*
X144202403Y-102369058D01*
X144030342Y-102484024D01*
X143884024Y-102630342D01*
X143769058Y-102802403D01*
X143689870Y-102993579D01*
X143689868Y-102993587D01*
X143649500Y-103196530D01*
X133200500Y-103196530D01*
X133200500Y-102258676D01*
X133220185Y-102191637D01*
X133236819Y-102170995D01*
X133266339Y-102141475D01*
X133300500Y-102107314D01*
X133366392Y-101993186D01*
X133400500Y-101865892D01*
X133400500Y-101734108D01*
X133366392Y-101606814D01*
X133300500Y-101492686D01*
X133207314Y-101399500D01*
X133142719Y-101362206D01*
X133093187Y-101333608D01*
X133029539Y-101316554D01*
X132965892Y-101299500D01*
X132834108Y-101299500D01*
X132706812Y-101333608D01*
X132592686Y-101399500D01*
X132592683Y-101399502D01*
X132499502Y-101492683D01*
X132499500Y-101492686D01*
X132433608Y-101606812D01*
X132399500Y-101734108D01*
X132399500Y-101865891D01*
X132433608Y-101993187D01*
X132466554Y-102050250D01*
X132499500Y-102107314D01*
X132499502Y-102107316D01*
X132563181Y-102170995D01*
X132596666Y-102232318D01*
X132599500Y-102258676D01*
X132599500Y-106824167D01*
X132579815Y-106891206D01*
X132563181Y-106911848D01*
X125811848Y-113663181D01*
X125750525Y-113696666D01*
X125724167Y-113699500D01*
X124185676Y-113699500D01*
X124118637Y-113679815D01*
X124097995Y-113663181D01*
X124034316Y-113599502D01*
X124034314Y-113599500D01*
X123971907Y-113563469D01*
X123920187Y-113533608D01*
X123804196Y-113502529D01*
X123792892Y-113499500D01*
X123792891Y-113499500D01*
X123791697Y-113499180D01*
X123732036Y-113462815D01*
X123701507Y-113399968D01*
X123701046Y-113374019D01*
X123700500Y-113374019D01*
X123700500Y-113234110D01*
X123700500Y-113234108D01*
X123666392Y-113106814D01*
X123600500Y-112992686D01*
X123507314Y-112899500D01*
X123450250Y-112866554D01*
X123393187Y-112833608D01*
X123329539Y-112816554D01*
X123265892Y-112799500D01*
X123134108Y-112799500D01*
X123006812Y-112833608D01*
X122892686Y-112899500D01*
X122892683Y-112899502D01*
X122799502Y-112992683D01*
X122799500Y-112992686D01*
X122733608Y-113106812D01*
X122699500Y-113234108D01*
X122699500Y-113365891D01*
X122733608Y-113493187D01*
X122737253Y-113499500D01*
X122799500Y-113607314D01*
X122799502Y-113607316D01*
X122863181Y-113670995D01*
X122896666Y-113732318D01*
X122899500Y-113758676D01*
X122899500Y-117668323D01*
X122893141Y-117689977D01*
X122891372Y-117712477D01*
X122882522Y-117726140D01*
X122879815Y-117735362D01*
X122874239Y-117743334D01*
X122869139Y-117750046D01*
X122799500Y-117819686D01*
X122746509Y-117911467D01*
X122741769Y-117917708D01*
X122719695Y-117933989D01*
X122699848Y-117952913D01*
X122691985Y-117954428D01*
X122685541Y-117959182D01*
X122658169Y-117960945D01*
X122631241Y-117966135D01*
X122623807Y-117963159D01*
X122615815Y-117963674D01*
X122591833Y-117950357D01*
X122566377Y-117940166D01*
X122555349Y-117930378D01*
X118163819Y-113538848D01*
X118130334Y-113477525D01*
X118127500Y-113451167D01*
X118127500Y-106590845D01*
X125962706Y-106590845D01*
X126091652Y-106644257D01*
X126091656Y-106644258D01*
X126246202Y-106674999D01*
X126246206Y-106675000D01*
X126403794Y-106675000D01*
X126403797Y-106674999D01*
X126558343Y-106644258D01*
X126558347Y-106644257D01*
X126687293Y-106590845D01*
X127237706Y-106590845D01*
X127366652Y-106644257D01*
X127366656Y-106644258D01*
X127521202Y-106674999D01*
X127521206Y-106675000D01*
X127678794Y-106675000D01*
X127678797Y-106674999D01*
X127833343Y-106644258D01*
X127833347Y-106644257D01*
X127962293Y-106590845D01*
X128512706Y-106590845D01*
X128641652Y-106644257D01*
X128641656Y-106644258D01*
X128796202Y-106674999D01*
X128796206Y-106675000D01*
X128953794Y-106675000D01*
X128953797Y-106674999D01*
X129108343Y-106644258D01*
X129108347Y-106644257D01*
X129237293Y-106590845D01*
X128875001Y-106228553D01*
X128875000Y-106228553D01*
X128512706Y-106590845D01*
X127962293Y-106590845D01*
X127600001Y-106228553D01*
X127600000Y-106228553D01*
X127237706Y-106590845D01*
X126687293Y-106590845D01*
X126325001Y-106228553D01*
X126325000Y-106228553D01*
X125962706Y-106590845D01*
X118127500Y-106590845D01*
X118127500Y-105796202D01*
X125525000Y-105796202D01*
X125525000Y-105953797D01*
X125555741Y-106108343D01*
X125555743Y-106108351D01*
X125609153Y-106237293D01*
X125971446Y-105875001D01*
X125971446Y-105874999D01*
X125936637Y-105840190D01*
X126150000Y-105840190D01*
X126150000Y-105909810D01*
X126176643Y-105974129D01*
X126225871Y-106023357D01*
X126290190Y-106050000D01*
X126359810Y-106050000D01*
X126424129Y-106023357D01*
X126473357Y-105974129D01*
X126500000Y-105909810D01*
X126500000Y-105875000D01*
X126678553Y-105875000D01*
X126962500Y-106158946D01*
X126962501Y-106158946D01*
X127246446Y-105875001D01*
X127246446Y-105874999D01*
X127211637Y-105840190D01*
X127425000Y-105840190D01*
X127425000Y-105909810D01*
X127451643Y-105974129D01*
X127500871Y-106023357D01*
X127565190Y-106050000D01*
X127634810Y-106050000D01*
X127699129Y-106023357D01*
X127748357Y-105974129D01*
X127775000Y-105909810D01*
X127775000Y-105875000D01*
X127953553Y-105875000D01*
X128237500Y-106158946D01*
X128237501Y-106158946D01*
X128521446Y-105875001D01*
X128521446Y-105874999D01*
X128486637Y-105840190D01*
X128700000Y-105840190D01*
X128700000Y-105909810D01*
X128726643Y-105974129D01*
X128775871Y-106023357D01*
X128840190Y-106050000D01*
X128909810Y-106050000D01*
X128974129Y-106023357D01*
X129023357Y-105974129D01*
X129050000Y-105909810D01*
X129050000Y-105874999D01*
X129228553Y-105874999D01*
X129228553Y-105875001D01*
X129590845Y-106237293D01*
X129644257Y-106108347D01*
X129644258Y-106108343D01*
X129674999Y-105953797D01*
X129675000Y-105953794D01*
X129675000Y-105796206D01*
X129674999Y-105796202D01*
X129644258Y-105641656D01*
X129644257Y-105641652D01*
X129590845Y-105512706D01*
X129228553Y-105874999D01*
X129050000Y-105874999D01*
X129050000Y-105840190D01*
X129023357Y-105775871D01*
X128974129Y-105726643D01*
X128909810Y-105700000D01*
X128840190Y-105700000D01*
X128775871Y-105726643D01*
X128726643Y-105775871D01*
X128700000Y-105840190D01*
X128486637Y-105840190D01*
X128237501Y-105591053D01*
X128237500Y-105591053D01*
X127953553Y-105875000D01*
X127775000Y-105875000D01*
X127775000Y-105840190D01*
X127748357Y-105775871D01*
X127699129Y-105726643D01*
X127634810Y-105700000D01*
X127565190Y-105700000D01*
X127500871Y-105726643D01*
X127451643Y-105775871D01*
X127425000Y-105840190D01*
X127211637Y-105840190D01*
X126962501Y-105591053D01*
X126962500Y-105591053D01*
X126678553Y-105875000D01*
X126500000Y-105875000D01*
X126500000Y-105840190D01*
X126473357Y-105775871D01*
X126424129Y-105726643D01*
X126359810Y-105700000D01*
X126290190Y-105700000D01*
X126225871Y-105726643D01*
X126176643Y-105775871D01*
X126150000Y-105840190D01*
X125936637Y-105840190D01*
X125609153Y-105512705D01*
X125555743Y-105641648D01*
X125555741Y-105641656D01*
X125525000Y-105796202D01*
X118127500Y-105796202D01*
X118127500Y-105237500D01*
X126041053Y-105237500D01*
X126325000Y-105521446D01*
X126325001Y-105521446D01*
X126608946Y-105237501D01*
X126608946Y-105237500D01*
X127316052Y-105237500D01*
X127600000Y-105521446D01*
X127600001Y-105521446D01*
X127883946Y-105237501D01*
X127883946Y-105237500D01*
X128591053Y-105237500D01*
X128875000Y-105521446D01*
X128875001Y-105521446D01*
X129158946Y-105237501D01*
X129158946Y-105237499D01*
X128875001Y-104953553D01*
X128875000Y-104953553D01*
X128591053Y-105237500D01*
X127883946Y-105237500D01*
X127883946Y-105237499D01*
X127600001Y-104953553D01*
X127600000Y-104953553D01*
X127316052Y-105237500D01*
X126608946Y-105237500D01*
X126608946Y-105237499D01*
X126325001Y-104953553D01*
X126325000Y-104953553D01*
X126041053Y-105237500D01*
X118127500Y-105237500D01*
X118127500Y-104521202D01*
X125525000Y-104521202D01*
X125525000Y-104678797D01*
X125555741Y-104833343D01*
X125555743Y-104833351D01*
X125609153Y-104962293D01*
X125971446Y-104600001D01*
X125971446Y-104599999D01*
X125936637Y-104565190D01*
X126150000Y-104565190D01*
X126150000Y-104634810D01*
X126176643Y-104699129D01*
X126225871Y-104748357D01*
X126290190Y-104775000D01*
X126359810Y-104775000D01*
X126424129Y-104748357D01*
X126473357Y-104699129D01*
X126500000Y-104634810D01*
X126500000Y-104600000D01*
X126678553Y-104600000D01*
X126962500Y-104883946D01*
X126962501Y-104883946D01*
X127246446Y-104600001D01*
X127246446Y-104599999D01*
X127211637Y-104565190D01*
X127425000Y-104565190D01*
X127425000Y-104634810D01*
X127451643Y-104699129D01*
X127500871Y-104748357D01*
X127565190Y-104775000D01*
X127634810Y-104775000D01*
X127699129Y-104748357D01*
X127748357Y-104699129D01*
X127775000Y-104634810D01*
X127775000Y-104600000D01*
X127953553Y-104600000D01*
X128237500Y-104883946D01*
X128237501Y-104883946D01*
X128521446Y-104600001D01*
X128521446Y-104599999D01*
X128486637Y-104565190D01*
X128700000Y-104565190D01*
X128700000Y-104634810D01*
X128726643Y-104699129D01*
X128775871Y-104748357D01*
X128840190Y-104775000D01*
X128909810Y-104775000D01*
X128974129Y-104748357D01*
X129023357Y-104699129D01*
X129050000Y-104634810D01*
X129050000Y-104599999D01*
X129228553Y-104599999D01*
X129228553Y-104600001D01*
X129590845Y-104962293D01*
X129644257Y-104833347D01*
X129644258Y-104833343D01*
X129674999Y-104678797D01*
X129675000Y-104678794D01*
X129675000Y-104521206D01*
X129674999Y-104521202D01*
X129644258Y-104366656D01*
X129644257Y-104366652D01*
X129590845Y-104237706D01*
X129228553Y-104599999D01*
X129050000Y-104599999D01*
X129050000Y-104565190D01*
X129023357Y-104500871D01*
X128974129Y-104451643D01*
X128909810Y-104425000D01*
X128840190Y-104425000D01*
X128775871Y-104451643D01*
X128726643Y-104500871D01*
X128700000Y-104565190D01*
X128486637Y-104565190D01*
X128237501Y-104316053D01*
X128237500Y-104316053D01*
X127953553Y-104600000D01*
X127775000Y-104600000D01*
X127775000Y-104565190D01*
X127748357Y-104500871D01*
X127699129Y-104451643D01*
X127634810Y-104425000D01*
X127565190Y-104425000D01*
X127500871Y-104451643D01*
X127451643Y-104500871D01*
X127425000Y-104565190D01*
X127211637Y-104565190D01*
X126962501Y-104316053D01*
X126962500Y-104316053D01*
X126678553Y-104600000D01*
X126500000Y-104600000D01*
X126500000Y-104565190D01*
X126473357Y-104500871D01*
X126424129Y-104451643D01*
X126359810Y-104425000D01*
X126290190Y-104425000D01*
X126225871Y-104451643D01*
X126176643Y-104500871D01*
X126150000Y-104565190D01*
X125936637Y-104565190D01*
X125609153Y-104237705D01*
X125555743Y-104366648D01*
X125555741Y-104366656D01*
X125525000Y-104521202D01*
X118127500Y-104521202D01*
X118127500Y-103962500D01*
X126041053Y-103962500D01*
X126325000Y-104246446D01*
X126325001Y-104246446D01*
X126608946Y-103962501D01*
X126608946Y-103962500D01*
X127316052Y-103962500D01*
X127600000Y-104246446D01*
X127600001Y-104246446D01*
X127883946Y-103962501D01*
X127883946Y-103962500D01*
X128591053Y-103962500D01*
X128875000Y-104246446D01*
X128875001Y-104246446D01*
X129158946Y-103962501D01*
X129158946Y-103962499D01*
X128875001Y-103678553D01*
X128875000Y-103678553D01*
X128591053Y-103962500D01*
X127883946Y-103962500D01*
X127883946Y-103962499D01*
X127600001Y-103678553D01*
X127600000Y-103678553D01*
X127316052Y-103962500D01*
X126608946Y-103962500D01*
X126608946Y-103962499D01*
X126325001Y-103678553D01*
X126325000Y-103678553D01*
X126041053Y-103962500D01*
X118127500Y-103962500D01*
X118127500Y-103246202D01*
X125525000Y-103246202D01*
X125525000Y-103403797D01*
X125555741Y-103558343D01*
X125555743Y-103558351D01*
X125609153Y-103687293D01*
X125971446Y-103325001D01*
X125971446Y-103324999D01*
X125936637Y-103290190D01*
X126150000Y-103290190D01*
X126150000Y-103359810D01*
X126176643Y-103424129D01*
X126225871Y-103473357D01*
X126290190Y-103500000D01*
X126359810Y-103500000D01*
X126424129Y-103473357D01*
X126473357Y-103424129D01*
X126500000Y-103359810D01*
X126500000Y-103325000D01*
X126678553Y-103325000D01*
X126962500Y-103608946D01*
X126962501Y-103608946D01*
X127246446Y-103325001D01*
X127246446Y-103324999D01*
X127211637Y-103290190D01*
X127425000Y-103290190D01*
X127425000Y-103359810D01*
X127451643Y-103424129D01*
X127500871Y-103473357D01*
X127565190Y-103500000D01*
X127634810Y-103500000D01*
X127699129Y-103473357D01*
X127748357Y-103424129D01*
X127775000Y-103359810D01*
X127775000Y-103325000D01*
X127953553Y-103325000D01*
X128237500Y-103608946D01*
X128237501Y-103608946D01*
X128521446Y-103325001D01*
X128521446Y-103324999D01*
X128486637Y-103290190D01*
X128700000Y-103290190D01*
X128700000Y-103359810D01*
X128726643Y-103424129D01*
X128775871Y-103473357D01*
X128840190Y-103500000D01*
X128909810Y-103500000D01*
X128974129Y-103473357D01*
X129023357Y-103424129D01*
X129050000Y-103359810D01*
X129050000Y-103324999D01*
X129228553Y-103324999D01*
X129228553Y-103325001D01*
X129590845Y-103687293D01*
X129644257Y-103558347D01*
X129644258Y-103558343D01*
X129674999Y-103403797D01*
X129675000Y-103403794D01*
X129675000Y-103246206D01*
X129674999Y-103246202D01*
X129644258Y-103091656D01*
X129644257Y-103091652D01*
X129590845Y-102962706D01*
X129228553Y-103324999D01*
X129050000Y-103324999D01*
X129050000Y-103290190D01*
X129023357Y-103225871D01*
X128974129Y-103176643D01*
X128909810Y-103150000D01*
X128840190Y-103150000D01*
X128775871Y-103176643D01*
X128726643Y-103225871D01*
X128700000Y-103290190D01*
X128486637Y-103290190D01*
X128237501Y-103041053D01*
X128237500Y-103041053D01*
X127953553Y-103325000D01*
X127775000Y-103325000D01*
X127775000Y-103290190D01*
X127748357Y-103225871D01*
X127699129Y-103176643D01*
X127634810Y-103150000D01*
X127565190Y-103150000D01*
X127500871Y-103176643D01*
X127451643Y-103225871D01*
X127425000Y-103290190D01*
X127211637Y-103290190D01*
X126962501Y-103041053D01*
X126962500Y-103041053D01*
X126678553Y-103325000D01*
X126500000Y-103325000D01*
X126500000Y-103290190D01*
X126473357Y-103225871D01*
X126424129Y-103176643D01*
X126359810Y-103150000D01*
X126290190Y-103150000D01*
X126225871Y-103176643D01*
X126176643Y-103225871D01*
X126150000Y-103290190D01*
X125936637Y-103290190D01*
X125609153Y-102962705D01*
X125555743Y-103091648D01*
X125555741Y-103091656D01*
X125525000Y-103246202D01*
X118127500Y-103246202D01*
X118127500Y-102609153D01*
X125962705Y-102609153D01*
X126325000Y-102971446D01*
X126325001Y-102971446D01*
X126687293Y-102609153D01*
X127237705Y-102609153D01*
X127600000Y-102971446D01*
X127600001Y-102971446D01*
X127962293Y-102609153D01*
X128512705Y-102609153D01*
X128875000Y-102971446D01*
X128875001Y-102971446D01*
X129237293Y-102609153D01*
X129108351Y-102555743D01*
X129108343Y-102555741D01*
X128953797Y-102525000D01*
X128796202Y-102525000D01*
X128641656Y-102555741D01*
X128641648Y-102555743D01*
X128512705Y-102609153D01*
X127962293Y-102609153D01*
X127833351Y-102555743D01*
X127833343Y-102555741D01*
X127678797Y-102525000D01*
X127521202Y-102525000D01*
X127366656Y-102555741D01*
X127366648Y-102555743D01*
X127237705Y-102609153D01*
X126687293Y-102609153D01*
X126558351Y-102555743D01*
X126558343Y-102555741D01*
X126403797Y-102525000D01*
X126246202Y-102525000D01*
X126091656Y-102555741D01*
X126091648Y-102555743D01*
X125962705Y-102609153D01*
X118127500Y-102609153D01*
X118127500Y-100656530D01*
X143649500Y-100656530D01*
X143649500Y-100863469D01*
X143689868Y-101066412D01*
X143689870Y-101066420D01*
X143769058Y-101257596D01*
X143884024Y-101429657D01*
X144030342Y-101575975D01*
X144030345Y-101575977D01*
X144202402Y-101690941D01*
X144393580Y-101770130D01*
X144596530Y-101810499D01*
X144596534Y-101810500D01*
X144596535Y-101810500D01*
X144803466Y-101810500D01*
X144803467Y-101810499D01*
X145006420Y-101770130D01*
X145197598Y-101690941D01*
X145369655Y-101575977D01*
X145515977Y-101429655D01*
X145630941Y-101257598D01*
X145710130Y-101066420D01*
X145750500Y-100863465D01*
X145750500Y-100656535D01*
X145710130Y-100453580D01*
X145630941Y-100262402D01*
X145515977Y-100090345D01*
X145515975Y-100090342D01*
X145369657Y-99944024D01*
X145283626Y-99886541D01*
X145197598Y-99829059D01*
X145006420Y-99749870D01*
X145006412Y-99749868D01*
X144803469Y-99709500D01*
X144803465Y-99709500D01*
X144596535Y-99709500D01*
X144596530Y-99709500D01*
X144393587Y-99749868D01*
X144393579Y-99749870D01*
X144202403Y-99829058D01*
X144030342Y-99944024D01*
X143884024Y-100090342D01*
X143769058Y-100262403D01*
X143689870Y-100453579D01*
X143689868Y-100453587D01*
X143649500Y-100656530D01*
X118127500Y-100656530D01*
X118127500Y-98116530D01*
X143649500Y-98116530D01*
X143649500Y-98323469D01*
X143689868Y-98526412D01*
X143689870Y-98526420D01*
X143769058Y-98717596D01*
X143884024Y-98889657D01*
X144030342Y-99035975D01*
X144030345Y-99035977D01*
X144202402Y-99150941D01*
X144393580Y-99230130D01*
X144596530Y-99270499D01*
X144596534Y-99270500D01*
X144596535Y-99270500D01*
X144803466Y-99270500D01*
X144803467Y-99270499D01*
X145006420Y-99230130D01*
X145197598Y-99150941D01*
X145369655Y-99035977D01*
X145515977Y-98889655D01*
X145630941Y-98717598D01*
X145710130Y-98526420D01*
X145750500Y-98323465D01*
X145750500Y-98116535D01*
X145710130Y-97913580D01*
X145630941Y-97722402D01*
X145515977Y-97550345D01*
X145515975Y-97550342D01*
X145369657Y-97404024D01*
X145283626Y-97346541D01*
X145197598Y-97289059D01*
X145006420Y-97209870D01*
X145006412Y-97209868D01*
X144803469Y-97169500D01*
X144803465Y-97169500D01*
X144596535Y-97169500D01*
X144596530Y-97169500D01*
X144393587Y-97209868D01*
X144393579Y-97209870D01*
X144202403Y-97289058D01*
X144030342Y-97404024D01*
X143884024Y-97550342D01*
X143769058Y-97722403D01*
X143689870Y-97913579D01*
X143689868Y-97913587D01*
X143649500Y-98116530D01*
X118127500Y-98116530D01*
X118127500Y-89687439D01*
X118127500Y-89687438D01*
X118107021Y-89611011D01*
X118077326Y-89559577D01*
X118067464Y-89542495D01*
X118067458Y-89542487D01*
X117604025Y-89079054D01*
X120599498Y-89079054D01*
X120599499Y-89079057D01*
X120640423Y-89231785D01*
X120719481Y-89368716D01*
X120831284Y-89480519D01*
X120968215Y-89559577D01*
X121120943Y-89600501D01*
X121120946Y-89600501D01*
X121279054Y-89600501D01*
X121279057Y-89600501D01*
X121431785Y-89559577D01*
X121568716Y-89480519D01*
X121615127Y-89434108D01*
X122299500Y-89434108D01*
X122299500Y-89565892D01*
X122313771Y-89619153D01*
X122333608Y-89693187D01*
X122343909Y-89711028D01*
X122399500Y-89807314D01*
X122492686Y-89900500D01*
X122591521Y-89957563D01*
X122606810Y-89966390D01*
X122606814Y-89966392D01*
X122734108Y-90000500D01*
X122734110Y-90000500D01*
X122865890Y-90000500D01*
X122865892Y-90000500D01*
X122993186Y-89966392D01*
X123078540Y-89917113D01*
X123140540Y-89900500D01*
X131582745Y-89900500D01*
X131649784Y-89920185D01*
X131670426Y-89936819D01*
X136876005Y-95142398D01*
X136908099Y-95197985D01*
X136933608Y-95293186D01*
X136999500Y-95407314D01*
X137092686Y-95500500D01*
X137206814Y-95566392D01*
X137334108Y-95600500D01*
X137334110Y-95600500D01*
X137465890Y-95600500D01*
X137465892Y-95600500D01*
X137593186Y-95566392D01*
X137707314Y-95500500D01*
X137800500Y-95407314D01*
X137866392Y-95293186D01*
X137900500Y-95165892D01*
X137900500Y-95034108D01*
X137866392Y-94906814D01*
X137800500Y-94792686D01*
X137707314Y-94699500D01*
X137593186Y-94633608D01*
X137497985Y-94608099D01*
X137442398Y-94576005D01*
X134878548Y-92012155D01*
X140500000Y-92012155D01*
X140500000Y-93310000D01*
X141780936Y-93310000D01*
X141769207Y-93338316D01*
X141740000Y-93485147D01*
X141740000Y-93634853D01*
X141769207Y-93781684D01*
X141780936Y-93810000D01*
X140500000Y-93810000D01*
X140500000Y-95107844D01*
X140506401Y-95167372D01*
X140506403Y-95167379D01*
X140556645Y-95302086D01*
X140556649Y-95302093D01*
X140642809Y-95417187D01*
X140642812Y-95417190D01*
X140757906Y-95503350D01*
X140757913Y-95503354D01*
X140892620Y-95553596D01*
X140892627Y-95553598D01*
X140952155Y-95559999D01*
X140952172Y-95560000D01*
X142250000Y-95560000D01*
X142250000Y-94279064D01*
X142278316Y-94290793D01*
X142425147Y-94320000D01*
X142574853Y-94320000D01*
X142721684Y-94290793D01*
X142750000Y-94279064D01*
X142750000Y-95560000D01*
X144047828Y-95560000D01*
X144047844Y-95559999D01*
X144107372Y-95553598D01*
X144107379Y-95553596D01*
X144242086Y-95503354D01*
X144242093Y-95503350D01*
X144357187Y-95417190D01*
X144357190Y-95417187D01*
X144443350Y-95302093D01*
X144443354Y-95302086D01*
X144493596Y-95167379D01*
X144493598Y-95167372D01*
X144499999Y-95107844D01*
X144500000Y-95107827D01*
X144500000Y-93810000D01*
X143219064Y-93810000D01*
X143230793Y-93781684D01*
X143260000Y-93634853D01*
X143260000Y-93485147D01*
X143230793Y-93338316D01*
X143219064Y-93310000D01*
X144500000Y-93310000D01*
X144500000Y-92012172D01*
X144499999Y-92012155D01*
X144493598Y-91952627D01*
X144493596Y-91952620D01*
X144443354Y-91817913D01*
X144443350Y-91817906D01*
X144357190Y-91702812D01*
X144357187Y-91702809D01*
X144242093Y-91616649D01*
X144242086Y-91616645D01*
X144107379Y-91566403D01*
X144107372Y-91566401D01*
X144047844Y-91560000D01*
X142750000Y-91560000D01*
X142750000Y-92840935D01*
X142721684Y-92829207D01*
X142574853Y-92800000D01*
X142425147Y-92800000D01*
X142278316Y-92829207D01*
X142250000Y-92840935D01*
X142250000Y-91560000D01*
X140952155Y-91560000D01*
X140892627Y-91566401D01*
X140892620Y-91566403D01*
X140757913Y-91616645D01*
X140757906Y-91616649D01*
X140642812Y-91702809D01*
X140642809Y-91702812D01*
X140556649Y-91817906D01*
X140556645Y-91817913D01*
X140506403Y-91952620D01*
X140506401Y-91952627D01*
X140500000Y-92012155D01*
X134878548Y-92012155D01*
X132045915Y-89179522D01*
X132045913Y-89179520D01*
X132000250Y-89153156D01*
X131954589Y-89126793D01*
X131903657Y-89113146D01*
X131852727Y-89099500D01*
X131852726Y-89099500D01*
X123140540Y-89099500D01*
X123078540Y-89082887D01*
X122993188Y-89033609D01*
X122993187Y-89033608D01*
X122993186Y-89033608D01*
X122865892Y-88999500D01*
X122734108Y-88999500D01*
X122606812Y-89033608D01*
X122492686Y-89099500D01*
X122492683Y-89099502D01*
X122399502Y-89192683D01*
X122399500Y-89192686D01*
X122333608Y-89306812D01*
X122317021Y-89368718D01*
X122299500Y-89434108D01*
X121615127Y-89434108D01*
X122680686Y-88368549D01*
X140799500Y-88368549D01*
X140799500Y-88591450D01*
X140799501Y-88591466D01*
X140828594Y-88812452D01*
X140828595Y-88812457D01*
X140828596Y-88812463D01*
X140828597Y-88812465D01*
X140886290Y-89027780D01*
X140886293Y-89027790D01*
X140960727Y-89207489D01*
X140971595Y-89233726D01*
X141083052Y-89426774D01*
X141083057Y-89426780D01*
X141083058Y-89426782D01*
X141218751Y-89603622D01*
X141218757Y-89603629D01*
X141376370Y-89761242D01*
X141376377Y-89761248D01*
X141446627Y-89815152D01*
X141553226Y-89896948D01*
X141746274Y-90008405D01*
X141876140Y-90062197D01*
X141952146Y-90093680D01*
X141952219Y-90093710D01*
X142167537Y-90151404D01*
X142388543Y-90180500D01*
X142388550Y-90180500D01*
X142611450Y-90180500D01*
X142611457Y-90180500D01*
X142832463Y-90151404D01*
X143047781Y-90093710D01*
X143253726Y-90008405D01*
X143446774Y-89896948D01*
X143623624Y-89761247D01*
X143781247Y-89603624D01*
X143916948Y-89426774D01*
X144028405Y-89233726D01*
X144113710Y-89027781D01*
X144171404Y-88812463D01*
X144200500Y-88591457D01*
X144200500Y-88368543D01*
X144171404Y-88147537D01*
X144113710Y-87932219D01*
X144028405Y-87726274D01*
X143916948Y-87533226D01*
X143781247Y-87356376D01*
X143781242Y-87356370D01*
X143623629Y-87198757D01*
X143623622Y-87198751D01*
X143446782Y-87063058D01*
X143446780Y-87063057D01*
X143446774Y-87063052D01*
X143253726Y-86951595D01*
X143253722Y-86951593D01*
X143047790Y-86866293D01*
X143047783Y-86866291D01*
X143047781Y-86866290D01*
X142832463Y-86808596D01*
X142832457Y-86808595D01*
X142832452Y-86808594D01*
X142611466Y-86779501D01*
X142611463Y-86779500D01*
X142611457Y-86779500D01*
X142388543Y-86779500D01*
X142388537Y-86779500D01*
X142388533Y-86779501D01*
X142167547Y-86808594D01*
X142167540Y-86808595D01*
X142167537Y-86808596D01*
X141952219Y-86866290D01*
X141952209Y-86866293D01*
X141746277Y-86951593D01*
X141746273Y-86951595D01*
X141553226Y-87063052D01*
X141553217Y-87063058D01*
X141376377Y-87198751D01*
X141376370Y-87198757D01*
X141218757Y-87356370D01*
X141218751Y-87356377D01*
X141083058Y-87533217D01*
X141083052Y-87533226D01*
X140971595Y-87726273D01*
X140971593Y-87726277D01*
X140886293Y-87932209D01*
X140886290Y-87932219D01*
X140828597Y-88147534D01*
X140828594Y-88147547D01*
X140799501Y-88368533D01*
X140799500Y-88368549D01*
X122680686Y-88368549D01*
X127612416Y-83436819D01*
X127673739Y-83403334D01*
X127700097Y-83400500D01*
X129279055Y-83400500D01*
X129279057Y-83400500D01*
X129431784Y-83359577D01*
X129568716Y-83280520D01*
X129680520Y-83168716D01*
X129759577Y-83031784D01*
X129800500Y-82879057D01*
X129800500Y-82720943D01*
X129759577Y-82568216D01*
X129697714Y-82461065D01*
X129680524Y-82431290D01*
X129680518Y-82431282D01*
X129568717Y-82319481D01*
X129568709Y-82319475D01*
X129431790Y-82240426D01*
X129431786Y-82240424D01*
X129431784Y-82240423D01*
X129279057Y-82199500D01*
X127479057Y-82199500D01*
X127320943Y-82199500D01*
X127168215Y-82240423D01*
X127168214Y-82240423D01*
X127168212Y-82240424D01*
X127168209Y-82240425D01*
X127118096Y-82269359D01*
X127118095Y-82269360D01*
X127074689Y-82294420D01*
X127031285Y-82319479D01*
X127031282Y-82319481D01*
X126919478Y-82431286D01*
X120719483Y-88631281D01*
X120719481Y-88631284D01*
X120640423Y-88768214D01*
X120640423Y-88768215D01*
X120599499Y-88920943D01*
X120599499Y-88920945D01*
X120599499Y-89079054D01*
X120599498Y-89079054D01*
X117604025Y-89079054D01*
X116536819Y-88011848D01*
X116503334Y-87950525D01*
X116500500Y-87924167D01*
X116500500Y-87834110D01*
X116500500Y-87834108D01*
X116466392Y-87706814D01*
X116400500Y-87592686D01*
X116307314Y-87499500D01*
X116250250Y-87466554D01*
X116193187Y-87433608D01*
X116129539Y-87416554D01*
X116065892Y-87399500D01*
X115934108Y-87399500D01*
X115806812Y-87433608D01*
X115692686Y-87499500D01*
X115692683Y-87499502D01*
X115599502Y-87592683D01*
X115599500Y-87592686D01*
X115533608Y-87706812D01*
X115528393Y-87726277D01*
X115499500Y-87834108D01*
X113200500Y-87834108D01*
X113200500Y-78560439D01*
X113180020Y-78484009D01*
X113180017Y-78484004D01*
X113140464Y-78415495D01*
X113140458Y-78415487D01*
X111636819Y-76911848D01*
X111603334Y-76850525D01*
X111600500Y-76824167D01*
X111600500Y-76734110D01*
X111600500Y-76734108D01*
X111566392Y-76606814D01*
X111500500Y-76492686D01*
X111407314Y-76399500D01*
X111350250Y-76366554D01*
X111293187Y-76333608D01*
X111229539Y-76316554D01*
X111165892Y-76299500D01*
X111034108Y-76299500D01*
X110906812Y-76333608D01*
X110792686Y-76399500D01*
X110792683Y-76399502D01*
X110699502Y-76492683D01*
X110699500Y-76492686D01*
X110633608Y-76606812D01*
X110624254Y-76641723D01*
X110599500Y-76734108D01*
X106300500Y-76734108D01*
X106300500Y-75011022D01*
X107069500Y-75011022D01*
X107069500Y-75188977D01*
X107097335Y-75364726D01*
X107152325Y-75533965D01*
X107233109Y-75692511D01*
X107337703Y-75836471D01*
X107463529Y-75962297D01*
X107607489Y-76066891D01*
X107628986Y-76077844D01*
X107766034Y-76147674D01*
X107766036Y-76147674D01*
X107766039Y-76147676D01*
X107856752Y-76177150D01*
X107935273Y-76202664D01*
X108111023Y-76230500D01*
X108111028Y-76230500D01*
X108288977Y-76230500D01*
X108464726Y-76202664D01*
X108474464Y-76199500D01*
X108633961Y-76147676D01*
X108792511Y-76066891D01*
X108936471Y-75962297D01*
X109062297Y-75836471D01*
X109166891Y-75692511D01*
X109247676Y-75533961D01*
X109302664Y-75364726D01*
X109315949Y-75280847D01*
X109330500Y-75188977D01*
X109330500Y-75011022D01*
X109302664Y-74835273D01*
X109247674Y-74666034D01*
X109166890Y-74507488D01*
X109062297Y-74363529D01*
X108936471Y-74237703D01*
X108792511Y-74133109D01*
X108771046Y-74122172D01*
X108633965Y-74052325D01*
X108464726Y-73997335D01*
X108288977Y-73969500D01*
X108288972Y-73969500D01*
X108111028Y-73969500D01*
X108111023Y-73969500D01*
X107935273Y-73997335D01*
X107766034Y-74052325D01*
X107607488Y-74133109D01*
X107463527Y-74237704D01*
X107337704Y-74363527D01*
X107233109Y-74507488D01*
X107152325Y-74666034D01*
X107097335Y-74835273D01*
X107069500Y-75011022D01*
X106300500Y-75011022D01*
X106300500Y-72934108D01*
X121799500Y-72934108D01*
X121799500Y-73065891D01*
X121833608Y-73193187D01*
X121866554Y-73250250D01*
X121899500Y-73307314D01*
X121992686Y-73400500D01*
X122091521Y-73457563D01*
X122106810Y-73466390D01*
X122106814Y-73466392D01*
X122234108Y-73500500D01*
X122234110Y-73500500D01*
X122365890Y-73500500D01*
X122365892Y-73500500D01*
X122493186Y-73466392D01*
X122578540Y-73417113D01*
X122640540Y-73400500D01*
X125025500Y-73400500D01*
X125092539Y-73420185D01*
X125138294Y-73472989D01*
X125149500Y-73524500D01*
X125149500Y-81509460D01*
X125132887Y-81571460D01*
X125083609Y-81656810D01*
X125083609Y-81656811D01*
X125049500Y-81784108D01*
X125049500Y-81915891D01*
X125083608Y-82043187D01*
X125116554Y-82100250D01*
X125149500Y-82157314D01*
X125242686Y-82250500D01*
X125356814Y-82316392D01*
X125484108Y-82350500D01*
X125484110Y-82350500D01*
X125615890Y-82350500D01*
X125615892Y-82350500D01*
X125743186Y-82316392D01*
X125857314Y-82250500D01*
X125950500Y-82157314D01*
X126016392Y-82043186D01*
X126050500Y-81915892D01*
X126050500Y-81784108D01*
X126016392Y-81656814D01*
X125967113Y-81571460D01*
X125950500Y-81509460D01*
X125950500Y-80308183D01*
X125970185Y-80241144D01*
X126022989Y-80195389D01*
X126092147Y-80185445D01*
X126120717Y-80193118D01*
X126128880Y-80196396D01*
X126206814Y-80241392D01*
X126309218Y-80268830D01*
X126316136Y-80271609D01*
X126332470Y-80284484D01*
X126357600Y-80298993D01*
X126729087Y-80670480D01*
X126820412Y-80723207D01*
X126922273Y-80750500D01*
X127027727Y-80750500D01*
X131959460Y-80750500D01*
X132021460Y-80767113D01*
X132106814Y-80816392D01*
X132234108Y-80850500D01*
X132234110Y-80850500D01*
X132365890Y-80850500D01*
X132365892Y-80850500D01*
X132493186Y-80816392D01*
X132607314Y-80750500D01*
X132700500Y-80657314D01*
X132766392Y-80543186D01*
X132800500Y-80415892D01*
X132800500Y-80284108D01*
X132766392Y-80156814D01*
X132700500Y-80042686D01*
X132669995Y-80012181D01*
X132659382Y-79992744D01*
X132644882Y-79976011D01*
X132642965Y-79962679D01*
X132636510Y-79950858D01*
X132638089Y-79928771D01*
X132634938Y-79906853D01*
X132640533Y-79894601D01*
X132641494Y-79881166D01*
X132654764Y-79863439D01*
X132663963Y-79843297D01*
X132675294Y-79836014D01*
X132683366Y-79825233D01*
X132704111Y-79817495D01*
X132722741Y-79805523D01*
X132744659Y-79802371D01*
X132748830Y-79800816D01*
X132757676Y-79800500D01*
X132959460Y-79800500D01*
X133021460Y-79817113D01*
X133054198Y-79836014D01*
X133106814Y-79866392D01*
X133234108Y-79900500D01*
X133234110Y-79900500D01*
X133365890Y-79900500D01*
X133365892Y-79900500D01*
X133493186Y-79866392D01*
X133607314Y-79800500D01*
X133700500Y-79707314D01*
X133766392Y-79593186D01*
X133800500Y-79465892D01*
X133800500Y-79334108D01*
X133766392Y-79206814D01*
X133700500Y-79092686D01*
X133607314Y-78999500D01*
X133550250Y-78966554D01*
X133493187Y-78933608D01*
X133429539Y-78916554D01*
X133365892Y-78899500D01*
X133234108Y-78899500D01*
X133106814Y-78933608D01*
X133106813Y-78933608D01*
X133106811Y-78933609D01*
X133106810Y-78933609D01*
X133021460Y-78982887D01*
X132959460Y-78999500D01*
X131740540Y-78999500D01*
X131678540Y-78982887D01*
X131593188Y-78933609D01*
X131593187Y-78933608D01*
X131593186Y-78933608D01*
X131465892Y-78899500D01*
X131334108Y-78899500D01*
X131206812Y-78933608D01*
X131092686Y-78999500D01*
X131092683Y-78999502D01*
X130999502Y-79092683D01*
X130999500Y-79092686D01*
X130933608Y-79206812D01*
X130899500Y-79334108D01*
X130899500Y-79465891D01*
X130933608Y-79593187D01*
X130966554Y-79650250D01*
X130999500Y-79707314D01*
X130999502Y-79707316D01*
X131030005Y-79737819D01*
X131063490Y-79799142D01*
X131058506Y-79868834D01*
X131016634Y-79924767D01*
X130951170Y-79949184D01*
X130942324Y-79949500D01*
X127192255Y-79949500D01*
X127125216Y-79929815D01*
X127104574Y-79913181D01*
X126923993Y-79732600D01*
X126891900Y-79677014D01*
X126866392Y-79581814D01*
X126800500Y-79467686D01*
X126707314Y-79374500D01*
X126637353Y-79334108D01*
X126593187Y-79308608D01*
X126515909Y-79287902D01*
X126465892Y-79274500D01*
X126334108Y-79274500D01*
X126206814Y-79308608D01*
X126206813Y-79308608D01*
X126206811Y-79308609D01*
X126206810Y-79308609D01*
X126136500Y-79349203D01*
X126068600Y-79365676D01*
X126002573Y-79342823D01*
X125959382Y-79287902D01*
X125950500Y-79241816D01*
X125950500Y-77788549D01*
X140799500Y-77788549D01*
X140799500Y-83511450D01*
X140799501Y-83511466D01*
X140828594Y-83732452D01*
X140828595Y-83732457D01*
X140828596Y-83732463D01*
X140854444Y-83828929D01*
X140886290Y-83947780D01*
X140886293Y-83947790D01*
X140971593Y-84153722D01*
X140971595Y-84153726D01*
X141083052Y-84346774D01*
X141083057Y-84346780D01*
X141083058Y-84346782D01*
X141218751Y-84523622D01*
X141218757Y-84523629D01*
X141376370Y-84681242D01*
X141376376Y-84681247D01*
X141553226Y-84816948D01*
X141746274Y-84928405D01*
X141952219Y-85013710D01*
X142167537Y-85071404D01*
X142388543Y-85100500D01*
X142388550Y-85100500D01*
X142611450Y-85100500D01*
X142611457Y-85100500D01*
X142832463Y-85071404D01*
X143047781Y-85013710D01*
X143253726Y-84928405D01*
X143446774Y-84816948D01*
X143623624Y-84681247D01*
X143781247Y-84523624D01*
X143916948Y-84346774D01*
X144028405Y-84153726D01*
X144113710Y-83947781D01*
X144171404Y-83732463D01*
X144200500Y-83511457D01*
X144200500Y-77788543D01*
X144171404Y-77567537D01*
X144113710Y-77352219D01*
X144028405Y-77146274D01*
X143916948Y-76953226D01*
X143781247Y-76776376D01*
X143781242Y-76776370D01*
X143623629Y-76618757D01*
X143623622Y-76618751D01*
X143446782Y-76483058D01*
X143446780Y-76483057D01*
X143446774Y-76483052D01*
X143253726Y-76371595D01*
X143253722Y-76371593D01*
X143047790Y-76286293D01*
X143047783Y-76286291D01*
X143047781Y-76286290D01*
X142832463Y-76228596D01*
X142832457Y-76228595D01*
X142832452Y-76228594D01*
X142611466Y-76199501D01*
X142611463Y-76199500D01*
X142611457Y-76199500D01*
X142388543Y-76199500D01*
X142388537Y-76199500D01*
X142388533Y-76199501D01*
X142167547Y-76228594D01*
X142167540Y-76228595D01*
X142167537Y-76228596D01*
X142005229Y-76272086D01*
X141952219Y-76286290D01*
X141952209Y-76286293D01*
X141746277Y-76371593D01*
X141746273Y-76371595D01*
X141553226Y-76483052D01*
X141553217Y-76483058D01*
X141376377Y-76618751D01*
X141376370Y-76618757D01*
X141218757Y-76776370D01*
X141218751Y-76776377D01*
X141083058Y-76953217D01*
X141083052Y-76953226D01*
X140971595Y-77146273D01*
X140971593Y-77146277D01*
X140886293Y-77352209D01*
X140886290Y-77352219D01*
X140828597Y-77567534D01*
X140828594Y-77567547D01*
X140799501Y-77788533D01*
X140799500Y-77788549D01*
X125950500Y-77788549D01*
X125950500Y-74324500D01*
X125953050Y-74315814D01*
X125951762Y-74306853D01*
X125962740Y-74282812D01*
X125970185Y-74257461D01*
X125977025Y-74251533D01*
X125980787Y-74243297D01*
X126003021Y-74229007D01*
X126022989Y-74211706D01*
X126033503Y-74209418D01*
X126039565Y-74205523D01*
X126074500Y-74200500D01*
X126109460Y-74200500D01*
X126171460Y-74217113D01*
X126256814Y-74266392D01*
X126384108Y-74300500D01*
X126384110Y-74300500D01*
X126515890Y-74300500D01*
X126515892Y-74300500D01*
X126643186Y-74266392D01*
X126757314Y-74200500D01*
X126850500Y-74107314D01*
X126916392Y-73993186D01*
X126950500Y-73865892D01*
X126950500Y-73734108D01*
X126916392Y-73606814D01*
X126850500Y-73492686D01*
X126757314Y-73399500D01*
X126700250Y-73366554D01*
X126643187Y-73333608D01*
X126579539Y-73316554D01*
X126515892Y-73299500D01*
X126384108Y-73299500D01*
X126256814Y-73333608D01*
X126256813Y-73333608D01*
X126256811Y-73333609D01*
X126256810Y-73333609D01*
X126171460Y-73382887D01*
X126155971Y-73387037D01*
X126144395Y-73394477D01*
X126109460Y-73399500D01*
X126074500Y-73399500D01*
X126007461Y-73379815D01*
X125961706Y-73327011D01*
X125950500Y-73275500D01*
X125950500Y-73187729D01*
X125950501Y-73187716D01*
X125950501Y-73072274D01*
X125950500Y-73072270D01*
X125946280Y-73056519D01*
X125946278Y-73056515D01*
X125923207Y-72970413D01*
X125902246Y-72934108D01*
X125870480Y-72879087D01*
X125795913Y-72804520D01*
X125788845Y-72797452D01*
X125788844Y-72797452D01*
X125670914Y-72679521D01*
X125670913Y-72679520D01*
X125632316Y-72657235D01*
X125579589Y-72626793D01*
X125528657Y-72613146D01*
X125477727Y-72599500D01*
X125477726Y-72599500D01*
X122640540Y-72599500D01*
X122578540Y-72582887D01*
X122493188Y-72533609D01*
X122493187Y-72533608D01*
X122493186Y-72533608D01*
X122365892Y-72499500D01*
X122234108Y-72499500D01*
X122106812Y-72533608D01*
X121992686Y-72599500D01*
X121992683Y-72599502D01*
X121899502Y-72692683D01*
X121899500Y-72692686D01*
X121833608Y-72806812D01*
X121799501Y-72934105D01*
X121799500Y-72934108D01*
X106300500Y-72934108D01*
X106300500Y-72458676D01*
X106320185Y-72391637D01*
X106336819Y-72370995D01*
X106400500Y-72307314D01*
X106466392Y-72193186D01*
X106500500Y-72065892D01*
X106500500Y-71934108D01*
X106466392Y-71806814D01*
X106400500Y-71692686D01*
X106307314Y-71599500D01*
X106250250Y-71566554D01*
X106193187Y-71533608D01*
X106129539Y-71516554D01*
X106065892Y-71499500D01*
X105934108Y-71499500D01*
X105806812Y-71533608D01*
X105692686Y-71599500D01*
X105692683Y-71599502D01*
X105599502Y-71692683D01*
X105599500Y-71692686D01*
X105533608Y-71806812D01*
X105499500Y-71934108D01*
X105499500Y-72065891D01*
X105533608Y-72193187D01*
X105554672Y-72229670D01*
X105599500Y-72307314D01*
X105599502Y-72307316D01*
X105663181Y-72370995D01*
X105696666Y-72432318D01*
X105699500Y-72458676D01*
X105699500Y-101295167D01*
X105679815Y-101362206D01*
X105627011Y-101407961D01*
X105557853Y-101417905D01*
X105494297Y-101388880D01*
X105487819Y-101382848D01*
X103187075Y-99082104D01*
X103153590Y-99020781D01*
X103158574Y-98951089D01*
X103160163Y-98947049D01*
X103210130Y-98826420D01*
X103250500Y-98623465D01*
X103250500Y-98416535D01*
X103210130Y-98213580D01*
X103130941Y-98022402D01*
X103015977Y-97850345D01*
X103015975Y-97850342D01*
X102869657Y-97704024D01*
X102783626Y-97646541D01*
X102697598Y-97589059D01*
X102604127Y-97550342D01*
X102506420Y-97509870D01*
X102506412Y-97509868D01*
X102303469Y-97469500D01*
X102303465Y-97469500D01*
X102096535Y-97469500D01*
X102096530Y-97469500D01*
X101893587Y-97509868D01*
X101893579Y-97509870D01*
X101702403Y-97589058D01*
X101530342Y-97704024D01*
X101384024Y-97850342D01*
X101269058Y-98022403D01*
X101189870Y-98213579D01*
X101189868Y-98213587D01*
X101149500Y-98416530D01*
X100500500Y-98416530D01*
X100500500Y-91341723D01*
X100520185Y-91274684D01*
X100572989Y-91228929D01*
X100642147Y-91218985D01*
X100654965Y-91222256D01*
X100655070Y-91221813D01*
X100662627Y-91223598D01*
X100722155Y-91229999D01*
X100722172Y-91230000D01*
X101450000Y-91230000D01*
X101450000Y-90367529D01*
X101519153Y-90396174D01*
X101638935Y-90420000D01*
X101761065Y-90420000D01*
X101880847Y-90396174D01*
X101950000Y-90367529D01*
X101950000Y-91230000D01*
X102677828Y-91230000D01*
X102677844Y-91229999D01*
X102737372Y-91223598D01*
X102737379Y-91223596D01*
X102872086Y-91173354D01*
X102872093Y-91173350D01*
X102987187Y-91087190D01*
X102987190Y-91087187D01*
X103073350Y-90972093D01*
X103073354Y-90972086D01*
X103123596Y-90837379D01*
X103123598Y-90837372D01*
X103129999Y-90777844D01*
X103130000Y-90777827D01*
X103130000Y-90050000D01*
X102267530Y-90050000D01*
X102296174Y-89980847D01*
X102320000Y-89861065D01*
X102320000Y-89738935D01*
X102296174Y-89619153D01*
X102267530Y-89550000D01*
X103130000Y-89550000D01*
X103130000Y-88822172D01*
X103129999Y-88822155D01*
X103123598Y-88762627D01*
X103123596Y-88762620D01*
X103073354Y-88627913D01*
X103073350Y-88627906D01*
X102987190Y-88512812D01*
X102987187Y-88512809D01*
X102872093Y-88426649D01*
X102872086Y-88426645D01*
X102737379Y-88376403D01*
X102737372Y-88376401D01*
X102677844Y-88370000D01*
X101950000Y-88370000D01*
X101950000Y-89232470D01*
X101880847Y-89203826D01*
X101761065Y-89180000D01*
X101638935Y-89180000D01*
X101519153Y-89203826D01*
X101450000Y-89232470D01*
X101450000Y-88370000D01*
X100722155Y-88370000D01*
X100662627Y-88376401D01*
X100655070Y-88378187D01*
X100654417Y-88375426D01*
X100598092Y-88379431D01*
X100536783Y-88345921D01*
X100503323Y-88284584D01*
X100500500Y-88258276D01*
X100500500Y-83941723D01*
X100520185Y-83874684D01*
X100572989Y-83828929D01*
X100642147Y-83818985D01*
X100654965Y-83822256D01*
X100655070Y-83821813D01*
X100662627Y-83823598D01*
X100722155Y-83829999D01*
X100722172Y-83830000D01*
X101450000Y-83830000D01*
X101450000Y-82967529D01*
X101519153Y-82996174D01*
X101638935Y-83020000D01*
X101761065Y-83020000D01*
X101880847Y-82996174D01*
X101950000Y-82967529D01*
X101950000Y-83830000D01*
X102677828Y-83830000D01*
X102677844Y-83829999D01*
X102737372Y-83823598D01*
X102737379Y-83823596D01*
X102872086Y-83773354D01*
X102872093Y-83773350D01*
X102987187Y-83687190D01*
X102987190Y-83687187D01*
X103073350Y-83572093D01*
X103073354Y-83572086D01*
X103123596Y-83437379D01*
X103123598Y-83437372D01*
X103129999Y-83377844D01*
X103130000Y-83377827D01*
X103130000Y-82650000D01*
X102267530Y-82650000D01*
X102296174Y-82580847D01*
X102320000Y-82461065D01*
X102320000Y-82338935D01*
X102296174Y-82219153D01*
X102267530Y-82150000D01*
X103130000Y-82150000D01*
X103130000Y-81422172D01*
X103129999Y-81422155D01*
X103123598Y-81362627D01*
X103123596Y-81362620D01*
X103073354Y-81227913D01*
X103073350Y-81227906D01*
X102987190Y-81112812D01*
X102987187Y-81112809D01*
X102872093Y-81026649D01*
X102872086Y-81026645D01*
X102737379Y-80976403D01*
X102737372Y-80976401D01*
X102677844Y-80970000D01*
X101950000Y-80970000D01*
X101950000Y-81832470D01*
X101880847Y-81803826D01*
X101761065Y-81780000D01*
X101638935Y-81780000D01*
X101519153Y-81803826D01*
X101450000Y-81832470D01*
X101450000Y-80970000D01*
X100722155Y-80970000D01*
X100662627Y-80976401D01*
X100655070Y-80978187D01*
X100654417Y-80975426D01*
X100598092Y-80979431D01*
X100536783Y-80945921D01*
X100503323Y-80884584D01*
X100500500Y-80858276D01*
X100500500Y-76641723D01*
X100520185Y-76574684D01*
X100572989Y-76528929D01*
X100642147Y-76518985D01*
X100654965Y-76522256D01*
X100655070Y-76521813D01*
X100662627Y-76523598D01*
X100722155Y-76529999D01*
X100722172Y-76530000D01*
X101450000Y-76530000D01*
X101450000Y-75667529D01*
X101519153Y-75696174D01*
X101638935Y-75720000D01*
X101761065Y-75720000D01*
X101880847Y-75696174D01*
X101950000Y-75667529D01*
X101950000Y-76530000D01*
X102677828Y-76530000D01*
X102677844Y-76529999D01*
X102737372Y-76523598D01*
X102737379Y-76523596D01*
X102872086Y-76473354D01*
X102872093Y-76473350D01*
X102987187Y-76387190D01*
X102987190Y-76387187D01*
X103073350Y-76272093D01*
X103073354Y-76272086D01*
X103123596Y-76137379D01*
X103123598Y-76137372D01*
X103129999Y-76077844D01*
X103130000Y-76077827D01*
X103130000Y-75350000D01*
X102267530Y-75350000D01*
X102296174Y-75280847D01*
X102320000Y-75161065D01*
X102320000Y-75038935D01*
X102296174Y-74919153D01*
X102267530Y-74850000D01*
X103130000Y-74850000D01*
X103130000Y-74122172D01*
X103129999Y-74122155D01*
X103123598Y-74062627D01*
X103123596Y-74062620D01*
X103073354Y-73927913D01*
X103073350Y-73927906D01*
X102987190Y-73812812D01*
X102987187Y-73812809D01*
X102872093Y-73726649D01*
X102872086Y-73726645D01*
X102737379Y-73676403D01*
X102737372Y-73676401D01*
X102677844Y-73670000D01*
X101950000Y-73670000D01*
X101950000Y-74532470D01*
X101880847Y-74503826D01*
X101761065Y-74480000D01*
X101638935Y-74480000D01*
X101519153Y-74503826D01*
X101450000Y-74532470D01*
X101450000Y-73670000D01*
X100722155Y-73670000D01*
X100662627Y-73676401D01*
X100655070Y-73678187D01*
X100654417Y-73675426D01*
X100598092Y-73679431D01*
X100536783Y-73645921D01*
X100503323Y-73584584D01*
X100500500Y-73558276D01*
X100500500Y-71272155D01*
X140500000Y-71272155D01*
X140500000Y-72570000D01*
X141780936Y-72570000D01*
X141769207Y-72598316D01*
X141740000Y-72745147D01*
X141740000Y-72894853D01*
X141769207Y-73041684D01*
X141780936Y-73070000D01*
X140500000Y-73070000D01*
X140500000Y-74367844D01*
X140506401Y-74427372D01*
X140506403Y-74427379D01*
X140556645Y-74562086D01*
X140556649Y-74562093D01*
X140642809Y-74677187D01*
X140642812Y-74677190D01*
X140757906Y-74763350D01*
X140757913Y-74763354D01*
X140892620Y-74813596D01*
X140892627Y-74813598D01*
X140952155Y-74819999D01*
X140952172Y-74820000D01*
X142250000Y-74820000D01*
X142250000Y-73539064D01*
X142278316Y-73550793D01*
X142425147Y-73580000D01*
X142574853Y-73580000D01*
X142721684Y-73550793D01*
X142750000Y-73539064D01*
X142750000Y-74820000D01*
X144047828Y-74820000D01*
X144047844Y-74819999D01*
X144107372Y-74813598D01*
X144107379Y-74813596D01*
X144242086Y-74763354D01*
X144242093Y-74763350D01*
X144357187Y-74677190D01*
X144357190Y-74677187D01*
X144443350Y-74562093D01*
X144443354Y-74562086D01*
X144493596Y-74427379D01*
X144493598Y-74427372D01*
X144499999Y-74367844D01*
X144500000Y-74367827D01*
X144500000Y-73070000D01*
X143219064Y-73070000D01*
X143230793Y-73041684D01*
X143260000Y-72894853D01*
X143260000Y-72745147D01*
X143230793Y-72598316D01*
X143219064Y-72570000D01*
X144500000Y-72570000D01*
X144500000Y-71272172D01*
X144499999Y-71272155D01*
X144493598Y-71212627D01*
X144493596Y-71212620D01*
X144443354Y-71077913D01*
X144443350Y-71077906D01*
X144357190Y-70962812D01*
X144357187Y-70962809D01*
X144242093Y-70876649D01*
X144242086Y-70876645D01*
X144107379Y-70826403D01*
X144107372Y-70826401D01*
X144047844Y-70820000D01*
X142750000Y-70820000D01*
X142750000Y-72100935D01*
X142721684Y-72089207D01*
X142574853Y-72060000D01*
X142425147Y-72060000D01*
X142278316Y-72089207D01*
X142250000Y-72100935D01*
X142250000Y-70820000D01*
X140952155Y-70820000D01*
X140892627Y-70826401D01*
X140892620Y-70826403D01*
X140757913Y-70876645D01*
X140757906Y-70876649D01*
X140642812Y-70962809D01*
X140642809Y-70962812D01*
X140556649Y-71077906D01*
X140556645Y-71077913D01*
X140506403Y-71212620D01*
X140506401Y-71212627D01*
X140500000Y-71272155D01*
X100500500Y-71272155D01*
X100500500Y-66658634D01*
X100502178Y-66651571D01*
X100500500Y-66592845D01*
X100500500Y-66579360D01*
X100500541Y-66576174D01*
X100502964Y-66481902D01*
X102099500Y-66481902D01*
X102099500Y-66718097D01*
X102136446Y-66951368D01*
X102209433Y-67175996D01*
X102316657Y-67386433D01*
X102455483Y-67577510D01*
X102622490Y-67744517D01*
X102813567Y-67883343D01*
X102912991Y-67934002D01*
X103024003Y-67990566D01*
X103024005Y-67990566D01*
X103024008Y-67990568D01*
X103144412Y-68029689D01*
X103248631Y-68063553D01*
X103481903Y-68100500D01*
X103481908Y-68100500D01*
X103718097Y-68100500D01*
X103951368Y-68063553D01*
X103954304Y-68062599D01*
X104175992Y-67990568D01*
X104280342Y-67937399D01*
X120134500Y-67937399D01*
X120134500Y-68062601D01*
X120166905Y-68183536D01*
X120229505Y-68291964D01*
X120318036Y-68380495D01*
X120426464Y-68443095D01*
X120547399Y-68475500D01*
X120547401Y-68475500D01*
X120672599Y-68475500D01*
X120672601Y-68475500D01*
X120793536Y-68443095D01*
X120901964Y-68380495D01*
X120990495Y-68291964D01*
X121053095Y-68183536D01*
X121085500Y-68062601D01*
X121085500Y-67937399D01*
X125914500Y-67937399D01*
X125914500Y-68062601D01*
X125946905Y-68183536D01*
X126009505Y-68291964D01*
X126098036Y-68380495D01*
X126206464Y-68443095D01*
X126327399Y-68475500D01*
X126327401Y-68475500D01*
X126452599Y-68475500D01*
X126452601Y-68475500D01*
X126573536Y-68443095D01*
X126681964Y-68380495D01*
X126770495Y-68291964D01*
X126833095Y-68183536D01*
X126865500Y-68062601D01*
X126865500Y-67937399D01*
X126833095Y-67816464D01*
X126770495Y-67708036D01*
X126681964Y-67619505D01*
X126573536Y-67556905D01*
X126573537Y-67556905D01*
X126533224Y-67546103D01*
X126452601Y-67524500D01*
X126327399Y-67524500D01*
X126246775Y-67546103D01*
X126206463Y-67556905D01*
X126098037Y-67619504D01*
X126098034Y-67619506D01*
X126009506Y-67708034D01*
X126009504Y-67708037D01*
X125946905Y-67816463D01*
X125930702Y-67876931D01*
X125914500Y-67937399D01*
X121085500Y-67937399D01*
X121053095Y-67816464D01*
X120990495Y-67708036D01*
X120901964Y-67619505D01*
X120793536Y-67556905D01*
X120793537Y-67556905D01*
X120753224Y-67546103D01*
X120672601Y-67524500D01*
X120547399Y-67524500D01*
X120466775Y-67546103D01*
X120426463Y-67556905D01*
X120318037Y-67619504D01*
X120318034Y-67619506D01*
X120229506Y-67708034D01*
X120229504Y-67708037D01*
X120166905Y-67816463D01*
X120150702Y-67876931D01*
X120134500Y-67937399D01*
X104280342Y-67937399D01*
X104386433Y-67883343D01*
X104577510Y-67744517D01*
X104744517Y-67577510D01*
X104883343Y-67386433D01*
X104990568Y-67175992D01*
X105063553Y-66951368D01*
X105100500Y-66718097D01*
X105100500Y-66481902D01*
X141899500Y-66481902D01*
X141899500Y-66718097D01*
X141936446Y-66951368D01*
X142009433Y-67175996D01*
X142116657Y-67386433D01*
X142255483Y-67577510D01*
X142422490Y-67744517D01*
X142613567Y-67883343D01*
X142712991Y-67934002D01*
X142824003Y-67990566D01*
X142824005Y-67990566D01*
X142824008Y-67990568D01*
X142944412Y-68029689D01*
X143048631Y-68063553D01*
X143281903Y-68100500D01*
X143281908Y-68100500D01*
X143518097Y-68100500D01*
X143751368Y-68063553D01*
X143754304Y-68062599D01*
X143975992Y-67990568D01*
X144186433Y-67883343D01*
X144377510Y-67744517D01*
X144544517Y-67577510D01*
X144683343Y-67386433D01*
X144790568Y-67175992D01*
X144863553Y-66951368D01*
X144900500Y-66718097D01*
X144900500Y-66481902D01*
X144863553Y-66248631D01*
X144829689Y-66144412D01*
X144790568Y-66024008D01*
X144790566Y-66024005D01*
X144790566Y-66024003D01*
X144683342Y-65813566D01*
X144544517Y-65622490D01*
X144377510Y-65455483D01*
X144186433Y-65316657D01*
X144173435Y-65310034D01*
X143975996Y-65209433D01*
X143751368Y-65136446D01*
X143518097Y-65099500D01*
X143518092Y-65099500D01*
X143281908Y-65099500D01*
X143281903Y-65099500D01*
X143048631Y-65136446D01*
X142824003Y-65209433D01*
X142613566Y-65316657D01*
X142555123Y-65359119D01*
X142422490Y-65455483D01*
X142422488Y-65455485D01*
X142422487Y-65455485D01*
X142255485Y-65622487D01*
X142255485Y-65622488D01*
X142255483Y-65622490D01*
X142195862Y-65704550D01*
X142116657Y-65813566D01*
X142009433Y-66024003D01*
X141936446Y-66248631D01*
X141899500Y-66481902D01*
X105100500Y-66481902D01*
X105063553Y-66248631D01*
X105029689Y-66144412D01*
X104990568Y-66024008D01*
X104990566Y-66024005D01*
X104990566Y-66024003D01*
X104883342Y-65813566D01*
X104744517Y-65622490D01*
X104577510Y-65455483D01*
X104386433Y-65316657D01*
X104373435Y-65310034D01*
X104175996Y-65209433D01*
X103951368Y-65136446D01*
X103718097Y-65099500D01*
X103718092Y-65099500D01*
X103481908Y-65099500D01*
X103481903Y-65099500D01*
X103248631Y-65136446D01*
X103024003Y-65209433D01*
X102813566Y-65316657D01*
X102755123Y-65359119D01*
X102622490Y-65455483D01*
X102622488Y-65455485D01*
X102622487Y-65455485D01*
X102455485Y-65622487D01*
X102455485Y-65622488D01*
X102455483Y-65622490D01*
X102395862Y-65704550D01*
X102316657Y-65813566D01*
X102209433Y-66024003D01*
X102136446Y-66248631D01*
X102099500Y-66481902D01*
X100502964Y-66481902D01*
X100503171Y-66473850D01*
X100504488Y-66422614D01*
X100508488Y-66267009D01*
X100509559Y-66253634D01*
X100551325Y-65944351D01*
X100553845Y-65931147D01*
X100595077Y-65764649D01*
X100628859Y-65628232D01*
X100632789Y-65615394D01*
X100740170Y-65322390D01*
X100745476Y-65310034D01*
X100795295Y-65209432D01*
X100883969Y-65030371D01*
X100890564Y-65018691D01*
X101058545Y-64755658D01*
X101066380Y-64744746D01*
X101261841Y-64501484D01*
X101270813Y-64491480D01*
X101491480Y-64270813D01*
X101501484Y-64261841D01*
X101717737Y-64088082D01*
X101744748Y-64066378D01*
X101755658Y-64058545D01*
X102018691Y-63890564D01*
X102030371Y-63883969D01*
X102285289Y-63757730D01*
X102310034Y-63745476D01*
X102322393Y-63740170D01*
X102615394Y-63632789D01*
X102628232Y-63628859D01*
X102931152Y-63553843D01*
X102944351Y-63551325D01*
X103253634Y-63509559D01*
X103267010Y-63508488D01*
X103576277Y-63500537D01*
X103579441Y-63500497D01*
X103591111Y-63500498D01*
G37*
G04 #@! TD.AperFunction*
M02*
